G04 #@! TF.GenerationSoftware,KiCad,Pcbnew,(5.1.6)-1*
G04 #@! TF.CreationDate,2021-09-25T22:06:40+02:00*
G04 #@! TF.ProjectId,nrfmodule,6e72666d-6f64-4756-9c65-2e6b69636164,rev?*
G04 #@! TF.SameCoordinates,Original*
G04 #@! TF.FileFunction,Paste,Bot*
G04 #@! TF.FilePolarity,Positive*
%FSLAX46Y46*%
G04 Gerber Fmt 4.6, Leading zero omitted, Abs format (unit mm)*
G04 Created by KiCad (PCBNEW (5.1.6)-1) date 2021-09-25 22:06:40*
%MOMM*%
%LPD*%
G01*
G04 APERTURE LIST*
%ADD10R,0.625000X0.400000*%
%ADD11R,0.550000X0.600000*%
%ADD12R,1.020000X1.470000*%
%ADD13R,0.465000X0.440000*%
%ADD14R,0.460000X0.420000*%
%ADD15R,0.470000X0.440000*%
%ADD16R,0.440000X0.470000*%
%ADD17R,0.800000X0.800000*%
%ADD18R,0.300000X0.300000*%
%ADD19R,0.300000X0.540000*%
%ADD20R,0.540000X0.540000*%
%ADD21R,0.540000X0.300000*%
%ADD22C,0.226000*%
G04 APERTURE END LIST*
D10*
G04 #@! TO.C,R5*
X157470000Y-107430000D03*
X158294000Y-107430000D03*
G04 #@! TD*
D11*
G04 #@! TO.C,FL1*
X158920000Y-92780000D03*
X160220000Y-92780000D03*
G04 #@! TD*
D12*
G04 #@! TO.C,47uF2*
X159740000Y-107150000D03*
X161360000Y-107150000D03*
G04 #@! TD*
G04 #@! TO.C,47uF1*
X155070000Y-93580000D03*
X156690000Y-93580000D03*
G04 #@! TD*
D13*
G04 #@! TO.C,4.7uF4*
X164190000Y-102900000D03*
X163526000Y-102900000D03*
G04 #@! TD*
D14*
G04 #@! TO.C,15pF2*
X163260000Y-106520000D03*
X162600000Y-106520000D03*
G04 #@! TD*
G04 #@! TO.C,15pF1*
X159060000Y-93730000D03*
X158400000Y-93730000D03*
G04 #@! TD*
G04 #@! TO.C,100nF4*
X157750000Y-106590000D03*
X157090000Y-106590000D03*
G04 #@! TD*
G04 #@! TO.C,100nF3*
X164310000Y-101760000D03*
X163650000Y-101760000D03*
G04 #@! TD*
G04 #@! TO.C,100nF2*
X163270000Y-107250000D03*
X162610000Y-107250000D03*
G04 #@! TD*
G04 #@! TO.C,100nF1*
X158430000Y-94480000D03*
X157770000Y-94480000D03*
G04 #@! TD*
D15*
G04 #@! TO.C,0\u002C1uF1*
X163615000Y-100200000D03*
X164285000Y-100200000D03*
G04 #@! TD*
G04 #@! TO.C,0\u002C1uF2*
X164280000Y-96430000D03*
X163610000Y-96430000D03*
G04 #@! TD*
D10*
G04 #@! TO.C,10KOhm1*
X161034000Y-94360000D03*
X160210000Y-94360000D03*
G04 #@! TD*
D16*
G04 #@! TO.C,1uF5*
X147390000Y-107450000D03*
X147390000Y-106780000D03*
G04 #@! TD*
D13*
G04 #@! TO.C,4.7uF3*
X164262000Y-100980000D03*
X163598000Y-100980000D03*
G04 #@! TD*
D17*
G04 #@! TO.C,NRF91*
X148750000Y-103700000D03*
X150750000Y-103700000D03*
X152750000Y-103700000D03*
X154750000Y-103700000D03*
X156750000Y-103700000D03*
X158750000Y-103700000D03*
X148750000Y-102100000D03*
X150750000Y-102100000D03*
X152750000Y-102100000D03*
X154750000Y-102100000D03*
X156750000Y-102100000D03*
X158750000Y-102100000D03*
X148750000Y-100500000D03*
X150750000Y-100500000D03*
X152750000Y-100500000D03*
X154750000Y-100500000D03*
X156750000Y-100500000D03*
X158750000Y-100500000D03*
X148750000Y-98900000D03*
X150750000Y-98900000D03*
X152750000Y-98900000D03*
X154750000Y-98900000D03*
X156750000Y-98900000D03*
X158750000Y-98900000D03*
D18*
X150000000Y-104850000D03*
X150500000Y-104850000D03*
X151000000Y-104850000D03*
X151500000Y-104850000D03*
X155000000Y-104850000D03*
X155500000Y-104850000D03*
X156000000Y-104850000D03*
X156500000Y-104850000D03*
X160500000Y-104850000D03*
X160000000Y-104850000D03*
X159500000Y-104850000D03*
X159000000Y-104850000D03*
X150000000Y-96150000D03*
X150500000Y-96150000D03*
X151000000Y-96150000D03*
X151500000Y-96150000D03*
X155000000Y-96150000D03*
X155500000Y-96150000D03*
X156000000Y-96150000D03*
X156500000Y-96150000D03*
X160500000Y-96150000D03*
X160000000Y-96150000D03*
X159500000Y-96150000D03*
X159000000Y-96150000D03*
D17*
X148750000Y-97300000D03*
X150750000Y-97300000D03*
X152750000Y-97300000D03*
X160750000Y-103700000D03*
X160750000Y-102100000D03*
X160750000Y-97300000D03*
X160750000Y-98900000D03*
X160750000Y-100500000D03*
X158750000Y-97300000D03*
X156750000Y-97300000D03*
X154750000Y-97300000D03*
D19*
X162000000Y-95380000D03*
X161500000Y-95380000D03*
X161000000Y-95380000D03*
X160500000Y-95380000D03*
X160000000Y-95380000D03*
X159500000Y-95380000D03*
X159000000Y-95380000D03*
X158500000Y-95380000D03*
X158000000Y-95380000D03*
X157500000Y-95380000D03*
X157000000Y-95380000D03*
X156500000Y-95380000D03*
X156000000Y-95380000D03*
X155500000Y-95380000D03*
X155000000Y-95380000D03*
X154500000Y-95380000D03*
X154000000Y-95380000D03*
X153500000Y-95380000D03*
X153000000Y-95380000D03*
X152500000Y-95380000D03*
X152000000Y-95380000D03*
X151500000Y-95380000D03*
X151000000Y-95380000D03*
X150500000Y-95380000D03*
X150000000Y-95380000D03*
X149500000Y-95380000D03*
X149000000Y-95380000D03*
X148500000Y-95380000D03*
X148000000Y-95380000D03*
X147500000Y-95380000D03*
D20*
X146880000Y-95380000D03*
D21*
X146880000Y-96000000D03*
X146880000Y-96500000D03*
X146880000Y-97000000D03*
X146880000Y-97500000D03*
X146880000Y-98000000D03*
X146880000Y-98500000D03*
X146880000Y-99000000D03*
X146880000Y-99500000D03*
X146880000Y-100000000D03*
X146880000Y-100500000D03*
X146880000Y-101000000D03*
X146880000Y-101500000D03*
X146880000Y-102000000D03*
X146880000Y-102500000D03*
X146880000Y-103000000D03*
X146880000Y-103500000D03*
X146880000Y-104000000D03*
X146880000Y-104500000D03*
X146880000Y-105000000D03*
D20*
X146880000Y-105620000D03*
D19*
X147500000Y-105620000D03*
X148000000Y-105620000D03*
X148500000Y-105620000D03*
X149000000Y-105620000D03*
X149500000Y-105620000D03*
X150000000Y-105620000D03*
X150500000Y-105620000D03*
X151000000Y-105620000D03*
X151500000Y-105620000D03*
X152000000Y-105620000D03*
X152500000Y-105620000D03*
X153000000Y-105620000D03*
X153500000Y-105620000D03*
X154000000Y-105620000D03*
X154500000Y-105620000D03*
X155000000Y-105620000D03*
X155500000Y-105620000D03*
X156000000Y-105620000D03*
X156500000Y-105620000D03*
X157000000Y-105620000D03*
X157500000Y-105620000D03*
X158000000Y-105620000D03*
X158500000Y-105620000D03*
X159000000Y-105620000D03*
X159500000Y-105620000D03*
X160000000Y-105620000D03*
X160500000Y-105620000D03*
X161000000Y-105620000D03*
X161500000Y-105620000D03*
X162000000Y-105620000D03*
D20*
X162620000Y-105620000D03*
D21*
X162620000Y-105000000D03*
X162620000Y-104500000D03*
X162620000Y-104000000D03*
X162620000Y-103500000D03*
X162620000Y-103000000D03*
X162620000Y-102500000D03*
X162620000Y-102000000D03*
X162620000Y-101500000D03*
X162620000Y-101000000D03*
X162620000Y-100500000D03*
X162620000Y-100000000D03*
X162620000Y-99500000D03*
X162620000Y-99000000D03*
X162620000Y-98500000D03*
X162620000Y-98000000D03*
X162620000Y-97500000D03*
X162620000Y-97000000D03*
X162620000Y-96500000D03*
X162620000Y-96000000D03*
D20*
X162620000Y-95380000D03*
G04 #@! TD*
D22*
G04 #@! TO.C,TXB102*
X163930000Y-99060000D03*
X164430000Y-99060000D03*
X163930000Y-98560000D03*
X164430000Y-98560000D03*
X163930000Y-98060000D03*
X164430000Y-98060000D03*
X163930000Y-97560000D03*
X164430000Y-97560000D03*
G04 #@! TD*
M02*
