G04 #@! TF.GenerationSoftware,KiCad,Pcbnew,(5.1.6)-1*
G04 #@! TF.CreationDate,2021-09-25T22:06:40+02:00*
G04 #@! TF.ProjectId,nrfmodule,6e72666d-6f64-4756-9c65-2e6b69636164,rev?*
G04 #@! TF.SameCoordinates,Original*
G04 #@! TF.FileFunction,Copper,L1,Top*
G04 #@! TF.FilePolarity,Positive*
%FSLAX46Y46*%
G04 Gerber Fmt 4.6, Leading zero omitted, Abs format (unit mm)*
G04 Created by KiCad (PCBNEW (5.1.6)-1) date 2021-09-25 22:06:40*
%MOMM*%
%LPD*%
G01*
G04 APERTURE LIST*
G04 #@! TA.AperFunction,EtchedComponent*
%ADD10C,0.002000*%
G04 #@! TD*
G04 #@! TA.AperFunction,SMDPad,CuDef*
%ADD11R,1.000000X1.050000*%
G04 #@! TD*
G04 #@! TA.AperFunction,SMDPad,CuDef*
%ADD12R,1.050000X2.200000*%
G04 #@! TD*
G04 #@! TA.AperFunction,SMDPad,CuDef*
%ADD13R,0.440000X0.470000*%
G04 #@! TD*
G04 #@! TA.AperFunction,SMDPad,CuDef*
%ADD14R,1.220000X1.920000*%
G04 #@! TD*
G04 #@! TA.AperFunction,SMDPad,CuDef*
%ADD15R,1.100000X1.700000*%
G04 #@! TD*
G04 #@! TA.AperFunction,SMDPad,CuDef*
%ADD16R,0.600000X0.350000*%
G04 #@! TD*
G04 #@! TA.AperFunction,ComponentPad*
%ADD17R,1.725000X1.725000*%
G04 #@! TD*
G04 #@! TA.AperFunction,SMDPad,CuDef*
%ADD18C,0.180000*%
G04 #@! TD*
G04 #@! TA.AperFunction,SMDPad,CuDef*
%ADD19R,0.600000X0.600000*%
G04 #@! TD*
G04 #@! TA.AperFunction,SMDPad,CuDef*
%ADD20R,0.450000X2.900000*%
G04 #@! TD*
G04 #@! TA.AperFunction,SMDPad,CuDef*
%ADD21R,0.450000X1.900000*%
G04 #@! TD*
G04 #@! TA.AperFunction,SMDPad,CuDef*
%ADD22R,0.450000X2.400000*%
G04 #@! TD*
G04 #@! TA.AperFunction,SMDPad,CuDef*
%ADD23R,1.400000X0.500000*%
G04 #@! TD*
G04 #@! TA.AperFunction,SMDPad,CuDef*
%ADD24R,0.750000X0.700000*%
G04 #@! TD*
G04 #@! TA.AperFunction,SMDPad,CuDef*
%ADD25R,1.200000X0.650000*%
G04 #@! TD*
G04 #@! TA.AperFunction,SMDPad,CuDef*
%ADD26R,0.700000X0.700000*%
G04 #@! TD*
G04 #@! TA.AperFunction,SMDPad,CuDef*
%ADD27R,0.900000X0.700000*%
G04 #@! TD*
G04 #@! TA.AperFunction,SMDPad,CuDef*
%ADD28C,0.250000*%
G04 #@! TD*
G04 #@! TA.AperFunction,ComponentPad*
%ADD29C,1.067000*%
G04 #@! TD*
G04 #@! TA.AperFunction,ComponentPad*
%ADD30C,0.813000*%
G04 #@! TD*
G04 #@! TA.AperFunction,ViaPad*
%ADD31R,1.016000X1.016000*%
G04 #@! TD*
G04 #@! TA.AperFunction,ViaPad*
%ADD32C,0.450000*%
G04 #@! TD*
G04 #@! TA.AperFunction,ViaPad*
%ADD33C,0.800000*%
G04 #@! TD*
G04 #@! TA.AperFunction,Conductor*
%ADD34C,0.508000*%
G04 #@! TD*
G04 #@! TA.AperFunction,Conductor*
%ADD35C,0.101600*%
G04 #@! TD*
G04 #@! TA.AperFunction,Conductor*
%ADD36C,0.200000*%
G04 #@! TD*
G04 #@! TA.AperFunction,Conductor*
%ADD37C,0.254000*%
G04 #@! TD*
G04 #@! TA.AperFunction,Conductor*
%ADD38C,0.127000*%
G04 #@! TD*
G04 APERTURE END LIST*
D10*
G04 #@! TO.C,Edge_Connect1*
G36*
X146147000Y-110024000D02*
G01*
X146147000Y-108756000D01*
X145133000Y-108756000D01*
X145133000Y-110024000D01*
X146147000Y-110024000D01*
G37*
X146147000Y-110024000D02*
X146147000Y-108756000D01*
X145133000Y-108756000D01*
X145133000Y-110024000D01*
X146147000Y-110024000D01*
G36*
X147417000Y-110024000D02*
G01*
X147417000Y-108756000D01*
X146403000Y-108756000D01*
X146403000Y-110024000D01*
X147417000Y-110024000D01*
G37*
X147417000Y-110024000D02*
X147417000Y-108756000D01*
X146403000Y-108756000D01*
X146403000Y-110024000D01*
X147417000Y-110024000D01*
G36*
X148687000Y-110024000D02*
G01*
X148687000Y-108756000D01*
X147673000Y-108756000D01*
X147673000Y-110024000D01*
X148687000Y-110024000D01*
G37*
X148687000Y-110024000D02*
X148687000Y-108756000D01*
X147673000Y-108756000D01*
X147673000Y-110024000D01*
X148687000Y-110024000D01*
G36*
X149957000Y-110024000D02*
G01*
X149957000Y-108756000D01*
X148943000Y-108756000D01*
X148943000Y-110024000D01*
X149957000Y-110024000D01*
G37*
X149957000Y-110024000D02*
X149957000Y-108756000D01*
X148943000Y-108756000D01*
X148943000Y-110024000D01*
X149957000Y-110024000D01*
G36*
X151227000Y-110024000D02*
G01*
X151227000Y-108756000D01*
X150213000Y-108756000D01*
X150213000Y-110024000D01*
X151227000Y-110024000D01*
G37*
X151227000Y-110024000D02*
X151227000Y-108756000D01*
X150213000Y-108756000D01*
X150213000Y-110024000D01*
X151227000Y-110024000D01*
G36*
X152497000Y-110024000D02*
G01*
X152497000Y-108756000D01*
X151483000Y-108756000D01*
X151483000Y-110024000D01*
X152497000Y-110024000D01*
G37*
X152497000Y-110024000D02*
X152497000Y-108756000D01*
X151483000Y-108756000D01*
X151483000Y-110024000D01*
X152497000Y-110024000D01*
G36*
X153767000Y-110024000D02*
G01*
X153767000Y-108756000D01*
X152753000Y-108756000D01*
X152753000Y-110024000D01*
X153767000Y-110024000D01*
G37*
X153767000Y-110024000D02*
X153767000Y-108756000D01*
X152753000Y-108756000D01*
X152753000Y-110024000D01*
X153767000Y-110024000D01*
G36*
X155037000Y-110024000D02*
G01*
X155037000Y-108756000D01*
X154023000Y-108756000D01*
X154023000Y-110024000D01*
X155037000Y-110024000D01*
G37*
X155037000Y-110024000D02*
X155037000Y-108756000D01*
X154023000Y-108756000D01*
X154023000Y-110024000D01*
X155037000Y-110024000D01*
G36*
X156307000Y-110024000D02*
G01*
X156307000Y-108756000D01*
X155293000Y-108756000D01*
X155293000Y-110024000D01*
X156307000Y-110024000D01*
G37*
X156307000Y-110024000D02*
X156307000Y-108756000D01*
X155293000Y-108756000D01*
X155293000Y-110024000D01*
X156307000Y-110024000D01*
G36*
X157577000Y-110024000D02*
G01*
X157577000Y-108756000D01*
X156563000Y-108756000D01*
X156563000Y-110024000D01*
X157577000Y-110024000D01*
G37*
X157577000Y-110024000D02*
X157577000Y-108756000D01*
X156563000Y-108756000D01*
X156563000Y-110024000D01*
X157577000Y-110024000D01*
G36*
X158847000Y-110024000D02*
G01*
X158847000Y-108756000D01*
X157833000Y-108756000D01*
X157833000Y-110024000D01*
X158847000Y-110024000D01*
G37*
X158847000Y-110024000D02*
X158847000Y-108756000D01*
X157833000Y-108756000D01*
X157833000Y-110024000D01*
X158847000Y-110024000D01*
G36*
X160117000Y-110024000D02*
G01*
X160117000Y-108756000D01*
X159103000Y-108756000D01*
X159103000Y-110024000D01*
X160117000Y-110024000D01*
G37*
X160117000Y-110024000D02*
X160117000Y-108756000D01*
X159103000Y-108756000D01*
X159103000Y-110024000D01*
X160117000Y-110024000D01*
G36*
X161387000Y-110024000D02*
G01*
X161387000Y-108756000D01*
X160373000Y-108756000D01*
X160373000Y-110024000D01*
X161387000Y-110024000D01*
G37*
X161387000Y-110024000D02*
X161387000Y-108756000D01*
X160373000Y-108756000D01*
X160373000Y-110024000D01*
X161387000Y-110024000D01*
G36*
X162657000Y-110024000D02*
G01*
X162657000Y-108756000D01*
X161643000Y-108756000D01*
X161643000Y-110024000D01*
X162657000Y-110024000D01*
G37*
X162657000Y-110024000D02*
X162657000Y-108756000D01*
X161643000Y-108756000D01*
X161643000Y-110024000D01*
X162657000Y-110024000D01*
G04 #@! TD*
D11*
G04 #@! TO.P,U.FL2,3*
G04 #@! TO.N,Net-(NRF91-Pad67)*
X146225000Y-97875000D03*
D12*
G04 #@! TO.P,U.FL2,2*
G04 #@! TO.N,GND*
X144750000Y-99400000D03*
G04 #@! TO.P,U.FL2,1*
X147700000Y-99400000D03*
G04 #@! TD*
D13*
G04 #@! TO.P,1uF1,2*
G04 #@! TO.N,+1V8*
X140030000Y-95825000D03*
G04 #@! TO.P,1uF1,1*
G04 #@! TO.N,GND*
X140030000Y-96495000D03*
G04 #@! TD*
G04 #@! TO.P,1uF2,2*
G04 #@! TO.N,VCC*
X143740000Y-95855000D03*
G04 #@! TO.P,1uF2,1*
G04 #@! TO.N,GND*
X143740000Y-96525000D03*
G04 #@! TD*
G04 #@! TO.P,1uF3,2*
G04 #@! TO.N,GND*
X139920000Y-104495000D03*
G04 #@! TO.P,1uF3,1*
G04 #@! TO.N,VCC*
X139920000Y-103825000D03*
G04 #@! TD*
G04 #@! TO.P,1uF4,2*
G04 #@! TO.N,GND*
X143920000Y-104520000D03*
G04 #@! TO.P,1uF4,1*
G04 #@! TO.N,+5V*
X143920000Y-103850000D03*
G04 #@! TD*
D14*
G04 #@! TO.P,220uF1,2*
G04 #@! TO.N,VCC*
X140340000Y-101550000D03*
G04 #@! TO.P,220uF1,1*
G04 #@! TO.N,GND*
X143040000Y-101550000D03*
G04 #@! TD*
G04 #@! TO.P,220uF2,2*
G04 #@! TO.N,VCC*
X140320000Y-99240000D03*
G04 #@! TO.P,220uF2,1*
G04 #@! TO.N,GND*
X143020000Y-99240000D03*
G04 #@! TD*
D15*
G04 #@! TO.P,5.0V1,7*
G04 #@! TO.N,GND*
X141920000Y-104500000D03*
D16*
G04 #@! TO.P,5.0V1,6*
G04 #@! TO.N,+5V*
X142970000Y-103850000D03*
G04 #@! TO.P,5.0V1,5*
G04 #@! TO.N,GND*
X142970000Y-104500000D03*
G04 #@! TO.P,5.0V1,4*
G04 #@! TO.N,+5V*
X142970000Y-105150000D03*
G04 #@! TO.P,5.0V1,3*
G04 #@! TO.N,GND*
X140870000Y-105150000D03*
G04 #@! TO.P,5.0V1,2*
X140870000Y-104500000D03*
G04 #@! TO.P,5.0V1,1*
G04 #@! TO.N,VCC*
X140870000Y-103850000D03*
G04 #@! TD*
D17*
G04 #@! TO.P,5V+1,1*
G04 #@! TO.N,+5V*
X142030000Y-107360000D03*
G04 #@! TD*
G04 #@! TO.P,GND1,1*
G04 #@! TO.N,GND*
X142180000Y-93700000D03*
G04 #@! TD*
D18*
G04 #@! TO.P,IC1,B2*
G04 #@! TO.N,GND*
X141545000Y-95465000D03*
G04 #@! TO.P,IC1,B1*
G04 #@! TO.N,VCC*
X141895000Y-95465000D03*
G04 #@! TO.P,IC1,A2*
G04 #@! TO.N,+1V8*
X141545000Y-95815000D03*
G04 #@! TO.P,IC1,A1*
G04 #@! TO.N,VCC*
X141895000Y-95815000D03*
G04 #@! TD*
D19*
G04 #@! TO.P,NANOSIM1,GND10*
G04 #@! TO.N,GND*
X154410000Y-105930000D03*
G04 #@! TO.P,NANOSIM1,GND9*
X156850000Y-105930000D03*
D20*
G04 #@! TO.P,NANOSIM1,GND8*
X162185000Y-104780000D03*
D21*
G04 #@! TO.P,NANOSIM1,GND7*
X162185000Y-99930000D03*
D22*
G04 #@! TO.P,NANOSIM1,GND6*
X162185000Y-94780000D03*
D23*
G04 #@! TO.P,NANOSIM1,GND5*
X157830000Y-92830000D03*
G04 #@! TO.P,NANOSIM1,GND4*
X153430000Y-92830000D03*
D24*
G04 #@! TO.P,NANOSIM1,GND3*
X151535000Y-95780000D03*
D21*
G04 #@! TO.P,NANOSIM1,GND2*
X151035000Y-99930000D03*
D20*
G04 #@! TO.P,NANOSIM1,GND1*
X151035000Y-104780000D03*
D25*
G04 #@! TO.P,NANOSIM1,DSW1*
G04 #@! TO.N,Net-(NANOSIM1-PadDSW1)*
X155080000Y-93905000D03*
D26*
G04 #@! TO.P,NANOSIM1,CSW1*
G04 #@! TO.N,Net-(NANOSIM1-PadCSW1)*
X151360000Y-97580000D03*
D27*
G04 #@! TO.P,NANOSIM1,C7*
G04 #@! TO.N,Net-(NANOSIM1-PadC7)*
X153090000Y-100910000D03*
G04 #@! TO.P,NANOSIM1,C6*
G04 #@! TO.N,Net-(NANOSIM1-PadC6)*
X155630000Y-100910000D03*
G04 #@! TO.P,NANOSIM1,C5*
G04 #@! TO.N,GND*
X158170000Y-100910000D03*
G04 #@! TO.P,NANOSIM1,C3*
G04 #@! TO.N,Net-(NANOSIM1-PadC3)*
X153190000Y-104080000D03*
G04 #@! TO.P,NANOSIM1,C2*
G04 #@! TO.N,Net-(NANOSIM1-PadC2)*
X155630000Y-104080000D03*
G04 #@! TO.P,NANOSIM1,C1*
G04 #@! TO.N,SIM1.8v*
X158070000Y-104080000D03*
G04 #@! TD*
D17*
G04 #@! TO.P,RX1,1*
G04 #@! TO.N,RXNRF*
X165060000Y-106460000D03*
G04 #@! TD*
D28*
G04 #@! TO.P,SIMESDPROTECT1,C4*
G04 #@! TO.N,Net-(SIMESDPROTECT1-PadC4)*
X147790000Y-104525000D03*
G04 #@! TO.P,SIMESDPROTECT1,C3*
G04 #@! TO.N,DATSIM*
X148290000Y-104525000D03*
G04 #@! TO.P,SIMESDPROTECT1,C2*
G04 #@! TO.N,CLKSIM*
X148790000Y-104525000D03*
G04 #@! TO.P,SIMESDPROTECT1,C1*
G04 #@! TO.N,RSTSIM*
X149290000Y-104525000D03*
G04 #@! TO.P,SIMESDPROTECT1,B2*
G04 #@! TO.N,GND*
X148040000Y-104960000D03*
G04 #@! TO.P,SIMESDPROTECT1,B1*
X149040000Y-104960000D03*
G04 #@! TO.P,SIMESDPROTECT1,A4*
G04 #@! TO.N,SIM1.8v*
X147790000Y-105395000D03*
G04 #@! TO.P,SIMESDPROTECT1,A3*
G04 #@! TO.N,Net-(NANOSIM1-PadC7)*
X148290000Y-105395000D03*
G04 #@! TO.P,SIMESDPROTECT1,A2*
G04 #@! TO.N,Net-(NANOSIM1-PadC3)*
X148790000Y-105395000D03*
G04 #@! TO.P,SIMESDPROTECT1,A1*
G04 #@! TO.N,Net-(NANOSIM1-PadC2)*
X149290000Y-105395000D03*
G04 #@! TD*
D17*
G04 #@! TO.P,TX1,1*
G04 #@! TO.N,TXNRF*
X165000000Y-94560000D03*
G04 #@! TD*
D11*
G04 #@! TO.P,U.FL1,3*
G04 #@! TO.N,Net-(NRF91-Pad61)*
X145815000Y-95125000D03*
D12*
G04 #@! TO.P,U.FL1,2*
G04 #@! TO.N,GND*
X147290000Y-93600000D03*
G04 #@! TO.P,U.FL1,1*
X144340000Y-93600000D03*
G04 #@! TD*
D29*
G04 #@! TO.P,Edge_Connect1,18*
G04 #@! TO.N,N/C*
X144370000Y-108399000D03*
D30*
G04 #@! TO.P,Edge_Connect1,17*
X142871000Y-109390000D03*
G04 #@! TO.P,Edge_Connect1,16*
X164182000Y-109390000D03*
D29*
G04 #@! TO.P,Edge_Connect1,15*
X163420000Y-108399000D03*
D31*
G04 #@! TD*
G04 #@! TO.N,GND*
G04 #@! TO.C,Edge_Connect1*
X145640000Y-109390000D03*
G04 #@! TO.N,Net-(Edge_Connect1-Pad13)*
G04 #@! TO.C,Edge_Connect1*
X146910000Y-109390000D03*
G04 #@! TO.N,Net-(Edge_Connect1-Pad12)*
X148180000Y-109390000D03*
G04 #@! TO.N,Net-(Edge_Connect1-Pad11)*
X149450000Y-109390000D03*
G04 #@! TO.N,TX2*
X150720000Y-109390000D03*
G04 #@! TO.N,RX2*
X151990000Y-109390000D03*
G04 #@! TO.N,TX1*
X153260000Y-109390000D03*
G04 #@! TO.N,RX1*
X154530000Y-109390000D03*
G04 #@! TO.N,SWO*
X155800000Y-109390000D03*
G04 #@! TO.N,SWDIO*
X157070000Y-109390000D03*
G04 #@! TO.N,SWDCLK*
X158340000Y-109390000D03*
G04 #@! TO.N,NRESET*
X159610000Y-109390000D03*
G04 #@! TO.N,+1V8*
X160880000Y-109390000D03*
G04 #@! TO.N,VCC*
X162150000Y-109390000D03*
G04 #@! TD*
D32*
G04 #@! TO.N,GND*
X159760000Y-107900000D03*
G04 #@! TO.N,VCC*
X156470000Y-93120000D03*
D33*
X140280000Y-102000000D03*
X140300000Y-101090000D03*
X140250000Y-99670000D03*
X140260000Y-98770000D03*
G04 #@! TO.N,GND*
X147790000Y-99350000D03*
X144720000Y-99400000D03*
X143050000Y-101920000D03*
X143100000Y-100980000D03*
X143030000Y-99640000D03*
X143030000Y-98710000D03*
D32*
X151100000Y-103650000D03*
D33*
X153390000Y-92760000D03*
X147290000Y-93630000D03*
X144320000Y-93580000D03*
X156700000Y-101720000D03*
X158750000Y-102150000D03*
D32*
X164340000Y-100970000D03*
D33*
X158770000Y-100400000D03*
X158730000Y-98850000D03*
X158740000Y-97370000D03*
X160770000Y-97320000D03*
X160770000Y-98900000D03*
X160750000Y-100470000D03*
X160760000Y-102100000D03*
X152750000Y-98880000D03*
X154780000Y-98890000D03*
X141930000Y-104100000D03*
X141920000Y-104960000D03*
D32*
X157180000Y-104730000D03*
X153000000Y-106410000D03*
D33*
X139890000Y-94600000D03*
X150580000Y-93860000D03*
X162850000Y-95100000D03*
X165410000Y-108730000D03*
X139890000Y-108710000D03*
X139960000Y-106290000D03*
X140430000Y-104900000D03*
X144570000Y-106910000D03*
X149630000Y-100300000D03*
D32*
X154970000Y-106330000D03*
D33*
X139980000Y-92700000D03*
X145740000Y-92810000D03*
X149090000Y-92740000D03*
X165330000Y-92740000D03*
D32*
X149060000Y-106620000D03*
X146880000Y-105620000D03*
X150800000Y-107240000D03*
X165260000Y-95870000D03*
X143050000Y-97620000D03*
X140020000Y-97290000D03*
X159340000Y-93700000D03*
G04 #@! TO.N,VCC*
X164290000Y-100190000D03*
X163642001Y-98030000D03*
X156690000Y-93580000D03*
X156940000Y-93990000D03*
X162150000Y-108150000D03*
G04 #@! TO.N,+1V8*
X140690000Y-95810000D03*
X140000000Y-95820000D03*
X163550000Y-96490000D03*
G04 #@! TO.N,SIM1.8v*
X147980000Y-106315002D03*
X147238989Y-107475769D03*
G04 #@! TO.N,TX2*
X145290000Y-102680000D03*
X159085002Y-94651186D03*
G04 #@! TO.N,RX2*
X146000000Y-101840000D03*
X158415496Y-95981870D03*
G04 #@! TO.N,TX1*
X155880000Y-98000000D03*
G04 #@! TO.N,RX1*
X153697910Y-98206828D03*
X153699675Y-100166134D03*
X153054302Y-104855002D03*
X152330244Y-107111059D03*
G04 #@! TO.N,Net-(NRF91-Pad61)*
X145800000Y-96570000D03*
G04 #@! TO.N,DATSIM*
X149447907Y-102881208D03*
G04 #@! TO.N,CLKSIM*
X149923707Y-103626168D03*
X149580000Y-101270000D03*
X149990000Y-107120814D03*
G04 #@! TO.N,RSTSIM*
X149962699Y-104275000D03*
X152104351Y-104729349D03*
X151643240Y-106971085D03*
G04 #@! TO.N,RXNRF*
X164160000Y-97075002D03*
G04 #@! TO.N,Net-(NRF91-Pad67)*
X146225000Y-97875000D03*
G04 #@! TO.N,+1V8*
X163650000Y-101760000D03*
G04 #@! TD*
D34*
G04 #@! TO.N,GND*
X145640000Y-109390000D02*
X145640000Y-108200000D01*
D35*
X149350000Y-104960000D02*
X149040000Y-104960000D01*
X149409199Y-104900801D02*
X149350000Y-104960000D01*
X149119199Y-104900801D02*
X149409199Y-104900801D01*
X149060000Y-104960000D02*
X149119199Y-104900801D01*
X149040000Y-104960000D02*
X149060000Y-104960000D01*
X149060000Y-104960000D02*
X149119199Y-105019199D01*
X149119199Y-105019199D02*
X149380000Y-105019199D01*
X148955192Y-104940183D02*
X148059817Y-104940183D01*
X148975009Y-104960000D02*
X148955192Y-104940183D01*
X148059817Y-104940183D02*
X148040000Y-104960000D01*
X149040000Y-104960000D02*
X148975009Y-104960000D01*
X148040000Y-104960000D02*
X147540000Y-104960000D01*
X147540000Y-104960000D02*
X146880000Y-105620000D01*
D34*
G04 #@! TO.N,VCC*
X140503201Y-103805999D02*
X139920000Y-103805999D01*
X140870000Y-103850000D02*
X140547202Y-103850000D01*
X140547202Y-103850000D02*
X140503201Y-103805999D01*
X143714001Y-95810000D02*
X143740000Y-95835999D01*
X140870000Y-103850000D02*
X140810000Y-103850000D01*
X142790000Y-95810000D02*
X143714001Y-95810000D01*
D36*
X141935001Y-95810000D02*
X141935001Y-95815000D01*
X142790000Y-95810000D02*
X141935001Y-95810000D01*
X142790000Y-95810000D02*
X142240000Y-95810000D01*
X141935001Y-95505001D02*
X141935001Y-95465000D01*
X142240000Y-95810000D02*
X141935001Y-95505001D01*
D37*
X141962001Y-95665161D02*
X141962001Y-95505001D01*
X141962001Y-95712001D02*
X141962001Y-95665161D01*
X142790000Y-95810000D02*
X142060000Y-95810000D01*
X142060000Y-95810000D02*
X141962001Y-95712001D01*
D34*
X140503201Y-102223201D02*
X140280000Y-102000000D01*
X140870000Y-102793598D02*
X140503201Y-102426799D01*
X140870000Y-103850000D02*
X140870000Y-102793598D01*
X140503201Y-103805999D02*
X140503201Y-102426799D01*
X140503201Y-102426799D02*
X140503201Y-102223201D01*
X140340000Y-103385999D02*
X139920000Y-103805999D01*
X140340000Y-101550000D02*
X140340000Y-103385999D01*
X140340000Y-101550000D02*
X140340000Y-100700000D01*
X140320000Y-99870000D02*
X140320000Y-99240000D01*
X140680000Y-100230000D02*
X140320000Y-99870000D01*
X140340000Y-101550000D02*
X140340000Y-100620000D01*
X140340000Y-100620000D02*
X139950000Y-100230000D01*
X140680000Y-101210000D02*
X140340000Y-101550000D01*
X140680000Y-100230000D02*
X140680000Y-101210000D01*
X140320000Y-100600000D02*
X140340000Y-100620000D01*
X140320000Y-99240000D02*
X140320000Y-100600000D01*
X140320000Y-99240000D02*
X140320000Y-98790000D01*
X142790000Y-96320000D02*
X142790000Y-95810000D01*
X140320000Y-98790000D02*
X142790000Y-96320000D01*
X140260000Y-98770000D02*
X142470000Y-96560000D01*
X142470000Y-96560000D02*
X142470000Y-96030000D01*
G04 #@! TO.N,+1V8*
X160880000Y-103592798D02*
X162328991Y-102143807D01*
X160880000Y-109390000D02*
X160880000Y-103592798D01*
D36*
X141325001Y-96034999D02*
X141504999Y-95855001D01*
X140914999Y-96034999D02*
X141325001Y-96034999D01*
X140690000Y-95810000D02*
X140914999Y-96034999D01*
D37*
X140680000Y-95820000D02*
X140690000Y-95810000D01*
X140000000Y-95820000D02*
X140680000Y-95820000D01*
D34*
G04 #@! TO.N,+5V*
X143317798Y-103850000D02*
X142970000Y-103850000D01*
X143336799Y-103830999D02*
X143317798Y-103850000D01*
X144503201Y-103830999D02*
X143336799Y-103830999D01*
X144594001Y-103921799D02*
X144503201Y-103830999D01*
X144594001Y-105118201D02*
X144594001Y-103921799D01*
X144503201Y-105209001D02*
X144594001Y-105118201D01*
X142970000Y-105150000D02*
X143029001Y-105209001D01*
X144503201Y-103830999D02*
X144503201Y-103606799D01*
X144406402Y-103550000D02*
X142924001Y-103550000D01*
X142030000Y-107360000D02*
X142960000Y-106430000D01*
X142970000Y-105520000D02*
X142970000Y-105150000D01*
X142960000Y-105530000D02*
X142970000Y-105520000D01*
X142960000Y-106430000D02*
X142960000Y-105530000D01*
X143029001Y-105209001D02*
X143360999Y-105209001D01*
X143569001Y-105670999D02*
X144030999Y-105209001D01*
X143360999Y-105670999D02*
X143569001Y-105670999D01*
X143360999Y-105209001D02*
X144030999Y-105209001D01*
X143360999Y-105209001D02*
X143360999Y-105670999D01*
X144030999Y-105209001D02*
X144503201Y-105209001D01*
X143360999Y-106679001D02*
X142680000Y-107360000D01*
X142680000Y-107360000D02*
X142030000Y-107360000D01*
X144452997Y-105209001D02*
X143360999Y-106300999D01*
X144503201Y-105209001D02*
X144452997Y-105209001D01*
X143360999Y-105670999D02*
X143360999Y-106300999D01*
X143360999Y-106300999D02*
X143360999Y-106679001D01*
D37*
G04 #@! TO.N,SIM1.8v*
X147790000Y-106125002D02*
X147790000Y-105395000D01*
X147980000Y-106315002D02*
X147790000Y-106125002D01*
D35*
X153475801Y-105686783D02*
X153475801Y-106638385D01*
X158070000Y-104080000D02*
X156881442Y-104080000D01*
X147359835Y-107596615D02*
X147238989Y-107475769D01*
X156881442Y-104080000D02*
X156280641Y-104680801D01*
X156280641Y-104680801D02*
X154481783Y-104680801D01*
X154481783Y-104680801D02*
X153475801Y-105686783D01*
X153475801Y-106638385D02*
X152224186Y-107890000D01*
X147653220Y-107890000D02*
X147238989Y-107475769D01*
X152224186Y-107890000D02*
X147653220Y-107890000D01*
D38*
G04 #@! TO.N,Net-(NANOSIM1-PadC7)*
X152013463Y-100910000D02*
X153090000Y-100910000D01*
D35*
X151680000Y-100910000D02*
X152013463Y-100910000D01*
X151459199Y-101130801D02*
X151680000Y-100910000D01*
X148455801Y-106543387D02*
X148208385Y-106790803D01*
X147056613Y-106095801D02*
X146651615Y-106095801D01*
X146404199Y-105220730D02*
X150494128Y-101130801D01*
X148208385Y-106790803D02*
X147751615Y-106790803D01*
X148290000Y-105395000D02*
X148290000Y-105920816D01*
X146404199Y-105848385D02*
X146404199Y-105220730D01*
X148290000Y-105920816D02*
X148455801Y-106086617D01*
X148455801Y-106086617D02*
X148455801Y-106543387D01*
X147751615Y-106790803D02*
X147056613Y-106095801D01*
X146651615Y-106095801D02*
X146404199Y-105848385D01*
X150494128Y-101130801D02*
X151459199Y-101130801D01*
G04 #@! TO.N,Net-(NANOSIM1-PadC3)*
X151510801Y-106430641D02*
X151510801Y-104650015D01*
X152080816Y-104080000D02*
X153190000Y-104080000D01*
X151296428Y-106645014D02*
X151510801Y-106430641D01*
X149863238Y-106645014D02*
X151296428Y-106645014D01*
X151510801Y-104650015D02*
X152080816Y-104080000D01*
X148790000Y-105571776D02*
X149863238Y-106645014D01*
X148790000Y-105395000D02*
X148790000Y-105571776D01*
D38*
G04 #@! TO.N,Net-(NANOSIM1-PadC2)*
X155860000Y-104310000D02*
X155630000Y-104080000D01*
D35*
X154629199Y-103079199D02*
X155630000Y-104080000D01*
X150609359Y-103079199D02*
X154629199Y-103079199D01*
X150559199Y-104690801D02*
X150559199Y-103129359D01*
X149855000Y-105395000D02*
X150559199Y-104690801D01*
X150559199Y-103129359D02*
X150609359Y-103079199D01*
X149290000Y-105395000D02*
X149855000Y-105395000D01*
D38*
G04 #@! TO.N,TX2*
X158244145Y-96706499D02*
X156450519Y-96706499D01*
X158330644Y-96620000D02*
X158244145Y-96706499D01*
X156450519Y-96706499D02*
X155438691Y-97718327D01*
X155483509Y-97673509D02*
X155438691Y-97718327D01*
X158996914Y-96123434D02*
X158996914Y-94651186D01*
X158500348Y-96620000D02*
X158996914Y-96123434D01*
X158330644Y-96620000D02*
X158500348Y-96620000D01*
X145451499Y-102328501D02*
X145290000Y-102490000D01*
X147483262Y-102328501D02*
X145451499Y-102328501D01*
X148815511Y-99754489D02*
X148815511Y-100996252D01*
X155438691Y-97718327D02*
X152929691Y-97718327D01*
X148815511Y-100996252D02*
X147483262Y-102328501D01*
X151931519Y-98716499D02*
X149846483Y-98716499D01*
X145290000Y-102490000D02*
X145290000Y-102680000D01*
X152929691Y-97718327D02*
X151931519Y-98716499D01*
X149846483Y-98716499D02*
X149846483Y-98723517D01*
X149846483Y-98723517D02*
X148815511Y-99754489D01*
G04 #@! TO.N,RX2*
X158333626Y-95900000D02*
X158415496Y-95981870D01*
X158415496Y-95981870D02*
X158017877Y-96379489D01*
X156315068Y-96379489D02*
X155303240Y-97391317D01*
X158017877Y-96379489D02*
X156315068Y-96379489D01*
X152794240Y-97391317D02*
X151796068Y-98389489D01*
X155303240Y-97391317D02*
X152794240Y-97391317D01*
X151796068Y-98389489D02*
X149711032Y-98389489D01*
X146000000Y-101840000D02*
X147509302Y-101840000D01*
X147509302Y-101840000D02*
X148488501Y-100860801D01*
X148488501Y-99612020D02*
X149711032Y-98389489D01*
X148488501Y-100860801D02*
X148488501Y-99612020D01*
G04 #@! TO.N,TX1*
X153260000Y-108755000D02*
X153764489Y-108250511D01*
X153260000Y-109390000D02*
X153260000Y-108755000D01*
X156843791Y-108250511D02*
X159013501Y-106080801D01*
X153764489Y-108250511D02*
X156843791Y-108250511D01*
X159013501Y-106080801D02*
X159013501Y-104633501D01*
X159013501Y-104633501D02*
X159013501Y-104529199D01*
X157421950Y-99541950D02*
X155880000Y-98000000D01*
X159013501Y-104633501D02*
X159013501Y-103749199D01*
X158201950Y-102937648D02*
X157597648Y-102937648D01*
X157421950Y-102761950D02*
X157421950Y-99541950D01*
X159013501Y-103749199D02*
X158201950Y-102937648D01*
X157597648Y-102937648D02*
X157421950Y-102761950D01*
G04 #@! TO.N,RX1*
X153730000Y-98238918D02*
X153697910Y-98206828D01*
X153699675Y-98208593D02*
X153697910Y-98206828D01*
X153699675Y-100166134D02*
X153699675Y-98208593D01*
D35*
X152405961Y-107035342D02*
X152330244Y-107111059D01*
X153054302Y-104855002D02*
X152405961Y-105503343D01*
X152405961Y-105503343D02*
X152405961Y-107035342D01*
D36*
G04 #@! TO.N,Net-(NRF91-Pad61)*
X145815000Y-95125000D02*
X145815000Y-96555000D01*
X145815000Y-96555000D02*
X145800000Y-96570000D01*
D35*
G04 #@! TO.N,DATSIM*
X148290000Y-104525000D02*
X148290000Y-104348224D01*
X148290000Y-104348224D02*
X148848224Y-103790000D01*
X149447907Y-103263777D02*
X149447907Y-102881208D01*
X148848224Y-103790000D02*
X148921684Y-103790000D01*
X148921684Y-103790000D02*
X149447907Y-103263777D01*
G04 #@! TO.N,CLKSIM*
X149512056Y-103626168D02*
X149923707Y-103626168D01*
X148790000Y-104525000D02*
X148790000Y-104348224D01*
X148790000Y-104348224D02*
X149512056Y-103626168D01*
X147110580Y-106576308D02*
X147655086Y-107120814D01*
X149580000Y-101618389D02*
X146102589Y-105095800D01*
X147655086Y-107120814D02*
X149990000Y-107120814D01*
X149580000Y-101270000D02*
X149580000Y-101618389D01*
X146102589Y-105095800D02*
X146102589Y-105973315D01*
X146102589Y-105973315D02*
X146705582Y-106576308D01*
X146705582Y-106576308D02*
X147110580Y-106576308D01*
G04 #@! TO.N,RSTSIM*
X149290000Y-104525000D02*
X149712699Y-104525000D01*
X149712699Y-104525000D02*
X149962699Y-104275000D01*
X152104351Y-104729349D02*
X152104351Y-106509974D01*
X152104351Y-106509974D02*
X151643240Y-106971085D01*
D38*
G04 #@! TO.N,RXNRF*
X164600003Y-106000003D02*
X165060000Y-106460000D01*
D35*
X165564304Y-105955696D02*
X165060000Y-106460000D01*
X164160000Y-97075002D02*
X164219188Y-97075002D01*
D38*
X164237984Y-97075002D02*
X164160000Y-97075002D01*
X165060000Y-106460000D02*
X165558501Y-105961499D01*
D35*
X165060000Y-97975002D02*
X164160000Y-97075002D01*
X165060000Y-106460000D02*
X165060000Y-97975002D01*
D38*
G04 #@! TO.N,TXNRF*
X164650000Y-94910000D02*
X165000000Y-94560000D01*
D34*
G04 #@! TO.N,+1V8*
X162328991Y-102143807D02*
X163266193Y-102143807D01*
X163266193Y-102143807D02*
X163650000Y-101760000D01*
G04 #@! TD*
D37*
G04 #@! TO.N,GND*
G36*
X165771001Y-93368918D02*
G01*
X164137500Y-93368918D01*
X164073397Y-93375232D01*
X164011757Y-93393930D01*
X163954950Y-93424294D01*
X163905157Y-93465157D01*
X163864294Y-93514950D01*
X163833930Y-93571757D01*
X163815232Y-93633397D01*
X163808918Y-93697500D01*
X163808918Y-95422500D01*
X163815232Y-95486603D01*
X163833930Y-95548243D01*
X163864294Y-95605050D01*
X163905157Y-95654843D01*
X163954950Y-95695706D01*
X164011757Y-95726070D01*
X164073397Y-95744768D01*
X164137500Y-95751082D01*
X165771001Y-95751082D01*
X165771000Y-105268918D01*
X165437800Y-105268918D01*
X165437800Y-97993560D01*
X165439628Y-97975001D01*
X165437305Y-97951418D01*
X165432334Y-97900940D01*
X165410731Y-97829725D01*
X165403504Y-97816204D01*
X165375649Y-97764091D01*
X165353207Y-97736746D01*
X165328438Y-97706564D01*
X165314018Y-97694730D01*
X164712000Y-97092713D01*
X164712000Y-97020635D01*
X164690787Y-96913990D01*
X164649176Y-96813532D01*
X164588766Y-96723122D01*
X164511880Y-96646236D01*
X164421470Y-96585826D01*
X164321012Y-96544215D01*
X164214367Y-96523002D01*
X164105633Y-96523002D01*
X164102000Y-96523725D01*
X164102000Y-96435633D01*
X164080787Y-96328988D01*
X164039176Y-96228530D01*
X163978766Y-96138120D01*
X163901880Y-96061234D01*
X163811470Y-96000824D01*
X163711012Y-95959213D01*
X163604367Y-95938000D01*
X163495633Y-95938000D01*
X163388988Y-95959213D01*
X163288530Y-96000824D01*
X163198120Y-96061234D01*
X163121234Y-96138120D01*
X163060824Y-96228530D01*
X163019213Y-96328988D01*
X162998000Y-96435633D01*
X162998000Y-96544367D01*
X163019213Y-96651012D01*
X163060824Y-96751470D01*
X163121234Y-96841880D01*
X163198120Y-96918766D01*
X163288530Y-96979176D01*
X163388988Y-97020787D01*
X163495633Y-97042000D01*
X163604367Y-97042000D01*
X163608000Y-97041277D01*
X163608000Y-97129369D01*
X163629213Y-97236014D01*
X163670824Y-97336472D01*
X163731234Y-97426882D01*
X163803955Y-97499603D01*
X163803013Y-97499213D01*
X163696368Y-97478000D01*
X163587634Y-97478000D01*
X163480989Y-97499213D01*
X163380531Y-97540824D01*
X163290121Y-97601234D01*
X163213235Y-97678120D01*
X163152825Y-97768530D01*
X163111214Y-97868988D01*
X163090001Y-97975633D01*
X163090001Y-98084367D01*
X163111214Y-98191012D01*
X163152825Y-98291470D01*
X163213235Y-98381880D01*
X163290121Y-98458766D01*
X163380531Y-98519176D01*
X163480989Y-98560787D01*
X163587634Y-98582000D01*
X163696368Y-98582000D01*
X163803013Y-98560787D01*
X163903471Y-98519176D01*
X163993881Y-98458766D01*
X164070767Y-98381880D01*
X164131177Y-98291470D01*
X164172788Y-98191012D01*
X164194001Y-98084367D01*
X164194001Y-97975633D01*
X164172788Y-97868988D01*
X164131177Y-97768530D01*
X164070767Y-97678120D01*
X163998046Y-97605399D01*
X163998988Y-97605789D01*
X164105633Y-97627002D01*
X164177711Y-97627002D01*
X164682201Y-98131493D01*
X164682201Y-99801555D01*
X164641880Y-99761234D01*
X164551470Y-99700824D01*
X164451012Y-99659213D01*
X164344367Y-99638000D01*
X164235633Y-99638000D01*
X164128988Y-99659213D01*
X164028530Y-99700824D01*
X163938120Y-99761234D01*
X163861234Y-99838120D01*
X163800824Y-99928530D01*
X163759213Y-100028988D01*
X163738000Y-100135633D01*
X163738000Y-100244367D01*
X163759213Y-100351012D01*
X163800824Y-100451470D01*
X163861234Y-100541880D01*
X163938120Y-100618766D01*
X164028530Y-100679176D01*
X164128988Y-100720787D01*
X164235633Y-100742000D01*
X164344367Y-100742000D01*
X164451012Y-100720787D01*
X164551470Y-100679176D01*
X164641880Y-100618766D01*
X164682201Y-100578445D01*
X164682200Y-105268918D01*
X164197500Y-105268918D01*
X164133397Y-105275232D01*
X164071757Y-105293930D01*
X164014950Y-105324294D01*
X163965157Y-105365157D01*
X163924294Y-105414950D01*
X163893930Y-105471757D01*
X163875232Y-105533397D01*
X163868918Y-105597500D01*
X163868918Y-107322500D01*
X163875232Y-107386603D01*
X163893930Y-107448243D01*
X163924294Y-107505050D01*
X163965157Y-107554843D01*
X164014950Y-107595706D01*
X164071757Y-107626070D01*
X164133397Y-107644768D01*
X164197500Y-107651082D01*
X165771000Y-107651082D01*
X165771000Y-109101000D01*
X164856227Y-109101000D01*
X164832019Y-109042558D01*
X164751747Y-108922421D01*
X164649579Y-108820253D01*
X164529442Y-108739981D01*
X164395954Y-108684688D01*
X164254243Y-108656500D01*
X164244739Y-108656500D01*
X164247432Y-108649999D01*
X164280500Y-108483752D01*
X164280500Y-108314248D01*
X164247432Y-108148001D01*
X164182566Y-107991400D01*
X164088394Y-107850463D01*
X163968537Y-107730606D01*
X163827600Y-107636434D01*
X163670999Y-107571568D01*
X163504752Y-107538500D01*
X163335248Y-107538500D01*
X163169001Y-107571568D01*
X163012400Y-107636434D01*
X162871463Y-107730606D01*
X162751606Y-107850463D01*
X162672467Y-107968902D01*
X162639176Y-107888530D01*
X162578766Y-107798120D01*
X162501880Y-107721234D01*
X162411470Y-107660824D01*
X162311012Y-107619213D01*
X162204367Y-107598000D01*
X162095633Y-107598000D01*
X161988988Y-107619213D01*
X161888530Y-107660824D01*
X161798120Y-107721234D01*
X161721234Y-107798120D01*
X161660824Y-107888530D01*
X161619213Y-107988988D01*
X161598000Y-108095633D01*
X161598000Y-108204367D01*
X161619213Y-108311012D01*
X161660824Y-108411470D01*
X161671869Y-108428000D01*
X161643000Y-108428000D01*
X161612281Y-108431012D01*
X161581539Y-108433810D01*
X161580436Y-108434135D01*
X161579291Y-108434247D01*
X161549731Y-108443172D01*
X161520129Y-108451884D01*
X161519111Y-108452416D01*
X161518009Y-108452749D01*
X161515247Y-108454218D01*
X161515118Y-108454177D01*
X161514105Y-108453629D01*
X161484547Y-108444479D01*
X161461000Y-108437009D01*
X161461000Y-103833455D01*
X162569650Y-102724807D01*
X163237653Y-102724807D01*
X163266193Y-102727618D01*
X163294733Y-102724807D01*
X163380089Y-102716400D01*
X163489608Y-102683178D01*
X163590541Y-102629228D01*
X163679010Y-102556624D01*
X163697210Y-102534447D01*
X164081009Y-102150648D01*
X164135420Y-102084348D01*
X164189371Y-101983415D01*
X164222593Y-101873896D01*
X164233811Y-101760001D01*
X164222593Y-101646105D01*
X164189371Y-101536586D01*
X164135420Y-101435653D01*
X164062816Y-101347184D01*
X163974347Y-101274580D01*
X163873414Y-101220629D01*
X163763895Y-101187407D01*
X163649999Y-101176189D01*
X163536104Y-101187407D01*
X163426585Y-101220629D01*
X163325652Y-101274580D01*
X163259352Y-101328991D01*
X163025536Y-101562807D01*
X162357531Y-101562807D01*
X162328991Y-101559996D01*
X162215095Y-101571214D01*
X162105576Y-101604436D01*
X162004643Y-101658386D01*
X161947072Y-101705633D01*
X161916174Y-101730990D01*
X161897983Y-101753156D01*
X160489355Y-103161786D01*
X160467184Y-103179981D01*
X160423601Y-103233088D01*
X160394579Y-103268451D01*
X160340629Y-103369384D01*
X160307407Y-103478903D01*
X160296189Y-103592798D01*
X160299001Y-103621348D01*
X160299000Y-108437354D01*
X160279731Y-108443172D01*
X160250129Y-108451884D01*
X160249111Y-108452416D01*
X160248009Y-108452749D01*
X160245247Y-108454218D01*
X160245118Y-108454177D01*
X160244105Y-108453629D01*
X160214547Y-108444479D01*
X160185195Y-108435168D01*
X160184056Y-108435040D01*
X160182954Y-108434699D01*
X160152201Y-108431467D01*
X160121580Y-108428032D01*
X160119372Y-108428017D01*
X160119290Y-108428008D01*
X160119208Y-108428015D01*
X160117000Y-108428000D01*
X159103000Y-108428000D01*
X159072281Y-108431012D01*
X159041539Y-108433810D01*
X159040436Y-108434135D01*
X159039291Y-108434247D01*
X159009731Y-108443172D01*
X158980129Y-108451884D01*
X158979111Y-108452416D01*
X158978009Y-108452749D01*
X158975247Y-108454218D01*
X158975118Y-108454177D01*
X158974105Y-108453629D01*
X158944547Y-108444479D01*
X158915195Y-108435168D01*
X158914056Y-108435040D01*
X158912954Y-108434699D01*
X158882201Y-108431467D01*
X158851580Y-108428032D01*
X158849372Y-108428017D01*
X158849290Y-108428008D01*
X158849208Y-108428015D01*
X158847000Y-108428000D01*
X157833000Y-108428000D01*
X157802281Y-108431012D01*
X157771539Y-108433810D01*
X157770436Y-108434135D01*
X157769291Y-108434247D01*
X157739731Y-108443172D01*
X157710129Y-108451884D01*
X157709111Y-108452416D01*
X157708009Y-108452749D01*
X157705247Y-108454218D01*
X157705118Y-108454177D01*
X157704105Y-108453629D01*
X157674547Y-108444479D01*
X157645195Y-108435168D01*
X157644056Y-108435040D01*
X157642954Y-108434699D01*
X157612201Y-108431467D01*
X157581580Y-108428032D01*
X157579372Y-108428017D01*
X157579290Y-108428008D01*
X157579208Y-108428015D01*
X157577000Y-108428000D01*
X157218552Y-108428000D01*
X159276062Y-106370490D01*
X159290962Y-106358262D01*
X159339761Y-106298801D01*
X159376021Y-106230962D01*
X159396323Y-106164034D01*
X159398350Y-106157353D01*
X159400017Y-106140423D01*
X159404001Y-106099979D01*
X159404001Y-106099973D01*
X159405889Y-106080802D01*
X159404001Y-106061631D01*
X159404001Y-103768369D01*
X159405889Y-103749198D01*
X159404001Y-103730027D01*
X159404001Y-103730021D01*
X159398350Y-103672648D01*
X159376021Y-103599038D01*
X159339761Y-103531199D01*
X159290962Y-103471738D01*
X159276061Y-103459509D01*
X158491640Y-102675088D01*
X158479411Y-102660187D01*
X158419950Y-102611388D01*
X158352111Y-102575128D01*
X158278501Y-102552799D01*
X158221128Y-102547148D01*
X158201950Y-102545259D01*
X158182772Y-102547148D01*
X157812450Y-102547148D01*
X157812450Y-99561131D01*
X157814339Y-99541950D01*
X157806800Y-99465398D01*
X157784470Y-99391789D01*
X157780616Y-99384579D01*
X157748210Y-99323950D01*
X157699411Y-99264489D01*
X157684515Y-99252264D01*
X156432000Y-97999750D01*
X156432000Y-97945633D01*
X156410787Y-97838988D01*
X156369176Y-97738530D01*
X156308766Y-97648120D01*
X156231880Y-97571234D01*
X156175624Y-97533645D01*
X156612270Y-97096999D01*
X158224967Y-97096999D01*
X158244145Y-97098888D01*
X158263323Y-97096999D01*
X158320696Y-97091348D01*
X158394306Y-97069019D01*
X158462145Y-97032759D01*
X158488400Y-97011212D01*
X158500348Y-97012389D01*
X158519526Y-97010500D01*
X158576899Y-97004849D01*
X158650509Y-96982520D01*
X158718348Y-96946260D01*
X158777809Y-96897461D01*
X158790038Y-96882560D01*
X159259475Y-96413123D01*
X159274375Y-96400895D01*
X159323174Y-96341434D01*
X159359434Y-96273595D01*
X159381763Y-96199985D01*
X159381775Y-96199869D01*
X159384531Y-96171880D01*
X159387414Y-96142612D01*
X159387414Y-96142606D01*
X159389302Y-96123435D01*
X159387414Y-96104264D01*
X159387414Y-95113005D01*
X159436882Y-95079952D01*
X159513768Y-95003066D01*
X159574178Y-94912656D01*
X159615789Y-94812198D01*
X159637002Y-94705553D01*
X159637002Y-94596819D01*
X159615789Y-94490174D01*
X159574178Y-94389716D01*
X159513768Y-94299306D01*
X159436882Y-94222420D01*
X159346472Y-94162010D01*
X159246014Y-94120399D01*
X159139369Y-94099186D01*
X159030635Y-94099186D01*
X158923990Y-94120399D01*
X158823532Y-94162010D01*
X158733122Y-94222420D01*
X158656236Y-94299306D01*
X158595826Y-94389716D01*
X158554215Y-94490174D01*
X158533002Y-94596819D01*
X158533002Y-94705553D01*
X158554215Y-94812198D01*
X158595826Y-94912656D01*
X158606415Y-94928503D01*
X158606414Y-95463471D01*
X158576508Y-95451083D01*
X158469863Y-95429870D01*
X158361129Y-95429870D01*
X158254484Y-95451083D01*
X158154026Y-95492694D01*
X158063616Y-95553104D01*
X157986730Y-95629990D01*
X157926320Y-95720400D01*
X157884709Y-95820858D01*
X157863496Y-95927503D01*
X157863496Y-95981620D01*
X157856127Y-95988989D01*
X156334249Y-95988989D01*
X156315068Y-95987100D01*
X156238516Y-95994639D01*
X156179560Y-96012524D01*
X156164907Y-96016969D01*
X156097068Y-96053229D01*
X156037607Y-96102028D01*
X156025382Y-96116924D01*
X155141490Y-97000817D01*
X152813410Y-97000817D01*
X152794239Y-96998929D01*
X152775068Y-97000817D01*
X152775062Y-97000817D01*
X152725603Y-97005688D01*
X152717688Y-97006468D01*
X152704397Y-97010500D01*
X152644079Y-97028797D01*
X152576240Y-97065057D01*
X152516779Y-97113856D01*
X152504550Y-97128757D01*
X152038582Y-97594725D01*
X152038582Y-97230000D01*
X152032268Y-97165897D01*
X152013570Y-97104257D01*
X151983206Y-97047450D01*
X151942343Y-96997657D01*
X151892550Y-96956794D01*
X151835743Y-96926430D01*
X151774103Y-96907732D01*
X151710000Y-96901418D01*
X151010000Y-96901418D01*
X150945897Y-96907732D01*
X150884257Y-96926430D01*
X150827450Y-96956794D01*
X150777657Y-96997657D01*
X150736794Y-97047450D01*
X150706430Y-97104257D01*
X150687732Y-97165897D01*
X150681418Y-97230000D01*
X150681418Y-97930000D01*
X150687732Y-97994103D01*
X150689214Y-97998989D01*
X149730210Y-97998989D01*
X149711032Y-97997100D01*
X149634480Y-98004640D01*
X149580815Y-98020919D01*
X149560871Y-98026969D01*
X149493032Y-98063229D01*
X149433571Y-98112028D01*
X149421346Y-98126924D01*
X148225937Y-99322334D01*
X148211041Y-99334559D01*
X148162242Y-99394020D01*
X148151424Y-99414259D01*
X148125981Y-99461860D01*
X148103652Y-99535469D01*
X148096112Y-99612020D01*
X148098002Y-99631208D01*
X148098001Y-100699051D01*
X147347552Y-101449500D01*
X146390146Y-101449500D01*
X146351880Y-101411234D01*
X146261470Y-101350824D01*
X146161012Y-101309213D01*
X146054367Y-101288000D01*
X145945633Y-101288000D01*
X145838988Y-101309213D01*
X145738530Y-101350824D01*
X145648120Y-101411234D01*
X145571234Y-101488120D01*
X145510824Y-101578530D01*
X145469213Y-101678988D01*
X145448000Y-101785633D01*
X145448000Y-101894367D01*
X145456400Y-101936595D01*
X145451498Y-101936112D01*
X145374947Y-101943652D01*
X145311772Y-101962816D01*
X145301338Y-101965981D01*
X145233499Y-102002241D01*
X145174038Y-102051040D01*
X145161809Y-102065941D01*
X145042863Y-102184887D01*
X145028530Y-102190824D01*
X144938120Y-102251234D01*
X144861234Y-102328120D01*
X144800824Y-102418530D01*
X144759213Y-102518988D01*
X144738000Y-102625633D01*
X144738000Y-102734367D01*
X144759213Y-102841012D01*
X144800824Y-102941470D01*
X144861234Y-103031880D01*
X144938120Y-103108766D01*
X145028530Y-103169176D01*
X145128988Y-103210787D01*
X145235633Y-103232000D01*
X145344367Y-103232000D01*
X145451012Y-103210787D01*
X145551470Y-103169176D01*
X145641880Y-103108766D01*
X145718766Y-103031880D01*
X145779176Y-102941470D01*
X145820787Y-102841012D01*
X145842000Y-102734367D01*
X145842000Y-102719001D01*
X147464084Y-102719001D01*
X147483262Y-102720890D01*
X147502440Y-102719001D01*
X147559813Y-102713350D01*
X147633423Y-102691021D01*
X147701262Y-102654761D01*
X147760723Y-102605962D01*
X147772952Y-102591061D01*
X149029932Y-101334082D01*
X149049213Y-101431012D01*
X149090824Y-101531470D01*
X149107569Y-101556530D01*
X145848576Y-104815524D01*
X145834151Y-104827362D01*
X145806608Y-104860925D01*
X145786940Y-104884890D01*
X145769001Y-104918452D01*
X145751858Y-104950524D01*
X145730255Y-105021739D01*
X145727163Y-105053135D01*
X145722961Y-105095800D01*
X145724789Y-105114359D01*
X145724790Y-105954747D01*
X145722961Y-105973315D01*
X145729617Y-106040885D01*
X145730256Y-106047377D01*
X145746213Y-106099979D01*
X145751859Y-106118592D01*
X145786940Y-106184225D01*
X145807861Y-106209717D01*
X145834152Y-106241753D01*
X145848571Y-106253586D01*
X146425310Y-106830326D01*
X146437144Y-106844746D01*
X146461660Y-106864865D01*
X146494671Y-106891957D01*
X146514239Y-106902416D01*
X146560305Y-106927039D01*
X146631520Y-106948642D01*
X146687021Y-106954108D01*
X146687023Y-106954108D01*
X146705582Y-106955936D01*
X146724140Y-106954108D01*
X146954091Y-106954108D01*
X146983923Y-106983940D01*
X146977519Y-106986593D01*
X146887109Y-107047003D01*
X146810223Y-107123889D01*
X146749813Y-107214299D01*
X146708202Y-107314757D01*
X146686989Y-107421402D01*
X146686989Y-107530136D01*
X146708202Y-107636781D01*
X146749813Y-107737239D01*
X146810223Y-107827649D01*
X146887109Y-107904535D01*
X146977519Y-107964945D01*
X147077977Y-108006556D01*
X147184622Y-108027769D01*
X147256699Y-108027769D01*
X147372948Y-108144018D01*
X147384782Y-108158438D01*
X147403696Y-108173960D01*
X147442309Y-108205649D01*
X147473836Y-108222500D01*
X147507943Y-108240731D01*
X147579158Y-108262334D01*
X147634659Y-108267800D01*
X147634661Y-108267800D01*
X147653219Y-108269628D01*
X147671778Y-108267800D01*
X152205628Y-108267800D01*
X152224186Y-108269628D01*
X152242744Y-108267800D01*
X152242747Y-108267800D01*
X152298248Y-108262334D01*
X152369463Y-108240731D01*
X152435096Y-108205649D01*
X152492624Y-108158438D01*
X152504462Y-108144013D01*
X153729819Y-106918657D01*
X153744239Y-106906823D01*
X153777090Y-106866793D01*
X153791450Y-106849296D01*
X153819185Y-106797407D01*
X153826532Y-106783662D01*
X153848135Y-106712447D01*
X153853601Y-106656946D01*
X153853601Y-106656944D01*
X153855429Y-106638385D01*
X153853601Y-106619827D01*
X153853601Y-105843272D01*
X154638273Y-105058601D01*
X156262083Y-105058601D01*
X156280641Y-105060429D01*
X156299199Y-105058601D01*
X156299202Y-105058601D01*
X156354703Y-105053135D01*
X156425918Y-105031532D01*
X156491551Y-104996450D01*
X156549079Y-104949239D01*
X156560917Y-104934814D01*
X157037932Y-104457800D01*
X157294156Y-104457800D01*
X157297732Y-104494103D01*
X157316430Y-104555743D01*
X157346794Y-104612550D01*
X157387657Y-104662343D01*
X157437450Y-104703206D01*
X157494257Y-104733570D01*
X157555897Y-104752268D01*
X157620000Y-104758582D01*
X158520000Y-104758582D01*
X158584103Y-104752268D01*
X158623002Y-104740468D01*
X158623001Y-105919051D01*
X156682041Y-107860011D01*
X153783659Y-107860011D01*
X153764488Y-107858123D01*
X153745317Y-107860011D01*
X153745311Y-107860011D01*
X153695852Y-107864882D01*
X153687937Y-107865662D01*
X153650943Y-107876884D01*
X153614328Y-107887991D01*
X153546489Y-107924251D01*
X153487028Y-107973050D01*
X153474799Y-107987951D01*
X153034750Y-108428000D01*
X152753000Y-108428000D01*
X152722281Y-108431012D01*
X152691539Y-108433810D01*
X152690436Y-108434135D01*
X152689291Y-108434247D01*
X152659731Y-108443172D01*
X152630129Y-108451884D01*
X152629111Y-108452416D01*
X152628009Y-108452749D01*
X152625247Y-108454218D01*
X152625118Y-108454177D01*
X152624105Y-108453629D01*
X152594547Y-108444479D01*
X152565195Y-108435168D01*
X152564056Y-108435040D01*
X152562954Y-108434699D01*
X152532201Y-108431467D01*
X152501580Y-108428032D01*
X152499372Y-108428017D01*
X152499290Y-108428008D01*
X152499208Y-108428015D01*
X152497000Y-108428000D01*
X151483000Y-108428000D01*
X151452281Y-108431012D01*
X151421539Y-108433810D01*
X151420436Y-108434135D01*
X151419291Y-108434247D01*
X151389731Y-108443172D01*
X151360129Y-108451884D01*
X151359111Y-108452416D01*
X151358009Y-108452749D01*
X151355247Y-108454218D01*
X151355118Y-108454177D01*
X151354105Y-108453629D01*
X151324547Y-108444479D01*
X151295195Y-108435168D01*
X151294056Y-108435040D01*
X151292954Y-108434699D01*
X151262201Y-108431467D01*
X151231580Y-108428032D01*
X151229372Y-108428017D01*
X151229290Y-108428008D01*
X151229208Y-108428015D01*
X151227000Y-108428000D01*
X150213000Y-108428000D01*
X150182281Y-108431012D01*
X150151539Y-108433810D01*
X150150436Y-108434135D01*
X150149291Y-108434247D01*
X150119731Y-108443172D01*
X150090129Y-108451884D01*
X150089111Y-108452416D01*
X150088009Y-108452749D01*
X150085247Y-108454218D01*
X150085118Y-108454177D01*
X150084105Y-108453629D01*
X150054547Y-108444479D01*
X150025195Y-108435168D01*
X150024056Y-108435040D01*
X150022954Y-108434699D01*
X149992201Y-108431467D01*
X149961580Y-108428032D01*
X149959372Y-108428017D01*
X149959290Y-108428008D01*
X149959208Y-108428015D01*
X149957000Y-108428000D01*
X148943000Y-108428000D01*
X148912281Y-108431012D01*
X148881539Y-108433810D01*
X148880436Y-108434135D01*
X148879291Y-108434247D01*
X148849731Y-108443172D01*
X148820129Y-108451884D01*
X148819111Y-108452416D01*
X148818009Y-108452749D01*
X148815247Y-108454218D01*
X148815118Y-108454177D01*
X148814105Y-108453629D01*
X148784547Y-108444479D01*
X148755195Y-108435168D01*
X148754056Y-108435040D01*
X148752954Y-108434699D01*
X148722201Y-108431467D01*
X148691580Y-108428032D01*
X148689372Y-108428017D01*
X148689290Y-108428008D01*
X148689208Y-108428015D01*
X148687000Y-108428000D01*
X147673000Y-108428000D01*
X147642281Y-108431012D01*
X147611539Y-108433810D01*
X147610436Y-108434135D01*
X147609291Y-108434247D01*
X147579731Y-108443172D01*
X147550129Y-108451884D01*
X147549111Y-108452416D01*
X147548009Y-108452749D01*
X147545247Y-108454218D01*
X147545118Y-108454177D01*
X147544105Y-108453629D01*
X147514547Y-108444479D01*
X147485195Y-108435168D01*
X147484056Y-108435040D01*
X147482954Y-108434699D01*
X147452201Y-108431467D01*
X147421580Y-108428032D01*
X147419372Y-108428017D01*
X147419290Y-108428008D01*
X147419208Y-108428015D01*
X147417000Y-108428000D01*
X146403000Y-108428000D01*
X146372281Y-108431012D01*
X146341539Y-108433810D01*
X146340436Y-108434135D01*
X146339291Y-108434247D01*
X146309731Y-108443172D01*
X146280129Y-108451884D01*
X146279111Y-108452416D01*
X146278009Y-108452749D01*
X146275247Y-108454218D01*
X146275118Y-108454177D01*
X146274105Y-108453629D01*
X146244547Y-108444479D01*
X146215195Y-108435168D01*
X146214056Y-108435040D01*
X146212954Y-108434699D01*
X146182201Y-108431467D01*
X146151580Y-108428032D01*
X146149372Y-108428017D01*
X146149290Y-108428008D01*
X146149208Y-108428015D01*
X146147000Y-108428000D01*
X145230500Y-108428000D01*
X145230500Y-108314248D01*
X145197432Y-108148001D01*
X145132566Y-107991400D01*
X145038394Y-107850463D01*
X144918537Y-107730606D01*
X144777600Y-107636434D01*
X144620999Y-107571568D01*
X144454752Y-107538500D01*
X144285248Y-107538500D01*
X144119001Y-107571568D01*
X143962400Y-107636434D01*
X143821463Y-107730606D01*
X143701606Y-107850463D01*
X143607434Y-107991400D01*
X143542568Y-108148001D01*
X143509500Y-108314248D01*
X143509500Y-108483752D01*
X143542568Y-108649999D01*
X143607434Y-108806600D01*
X143701606Y-108947537D01*
X143821463Y-109067394D01*
X143871757Y-109101000D01*
X143545227Y-109101000D01*
X143521019Y-109042558D01*
X143440747Y-108922421D01*
X143338579Y-108820253D01*
X143218442Y-108739981D01*
X143084954Y-108684688D01*
X142943243Y-108656500D01*
X142798757Y-108656500D01*
X142657046Y-108684688D01*
X142523558Y-108739981D01*
X142403421Y-108820253D01*
X142301253Y-108922421D01*
X142220981Y-109042558D01*
X142196773Y-109101000D01*
X139559161Y-109101000D01*
X139560666Y-106497500D01*
X140838918Y-106497500D01*
X140838918Y-108222500D01*
X140845232Y-108286603D01*
X140863930Y-108348243D01*
X140894294Y-108405050D01*
X140935157Y-108454843D01*
X140984950Y-108495706D01*
X141041757Y-108526070D01*
X141103397Y-108544768D01*
X141167500Y-108551082D01*
X142892500Y-108551082D01*
X142956603Y-108544768D01*
X143018243Y-108526070D01*
X143075050Y-108495706D01*
X143124843Y-108454843D01*
X143165706Y-108405050D01*
X143196070Y-108348243D01*
X143214768Y-108286603D01*
X143221082Y-108222500D01*
X143221082Y-107640575D01*
X143751644Y-107110014D01*
X143773816Y-107091818D01*
X143846420Y-107003349D01*
X143900370Y-106902416D01*
X143917547Y-106845789D01*
X143933592Y-106792897D01*
X143944810Y-106679002D01*
X143941999Y-106650462D01*
X143941999Y-106541656D01*
X144745237Y-105738419D01*
X144827549Y-105694422D01*
X144916018Y-105621818D01*
X144934218Y-105599641D01*
X144984642Y-105549217D01*
X145006818Y-105531018D01*
X145079422Y-105442549D01*
X145133372Y-105341616D01*
X145166594Y-105232097D01*
X145175001Y-105146741D01*
X145175001Y-105146740D01*
X145177812Y-105118201D01*
X145175001Y-105089661D01*
X145175001Y-103950339D01*
X145177812Y-103921799D01*
X145172850Y-103871420D01*
X145166594Y-103807903D01*
X145133372Y-103698384D01*
X145084201Y-103606392D01*
X145084201Y-103578260D01*
X145075794Y-103492904D01*
X145042572Y-103383385D01*
X144988622Y-103282451D01*
X144916018Y-103193982D01*
X144827549Y-103121378D01*
X144748428Y-103079087D01*
X144730750Y-103064579D01*
X144629817Y-103010629D01*
X144520298Y-102977407D01*
X144434942Y-102969000D01*
X142895461Y-102969000D01*
X142810105Y-102977407D01*
X142700586Y-103010629D01*
X142599653Y-103064579D01*
X142511184Y-103137183D01*
X142438580Y-103225652D01*
X142384630Y-103326585D01*
X142351408Y-103436104D01*
X142340190Y-103550000D01*
X142346960Y-103618735D01*
X142341418Y-103675000D01*
X142341418Y-104025000D01*
X142347732Y-104089103D01*
X142366430Y-104150743D01*
X142396794Y-104207550D01*
X142437657Y-104257343D01*
X142487450Y-104298206D01*
X142544257Y-104328570D01*
X142605897Y-104347268D01*
X142670000Y-104353582D01*
X142679629Y-104353582D01*
X142746585Y-104389371D01*
X142856104Y-104422593D01*
X142941460Y-104431000D01*
X143289258Y-104431000D01*
X143317798Y-104433811D01*
X143346338Y-104431000D01*
X143431694Y-104422593D01*
X143466618Y-104411999D01*
X143683929Y-104411999D01*
X143700000Y-104413582D01*
X144013002Y-104413582D01*
X144013001Y-104626963D01*
X144002459Y-104628001D01*
X143389539Y-104628001D01*
X143360999Y-104625190D01*
X143332459Y-104628001D01*
X143225916Y-104628001D01*
X143193415Y-104610629D01*
X143083896Y-104577407D01*
X142970000Y-104566189D01*
X142856105Y-104577407D01*
X142746586Y-104610629D01*
X142679630Y-104646418D01*
X142670000Y-104646418D01*
X142605897Y-104652732D01*
X142544257Y-104671430D01*
X142487450Y-104701794D01*
X142437657Y-104742657D01*
X142396794Y-104792450D01*
X142366430Y-104849257D01*
X142347732Y-104910897D01*
X142341418Y-104975000D01*
X142341418Y-105325000D01*
X142347732Y-105389103D01*
X142366430Y-105450743D01*
X142381262Y-105478492D01*
X142376189Y-105530000D01*
X142379000Y-105558540D01*
X142379000Y-106168918D01*
X141167500Y-106168918D01*
X141103397Y-106175232D01*
X141041757Y-106193930D01*
X140984950Y-106224294D01*
X140935157Y-106265157D01*
X140894294Y-106314950D01*
X140863930Y-106371757D01*
X140845232Y-106433397D01*
X140838918Y-106497500D01*
X139560666Y-106497500D01*
X139561905Y-104356968D01*
X139574257Y-104363570D01*
X139635897Y-104382268D01*
X139700000Y-104388582D01*
X139907532Y-104388582D01*
X139920000Y-104389810D01*
X139932468Y-104388582D01*
X140140000Y-104388582D01*
X140156071Y-104386999D01*
X140319349Y-104386999D01*
X140323787Y-104389371D01*
X140433306Y-104422593D01*
X140518662Y-104431000D01*
X140547202Y-104433811D01*
X140575742Y-104431000D01*
X140841460Y-104431000D01*
X140870000Y-104433811D01*
X140898540Y-104431000D01*
X140983896Y-104422593D01*
X141093415Y-104389371D01*
X141160371Y-104353582D01*
X141170000Y-104353582D01*
X141234103Y-104347268D01*
X141295743Y-104328570D01*
X141352550Y-104298206D01*
X141402343Y-104257343D01*
X141443206Y-104207550D01*
X141473570Y-104150743D01*
X141492268Y-104089103D01*
X141498582Y-104025000D01*
X141498582Y-103675000D01*
X141492268Y-103610897D01*
X141473570Y-103549257D01*
X141451000Y-103507032D01*
X141451000Y-102822137D01*
X141453811Y-102793597D01*
X141442593Y-102679702D01*
X141409371Y-102570183D01*
X141406439Y-102564698D01*
X141355421Y-102469250D01*
X141282817Y-102380781D01*
X141278582Y-102377305D01*
X141278582Y-100590000D01*
X141272268Y-100525897D01*
X141261000Y-100488751D01*
X141261000Y-100258540D01*
X141263811Y-100230000D01*
X141258582Y-100176910D01*
X141258582Y-98673075D01*
X143180646Y-96751012D01*
X143202817Y-96732817D01*
X143275421Y-96644348D01*
X143329371Y-96543415D01*
X143362593Y-96433896D01*
X143366818Y-96391000D01*
X143389449Y-96391000D01*
X143394257Y-96393570D01*
X143455897Y-96412268D01*
X143520000Y-96418582D01*
X143727531Y-96418582D01*
X143739999Y-96419810D01*
X143752467Y-96418582D01*
X143960000Y-96418582D01*
X144024103Y-96412268D01*
X144085743Y-96393570D01*
X144142550Y-96363206D01*
X144192343Y-96322343D01*
X144233206Y-96272550D01*
X144263570Y-96215743D01*
X144282268Y-96154103D01*
X144288582Y-96090000D01*
X144288582Y-96029048D01*
X144312593Y-95949894D01*
X144323811Y-95835998D01*
X144312593Y-95722104D01*
X144288582Y-95642950D01*
X144288582Y-95620000D01*
X144282268Y-95555897D01*
X144263570Y-95494257D01*
X144233206Y-95437450D01*
X144192343Y-95387657D01*
X144142550Y-95346794D01*
X144085743Y-95316430D01*
X144024103Y-95297732D01*
X143979994Y-95293387D01*
X143937416Y-95270629D01*
X143827897Y-95237407D01*
X143742541Y-95229000D01*
X143714001Y-95226189D01*
X143685461Y-95229000D01*
X142818540Y-95229000D01*
X142790000Y-95226189D01*
X142761460Y-95229000D01*
X142676104Y-95237407D01*
X142566585Y-95270629D01*
X142465652Y-95324579D01*
X142427365Y-95356000D01*
X142391230Y-95356000D01*
X142383471Y-95330422D01*
X142341314Y-95251552D01*
X142284580Y-95182422D01*
X142215450Y-95125688D01*
X142136580Y-95083531D01*
X142114753Y-95076910D01*
X142099197Y-95068595D01*
X142018708Y-95044178D01*
X141935001Y-95035934D01*
X141851295Y-95044178D01*
X141809686Y-95056800D01*
X141773365Y-95064025D01*
X141697476Y-95095459D01*
X141629178Y-95141095D01*
X141571095Y-95199178D01*
X141525459Y-95267476D01*
X141494025Y-95343365D01*
X141482302Y-95402302D01*
X141423365Y-95414025D01*
X141347476Y-95445459D01*
X141279178Y-95491095D01*
X141278234Y-95492039D01*
X141266623Y-95498245D01*
X141217899Y-95538233D01*
X141187502Y-95568630D01*
X141179176Y-95548530D01*
X141118766Y-95458120D01*
X141041880Y-95381234D01*
X140951470Y-95320824D01*
X140851012Y-95279213D01*
X140744367Y-95258000D01*
X140635633Y-95258000D01*
X140528988Y-95279213D01*
X140434465Y-95318366D01*
X140432550Y-95316794D01*
X140375743Y-95286430D01*
X140314103Y-95267732D01*
X140250000Y-95261418D01*
X139810000Y-95261418D01*
X139745897Y-95267732D01*
X139684257Y-95286430D01*
X139627450Y-95316794D01*
X139577657Y-95357657D01*
X139567102Y-95370519D01*
X139567547Y-94600000D01*
X144986418Y-94600000D01*
X144986418Y-95650000D01*
X144992732Y-95714103D01*
X145011430Y-95775743D01*
X145041794Y-95832550D01*
X145082657Y-95882343D01*
X145132450Y-95923206D01*
X145189257Y-95953570D01*
X145250897Y-95972268D01*
X145315000Y-95978582D01*
X145388001Y-95978582D01*
X145388001Y-96201353D01*
X145371234Y-96218120D01*
X145310824Y-96308530D01*
X145269213Y-96408988D01*
X145248000Y-96515633D01*
X145248000Y-96624367D01*
X145269213Y-96731012D01*
X145310824Y-96831470D01*
X145371234Y-96921880D01*
X145448120Y-96998766D01*
X145538530Y-97059176D01*
X145559309Y-97067783D01*
X145542450Y-97076794D01*
X145492657Y-97117657D01*
X145451794Y-97167450D01*
X145421430Y-97224257D01*
X145402732Y-97285897D01*
X145396418Y-97350000D01*
X145396418Y-98400000D01*
X145402732Y-98464103D01*
X145421430Y-98525743D01*
X145451794Y-98582550D01*
X145492657Y-98632343D01*
X145542450Y-98673206D01*
X145599257Y-98703570D01*
X145660897Y-98722268D01*
X145725000Y-98728582D01*
X146725000Y-98728582D01*
X146789103Y-98722268D01*
X146850743Y-98703570D01*
X146907550Y-98673206D01*
X146957343Y-98632343D01*
X146998206Y-98582550D01*
X147028570Y-98525743D01*
X147047268Y-98464103D01*
X147053582Y-98400000D01*
X147053582Y-97350000D01*
X147047268Y-97285897D01*
X147028570Y-97224257D01*
X146998206Y-97167450D01*
X146957343Y-97117657D01*
X146907550Y-97076794D01*
X146850743Y-97046430D01*
X146789103Y-97027732D01*
X146725000Y-97021418D01*
X146117979Y-97021418D01*
X146151880Y-96998766D01*
X146228766Y-96921880D01*
X146289176Y-96831470D01*
X146330787Y-96731012D01*
X146352000Y-96624367D01*
X146352000Y-96515633D01*
X146330787Y-96408988D01*
X146289176Y-96308530D01*
X146242000Y-96237926D01*
X146242000Y-95978582D01*
X146315000Y-95978582D01*
X146379103Y-95972268D01*
X146440743Y-95953570D01*
X146497550Y-95923206D01*
X146547343Y-95882343D01*
X146588206Y-95832550D01*
X146618570Y-95775743D01*
X146637268Y-95714103D01*
X146643582Y-95650000D01*
X146643582Y-94600000D01*
X146637268Y-94535897D01*
X146618570Y-94474257D01*
X146588206Y-94417450D01*
X146547343Y-94367657D01*
X146497550Y-94326794D01*
X146440743Y-94296430D01*
X146379103Y-94277732D01*
X146315000Y-94271418D01*
X145315000Y-94271418D01*
X145250897Y-94277732D01*
X145189257Y-94296430D01*
X145132450Y-94326794D01*
X145082657Y-94367657D01*
X145041794Y-94417450D01*
X145011430Y-94474257D01*
X144992732Y-94535897D01*
X144986418Y-94600000D01*
X139567547Y-94600000D01*
X139568137Y-93580000D01*
X154151418Y-93580000D01*
X154151418Y-94230000D01*
X154157732Y-94294103D01*
X154176430Y-94355743D01*
X154206794Y-94412550D01*
X154247657Y-94462343D01*
X154297450Y-94503206D01*
X154354257Y-94533570D01*
X154415897Y-94552268D01*
X154480000Y-94558582D01*
X155680000Y-94558582D01*
X155744103Y-94552268D01*
X155805743Y-94533570D01*
X155862550Y-94503206D01*
X155912343Y-94462343D01*
X155953206Y-94412550D01*
X155983570Y-94355743D01*
X156002268Y-94294103D01*
X156008582Y-94230000D01*
X156008582Y-93580000D01*
X156002268Y-93515897D01*
X155983570Y-93454257D01*
X155953206Y-93397450D01*
X155912343Y-93347657D01*
X155862550Y-93306794D01*
X155805743Y-93276430D01*
X155744103Y-93257732D01*
X155680000Y-93251418D01*
X154480000Y-93251418D01*
X154415897Y-93257732D01*
X154354257Y-93276430D01*
X154297450Y-93306794D01*
X154247657Y-93347657D01*
X154206794Y-93397450D01*
X154176430Y-93454257D01*
X154157732Y-93515897D01*
X154151418Y-93580000D01*
X139568137Y-93580000D01*
X139568434Y-93065633D01*
X155918000Y-93065633D01*
X155918000Y-93174367D01*
X155939213Y-93281012D01*
X155980824Y-93381470D01*
X156041234Y-93471880D01*
X156118120Y-93548766D01*
X156138000Y-93562049D01*
X156138000Y-93634367D01*
X156159213Y-93741012D01*
X156200824Y-93841470D01*
X156261234Y-93931880D01*
X156338120Y-94008766D01*
X156388000Y-94042095D01*
X156388000Y-94044367D01*
X156409213Y-94151012D01*
X156450824Y-94251470D01*
X156511234Y-94341880D01*
X156588120Y-94418766D01*
X156678530Y-94479176D01*
X156778988Y-94520787D01*
X156885633Y-94542000D01*
X156994367Y-94542000D01*
X157101012Y-94520787D01*
X157201470Y-94479176D01*
X157291880Y-94418766D01*
X157368766Y-94341880D01*
X157429176Y-94251470D01*
X157470787Y-94151012D01*
X157492000Y-94044367D01*
X157492000Y-93935633D01*
X157470787Y-93828988D01*
X157429176Y-93728530D01*
X157368766Y-93638120D01*
X157291880Y-93561234D01*
X157242000Y-93527905D01*
X157242000Y-93525633D01*
X157220787Y-93418988D01*
X157179176Y-93318530D01*
X157118766Y-93228120D01*
X157041880Y-93151234D01*
X157022000Y-93137951D01*
X157022000Y-93065633D01*
X157000787Y-92958988D01*
X156959176Y-92858530D01*
X156898766Y-92768120D01*
X156821880Y-92691234D01*
X156731470Y-92630824D01*
X156631012Y-92589213D01*
X156524367Y-92568000D01*
X156415633Y-92568000D01*
X156308988Y-92589213D01*
X156208530Y-92630824D01*
X156118120Y-92691234D01*
X156041234Y-92768120D01*
X155980824Y-92858530D01*
X155939213Y-92958988D01*
X155918000Y-93065633D01*
X139568434Y-93065633D01*
X139568838Y-92369000D01*
X165771001Y-92369000D01*
X165771001Y-93368918D01*
G37*
X165771001Y-93368918D02*
X164137500Y-93368918D01*
X164073397Y-93375232D01*
X164011757Y-93393930D01*
X163954950Y-93424294D01*
X163905157Y-93465157D01*
X163864294Y-93514950D01*
X163833930Y-93571757D01*
X163815232Y-93633397D01*
X163808918Y-93697500D01*
X163808918Y-95422500D01*
X163815232Y-95486603D01*
X163833930Y-95548243D01*
X163864294Y-95605050D01*
X163905157Y-95654843D01*
X163954950Y-95695706D01*
X164011757Y-95726070D01*
X164073397Y-95744768D01*
X164137500Y-95751082D01*
X165771001Y-95751082D01*
X165771000Y-105268918D01*
X165437800Y-105268918D01*
X165437800Y-97993560D01*
X165439628Y-97975001D01*
X165437305Y-97951418D01*
X165432334Y-97900940D01*
X165410731Y-97829725D01*
X165403504Y-97816204D01*
X165375649Y-97764091D01*
X165353207Y-97736746D01*
X165328438Y-97706564D01*
X165314018Y-97694730D01*
X164712000Y-97092713D01*
X164712000Y-97020635D01*
X164690787Y-96913990D01*
X164649176Y-96813532D01*
X164588766Y-96723122D01*
X164511880Y-96646236D01*
X164421470Y-96585826D01*
X164321012Y-96544215D01*
X164214367Y-96523002D01*
X164105633Y-96523002D01*
X164102000Y-96523725D01*
X164102000Y-96435633D01*
X164080787Y-96328988D01*
X164039176Y-96228530D01*
X163978766Y-96138120D01*
X163901880Y-96061234D01*
X163811470Y-96000824D01*
X163711012Y-95959213D01*
X163604367Y-95938000D01*
X163495633Y-95938000D01*
X163388988Y-95959213D01*
X163288530Y-96000824D01*
X163198120Y-96061234D01*
X163121234Y-96138120D01*
X163060824Y-96228530D01*
X163019213Y-96328988D01*
X162998000Y-96435633D01*
X162998000Y-96544367D01*
X163019213Y-96651012D01*
X163060824Y-96751470D01*
X163121234Y-96841880D01*
X163198120Y-96918766D01*
X163288530Y-96979176D01*
X163388988Y-97020787D01*
X163495633Y-97042000D01*
X163604367Y-97042000D01*
X163608000Y-97041277D01*
X163608000Y-97129369D01*
X163629213Y-97236014D01*
X163670824Y-97336472D01*
X163731234Y-97426882D01*
X163803955Y-97499603D01*
X163803013Y-97499213D01*
X163696368Y-97478000D01*
X163587634Y-97478000D01*
X163480989Y-97499213D01*
X163380531Y-97540824D01*
X163290121Y-97601234D01*
X163213235Y-97678120D01*
X163152825Y-97768530D01*
X163111214Y-97868988D01*
X163090001Y-97975633D01*
X163090001Y-98084367D01*
X163111214Y-98191012D01*
X163152825Y-98291470D01*
X163213235Y-98381880D01*
X163290121Y-98458766D01*
X163380531Y-98519176D01*
X163480989Y-98560787D01*
X163587634Y-98582000D01*
X163696368Y-98582000D01*
X163803013Y-98560787D01*
X163903471Y-98519176D01*
X163993881Y-98458766D01*
X164070767Y-98381880D01*
X164131177Y-98291470D01*
X164172788Y-98191012D01*
X164194001Y-98084367D01*
X164194001Y-97975633D01*
X164172788Y-97868988D01*
X164131177Y-97768530D01*
X164070767Y-97678120D01*
X163998046Y-97605399D01*
X163998988Y-97605789D01*
X164105633Y-97627002D01*
X164177711Y-97627002D01*
X164682201Y-98131493D01*
X164682201Y-99801555D01*
X164641880Y-99761234D01*
X164551470Y-99700824D01*
X164451012Y-99659213D01*
X164344367Y-99638000D01*
X164235633Y-99638000D01*
X164128988Y-99659213D01*
X164028530Y-99700824D01*
X163938120Y-99761234D01*
X163861234Y-99838120D01*
X163800824Y-99928530D01*
X163759213Y-100028988D01*
X163738000Y-100135633D01*
X163738000Y-100244367D01*
X163759213Y-100351012D01*
X163800824Y-100451470D01*
X163861234Y-100541880D01*
X163938120Y-100618766D01*
X164028530Y-100679176D01*
X164128988Y-100720787D01*
X164235633Y-100742000D01*
X164344367Y-100742000D01*
X164451012Y-100720787D01*
X164551470Y-100679176D01*
X164641880Y-100618766D01*
X164682201Y-100578445D01*
X164682200Y-105268918D01*
X164197500Y-105268918D01*
X164133397Y-105275232D01*
X164071757Y-105293930D01*
X164014950Y-105324294D01*
X163965157Y-105365157D01*
X163924294Y-105414950D01*
X163893930Y-105471757D01*
X163875232Y-105533397D01*
X163868918Y-105597500D01*
X163868918Y-107322500D01*
X163875232Y-107386603D01*
X163893930Y-107448243D01*
X163924294Y-107505050D01*
X163965157Y-107554843D01*
X164014950Y-107595706D01*
X164071757Y-107626070D01*
X164133397Y-107644768D01*
X164197500Y-107651082D01*
X165771000Y-107651082D01*
X165771000Y-109101000D01*
X164856227Y-109101000D01*
X164832019Y-109042558D01*
X164751747Y-108922421D01*
X164649579Y-108820253D01*
X164529442Y-108739981D01*
X164395954Y-108684688D01*
X164254243Y-108656500D01*
X164244739Y-108656500D01*
X164247432Y-108649999D01*
X164280500Y-108483752D01*
X164280500Y-108314248D01*
X164247432Y-108148001D01*
X164182566Y-107991400D01*
X164088394Y-107850463D01*
X163968537Y-107730606D01*
X163827600Y-107636434D01*
X163670999Y-107571568D01*
X163504752Y-107538500D01*
X163335248Y-107538500D01*
X163169001Y-107571568D01*
X163012400Y-107636434D01*
X162871463Y-107730606D01*
X162751606Y-107850463D01*
X162672467Y-107968902D01*
X162639176Y-107888530D01*
X162578766Y-107798120D01*
X162501880Y-107721234D01*
X162411470Y-107660824D01*
X162311012Y-107619213D01*
X162204367Y-107598000D01*
X162095633Y-107598000D01*
X161988988Y-107619213D01*
X161888530Y-107660824D01*
X161798120Y-107721234D01*
X161721234Y-107798120D01*
X161660824Y-107888530D01*
X161619213Y-107988988D01*
X161598000Y-108095633D01*
X161598000Y-108204367D01*
X161619213Y-108311012D01*
X161660824Y-108411470D01*
X161671869Y-108428000D01*
X161643000Y-108428000D01*
X161612281Y-108431012D01*
X161581539Y-108433810D01*
X161580436Y-108434135D01*
X161579291Y-108434247D01*
X161549731Y-108443172D01*
X161520129Y-108451884D01*
X161519111Y-108452416D01*
X161518009Y-108452749D01*
X161515247Y-108454218D01*
X161515118Y-108454177D01*
X161514105Y-108453629D01*
X161484547Y-108444479D01*
X161461000Y-108437009D01*
X161461000Y-103833455D01*
X162569650Y-102724807D01*
X163237653Y-102724807D01*
X163266193Y-102727618D01*
X163294733Y-102724807D01*
X163380089Y-102716400D01*
X163489608Y-102683178D01*
X163590541Y-102629228D01*
X163679010Y-102556624D01*
X163697210Y-102534447D01*
X164081009Y-102150648D01*
X164135420Y-102084348D01*
X164189371Y-101983415D01*
X164222593Y-101873896D01*
X164233811Y-101760001D01*
X164222593Y-101646105D01*
X164189371Y-101536586D01*
X164135420Y-101435653D01*
X164062816Y-101347184D01*
X163974347Y-101274580D01*
X163873414Y-101220629D01*
X163763895Y-101187407D01*
X163649999Y-101176189D01*
X163536104Y-101187407D01*
X163426585Y-101220629D01*
X163325652Y-101274580D01*
X163259352Y-101328991D01*
X163025536Y-101562807D01*
X162357531Y-101562807D01*
X162328991Y-101559996D01*
X162215095Y-101571214D01*
X162105576Y-101604436D01*
X162004643Y-101658386D01*
X161947072Y-101705633D01*
X161916174Y-101730990D01*
X161897983Y-101753156D01*
X160489355Y-103161786D01*
X160467184Y-103179981D01*
X160423601Y-103233088D01*
X160394579Y-103268451D01*
X160340629Y-103369384D01*
X160307407Y-103478903D01*
X160296189Y-103592798D01*
X160299001Y-103621348D01*
X160299000Y-108437354D01*
X160279731Y-108443172D01*
X160250129Y-108451884D01*
X160249111Y-108452416D01*
X160248009Y-108452749D01*
X160245247Y-108454218D01*
X160245118Y-108454177D01*
X160244105Y-108453629D01*
X160214547Y-108444479D01*
X160185195Y-108435168D01*
X160184056Y-108435040D01*
X160182954Y-108434699D01*
X160152201Y-108431467D01*
X160121580Y-108428032D01*
X160119372Y-108428017D01*
X160119290Y-108428008D01*
X160119208Y-108428015D01*
X160117000Y-108428000D01*
X159103000Y-108428000D01*
X159072281Y-108431012D01*
X159041539Y-108433810D01*
X159040436Y-108434135D01*
X159039291Y-108434247D01*
X159009731Y-108443172D01*
X158980129Y-108451884D01*
X158979111Y-108452416D01*
X158978009Y-108452749D01*
X158975247Y-108454218D01*
X158975118Y-108454177D01*
X158974105Y-108453629D01*
X158944547Y-108444479D01*
X158915195Y-108435168D01*
X158914056Y-108435040D01*
X158912954Y-108434699D01*
X158882201Y-108431467D01*
X158851580Y-108428032D01*
X158849372Y-108428017D01*
X158849290Y-108428008D01*
X158849208Y-108428015D01*
X158847000Y-108428000D01*
X157833000Y-108428000D01*
X157802281Y-108431012D01*
X157771539Y-108433810D01*
X157770436Y-108434135D01*
X157769291Y-108434247D01*
X157739731Y-108443172D01*
X157710129Y-108451884D01*
X157709111Y-108452416D01*
X157708009Y-108452749D01*
X157705247Y-108454218D01*
X157705118Y-108454177D01*
X157704105Y-108453629D01*
X157674547Y-108444479D01*
X157645195Y-108435168D01*
X157644056Y-108435040D01*
X157642954Y-108434699D01*
X157612201Y-108431467D01*
X157581580Y-108428032D01*
X157579372Y-108428017D01*
X157579290Y-108428008D01*
X157579208Y-108428015D01*
X157577000Y-108428000D01*
X157218552Y-108428000D01*
X159276062Y-106370490D01*
X159290962Y-106358262D01*
X159339761Y-106298801D01*
X159376021Y-106230962D01*
X159396323Y-106164034D01*
X159398350Y-106157353D01*
X159400017Y-106140423D01*
X159404001Y-106099979D01*
X159404001Y-106099973D01*
X159405889Y-106080802D01*
X159404001Y-106061631D01*
X159404001Y-103768369D01*
X159405889Y-103749198D01*
X159404001Y-103730027D01*
X159404001Y-103730021D01*
X159398350Y-103672648D01*
X159376021Y-103599038D01*
X159339761Y-103531199D01*
X159290962Y-103471738D01*
X159276061Y-103459509D01*
X158491640Y-102675088D01*
X158479411Y-102660187D01*
X158419950Y-102611388D01*
X158352111Y-102575128D01*
X158278501Y-102552799D01*
X158221128Y-102547148D01*
X158201950Y-102545259D01*
X158182772Y-102547148D01*
X157812450Y-102547148D01*
X157812450Y-99561131D01*
X157814339Y-99541950D01*
X157806800Y-99465398D01*
X157784470Y-99391789D01*
X157780616Y-99384579D01*
X157748210Y-99323950D01*
X157699411Y-99264489D01*
X157684515Y-99252264D01*
X156432000Y-97999750D01*
X156432000Y-97945633D01*
X156410787Y-97838988D01*
X156369176Y-97738530D01*
X156308766Y-97648120D01*
X156231880Y-97571234D01*
X156175624Y-97533645D01*
X156612270Y-97096999D01*
X158224967Y-97096999D01*
X158244145Y-97098888D01*
X158263323Y-97096999D01*
X158320696Y-97091348D01*
X158394306Y-97069019D01*
X158462145Y-97032759D01*
X158488400Y-97011212D01*
X158500348Y-97012389D01*
X158519526Y-97010500D01*
X158576899Y-97004849D01*
X158650509Y-96982520D01*
X158718348Y-96946260D01*
X158777809Y-96897461D01*
X158790038Y-96882560D01*
X159259475Y-96413123D01*
X159274375Y-96400895D01*
X159323174Y-96341434D01*
X159359434Y-96273595D01*
X159381763Y-96199985D01*
X159381775Y-96199869D01*
X159384531Y-96171880D01*
X159387414Y-96142612D01*
X159387414Y-96142606D01*
X159389302Y-96123435D01*
X159387414Y-96104264D01*
X159387414Y-95113005D01*
X159436882Y-95079952D01*
X159513768Y-95003066D01*
X159574178Y-94912656D01*
X159615789Y-94812198D01*
X159637002Y-94705553D01*
X159637002Y-94596819D01*
X159615789Y-94490174D01*
X159574178Y-94389716D01*
X159513768Y-94299306D01*
X159436882Y-94222420D01*
X159346472Y-94162010D01*
X159246014Y-94120399D01*
X159139369Y-94099186D01*
X159030635Y-94099186D01*
X158923990Y-94120399D01*
X158823532Y-94162010D01*
X158733122Y-94222420D01*
X158656236Y-94299306D01*
X158595826Y-94389716D01*
X158554215Y-94490174D01*
X158533002Y-94596819D01*
X158533002Y-94705553D01*
X158554215Y-94812198D01*
X158595826Y-94912656D01*
X158606415Y-94928503D01*
X158606414Y-95463471D01*
X158576508Y-95451083D01*
X158469863Y-95429870D01*
X158361129Y-95429870D01*
X158254484Y-95451083D01*
X158154026Y-95492694D01*
X158063616Y-95553104D01*
X157986730Y-95629990D01*
X157926320Y-95720400D01*
X157884709Y-95820858D01*
X157863496Y-95927503D01*
X157863496Y-95981620D01*
X157856127Y-95988989D01*
X156334249Y-95988989D01*
X156315068Y-95987100D01*
X156238516Y-95994639D01*
X156179560Y-96012524D01*
X156164907Y-96016969D01*
X156097068Y-96053229D01*
X156037607Y-96102028D01*
X156025382Y-96116924D01*
X155141490Y-97000817D01*
X152813410Y-97000817D01*
X152794239Y-96998929D01*
X152775068Y-97000817D01*
X152775062Y-97000817D01*
X152725603Y-97005688D01*
X152717688Y-97006468D01*
X152704397Y-97010500D01*
X152644079Y-97028797D01*
X152576240Y-97065057D01*
X152516779Y-97113856D01*
X152504550Y-97128757D01*
X152038582Y-97594725D01*
X152038582Y-97230000D01*
X152032268Y-97165897D01*
X152013570Y-97104257D01*
X151983206Y-97047450D01*
X151942343Y-96997657D01*
X151892550Y-96956794D01*
X151835743Y-96926430D01*
X151774103Y-96907732D01*
X151710000Y-96901418D01*
X151010000Y-96901418D01*
X150945897Y-96907732D01*
X150884257Y-96926430D01*
X150827450Y-96956794D01*
X150777657Y-96997657D01*
X150736794Y-97047450D01*
X150706430Y-97104257D01*
X150687732Y-97165897D01*
X150681418Y-97230000D01*
X150681418Y-97930000D01*
X150687732Y-97994103D01*
X150689214Y-97998989D01*
X149730210Y-97998989D01*
X149711032Y-97997100D01*
X149634480Y-98004640D01*
X149580815Y-98020919D01*
X149560871Y-98026969D01*
X149493032Y-98063229D01*
X149433571Y-98112028D01*
X149421346Y-98126924D01*
X148225937Y-99322334D01*
X148211041Y-99334559D01*
X148162242Y-99394020D01*
X148151424Y-99414259D01*
X148125981Y-99461860D01*
X148103652Y-99535469D01*
X148096112Y-99612020D01*
X148098002Y-99631208D01*
X148098001Y-100699051D01*
X147347552Y-101449500D01*
X146390146Y-101449500D01*
X146351880Y-101411234D01*
X146261470Y-101350824D01*
X146161012Y-101309213D01*
X146054367Y-101288000D01*
X145945633Y-101288000D01*
X145838988Y-101309213D01*
X145738530Y-101350824D01*
X145648120Y-101411234D01*
X145571234Y-101488120D01*
X145510824Y-101578530D01*
X145469213Y-101678988D01*
X145448000Y-101785633D01*
X145448000Y-101894367D01*
X145456400Y-101936595D01*
X145451498Y-101936112D01*
X145374947Y-101943652D01*
X145311772Y-101962816D01*
X145301338Y-101965981D01*
X145233499Y-102002241D01*
X145174038Y-102051040D01*
X145161809Y-102065941D01*
X145042863Y-102184887D01*
X145028530Y-102190824D01*
X144938120Y-102251234D01*
X144861234Y-102328120D01*
X144800824Y-102418530D01*
X144759213Y-102518988D01*
X144738000Y-102625633D01*
X144738000Y-102734367D01*
X144759213Y-102841012D01*
X144800824Y-102941470D01*
X144861234Y-103031880D01*
X144938120Y-103108766D01*
X145028530Y-103169176D01*
X145128988Y-103210787D01*
X145235633Y-103232000D01*
X145344367Y-103232000D01*
X145451012Y-103210787D01*
X145551470Y-103169176D01*
X145641880Y-103108766D01*
X145718766Y-103031880D01*
X145779176Y-102941470D01*
X145820787Y-102841012D01*
X145842000Y-102734367D01*
X145842000Y-102719001D01*
X147464084Y-102719001D01*
X147483262Y-102720890D01*
X147502440Y-102719001D01*
X147559813Y-102713350D01*
X147633423Y-102691021D01*
X147701262Y-102654761D01*
X147760723Y-102605962D01*
X147772952Y-102591061D01*
X149029932Y-101334082D01*
X149049213Y-101431012D01*
X149090824Y-101531470D01*
X149107569Y-101556530D01*
X145848576Y-104815524D01*
X145834151Y-104827362D01*
X145806608Y-104860925D01*
X145786940Y-104884890D01*
X145769001Y-104918452D01*
X145751858Y-104950524D01*
X145730255Y-105021739D01*
X145727163Y-105053135D01*
X145722961Y-105095800D01*
X145724789Y-105114359D01*
X145724790Y-105954747D01*
X145722961Y-105973315D01*
X145729617Y-106040885D01*
X145730256Y-106047377D01*
X145746213Y-106099979D01*
X145751859Y-106118592D01*
X145786940Y-106184225D01*
X145807861Y-106209717D01*
X145834152Y-106241753D01*
X145848571Y-106253586D01*
X146425310Y-106830326D01*
X146437144Y-106844746D01*
X146461660Y-106864865D01*
X146494671Y-106891957D01*
X146514239Y-106902416D01*
X146560305Y-106927039D01*
X146631520Y-106948642D01*
X146687021Y-106954108D01*
X146687023Y-106954108D01*
X146705582Y-106955936D01*
X146724140Y-106954108D01*
X146954091Y-106954108D01*
X146983923Y-106983940D01*
X146977519Y-106986593D01*
X146887109Y-107047003D01*
X146810223Y-107123889D01*
X146749813Y-107214299D01*
X146708202Y-107314757D01*
X146686989Y-107421402D01*
X146686989Y-107530136D01*
X146708202Y-107636781D01*
X146749813Y-107737239D01*
X146810223Y-107827649D01*
X146887109Y-107904535D01*
X146977519Y-107964945D01*
X147077977Y-108006556D01*
X147184622Y-108027769D01*
X147256699Y-108027769D01*
X147372948Y-108144018D01*
X147384782Y-108158438D01*
X147403696Y-108173960D01*
X147442309Y-108205649D01*
X147473836Y-108222500D01*
X147507943Y-108240731D01*
X147579158Y-108262334D01*
X147634659Y-108267800D01*
X147634661Y-108267800D01*
X147653219Y-108269628D01*
X147671778Y-108267800D01*
X152205628Y-108267800D01*
X152224186Y-108269628D01*
X152242744Y-108267800D01*
X152242747Y-108267800D01*
X152298248Y-108262334D01*
X152369463Y-108240731D01*
X152435096Y-108205649D01*
X152492624Y-108158438D01*
X152504462Y-108144013D01*
X153729819Y-106918657D01*
X153744239Y-106906823D01*
X153777090Y-106866793D01*
X153791450Y-106849296D01*
X153819185Y-106797407D01*
X153826532Y-106783662D01*
X153848135Y-106712447D01*
X153853601Y-106656946D01*
X153853601Y-106656944D01*
X153855429Y-106638385D01*
X153853601Y-106619827D01*
X153853601Y-105843272D01*
X154638273Y-105058601D01*
X156262083Y-105058601D01*
X156280641Y-105060429D01*
X156299199Y-105058601D01*
X156299202Y-105058601D01*
X156354703Y-105053135D01*
X156425918Y-105031532D01*
X156491551Y-104996450D01*
X156549079Y-104949239D01*
X156560917Y-104934814D01*
X157037932Y-104457800D01*
X157294156Y-104457800D01*
X157297732Y-104494103D01*
X157316430Y-104555743D01*
X157346794Y-104612550D01*
X157387657Y-104662343D01*
X157437450Y-104703206D01*
X157494257Y-104733570D01*
X157555897Y-104752268D01*
X157620000Y-104758582D01*
X158520000Y-104758582D01*
X158584103Y-104752268D01*
X158623002Y-104740468D01*
X158623001Y-105919051D01*
X156682041Y-107860011D01*
X153783659Y-107860011D01*
X153764488Y-107858123D01*
X153745317Y-107860011D01*
X153745311Y-107860011D01*
X153695852Y-107864882D01*
X153687937Y-107865662D01*
X153650943Y-107876884D01*
X153614328Y-107887991D01*
X153546489Y-107924251D01*
X153487028Y-107973050D01*
X153474799Y-107987951D01*
X153034750Y-108428000D01*
X152753000Y-108428000D01*
X152722281Y-108431012D01*
X152691539Y-108433810D01*
X152690436Y-108434135D01*
X152689291Y-108434247D01*
X152659731Y-108443172D01*
X152630129Y-108451884D01*
X152629111Y-108452416D01*
X152628009Y-108452749D01*
X152625247Y-108454218D01*
X152625118Y-108454177D01*
X152624105Y-108453629D01*
X152594547Y-108444479D01*
X152565195Y-108435168D01*
X152564056Y-108435040D01*
X152562954Y-108434699D01*
X152532201Y-108431467D01*
X152501580Y-108428032D01*
X152499372Y-108428017D01*
X152499290Y-108428008D01*
X152499208Y-108428015D01*
X152497000Y-108428000D01*
X151483000Y-108428000D01*
X151452281Y-108431012D01*
X151421539Y-108433810D01*
X151420436Y-108434135D01*
X151419291Y-108434247D01*
X151389731Y-108443172D01*
X151360129Y-108451884D01*
X151359111Y-108452416D01*
X151358009Y-108452749D01*
X151355247Y-108454218D01*
X151355118Y-108454177D01*
X151354105Y-108453629D01*
X151324547Y-108444479D01*
X151295195Y-108435168D01*
X151294056Y-108435040D01*
X151292954Y-108434699D01*
X151262201Y-108431467D01*
X151231580Y-108428032D01*
X151229372Y-108428017D01*
X151229290Y-108428008D01*
X151229208Y-108428015D01*
X151227000Y-108428000D01*
X150213000Y-108428000D01*
X150182281Y-108431012D01*
X150151539Y-108433810D01*
X150150436Y-108434135D01*
X150149291Y-108434247D01*
X150119731Y-108443172D01*
X150090129Y-108451884D01*
X150089111Y-108452416D01*
X150088009Y-108452749D01*
X150085247Y-108454218D01*
X150085118Y-108454177D01*
X150084105Y-108453629D01*
X150054547Y-108444479D01*
X150025195Y-108435168D01*
X150024056Y-108435040D01*
X150022954Y-108434699D01*
X149992201Y-108431467D01*
X149961580Y-108428032D01*
X149959372Y-108428017D01*
X149959290Y-108428008D01*
X149959208Y-108428015D01*
X149957000Y-108428000D01*
X148943000Y-108428000D01*
X148912281Y-108431012D01*
X148881539Y-108433810D01*
X148880436Y-108434135D01*
X148879291Y-108434247D01*
X148849731Y-108443172D01*
X148820129Y-108451884D01*
X148819111Y-108452416D01*
X148818009Y-108452749D01*
X148815247Y-108454218D01*
X148815118Y-108454177D01*
X148814105Y-108453629D01*
X148784547Y-108444479D01*
X148755195Y-108435168D01*
X148754056Y-108435040D01*
X148752954Y-108434699D01*
X148722201Y-108431467D01*
X148691580Y-108428032D01*
X148689372Y-108428017D01*
X148689290Y-108428008D01*
X148689208Y-108428015D01*
X148687000Y-108428000D01*
X147673000Y-108428000D01*
X147642281Y-108431012D01*
X147611539Y-108433810D01*
X147610436Y-108434135D01*
X147609291Y-108434247D01*
X147579731Y-108443172D01*
X147550129Y-108451884D01*
X147549111Y-108452416D01*
X147548009Y-108452749D01*
X147545247Y-108454218D01*
X147545118Y-108454177D01*
X147544105Y-108453629D01*
X147514547Y-108444479D01*
X147485195Y-108435168D01*
X147484056Y-108435040D01*
X147482954Y-108434699D01*
X147452201Y-108431467D01*
X147421580Y-108428032D01*
X147419372Y-108428017D01*
X147419290Y-108428008D01*
X147419208Y-108428015D01*
X147417000Y-108428000D01*
X146403000Y-108428000D01*
X146372281Y-108431012D01*
X146341539Y-108433810D01*
X146340436Y-108434135D01*
X146339291Y-108434247D01*
X146309731Y-108443172D01*
X146280129Y-108451884D01*
X146279111Y-108452416D01*
X146278009Y-108452749D01*
X146275247Y-108454218D01*
X146275118Y-108454177D01*
X146274105Y-108453629D01*
X146244547Y-108444479D01*
X146215195Y-108435168D01*
X146214056Y-108435040D01*
X146212954Y-108434699D01*
X146182201Y-108431467D01*
X146151580Y-108428032D01*
X146149372Y-108428017D01*
X146149290Y-108428008D01*
X146149208Y-108428015D01*
X146147000Y-108428000D01*
X145230500Y-108428000D01*
X145230500Y-108314248D01*
X145197432Y-108148001D01*
X145132566Y-107991400D01*
X145038394Y-107850463D01*
X144918537Y-107730606D01*
X144777600Y-107636434D01*
X144620999Y-107571568D01*
X144454752Y-107538500D01*
X144285248Y-107538500D01*
X144119001Y-107571568D01*
X143962400Y-107636434D01*
X143821463Y-107730606D01*
X143701606Y-107850463D01*
X143607434Y-107991400D01*
X143542568Y-108148001D01*
X143509500Y-108314248D01*
X143509500Y-108483752D01*
X143542568Y-108649999D01*
X143607434Y-108806600D01*
X143701606Y-108947537D01*
X143821463Y-109067394D01*
X143871757Y-109101000D01*
X143545227Y-109101000D01*
X143521019Y-109042558D01*
X143440747Y-108922421D01*
X143338579Y-108820253D01*
X143218442Y-108739981D01*
X143084954Y-108684688D01*
X142943243Y-108656500D01*
X142798757Y-108656500D01*
X142657046Y-108684688D01*
X142523558Y-108739981D01*
X142403421Y-108820253D01*
X142301253Y-108922421D01*
X142220981Y-109042558D01*
X142196773Y-109101000D01*
X139559161Y-109101000D01*
X139560666Y-106497500D01*
X140838918Y-106497500D01*
X140838918Y-108222500D01*
X140845232Y-108286603D01*
X140863930Y-108348243D01*
X140894294Y-108405050D01*
X140935157Y-108454843D01*
X140984950Y-108495706D01*
X141041757Y-108526070D01*
X141103397Y-108544768D01*
X141167500Y-108551082D01*
X142892500Y-108551082D01*
X142956603Y-108544768D01*
X143018243Y-108526070D01*
X143075050Y-108495706D01*
X143124843Y-108454843D01*
X143165706Y-108405050D01*
X143196070Y-108348243D01*
X143214768Y-108286603D01*
X143221082Y-108222500D01*
X143221082Y-107640575D01*
X143751644Y-107110014D01*
X143773816Y-107091818D01*
X143846420Y-107003349D01*
X143900370Y-106902416D01*
X143917547Y-106845789D01*
X143933592Y-106792897D01*
X143944810Y-106679002D01*
X143941999Y-106650462D01*
X143941999Y-106541656D01*
X144745237Y-105738419D01*
X144827549Y-105694422D01*
X144916018Y-105621818D01*
X144934218Y-105599641D01*
X144984642Y-105549217D01*
X145006818Y-105531018D01*
X145079422Y-105442549D01*
X145133372Y-105341616D01*
X145166594Y-105232097D01*
X145175001Y-105146741D01*
X145175001Y-105146740D01*
X145177812Y-105118201D01*
X145175001Y-105089661D01*
X145175001Y-103950339D01*
X145177812Y-103921799D01*
X145172850Y-103871420D01*
X145166594Y-103807903D01*
X145133372Y-103698384D01*
X145084201Y-103606392D01*
X145084201Y-103578260D01*
X145075794Y-103492904D01*
X145042572Y-103383385D01*
X144988622Y-103282451D01*
X144916018Y-103193982D01*
X144827549Y-103121378D01*
X144748428Y-103079087D01*
X144730750Y-103064579D01*
X144629817Y-103010629D01*
X144520298Y-102977407D01*
X144434942Y-102969000D01*
X142895461Y-102969000D01*
X142810105Y-102977407D01*
X142700586Y-103010629D01*
X142599653Y-103064579D01*
X142511184Y-103137183D01*
X142438580Y-103225652D01*
X142384630Y-103326585D01*
X142351408Y-103436104D01*
X142340190Y-103550000D01*
X142346960Y-103618735D01*
X142341418Y-103675000D01*
X142341418Y-104025000D01*
X142347732Y-104089103D01*
X142366430Y-104150743D01*
X142396794Y-104207550D01*
X142437657Y-104257343D01*
X142487450Y-104298206D01*
X142544257Y-104328570D01*
X142605897Y-104347268D01*
X142670000Y-104353582D01*
X142679629Y-104353582D01*
X142746585Y-104389371D01*
X142856104Y-104422593D01*
X142941460Y-104431000D01*
X143289258Y-104431000D01*
X143317798Y-104433811D01*
X143346338Y-104431000D01*
X143431694Y-104422593D01*
X143466618Y-104411999D01*
X143683929Y-104411999D01*
X143700000Y-104413582D01*
X144013002Y-104413582D01*
X144013001Y-104626963D01*
X144002459Y-104628001D01*
X143389539Y-104628001D01*
X143360999Y-104625190D01*
X143332459Y-104628001D01*
X143225916Y-104628001D01*
X143193415Y-104610629D01*
X143083896Y-104577407D01*
X142970000Y-104566189D01*
X142856105Y-104577407D01*
X142746586Y-104610629D01*
X142679630Y-104646418D01*
X142670000Y-104646418D01*
X142605897Y-104652732D01*
X142544257Y-104671430D01*
X142487450Y-104701794D01*
X142437657Y-104742657D01*
X142396794Y-104792450D01*
X142366430Y-104849257D01*
X142347732Y-104910897D01*
X142341418Y-104975000D01*
X142341418Y-105325000D01*
X142347732Y-105389103D01*
X142366430Y-105450743D01*
X142381262Y-105478492D01*
X142376189Y-105530000D01*
X142379000Y-105558540D01*
X142379000Y-106168918D01*
X141167500Y-106168918D01*
X141103397Y-106175232D01*
X141041757Y-106193930D01*
X140984950Y-106224294D01*
X140935157Y-106265157D01*
X140894294Y-106314950D01*
X140863930Y-106371757D01*
X140845232Y-106433397D01*
X140838918Y-106497500D01*
X139560666Y-106497500D01*
X139561905Y-104356968D01*
X139574257Y-104363570D01*
X139635897Y-104382268D01*
X139700000Y-104388582D01*
X139907532Y-104388582D01*
X139920000Y-104389810D01*
X139932468Y-104388582D01*
X140140000Y-104388582D01*
X140156071Y-104386999D01*
X140319349Y-104386999D01*
X140323787Y-104389371D01*
X140433306Y-104422593D01*
X140518662Y-104431000D01*
X140547202Y-104433811D01*
X140575742Y-104431000D01*
X140841460Y-104431000D01*
X140870000Y-104433811D01*
X140898540Y-104431000D01*
X140983896Y-104422593D01*
X141093415Y-104389371D01*
X141160371Y-104353582D01*
X141170000Y-104353582D01*
X141234103Y-104347268D01*
X141295743Y-104328570D01*
X141352550Y-104298206D01*
X141402343Y-104257343D01*
X141443206Y-104207550D01*
X141473570Y-104150743D01*
X141492268Y-104089103D01*
X141498582Y-104025000D01*
X141498582Y-103675000D01*
X141492268Y-103610897D01*
X141473570Y-103549257D01*
X141451000Y-103507032D01*
X141451000Y-102822137D01*
X141453811Y-102793597D01*
X141442593Y-102679702D01*
X141409371Y-102570183D01*
X141406439Y-102564698D01*
X141355421Y-102469250D01*
X141282817Y-102380781D01*
X141278582Y-102377305D01*
X141278582Y-100590000D01*
X141272268Y-100525897D01*
X141261000Y-100488751D01*
X141261000Y-100258540D01*
X141263811Y-100230000D01*
X141258582Y-100176910D01*
X141258582Y-98673075D01*
X143180646Y-96751012D01*
X143202817Y-96732817D01*
X143275421Y-96644348D01*
X143329371Y-96543415D01*
X143362593Y-96433896D01*
X143366818Y-96391000D01*
X143389449Y-96391000D01*
X143394257Y-96393570D01*
X143455897Y-96412268D01*
X143520000Y-96418582D01*
X143727531Y-96418582D01*
X143739999Y-96419810D01*
X143752467Y-96418582D01*
X143960000Y-96418582D01*
X144024103Y-96412268D01*
X144085743Y-96393570D01*
X144142550Y-96363206D01*
X144192343Y-96322343D01*
X144233206Y-96272550D01*
X144263570Y-96215743D01*
X144282268Y-96154103D01*
X144288582Y-96090000D01*
X144288582Y-96029048D01*
X144312593Y-95949894D01*
X144323811Y-95835998D01*
X144312593Y-95722104D01*
X144288582Y-95642950D01*
X144288582Y-95620000D01*
X144282268Y-95555897D01*
X144263570Y-95494257D01*
X144233206Y-95437450D01*
X144192343Y-95387657D01*
X144142550Y-95346794D01*
X144085743Y-95316430D01*
X144024103Y-95297732D01*
X143979994Y-95293387D01*
X143937416Y-95270629D01*
X143827897Y-95237407D01*
X143742541Y-95229000D01*
X143714001Y-95226189D01*
X143685461Y-95229000D01*
X142818540Y-95229000D01*
X142790000Y-95226189D01*
X142761460Y-95229000D01*
X142676104Y-95237407D01*
X142566585Y-95270629D01*
X142465652Y-95324579D01*
X142427365Y-95356000D01*
X142391230Y-95356000D01*
X142383471Y-95330422D01*
X142341314Y-95251552D01*
X142284580Y-95182422D01*
X142215450Y-95125688D01*
X142136580Y-95083531D01*
X142114753Y-95076910D01*
X142099197Y-95068595D01*
X142018708Y-95044178D01*
X141935001Y-95035934D01*
X141851295Y-95044178D01*
X141809686Y-95056800D01*
X141773365Y-95064025D01*
X141697476Y-95095459D01*
X141629178Y-95141095D01*
X141571095Y-95199178D01*
X141525459Y-95267476D01*
X141494025Y-95343365D01*
X141482302Y-95402302D01*
X141423365Y-95414025D01*
X141347476Y-95445459D01*
X141279178Y-95491095D01*
X141278234Y-95492039D01*
X141266623Y-95498245D01*
X141217899Y-95538233D01*
X141187502Y-95568630D01*
X141179176Y-95548530D01*
X141118766Y-95458120D01*
X141041880Y-95381234D01*
X140951470Y-95320824D01*
X140851012Y-95279213D01*
X140744367Y-95258000D01*
X140635633Y-95258000D01*
X140528988Y-95279213D01*
X140434465Y-95318366D01*
X140432550Y-95316794D01*
X140375743Y-95286430D01*
X140314103Y-95267732D01*
X140250000Y-95261418D01*
X139810000Y-95261418D01*
X139745897Y-95267732D01*
X139684257Y-95286430D01*
X139627450Y-95316794D01*
X139577657Y-95357657D01*
X139567102Y-95370519D01*
X139567547Y-94600000D01*
X144986418Y-94600000D01*
X144986418Y-95650000D01*
X144992732Y-95714103D01*
X145011430Y-95775743D01*
X145041794Y-95832550D01*
X145082657Y-95882343D01*
X145132450Y-95923206D01*
X145189257Y-95953570D01*
X145250897Y-95972268D01*
X145315000Y-95978582D01*
X145388001Y-95978582D01*
X145388001Y-96201353D01*
X145371234Y-96218120D01*
X145310824Y-96308530D01*
X145269213Y-96408988D01*
X145248000Y-96515633D01*
X145248000Y-96624367D01*
X145269213Y-96731012D01*
X145310824Y-96831470D01*
X145371234Y-96921880D01*
X145448120Y-96998766D01*
X145538530Y-97059176D01*
X145559309Y-97067783D01*
X145542450Y-97076794D01*
X145492657Y-97117657D01*
X145451794Y-97167450D01*
X145421430Y-97224257D01*
X145402732Y-97285897D01*
X145396418Y-97350000D01*
X145396418Y-98400000D01*
X145402732Y-98464103D01*
X145421430Y-98525743D01*
X145451794Y-98582550D01*
X145492657Y-98632343D01*
X145542450Y-98673206D01*
X145599257Y-98703570D01*
X145660897Y-98722268D01*
X145725000Y-98728582D01*
X146725000Y-98728582D01*
X146789103Y-98722268D01*
X146850743Y-98703570D01*
X146907550Y-98673206D01*
X146957343Y-98632343D01*
X146998206Y-98582550D01*
X147028570Y-98525743D01*
X147047268Y-98464103D01*
X147053582Y-98400000D01*
X147053582Y-97350000D01*
X147047268Y-97285897D01*
X147028570Y-97224257D01*
X146998206Y-97167450D01*
X146957343Y-97117657D01*
X146907550Y-97076794D01*
X146850743Y-97046430D01*
X146789103Y-97027732D01*
X146725000Y-97021418D01*
X146117979Y-97021418D01*
X146151880Y-96998766D01*
X146228766Y-96921880D01*
X146289176Y-96831470D01*
X146330787Y-96731012D01*
X146352000Y-96624367D01*
X146352000Y-96515633D01*
X146330787Y-96408988D01*
X146289176Y-96308530D01*
X146242000Y-96237926D01*
X146242000Y-95978582D01*
X146315000Y-95978582D01*
X146379103Y-95972268D01*
X146440743Y-95953570D01*
X146497550Y-95923206D01*
X146547343Y-95882343D01*
X146588206Y-95832550D01*
X146618570Y-95775743D01*
X146637268Y-95714103D01*
X146643582Y-95650000D01*
X146643582Y-94600000D01*
X146637268Y-94535897D01*
X146618570Y-94474257D01*
X146588206Y-94417450D01*
X146547343Y-94367657D01*
X146497550Y-94326794D01*
X146440743Y-94296430D01*
X146379103Y-94277732D01*
X146315000Y-94271418D01*
X145315000Y-94271418D01*
X145250897Y-94277732D01*
X145189257Y-94296430D01*
X145132450Y-94326794D01*
X145082657Y-94367657D01*
X145041794Y-94417450D01*
X145011430Y-94474257D01*
X144992732Y-94535897D01*
X144986418Y-94600000D01*
X139567547Y-94600000D01*
X139568137Y-93580000D01*
X154151418Y-93580000D01*
X154151418Y-94230000D01*
X154157732Y-94294103D01*
X154176430Y-94355743D01*
X154206794Y-94412550D01*
X154247657Y-94462343D01*
X154297450Y-94503206D01*
X154354257Y-94533570D01*
X154415897Y-94552268D01*
X154480000Y-94558582D01*
X155680000Y-94558582D01*
X155744103Y-94552268D01*
X155805743Y-94533570D01*
X155862550Y-94503206D01*
X155912343Y-94462343D01*
X155953206Y-94412550D01*
X155983570Y-94355743D01*
X156002268Y-94294103D01*
X156008582Y-94230000D01*
X156008582Y-93580000D01*
X156002268Y-93515897D01*
X155983570Y-93454257D01*
X155953206Y-93397450D01*
X155912343Y-93347657D01*
X155862550Y-93306794D01*
X155805743Y-93276430D01*
X155744103Y-93257732D01*
X155680000Y-93251418D01*
X154480000Y-93251418D01*
X154415897Y-93257732D01*
X154354257Y-93276430D01*
X154297450Y-93306794D01*
X154247657Y-93347657D01*
X154206794Y-93397450D01*
X154176430Y-93454257D01*
X154157732Y-93515897D01*
X154151418Y-93580000D01*
X139568137Y-93580000D01*
X139568434Y-93065633D01*
X155918000Y-93065633D01*
X155918000Y-93174367D01*
X155939213Y-93281012D01*
X155980824Y-93381470D01*
X156041234Y-93471880D01*
X156118120Y-93548766D01*
X156138000Y-93562049D01*
X156138000Y-93634367D01*
X156159213Y-93741012D01*
X156200824Y-93841470D01*
X156261234Y-93931880D01*
X156338120Y-94008766D01*
X156388000Y-94042095D01*
X156388000Y-94044367D01*
X156409213Y-94151012D01*
X156450824Y-94251470D01*
X156511234Y-94341880D01*
X156588120Y-94418766D01*
X156678530Y-94479176D01*
X156778988Y-94520787D01*
X156885633Y-94542000D01*
X156994367Y-94542000D01*
X157101012Y-94520787D01*
X157201470Y-94479176D01*
X157291880Y-94418766D01*
X157368766Y-94341880D01*
X157429176Y-94251470D01*
X157470787Y-94151012D01*
X157492000Y-94044367D01*
X157492000Y-93935633D01*
X157470787Y-93828988D01*
X157429176Y-93728530D01*
X157368766Y-93638120D01*
X157291880Y-93561234D01*
X157242000Y-93527905D01*
X157242000Y-93525633D01*
X157220787Y-93418988D01*
X157179176Y-93318530D01*
X157118766Y-93228120D01*
X157041880Y-93151234D01*
X157022000Y-93137951D01*
X157022000Y-93065633D01*
X157000787Y-92958988D01*
X156959176Y-92858530D01*
X156898766Y-92768120D01*
X156821880Y-92691234D01*
X156731470Y-92630824D01*
X156631012Y-92589213D01*
X156524367Y-92568000D01*
X156415633Y-92568000D01*
X156308988Y-92589213D01*
X156208530Y-92630824D01*
X156118120Y-92691234D01*
X156041234Y-92768120D01*
X155980824Y-92858530D01*
X155939213Y-92958988D01*
X155918000Y-93065633D01*
X139568434Y-93065633D01*
X139568838Y-92369000D01*
X165771001Y-92369000D01*
X165771001Y-93368918D01*
G36*
X151091240Y-107025452D02*
G01*
X151112453Y-107132097D01*
X151154064Y-107232555D01*
X151214474Y-107322965D01*
X151291360Y-107399851D01*
X151381770Y-107460261D01*
X151482228Y-107501872D01*
X151534150Y-107512200D01*
X150379260Y-107512200D01*
X150418766Y-107472694D01*
X150479176Y-107382284D01*
X150520787Y-107281826D01*
X150542000Y-107175181D01*
X150542000Y-107066447D01*
X150533321Y-107022814D01*
X151091240Y-107022814D01*
X151091240Y-107025452D01*
G37*
X151091240Y-107025452D02*
X151112453Y-107132097D01*
X151154064Y-107232555D01*
X151214474Y-107322965D01*
X151291360Y-107399851D01*
X151381770Y-107460261D01*
X151482228Y-107501872D01*
X151534150Y-107512200D01*
X150379260Y-107512200D01*
X150418766Y-107472694D01*
X150479176Y-107382284D01*
X150520787Y-107281826D01*
X150542000Y-107175181D01*
X150542000Y-107066447D01*
X150533321Y-107022814D01*
X151091240Y-107022814D01*
X151091240Y-107025452D01*
G36*
X153221788Y-105406507D02*
G01*
X153207363Y-105418345D01*
X153180776Y-105450743D01*
X153160152Y-105475873D01*
X153146722Y-105500999D01*
X153125070Y-105541507D01*
X153103467Y-105612722D01*
X153098472Y-105663438D01*
X153096173Y-105686783D01*
X153098001Y-105705342D01*
X153098002Y-106481894D01*
X152783761Y-106796135D01*
X152783761Y-105659832D01*
X153036592Y-105407002D01*
X153108669Y-105407002D01*
X153215314Y-105385789D01*
X153261733Y-105366561D01*
X153221788Y-105406507D01*
G37*
X153221788Y-105406507D02*
X153207363Y-105418345D01*
X153180776Y-105450743D01*
X153160152Y-105475873D01*
X153146722Y-105500999D01*
X153125070Y-105541507D01*
X153103467Y-105612722D01*
X153098472Y-105663438D01*
X153096173Y-105686783D01*
X153098001Y-105705342D01*
X153098002Y-106481894D01*
X152783761Y-106796135D01*
X152783761Y-105659832D01*
X153036592Y-105407002D01*
X153108669Y-105407002D01*
X153215314Y-105385789D01*
X153261733Y-105366561D01*
X153221788Y-105406507D01*
G36*
X149426948Y-106743014D02*
G01*
X148777481Y-106743014D01*
X148793088Y-106713815D01*
X148806532Y-106688664D01*
X148828135Y-106617449D01*
X148833601Y-106561948D01*
X148833601Y-106561946D01*
X148835429Y-106543388D01*
X148833601Y-106524829D01*
X148833601Y-106149666D01*
X149426948Y-106743014D01*
G37*
X149426948Y-106743014D02*
X148777481Y-106743014D01*
X148793088Y-106713815D01*
X148806532Y-106688664D01*
X148828135Y-106617449D01*
X148833601Y-106561948D01*
X148833601Y-106561946D01*
X148835429Y-106543388D01*
X148833601Y-106524829D01*
X148833601Y-106149666D01*
X149426948Y-106743014D01*
G36*
X152507657Y-103497657D02*
G01*
X152466794Y-103547450D01*
X152436430Y-103604257D01*
X152417732Y-103665897D01*
X152414156Y-103702200D01*
X152099374Y-103702200D01*
X152080816Y-103700372D01*
X152062257Y-103702200D01*
X152062255Y-103702200D01*
X152006754Y-103707666D01*
X151935539Y-103729269D01*
X151922752Y-103736104D01*
X151869905Y-103764351D01*
X151842560Y-103786793D01*
X151812378Y-103811562D01*
X151800547Y-103825979D01*
X151256783Y-104369744D01*
X151242364Y-104381577D01*
X151224297Y-104403592D01*
X151195152Y-104439105D01*
X151165601Y-104494392D01*
X151160071Y-104504738D01*
X151140779Y-104568337D01*
X151138468Y-104575954D01*
X151131173Y-104650015D01*
X151133002Y-104668583D01*
X151133001Y-106267214D01*
X150019728Y-106267214D01*
X149530459Y-105777946D01*
X149538160Y-105772800D01*
X149836442Y-105772800D01*
X149855000Y-105774628D01*
X149873558Y-105772800D01*
X149873561Y-105772800D01*
X149929062Y-105767334D01*
X150000277Y-105745731D01*
X150065910Y-105710649D01*
X150123438Y-105663438D01*
X150135276Y-105649013D01*
X150813218Y-104971072D01*
X150827637Y-104959239D01*
X150874848Y-104901711D01*
X150909930Y-104836078D01*
X150931533Y-104764863D01*
X150936999Y-104709362D01*
X150936999Y-104709360D01*
X150938827Y-104690801D01*
X150936999Y-104672243D01*
X150936999Y-103456999D01*
X152557200Y-103456999D01*
X152507657Y-103497657D01*
G37*
X152507657Y-103497657D02*
X152466794Y-103547450D01*
X152436430Y-103604257D01*
X152417732Y-103665897D01*
X152414156Y-103702200D01*
X152099374Y-103702200D01*
X152080816Y-103700372D01*
X152062257Y-103702200D01*
X152062255Y-103702200D01*
X152006754Y-103707666D01*
X151935539Y-103729269D01*
X151922752Y-103736104D01*
X151869905Y-103764351D01*
X151842560Y-103786793D01*
X151812378Y-103811562D01*
X151800547Y-103825979D01*
X151256783Y-104369744D01*
X151242364Y-104381577D01*
X151224297Y-104403592D01*
X151195152Y-104439105D01*
X151165601Y-104494392D01*
X151160071Y-104504738D01*
X151140779Y-104568337D01*
X151138468Y-104575954D01*
X151131173Y-104650015D01*
X151133002Y-104668583D01*
X151133001Y-106267214D01*
X150019728Y-106267214D01*
X149530459Y-105777946D01*
X149538160Y-105772800D01*
X149836442Y-105772800D01*
X149855000Y-105774628D01*
X149873558Y-105772800D01*
X149873561Y-105772800D01*
X149929062Y-105767334D01*
X150000277Y-105745731D01*
X150065910Y-105710649D01*
X150123438Y-105663438D01*
X150135276Y-105649013D01*
X150813218Y-104971072D01*
X150827637Y-104959239D01*
X150874848Y-104901711D01*
X150909930Y-104836078D01*
X150931533Y-104764863D01*
X150936999Y-104709362D01*
X150936999Y-104709360D01*
X150938827Y-104690801D01*
X150936999Y-104672243D01*
X150936999Y-103456999D01*
X152557200Y-103456999D01*
X152507657Y-103497657D01*
G36*
X147438909Y-104813133D02*
G01*
X147501867Y-104876091D01*
X147575898Y-104925557D01*
X147658156Y-104959630D01*
X147660016Y-104960000D01*
X147658156Y-104960370D01*
X147656379Y-104961106D01*
X147615422Y-104973530D01*
X147577669Y-104993709D01*
X147575898Y-104994443D01*
X147574304Y-104995508D01*
X147536552Y-105015687D01*
X147503464Y-105042842D01*
X147501867Y-105043909D01*
X147500509Y-105045267D01*
X147467422Y-105072421D01*
X147440268Y-105105508D01*
X147438909Y-105106867D01*
X147437841Y-105108465D01*
X147410688Y-105141551D01*
X147390510Y-105179300D01*
X147389443Y-105180898D01*
X147388708Y-105182673D01*
X147368531Y-105220421D01*
X147356109Y-105261373D01*
X147355370Y-105263156D01*
X147354993Y-105265049D01*
X147342571Y-105306001D01*
X147338376Y-105348591D01*
X147338000Y-105350482D01*
X147338000Y-105352410D01*
X147336001Y-105372705D01*
X147336000Y-105840705D01*
X147325051Y-105827363D01*
X147267523Y-105780152D01*
X147201890Y-105745070D01*
X147130675Y-105723467D01*
X147075174Y-105718001D01*
X147075171Y-105718001D01*
X147056613Y-105716173D01*
X147038055Y-105718001D01*
X146808104Y-105718001D01*
X146781999Y-105691896D01*
X146781999Y-105377219D01*
X147401729Y-104757489D01*
X147438909Y-104813133D01*
G37*
X147438909Y-104813133D02*
X147501867Y-104876091D01*
X147575898Y-104925557D01*
X147658156Y-104959630D01*
X147660016Y-104960000D01*
X147658156Y-104960370D01*
X147656379Y-104961106D01*
X147615422Y-104973530D01*
X147577669Y-104993709D01*
X147575898Y-104994443D01*
X147574304Y-104995508D01*
X147536552Y-105015687D01*
X147503464Y-105042842D01*
X147501867Y-105043909D01*
X147500509Y-105045267D01*
X147467422Y-105072421D01*
X147440268Y-105105508D01*
X147438909Y-105106867D01*
X147437841Y-105108465D01*
X147410688Y-105141551D01*
X147390510Y-105179300D01*
X147389443Y-105180898D01*
X147388708Y-105182673D01*
X147368531Y-105220421D01*
X147356109Y-105261373D01*
X147355370Y-105263156D01*
X147354993Y-105265049D01*
X147342571Y-105306001D01*
X147338376Y-105348591D01*
X147338000Y-105350482D01*
X147338000Y-105352410D01*
X147336001Y-105372705D01*
X147336000Y-105840705D01*
X147325051Y-105827363D01*
X147267523Y-105780152D01*
X147201890Y-105745070D01*
X147130675Y-105723467D01*
X147075174Y-105718001D01*
X147075171Y-105718001D01*
X147056613Y-105716173D01*
X147038055Y-105718001D01*
X146808104Y-105718001D01*
X146781999Y-105691896D01*
X146781999Y-105377219D01*
X147401729Y-104757489D01*
X147438909Y-104813133D01*
G36*
X149075898Y-104925557D02*
G01*
X149158156Y-104959630D01*
X149160016Y-104960000D01*
X149158156Y-104960370D01*
X149075898Y-104994443D01*
X149040000Y-105018429D01*
X149004102Y-104994443D01*
X148921844Y-104960370D01*
X148919984Y-104960000D01*
X148921844Y-104959630D01*
X149004102Y-104925557D01*
X149040000Y-104901571D01*
X149075898Y-104925557D01*
G37*
X149075898Y-104925557D02*
X149158156Y-104959630D01*
X149160016Y-104960000D01*
X149158156Y-104960370D01*
X149075898Y-104994443D01*
X149040000Y-105018429D01*
X149004102Y-104994443D01*
X148921844Y-104960370D01*
X148919984Y-104960000D01*
X148921844Y-104959630D01*
X149004102Y-104925557D01*
X149040000Y-104901571D01*
X149075898Y-104925557D01*
G36*
X149698511Y-105017200D02*
G01*
X149538160Y-105017200D01*
X149504102Y-104994443D01*
X149421844Y-104960370D01*
X149419984Y-104960000D01*
X149421844Y-104959630D01*
X149504102Y-104925557D01*
X149538160Y-104902800D01*
X149694141Y-104902800D01*
X149712699Y-104904628D01*
X149731257Y-104902800D01*
X149731260Y-104902800D01*
X149786761Y-104897334D01*
X149832143Y-104883567D01*
X149698511Y-105017200D01*
G37*
X149698511Y-105017200D02*
X149538160Y-105017200D01*
X149504102Y-104994443D01*
X149421844Y-104960370D01*
X149419984Y-104960000D01*
X149421844Y-104959630D01*
X149504102Y-104925557D01*
X149538160Y-104902800D01*
X149694141Y-104902800D01*
X149712699Y-104904628D01*
X149731257Y-104902800D01*
X149731260Y-104902800D01*
X149786761Y-104897334D01*
X149832143Y-104883567D01*
X149698511Y-105017200D01*
G36*
X148075898Y-104925557D02*
G01*
X148158156Y-104959630D01*
X148160016Y-104960000D01*
X148158156Y-104960370D01*
X148075898Y-104994443D01*
X148043743Y-105015928D01*
X148043449Y-105015687D01*
X148005692Y-104995505D01*
X148004102Y-104994443D01*
X148002335Y-104993711D01*
X147964579Y-104973530D01*
X147923618Y-104961105D01*
X147921844Y-104960370D01*
X147919984Y-104960000D01*
X147921844Y-104959630D01*
X148004102Y-104925557D01*
X148040000Y-104901571D01*
X148075898Y-104925557D01*
G37*
X148075898Y-104925557D02*
X148158156Y-104959630D01*
X148160016Y-104960000D01*
X148158156Y-104960370D01*
X148075898Y-104994443D01*
X148043743Y-105015928D01*
X148043449Y-105015687D01*
X148005692Y-104995505D01*
X148004102Y-104994443D01*
X148002335Y-104993711D01*
X147964579Y-104973530D01*
X147923618Y-104961105D01*
X147921844Y-104960370D01*
X147919984Y-104960000D01*
X147921844Y-104959630D01*
X148004102Y-104925557D01*
X148040000Y-104901571D01*
X148075898Y-104925557D01*
G36*
X155349213Y-98161012D02*
G01*
X155390824Y-98261470D01*
X155451234Y-98351880D01*
X155528120Y-98428766D01*
X155618530Y-98489176D01*
X155718988Y-98530787D01*
X155825633Y-98552000D01*
X155879750Y-98552000D01*
X157031451Y-99703702D01*
X157031450Y-102742772D01*
X157029561Y-102761950D01*
X157037101Y-102838501D01*
X157044426Y-102862647D01*
X157059430Y-102912110D01*
X157095690Y-102979949D01*
X157144489Y-103039411D01*
X157159391Y-103051641D01*
X157307954Y-103200203D01*
X157320187Y-103215109D01*
X157379648Y-103263908D01*
X157447487Y-103300168D01*
X157503964Y-103317300D01*
X157521096Y-103322497D01*
X157529011Y-103323277D01*
X157578470Y-103328148D01*
X157578476Y-103328148D01*
X157597647Y-103330036D01*
X157616818Y-103328148D01*
X158040200Y-103328148D01*
X158113470Y-103401418D01*
X157620000Y-103401418D01*
X157555897Y-103407732D01*
X157494257Y-103426430D01*
X157437450Y-103456794D01*
X157387657Y-103497657D01*
X157346794Y-103547450D01*
X157316430Y-103604257D01*
X157297732Y-103665897D01*
X157294156Y-103702200D01*
X156900000Y-103702200D01*
X156881442Y-103700372D01*
X156862883Y-103702200D01*
X156862881Y-103702200D01*
X156807380Y-103707666D01*
X156736165Y-103729269D01*
X156723378Y-103736104D01*
X156670531Y-103764351D01*
X156643186Y-103786793D01*
X156613004Y-103811562D01*
X156601173Y-103825979D01*
X156408582Y-104018570D01*
X156408582Y-103730000D01*
X156402268Y-103665897D01*
X156383570Y-103604257D01*
X156353206Y-103547450D01*
X156312343Y-103497657D01*
X156262550Y-103456794D01*
X156205743Y-103426430D01*
X156144103Y-103407732D01*
X156080000Y-103401418D01*
X155485708Y-103401418D01*
X154909475Y-102825186D01*
X154897637Y-102810761D01*
X154840109Y-102763550D01*
X154774476Y-102728468D01*
X154703261Y-102706865D01*
X154647760Y-102701399D01*
X154647757Y-102701399D01*
X154629199Y-102699571D01*
X154610641Y-102701399D01*
X150627917Y-102701399D01*
X150609359Y-102699571D01*
X150590801Y-102701399D01*
X150590798Y-102701399D01*
X150535297Y-102706865D01*
X150464082Y-102728468D01*
X150398449Y-102763550D01*
X150340921Y-102810761D01*
X150329083Y-102825186D01*
X150305182Y-102849087D01*
X150290762Y-102860921D01*
X150278930Y-102875339D01*
X150243550Y-102918449D01*
X150214295Y-102973183D01*
X150208469Y-102984082D01*
X150187434Y-103053427D01*
X150186866Y-103055298D01*
X150179571Y-103129359D01*
X150180116Y-103134896D01*
X150084719Y-103095381D01*
X149978074Y-103074168D01*
X149965461Y-103074168D01*
X149978694Y-103042220D01*
X149999907Y-102935575D01*
X149999907Y-102826841D01*
X149978694Y-102720196D01*
X149937083Y-102619738D01*
X149876673Y-102529328D01*
X149799787Y-102452442D01*
X149744031Y-102415187D01*
X150650618Y-101508601D01*
X151440641Y-101508601D01*
X151459199Y-101510429D01*
X151477757Y-101508601D01*
X151477760Y-101508601D01*
X151533261Y-101503135D01*
X151604476Y-101481532D01*
X151670109Y-101446450D01*
X151727637Y-101399239D01*
X151739475Y-101384814D01*
X151836489Y-101287800D01*
X151913674Y-101287800D01*
X151936912Y-101294849D01*
X151994285Y-101300500D01*
X152315407Y-101300500D01*
X152317732Y-101324103D01*
X152336430Y-101385743D01*
X152366794Y-101442550D01*
X152407657Y-101492343D01*
X152457450Y-101533206D01*
X152514257Y-101563570D01*
X152575897Y-101582268D01*
X152640000Y-101588582D01*
X153540000Y-101588582D01*
X153604103Y-101582268D01*
X153665743Y-101563570D01*
X153722550Y-101533206D01*
X153772343Y-101492343D01*
X153813206Y-101442550D01*
X153843570Y-101385743D01*
X153862268Y-101324103D01*
X153868582Y-101260000D01*
X153868582Y-100693651D01*
X153961145Y-100655310D01*
X154051555Y-100594900D01*
X154086455Y-100560000D01*
X154851418Y-100560000D01*
X154851418Y-101260000D01*
X154857732Y-101324103D01*
X154876430Y-101385743D01*
X154906794Y-101442550D01*
X154947657Y-101492343D01*
X154997450Y-101533206D01*
X155054257Y-101563570D01*
X155115897Y-101582268D01*
X155180000Y-101588582D01*
X156080000Y-101588582D01*
X156144103Y-101582268D01*
X156205743Y-101563570D01*
X156262550Y-101533206D01*
X156312343Y-101492343D01*
X156353206Y-101442550D01*
X156383570Y-101385743D01*
X156402268Y-101324103D01*
X156408582Y-101260000D01*
X156408582Y-100560000D01*
X156402268Y-100495897D01*
X156383570Y-100434257D01*
X156353206Y-100377450D01*
X156312343Y-100327657D01*
X156262550Y-100286794D01*
X156205743Y-100256430D01*
X156144103Y-100237732D01*
X156080000Y-100231418D01*
X155180000Y-100231418D01*
X155115897Y-100237732D01*
X155054257Y-100256430D01*
X154997450Y-100286794D01*
X154947657Y-100327657D01*
X154906794Y-100377450D01*
X154876430Y-100434257D01*
X154857732Y-100495897D01*
X154851418Y-100560000D01*
X154086455Y-100560000D01*
X154128441Y-100518014D01*
X154188851Y-100427604D01*
X154230462Y-100327146D01*
X154251675Y-100220501D01*
X154251675Y-100111767D01*
X154230462Y-100005122D01*
X154188851Y-99904664D01*
X154128441Y-99814254D01*
X154090175Y-99775988D01*
X154090175Y-98595209D01*
X154126676Y-98558708D01*
X154187086Y-98468298D01*
X154228697Y-98367840D01*
X154249910Y-98261195D01*
X154249910Y-98152461D01*
X154241231Y-98108827D01*
X155338833Y-98108827D01*
X155349213Y-98161012D01*
G37*
X155349213Y-98161012D02*
X155390824Y-98261470D01*
X155451234Y-98351880D01*
X155528120Y-98428766D01*
X155618530Y-98489176D01*
X155718988Y-98530787D01*
X155825633Y-98552000D01*
X155879750Y-98552000D01*
X157031451Y-99703702D01*
X157031450Y-102742772D01*
X157029561Y-102761950D01*
X157037101Y-102838501D01*
X157044426Y-102862647D01*
X157059430Y-102912110D01*
X157095690Y-102979949D01*
X157144489Y-103039411D01*
X157159391Y-103051641D01*
X157307954Y-103200203D01*
X157320187Y-103215109D01*
X157379648Y-103263908D01*
X157447487Y-103300168D01*
X157503964Y-103317300D01*
X157521096Y-103322497D01*
X157529011Y-103323277D01*
X157578470Y-103328148D01*
X157578476Y-103328148D01*
X157597647Y-103330036D01*
X157616818Y-103328148D01*
X158040200Y-103328148D01*
X158113470Y-103401418D01*
X157620000Y-103401418D01*
X157555897Y-103407732D01*
X157494257Y-103426430D01*
X157437450Y-103456794D01*
X157387657Y-103497657D01*
X157346794Y-103547450D01*
X157316430Y-103604257D01*
X157297732Y-103665897D01*
X157294156Y-103702200D01*
X156900000Y-103702200D01*
X156881442Y-103700372D01*
X156862883Y-103702200D01*
X156862881Y-103702200D01*
X156807380Y-103707666D01*
X156736165Y-103729269D01*
X156723378Y-103736104D01*
X156670531Y-103764351D01*
X156643186Y-103786793D01*
X156613004Y-103811562D01*
X156601173Y-103825979D01*
X156408582Y-104018570D01*
X156408582Y-103730000D01*
X156402268Y-103665897D01*
X156383570Y-103604257D01*
X156353206Y-103547450D01*
X156312343Y-103497657D01*
X156262550Y-103456794D01*
X156205743Y-103426430D01*
X156144103Y-103407732D01*
X156080000Y-103401418D01*
X155485708Y-103401418D01*
X154909475Y-102825186D01*
X154897637Y-102810761D01*
X154840109Y-102763550D01*
X154774476Y-102728468D01*
X154703261Y-102706865D01*
X154647760Y-102701399D01*
X154647757Y-102701399D01*
X154629199Y-102699571D01*
X154610641Y-102701399D01*
X150627917Y-102701399D01*
X150609359Y-102699571D01*
X150590801Y-102701399D01*
X150590798Y-102701399D01*
X150535297Y-102706865D01*
X150464082Y-102728468D01*
X150398449Y-102763550D01*
X150340921Y-102810761D01*
X150329083Y-102825186D01*
X150305182Y-102849087D01*
X150290762Y-102860921D01*
X150278930Y-102875339D01*
X150243550Y-102918449D01*
X150214295Y-102973183D01*
X150208469Y-102984082D01*
X150187434Y-103053427D01*
X150186866Y-103055298D01*
X150179571Y-103129359D01*
X150180116Y-103134896D01*
X150084719Y-103095381D01*
X149978074Y-103074168D01*
X149965461Y-103074168D01*
X149978694Y-103042220D01*
X149999907Y-102935575D01*
X149999907Y-102826841D01*
X149978694Y-102720196D01*
X149937083Y-102619738D01*
X149876673Y-102529328D01*
X149799787Y-102452442D01*
X149744031Y-102415187D01*
X150650618Y-101508601D01*
X151440641Y-101508601D01*
X151459199Y-101510429D01*
X151477757Y-101508601D01*
X151477760Y-101508601D01*
X151533261Y-101503135D01*
X151604476Y-101481532D01*
X151670109Y-101446450D01*
X151727637Y-101399239D01*
X151739475Y-101384814D01*
X151836489Y-101287800D01*
X151913674Y-101287800D01*
X151936912Y-101294849D01*
X151994285Y-101300500D01*
X152315407Y-101300500D01*
X152317732Y-101324103D01*
X152336430Y-101385743D01*
X152366794Y-101442550D01*
X152407657Y-101492343D01*
X152457450Y-101533206D01*
X152514257Y-101563570D01*
X152575897Y-101582268D01*
X152640000Y-101588582D01*
X153540000Y-101588582D01*
X153604103Y-101582268D01*
X153665743Y-101563570D01*
X153722550Y-101533206D01*
X153772343Y-101492343D01*
X153813206Y-101442550D01*
X153843570Y-101385743D01*
X153862268Y-101324103D01*
X153868582Y-101260000D01*
X153868582Y-100693651D01*
X153961145Y-100655310D01*
X154051555Y-100594900D01*
X154086455Y-100560000D01*
X154851418Y-100560000D01*
X154851418Y-101260000D01*
X154857732Y-101324103D01*
X154876430Y-101385743D01*
X154906794Y-101442550D01*
X154947657Y-101492343D01*
X154997450Y-101533206D01*
X155054257Y-101563570D01*
X155115897Y-101582268D01*
X155180000Y-101588582D01*
X156080000Y-101588582D01*
X156144103Y-101582268D01*
X156205743Y-101563570D01*
X156262550Y-101533206D01*
X156312343Y-101492343D01*
X156353206Y-101442550D01*
X156383570Y-101385743D01*
X156402268Y-101324103D01*
X156408582Y-101260000D01*
X156408582Y-100560000D01*
X156402268Y-100495897D01*
X156383570Y-100434257D01*
X156353206Y-100377450D01*
X156312343Y-100327657D01*
X156262550Y-100286794D01*
X156205743Y-100256430D01*
X156144103Y-100237732D01*
X156080000Y-100231418D01*
X155180000Y-100231418D01*
X155115897Y-100237732D01*
X155054257Y-100256430D01*
X154997450Y-100286794D01*
X154947657Y-100327657D01*
X154906794Y-100377450D01*
X154876430Y-100434257D01*
X154857732Y-100495897D01*
X154851418Y-100560000D01*
X154086455Y-100560000D01*
X154128441Y-100518014D01*
X154188851Y-100427604D01*
X154230462Y-100327146D01*
X154251675Y-100220501D01*
X154251675Y-100111767D01*
X154230462Y-100005122D01*
X154188851Y-99904664D01*
X154128441Y-99814254D01*
X154090175Y-99775988D01*
X154090175Y-98595209D01*
X154126676Y-98558708D01*
X154187086Y-98468298D01*
X154228697Y-98367840D01*
X154249910Y-98261195D01*
X154249910Y-98152461D01*
X154241231Y-98108827D01*
X155338833Y-98108827D01*
X155349213Y-98161012D01*
G36*
X153145910Y-98152461D02*
G01*
X153145910Y-98261195D01*
X153167123Y-98367840D01*
X153208734Y-98468298D01*
X153269144Y-98558708D01*
X153309176Y-98598740D01*
X153309175Y-99775988D01*
X153270909Y-99814254D01*
X153210499Y-99904664D01*
X153168888Y-100005122D01*
X153147675Y-100111767D01*
X153147675Y-100220501D01*
X153149847Y-100231418D01*
X152640000Y-100231418D01*
X152575897Y-100237732D01*
X152514257Y-100256430D01*
X152457450Y-100286794D01*
X152407657Y-100327657D01*
X152366794Y-100377450D01*
X152336430Y-100434257D01*
X152317732Y-100495897D01*
X152315407Y-100519500D01*
X151994285Y-100519500D01*
X151936912Y-100525151D01*
X151913674Y-100532200D01*
X151698558Y-100532200D01*
X151680000Y-100530372D01*
X151661441Y-100532200D01*
X151661439Y-100532200D01*
X151605938Y-100537666D01*
X151534723Y-100559269D01*
X151469090Y-100594351D01*
X151411562Y-100641562D01*
X151399724Y-100655987D01*
X151302710Y-100753001D01*
X150512686Y-100753001D01*
X150494127Y-100751173D01*
X150475569Y-100753001D01*
X150475567Y-100753001D01*
X150420066Y-100758467D01*
X150348851Y-100780070D01*
X150318299Y-100796401D01*
X150283217Y-100815152D01*
X150257890Y-100835938D01*
X150225690Y-100862363D01*
X150213858Y-100876781D01*
X150072964Y-101017675D01*
X150069176Y-101008530D01*
X150008766Y-100918120D01*
X149931880Y-100841234D01*
X149841470Y-100780824D01*
X149741012Y-100739213D01*
X149634367Y-100718000D01*
X149525633Y-100718000D01*
X149418988Y-100739213D01*
X149318530Y-100780824D01*
X149228120Y-100841234D01*
X149206011Y-100863343D01*
X149206011Y-99916239D01*
X150015252Y-99106999D01*
X151912341Y-99106999D01*
X151931519Y-99108888D01*
X151950697Y-99106999D01*
X152008070Y-99101348D01*
X152081680Y-99079019D01*
X152149519Y-99042759D01*
X152208980Y-98993960D01*
X152221209Y-98979059D01*
X153091441Y-98108827D01*
X153154589Y-98108827D01*
X153145910Y-98152461D01*
G37*
X153145910Y-98152461D02*
X153145910Y-98261195D01*
X153167123Y-98367840D01*
X153208734Y-98468298D01*
X153269144Y-98558708D01*
X153309176Y-98598740D01*
X153309175Y-99775988D01*
X153270909Y-99814254D01*
X153210499Y-99904664D01*
X153168888Y-100005122D01*
X153147675Y-100111767D01*
X153147675Y-100220501D01*
X153149847Y-100231418D01*
X152640000Y-100231418D01*
X152575897Y-100237732D01*
X152514257Y-100256430D01*
X152457450Y-100286794D01*
X152407657Y-100327657D01*
X152366794Y-100377450D01*
X152336430Y-100434257D01*
X152317732Y-100495897D01*
X152315407Y-100519500D01*
X151994285Y-100519500D01*
X151936912Y-100525151D01*
X151913674Y-100532200D01*
X151698558Y-100532200D01*
X151680000Y-100530372D01*
X151661441Y-100532200D01*
X151661439Y-100532200D01*
X151605938Y-100537666D01*
X151534723Y-100559269D01*
X151469090Y-100594351D01*
X151411562Y-100641562D01*
X151399724Y-100655987D01*
X151302710Y-100753001D01*
X150512686Y-100753001D01*
X150494127Y-100751173D01*
X150475569Y-100753001D01*
X150475567Y-100753001D01*
X150420066Y-100758467D01*
X150348851Y-100780070D01*
X150318299Y-100796401D01*
X150283217Y-100815152D01*
X150257890Y-100835938D01*
X150225690Y-100862363D01*
X150213858Y-100876781D01*
X150072964Y-101017675D01*
X150069176Y-101008530D01*
X150008766Y-100918120D01*
X149931880Y-100841234D01*
X149841470Y-100780824D01*
X149741012Y-100739213D01*
X149634367Y-100718000D01*
X149525633Y-100718000D01*
X149418988Y-100739213D01*
X149318530Y-100780824D01*
X149228120Y-100841234D01*
X149206011Y-100863343D01*
X149206011Y-99916239D01*
X150015252Y-99106999D01*
X151912341Y-99106999D01*
X151931519Y-99108888D01*
X151950697Y-99106999D01*
X152008070Y-99101348D01*
X152081680Y-99079019D01*
X152149519Y-99042759D01*
X152208980Y-98993960D01*
X152221209Y-98979059D01*
X153091441Y-98108827D01*
X153154589Y-98108827D01*
X153145910Y-98152461D01*
G36*
X141773365Y-96215975D02*
G01*
X141809686Y-96223200D01*
X141851295Y-96235822D01*
X141889000Y-96239535D01*
X141889000Y-96319342D01*
X140256925Y-97951418D01*
X139710000Y-97951418D01*
X139645897Y-97957732D01*
X139584257Y-97976430D01*
X139565589Y-97986408D01*
X139566577Y-96278841D01*
X139577657Y-96292343D01*
X139627450Y-96333206D01*
X139684257Y-96363570D01*
X139745897Y-96382268D01*
X139810000Y-96388582D01*
X140250000Y-96388582D01*
X140314103Y-96382268D01*
X140375743Y-96363570D01*
X140432550Y-96333206D01*
X140458759Y-96311697D01*
X140528988Y-96340787D01*
X140635633Y-96362000D01*
X140640368Y-96362000D01*
X140676623Y-96391755D01*
X140750802Y-96431404D01*
X140769536Y-96437087D01*
X140831292Y-96455821D01*
X140894021Y-96461999D01*
X140894032Y-96461999D01*
X140914999Y-96464064D01*
X140935966Y-96461999D01*
X141304034Y-96461999D01*
X141325001Y-96464064D01*
X141345968Y-96461999D01*
X141345979Y-96461999D01*
X141408708Y-96455821D01*
X141489197Y-96431404D01*
X141563377Y-96391754D01*
X141628396Y-96338394D01*
X141641769Y-96322099D01*
X141755354Y-96208514D01*
X141773365Y-96215975D01*
G37*
X141773365Y-96215975D02*
X141809686Y-96223200D01*
X141851295Y-96235822D01*
X141889000Y-96239535D01*
X141889000Y-96319342D01*
X140256925Y-97951418D01*
X139710000Y-97951418D01*
X139645897Y-97957732D01*
X139584257Y-97976430D01*
X139565589Y-97986408D01*
X139566577Y-96278841D01*
X139577657Y-96292343D01*
X139627450Y-96333206D01*
X139684257Y-96363570D01*
X139745897Y-96382268D01*
X139810000Y-96388582D01*
X140250000Y-96388582D01*
X140314103Y-96382268D01*
X140375743Y-96363570D01*
X140432550Y-96333206D01*
X140458759Y-96311697D01*
X140528988Y-96340787D01*
X140635633Y-96362000D01*
X140640368Y-96362000D01*
X140676623Y-96391755D01*
X140750802Y-96431404D01*
X140769536Y-96437087D01*
X140831292Y-96455821D01*
X140894021Y-96461999D01*
X140894032Y-96461999D01*
X140914999Y-96464064D01*
X140935966Y-96461999D01*
X141304034Y-96461999D01*
X141325001Y-96464064D01*
X141345968Y-96461999D01*
X141345979Y-96461999D01*
X141408708Y-96455821D01*
X141489197Y-96431404D01*
X141563377Y-96391754D01*
X141628396Y-96338394D01*
X141641769Y-96322099D01*
X141755354Y-96208514D01*
X141773365Y-96215975D01*
G04 #@! TD*
M02*
