G04 #@! TF.GenerationSoftware,KiCad,Pcbnew,(5.1.6)-1*
G04 #@! TF.CreationDate,2021-12-03T11:37:05+01:00*
G04 #@! TF.ProjectId,Keyvilboard2.0,4b657976-696c-4626-9f61-7264322e302e,rev?*
G04 #@! TF.SameCoordinates,Original*
G04 #@! TF.FileFunction,Other,Fab,Bot*
%FSLAX46Y46*%
G04 Gerber Fmt 4.6, Leading zero omitted, Abs format (unit mm)*
G04 Created by KiCad (PCBNEW (5.1.6)-1) date 2021-12-03 11:37:05*
%MOMM*%
%LPD*%
G01*
G04 APERTURE LIST*
%ADD10C,0.100000*%
%ADD11C,0.200000*%
%ADD12C,0.062500*%
%ADD13C,0.254000*%
G04 APERTURE END LIST*
D10*
G04 #@! TO.C,C1*
X172110000Y-102930000D02*
X172110000Y-101330000D01*
X168910000Y-102930000D02*
X172110000Y-102930000D01*
X168910000Y-101330000D02*
X168910000Y-102930000D01*
X172110000Y-101330000D02*
X168910000Y-101330000D01*
G04 #@! TO.C,KEYPWR1*
X171370000Y-99720000D02*
X172320000Y-98770000D01*
X169420000Y-99720000D02*
X172320000Y-99720000D01*
X169420000Y-98120000D02*
X169420000Y-99720000D01*
X172320000Y-98120000D02*
X169420000Y-98120000D01*
X172320000Y-99720000D02*
X172320000Y-98120000D01*
G04 #@! TO.C,0.1uF5*
X171765000Y-96570000D02*
X171765000Y-96270000D01*
X171165000Y-96570000D02*
X171765000Y-96570000D01*
X171165000Y-96270000D02*
X171165000Y-96570000D01*
X171765000Y-96270000D02*
X171165000Y-96270000D01*
D11*
G04 #@! TO.C,SD1*
X156655000Y-93535000D02*
X145255000Y-93535000D01*
X156655000Y-105485000D02*
X156655000Y-93535000D01*
X145255000Y-105485000D02*
X156655000Y-105485000D01*
X145255000Y-93535000D02*
X145255000Y-105485000D01*
G04 #@! TD*
G04 #@! TO.C,C1*
D12*
X170566666Y-102264285D02*
X170578571Y-102276190D01*
X170614285Y-102288095D01*
X170638095Y-102288095D01*
X170673809Y-102276190D01*
X170697619Y-102252380D01*
X170709523Y-102228571D01*
X170721428Y-102180952D01*
X170721428Y-102145238D01*
X170709523Y-102097619D01*
X170697619Y-102073809D01*
X170673809Y-102050000D01*
X170638095Y-102038095D01*
X170614285Y-102038095D01*
X170578571Y-102050000D01*
X170566666Y-102061904D01*
X170328571Y-102288095D02*
X170471428Y-102288095D01*
X170400000Y-102288095D02*
X170400000Y-102038095D01*
X170423809Y-102073809D01*
X170447619Y-102097619D01*
X170471428Y-102109523D01*
G04 #@! TO.C,KEYPWR1*
X171647619Y-99033095D02*
X171647619Y-98783095D01*
X171504761Y-99033095D02*
X171611904Y-98890238D01*
X171504761Y-98783095D02*
X171647619Y-98925952D01*
X171397619Y-98902142D02*
X171314285Y-98902142D01*
X171278571Y-99033095D02*
X171397619Y-99033095D01*
X171397619Y-98783095D01*
X171278571Y-98783095D01*
X171123809Y-98914047D02*
X171123809Y-99033095D01*
X171207142Y-98783095D02*
X171123809Y-98914047D01*
X171040476Y-98783095D01*
X170957142Y-99033095D02*
X170957142Y-98783095D01*
X170861904Y-98783095D01*
X170838095Y-98795000D01*
X170826190Y-98806904D01*
X170814285Y-98830714D01*
X170814285Y-98866428D01*
X170826190Y-98890238D01*
X170838095Y-98902142D01*
X170861904Y-98914047D01*
X170957142Y-98914047D01*
X170730952Y-98783095D02*
X170671428Y-99033095D01*
X170623809Y-98854523D01*
X170576190Y-99033095D01*
X170516666Y-98783095D01*
X170278571Y-99033095D02*
X170361904Y-98914047D01*
X170421428Y-99033095D02*
X170421428Y-98783095D01*
X170326190Y-98783095D01*
X170302380Y-98795000D01*
X170290476Y-98806904D01*
X170278571Y-98830714D01*
X170278571Y-98866428D01*
X170290476Y-98890238D01*
X170302380Y-98902142D01*
X170326190Y-98914047D01*
X170421428Y-98914047D01*
X170040476Y-99033095D02*
X170183333Y-99033095D01*
X170111904Y-99033095D02*
X170111904Y-98783095D01*
X170135714Y-98818809D01*
X170159523Y-98842619D01*
X170183333Y-98854523D01*
G04 #@! TO.C,0.1uF5*
X172004761Y-95738095D02*
X171980952Y-95738095D01*
X171957142Y-95750000D01*
X171945238Y-95761904D01*
X171933333Y-95785714D01*
X171921428Y-95833333D01*
X171921428Y-95892857D01*
X171933333Y-95940476D01*
X171945238Y-95964285D01*
X171957142Y-95976190D01*
X171980952Y-95988095D01*
X172004761Y-95988095D01*
X172028571Y-95976190D01*
X172040476Y-95964285D01*
X172052380Y-95940476D01*
X172064285Y-95892857D01*
X172064285Y-95833333D01*
X172052380Y-95785714D01*
X172040476Y-95761904D01*
X172028571Y-95750000D01*
X172004761Y-95738095D01*
X171814285Y-95964285D02*
X171802380Y-95976190D01*
X171814285Y-95988095D01*
X171826190Y-95976190D01*
X171814285Y-95964285D01*
X171814285Y-95988095D01*
X171564285Y-95988095D02*
X171707142Y-95988095D01*
X171635714Y-95988095D02*
X171635714Y-95738095D01*
X171659523Y-95773809D01*
X171683333Y-95797619D01*
X171707142Y-95809523D01*
X171350000Y-95821428D02*
X171350000Y-95988095D01*
X171457142Y-95821428D02*
X171457142Y-95952380D01*
X171445238Y-95976190D01*
X171421428Y-95988095D01*
X171385714Y-95988095D01*
X171361904Y-95976190D01*
X171350000Y-95964285D01*
X171147619Y-95857142D02*
X171230952Y-95857142D01*
X171230952Y-95988095D02*
X171230952Y-95738095D01*
X171111904Y-95738095D01*
X170897619Y-95738095D02*
X171016666Y-95738095D01*
X171028571Y-95857142D01*
X171016666Y-95845238D01*
X170992857Y-95833333D01*
X170933333Y-95833333D01*
X170909523Y-95845238D01*
X170897619Y-95857142D01*
X170885714Y-95880952D01*
X170885714Y-95940476D01*
X170897619Y-95964285D01*
X170909523Y-95976190D01*
X170933333Y-95988095D01*
X170992857Y-95988095D01*
X171016666Y-95976190D01*
X171028571Y-95964285D01*
G04 #@! TO.C,SD1*
D13*
X151030047Y-97228380D02*
X151090523Y-97409809D01*
X151090523Y-97712190D01*
X151030047Y-97833142D01*
X150969571Y-97893619D01*
X150848619Y-97954095D01*
X150727666Y-97954095D01*
X150606714Y-97893619D01*
X150546238Y-97833142D01*
X150485761Y-97712190D01*
X150425285Y-97470285D01*
X150364809Y-97349333D01*
X150304333Y-97288857D01*
X150183380Y-97228380D01*
X150062428Y-97228380D01*
X149941476Y-97288857D01*
X149881000Y-97349333D01*
X149820523Y-97470285D01*
X149820523Y-97772666D01*
X149881000Y-97954095D01*
X151090523Y-98498380D02*
X149820523Y-98498380D01*
X149820523Y-98800761D01*
X149881000Y-98982190D01*
X150001952Y-99103142D01*
X150122904Y-99163619D01*
X150364809Y-99224095D01*
X150546238Y-99224095D01*
X150788142Y-99163619D01*
X150909095Y-99103142D01*
X151030047Y-98982190D01*
X151090523Y-98800761D01*
X151090523Y-98498380D01*
X151090523Y-100433619D02*
X151090523Y-99707904D01*
X151090523Y-100070761D02*
X149820523Y-100070761D01*
X150001952Y-99949809D01*
X150122904Y-99828857D01*
X150183380Y-99707904D01*
G04 #@! TD*
M02*
