M48
; DRILL file {KiCad (5.1.6)-1} date 12/03/21 11:37:26
; FORMAT={-:-/ absolute / inch / decimal}
; #@! TF.CreationDate,2021-12-03T11:37:26+01:00
; #@! TF.GenerationSoftware,Kicad,Pcbnew,(5.1.6)-1
FMAT,2
INCH
T1C0.0079
T2C0.0320
T3C0.0394
T4C0.0420
T5C0.0453
T6C0.0472
T7C0.0929
T8C0.1063
%
G90
G05
T1
X4.7173Y-3.3264
X5.3752Y-3.9752
X5.3752Y-4.0409
X5.3752Y-4.1067
X5.3764Y-3.7756
X5.3764Y-3.915
X5.3783Y-3.8469
X5.3787Y-3.6358
X5.3831Y-4.2843
X5.4445Y-3.9728
X5.4465Y-3.915
X5.498Y-4.2898
X5.515Y-3.635
X5.5547Y-3.75
X5.5709Y-3.8551
X5.587Y-3.6331
X5.5941Y-4.1205
X5.5996Y-4.0697
X5.6134Y-3.8213
X5.6217Y-4.2878
X5.628Y-3.8886
X5.628Y-3.9449
X5.6283Y-4.1193
X5.6287Y-4.0965
X5.6291Y-4.0717
X5.6319Y-3.7673
X5.6406Y-4.1563
X5.6504Y-4.1193
X5.6512Y-4.0713
X5.652Y-4.0972
X5.6539Y-3.6331
X5.6539Y-4.1831
X5.6626Y-3.8646
X5.663Y-4.215
X5.6638Y-3.9205
X5.6693Y-3.7094
X5.6736Y-3.9575
X5.6787Y-3.6669
X5.6911Y-3.7634
X5.7008Y-4.1217
X5.7008Y-4.1398
X5.7012Y-4.1583
X5.7209Y-4.1917
X5.7307Y-3.6909
X5.7378Y-3.6315
X5.7685Y-3.8744
X5.7689Y-3.9524
X5.7728Y-3.6587
X5.7768Y-3.8146
X5.7776Y-4.1047
X5.778Y-4.1992
X5.7803Y-4.2638
X5.7827Y-3.6945
X5.7898Y-4.063
X5.7909Y-3.6268
X5.8173Y-4.1713
X5.8197Y-4.2469
X5.8232Y-4.2134
X5.8252Y-3.6453
X5.8377Y-4.1284
X5.8476Y-3.8146
X5.8492Y-3.8823
X5.8492Y-3.9528
X5.8528Y-3.6283
X5.859Y-4.1035
X5.8598Y-3.676
X5.861Y-3.7102
X5.8771Y-4.0742
X5.8949Y-4.2551
X5.8953Y-4.0878
X5.8961Y-3.7098
X5.8996Y-3.6764
X5.901Y-4.0361
X5.922Y-3.9524
X5.9224Y-3.8839
X5.9231Y-4.0446
X5.9232Y-3.8205
X5.9268Y-4.2606
X5.9287Y-3.7142
X5.9299Y-3.6906
X5.9432Y-4.0748
X5.9453Y-4.0496
X5.9462Y-4.2301
X5.9591Y-4.1921
X5.9602Y-3.7016
X5.9606Y-3.7559
X5.9622Y-4.1382
X5.9628Y-4.2145
X5.9628Y-4.2473
X5.9677Y-3.6685
X5.9701Y-4.0185
X5.9701Y-4.087
X5.9854Y-3.9992
X5.9941Y-3.7559
X5.9953Y-3.7016
X5.9955Y-4.2473
X5.9962Y-3.9397
X6.0146Y-3.8382
X6.0307Y-4.015
X6.0323Y-3.6669
X6.0327Y-3.9811
X6.0327Y-4.1969
X6.0346Y-4.2531
X6.0358Y-4.0496
X6.0398Y-3.8114
X6.0472Y-3.7689
X6.0551Y-3.7209
X6.0661Y-4.1276
X6.0673Y-3.9028
X6.0677Y-4.2309
X6.0728Y-3.8039
X6.0815Y-3.6673
X6.0887Y-4.2572
X6.0906Y-3.7772
X6.0945Y-3.8031
X6.1008Y-3.8303
X6.1031Y-3.9807
X6.1185Y-4.0539
X6.1197Y-4.1982
X6.1217Y-3.8122
X6.1222Y-3.8504
X6.1602Y-3.9098
X6.1661Y-3.8335
X6.1673Y-4.0756
X6.2Y-3.6752
X6.2Y-3.6449
X6.2051Y-3.7586
X6.2278Y-3.7596
X6.2287Y-4.2083
X6.2417Y-3.6295
X6.2442Y-3.6657
X6.2492Y-4.2598
X6.2531Y-3.8457
X6.2533Y-4.2079
X6.2811Y-4.2606
X6.2815Y-4.222
X6.3008Y-3.6728
X6.3068Y-3.7731
X6.3068Y-3.8811
X6.3091Y-3.835
X6.3197Y-3.7043
X6.3205Y-3.6327
X6.3307Y-3.7492
X6.3335Y-3.8622
X6.3512Y-4.2311
X6.3524Y-4.2598
X6.3673Y-3.8866
X6.374Y-3.6276
X6.3756Y-3.7059
X6.3807Y-3.7669
X6.4122Y-3.8327
X6.4224Y-4.2055
X6.435Y-3.7012
X6.4378Y-3.9969
X6.4382Y-3.6283
X6.4402Y-3.9362
X6.4425Y-4.1051
X6.4736Y-3.8854
X6.4748Y-3.9866
X6.4791Y-4.2563
X6.4811Y-3.7984
X6.5016Y-4.0551
X6.5323Y-4.0894
X6.5335Y-4.2827
X6.5465Y-3.7413
X6.5469Y-3.6732
X6.548Y-3.6268
X6.5665Y-4.0902
X6.5669Y-4.1516
X6.5701Y-3.7953
X6.5791Y-4.2354
X6.5878Y-3.8744
X6.5921Y-3.7382
X6.5976Y-3.6331
X6.6035Y-4.0894
X6.6134Y-4.2854
X6.6441Y-3.802
X6.6571Y-4.0409
X6.6933Y-3.8941
X6.7287Y-3.9496
X6.7307Y-3.8941
X6.7374Y-3.7961
X6.7634Y-3.8587
X6.7642Y-3.837
X6.7677Y-3.8945
X6.7894Y-4.2874
X6.7917Y-4.215
X6.7937Y-3.7504
X6.7941Y-3.6272
X6.7941Y-4.1157
T2
X5.6491Y-4.3043
X5.7291Y-4.3043
X5.7791Y-4.3043
X5.8291Y-4.3043
X5.8791Y-4.3043
X5.9291Y-4.3043
X5.9791Y-4.3043
X6.0291Y-4.3043
X6.0791Y-4.3043
X6.1291Y-4.3043
X6.1791Y-4.3043
X6.2291Y-4.3043
X6.2791Y-4.3043
X6.3291Y-4.3043
X6.3791Y-4.3043
X6.4881Y-4.3043
T3
X5.5335Y-3.8122
X5.5335Y-3.9106
X5.5335Y-3.9894
X5.5335Y-4.0878
T4
X5.6791Y-4.2653
X6.4291Y-4.2653
T5
X5.5976Y-3.689
X6.4984Y-4.1913
X6.4961Y-3.7228
X5.5917Y-4.2268
T6
X5.4508Y-3.8594
X5.4508Y-4.0406
T7
X6.7075Y-3.6937
X6.7075Y-4.2102
T8
X5.4508Y-3.7197
X5.4508Y-4.1803
T0
M30
