G04 #@! TF.GenerationSoftware,KiCad,Pcbnew,(5.1.6)-1*
G04 #@! TF.CreationDate,2021-12-03T12:33:41+01:00*
G04 #@! TF.ProjectId,USBEMBEDED,55534245-4d42-4454-9445-442e6b696361,rev?*
G04 #@! TF.SameCoordinates,Original*
G04 #@! TF.FileFunction,OtherDrawing,Comment*
%FSLAX46Y46*%
G04 Gerber Fmt 4.6, Leading zero omitted, Abs format (unit mm)*
G04 Created by KiCad (PCBNEW (5.1.6)-1) date 2021-12-03 12:33:41*
%MOMM*%
%LPD*%
G01*
G04 APERTURE LIST*
%ADD10C,0.150000*%
%ADD11C,0.100000*%
G04 APERTURE END LIST*
D10*
X152273142Y-113342233D02*
X152271457Y-114008897D01*
X152036011Y-112960680D02*
X151796111Y-113674361D01*
X152415156Y-113675926D01*
X152702555Y-113009984D02*
X153321600Y-113011548D01*
X152987305Y-113391657D01*
X153130162Y-113392018D01*
X153225279Y-113439878D01*
X153272778Y-113487617D01*
X153320156Y-113582975D01*
X153319554Y-113821070D01*
X153271695Y-113916187D01*
X153223955Y-113963686D01*
X153128597Y-114011064D01*
X152842884Y-114010342D01*
X152747766Y-113962482D01*
X152700268Y-113914743D01*
X153795382Y-113965130D02*
X153795262Y-114012749D01*
X153747402Y-114107866D01*
X153699663Y-114155365D01*
X154702548Y-113015039D02*
X154226359Y-113013835D01*
X154177537Y-113489904D01*
X154225276Y-113442405D01*
X154320634Y-113395027D01*
X154558729Y-113395629D01*
X154653846Y-113443489D01*
X154701345Y-113491228D01*
X154748723Y-113586586D01*
X154748121Y-113824680D01*
X154700262Y-113919798D01*
X154652522Y-113967296D01*
X154557164Y-114014675D01*
X154319070Y-114014073D01*
X154223952Y-113966213D01*
X154176454Y-113918474D01*
X155130878Y-113111360D02*
X155178617Y-113063861D01*
X155273975Y-113016483D01*
X155512070Y-113017085D01*
X155607187Y-113064945D01*
X155654686Y-113112684D01*
X155702064Y-113208042D01*
X155701823Y-113303280D01*
X155653843Y-113446016D01*
X155080972Y-114015999D01*
X155700018Y-114017563D01*
X156321591Y-113019131D02*
X156416829Y-113019372D01*
X156511946Y-113067231D01*
X156559445Y-113114971D01*
X156606823Y-113210329D01*
X156653960Y-113400925D01*
X156653358Y-113639019D01*
X156605258Y-113829374D01*
X156557398Y-113924492D01*
X156509659Y-113971990D01*
X156414301Y-114019369D01*
X156319063Y-114019128D01*
X156223946Y-113971268D01*
X156176447Y-113923529D01*
X156129069Y-113828171D01*
X156081932Y-113637575D01*
X156082533Y-113399480D01*
X156130634Y-113209125D01*
X156178493Y-113114008D01*
X156226233Y-113066509D01*
X156321591Y-113019131D01*
X157842868Y-114022979D02*
X157844553Y-113356315D01*
X157844312Y-113451553D02*
X157892051Y-113404054D01*
X157987410Y-113356676D01*
X158130266Y-113357037D01*
X158225384Y-113404897D01*
X158272762Y-113500255D01*
X158271438Y-114024063D01*
X158272762Y-113500255D02*
X158320622Y-113405137D01*
X158415980Y-113357759D01*
X158558836Y-113358120D01*
X158653954Y-113405980D01*
X158701332Y-113501338D01*
X158700008Y-114025146D01*
X159176197Y-114026350D02*
X159177882Y-113359685D01*
X159177641Y-113454923D02*
X159225381Y-113407424D01*
X159320739Y-113360046D01*
X159463595Y-113360407D01*
X159558713Y-113408267D01*
X159606091Y-113503625D01*
X159604767Y-114027433D01*
X159606091Y-113503625D02*
X159653951Y-113408507D01*
X159749309Y-113361129D01*
X159892165Y-113361490D01*
X159987283Y-113409350D01*
X160034661Y-113504708D01*
X160033337Y-114028516D01*
X177702542Y-112320790D02*
X134182542Y-112210790D01*
X177710000Y-109370000D02*
X177701059Y-112907208D01*
X134190000Y-109260000D02*
X134181059Y-112797208D01*
X134182542Y-112210790D02*
X135310524Y-111627218D01*
X134182542Y-112210790D02*
X135307560Y-112800056D01*
X177702542Y-112320790D02*
X176577524Y-111731524D01*
X177702542Y-112320790D02*
X176574560Y-112904362D01*
D11*
G36*
X144760000Y-105870000D02*
G01*
X144070000Y-105870000D01*
X144100000Y-105070000D01*
X143940000Y-105070000D01*
X143940000Y-104420000D01*
X143955350Y-104429932D01*
X144740000Y-104420000D01*
X144760000Y-105870000D01*
G37*
X144760000Y-105870000D02*
X144070000Y-105870000D01*
X144100000Y-105070000D01*
X143940000Y-105070000D01*
X143940000Y-104420000D01*
X143955350Y-104429932D01*
X144740000Y-104420000D01*
X144760000Y-105870000D01*
D10*
X130902508Y-96928550D02*
X130900889Y-96357124D01*
X130901699Y-96642837D02*
X131901695Y-96640004D01*
X131758568Y-96545171D01*
X131663061Y-96450203D01*
X131615172Y-96355100D01*
X131903448Y-97259049D02*
X131905337Y-97925713D01*
X130904127Y-97499976D01*
X130954174Y-98356981D02*
X130906555Y-98357115D01*
X130811182Y-98309766D01*
X130763429Y-98262282D01*
X131908979Y-99211422D02*
X131908440Y-99020947D01*
X131860551Y-98925844D01*
X131812797Y-98878360D01*
X131669671Y-98783527D01*
X131479060Y-98736448D01*
X131098110Y-98737527D01*
X131003007Y-98785415D01*
X130955523Y-98833169D01*
X130908174Y-98928542D01*
X130908713Y-99119017D01*
X130956602Y-99214120D01*
X131004356Y-99261604D01*
X131099728Y-99308953D01*
X131337823Y-99308279D01*
X131432925Y-99260390D01*
X131480409Y-99212636D01*
X131527758Y-99117264D01*
X131527219Y-98926788D01*
X131479330Y-98831685D01*
X131431576Y-98784201D01*
X131336204Y-98736852D01*
X131911812Y-100211418D02*
X131910463Y-99735229D01*
X131434140Y-99688960D01*
X131481893Y-99736444D01*
X131529782Y-99831546D01*
X131530456Y-100069641D01*
X131483107Y-100165013D01*
X131435623Y-100212767D01*
X131340521Y-100260656D01*
X131102426Y-100261330D01*
X131007054Y-100213981D01*
X130959300Y-100166497D01*
X130911411Y-100071394D01*
X130910737Y-99833300D01*
X130958086Y-99737927D01*
X131005570Y-99690174D01*
X131913701Y-100878082D02*
X131913970Y-100973320D01*
X131866621Y-101068692D01*
X131819137Y-101116446D01*
X131724034Y-101164335D01*
X131533694Y-101212493D01*
X131295600Y-101213168D01*
X131104989Y-101166088D01*
X131009617Y-101118739D01*
X130961863Y-101071255D01*
X130913974Y-100976153D01*
X130913705Y-100880915D01*
X130961054Y-100785542D01*
X131008538Y-100737789D01*
X131103640Y-100689900D01*
X131293981Y-100641741D01*
X131532075Y-100641067D01*
X131722686Y-100688146D01*
X131818058Y-100735495D01*
X131865812Y-100782979D01*
X131913701Y-100878082D01*
X130918021Y-102404718D02*
X131584685Y-102402830D01*
X131489448Y-102403100D02*
X131537201Y-102450583D01*
X131585090Y-102545686D01*
X131585495Y-102688543D01*
X131538146Y-102783915D01*
X131443043Y-102831804D01*
X130919235Y-102833288D01*
X131443043Y-102831804D02*
X131538415Y-102879153D01*
X131586304Y-102974256D01*
X131586709Y-103117113D01*
X131539360Y-103212485D01*
X131444257Y-103260374D01*
X130920449Y-103261858D01*
X130921798Y-103738046D02*
X131588462Y-103736158D01*
X131493225Y-103736428D02*
X131540978Y-103783911D01*
X131588867Y-103879014D01*
X131589272Y-104021871D01*
X131541923Y-104117243D01*
X131446820Y-104165132D01*
X130923012Y-104166616D01*
X131446820Y-104165132D02*
X131542193Y-104212481D01*
X131590081Y-104307584D01*
X131590486Y-104450441D01*
X131543137Y-104545813D01*
X131448034Y-104593702D01*
X130924227Y-104595186D01*
X132640000Y-91670000D02*
X132690000Y-109320000D01*
X132640000Y-91670000D02*
X132053582Y-91671661D01*
X132690000Y-109320000D02*
X132103582Y-109321661D01*
X132690000Y-109320000D02*
X132100390Y-108195162D01*
X132690000Y-109320000D02*
X133273227Y-108191840D01*
X132640000Y-91670000D02*
X132056773Y-92798160D01*
X132640000Y-91670000D02*
X133229610Y-92794838D01*
M02*
