G04 #@! TF.GenerationSoftware,KiCad,Pcbnew,(5.1.6)-1*
G04 #@! TF.CreationDate,2021-12-03T12:33:41+01:00*
G04 #@! TF.ProjectId,USBEMBEDED,55534245-4d42-4454-9445-442e6b696361,rev?*
G04 #@! TF.SameCoordinates,Original*
G04 #@! TF.FileFunction,Other,User*
%FSLAX46Y46*%
G04 Gerber Fmt 4.6, Leading zero omitted, Abs format (unit mm)*
G04 Created by KiCad (PCBNEW (5.1.6)-1) date 2021-12-03 12:33:41*
%MOMM*%
%LPD*%
G01*
G04 APERTURE LIST*
%ADD10C,0.050000*%
%ADD11C,0.100000*%
G04 APERTURE END LIST*
D10*
G04 #@! TO.C,IC4*
X153852000Y-94222000D02*
X155527000Y-94222000D01*
X155527000Y-94222000D02*
X155527000Y-95897000D01*
X155527000Y-95897000D02*
X153852000Y-95897000D01*
X153852000Y-95897000D02*
X153852000Y-94222000D01*
G04 #@! TO.C,TX1*
X163683000Y-95978000D02*
X163683000Y-93142000D01*
X163683000Y-93142000D02*
X166317000Y-93142000D01*
X166317000Y-93142000D02*
X166317000Y-95978000D01*
X166317000Y-95978000D02*
X163683000Y-95978000D01*
G04 #@! TO.C,RX1*
X163743000Y-107878000D02*
X163743000Y-105042000D01*
X163743000Y-105042000D02*
X166377000Y-105042000D01*
X166377000Y-105042000D02*
X166377000Y-107878000D01*
X166377000Y-107878000D02*
X163743000Y-107878000D01*
D11*
G04 #@! TO.C,IC5*
X147670000Y-104080000D02*
X150870000Y-104080000D01*
X150870000Y-104080000D02*
X150870000Y-107180000D01*
X150870000Y-107180000D02*
X147670000Y-107180000D01*
X147670000Y-107180000D02*
X147670000Y-104080000D01*
D10*
G04 #@! TO.C,GND1*
X140863000Y-95118000D02*
X140863000Y-92282000D01*
X140863000Y-92282000D02*
X143497000Y-92282000D01*
X143497000Y-92282000D02*
X143497000Y-95118000D01*
X143497000Y-95118000D02*
X140863000Y-95118000D01*
G04 #@! TO.C,5V+1*
X140713000Y-108778000D02*
X140713000Y-105942000D01*
X140713000Y-105942000D02*
X143347000Y-105942000D01*
X143347000Y-105942000D02*
X143347000Y-108778000D01*
X143347000Y-108778000D02*
X140713000Y-108778000D01*
G04 #@! TO.C,1uF4*
X154445000Y-97180000D02*
X154445000Y-96440000D01*
X155885000Y-97180000D02*
X154445000Y-97180000D01*
X155885000Y-96440000D02*
X155885000Y-97180000D01*
X154445000Y-96440000D02*
X155885000Y-96440000D01*
G04 #@! TO.C,1uF1*
X147360000Y-102610000D02*
X148800000Y-102610000D01*
X148800000Y-102610000D02*
X148800000Y-103350000D01*
X148800000Y-103350000D02*
X147360000Y-103350000D01*
X147360000Y-103350000D02*
X147360000Y-102610000D01*
G04 #@! TO.C,0.1uF3*
X157780000Y-106510000D02*
X159220000Y-106510000D01*
X159220000Y-106510000D02*
X159220000Y-107250000D01*
X159220000Y-107250000D02*
X157780000Y-107250000D01*
X157780000Y-107250000D02*
X157780000Y-106510000D01*
G04 #@! TO.C,PS1*
X144880000Y-105320000D02*
X141680000Y-105320000D01*
X141680000Y-105320000D02*
X141680000Y-102720000D01*
X141680000Y-102720000D02*
X144880000Y-102720000D01*
X144880000Y-102720000D02*
X144880000Y-105320000D01*
G04 #@! TO.C,IC3*
X155875000Y-99245000D02*
X163125000Y-99245000D01*
X163125000Y-99245000D02*
X163125000Y-106495000D01*
X163125000Y-106495000D02*
X155875000Y-106495000D01*
X155875000Y-106495000D02*
X155875000Y-99245000D01*
G04 #@! TO.C,IC2*
X144280000Y-102670000D02*
X144280000Y-94470000D01*
X144280000Y-94470000D02*
X152480000Y-94470000D01*
X152480000Y-94470000D02*
X152480000Y-102670000D01*
X152480000Y-102670000D02*
X144280000Y-102670000D01*
G04 #@! TO.C,22Ohm2*
X142540000Y-98705000D02*
X142540000Y-100655000D01*
X142540000Y-100655000D02*
X141640000Y-100655000D01*
X141640000Y-100655000D02*
X141640000Y-98705000D01*
X141640000Y-98705000D02*
X142540000Y-98705000D01*
G04 #@! TO.C,22Ohm1*
X142540000Y-100755000D02*
X142540000Y-102705000D01*
X142540000Y-102705000D02*
X141640000Y-102705000D01*
X141640000Y-102705000D02*
X141640000Y-100755000D01*
X141640000Y-100755000D02*
X142540000Y-100755000D01*
G04 #@! TO.C,1uF5*
X154445000Y-97180000D02*
X153005000Y-97180000D01*
X153005000Y-97180000D02*
X153005000Y-96440000D01*
X153005000Y-96440000D02*
X154445000Y-96440000D01*
X154445000Y-96440000D02*
X154445000Y-97180000D01*
G04 #@! TO.C,1uF3*
X143230000Y-105920000D02*
X141790000Y-105920000D01*
X141790000Y-105920000D02*
X141790000Y-105180000D01*
X141790000Y-105180000D02*
X143230000Y-105180000D01*
X143230000Y-105180000D02*
X143230000Y-105920000D01*
G04 #@! TO.C,1uF2*
X143270000Y-105180000D02*
X144710000Y-105180000D01*
X144710000Y-105180000D02*
X144710000Y-105920000D01*
X144710000Y-105920000D02*
X143270000Y-105920000D01*
X143270000Y-105920000D02*
X143270000Y-105180000D01*
D11*
G04 #@! TO.C,16Mhz2*
X156610000Y-102240000D02*
X156610000Y-107440000D01*
X156610000Y-107440000D02*
X152160000Y-107440000D01*
X152160000Y-107440000D02*
X152160000Y-102240000D01*
X152160000Y-102240000D02*
X156610000Y-102240000D01*
G04 #@! TO.C,16Mhz1*
X156620000Y-96530000D02*
X156620000Y-101730000D01*
X156620000Y-101730000D02*
X152170000Y-101730000D01*
X152170000Y-101730000D02*
X152170000Y-96530000D01*
X152170000Y-96530000D02*
X156620000Y-96530000D01*
D10*
G04 #@! TO.C,10uF2*
X159800000Y-97860000D02*
X159800000Y-96040000D01*
X159800000Y-96040000D02*
X160720000Y-96040000D01*
X160720000Y-96040000D02*
X160720000Y-97860000D01*
X160720000Y-97860000D02*
X159800000Y-97860000D01*
G04 #@! TO.C,10uF1*
X164100000Y-102900000D02*
X164100000Y-104720000D01*
X164100000Y-104720000D02*
X163180000Y-104720000D01*
X163180000Y-104720000D02*
X163180000Y-102900000D01*
X163180000Y-102900000D02*
X164100000Y-102900000D01*
G04 #@! TO.C,10KOhm1*
X158810000Y-97185000D02*
X158810000Y-99135000D01*
X158810000Y-99135000D02*
X157910000Y-99135000D01*
X157910000Y-99135000D02*
X157910000Y-97185000D01*
X157910000Y-97185000D02*
X158810000Y-97185000D01*
G04 #@! TO.C,10KOhm2*
X158880000Y-99045000D02*
X158880000Y-97095000D01*
X158880000Y-97095000D02*
X159780000Y-97095000D01*
X159780000Y-97095000D02*
X159780000Y-99045000D01*
X159780000Y-99045000D02*
X158880000Y-99045000D01*
G04 #@! TO.C,0.1uF4*
X163140000Y-101900000D02*
X163140000Y-100460000D01*
X163140000Y-100460000D02*
X163880000Y-100460000D01*
X163880000Y-100460000D02*
X163880000Y-101900000D01*
X163880000Y-101900000D02*
X163140000Y-101900000D01*
G04 #@! TO.C,0.1uF2*
X148120000Y-104510000D02*
X148120000Y-105950000D01*
X148120000Y-105950000D02*
X147380000Y-105950000D01*
X147380000Y-105950000D02*
X147380000Y-104510000D01*
X147380000Y-104510000D02*
X148120000Y-104510000D01*
G04 #@! TO.C,0.1uF1*
X147390000Y-107405000D02*
X147390000Y-105965000D01*
X147390000Y-105965000D02*
X148130000Y-105965000D01*
X148130000Y-105965000D02*
X148130000Y-107405000D01*
X148130000Y-107405000D02*
X147390000Y-107405000D01*
G04 #@! TD*
M02*
