G04 #@! TF.GenerationSoftware,KiCad,Pcbnew,(5.1.6)-1*
G04 #@! TF.CreationDate,2021-12-03T12:33:41+01:00*
G04 #@! TF.ProjectId,USBEMBEDED,55534245-4d42-4454-9445-442e6b696361,rev?*
G04 #@! TF.SameCoordinates,Original*
G04 #@! TF.FileFunction,Paste,Top*
G04 #@! TF.FilePolarity,Positive*
%FSLAX46Y46*%
G04 Gerber Fmt 4.6, Leading zero omitted, Abs format (unit mm)*
G04 Created by KiCad (PCBNEW (5.1.6)-1) date 2021-12-03 12:33:41*
%MOMM*%
%LPD*%
G01*
G04 APERTURE LIST*
%ADD10C,0.186000*%
%ADD11R,0.200000X0.150000*%
%ADD12R,0.600000X0.200000*%
%ADD13R,0.200000X0.600000*%
%ADD14R,0.470000X0.440000*%
%ADD15R,1.100000X1.700000*%
%ADD16R,0.600000X0.350000*%
%ADD17R,4.200000X4.200000*%
%ADD18R,0.350000X1.050000*%
%ADD19R,1.050000X0.350000*%
%ADD20R,5.400000X5.400000*%
%ADD21R,0.950000X0.300000*%
%ADD22R,0.300000X0.950000*%
%ADD23R,0.400000X0.625000*%
%ADD24R,1.900000X0.400000*%
%ADD25R,0.620000X0.600000*%
%ADD26R,0.440000X0.470000*%
G04 APERTURE END LIST*
D10*
G04 #@! TO.C,IC4*
X154865000Y-95235000D03*
X154515000Y-95235000D03*
X154865000Y-94885000D03*
X154515000Y-94885000D03*
G04 #@! TD*
D11*
G04 #@! TO.C,IC5*
X148270000Y-105955000D03*
D12*
X148470000Y-105530000D03*
D13*
X148470000Y-104880000D03*
X148870000Y-104880000D03*
X149270000Y-104880000D03*
X149670000Y-104880000D03*
X150070000Y-104880000D03*
D12*
X150070000Y-105530000D03*
D13*
X150070000Y-106180000D03*
X149670000Y-106180000D03*
X149270000Y-106180000D03*
X148870000Y-106180000D03*
X148470000Y-106180000D03*
G04 #@! TD*
D14*
G04 #@! TO.C,1uF4*
X155500000Y-96810000D03*
X154830000Y-96810000D03*
G04 #@! TD*
G04 #@! TO.C,1uF1*
X148415000Y-102980000D03*
X147745000Y-102980000D03*
G04 #@! TD*
G04 #@! TO.C,0.1uF3*
X158835000Y-106880000D03*
X158165000Y-106880000D03*
G04 #@! TD*
D15*
G04 #@! TO.C,PS1*
X143280000Y-104020000D03*
D16*
X142230000Y-104670000D03*
X142230000Y-104020000D03*
X142230000Y-103370000D03*
X144330000Y-103370000D03*
X144330000Y-104020000D03*
X144330000Y-104670000D03*
G04 #@! TD*
D17*
G04 #@! TO.C,IC3*
X159500000Y-102870000D03*
D18*
X157550000Y-100020000D03*
X158200000Y-100020000D03*
X158850000Y-100020000D03*
X159500000Y-100020000D03*
X160150000Y-100020000D03*
X160800000Y-100020000D03*
X161450000Y-100020000D03*
D19*
X162350000Y-100920000D03*
X162350000Y-101570000D03*
X162350000Y-102220000D03*
X162350000Y-102870000D03*
X162350000Y-103520000D03*
X162350000Y-104170000D03*
X162350000Y-104820000D03*
D18*
X161450000Y-105720000D03*
X160800000Y-105720000D03*
X160150000Y-105720000D03*
X159500000Y-105720000D03*
X158850000Y-105720000D03*
X158200000Y-105720000D03*
X157550000Y-105720000D03*
D19*
X156650000Y-104820000D03*
X156650000Y-104170000D03*
X156650000Y-103520000D03*
X156650000Y-102870000D03*
X156650000Y-102220000D03*
X156650000Y-101570000D03*
X156650000Y-100920000D03*
G04 #@! TD*
D20*
G04 #@! TO.C,IC2*
X148380000Y-98570000D03*
D21*
X144980000Y-101070000D03*
X144980000Y-100570000D03*
X144980000Y-100070000D03*
X144980000Y-99570000D03*
X144980000Y-99070000D03*
X144980000Y-98570000D03*
X144980000Y-98070000D03*
X144980000Y-97570000D03*
X144980000Y-97070000D03*
X144980000Y-96570000D03*
X144980000Y-96070000D03*
D22*
X145880000Y-95170000D03*
X146380000Y-95170000D03*
X146880000Y-95170000D03*
X147380000Y-95170000D03*
X147880000Y-95170000D03*
X148380000Y-95170000D03*
X148880000Y-95170000D03*
X149380000Y-95170000D03*
X149880000Y-95170000D03*
X150380000Y-95170000D03*
X150880000Y-95170000D03*
D21*
X151780000Y-96070000D03*
X151780000Y-96570000D03*
X151780000Y-97070000D03*
X151780000Y-97570000D03*
X151780000Y-98070000D03*
X151780000Y-98570000D03*
X151780000Y-99070000D03*
X151780000Y-99570000D03*
X151780000Y-100070000D03*
X151780000Y-100570000D03*
X151780000Y-101070000D03*
D22*
X150880000Y-101970000D03*
X150380000Y-101970000D03*
X149880000Y-101970000D03*
X149380000Y-101970000D03*
X148880000Y-101970000D03*
X148380000Y-101970000D03*
X147880000Y-101970000D03*
X147380000Y-101970000D03*
X146880000Y-101970000D03*
X146380000Y-101970000D03*
X145880000Y-101970000D03*
G04 #@! TD*
D23*
G04 #@! TO.C,22Ohm2*
X142090000Y-100092000D03*
X142090000Y-99268000D03*
G04 #@! TD*
G04 #@! TO.C,22Ohm1*
X142090000Y-102142000D03*
X142090000Y-101318000D03*
G04 #@! TD*
D14*
G04 #@! TO.C,1uF5*
X153390000Y-96810000D03*
X154060000Y-96810000D03*
G04 #@! TD*
G04 #@! TO.C,1uF3*
X142175000Y-105550000D03*
X142845000Y-105550000D03*
G04 #@! TD*
G04 #@! TO.C,1uF2*
X144325000Y-105550000D03*
X143655000Y-105550000D03*
G04 #@! TD*
D24*
G04 #@! TO.C,16Mhz2*
X154110000Y-106040000D03*
X154110000Y-104840000D03*
X154110000Y-103640000D03*
G04 #@! TD*
G04 #@! TO.C,16Mhz1*
X154120000Y-100330000D03*
X154120000Y-99130000D03*
X154120000Y-97930000D03*
G04 #@! TD*
D25*
G04 #@! TO.C,10uF2*
X160260000Y-96490000D03*
X160260000Y-97410000D03*
G04 #@! TD*
G04 #@! TO.C,10uF1*
X163640000Y-104270000D03*
X163640000Y-103350000D03*
G04 #@! TD*
D23*
G04 #@! TO.C,10KOhm1*
X158360000Y-98572000D03*
X158360000Y-97748000D03*
G04 #@! TD*
G04 #@! TO.C,10KOhm2*
X159330000Y-97658000D03*
X159330000Y-98482000D03*
G04 #@! TD*
D26*
G04 #@! TO.C,0.1uF4*
X163510000Y-100845000D03*
X163510000Y-101515000D03*
G04 #@! TD*
G04 #@! TO.C,0.1uF2*
X147750000Y-105565000D03*
X147750000Y-104895000D03*
G04 #@! TD*
G04 #@! TO.C,0.1uF1*
X147760000Y-106350000D03*
X147760000Y-107020000D03*
G04 #@! TD*
M02*
