G04 #@! TF.GenerationSoftware,KiCad,Pcbnew,(5.1.6)-1*
G04 #@! TF.CreationDate,2021-12-03T12:33:41+01:00*
G04 #@! TF.ProjectId,USBEMBEDED,55534245-4d42-4454-9445-442e6b696361,rev?*
G04 #@! TF.SameCoordinates,Original*
G04 #@! TF.FileFunction,Copper,L1,Top*
G04 #@! TF.FilePolarity,Positive*
%FSLAX46Y46*%
G04 Gerber Fmt 4.6, Leading zero omitted, Abs format (unit mm)*
G04 Created by KiCad (PCBNEW (5.1.6)-1) date 2021-12-03 12:33:41*
%MOMM*%
%LPD*%
G01*
G04 APERTURE LIST*
G04 #@! TA.AperFunction,EtchedComponent*
%ADD10C,0.002000*%
G04 #@! TD*
G04 #@! TA.AperFunction,SMDPad,CuDef*
%ADD11C,0.186000*%
G04 #@! TD*
G04 #@! TA.AperFunction,ComponentPad*
%ADD12C,1.650000*%
G04 #@! TD*
G04 #@! TA.AperFunction,ComponentPad*
%ADD13R,1.725000X1.725000*%
G04 #@! TD*
G04 #@! TA.AperFunction,SMDPad,CuDef*
%ADD14R,0.200000X0.150000*%
G04 #@! TD*
G04 #@! TA.AperFunction,SMDPad,CuDef*
%ADD15R,0.600000X0.200000*%
G04 #@! TD*
G04 #@! TA.AperFunction,SMDPad,CuDef*
%ADD16R,0.200000X0.600000*%
G04 #@! TD*
G04 #@! TA.AperFunction,SMDPad,CuDef*
%ADD17R,0.470000X0.440000*%
G04 #@! TD*
G04 #@! TA.AperFunction,ComponentPad*
%ADD18C,1.067000*%
G04 #@! TD*
G04 #@! TA.AperFunction,ComponentPad*
%ADD19C,0.813000*%
G04 #@! TD*
G04 #@! TA.AperFunction,ViaPad*
%ADD20R,1.016000X1.016000*%
G04 #@! TD*
G04 #@! TA.AperFunction,SMDPad,CuDef*
%ADD21R,1.100000X1.700000*%
G04 #@! TD*
G04 #@! TA.AperFunction,SMDPad,CuDef*
%ADD22R,0.600000X0.350000*%
G04 #@! TD*
G04 #@! TA.AperFunction,SMDPad,CuDef*
%ADD23R,4.200000X4.200000*%
G04 #@! TD*
G04 #@! TA.AperFunction,SMDPad,CuDef*
%ADD24R,0.350000X1.050000*%
G04 #@! TD*
G04 #@! TA.AperFunction,SMDPad,CuDef*
%ADD25R,1.050000X0.350000*%
G04 #@! TD*
G04 #@! TA.AperFunction,SMDPad,CuDef*
%ADD26R,5.400000X5.400000*%
G04 #@! TD*
G04 #@! TA.AperFunction,SMDPad,CuDef*
%ADD27R,0.950000X0.300000*%
G04 #@! TD*
G04 #@! TA.AperFunction,SMDPad,CuDef*
%ADD28R,0.300000X0.950000*%
G04 #@! TD*
G04 #@! TA.AperFunction,SMDPad,CuDef*
%ADD29R,0.400000X0.625000*%
G04 #@! TD*
G04 #@! TA.AperFunction,SMDPad,CuDef*
%ADD30R,1.900000X0.400000*%
G04 #@! TD*
G04 #@! TA.AperFunction,SMDPad,CuDef*
%ADD31R,0.620000X0.600000*%
G04 #@! TD*
G04 #@! TA.AperFunction,SMDPad,CuDef*
%ADD32R,0.440000X0.470000*%
G04 #@! TD*
G04 #@! TA.AperFunction,ViaPad*
%ADD33C,0.450000*%
G04 #@! TD*
G04 #@! TA.AperFunction,Conductor*
%ADD34C,0.127000*%
G04 #@! TD*
G04 #@! TA.AperFunction,Conductor*
%ADD35C,0.250000*%
G04 #@! TD*
G04 #@! TA.AperFunction,Conductor*
%ADD36C,0.254000*%
G04 #@! TD*
G04 APERTURE END LIST*
D10*
G04 #@! TO.C,U1*
G36*
X145013000Y-109964000D02*
G01*
X145013000Y-108696000D01*
X146027000Y-108696000D01*
X146027000Y-109964000D01*
X145013000Y-109964000D01*
G37*
X145013000Y-109964000D02*
X145013000Y-108696000D01*
X146027000Y-108696000D01*
X146027000Y-109964000D01*
X145013000Y-109964000D01*
G36*
X146283000Y-109964000D02*
G01*
X146283000Y-108696000D01*
X147297000Y-108696000D01*
X147297000Y-109964000D01*
X146283000Y-109964000D01*
G37*
X146283000Y-109964000D02*
X146283000Y-108696000D01*
X147297000Y-108696000D01*
X147297000Y-109964000D01*
X146283000Y-109964000D01*
G36*
X147553000Y-109964000D02*
G01*
X147553000Y-108696000D01*
X148567000Y-108696000D01*
X148567000Y-109964000D01*
X147553000Y-109964000D01*
G37*
X147553000Y-109964000D02*
X147553000Y-108696000D01*
X148567000Y-108696000D01*
X148567000Y-109964000D01*
X147553000Y-109964000D01*
G36*
X148823000Y-109964000D02*
G01*
X148823000Y-108696000D01*
X149837000Y-108696000D01*
X149837000Y-109964000D01*
X148823000Y-109964000D01*
G37*
X148823000Y-109964000D02*
X148823000Y-108696000D01*
X149837000Y-108696000D01*
X149837000Y-109964000D01*
X148823000Y-109964000D01*
G36*
X150093000Y-109964000D02*
G01*
X150093000Y-108696000D01*
X151107000Y-108696000D01*
X151107000Y-109964000D01*
X150093000Y-109964000D01*
G37*
X150093000Y-109964000D02*
X150093000Y-108696000D01*
X151107000Y-108696000D01*
X151107000Y-109964000D01*
X150093000Y-109964000D01*
G36*
X151363000Y-109964000D02*
G01*
X151363000Y-108696000D01*
X152377000Y-108696000D01*
X152377000Y-109964000D01*
X151363000Y-109964000D01*
G37*
X151363000Y-109964000D02*
X151363000Y-108696000D01*
X152377000Y-108696000D01*
X152377000Y-109964000D01*
X151363000Y-109964000D01*
G36*
X152633000Y-109964000D02*
G01*
X152633000Y-108696000D01*
X153647000Y-108696000D01*
X153647000Y-109964000D01*
X152633000Y-109964000D01*
G37*
X152633000Y-109964000D02*
X152633000Y-108696000D01*
X153647000Y-108696000D01*
X153647000Y-109964000D01*
X152633000Y-109964000D01*
G36*
X153903000Y-109964000D02*
G01*
X153903000Y-108696000D01*
X154917000Y-108696000D01*
X154917000Y-109964000D01*
X153903000Y-109964000D01*
G37*
X153903000Y-109964000D02*
X153903000Y-108696000D01*
X154917000Y-108696000D01*
X154917000Y-109964000D01*
X153903000Y-109964000D01*
G36*
X155173000Y-109964000D02*
G01*
X155173000Y-108696000D01*
X156187000Y-108696000D01*
X156187000Y-109964000D01*
X155173000Y-109964000D01*
G37*
X155173000Y-109964000D02*
X155173000Y-108696000D01*
X156187000Y-108696000D01*
X156187000Y-109964000D01*
X155173000Y-109964000D01*
G36*
X156443000Y-109964000D02*
G01*
X156443000Y-108696000D01*
X157457000Y-108696000D01*
X157457000Y-109964000D01*
X156443000Y-109964000D01*
G37*
X156443000Y-109964000D02*
X156443000Y-108696000D01*
X157457000Y-108696000D01*
X157457000Y-109964000D01*
X156443000Y-109964000D01*
G36*
X157713000Y-109964000D02*
G01*
X157713000Y-108696000D01*
X158727000Y-108696000D01*
X158727000Y-109964000D01*
X157713000Y-109964000D01*
G37*
X157713000Y-109964000D02*
X157713000Y-108696000D01*
X158727000Y-108696000D01*
X158727000Y-109964000D01*
X157713000Y-109964000D01*
G36*
X158983000Y-109964000D02*
G01*
X158983000Y-108696000D01*
X159997000Y-108696000D01*
X159997000Y-109964000D01*
X158983000Y-109964000D01*
G37*
X158983000Y-109964000D02*
X158983000Y-108696000D01*
X159997000Y-108696000D01*
X159997000Y-109964000D01*
X158983000Y-109964000D01*
G36*
X160253000Y-109964000D02*
G01*
X160253000Y-108696000D01*
X161267000Y-108696000D01*
X161267000Y-109964000D01*
X160253000Y-109964000D01*
G37*
X160253000Y-109964000D02*
X160253000Y-108696000D01*
X161267000Y-108696000D01*
X161267000Y-109964000D01*
X160253000Y-109964000D01*
G36*
X161523000Y-109964000D02*
G01*
X161523000Y-108696000D01*
X162537000Y-108696000D01*
X162537000Y-109964000D01*
X161523000Y-109964000D01*
G37*
X161523000Y-109964000D02*
X161523000Y-108696000D01*
X162537000Y-108696000D01*
X162537000Y-109964000D01*
X161523000Y-109964000D01*
G04 #@! TD*
D11*
G04 #@! TO.P,IC4,B2*
G04 #@! TO.N,GND*
X154865000Y-95235000D03*
G04 #@! TO.P,IC4,B1*
G04 #@! TO.N,VCC*
X154515000Y-95235000D03*
G04 #@! TO.P,IC4,A2*
G04 #@! TO.N,+3V3*
X154865000Y-94885000D03*
G04 #@! TO.P,IC4,A1*
G04 #@! TO.N,VCC*
X154515000Y-94885000D03*
G04 #@! TD*
D12*
G04 #@! TO.P,PCSIDE1,4*
G04 #@! TO.N,GND*
X137270000Y-96390000D03*
G04 #@! TO.P,PCSIDE1,3*
G04 #@! TO.N,D+AT*
X137270000Y-98930000D03*
G04 #@! TO.P,PCSIDE1,2*
G04 #@! TO.N,D-AT*
X137270000Y-101470000D03*
G04 #@! TO.P,PCSIDE1,1*
G04 #@! TO.N,+5V*
X137270000Y-104010000D03*
G04 #@! TD*
G04 #@! TO.P,KEYBOARDSIDE1,4*
G04 #@! TO.N,VDC*
X174510000Y-103960000D03*
G04 #@! TO.P,KEYBOARDSIDE1,3*
G04 #@! TO.N,D-US*
X174510000Y-101420000D03*
G04 #@! TO.P,KEYBOARDSIDE1,2*
G04 #@! TO.N,D+US*
X174510000Y-98880000D03*
G04 #@! TO.P,KEYBOARDSIDE1,1*
G04 #@! TO.N,GND*
X174510000Y-96340000D03*
G04 #@! TD*
D13*
G04 #@! TO.P,TX1,1*
G04 #@! TO.N,NRFTX*
X165000000Y-94560000D03*
G04 #@! TD*
G04 #@! TO.P,RX1,1*
G04 #@! TO.N,NRFRX*
X165060000Y-106460000D03*
G04 #@! TD*
D14*
G04 #@! TO.P,IC5,13*
G04 #@! TO.N,+3V3*
X148270000Y-105955000D03*
D15*
G04 #@! TO.P,IC5,12*
X148470000Y-105530000D03*
D16*
G04 #@! TO.P,IC5,11*
G04 #@! TO.N,VCC*
X148470000Y-104880000D03*
G04 #@! TO.P,IC5,10*
G04 #@! TO.N,SCLK*
X148870000Y-104880000D03*
G04 #@! TO.P,IC5,9*
G04 #@! TO.N,MOSI*
X149270000Y-104880000D03*
G04 #@! TO.P,IC5,8*
G04 #@! TO.N,MISO*
X149670000Y-104880000D03*
G04 #@! TO.P,IC5,7*
G04 #@! TO.N,SS*
X150070000Y-104880000D03*
D15*
G04 #@! TO.P,IC5,6*
G04 #@! TO.N,GND*
X150070000Y-105530000D03*
D16*
G04 #@! TO.P,IC5,5*
G04 #@! TO.N,CS*
X150070000Y-106180000D03*
G04 #@! TO.P,IC5,4*
G04 #@! TO.N,DO*
X149670000Y-106180000D03*
G04 #@! TO.P,IC5,3*
G04 #@! TO.N,DI*
X149270000Y-106180000D03*
G04 #@! TO.P,IC5,2*
G04 #@! TO.N,CLK*
X148870000Y-106180000D03*
G04 #@! TO.P,IC5,1*
G04 #@! TO.N,+3V3*
X148470000Y-106180000D03*
G04 #@! TD*
D13*
G04 #@! TO.P,GND1,1*
G04 #@! TO.N,GND*
X142180000Y-93700000D03*
G04 #@! TD*
G04 #@! TO.P,5V+1,1*
G04 #@! TO.N,+5V*
X142030000Y-107360000D03*
G04 #@! TD*
D17*
G04 #@! TO.P,1uF4,2*
G04 #@! TO.N,+3V3*
X155500000Y-96810000D03*
G04 #@! TO.P,1uF4,1*
G04 #@! TO.N,GND*
X154830000Y-96810000D03*
G04 #@! TD*
G04 #@! TO.P,1uF1,2*
G04 #@! TO.N,Net-(1uF1-Pad2)*
X148415000Y-102980000D03*
G04 #@! TO.P,1uF1,1*
G04 #@! TO.N,GND*
X147745000Y-102980000D03*
G04 #@! TD*
G04 #@! TO.P,0.1uF3,2*
G04 #@! TO.N,+3V3*
X158835000Y-106880000D03*
G04 #@! TO.P,0.1uF3,1*
G04 #@! TO.N,GND*
X158165000Y-106880000D03*
G04 #@! TD*
D18*
G04 #@! TO.P,U1,18*
G04 #@! TO.N,N/C*
X163300000Y-108339000D03*
D19*
G04 #@! TO.P,U1,17*
X164799000Y-109330000D03*
G04 #@! TO.P,U1,16*
X143488000Y-109330000D03*
D18*
G04 #@! TO.P,U1,15*
X144250000Y-108339000D03*
D20*
G04 #@! TD*
G04 #@! TO.N,GND*
G04 #@! TO.C,U1*
X162030000Y-109330000D03*
G04 #@! TO.N,Net-(U1-Pad13)*
G04 #@! TO.C,U1*
X160760000Y-109330000D03*
G04 #@! TO.N,Net-(U1-Pad12)*
X159490000Y-109330000D03*
G04 #@! TO.N,Net-(U1-Pad11)*
X158220000Y-109330000D03*
G04 #@! TO.N,Net-(U1-Pad10)*
X156950000Y-109330000D03*
G04 #@! TO.N,MCLR*
X155680000Y-109330000D03*
G04 #@! TO.N,TXUSBH-PGRCLK*
X154410000Y-109330000D03*
G04 #@! TO.N,RXUSBH-PGRDATA*
X153140000Y-109330000D03*
G04 #@! TO.N,RST*
X151870000Y-109330000D03*
G04 #@! TO.N,MISO*
X150600000Y-109330000D03*
G04 #@! TO.N,MOSI*
X149330000Y-109330000D03*
G04 #@! TO.N,SCLK*
X148060000Y-109330000D03*
G04 #@! TO.N,+3V3*
X146790000Y-109330000D03*
G04 #@! TO.N,VCC*
X145520000Y-109330000D03*
G04 #@! TD*
D21*
G04 #@! TO.P,PS1,7*
G04 #@! TO.N,GND*
X143280000Y-104020000D03*
D22*
G04 #@! TO.P,PS1,6*
G04 #@! TO.N,+5V*
X142230000Y-104670000D03*
G04 #@! TO.P,PS1,5*
G04 #@! TO.N,GND*
X142230000Y-104020000D03*
G04 #@! TO.P,PS1,4*
G04 #@! TO.N,+5V*
X142230000Y-103370000D03*
G04 #@! TO.P,PS1,3*
G04 #@! TO.N,GND*
X144330000Y-103370000D03*
G04 #@! TO.P,PS1,2*
X144330000Y-104020000D03*
G04 #@! TO.P,PS1,1*
G04 #@! TO.N,VCC*
X144330000Y-104670000D03*
G04 #@! TD*
D23*
G04 #@! TO.P,IC3,29*
G04 #@! TO.N,Net-(IC3-Pad29)*
X159500000Y-102870000D03*
D24*
G04 #@! TO.P,IC3,28*
G04 #@! TO.N,TXUSBH-PGRCLK*
X157550000Y-100020000D03*
G04 #@! TO.P,IC3,27*
G04 #@! TO.N,RXUSBH-PGRDATA*
X158200000Y-100020000D03*
G04 #@! TO.P,IC3,26*
G04 #@! TO.N,MCLR*
X158850000Y-100020000D03*
G04 #@! TO.P,IC3,25*
G04 #@! TO.N,+3V3*
X159500000Y-100020000D03*
G04 #@! TO.P,IC3,24*
G04 #@! TO.N,GND*
X160150000Y-100020000D03*
G04 #@! TO.P,IC3,23*
G04 #@! TO.N,Net-(IC3-Pad23)*
X160800000Y-100020000D03*
G04 #@! TO.P,IC3,22*
G04 #@! TO.N,Net-(IC3-Pad22)*
X161450000Y-100020000D03*
D25*
G04 #@! TO.P,IC3,21*
G04 #@! TO.N,Net-(IC3-Pad21)*
X162350000Y-100920000D03*
G04 #@! TO.P,IC3,20*
G04 #@! TO.N,+3V3*
X162350000Y-101570000D03*
G04 #@! TO.P,IC3,19*
G04 #@! TO.N,D-US*
X162350000Y-102220000D03*
G04 #@! TO.P,IC3,18*
G04 #@! TO.N,D+US*
X162350000Y-102870000D03*
G04 #@! TO.P,IC3,17*
G04 #@! TO.N,Net-(10uF1-Pad1)*
X162350000Y-103520000D03*
G04 #@! TO.P,IC3,16*
G04 #@! TO.N,GND*
X162350000Y-104170000D03*
G04 #@! TO.P,IC3,15*
G04 #@! TO.N,Net-(IC3-Pad15)*
X162350000Y-104820000D03*
D24*
G04 #@! TO.P,IC3,14*
G04 #@! TO.N,Net-(IC3-Pad14)*
X161450000Y-105720000D03*
G04 #@! TO.P,IC3,13*
G04 #@! TO.N,Net-(IC3-Pad13)*
X160800000Y-105720000D03*
G04 #@! TO.P,IC3,12*
G04 #@! TO.N,VCC*
X160150000Y-105720000D03*
G04 #@! TO.P,IC3,11*
G04 #@! TO.N,Net-(IC3-Pad11)*
X159500000Y-105720000D03*
G04 #@! TO.P,IC3,10*
G04 #@! TO.N,+3V3*
X158850000Y-105720000D03*
G04 #@! TO.P,IC3,9*
G04 #@! TO.N,Net-(IC3-Pad9)*
X158200000Y-105720000D03*
G04 #@! TO.P,IC3,8*
G04 #@! TO.N,Net-(IC3-Pad8)*
X157550000Y-105720000D03*
D25*
G04 #@! TO.P,IC3,7*
G04 #@! TO.N,Net-(16Mhz2-Pad3)*
X156650000Y-104820000D03*
G04 #@! TO.P,IC3,6*
G04 #@! TO.N,Net-(16Mhz2-Pad1)*
X156650000Y-104170000D03*
G04 #@! TO.P,IC3,5*
G04 #@! TO.N,GND*
X156650000Y-103520000D03*
G04 #@! TO.P,IC3,4*
G04 #@! TO.N,Net-(IC3-Pad4)*
X156650000Y-102870000D03*
G04 #@! TO.P,IC3,3*
G04 #@! TO.N,Net-(IC3-Pad3)*
X156650000Y-102220000D03*
G04 #@! TO.P,IC3,2*
G04 #@! TO.N,Net-(IC3-Pad2)*
X156650000Y-101570000D03*
G04 #@! TO.P,IC3,1*
G04 #@! TO.N,Net-(IC3-Pad1)*
X156650000Y-100920000D03*
G04 #@! TD*
D26*
G04 #@! TO.P,IC2,45*
G04 #@! TO.N,GND*
X148380000Y-98570000D03*
D27*
G04 #@! TO.P,IC2,44*
G04 #@! TO.N,VCC*
X144980000Y-101070000D03*
G04 #@! TO.P,IC2,43*
G04 #@! TO.N,GND*
X144980000Y-100570000D03*
G04 #@! TO.P,IC2,42*
G04 #@! TO.N,Net-(IC2-Pad42)*
X144980000Y-100070000D03*
G04 #@! TO.P,IC2,41*
G04 #@! TO.N,Net-(IC2-Pad41)*
X144980000Y-99570000D03*
G04 #@! TO.P,IC2,40*
G04 #@! TO.N,Net-(IC2-Pad40)*
X144980000Y-99070000D03*
G04 #@! TO.P,IC2,39*
G04 #@! TO.N,Net-(IC2-Pad39)*
X144980000Y-98570000D03*
G04 #@! TO.P,IC2,38*
G04 #@! TO.N,Net-(IC2-Pad38)*
X144980000Y-98070000D03*
G04 #@! TO.P,IC2,37*
G04 #@! TO.N,Net-(IC2-Pad37)*
X144980000Y-97570000D03*
G04 #@! TO.P,IC2,36*
G04 #@! TO.N,Net-(IC2-Pad36)*
X144980000Y-97070000D03*
G04 #@! TO.P,IC2,35*
G04 #@! TO.N,GND*
X144980000Y-96570000D03*
G04 #@! TO.P,IC2,34*
G04 #@! TO.N,VCC*
X144980000Y-96070000D03*
D28*
G04 #@! TO.P,IC2,33*
G04 #@! TO.N,Net-(IC2-Pad33)*
X145880000Y-95170000D03*
G04 #@! TO.P,IC2,32*
G04 #@! TO.N,Net-(IC2-Pad32)*
X146380000Y-95170000D03*
G04 #@! TO.P,IC2,31*
G04 #@! TO.N,Net-(IC2-Pad31)*
X146880000Y-95170000D03*
G04 #@! TO.P,IC2,30*
G04 #@! TO.N,Net-(IC2-Pad30)*
X147380000Y-95170000D03*
G04 #@! TO.P,IC2,29*
G04 #@! TO.N,TXUSBH-PGRCLK*
X147880000Y-95170000D03*
G04 #@! TO.P,IC2,28*
G04 #@! TO.N,RXUSBH-PGRDATA*
X148380000Y-95170000D03*
G04 #@! TO.P,IC2,27*
G04 #@! TO.N,Net-(IC2-Pad27)*
X148880000Y-95170000D03*
G04 #@! TO.P,IC2,26*
G04 #@! TO.N,Net-(IC2-Pad26)*
X149380000Y-95170000D03*
G04 #@! TO.P,IC2,25*
G04 #@! TO.N,SS*
X149880000Y-95170000D03*
G04 #@! TO.P,IC2,24*
G04 #@! TO.N,VCC*
X150380000Y-95170000D03*
G04 #@! TO.P,IC2,23*
G04 #@! TO.N,GND*
X150880000Y-95170000D03*
D27*
G04 #@! TO.P,IC2,22*
G04 #@! TO.N,Net-(IC2-Pad22)*
X151780000Y-96070000D03*
G04 #@! TO.P,IC2,21*
G04 #@! TO.N,NRFTX*
X151780000Y-96570000D03*
G04 #@! TO.P,IC2,20*
G04 #@! TO.N,NRFRX*
X151780000Y-97070000D03*
G04 #@! TO.P,IC2,19*
G04 #@! TO.N,Net-(IC2-Pad19)*
X151780000Y-97570000D03*
G04 #@! TO.P,IC2,18*
G04 #@! TO.N,Net-(IC2-Pad18)*
X151780000Y-98070000D03*
G04 #@! TO.P,IC2,17*
G04 #@! TO.N,Net-(16Mhz1-Pad1)*
X151780000Y-98570000D03*
G04 #@! TO.P,IC2,16*
G04 #@! TO.N,Net-(16Mhz1-Pad3)*
X151780000Y-99070000D03*
G04 #@! TO.P,IC2,15*
G04 #@! TO.N,GND*
X151780000Y-99570000D03*
G04 #@! TO.P,IC2,14*
G04 #@! TO.N,VCC*
X151780000Y-100070000D03*
G04 #@! TO.P,IC2,13*
G04 #@! TO.N,RST*
X151780000Y-100570000D03*
G04 #@! TO.P,IC2,12*
G04 #@! TO.N,D11*
X151780000Y-101070000D03*
D28*
G04 #@! TO.P,IC2,11*
G04 #@! TO.N,MISO*
X150880000Y-101970000D03*
G04 #@! TO.P,IC2,10*
G04 #@! TO.N,MOSI*
X150380000Y-101970000D03*
G04 #@! TO.P,IC2,9*
G04 #@! TO.N,SCLK*
X149880000Y-101970000D03*
G04 #@! TO.P,IC2,8*
G04 #@! TO.N,Net-(IC2-Pad8)*
X149380000Y-101970000D03*
G04 #@! TO.P,IC2,7*
G04 #@! TO.N,VCC*
X148880000Y-101970000D03*
G04 #@! TO.P,IC2,6*
G04 #@! TO.N,Net-(1uF1-Pad2)*
X148380000Y-101970000D03*
G04 #@! TO.P,IC2,5*
G04 #@! TO.N,GND*
X147880000Y-101970000D03*
G04 #@! TO.P,IC2,4*
G04 #@! TO.N,Net-(22Ohm2-Pad2)*
X147380000Y-101970000D03*
G04 #@! TO.P,IC2,3*
G04 #@! TO.N,Net-(22Ohm1-Pad2)*
X146880000Y-101970000D03*
G04 #@! TO.P,IC2,2*
G04 #@! TO.N,VCC*
X146380000Y-101970000D03*
G04 #@! TO.P,IC2,1*
G04 #@! TO.N,Net-(IC2-Pad1)*
X145880000Y-101970000D03*
G04 #@! TD*
D29*
G04 #@! TO.P,22Ohm2,2*
G04 #@! TO.N,Net-(22Ohm2-Pad2)*
X142090000Y-100092000D03*
G04 #@! TO.P,22Ohm2,1*
G04 #@! TO.N,D+AT*
X142090000Y-99268000D03*
G04 #@! TD*
G04 #@! TO.P,22Ohm1,2*
G04 #@! TO.N,Net-(22Ohm1-Pad2)*
X142090000Y-102142000D03*
G04 #@! TO.P,22Ohm1,1*
G04 #@! TO.N,D-AT*
X142090000Y-101318000D03*
G04 #@! TD*
D17*
G04 #@! TO.P,1uF5,2*
G04 #@! TO.N,VCC*
X153390000Y-96810000D03*
G04 #@! TO.P,1uF5,1*
G04 #@! TO.N,GND*
X154060000Y-96810000D03*
G04 #@! TD*
G04 #@! TO.P,1uF3,2*
G04 #@! TO.N,+5V*
X142175000Y-105550000D03*
G04 #@! TO.P,1uF3,1*
G04 #@! TO.N,GND*
X142845000Y-105550000D03*
G04 #@! TD*
G04 #@! TO.P,1uF2,2*
G04 #@! TO.N,VCC*
X144325000Y-105550000D03*
G04 #@! TO.P,1uF2,1*
G04 #@! TO.N,GND*
X143655000Y-105550000D03*
G04 #@! TD*
D30*
G04 #@! TO.P,16Mhz2,3*
G04 #@! TO.N,Net-(16Mhz2-Pad3)*
X154110000Y-106040000D03*
G04 #@! TO.P,16Mhz2,2*
G04 #@! TO.N,GND*
X154110000Y-104840000D03*
G04 #@! TO.P,16Mhz2,1*
G04 #@! TO.N,Net-(16Mhz2-Pad1)*
X154110000Y-103640000D03*
G04 #@! TD*
G04 #@! TO.P,16Mhz1,3*
G04 #@! TO.N,Net-(16Mhz1-Pad3)*
X154120000Y-100330000D03*
G04 #@! TO.P,16Mhz1,2*
G04 #@! TO.N,GND*
X154120000Y-99130000D03*
G04 #@! TO.P,16Mhz1,1*
G04 #@! TO.N,Net-(16Mhz1-Pad1)*
X154120000Y-97930000D03*
G04 #@! TD*
D31*
G04 #@! TO.P,10uF2,2*
G04 #@! TO.N,GND*
X160260000Y-96490000D03*
G04 #@! TO.P,10uF2,1*
G04 #@! TO.N,+3V3*
X160260000Y-97410000D03*
G04 #@! TD*
G04 #@! TO.P,10uF1,2*
G04 #@! TO.N,GND*
X163640000Y-104270000D03*
G04 #@! TO.P,10uF1,1*
G04 #@! TO.N,Net-(10uF1-Pad1)*
X163640000Y-103350000D03*
G04 #@! TD*
D29*
G04 #@! TO.P,10KOhm1,2*
G04 #@! TO.N,RXUSBH-PGRDATA*
X158360000Y-98572000D03*
G04 #@! TO.P,10KOhm1,1*
G04 #@! TO.N,+3V3*
X158360000Y-97748000D03*
G04 #@! TD*
G04 #@! TO.P,10KOhm2,2*
G04 #@! TO.N,+3V3*
X159330000Y-97658000D03*
G04 #@! TO.P,10KOhm2,1*
G04 #@! TO.N,MCLR*
X159330000Y-98482000D03*
G04 #@! TD*
D32*
G04 #@! TO.P,0.1uF4,2*
G04 #@! TO.N,GND*
X163510000Y-100845000D03*
G04 #@! TO.P,0.1uF4,1*
G04 #@! TO.N,+3V3*
X163510000Y-101515000D03*
G04 #@! TD*
G04 #@! TO.P,0.1uF2,2*
G04 #@! TO.N,GND*
X147750000Y-105565000D03*
G04 #@! TO.P,0.1uF2,1*
G04 #@! TO.N,VCC*
X147750000Y-104895000D03*
G04 #@! TD*
G04 #@! TO.P,0.1uF1,2*
G04 #@! TO.N,GND*
X147760000Y-106350000D03*
G04 #@! TO.P,0.1uF1,1*
G04 #@! TO.N,+3V3*
X147760000Y-107020000D03*
G04 #@! TD*
D33*
G04 #@! TO.N,GND*
X154760000Y-96770000D03*
X154080000Y-96770000D03*
X171130000Y-96420000D03*
X170910000Y-100320000D03*
X169090000Y-102640000D03*
X156650000Y-103520000D03*
X156620000Y-97370000D03*
X150450000Y-97040000D03*
X146730000Y-96890000D03*
X148530000Y-96890000D03*
X150430000Y-98650000D03*
X146520000Y-98410000D03*
X148570000Y-98610000D03*
X148570000Y-100400000D03*
X150420000Y-100390000D03*
X146530000Y-100390000D03*
X158210000Y-106890000D03*
X154080000Y-104840000D03*
X154110000Y-99130000D03*
X143540000Y-103410000D03*
X142980000Y-103420000D03*
X142970000Y-104050000D03*
X143560000Y-104070000D03*
X143520000Y-104630000D03*
X142960000Y-104630000D03*
X143270000Y-105570000D03*
X136620000Y-92350000D03*
X140080000Y-92330000D03*
X143610000Y-92280000D03*
X145740000Y-92240000D03*
X141910000Y-92280000D03*
X136730000Y-108820000D03*
X139650000Y-108960000D03*
X142790000Y-108910000D03*
X141090000Y-95250000D03*
X141500000Y-97920000D03*
X142950000Y-98770000D03*
X143860000Y-99580000D03*
X143830000Y-98160000D03*
X142580000Y-97060000D03*
X143050000Y-95690000D03*
X144000000Y-94220000D03*
X144240000Y-93140000D03*
X143840000Y-107060000D03*
X146760000Y-106660000D03*
X145310000Y-106470000D03*
X143610000Y-106250000D03*
X158730000Y-108200000D03*
X159550000Y-107240000D03*
X159540000Y-108220000D03*
X161350000Y-108200000D03*
X161320000Y-107470000D03*
X146880000Y-93840000D03*
X145560000Y-93750000D03*
X146630000Y-92930000D03*
X147090000Y-92120000D03*
X148870000Y-94240000D03*
X148840000Y-93370000D03*
X149850000Y-93380000D03*
X150620000Y-93740000D03*
X151390000Y-94020000D03*
X151400000Y-95400000D03*
X152250000Y-95400000D03*
X152280000Y-94020000D03*
X151580000Y-93180000D03*
X154470000Y-93150000D03*
X153220000Y-93140000D03*
X154960000Y-97290000D03*
X153230000Y-101120000D03*
X155020000Y-101110000D03*
X153310000Y-102860000D03*
X155410000Y-102970000D03*
X163130000Y-106820000D03*
X164570000Y-108110000D03*
X165950000Y-108780000D03*
X172350000Y-95110000D03*
X167110000Y-107580000D03*
X167980000Y-108850000D03*
X168760000Y-96570000D03*
X166880000Y-96400000D03*
X164620000Y-96480000D03*
X164430000Y-98690000D03*
X164460000Y-101260000D03*
X163580000Y-99980000D03*
X161730000Y-98720000D03*
X162870000Y-97350000D03*
X162070000Y-95680000D03*
X160800000Y-95230000D03*
X167440000Y-94950000D03*
X167580000Y-92280000D03*
X166280000Y-95030000D03*
X166320000Y-92120000D03*
X166290000Y-93300000D03*
X163450000Y-94010000D03*
X163530000Y-92160000D03*
X161940000Y-94130000D03*
X161900000Y-92140000D03*
X160520000Y-94090000D03*
X160540000Y-92270000D03*
X160040000Y-93290000D03*
X158540000Y-92190000D03*
X166800000Y-105450000D03*
X157480000Y-92580000D03*
X152770000Y-97490000D03*
X149730000Y-108080000D03*
X147760000Y-105950000D03*
X153230000Y-106600000D03*
X163640000Y-104270000D03*
X151640000Y-102070000D03*
X151440000Y-105110000D03*
X151640000Y-103810000D03*
X170010000Y-98910000D03*
X170960000Y-98910000D03*
X171900000Y-98920000D03*
X137660000Y-93870000D03*
X139310000Y-93550000D03*
X139150000Y-95020000D03*
X139950000Y-96800000D03*
X136560000Y-102750000D03*
X136840000Y-105660000D03*
X139600000Y-106670000D03*
X138180000Y-107580000D03*
X136740000Y-107120000D03*
X139080000Y-97840000D03*
X136780000Y-94860000D03*
X138160000Y-92530000D03*
X154680000Y-96100000D03*
X154180000Y-96220000D03*
X155090000Y-95730000D03*
X154010000Y-94430000D03*
G04 #@! TO.N,+3V3*
X156470000Y-99310000D03*
X160250000Y-97410000D03*
X163520000Y-101520000D03*
X158835000Y-106880000D03*
X160193520Y-98580000D03*
X158830000Y-97680000D03*
X146820000Y-108300000D03*
X155490000Y-96830000D03*
X147910000Y-107020000D03*
G04 #@! TO.N,VCC*
X171810000Y-97460000D03*
X171790000Y-98010000D03*
X153600000Y-95730000D03*
X153410000Y-96810000D03*
X144800000Y-104690000D03*
X144800000Y-105150000D03*
X144810000Y-105620000D03*
X144552998Y-95590000D03*
X144110000Y-100520000D03*
X150590000Y-94340000D03*
X152304018Y-100068572D03*
X146750000Y-104260000D03*
X148276553Y-104861053D03*
X165140000Y-103000000D03*
G04 #@! TO.N,MCLR*
X160870000Y-98100000D03*
G04 #@! TO.N,RXUSBH-PGRDATA*
X148660000Y-92160000D03*
X153280000Y-108030000D03*
X158186340Y-95493660D03*
G04 #@! TO.N,+5V*
X142090000Y-104660000D03*
X142230000Y-103370000D03*
X140550000Y-103830000D03*
G04 #@! TO.N,Net-(22Ohm2-Pad2)*
X142950000Y-100200000D03*
X147060000Y-103200000D03*
G04 #@! TO.N,TXUSBH-PGRCLK*
X147960000Y-92590000D03*
X154653712Y-108133712D03*
X158601840Y-93110000D03*
X157478951Y-93351049D03*
X157609899Y-95468231D03*
G04 #@! TO.N,NRFRX*
X165480000Y-98460000D03*
G04 #@! TO.N,MISO*
X151010000Y-102860000D03*
X149740000Y-103830000D03*
X150540000Y-108220000D03*
G04 #@! TO.N,MOSI*
X150447168Y-102732909D03*
X149278398Y-103483799D03*
G04 #@! TO.N,SCLK*
X149885230Y-102515989D03*
X147820000Y-107870000D03*
X148819513Y-104228822D03*
G04 #@! TO.N,SS*
X149760000Y-94230000D03*
X150957606Y-103500000D03*
G04 #@! TO.N,D-US*
X172900000Y-99870000D03*
G04 #@! TO.N,DO*
X151454500Y-107049376D03*
G04 #@! TO.N,CLK*
X153180000Y-101980000D03*
X151454500Y-107880376D03*
X152285500Y-107880376D03*
G04 #@! TO.N,DI*
X151033575Y-107444032D03*
X154120000Y-107464876D03*
X155440000Y-106633876D03*
G04 #@! TO.N,CS*
X151361001Y-106480000D03*
G04 #@! TO.N,D11*
X160193520Y-95837998D03*
X152030001Y-101580000D03*
X155502998Y-97800000D03*
G04 #@! TD*
D34*
G04 #@! TO.N,GND*
X147745000Y-102105000D02*
X147880000Y-101970000D01*
X147745000Y-102980000D02*
X147745000Y-102105000D01*
X143655000Y-105550000D02*
X143290000Y-105550000D01*
X143290000Y-105550000D02*
X143270000Y-105570000D01*
X143250000Y-105550000D02*
X143270000Y-105570000D01*
X142845000Y-105550000D02*
X143250000Y-105550000D01*
X162450000Y-104270000D02*
X162350000Y-104170000D01*
X163640000Y-104270000D02*
X163640000Y-104270000D01*
X162030000Y-108880000D02*
X162030000Y-109169490D01*
X161350000Y-108200000D02*
X162030000Y-108880000D01*
X154139998Y-95759998D02*
X154140000Y-95760000D01*
X147760000Y-105575000D02*
X147750000Y-105565000D01*
X147760000Y-106350000D02*
X147760000Y-105950000D01*
X147760000Y-105950000D02*
X147760000Y-105575000D01*
X163640000Y-104270000D02*
X162450000Y-104270000D01*
G04 #@! TO.N,+3V3*
X158835000Y-105735000D02*
X158850000Y-105720000D01*
X158835000Y-106880000D02*
X158835000Y-106880000D01*
X158835000Y-106880000D02*
X158835000Y-105735000D01*
X162400000Y-101520000D02*
X162350000Y-101570000D01*
X163520000Y-101520000D02*
X162400000Y-101520000D01*
X159500000Y-100020000D02*
X159500000Y-99368000D01*
X160193520Y-98674480D02*
X160193520Y-98580000D01*
X159500000Y-99368000D02*
X160193520Y-98674480D01*
X146790000Y-109330000D02*
X146790000Y-108330000D01*
X146790000Y-108330000D02*
X146820000Y-108300000D01*
X160250000Y-97410000D02*
X160010000Y-97650000D01*
X159338000Y-97650000D02*
X159330000Y-97658000D01*
X160010000Y-97650000D02*
X159338000Y-97650000D01*
X159240000Y-97748000D02*
X159330000Y-97658000D01*
X158360000Y-97748000D02*
X159240000Y-97748000D01*
X148470000Y-106180000D02*
X148470000Y-105530000D01*
X147760000Y-107020000D02*
X147870000Y-107020000D01*
X148270000Y-105980000D02*
X148470000Y-106180000D01*
X148270000Y-105955000D02*
X148270000Y-105980000D01*
X148470000Y-106550000D02*
X148470000Y-106180000D01*
X155490000Y-96830000D02*
X155490000Y-96580000D01*
X155490000Y-96580000D02*
X155790000Y-96280000D01*
X155790000Y-95840000D02*
X155700000Y-95750000D01*
X155790000Y-96280000D02*
X155790000Y-95840000D01*
X155500000Y-96810000D02*
X155500000Y-96680000D01*
X155500000Y-96680000D02*
X155380000Y-96560000D01*
X155380000Y-96560000D02*
X155380000Y-96540000D01*
X155700000Y-96220000D02*
X155700000Y-95750000D01*
X155380000Y-96540000D02*
X155700000Y-96220000D01*
X155380000Y-96720000D02*
X155490000Y-96830000D01*
X155380000Y-96540000D02*
X155380000Y-96720000D01*
X148000000Y-107020000D02*
X147910000Y-107020000D01*
X148470000Y-106550000D02*
X148000000Y-107020000D01*
X147910000Y-107020000D02*
X147760000Y-107020000D01*
X155700000Y-95750000D02*
X155700000Y-95480000D01*
X155105000Y-94885000D02*
X154865000Y-94885000D01*
X155700000Y-95480000D02*
X155105000Y-94885000D01*
X154920000Y-94810000D02*
X155170000Y-94810000D01*
X155170000Y-94810000D02*
X155790000Y-95430000D01*
X154865000Y-94885000D02*
X154865000Y-94865000D01*
X155790000Y-95430000D02*
X155790000Y-95840000D01*
X154865000Y-94865000D02*
X154920000Y-94810000D01*
G04 #@! TO.N,VCC*
X148587944Y-103559311D02*
X148000689Y-103559311D01*
X148880000Y-101970000D02*
X148880000Y-103267255D01*
X148880000Y-103267255D02*
X148587944Y-103559311D01*
X144980000Y-96070000D02*
X144980000Y-96017002D01*
X144980000Y-96017002D02*
X144552998Y-95590000D01*
X144110000Y-100802000D02*
X144110000Y-100520000D01*
X144980000Y-101070000D02*
X144378000Y-101070000D01*
X144378000Y-101070000D02*
X144110000Y-100802000D01*
X150380000Y-95170000D02*
X150380000Y-94550000D01*
X150380000Y-94550000D02*
X150590000Y-94340000D01*
X151780000Y-100070000D02*
X152302590Y-100070000D01*
X152302590Y-100070000D02*
X152304018Y-100068572D01*
X146182401Y-102635501D02*
X145265501Y-102635501D01*
X146380000Y-101970000D02*
X146380000Y-102437902D01*
X146380000Y-102437902D02*
X146182401Y-102635501D01*
X144378000Y-101748000D02*
X144378000Y-101070000D01*
X145265501Y-102635501D02*
X144378000Y-101748000D01*
X148000689Y-103559311D02*
X147880689Y-103559311D01*
X147880689Y-103559311D02*
X147180000Y-104260000D01*
X147180000Y-104260000D02*
X146750000Y-104260000D01*
X144780000Y-104670000D02*
X144800000Y-104690000D01*
X144330000Y-104670000D02*
X144780000Y-104670000D01*
X144330000Y-105545000D02*
X144325000Y-105550000D01*
X144740000Y-105550000D02*
X144810000Y-105620000D01*
X144325000Y-105550000D02*
X144740000Y-105550000D01*
X144790000Y-105160000D02*
X144800000Y-105150000D01*
X144330000Y-105160000D02*
X144330000Y-105545000D01*
X144330000Y-105160000D02*
X144790000Y-105160000D01*
X144330000Y-104670000D02*
X144330000Y-105160000D01*
X144800000Y-105610000D02*
X144810000Y-105620000D01*
X144800000Y-105150000D02*
X144800000Y-105610000D01*
X144800000Y-105150000D02*
X144800000Y-104690000D01*
X162240000Y-106330000D02*
X162240000Y-105670000D01*
X161620000Y-106950000D02*
X162240000Y-106330000D01*
X163640000Y-105350000D02*
X164640000Y-104350000D01*
X160270000Y-106950000D02*
X161620000Y-106950000D01*
X162560000Y-105350000D02*
X163640000Y-105350000D01*
X160150000Y-105720000D02*
X160150000Y-106830000D01*
X160150000Y-106830000D02*
X160270000Y-106950000D01*
X162240000Y-105670000D02*
X162560000Y-105350000D01*
X153600000Y-96600000D02*
X153390000Y-96810000D01*
X153600000Y-95750000D02*
X153600000Y-96600000D01*
X148470000Y-104880000D02*
X148470000Y-104830000D01*
X148470000Y-104880000D02*
X148295500Y-104880000D01*
X148295500Y-104880000D02*
X148276553Y-104861053D01*
X148242606Y-104895000D02*
X148276553Y-104861053D01*
X147750000Y-104895000D02*
X148242606Y-104895000D01*
X153410000Y-96810000D02*
X153410000Y-96640000D01*
X153410000Y-96640000D02*
X153500000Y-96550000D01*
X153500000Y-95830000D02*
X153600000Y-95730000D01*
X153500000Y-96550000D02*
X153500000Y-95830000D01*
X164640000Y-104350000D02*
X164640000Y-103500000D01*
X164640000Y-103500000D02*
X165140000Y-103000000D01*
X153600000Y-95730000D02*
X154095000Y-95235000D01*
X154515000Y-95235000D02*
X154515000Y-94885000D01*
X154515000Y-94885000D02*
X154390000Y-95010000D01*
X154390000Y-95010000D02*
X154390000Y-95120000D01*
X154375000Y-95135000D02*
X154375000Y-95235000D01*
X154390000Y-95120000D02*
X154375000Y-95135000D01*
X154095000Y-95235000D02*
X154375000Y-95235000D01*
X154375000Y-95235000D02*
X154515000Y-95235000D01*
X154400000Y-95120000D02*
X154390000Y-95120000D01*
X154515000Y-95235000D02*
X154400000Y-95120000D01*
X154400000Y-95120000D02*
X154040000Y-95120000D01*
X153600000Y-95560000D02*
X153600000Y-95730000D01*
X154040000Y-95120000D02*
X153600000Y-95560000D01*
G04 #@! TO.N,MCLR*
X158850000Y-98962000D02*
X158850000Y-100020000D01*
X159330000Y-98482000D02*
X158850000Y-98962000D01*
X159712000Y-98100000D02*
X159330000Y-98482000D01*
X160870000Y-98100000D02*
X159712000Y-98100000D01*
G04 #@! TO.N,RXUSBH-PGRDATA*
X158200000Y-98732000D02*
X158360000Y-98572000D01*
X158200000Y-100020000D02*
X158200000Y-98732000D01*
X158360000Y-98572000D02*
X158033000Y-98572000D01*
X157969499Y-98508499D02*
X157969499Y-95710501D01*
X158033000Y-98572000D02*
X157969499Y-98508499D01*
X157969499Y-95710501D02*
X158186340Y-95493660D01*
X148660000Y-92160000D02*
X148470000Y-92160000D01*
X148380000Y-92250000D02*
X148380000Y-95170000D01*
X148470000Y-92160000D02*
X148380000Y-92250000D01*
X153140000Y-109330000D02*
X153140000Y-108590000D01*
X153140000Y-108590000D02*
X153280000Y-108450000D01*
X153280000Y-108450000D02*
X153280000Y-108030000D01*
G04 #@! TO.N,Net-(10uF1-Pad1)*
X163470000Y-103520000D02*
X163640000Y-103350000D01*
X162350000Y-103520000D02*
X163470000Y-103520000D01*
G04 #@! TO.N,Net-(16Mhz1-Pad3)*
X151780000Y-99070000D02*
X152390000Y-99070000D01*
X152390000Y-99070000D02*
X152560000Y-99240000D01*
X152560000Y-99240000D02*
X152560000Y-99580000D01*
X152560000Y-99580000D02*
X152970000Y-99990000D01*
X152970000Y-99990000D02*
X152970000Y-100230000D01*
X153070000Y-100330000D02*
X154120000Y-100330000D01*
X152970000Y-100230000D02*
X153070000Y-100330000D01*
G04 #@! TO.N,Net-(16Mhz1-Pad1)*
X151780000Y-98570000D02*
X152500000Y-98570000D01*
X153140000Y-97930000D02*
X154120000Y-97930000D01*
X152500000Y-98570000D02*
X153140000Y-97930000D01*
G04 #@! TO.N,Net-(16Mhz2-Pad3)*
X154110000Y-106040000D02*
X154890000Y-106040000D01*
X154890000Y-106040000D02*
X155500000Y-105430000D01*
X155500000Y-105430000D02*
X155500000Y-105060000D01*
X155740000Y-104820000D02*
X156650000Y-104820000D01*
X155500000Y-105060000D02*
X155740000Y-104820000D01*
G04 #@! TO.N,Net-(16Mhz2-Pad1)*
X156580000Y-104100000D02*
X156650000Y-104170000D01*
X155630000Y-104100000D02*
X156580000Y-104100000D01*
X154110000Y-103640000D02*
X155170000Y-103640000D01*
X155170000Y-103640000D02*
X155630000Y-104100000D01*
G04 #@! TO.N,Net-(1uF1-Pad2)*
X148415000Y-102005000D02*
X148380000Y-101970000D01*
X148415000Y-102980000D02*
X148415000Y-102005000D01*
G04 #@! TO.N,+5V*
X141380000Y-104660000D02*
X140550000Y-103830000D01*
X142090000Y-104660000D02*
X141380000Y-104660000D01*
X140550000Y-103830000D02*
X141010000Y-103370000D01*
X141470000Y-103370000D02*
X142230000Y-103370000D01*
X141380000Y-104427000D02*
X141380000Y-104660000D01*
X141010000Y-103370000D02*
X141470000Y-103370000D01*
X142230000Y-103370000D02*
X142230000Y-103370000D01*
X142230000Y-105495000D02*
X142175000Y-105550000D01*
X142230000Y-104670000D02*
X142230000Y-105495000D01*
G04 #@! TO.N,Net-(22Ohm1-Pad2)*
X146082000Y-103370000D02*
X146880000Y-102572000D01*
X145279302Y-103370000D02*
X146082000Y-103370000D01*
X144051302Y-102142000D02*
X145279302Y-103370000D01*
X146880000Y-102572000D02*
X146880000Y-101970000D01*
X142090000Y-102142000D02*
X144051302Y-102142000D01*
G04 #@! TO.N,D-AT*
X137270000Y-101470000D02*
X139960000Y-101470000D01*
X140112000Y-101318000D02*
X142090000Y-101318000D01*
X139960000Y-101470000D02*
X140112000Y-101318000D01*
D35*
G04 #@! TO.N,Net-(22Ohm2-Pad2)*
X142090000Y-100092000D02*
X142090000Y-100130000D01*
D34*
X142090000Y-100092000D02*
X142522000Y-100092000D01*
X142522000Y-100092000D02*
X142842000Y-100092000D01*
X142842000Y-100092000D02*
X142950000Y-100200000D01*
X147060000Y-102881802D02*
X147380000Y-102561802D01*
X147380000Y-102561802D02*
X147380000Y-101970000D01*
X147060000Y-103200000D02*
X147060000Y-102881802D01*
G04 #@! TO.N,D+AT*
X137608000Y-99268000D02*
X137270000Y-98930000D01*
X142090000Y-99268000D02*
X137608000Y-99268000D01*
G04 #@! TO.N,TXUSBH-PGRCLK*
X147960000Y-95090000D02*
X147880000Y-95170000D01*
X147960000Y-92590000D02*
X147960000Y-95090000D01*
X154410000Y-109330000D02*
X154410000Y-108377424D01*
X154410000Y-108377424D02*
X154653712Y-108133712D01*
X158601840Y-93110000D02*
X157720000Y-93110000D01*
X157720000Y-93110000D02*
X157478951Y-93351049D01*
X157609899Y-99960101D02*
X157550000Y-100020000D01*
X157609899Y-95468231D02*
X157609899Y-99960101D01*
G04 #@! TO.N,NRFTX*
X153154499Y-93555501D02*
X154260559Y-93555501D01*
X158390000Y-93840000D02*
X159110000Y-94560000D01*
X157082960Y-93570000D02*
X157279510Y-93766550D01*
X152790000Y-93920000D02*
X153154499Y-93555501D01*
X154260559Y-93555501D02*
X154275058Y-93570000D01*
X159110000Y-94560000D02*
X165000000Y-94560000D01*
X154275058Y-93570000D02*
X157082960Y-93570000D01*
X157279510Y-93766550D02*
X158306550Y-93766550D01*
X158306550Y-93766550D02*
X158380000Y-93840000D01*
X158380000Y-93840000D02*
X158390000Y-93840000D01*
X152790000Y-96162000D02*
X152790000Y-93920000D01*
X152382000Y-96570000D02*
X152790000Y-96162000D01*
X151780000Y-96570000D02*
X152382000Y-96570000D01*
G04 #@! TO.N,NRFRX*
X153044010Y-94095214D02*
X153045214Y-94094010D01*
X158284786Y-94094010D02*
X159004786Y-94814010D01*
X159004786Y-94814010D02*
X162954010Y-94814010D01*
X162954010Y-94814010D02*
X163753001Y-95613001D01*
X153044010Y-94025214D02*
X153245214Y-93824010D01*
X153044010Y-94095214D02*
X153044010Y-94025214D01*
X157247746Y-94094010D02*
X158284786Y-94094010D01*
X156977746Y-93824010D02*
X157247746Y-94094010D01*
X153245214Y-93824010D02*
X156977746Y-93824010D01*
X153044010Y-96358088D02*
X153044010Y-94025214D01*
X152439224Y-96962874D02*
X153044010Y-96358088D01*
X152439224Y-96962874D02*
X152437126Y-96962874D01*
X152330000Y-97070000D02*
X151780000Y-97070000D01*
X152437126Y-96962874D02*
X152330000Y-97070000D01*
X163753001Y-96733001D02*
X163753001Y-95613001D01*
X165480000Y-98460000D02*
X163753001Y-96733001D01*
G04 #@! TO.N,RST*
X152445501Y-100633501D02*
X152382000Y-100570000D01*
X152382000Y-100570000D02*
X151780000Y-100570000D01*
X151870000Y-106847902D02*
X152445501Y-106272401D01*
X152445501Y-106272401D02*
X152445501Y-100633501D01*
X151870000Y-109330000D02*
X151870000Y-106847902D01*
G04 #@! TO.N,MISO*
X150880000Y-101970000D02*
X150880000Y-102730000D01*
X150880000Y-102730000D02*
X151010000Y-102860000D01*
X149740000Y-103830000D02*
X149740000Y-104080000D01*
X149740000Y-104080000D02*
X149650000Y-104170000D01*
X150540000Y-109270000D02*
X150600000Y-109330000D01*
X150540000Y-108220000D02*
X150540000Y-109270000D01*
X149650000Y-104860000D02*
X149670000Y-104880000D01*
X149650000Y-104170000D02*
X149650000Y-104860000D01*
G04 #@! TO.N,MOSI*
X150380000Y-101970000D02*
X150380000Y-102665741D01*
X150380000Y-102665741D02*
X150447168Y-102732909D01*
X149278398Y-103483799D02*
X149278398Y-103798398D01*
X149278398Y-104871602D02*
X149270000Y-104880000D01*
X149278398Y-103798398D02*
X149278398Y-104871602D01*
X148554499Y-107454499D02*
X149280000Y-108180000D01*
X149278398Y-103798398D02*
X149001602Y-103798398D01*
X149001602Y-103798398D02*
X148986679Y-103813321D01*
X149280000Y-109280000D02*
X149330000Y-109330000D01*
X149280000Y-108180000D02*
X149280000Y-109280000D01*
X148986679Y-103813321D02*
X147985903Y-103813321D01*
X147396597Y-107454499D02*
X148554499Y-107454499D01*
X147175501Y-107233403D02*
X147396597Y-107454499D01*
X147175501Y-104623723D02*
X147175501Y-107233403D01*
X147985903Y-103813321D02*
X147175501Y-104623723D01*
G04 #@! TO.N,SCLK*
X149880000Y-101970000D02*
X149880000Y-102510759D01*
X149880000Y-102510759D02*
X149885230Y-102515989D01*
X147820000Y-109090000D02*
X148060000Y-109330000D01*
X147820000Y-107870000D02*
X147820000Y-109090000D01*
X148819513Y-104228822D02*
X148819513Y-104439513D01*
X148870000Y-104490000D02*
X148870000Y-104880000D01*
X148819513Y-104439513D02*
X148870000Y-104490000D01*
G04 #@! TO.N,SS*
X149880000Y-95170000D02*
X149880000Y-94350000D01*
X149880000Y-94350000D02*
X149760000Y-94230000D01*
X150957606Y-103500000D02*
X150417606Y-104040000D01*
X150233000Y-104040000D02*
X150050000Y-104223000D01*
X150417606Y-104040000D02*
X150233000Y-104040000D01*
X150050000Y-104860000D02*
X150070000Y-104880000D01*
X150050000Y-104223000D02*
X150050000Y-104860000D01*
G04 #@! TO.N,D-US*
X165950000Y-102220000D02*
X166600000Y-101570000D01*
X162350000Y-102220000D02*
X165950000Y-102220000D01*
X166600000Y-101570000D02*
X171200000Y-101570000D01*
X171200000Y-101570000D02*
X172900000Y-99870000D01*
G04 #@! TO.N,D+US*
X163167098Y-102870000D02*
X163487098Y-102550000D01*
X162350000Y-102870000D02*
X163167098Y-102870000D01*
X163487098Y-102550000D02*
X168140000Y-102550000D01*
X171165501Y-102224499D02*
X174510000Y-98880000D01*
X168465501Y-102224499D02*
X171165501Y-102224499D01*
X168140000Y-102550000D02*
X168465501Y-102224499D01*
G04 #@! TO.N,DO*
X149670000Y-106522902D02*
X149670000Y-106180000D01*
X150042599Y-106895501D02*
X149670000Y-106522902D01*
X151300625Y-106895501D02*
X150042599Y-106895501D01*
X151454500Y-107049376D02*
X151300625Y-106895501D01*
G04 #@! TO.N,CLK*
X150794152Y-107880376D02*
X151426289Y-107880376D01*
X151426289Y-107880376D02*
X151454500Y-107880376D01*
X152699511Y-102460489D02*
X153180000Y-101980000D01*
X152699511Y-106500489D02*
X152699511Y-102460489D01*
X152285500Y-107880376D02*
X152285500Y-106914500D01*
X152285500Y-106914500D02*
X152699511Y-106500489D01*
X150794152Y-107859210D02*
X150794152Y-107880376D01*
X150739441Y-107804499D02*
X150794152Y-107859210D01*
X150067499Y-107804499D02*
X150739441Y-107804499D01*
X148870000Y-106180000D02*
X148870000Y-106607000D01*
X148870000Y-106607000D02*
X150067499Y-107804499D01*
G04 #@! TO.N,DI*
X154120000Y-107464876D02*
X154609000Y-107464876D01*
X154609000Y-107464876D02*
X155440000Y-106633876D01*
X150191130Y-107444032D02*
X149270000Y-106522902D01*
X149270000Y-106522902D02*
X149270000Y-106180000D01*
X151033575Y-107444032D02*
X150191130Y-107444032D01*
G04 #@! TO.N,CS*
X151230000Y-106480000D02*
X151361001Y-106480000D01*
X150190000Y-106180000D02*
X150070000Y-106180000D01*
X150490000Y-106480000D02*
X150190000Y-106180000D01*
X151361001Y-106480000D02*
X150490000Y-106480000D01*
G04 #@! TO.N,D11*
X160193520Y-95837998D02*
X159630499Y-95837998D01*
X151780000Y-101070000D02*
X151780000Y-101329999D01*
X151780000Y-101329999D02*
X152030001Y-101580000D01*
X156190501Y-97112497D02*
X156190501Y-96139499D01*
X155502998Y-97800000D02*
X156190501Y-97112497D01*
X159669550Y-95837998D02*
X160193520Y-95837998D01*
X158811552Y-94980000D02*
X159669550Y-95837998D01*
X157350000Y-94980000D02*
X158811552Y-94980000D01*
X156190501Y-96139499D02*
X157350000Y-94980000D01*
G04 #@! TD*
D36*
G04 #@! TO.N,GND*
G36*
X148114731Y-92072754D02*
G01*
X148094288Y-92111000D01*
X148085917Y-92126662D01*
X148007177Y-92111000D01*
X147912823Y-92111000D01*
X147820281Y-92129407D01*
X147733108Y-92165515D01*
X147654655Y-92217936D01*
X147587936Y-92284655D01*
X147535515Y-92363108D01*
X147499407Y-92450281D01*
X147481000Y-92542823D01*
X147481000Y-92637177D01*
X147499407Y-92729719D01*
X147535515Y-92816892D01*
X147587936Y-92895345D01*
X147642500Y-92949909D01*
X147642501Y-94456114D01*
X147632328Y-94459200D01*
X147630000Y-94460444D01*
X147627672Y-94459200D01*
X147579793Y-94444676D01*
X147530000Y-94439772D01*
X147230000Y-94439772D01*
X147180207Y-94444676D01*
X147132328Y-94459200D01*
X147130000Y-94460444D01*
X147127672Y-94459200D01*
X147079793Y-94444676D01*
X147030000Y-94439772D01*
X146730000Y-94439772D01*
X146680207Y-94444676D01*
X146632328Y-94459200D01*
X146630000Y-94460444D01*
X146627672Y-94459200D01*
X146579793Y-94444676D01*
X146530000Y-94439772D01*
X146230000Y-94439772D01*
X146180207Y-94444676D01*
X146132328Y-94459200D01*
X146130000Y-94460444D01*
X146127672Y-94459200D01*
X146079793Y-94444676D01*
X146030000Y-94439772D01*
X145730000Y-94439772D01*
X145680207Y-94444676D01*
X145632328Y-94459200D01*
X145588203Y-94482786D01*
X145549527Y-94514527D01*
X145517786Y-94553203D01*
X145494200Y-94597328D01*
X145479676Y-94645207D01*
X145474772Y-94695000D01*
X145474772Y-95645000D01*
X145476932Y-95666932D01*
X145455000Y-95664772D01*
X145076783Y-95664772D01*
X145031998Y-95619987D01*
X145031998Y-95542823D01*
X145013591Y-95450281D01*
X144977483Y-95363108D01*
X144925062Y-95284655D01*
X144858343Y-95217936D01*
X144779890Y-95165515D01*
X144692717Y-95129407D01*
X144600175Y-95111000D01*
X144505821Y-95111000D01*
X144413279Y-95129407D01*
X144326106Y-95165515D01*
X144247653Y-95217936D01*
X144180934Y-95284655D01*
X144128513Y-95363108D01*
X144092405Y-95450281D01*
X144073998Y-95542823D01*
X144073998Y-95637177D01*
X144092405Y-95729719D01*
X144128513Y-95816892D01*
X144180934Y-95895345D01*
X144247653Y-95962064D01*
X144249772Y-95963480D01*
X144249772Y-96220000D01*
X144254676Y-96269793D01*
X144269200Y-96317672D01*
X144292786Y-96361797D01*
X144324527Y-96400473D01*
X144363203Y-96432214D01*
X144407328Y-96455800D01*
X144455207Y-96470324D01*
X144505000Y-96475228D01*
X145455000Y-96475228D01*
X145504793Y-96470324D01*
X145552672Y-96455800D01*
X145596797Y-96432214D01*
X145635473Y-96400473D01*
X145667214Y-96361797D01*
X145690800Y-96317672D01*
X145705324Y-96269793D01*
X145710228Y-96220000D01*
X145710228Y-95920000D01*
X145708068Y-95898068D01*
X145730000Y-95900228D01*
X146030000Y-95900228D01*
X146079793Y-95895324D01*
X146127672Y-95880800D01*
X146130000Y-95879556D01*
X146132328Y-95880800D01*
X146180207Y-95895324D01*
X146230000Y-95900228D01*
X146530000Y-95900228D01*
X146579793Y-95895324D01*
X146627672Y-95880800D01*
X146630000Y-95879556D01*
X146632328Y-95880800D01*
X146680207Y-95895324D01*
X146730000Y-95900228D01*
X147030000Y-95900228D01*
X147079793Y-95895324D01*
X147127672Y-95880800D01*
X147130000Y-95879556D01*
X147132328Y-95880800D01*
X147180207Y-95895324D01*
X147230000Y-95900228D01*
X147530000Y-95900228D01*
X147579793Y-95895324D01*
X147627672Y-95880800D01*
X147630000Y-95879556D01*
X147632328Y-95880800D01*
X147680207Y-95895324D01*
X147730000Y-95900228D01*
X148030000Y-95900228D01*
X148079793Y-95895324D01*
X148127672Y-95880800D01*
X148130000Y-95879556D01*
X148132328Y-95880800D01*
X148180207Y-95895324D01*
X148230000Y-95900228D01*
X148530000Y-95900228D01*
X148579793Y-95895324D01*
X148627672Y-95880800D01*
X148630000Y-95879556D01*
X148632328Y-95880800D01*
X148680207Y-95895324D01*
X148730000Y-95900228D01*
X149030000Y-95900228D01*
X149079793Y-95895324D01*
X149127672Y-95880800D01*
X149130000Y-95879556D01*
X149132328Y-95880800D01*
X149180207Y-95895324D01*
X149230000Y-95900228D01*
X149530000Y-95900228D01*
X149579793Y-95895324D01*
X149627672Y-95880800D01*
X149630000Y-95879556D01*
X149632328Y-95880800D01*
X149680207Y-95895324D01*
X149730000Y-95900228D01*
X150030000Y-95900228D01*
X150079793Y-95895324D01*
X150127672Y-95880800D01*
X150130000Y-95879556D01*
X150132328Y-95880800D01*
X150180207Y-95895324D01*
X150230000Y-95900228D01*
X150530000Y-95900228D01*
X150579793Y-95895324D01*
X150627672Y-95880800D01*
X150671797Y-95857214D01*
X150710473Y-95825473D01*
X150742214Y-95786797D01*
X150765800Y-95742672D01*
X150780324Y-95694793D01*
X150785228Y-95645000D01*
X150785228Y-94777601D01*
X150816892Y-94764485D01*
X150895345Y-94712064D01*
X150962064Y-94645345D01*
X151014485Y-94566892D01*
X151050593Y-94479719D01*
X151069000Y-94387177D01*
X151069000Y-94292823D01*
X151050593Y-94200281D01*
X151014485Y-94113108D01*
X150962064Y-94034655D01*
X150895345Y-93967936D01*
X150816892Y-93915515D01*
X150729719Y-93879407D01*
X150637177Y-93861000D01*
X150542823Y-93861000D01*
X150450281Y-93879407D01*
X150363108Y-93915515D01*
X150284655Y-93967936D01*
X150217936Y-94034655D01*
X150205353Y-94053487D01*
X150184485Y-94003108D01*
X150132064Y-93924655D01*
X150065345Y-93857936D01*
X149986892Y-93805515D01*
X149899719Y-93769407D01*
X149807177Y-93751000D01*
X149712823Y-93751000D01*
X149620281Y-93769407D01*
X149533108Y-93805515D01*
X149454655Y-93857936D01*
X149387936Y-93924655D01*
X149335515Y-94003108D01*
X149299407Y-94090281D01*
X149281000Y-94182823D01*
X149281000Y-94277177D01*
X149299407Y-94369719D01*
X149328424Y-94439772D01*
X149230000Y-94439772D01*
X149180207Y-94444676D01*
X149132328Y-94459200D01*
X149130000Y-94460444D01*
X149127672Y-94459200D01*
X149079793Y-94444676D01*
X149030000Y-94439772D01*
X148730000Y-94439772D01*
X148697500Y-94442973D01*
X148697500Y-92639000D01*
X148707177Y-92639000D01*
X148799719Y-92620593D01*
X148886892Y-92584485D01*
X148965345Y-92532064D01*
X149032064Y-92465345D01*
X149084485Y-92386892D01*
X149120593Y-92299719D01*
X149139000Y-92207177D01*
X149139000Y-92112823D01*
X149127300Y-92054000D01*
X176406173Y-92054000D01*
X176415828Y-109045855D01*
X165394035Y-109040571D01*
X165384328Y-109017136D01*
X165312044Y-108908956D01*
X165220044Y-108816956D01*
X165111864Y-108744672D01*
X164991661Y-108694883D01*
X164864054Y-108669500D01*
X164733946Y-108669500D01*
X164606339Y-108694883D01*
X164486136Y-108744672D01*
X164377956Y-108816956D01*
X164285956Y-108908956D01*
X164213672Y-109017136D01*
X164204201Y-109040001D01*
X163666093Y-109039743D01*
X163673021Y-109036873D01*
X163802002Y-108950691D01*
X163911691Y-108841002D01*
X163997873Y-108712021D01*
X164057236Y-108568705D01*
X164087500Y-108416562D01*
X164087500Y-108261438D01*
X164057236Y-108109295D01*
X163997873Y-107965979D01*
X163911691Y-107836998D01*
X163802002Y-107727309D01*
X163673021Y-107641127D01*
X163529705Y-107581764D01*
X163377562Y-107551500D01*
X163222438Y-107551500D01*
X163070295Y-107581764D01*
X162926979Y-107641127D01*
X162797998Y-107727309D01*
X162688309Y-107836998D01*
X162602127Y-107965979D01*
X162542764Y-108109295D01*
X162512500Y-108261438D01*
X162512500Y-108416562D01*
X162517361Y-108441000D01*
X161523000Y-108441000D01*
X161499081Y-108443345D01*
X161475218Y-108445517D01*
X161474364Y-108445768D01*
X161473470Y-108445856D01*
X161450470Y-108452800D01*
X161427475Y-108459568D01*
X161426681Y-108459983D01*
X161425827Y-108460241D01*
X161404674Y-108471488D01*
X161394851Y-108476624D01*
X161388523Y-108473202D01*
X161367455Y-108461620D01*
X161366599Y-108461349D01*
X161365816Y-108460925D01*
X161342928Y-108453840D01*
X161320017Y-108446572D01*
X161319129Y-108446472D01*
X161318275Y-108446208D01*
X161294379Y-108443697D01*
X161270560Y-108441025D01*
X161268846Y-108441013D01*
X161268780Y-108441006D01*
X161268714Y-108441012D01*
X161267000Y-108441000D01*
X160253000Y-108441000D01*
X160229081Y-108443345D01*
X160205218Y-108445517D01*
X160204364Y-108445768D01*
X160203470Y-108445856D01*
X160180470Y-108452800D01*
X160157475Y-108459568D01*
X160156681Y-108459983D01*
X160155827Y-108460241D01*
X160134674Y-108471488D01*
X160124851Y-108476624D01*
X160118523Y-108473202D01*
X160097455Y-108461620D01*
X160096599Y-108461349D01*
X160095816Y-108460925D01*
X160072928Y-108453840D01*
X160050017Y-108446572D01*
X160049129Y-108446472D01*
X160048275Y-108446208D01*
X160024379Y-108443697D01*
X160000560Y-108441025D01*
X159998846Y-108441013D01*
X159998780Y-108441006D01*
X159998714Y-108441012D01*
X159997000Y-108441000D01*
X158983000Y-108441000D01*
X158959081Y-108443345D01*
X158935218Y-108445517D01*
X158934364Y-108445768D01*
X158933470Y-108445856D01*
X158910470Y-108452800D01*
X158887475Y-108459568D01*
X158886681Y-108459983D01*
X158885827Y-108460241D01*
X158864674Y-108471488D01*
X158854851Y-108476624D01*
X158848523Y-108473202D01*
X158827455Y-108461620D01*
X158826599Y-108461349D01*
X158825816Y-108460925D01*
X158802928Y-108453840D01*
X158780017Y-108446572D01*
X158779129Y-108446472D01*
X158778275Y-108446208D01*
X158754379Y-108443697D01*
X158730560Y-108441025D01*
X158728846Y-108441013D01*
X158728780Y-108441006D01*
X158728714Y-108441012D01*
X158727000Y-108441000D01*
X157713000Y-108441000D01*
X157689081Y-108443345D01*
X157665218Y-108445517D01*
X157664364Y-108445768D01*
X157663470Y-108445856D01*
X157640470Y-108452800D01*
X157617475Y-108459568D01*
X157616681Y-108459983D01*
X157615827Y-108460241D01*
X157594674Y-108471488D01*
X157584851Y-108476624D01*
X157578523Y-108473202D01*
X157557455Y-108461620D01*
X157556599Y-108461349D01*
X157555816Y-108460925D01*
X157532928Y-108453840D01*
X157510017Y-108446572D01*
X157509129Y-108446472D01*
X157508275Y-108446208D01*
X157484379Y-108443697D01*
X157460560Y-108441025D01*
X157458846Y-108441013D01*
X157458780Y-108441006D01*
X157458714Y-108441012D01*
X157457000Y-108441000D01*
X156443000Y-108441000D01*
X156419081Y-108443345D01*
X156395218Y-108445517D01*
X156394364Y-108445768D01*
X156393470Y-108445856D01*
X156370470Y-108452800D01*
X156347475Y-108459568D01*
X156346681Y-108459983D01*
X156345827Y-108460241D01*
X156324674Y-108471488D01*
X156314851Y-108476624D01*
X156308523Y-108473202D01*
X156287455Y-108461620D01*
X156286599Y-108461349D01*
X156285816Y-108460925D01*
X156262928Y-108453840D01*
X156240017Y-108446572D01*
X156239129Y-108446472D01*
X156238275Y-108446208D01*
X156214379Y-108443697D01*
X156190560Y-108441025D01*
X156188846Y-108441013D01*
X156188780Y-108441006D01*
X156188714Y-108441012D01*
X156187000Y-108441000D01*
X155173000Y-108441000D01*
X155149081Y-108443345D01*
X155125218Y-108445517D01*
X155124364Y-108445768D01*
X155123470Y-108445856D01*
X155100470Y-108452800D01*
X155077475Y-108459568D01*
X155076681Y-108459983D01*
X155075827Y-108460241D01*
X155054674Y-108471488D01*
X155044851Y-108476624D01*
X155038523Y-108473202D01*
X155017455Y-108461620D01*
X155016599Y-108461349D01*
X155015816Y-108460925D01*
X155006723Y-108458110D01*
X155025776Y-108439057D01*
X155078197Y-108360604D01*
X155114305Y-108273431D01*
X155132712Y-108180889D01*
X155132712Y-108086535D01*
X155114305Y-107993993D01*
X155078197Y-107906820D01*
X155025776Y-107828367D01*
X154959057Y-107761648D01*
X154880604Y-107709227D01*
X154834777Y-107690245D01*
X154844542Y-107678346D01*
X155410013Y-107112876D01*
X155487177Y-107112876D01*
X155579719Y-107094469D01*
X155666892Y-107058361D01*
X155745345Y-107005940D01*
X155812064Y-106939221D01*
X155864485Y-106860768D01*
X155900593Y-106773595D01*
X155919000Y-106681053D01*
X155919000Y-106586699D01*
X155900593Y-106494157D01*
X155864485Y-106406984D01*
X155812064Y-106328531D01*
X155745345Y-106261812D01*
X155666892Y-106209391D01*
X155579719Y-106173283D01*
X155487177Y-106154876D01*
X155392823Y-106154876D01*
X155315228Y-106170310D01*
X155315228Y-106063784D01*
X155713477Y-105665536D01*
X155725593Y-105655593D01*
X155765269Y-105607247D01*
X155794751Y-105552090D01*
X155812906Y-105492241D01*
X155817500Y-105445596D01*
X155817500Y-105445594D01*
X155819036Y-105430001D01*
X155817500Y-105414408D01*
X155817500Y-105191512D01*
X155871513Y-105137500D01*
X155913363Y-105137500D01*
X155944527Y-105175473D01*
X155983203Y-105207214D01*
X156027328Y-105230800D01*
X156075207Y-105245324D01*
X156125000Y-105250228D01*
X157119772Y-105250228D01*
X157119772Y-106245000D01*
X157124676Y-106294793D01*
X157139200Y-106342672D01*
X157162786Y-106386797D01*
X157194527Y-106425473D01*
X157233203Y-106457214D01*
X157277328Y-106480800D01*
X157325207Y-106495324D01*
X157375000Y-106500228D01*
X157725000Y-106500228D01*
X157774793Y-106495324D01*
X157822672Y-106480800D01*
X157866797Y-106457214D01*
X157875000Y-106450482D01*
X157883203Y-106457214D01*
X157927328Y-106480800D01*
X157975207Y-106495324D01*
X158025000Y-106500228D01*
X158375000Y-106500228D01*
X158404959Y-106497277D01*
X158387786Y-106518203D01*
X158364200Y-106562328D01*
X158349676Y-106610207D01*
X158344772Y-106660000D01*
X158344772Y-107100000D01*
X158349676Y-107149793D01*
X158364200Y-107197672D01*
X158387786Y-107241797D01*
X158419527Y-107280473D01*
X158458203Y-107312214D01*
X158502328Y-107335800D01*
X158550207Y-107350324D01*
X158600000Y-107355228D01*
X158768859Y-107355228D01*
X158787823Y-107359000D01*
X158882177Y-107359000D01*
X158901141Y-107355228D01*
X159070000Y-107355228D01*
X159119793Y-107350324D01*
X159167672Y-107335800D01*
X159211797Y-107312214D01*
X159250473Y-107280473D01*
X159282214Y-107241797D01*
X159305800Y-107197672D01*
X159320324Y-107149793D01*
X159325228Y-107100000D01*
X159325228Y-106660000D01*
X159320324Y-106610207D01*
X159305800Y-106562328D01*
X159282214Y-106518203D01*
X159259536Y-106490570D01*
X159275207Y-106495324D01*
X159325000Y-106500228D01*
X159675000Y-106500228D01*
X159724793Y-106495324D01*
X159772672Y-106480800D01*
X159816797Y-106457214D01*
X159825000Y-106450482D01*
X159832501Y-106456638D01*
X159832501Y-106814395D01*
X159830964Y-106830000D01*
X159837094Y-106892240D01*
X159855249Y-106952089D01*
X159863826Y-106968135D01*
X159884732Y-107007247D01*
X159924408Y-107055593D01*
X159936525Y-107065537D01*
X160034458Y-107163470D01*
X160044407Y-107175593D01*
X160092753Y-107215269D01*
X160147910Y-107244751D01*
X160183457Y-107255534D01*
X160207759Y-107262906D01*
X160270000Y-107269036D01*
X160285596Y-107267500D01*
X161604404Y-107267500D01*
X161620000Y-107269036D01*
X161635596Y-107267500D01*
X161682241Y-107262906D01*
X161742090Y-107244751D01*
X161797247Y-107215269D01*
X161845593Y-107175593D01*
X161855542Y-107163470D01*
X162453477Y-106565536D01*
X162465593Y-106555593D01*
X162505269Y-106507247D01*
X162534751Y-106452090D01*
X162552906Y-106392241D01*
X162557500Y-106345596D01*
X162557500Y-106345594D01*
X162559036Y-106330001D01*
X162557500Y-106314408D01*
X162557500Y-105801512D01*
X162691513Y-105667500D01*
X163624404Y-105667500D01*
X163640000Y-105669036D01*
X163655596Y-105667500D01*
X163702241Y-105662906D01*
X163762090Y-105644751D01*
X163817247Y-105615269D01*
X163865593Y-105575593D01*
X163875542Y-105563470D01*
X163994334Y-105444678D01*
X163985286Y-105455703D01*
X163961700Y-105499828D01*
X163947176Y-105547707D01*
X163942272Y-105597500D01*
X163942272Y-107322500D01*
X163947176Y-107372293D01*
X163961700Y-107420172D01*
X163985286Y-107464297D01*
X164017027Y-107502973D01*
X164055703Y-107534714D01*
X164099828Y-107558300D01*
X164147707Y-107572824D01*
X164197500Y-107577728D01*
X165922500Y-107577728D01*
X165972293Y-107572824D01*
X166020172Y-107558300D01*
X166064297Y-107534714D01*
X166102973Y-107502973D01*
X166134714Y-107464297D01*
X166158300Y-107420172D01*
X166172824Y-107372293D01*
X166177728Y-107322500D01*
X166177728Y-105597500D01*
X166172824Y-105547707D01*
X166158300Y-105499828D01*
X166134714Y-105455703D01*
X166102973Y-105417027D01*
X166064297Y-105385286D01*
X166020172Y-105361700D01*
X165972293Y-105347176D01*
X165922500Y-105342272D01*
X164197500Y-105342272D01*
X164147707Y-105347176D01*
X164099828Y-105361700D01*
X164055703Y-105385286D01*
X164044678Y-105394334D01*
X164853477Y-104585536D01*
X164865593Y-104575593D01*
X164905269Y-104527247D01*
X164934751Y-104472090D01*
X164952906Y-104412241D01*
X164957500Y-104365596D01*
X164957500Y-104365595D01*
X164959036Y-104350000D01*
X164957500Y-104334404D01*
X164957500Y-103853728D01*
X173431000Y-103853728D01*
X173431000Y-104066272D01*
X173472465Y-104274733D01*
X173553802Y-104471098D01*
X173671886Y-104647823D01*
X173822177Y-104798114D01*
X173998902Y-104916198D01*
X174195267Y-104997535D01*
X174403728Y-105039000D01*
X174616272Y-105039000D01*
X174824733Y-104997535D01*
X175021098Y-104916198D01*
X175197823Y-104798114D01*
X175348114Y-104647823D01*
X175466198Y-104471098D01*
X175547535Y-104274733D01*
X175589000Y-104066272D01*
X175589000Y-103853728D01*
X175547535Y-103645267D01*
X175466198Y-103448902D01*
X175348114Y-103272177D01*
X175197823Y-103121886D01*
X175021098Y-103003802D01*
X174824733Y-102922465D01*
X174616272Y-102881000D01*
X174403728Y-102881000D01*
X174195267Y-102922465D01*
X173998902Y-103003802D01*
X173822177Y-103121886D01*
X173671886Y-103272177D01*
X173553802Y-103448902D01*
X173472465Y-103645267D01*
X173431000Y-103853728D01*
X164957500Y-103853728D01*
X164957500Y-103631512D01*
X165110012Y-103479000D01*
X165187177Y-103479000D01*
X165279719Y-103460593D01*
X165366892Y-103424485D01*
X165445345Y-103372064D01*
X165512064Y-103305345D01*
X165564485Y-103226892D01*
X165600593Y-103139719D01*
X165619000Y-103047177D01*
X165619000Y-102952823D01*
X165602029Y-102867500D01*
X168124404Y-102867500D01*
X168140000Y-102869036D01*
X168155596Y-102867500D01*
X168202241Y-102862906D01*
X168262090Y-102844751D01*
X168317247Y-102815269D01*
X168365593Y-102775593D01*
X168375541Y-102763471D01*
X168597014Y-102541999D01*
X171149905Y-102541999D01*
X171165501Y-102543535D01*
X171181097Y-102541999D01*
X171227742Y-102537405D01*
X171287591Y-102519250D01*
X171342748Y-102489768D01*
X171391094Y-102450092D01*
X171401043Y-102437969D01*
X172525284Y-101313728D01*
X173431000Y-101313728D01*
X173431000Y-101526272D01*
X173472465Y-101734733D01*
X173553802Y-101931098D01*
X173671886Y-102107823D01*
X173822177Y-102258114D01*
X173998902Y-102376198D01*
X174195267Y-102457535D01*
X174403728Y-102499000D01*
X174616272Y-102499000D01*
X174824733Y-102457535D01*
X175021098Y-102376198D01*
X175197823Y-102258114D01*
X175348114Y-102107823D01*
X175466198Y-101931098D01*
X175547535Y-101734733D01*
X175589000Y-101526272D01*
X175589000Y-101313728D01*
X175547535Y-101105267D01*
X175466198Y-100908902D01*
X175348114Y-100732177D01*
X175197823Y-100581886D01*
X175021098Y-100463802D01*
X174824733Y-100382465D01*
X174616272Y-100341000D01*
X174403728Y-100341000D01*
X174195267Y-100382465D01*
X173998902Y-100463802D01*
X173822177Y-100581886D01*
X173671886Y-100732177D01*
X173553802Y-100908902D01*
X173472465Y-101105267D01*
X173431000Y-101313728D01*
X172525284Y-101313728D01*
X174001669Y-99837344D01*
X174195267Y-99917535D01*
X174403728Y-99959000D01*
X174616272Y-99959000D01*
X174824733Y-99917535D01*
X175021098Y-99836198D01*
X175197823Y-99718114D01*
X175348114Y-99567823D01*
X175466198Y-99391098D01*
X175547535Y-99194733D01*
X175589000Y-98986272D01*
X175589000Y-98773728D01*
X175547535Y-98565267D01*
X175466198Y-98368902D01*
X175348114Y-98192177D01*
X175197823Y-98041886D01*
X175021098Y-97923802D01*
X174824733Y-97842465D01*
X174616272Y-97801000D01*
X174403728Y-97801000D01*
X174195267Y-97842465D01*
X173998902Y-97923802D01*
X173822177Y-98041886D01*
X173671886Y-98192177D01*
X173553802Y-98368902D01*
X173472465Y-98565267D01*
X173431000Y-98773728D01*
X173431000Y-98986272D01*
X173472465Y-99194733D01*
X173552656Y-99388331D01*
X173313828Y-99627159D01*
X173272064Y-99564655D01*
X173205345Y-99497936D01*
X173126892Y-99445515D01*
X173039719Y-99409407D01*
X172947177Y-99391000D01*
X172852823Y-99391000D01*
X172760281Y-99409407D01*
X172673108Y-99445515D01*
X172594655Y-99497936D01*
X172527936Y-99564655D01*
X172475515Y-99643108D01*
X172439407Y-99730281D01*
X172421000Y-99822823D01*
X172421000Y-99899987D01*
X171068488Y-101252500D01*
X166615596Y-101252500D01*
X166600000Y-101250964D01*
X166584404Y-101252500D01*
X166537759Y-101257094D01*
X166477910Y-101275249D01*
X166422753Y-101304731D01*
X166374407Y-101344407D01*
X166364465Y-101356522D01*
X165818488Y-101902500D01*
X163933430Y-101902500D01*
X163942214Y-101891797D01*
X163965800Y-101847672D01*
X163980324Y-101799793D01*
X163985228Y-101750000D01*
X163985228Y-101636416D01*
X163999000Y-101567177D01*
X163999000Y-101472823D01*
X163985228Y-101403584D01*
X163985228Y-101280000D01*
X163980324Y-101230207D01*
X163965800Y-101182328D01*
X163942214Y-101138203D01*
X163910473Y-101099527D01*
X163871797Y-101067786D01*
X163827672Y-101044200D01*
X163779793Y-101029676D01*
X163730000Y-101024772D01*
X163290000Y-101024772D01*
X163240207Y-101029676D01*
X163192328Y-101044200D01*
X163148203Y-101067786D01*
X163130228Y-101082538D01*
X163130228Y-100745000D01*
X163125324Y-100695207D01*
X163110800Y-100647328D01*
X163087214Y-100603203D01*
X163055473Y-100564527D01*
X163016797Y-100532786D01*
X162972672Y-100509200D01*
X162924793Y-100494676D01*
X162875000Y-100489772D01*
X161880228Y-100489772D01*
X161880228Y-99495000D01*
X161875324Y-99445207D01*
X161860800Y-99397328D01*
X161837214Y-99353203D01*
X161805473Y-99314527D01*
X161766797Y-99282786D01*
X161722672Y-99259200D01*
X161674793Y-99244676D01*
X161625000Y-99239772D01*
X161275000Y-99239772D01*
X161225207Y-99244676D01*
X161177328Y-99259200D01*
X161133203Y-99282786D01*
X161125000Y-99289518D01*
X161116797Y-99282786D01*
X161072672Y-99259200D01*
X161024793Y-99244676D01*
X160975000Y-99239772D01*
X160625000Y-99239772D01*
X160575207Y-99244676D01*
X160527328Y-99259200D01*
X160483203Y-99282786D01*
X160444527Y-99314527D01*
X160412786Y-99353203D01*
X160389200Y-99397328D01*
X160374676Y-99445207D01*
X160369772Y-99495000D01*
X160369772Y-100514772D01*
X159930228Y-100514772D01*
X159930228Y-99495000D01*
X159925324Y-99445207D01*
X159912868Y-99404145D01*
X160262312Y-99054701D01*
X160333239Y-99040593D01*
X160420412Y-99004485D01*
X160498865Y-98952064D01*
X160565584Y-98885345D01*
X160618005Y-98806892D01*
X160654113Y-98719719D01*
X160672520Y-98627177D01*
X160672520Y-98536668D01*
X160730281Y-98560593D01*
X160822823Y-98579000D01*
X160917177Y-98579000D01*
X161009719Y-98560593D01*
X161096892Y-98524485D01*
X161175345Y-98472064D01*
X161242064Y-98405345D01*
X161294485Y-98326892D01*
X161330593Y-98239719D01*
X161349000Y-98147177D01*
X161349000Y-98052823D01*
X161330593Y-97960281D01*
X161294485Y-97873108D01*
X161242064Y-97794655D01*
X161175345Y-97727936D01*
X161096892Y-97675515D01*
X161009719Y-97639407D01*
X160917177Y-97621000D01*
X160825228Y-97621000D01*
X160825228Y-97110000D01*
X160820324Y-97060207D01*
X160805800Y-97012328D01*
X160782214Y-96968203D01*
X160750473Y-96929527D01*
X160711797Y-96897786D01*
X160667672Y-96874200D01*
X160619793Y-96859676D01*
X160570000Y-96854772D01*
X159950000Y-96854772D01*
X159900207Y-96859676D01*
X159852328Y-96874200D01*
X159808203Y-96897786D01*
X159769527Y-96929527D01*
X159737786Y-96968203D01*
X159714200Y-97012328D01*
X159699676Y-97060207D01*
X159694772Y-97110000D01*
X159694772Y-97152141D01*
X159671797Y-97133286D01*
X159627672Y-97109700D01*
X159579793Y-97095176D01*
X159530000Y-97090272D01*
X159130000Y-97090272D01*
X159080207Y-97095176D01*
X159032328Y-97109700D01*
X158988203Y-97133286D01*
X158949527Y-97165027D01*
X158917786Y-97203703D01*
X158915189Y-97208561D01*
X158877177Y-97201000D01*
X158782823Y-97201000D01*
X158693385Y-97218790D01*
X158657672Y-97199700D01*
X158609793Y-97185176D01*
X158560000Y-97180272D01*
X158286999Y-97180272D01*
X158286999Y-95962022D01*
X158326059Y-95954253D01*
X158413232Y-95918145D01*
X158491685Y-95865724D01*
X158558404Y-95799005D01*
X158610825Y-95720552D01*
X158646933Y-95633379D01*
X158665340Y-95540837D01*
X158665340Y-95446483D01*
X158646933Y-95353941D01*
X158623555Y-95297500D01*
X158680040Y-95297500D01*
X159332753Y-95950213D01*
X159335748Y-95960088D01*
X159365230Y-96015245D01*
X159404906Y-96063591D01*
X159453252Y-96103267D01*
X159508409Y-96132749D01*
X159568258Y-96150904D01*
X159614903Y-96155498D01*
X159653956Y-96155498D01*
X159669549Y-96157034D01*
X159685142Y-96155498D01*
X159833611Y-96155498D01*
X159888175Y-96210062D01*
X159966628Y-96262483D01*
X160053801Y-96298591D01*
X160146343Y-96316998D01*
X160240697Y-96316998D01*
X160333239Y-96298591D01*
X160420412Y-96262483D01*
X160498865Y-96210062D01*
X160565584Y-96143343D01*
X160618005Y-96064890D01*
X160654113Y-95977717D01*
X160672520Y-95885175D01*
X160672520Y-95790821D01*
X160654113Y-95698279D01*
X160618005Y-95611106D01*
X160565584Y-95532653D01*
X160498865Y-95465934D01*
X160420412Y-95413513D01*
X160333239Y-95377405D01*
X160240697Y-95358998D01*
X160146343Y-95358998D01*
X160053801Y-95377405D01*
X159966628Y-95413513D01*
X159888175Y-95465934D01*
X159833611Y-95520498D01*
X159801063Y-95520498D01*
X159412074Y-95131510D01*
X162822498Y-95131510D01*
X163435502Y-95744515D01*
X163435501Y-96717405D01*
X163433965Y-96733001D01*
X163435501Y-96748596D01*
X163440095Y-96795241D01*
X163458250Y-96855090D01*
X163487732Y-96910247D01*
X163527408Y-96958594D01*
X163539531Y-96968543D01*
X165001000Y-98430013D01*
X165001000Y-98507177D01*
X165019407Y-98599719D01*
X165055515Y-98686892D01*
X165107936Y-98765345D01*
X165174655Y-98832064D01*
X165253108Y-98884485D01*
X165340281Y-98920593D01*
X165432823Y-98939000D01*
X165527177Y-98939000D01*
X165619719Y-98920593D01*
X165706892Y-98884485D01*
X165785345Y-98832064D01*
X165852064Y-98765345D01*
X165904485Y-98686892D01*
X165940593Y-98599719D01*
X165959000Y-98507177D01*
X165959000Y-98412823D01*
X165940593Y-98320281D01*
X165904485Y-98233108D01*
X165852064Y-98154655D01*
X165785345Y-98087936D01*
X165706892Y-98035515D01*
X165619719Y-97999407D01*
X165527177Y-97981000D01*
X165450013Y-97981000D01*
X165431836Y-97962823D01*
X171311000Y-97962823D01*
X171311000Y-98057177D01*
X171329407Y-98149719D01*
X171365515Y-98236892D01*
X171417936Y-98315345D01*
X171484655Y-98382064D01*
X171563108Y-98434485D01*
X171650281Y-98470593D01*
X171742823Y-98489000D01*
X171837177Y-98489000D01*
X171929719Y-98470593D01*
X172016892Y-98434485D01*
X172095345Y-98382064D01*
X172162064Y-98315345D01*
X172214485Y-98236892D01*
X172250593Y-98149719D01*
X172269000Y-98057177D01*
X172269000Y-97962823D01*
X172250593Y-97870281D01*
X172214485Y-97783108D01*
X172192340Y-97749966D01*
X172234485Y-97686892D01*
X172270593Y-97599719D01*
X172289000Y-97507177D01*
X172289000Y-97412823D01*
X172270593Y-97320281D01*
X172234485Y-97233108D01*
X172182064Y-97154655D01*
X172115345Y-97087936D01*
X172036892Y-97035515D01*
X171949719Y-96999407D01*
X171857177Y-96981000D01*
X171762823Y-96981000D01*
X171670281Y-96999407D01*
X171583108Y-97035515D01*
X171504655Y-97087936D01*
X171437936Y-97154655D01*
X171385515Y-97233108D01*
X171349407Y-97320281D01*
X171331000Y-97412823D01*
X171331000Y-97507177D01*
X171349407Y-97599719D01*
X171385515Y-97686892D01*
X171407660Y-97720034D01*
X171365515Y-97783108D01*
X171329407Y-97870281D01*
X171311000Y-97962823D01*
X165431836Y-97962823D01*
X164070501Y-96601489D01*
X164070501Y-95667605D01*
X164087707Y-95672824D01*
X164137500Y-95677728D01*
X165862500Y-95677728D01*
X165912293Y-95672824D01*
X165960172Y-95658300D01*
X166004297Y-95634714D01*
X166042973Y-95602973D01*
X166074714Y-95564297D01*
X166098300Y-95520172D01*
X166112824Y-95472293D01*
X166117728Y-95422500D01*
X166117728Y-93697500D01*
X166112824Y-93647707D01*
X166098300Y-93599828D01*
X166074714Y-93555703D01*
X166042973Y-93517027D01*
X166004297Y-93485286D01*
X165960172Y-93461700D01*
X165912293Y-93447176D01*
X165862500Y-93442272D01*
X164137500Y-93442272D01*
X164087707Y-93447176D01*
X164039828Y-93461700D01*
X163995703Y-93485286D01*
X163957027Y-93517027D01*
X163925286Y-93555703D01*
X163901700Y-93599828D01*
X163887176Y-93647707D01*
X163882272Y-93697500D01*
X163882272Y-94242500D01*
X159241513Y-94242500D01*
X158625542Y-93626530D01*
X158615593Y-93614407D01*
X158584634Y-93589000D01*
X158649017Y-93589000D01*
X158741559Y-93570593D01*
X158828732Y-93534485D01*
X158907185Y-93482064D01*
X158973904Y-93415345D01*
X159026325Y-93336892D01*
X159062433Y-93249719D01*
X159080840Y-93157177D01*
X159080840Y-93062823D01*
X159062433Y-92970281D01*
X159026325Y-92883108D01*
X158973904Y-92804655D01*
X158907185Y-92737936D01*
X158828732Y-92685515D01*
X158741559Y-92649407D01*
X158649017Y-92631000D01*
X158554663Y-92631000D01*
X158462121Y-92649407D01*
X158374948Y-92685515D01*
X158296495Y-92737936D01*
X158241931Y-92792500D01*
X157735596Y-92792500D01*
X157720000Y-92790964D01*
X157704404Y-92792500D01*
X157657759Y-92797094D01*
X157597910Y-92815249D01*
X157542753Y-92844731D01*
X157509465Y-92872049D01*
X157431774Y-92872049D01*
X157339232Y-92890456D01*
X157252059Y-92926564D01*
X157173606Y-92978985D01*
X157106887Y-93045704D01*
X157054466Y-93124157D01*
X157018358Y-93211330D01*
X157010169Y-93252500D01*
X154355452Y-93252500D01*
X154322800Y-93242595D01*
X154276155Y-93238001D01*
X154260559Y-93236465D01*
X154244963Y-93238001D01*
X153170091Y-93238001D01*
X153154498Y-93236465D01*
X153138905Y-93238001D01*
X153138903Y-93238001D01*
X153092258Y-93242595D01*
X153032409Y-93260750D01*
X152977252Y-93290232D01*
X152928906Y-93329908D01*
X152918962Y-93342025D01*
X152576525Y-93684463D01*
X152564408Y-93694407D01*
X152524732Y-93742753D01*
X152522330Y-93747247D01*
X152495249Y-93797911D01*
X152477094Y-93857760D01*
X152470964Y-93920000D01*
X152472501Y-93935606D01*
X152472500Y-95788092D01*
X152467214Y-95778203D01*
X152435473Y-95739527D01*
X152396797Y-95707786D01*
X152352672Y-95684200D01*
X152304793Y-95669676D01*
X152255000Y-95664772D01*
X151305000Y-95664772D01*
X151255207Y-95669676D01*
X151207328Y-95684200D01*
X151163203Y-95707786D01*
X151124527Y-95739527D01*
X151092786Y-95778203D01*
X151069200Y-95822328D01*
X151054676Y-95870207D01*
X151049772Y-95920000D01*
X151049772Y-96220000D01*
X151054676Y-96269793D01*
X151069200Y-96317672D01*
X151070444Y-96320000D01*
X151069200Y-96322328D01*
X151054676Y-96370207D01*
X151049772Y-96420000D01*
X151049772Y-96720000D01*
X151054676Y-96769793D01*
X151069200Y-96817672D01*
X151070444Y-96820000D01*
X151069200Y-96822328D01*
X151054676Y-96870207D01*
X151049772Y-96920000D01*
X151049772Y-97220000D01*
X151054676Y-97269793D01*
X151069200Y-97317672D01*
X151070444Y-97320000D01*
X151069200Y-97322328D01*
X151054676Y-97370207D01*
X151049772Y-97420000D01*
X151049772Y-97720000D01*
X151054676Y-97769793D01*
X151069200Y-97817672D01*
X151070444Y-97820000D01*
X151069200Y-97822328D01*
X151054676Y-97870207D01*
X151049772Y-97920000D01*
X151049772Y-98220000D01*
X151054676Y-98269793D01*
X151069200Y-98317672D01*
X151070444Y-98320000D01*
X151069200Y-98322328D01*
X151054676Y-98370207D01*
X151049772Y-98420000D01*
X151049772Y-98720000D01*
X151054676Y-98769793D01*
X151069200Y-98817672D01*
X151070444Y-98820000D01*
X151069200Y-98822328D01*
X151054676Y-98870207D01*
X151049772Y-98920000D01*
X151049772Y-99220000D01*
X151054676Y-99269793D01*
X151069200Y-99317672D01*
X151092786Y-99361797D01*
X151124527Y-99400473D01*
X151163203Y-99432214D01*
X151207328Y-99455800D01*
X151255207Y-99470324D01*
X151305000Y-99475228D01*
X152242500Y-99475228D01*
X152242500Y-99564404D01*
X152240964Y-99580000D01*
X152242194Y-99592485D01*
X152164299Y-99607979D01*
X152077126Y-99644087D01*
X152046169Y-99664772D01*
X151305000Y-99664772D01*
X151255207Y-99669676D01*
X151207328Y-99684200D01*
X151163203Y-99707786D01*
X151124527Y-99739527D01*
X151092786Y-99778203D01*
X151069200Y-99822328D01*
X151054676Y-99870207D01*
X151049772Y-99920000D01*
X151049772Y-100220000D01*
X151054676Y-100269793D01*
X151069200Y-100317672D01*
X151070444Y-100320000D01*
X151069200Y-100322328D01*
X151054676Y-100370207D01*
X151049772Y-100420000D01*
X151049772Y-100720000D01*
X151054676Y-100769793D01*
X151069200Y-100817672D01*
X151070444Y-100820000D01*
X151069200Y-100822328D01*
X151054676Y-100870207D01*
X151049772Y-100920000D01*
X151049772Y-101220000D01*
X151051932Y-101241932D01*
X151030000Y-101239772D01*
X150730000Y-101239772D01*
X150680207Y-101244676D01*
X150632328Y-101259200D01*
X150630000Y-101260444D01*
X150627672Y-101259200D01*
X150579793Y-101244676D01*
X150530000Y-101239772D01*
X150230000Y-101239772D01*
X150180207Y-101244676D01*
X150132328Y-101259200D01*
X150130000Y-101260444D01*
X150127672Y-101259200D01*
X150079793Y-101244676D01*
X150030000Y-101239772D01*
X149730000Y-101239772D01*
X149680207Y-101244676D01*
X149632328Y-101259200D01*
X149630000Y-101260444D01*
X149627672Y-101259200D01*
X149579793Y-101244676D01*
X149530000Y-101239772D01*
X149230000Y-101239772D01*
X149180207Y-101244676D01*
X149132328Y-101259200D01*
X149130000Y-101260444D01*
X149127672Y-101259200D01*
X149079793Y-101244676D01*
X149030000Y-101239772D01*
X148730000Y-101239772D01*
X148680207Y-101244676D01*
X148632328Y-101259200D01*
X148630000Y-101260444D01*
X148627672Y-101259200D01*
X148579793Y-101244676D01*
X148530000Y-101239772D01*
X148230000Y-101239772D01*
X148180207Y-101244676D01*
X148132328Y-101259200D01*
X148088203Y-101282786D01*
X148049527Y-101314527D01*
X148017786Y-101353203D01*
X147994200Y-101397328D01*
X147979676Y-101445207D01*
X147974772Y-101495000D01*
X147974772Y-102445000D01*
X147979676Y-102494793D01*
X147994200Y-102542672D01*
X148009517Y-102571328D01*
X147999527Y-102579527D01*
X147967786Y-102618203D01*
X147944200Y-102662328D01*
X147929676Y-102710207D01*
X147924772Y-102760000D01*
X147924772Y-103200000D01*
X147928890Y-103241811D01*
X147896285Y-103241811D01*
X147880689Y-103240275D01*
X147865093Y-103241811D01*
X147818448Y-103246405D01*
X147758599Y-103264560D01*
X147703442Y-103294042D01*
X147655096Y-103333718D01*
X147645154Y-103345833D01*
X147079198Y-103911789D01*
X147055345Y-103887936D01*
X146976892Y-103835515D01*
X146889719Y-103799407D01*
X146797177Y-103781000D01*
X146702823Y-103781000D01*
X146610281Y-103799407D01*
X146523108Y-103835515D01*
X146444655Y-103887936D01*
X146377936Y-103954655D01*
X146325515Y-104033108D01*
X146289407Y-104120281D01*
X146271000Y-104212823D01*
X146271000Y-104307177D01*
X146289407Y-104399719D01*
X146325515Y-104486892D01*
X146377936Y-104565345D01*
X146444655Y-104632064D01*
X146523108Y-104684485D01*
X146610281Y-104720593D01*
X146702823Y-104739000D01*
X146797177Y-104739000D01*
X146858001Y-104726902D01*
X146858002Y-107217797D01*
X146856465Y-107233403D01*
X146862595Y-107295643D01*
X146880750Y-107355492D01*
X146884379Y-107362281D01*
X146910233Y-107410650D01*
X146949909Y-107458996D01*
X146962026Y-107468940D01*
X147161059Y-107667974D01*
X147171004Y-107680092D01*
X147195762Y-107700410D01*
X147219350Y-107719768D01*
X147274507Y-107749250D01*
X147334356Y-107767405D01*
X147351683Y-107769112D01*
X147341000Y-107822823D01*
X147341000Y-107917177D01*
X147359407Y-108009719D01*
X147395515Y-108096892D01*
X147447936Y-108175345D01*
X147502500Y-108229909D01*
X147502500Y-108446149D01*
X147480470Y-108452800D01*
X147457475Y-108459568D01*
X147456681Y-108459983D01*
X147455827Y-108460241D01*
X147434674Y-108471488D01*
X147424851Y-108476624D01*
X147418523Y-108473202D01*
X147397455Y-108461620D01*
X147396599Y-108461349D01*
X147395816Y-108460925D01*
X147372928Y-108453840D01*
X147350017Y-108446572D01*
X147349129Y-108446472D01*
X147348275Y-108446208D01*
X147324379Y-108443697D01*
X147300560Y-108441025D01*
X147298846Y-108441013D01*
X147298780Y-108441006D01*
X147298714Y-108441012D01*
X147297000Y-108441000D01*
X147280062Y-108441000D01*
X147280593Y-108439719D01*
X147299000Y-108347177D01*
X147299000Y-108252823D01*
X147280593Y-108160281D01*
X147244485Y-108073108D01*
X147192064Y-107994655D01*
X147125345Y-107927936D01*
X147046892Y-107875515D01*
X146959719Y-107839407D01*
X146867177Y-107821000D01*
X146772823Y-107821000D01*
X146680281Y-107839407D01*
X146593108Y-107875515D01*
X146514655Y-107927936D01*
X146447936Y-107994655D01*
X146395515Y-108073108D01*
X146359407Y-108160281D01*
X146341000Y-108252823D01*
X146341000Y-108347177D01*
X146359407Y-108439719D01*
X146359938Y-108441000D01*
X146283000Y-108441000D01*
X146259081Y-108443345D01*
X146235218Y-108445517D01*
X146234364Y-108445768D01*
X146233470Y-108445856D01*
X146210470Y-108452800D01*
X146187475Y-108459568D01*
X146186681Y-108459983D01*
X146185827Y-108460241D01*
X146164674Y-108471488D01*
X146154851Y-108476624D01*
X146148523Y-108473202D01*
X146127455Y-108461620D01*
X146126599Y-108461349D01*
X146125816Y-108460925D01*
X146102928Y-108453840D01*
X146080017Y-108446572D01*
X146079129Y-108446472D01*
X146078275Y-108446208D01*
X146054379Y-108443697D01*
X146030560Y-108441025D01*
X146028846Y-108441013D01*
X146028780Y-108441006D01*
X146028714Y-108441012D01*
X146027000Y-108441000D01*
X145032639Y-108441000D01*
X145037500Y-108416562D01*
X145037500Y-108261438D01*
X145007236Y-108109295D01*
X144947873Y-107965979D01*
X144861691Y-107836998D01*
X144752002Y-107727309D01*
X144623021Y-107641127D01*
X144479705Y-107581764D01*
X144327562Y-107551500D01*
X144172438Y-107551500D01*
X144020295Y-107581764D01*
X143876979Y-107641127D01*
X143747998Y-107727309D01*
X143638309Y-107836998D01*
X143552127Y-107965979D01*
X143492764Y-108109295D01*
X143462500Y-108261438D01*
X143462500Y-108416562D01*
X143492764Y-108568705D01*
X143534514Y-108669500D01*
X143422946Y-108669500D01*
X143295339Y-108694883D01*
X143175136Y-108744672D01*
X143066956Y-108816956D01*
X142974956Y-108908956D01*
X142902672Y-109017136D01*
X142897432Y-109029786D01*
X135304000Y-109026146D01*
X135304000Y-106497500D01*
X140912272Y-106497500D01*
X140912272Y-108222500D01*
X140917176Y-108272293D01*
X140931700Y-108320172D01*
X140955286Y-108364297D01*
X140987027Y-108402973D01*
X141025703Y-108434714D01*
X141069828Y-108458300D01*
X141117707Y-108472824D01*
X141167500Y-108477728D01*
X142892500Y-108477728D01*
X142942293Y-108472824D01*
X142990172Y-108458300D01*
X143034297Y-108434714D01*
X143072973Y-108402973D01*
X143104714Y-108364297D01*
X143128300Y-108320172D01*
X143142824Y-108272293D01*
X143147728Y-108222500D01*
X143147728Y-106497500D01*
X143142824Y-106447707D01*
X143128300Y-106399828D01*
X143104714Y-106355703D01*
X143072973Y-106317027D01*
X143034297Y-106285286D01*
X142990172Y-106261700D01*
X142942293Y-106247176D01*
X142892500Y-106242272D01*
X141167500Y-106242272D01*
X141117707Y-106247176D01*
X141069828Y-106261700D01*
X141025703Y-106285286D01*
X140987027Y-106317027D01*
X140955286Y-106355703D01*
X140931700Y-106399828D01*
X140917176Y-106447707D01*
X140912272Y-106497500D01*
X135304000Y-106497500D01*
X135304000Y-103903728D01*
X136191000Y-103903728D01*
X136191000Y-104116272D01*
X136232465Y-104324733D01*
X136313802Y-104521098D01*
X136431886Y-104697823D01*
X136582177Y-104848114D01*
X136758902Y-104966198D01*
X136955267Y-105047535D01*
X137163728Y-105089000D01*
X137376272Y-105089000D01*
X137584733Y-105047535D01*
X137781098Y-104966198D01*
X137957823Y-104848114D01*
X138108114Y-104697823D01*
X138226198Y-104521098D01*
X138307535Y-104324733D01*
X138349000Y-104116272D01*
X138349000Y-103903728D01*
X138324951Y-103782823D01*
X140071000Y-103782823D01*
X140071000Y-103877177D01*
X140089407Y-103969719D01*
X140125515Y-104056892D01*
X140177936Y-104135345D01*
X140244655Y-104202064D01*
X140323108Y-104254485D01*
X140410281Y-104290593D01*
X140502823Y-104309000D01*
X140579988Y-104309000D01*
X141144463Y-104873476D01*
X141154407Y-104885593D01*
X141202753Y-104925269D01*
X141257910Y-104954751D01*
X141317759Y-104972906D01*
X141364404Y-104977500D01*
X141373199Y-104978366D01*
X141379999Y-104979036D01*
X141380000Y-104979036D01*
X141395596Y-104977500D01*
X141712817Y-104977500D01*
X141717786Y-104986797D01*
X141749527Y-105025473D01*
X141788203Y-105057214D01*
X141832328Y-105080800D01*
X141859415Y-105089017D01*
X141842328Y-105094200D01*
X141798203Y-105117786D01*
X141759527Y-105149527D01*
X141727786Y-105188203D01*
X141704200Y-105232328D01*
X141689676Y-105280207D01*
X141684772Y-105330000D01*
X141684772Y-105770000D01*
X141689676Y-105819793D01*
X141704200Y-105867672D01*
X141727786Y-105911797D01*
X141759527Y-105950473D01*
X141798203Y-105982214D01*
X141842328Y-106005800D01*
X141890207Y-106020324D01*
X141940000Y-106025228D01*
X142410000Y-106025228D01*
X142459793Y-106020324D01*
X142507672Y-106005800D01*
X142551797Y-105982214D01*
X142590473Y-105950473D01*
X142622214Y-105911797D01*
X142645800Y-105867672D01*
X142660324Y-105819793D01*
X142665228Y-105770000D01*
X142665228Y-105330000D01*
X142660324Y-105280207D01*
X142645800Y-105232328D01*
X142622214Y-105188203D01*
X142590473Y-105149527D01*
X142551797Y-105117786D01*
X142547500Y-105115489D01*
X142547500Y-105098504D01*
X142579793Y-105095324D01*
X142627672Y-105080800D01*
X142671797Y-105057214D01*
X142710473Y-105025473D01*
X142742214Y-104986797D01*
X142765800Y-104942672D01*
X142780324Y-104894793D01*
X142785228Y-104845000D01*
X142785228Y-104495000D01*
X143774772Y-104495000D01*
X143774772Y-104845000D01*
X143779676Y-104894793D01*
X143794200Y-104942672D01*
X143817786Y-104986797D01*
X143849527Y-105025473D01*
X143888203Y-105057214D01*
X143932328Y-105080800D01*
X143980207Y-105095324D01*
X143988667Y-105096157D01*
X143948203Y-105117786D01*
X143909527Y-105149527D01*
X143877786Y-105188203D01*
X143854200Y-105232328D01*
X143839676Y-105280207D01*
X143834772Y-105330000D01*
X143834772Y-105770000D01*
X143839676Y-105819793D01*
X143854200Y-105867672D01*
X143877786Y-105911797D01*
X143909527Y-105950473D01*
X143948203Y-105982214D01*
X143992328Y-106005800D01*
X144040207Y-106020324D01*
X144090000Y-106025228D01*
X144554288Y-106025228D01*
X144583108Y-106044485D01*
X144670281Y-106080593D01*
X144762823Y-106099000D01*
X144857177Y-106099000D01*
X144949719Y-106080593D01*
X145036892Y-106044485D01*
X145115345Y-105992064D01*
X145182064Y-105925345D01*
X145234485Y-105846892D01*
X145270593Y-105759719D01*
X145289000Y-105667177D01*
X145289000Y-105572823D01*
X145270593Y-105480281D01*
X145234485Y-105393108D01*
X145224067Y-105377517D01*
X145224485Y-105376892D01*
X145260593Y-105289719D01*
X145279000Y-105197177D01*
X145279000Y-105102823D01*
X145260593Y-105010281D01*
X145224485Y-104923108D01*
X145222408Y-104920000D01*
X145224485Y-104916892D01*
X145260593Y-104829719D01*
X145279000Y-104737177D01*
X145279000Y-104642823D01*
X145260593Y-104550281D01*
X145224485Y-104463108D01*
X145172064Y-104384655D01*
X145105345Y-104317936D01*
X145026892Y-104265515D01*
X144939719Y-104229407D01*
X144847177Y-104211000D01*
X144752823Y-104211000D01*
X144660281Y-104229407D01*
X144634248Y-104240190D01*
X144630000Y-104239772D01*
X144030000Y-104239772D01*
X143980207Y-104244676D01*
X143932328Y-104259200D01*
X143888203Y-104282786D01*
X143849527Y-104314527D01*
X143817786Y-104353203D01*
X143794200Y-104397328D01*
X143779676Y-104445207D01*
X143774772Y-104495000D01*
X142785228Y-104495000D01*
X142780324Y-104445207D01*
X142765800Y-104397328D01*
X142742214Y-104353203D01*
X142710473Y-104314527D01*
X142671797Y-104282786D01*
X142627672Y-104259200D01*
X142579793Y-104244676D01*
X142530000Y-104239772D01*
X142323263Y-104239772D01*
X142316892Y-104235515D01*
X142229719Y-104199407D01*
X142137177Y-104181000D01*
X142042823Y-104181000D01*
X141950281Y-104199407D01*
X141863108Y-104235515D01*
X141808997Y-104271671D01*
X141788203Y-104282786D01*
X141749527Y-104314527D01*
X141726570Y-104342500D01*
X141686154Y-104342500D01*
X141674751Y-104304910D01*
X141645269Y-104249753D01*
X141605593Y-104201407D01*
X141557246Y-104161731D01*
X141502089Y-104132249D01*
X141442240Y-104114094D01*
X141380000Y-104107964D01*
X141317759Y-104114094D01*
X141291172Y-104122159D01*
X141029000Y-103859988D01*
X141029000Y-103800013D01*
X141141513Y-103687500D01*
X141718363Y-103687500D01*
X141749527Y-103725473D01*
X141788203Y-103757214D01*
X141832328Y-103780800D01*
X141880207Y-103795324D01*
X141930000Y-103800228D01*
X142016973Y-103800228D01*
X142090281Y-103830593D01*
X142182823Y-103849000D01*
X142277177Y-103849000D01*
X142369719Y-103830593D01*
X142443027Y-103800228D01*
X142530000Y-103800228D01*
X142579793Y-103795324D01*
X142627672Y-103780800D01*
X142671797Y-103757214D01*
X142710473Y-103725473D01*
X142742214Y-103686797D01*
X142765800Y-103642672D01*
X142780324Y-103594793D01*
X142785228Y-103545000D01*
X142785228Y-103195000D01*
X142780324Y-103145207D01*
X142765800Y-103097328D01*
X142742214Y-103053203D01*
X142710473Y-103014527D01*
X142671797Y-102982786D01*
X142627672Y-102959200D01*
X142579793Y-102944676D01*
X142530000Y-102939772D01*
X142443027Y-102939772D01*
X142369719Y-102909407D01*
X142277177Y-102891000D01*
X142182823Y-102891000D01*
X142090281Y-102909407D01*
X142016973Y-102939772D01*
X141930000Y-102939772D01*
X141880207Y-102944676D01*
X141832328Y-102959200D01*
X141788203Y-102982786D01*
X141749527Y-103014527D01*
X141718363Y-103052500D01*
X141025592Y-103052500D01*
X141009999Y-103050964D01*
X140994406Y-103052500D01*
X140994404Y-103052500D01*
X140947759Y-103057094D01*
X140887910Y-103075249D01*
X140832753Y-103104731D01*
X140784407Y-103144407D01*
X140774465Y-103156522D01*
X140579987Y-103351000D01*
X140502823Y-103351000D01*
X140410281Y-103369407D01*
X140323108Y-103405515D01*
X140244655Y-103457936D01*
X140177936Y-103524655D01*
X140125515Y-103603108D01*
X140089407Y-103690281D01*
X140071000Y-103782823D01*
X138324951Y-103782823D01*
X138307535Y-103695267D01*
X138226198Y-103498902D01*
X138108114Y-103322177D01*
X137957823Y-103171886D01*
X137781098Y-103053802D01*
X137584733Y-102972465D01*
X137376272Y-102931000D01*
X137163728Y-102931000D01*
X136955267Y-102972465D01*
X136758902Y-103053802D01*
X136582177Y-103171886D01*
X136431886Y-103322177D01*
X136313802Y-103498902D01*
X136232465Y-103695267D01*
X136191000Y-103903728D01*
X135304000Y-103903728D01*
X135304000Y-101363728D01*
X136191000Y-101363728D01*
X136191000Y-101576272D01*
X136232465Y-101784733D01*
X136313802Y-101981098D01*
X136431886Y-102157823D01*
X136582177Y-102308114D01*
X136758902Y-102426198D01*
X136955267Y-102507535D01*
X137163728Y-102549000D01*
X137376272Y-102549000D01*
X137584733Y-102507535D01*
X137781098Y-102426198D01*
X137957823Y-102308114D01*
X138108114Y-102157823D01*
X138226198Y-101981098D01*
X138306389Y-101787500D01*
X139944404Y-101787500D01*
X139960000Y-101789036D01*
X139975596Y-101787500D01*
X140022241Y-101782906D01*
X140082090Y-101764751D01*
X140137247Y-101735269D01*
X140185593Y-101695593D01*
X140195542Y-101683470D01*
X140243512Y-101635500D01*
X141635264Y-101635500D01*
X141639676Y-101680293D01*
X141654200Y-101728172D01*
X141655177Y-101730000D01*
X141654200Y-101731828D01*
X141639676Y-101779707D01*
X141634772Y-101829500D01*
X141634772Y-102454500D01*
X141639676Y-102504293D01*
X141654200Y-102552172D01*
X141677786Y-102596297D01*
X141709527Y-102634973D01*
X141748203Y-102666714D01*
X141792328Y-102690300D01*
X141840207Y-102704824D01*
X141890000Y-102709728D01*
X142290000Y-102709728D01*
X142339793Y-102704824D01*
X142387672Y-102690300D01*
X142431797Y-102666714D01*
X142470473Y-102634973D01*
X142502214Y-102596297D01*
X142525800Y-102552172D01*
X142540324Y-102504293D01*
X142544736Y-102459500D01*
X143919790Y-102459500D01*
X145043765Y-103583476D01*
X145053709Y-103595593D01*
X145102055Y-103635269D01*
X145157212Y-103664751D01*
X145217061Y-103682906D01*
X145263706Y-103687500D01*
X145263708Y-103687500D01*
X145279301Y-103689036D01*
X145294894Y-103687500D01*
X146066404Y-103687500D01*
X146082000Y-103689036D01*
X146097596Y-103687500D01*
X146144241Y-103682906D01*
X146204090Y-103664751D01*
X146259247Y-103635269D01*
X146307593Y-103595593D01*
X146317542Y-103583470D01*
X146593084Y-103307929D01*
X146599407Y-103339719D01*
X146635515Y-103426892D01*
X146687936Y-103505345D01*
X146754655Y-103572064D01*
X146833108Y-103624485D01*
X146920281Y-103660593D01*
X147012823Y-103679000D01*
X147107177Y-103679000D01*
X147199719Y-103660593D01*
X147286892Y-103624485D01*
X147365345Y-103572064D01*
X147432064Y-103505345D01*
X147484485Y-103426892D01*
X147520593Y-103339719D01*
X147539000Y-103247177D01*
X147539000Y-103152823D01*
X147520593Y-103060281D01*
X147484485Y-102973108D01*
X147457737Y-102933077D01*
X147593477Y-102797338D01*
X147605593Y-102787395D01*
X147645269Y-102739049D01*
X147674751Y-102683892D01*
X147686505Y-102645143D01*
X147710473Y-102625473D01*
X147742214Y-102586797D01*
X147765800Y-102542672D01*
X147780324Y-102494793D01*
X147785228Y-102445000D01*
X147785228Y-101495000D01*
X147780324Y-101445207D01*
X147765800Y-101397328D01*
X147742214Y-101353203D01*
X147710473Y-101314527D01*
X147671797Y-101282786D01*
X147627672Y-101259200D01*
X147579793Y-101244676D01*
X147530000Y-101239772D01*
X147230000Y-101239772D01*
X147180207Y-101244676D01*
X147132328Y-101259200D01*
X147130000Y-101260444D01*
X147127672Y-101259200D01*
X147079793Y-101244676D01*
X147030000Y-101239772D01*
X146730000Y-101239772D01*
X146680207Y-101244676D01*
X146632328Y-101259200D01*
X146630000Y-101260444D01*
X146627672Y-101259200D01*
X146579793Y-101244676D01*
X146530000Y-101239772D01*
X146230000Y-101239772D01*
X146180207Y-101244676D01*
X146132328Y-101259200D01*
X146130000Y-101260444D01*
X146127672Y-101259200D01*
X146079793Y-101244676D01*
X146030000Y-101239772D01*
X145730000Y-101239772D01*
X145708068Y-101241932D01*
X145710228Y-101220000D01*
X145710228Y-100920000D01*
X145705324Y-100870207D01*
X145690800Y-100822328D01*
X145667214Y-100778203D01*
X145635473Y-100739527D01*
X145596797Y-100707786D01*
X145552672Y-100684200D01*
X145504793Y-100669676D01*
X145455000Y-100664772D01*
X144568500Y-100664772D01*
X144570593Y-100659719D01*
X144589000Y-100567177D01*
X144589000Y-100475228D01*
X145455000Y-100475228D01*
X145504793Y-100470324D01*
X145552672Y-100455800D01*
X145596797Y-100432214D01*
X145635473Y-100400473D01*
X145667214Y-100361797D01*
X145690800Y-100317672D01*
X145705324Y-100269793D01*
X145710228Y-100220000D01*
X145710228Y-99920000D01*
X145705324Y-99870207D01*
X145690800Y-99822328D01*
X145689556Y-99820000D01*
X145690800Y-99817672D01*
X145705324Y-99769793D01*
X145710228Y-99720000D01*
X145710228Y-99420000D01*
X145705324Y-99370207D01*
X145690800Y-99322328D01*
X145689556Y-99320000D01*
X145690800Y-99317672D01*
X145705324Y-99269793D01*
X145710228Y-99220000D01*
X145710228Y-98920000D01*
X145705324Y-98870207D01*
X145690800Y-98822328D01*
X145689556Y-98820000D01*
X145690800Y-98817672D01*
X145705324Y-98769793D01*
X145710228Y-98720000D01*
X145710228Y-98420000D01*
X145705324Y-98370207D01*
X145690800Y-98322328D01*
X145689556Y-98320000D01*
X145690800Y-98317672D01*
X145705324Y-98269793D01*
X145710228Y-98220000D01*
X145710228Y-97920000D01*
X145705324Y-97870207D01*
X145690800Y-97822328D01*
X145689556Y-97820000D01*
X145690800Y-97817672D01*
X145705324Y-97769793D01*
X145710228Y-97720000D01*
X145710228Y-97420000D01*
X145705324Y-97370207D01*
X145690800Y-97322328D01*
X145689556Y-97320000D01*
X145690800Y-97317672D01*
X145705324Y-97269793D01*
X145710228Y-97220000D01*
X145710228Y-96920000D01*
X145705324Y-96870207D01*
X145690800Y-96822328D01*
X145667214Y-96778203D01*
X145635473Y-96739527D01*
X145596797Y-96707786D01*
X145552672Y-96684200D01*
X145504793Y-96669676D01*
X145455000Y-96664772D01*
X144505000Y-96664772D01*
X144455207Y-96669676D01*
X144407328Y-96684200D01*
X144363203Y-96707786D01*
X144324527Y-96739527D01*
X144292786Y-96778203D01*
X144269200Y-96822328D01*
X144254676Y-96870207D01*
X144249772Y-96920000D01*
X144249772Y-97220000D01*
X144254676Y-97269793D01*
X144269200Y-97317672D01*
X144270444Y-97320000D01*
X144269200Y-97322328D01*
X144254676Y-97370207D01*
X144249772Y-97420000D01*
X144249772Y-97720000D01*
X144254676Y-97769793D01*
X144269200Y-97817672D01*
X144270444Y-97820000D01*
X144269200Y-97822328D01*
X144254676Y-97870207D01*
X144249772Y-97920000D01*
X144249772Y-98220000D01*
X144254676Y-98269793D01*
X144269200Y-98317672D01*
X144270444Y-98320000D01*
X144269200Y-98322328D01*
X144254676Y-98370207D01*
X144249772Y-98420000D01*
X144249772Y-98720000D01*
X144254676Y-98769793D01*
X144269200Y-98817672D01*
X144270444Y-98820000D01*
X144269200Y-98822328D01*
X144254676Y-98870207D01*
X144249772Y-98920000D01*
X144249772Y-99220000D01*
X144254676Y-99269793D01*
X144269200Y-99317672D01*
X144270444Y-99320000D01*
X144269200Y-99322328D01*
X144254676Y-99370207D01*
X144249772Y-99420000D01*
X144249772Y-99720000D01*
X144254676Y-99769793D01*
X144269200Y-99817672D01*
X144270444Y-99820000D01*
X144269200Y-99822328D01*
X144254676Y-99870207D01*
X144249772Y-99920000D01*
X144249772Y-100059429D01*
X144249719Y-100059407D01*
X144157177Y-100041000D01*
X144062823Y-100041000D01*
X143970281Y-100059407D01*
X143883108Y-100095515D01*
X143804655Y-100147936D01*
X143737936Y-100214655D01*
X143685515Y-100293108D01*
X143649407Y-100380281D01*
X143631000Y-100472823D01*
X143631000Y-100567177D01*
X143649407Y-100659719D01*
X143685515Y-100746892D01*
X143737936Y-100825345D01*
X143804655Y-100892064D01*
X143805758Y-100892801D01*
X143815249Y-100924089D01*
X143844731Y-100979246D01*
X143884407Y-101027593D01*
X143896529Y-101037541D01*
X144060501Y-101201513D01*
X144060500Y-101732404D01*
X144058964Y-101748000D01*
X144060500Y-101763595D01*
X144065094Y-101810240D01*
X144069497Y-101824756D01*
X144066898Y-101824500D01*
X144051302Y-101822964D01*
X144035706Y-101824500D01*
X142544736Y-101824500D01*
X142540324Y-101779707D01*
X142525800Y-101731828D01*
X142524823Y-101730000D01*
X142525800Y-101728172D01*
X142540324Y-101680293D01*
X142545228Y-101630500D01*
X142545228Y-101005500D01*
X142540324Y-100955707D01*
X142525800Y-100907828D01*
X142502214Y-100863703D01*
X142470473Y-100825027D01*
X142431797Y-100793286D01*
X142387672Y-100769700D01*
X142339793Y-100755176D01*
X142290000Y-100750272D01*
X141890000Y-100750272D01*
X141840207Y-100755176D01*
X141792328Y-100769700D01*
X141748203Y-100793286D01*
X141709527Y-100825027D01*
X141677786Y-100863703D01*
X141654200Y-100907828D01*
X141639676Y-100955707D01*
X141635264Y-101000500D01*
X140127592Y-101000500D01*
X140111999Y-100998964D01*
X140096406Y-101000500D01*
X140096404Y-101000500D01*
X140049759Y-101005094D01*
X139989910Y-101023249D01*
X139934753Y-101052731D01*
X139886407Y-101092407D01*
X139876458Y-101104530D01*
X139828488Y-101152500D01*
X138306389Y-101152500D01*
X138226198Y-100958902D01*
X138108114Y-100782177D01*
X137957823Y-100631886D01*
X137781098Y-100513802D01*
X137584733Y-100432465D01*
X137376272Y-100391000D01*
X137163728Y-100391000D01*
X136955267Y-100432465D01*
X136758902Y-100513802D01*
X136582177Y-100631886D01*
X136431886Y-100782177D01*
X136313802Y-100958902D01*
X136232465Y-101155267D01*
X136191000Y-101363728D01*
X135304000Y-101363728D01*
X135304000Y-98823728D01*
X136191000Y-98823728D01*
X136191000Y-99036272D01*
X136232465Y-99244733D01*
X136313802Y-99441098D01*
X136431886Y-99617823D01*
X136582177Y-99768114D01*
X136758902Y-99886198D01*
X136955267Y-99967535D01*
X137163728Y-100009000D01*
X137376272Y-100009000D01*
X137584733Y-99967535D01*
X137781098Y-99886198D01*
X137957823Y-99768114D01*
X138108114Y-99617823D01*
X138129712Y-99585500D01*
X141635264Y-99585500D01*
X141639676Y-99630293D01*
X141654200Y-99678172D01*
X141655177Y-99680000D01*
X141654200Y-99681828D01*
X141639676Y-99729707D01*
X141634772Y-99779500D01*
X141634772Y-100404500D01*
X141639676Y-100454293D01*
X141654200Y-100502172D01*
X141677786Y-100546297D01*
X141709527Y-100584973D01*
X141748203Y-100616714D01*
X141792328Y-100640300D01*
X141840207Y-100654824D01*
X141890000Y-100659728D01*
X142290000Y-100659728D01*
X142339793Y-100654824D01*
X142387672Y-100640300D01*
X142431797Y-100616714D01*
X142470473Y-100584973D01*
X142502214Y-100546297D01*
X142525800Y-100502172D01*
X142540324Y-100454293D01*
X142540774Y-100449728D01*
X142577936Y-100505345D01*
X142644655Y-100572064D01*
X142723108Y-100624485D01*
X142810281Y-100660593D01*
X142902823Y-100679000D01*
X142997177Y-100679000D01*
X143089719Y-100660593D01*
X143176892Y-100624485D01*
X143255345Y-100572064D01*
X143322064Y-100505345D01*
X143374485Y-100426892D01*
X143410593Y-100339719D01*
X143429000Y-100247177D01*
X143429000Y-100152823D01*
X143410593Y-100060281D01*
X143374485Y-99973108D01*
X143322064Y-99894655D01*
X143255345Y-99827936D01*
X143176892Y-99775515D01*
X143089719Y-99739407D01*
X142997177Y-99721000D01*
X142902823Y-99721000D01*
X142810281Y-99739407D01*
X142725558Y-99774500D01*
X142544736Y-99774500D01*
X142540324Y-99729707D01*
X142525800Y-99681828D01*
X142524823Y-99680000D01*
X142525800Y-99678172D01*
X142540324Y-99630293D01*
X142545228Y-99580500D01*
X142545228Y-98955500D01*
X142540324Y-98905707D01*
X142525800Y-98857828D01*
X142502214Y-98813703D01*
X142470473Y-98775027D01*
X142431797Y-98743286D01*
X142387672Y-98719700D01*
X142339793Y-98705176D01*
X142290000Y-98700272D01*
X141890000Y-98700272D01*
X141840207Y-98705176D01*
X141792328Y-98719700D01*
X141748203Y-98743286D01*
X141709527Y-98775027D01*
X141677786Y-98813703D01*
X141654200Y-98857828D01*
X141639676Y-98905707D01*
X141635264Y-98950500D01*
X138349000Y-98950500D01*
X138349000Y-98823728D01*
X138307535Y-98615267D01*
X138226198Y-98418902D01*
X138108114Y-98242177D01*
X137957823Y-98091886D01*
X137781098Y-97973802D01*
X137584733Y-97892465D01*
X137376272Y-97851000D01*
X137163728Y-97851000D01*
X136955267Y-97892465D01*
X136758902Y-97973802D01*
X136582177Y-98091886D01*
X136431886Y-98242177D01*
X136313802Y-98418902D01*
X136232465Y-98615267D01*
X136191000Y-98823728D01*
X135304000Y-98823728D01*
X135304000Y-92054000D01*
X148130121Y-92054000D01*
X148114731Y-92072754D01*
G37*
X148114731Y-92072754D02*
X148094288Y-92111000D01*
X148085917Y-92126662D01*
X148007177Y-92111000D01*
X147912823Y-92111000D01*
X147820281Y-92129407D01*
X147733108Y-92165515D01*
X147654655Y-92217936D01*
X147587936Y-92284655D01*
X147535515Y-92363108D01*
X147499407Y-92450281D01*
X147481000Y-92542823D01*
X147481000Y-92637177D01*
X147499407Y-92729719D01*
X147535515Y-92816892D01*
X147587936Y-92895345D01*
X147642500Y-92949909D01*
X147642501Y-94456114D01*
X147632328Y-94459200D01*
X147630000Y-94460444D01*
X147627672Y-94459200D01*
X147579793Y-94444676D01*
X147530000Y-94439772D01*
X147230000Y-94439772D01*
X147180207Y-94444676D01*
X147132328Y-94459200D01*
X147130000Y-94460444D01*
X147127672Y-94459200D01*
X147079793Y-94444676D01*
X147030000Y-94439772D01*
X146730000Y-94439772D01*
X146680207Y-94444676D01*
X146632328Y-94459200D01*
X146630000Y-94460444D01*
X146627672Y-94459200D01*
X146579793Y-94444676D01*
X146530000Y-94439772D01*
X146230000Y-94439772D01*
X146180207Y-94444676D01*
X146132328Y-94459200D01*
X146130000Y-94460444D01*
X146127672Y-94459200D01*
X146079793Y-94444676D01*
X146030000Y-94439772D01*
X145730000Y-94439772D01*
X145680207Y-94444676D01*
X145632328Y-94459200D01*
X145588203Y-94482786D01*
X145549527Y-94514527D01*
X145517786Y-94553203D01*
X145494200Y-94597328D01*
X145479676Y-94645207D01*
X145474772Y-94695000D01*
X145474772Y-95645000D01*
X145476932Y-95666932D01*
X145455000Y-95664772D01*
X145076783Y-95664772D01*
X145031998Y-95619987D01*
X145031998Y-95542823D01*
X145013591Y-95450281D01*
X144977483Y-95363108D01*
X144925062Y-95284655D01*
X144858343Y-95217936D01*
X144779890Y-95165515D01*
X144692717Y-95129407D01*
X144600175Y-95111000D01*
X144505821Y-95111000D01*
X144413279Y-95129407D01*
X144326106Y-95165515D01*
X144247653Y-95217936D01*
X144180934Y-95284655D01*
X144128513Y-95363108D01*
X144092405Y-95450281D01*
X144073998Y-95542823D01*
X144073998Y-95637177D01*
X144092405Y-95729719D01*
X144128513Y-95816892D01*
X144180934Y-95895345D01*
X144247653Y-95962064D01*
X144249772Y-95963480D01*
X144249772Y-96220000D01*
X144254676Y-96269793D01*
X144269200Y-96317672D01*
X144292786Y-96361797D01*
X144324527Y-96400473D01*
X144363203Y-96432214D01*
X144407328Y-96455800D01*
X144455207Y-96470324D01*
X144505000Y-96475228D01*
X145455000Y-96475228D01*
X145504793Y-96470324D01*
X145552672Y-96455800D01*
X145596797Y-96432214D01*
X145635473Y-96400473D01*
X145667214Y-96361797D01*
X145690800Y-96317672D01*
X145705324Y-96269793D01*
X145710228Y-96220000D01*
X145710228Y-95920000D01*
X145708068Y-95898068D01*
X145730000Y-95900228D01*
X146030000Y-95900228D01*
X146079793Y-95895324D01*
X146127672Y-95880800D01*
X146130000Y-95879556D01*
X146132328Y-95880800D01*
X146180207Y-95895324D01*
X146230000Y-95900228D01*
X146530000Y-95900228D01*
X146579793Y-95895324D01*
X146627672Y-95880800D01*
X146630000Y-95879556D01*
X146632328Y-95880800D01*
X146680207Y-95895324D01*
X146730000Y-95900228D01*
X147030000Y-95900228D01*
X147079793Y-95895324D01*
X147127672Y-95880800D01*
X147130000Y-95879556D01*
X147132328Y-95880800D01*
X147180207Y-95895324D01*
X147230000Y-95900228D01*
X147530000Y-95900228D01*
X147579793Y-95895324D01*
X147627672Y-95880800D01*
X147630000Y-95879556D01*
X147632328Y-95880800D01*
X147680207Y-95895324D01*
X147730000Y-95900228D01*
X148030000Y-95900228D01*
X148079793Y-95895324D01*
X148127672Y-95880800D01*
X148130000Y-95879556D01*
X148132328Y-95880800D01*
X148180207Y-95895324D01*
X148230000Y-95900228D01*
X148530000Y-95900228D01*
X148579793Y-95895324D01*
X148627672Y-95880800D01*
X148630000Y-95879556D01*
X148632328Y-95880800D01*
X148680207Y-95895324D01*
X148730000Y-95900228D01*
X149030000Y-95900228D01*
X149079793Y-95895324D01*
X149127672Y-95880800D01*
X149130000Y-95879556D01*
X149132328Y-95880800D01*
X149180207Y-95895324D01*
X149230000Y-95900228D01*
X149530000Y-95900228D01*
X149579793Y-95895324D01*
X149627672Y-95880800D01*
X149630000Y-95879556D01*
X149632328Y-95880800D01*
X149680207Y-95895324D01*
X149730000Y-95900228D01*
X150030000Y-95900228D01*
X150079793Y-95895324D01*
X150127672Y-95880800D01*
X150130000Y-95879556D01*
X150132328Y-95880800D01*
X150180207Y-95895324D01*
X150230000Y-95900228D01*
X150530000Y-95900228D01*
X150579793Y-95895324D01*
X150627672Y-95880800D01*
X150671797Y-95857214D01*
X150710473Y-95825473D01*
X150742214Y-95786797D01*
X150765800Y-95742672D01*
X150780324Y-95694793D01*
X150785228Y-95645000D01*
X150785228Y-94777601D01*
X150816892Y-94764485D01*
X150895345Y-94712064D01*
X150962064Y-94645345D01*
X151014485Y-94566892D01*
X151050593Y-94479719D01*
X151069000Y-94387177D01*
X151069000Y-94292823D01*
X151050593Y-94200281D01*
X151014485Y-94113108D01*
X150962064Y-94034655D01*
X150895345Y-93967936D01*
X150816892Y-93915515D01*
X150729719Y-93879407D01*
X150637177Y-93861000D01*
X150542823Y-93861000D01*
X150450281Y-93879407D01*
X150363108Y-93915515D01*
X150284655Y-93967936D01*
X150217936Y-94034655D01*
X150205353Y-94053487D01*
X150184485Y-94003108D01*
X150132064Y-93924655D01*
X150065345Y-93857936D01*
X149986892Y-93805515D01*
X149899719Y-93769407D01*
X149807177Y-93751000D01*
X149712823Y-93751000D01*
X149620281Y-93769407D01*
X149533108Y-93805515D01*
X149454655Y-93857936D01*
X149387936Y-93924655D01*
X149335515Y-94003108D01*
X149299407Y-94090281D01*
X149281000Y-94182823D01*
X149281000Y-94277177D01*
X149299407Y-94369719D01*
X149328424Y-94439772D01*
X149230000Y-94439772D01*
X149180207Y-94444676D01*
X149132328Y-94459200D01*
X149130000Y-94460444D01*
X149127672Y-94459200D01*
X149079793Y-94444676D01*
X149030000Y-94439772D01*
X148730000Y-94439772D01*
X148697500Y-94442973D01*
X148697500Y-92639000D01*
X148707177Y-92639000D01*
X148799719Y-92620593D01*
X148886892Y-92584485D01*
X148965345Y-92532064D01*
X149032064Y-92465345D01*
X149084485Y-92386892D01*
X149120593Y-92299719D01*
X149139000Y-92207177D01*
X149139000Y-92112823D01*
X149127300Y-92054000D01*
X176406173Y-92054000D01*
X176415828Y-109045855D01*
X165394035Y-109040571D01*
X165384328Y-109017136D01*
X165312044Y-108908956D01*
X165220044Y-108816956D01*
X165111864Y-108744672D01*
X164991661Y-108694883D01*
X164864054Y-108669500D01*
X164733946Y-108669500D01*
X164606339Y-108694883D01*
X164486136Y-108744672D01*
X164377956Y-108816956D01*
X164285956Y-108908956D01*
X164213672Y-109017136D01*
X164204201Y-109040001D01*
X163666093Y-109039743D01*
X163673021Y-109036873D01*
X163802002Y-108950691D01*
X163911691Y-108841002D01*
X163997873Y-108712021D01*
X164057236Y-108568705D01*
X164087500Y-108416562D01*
X164087500Y-108261438D01*
X164057236Y-108109295D01*
X163997873Y-107965979D01*
X163911691Y-107836998D01*
X163802002Y-107727309D01*
X163673021Y-107641127D01*
X163529705Y-107581764D01*
X163377562Y-107551500D01*
X163222438Y-107551500D01*
X163070295Y-107581764D01*
X162926979Y-107641127D01*
X162797998Y-107727309D01*
X162688309Y-107836998D01*
X162602127Y-107965979D01*
X162542764Y-108109295D01*
X162512500Y-108261438D01*
X162512500Y-108416562D01*
X162517361Y-108441000D01*
X161523000Y-108441000D01*
X161499081Y-108443345D01*
X161475218Y-108445517D01*
X161474364Y-108445768D01*
X161473470Y-108445856D01*
X161450470Y-108452800D01*
X161427475Y-108459568D01*
X161426681Y-108459983D01*
X161425827Y-108460241D01*
X161404674Y-108471488D01*
X161394851Y-108476624D01*
X161388523Y-108473202D01*
X161367455Y-108461620D01*
X161366599Y-108461349D01*
X161365816Y-108460925D01*
X161342928Y-108453840D01*
X161320017Y-108446572D01*
X161319129Y-108446472D01*
X161318275Y-108446208D01*
X161294379Y-108443697D01*
X161270560Y-108441025D01*
X161268846Y-108441013D01*
X161268780Y-108441006D01*
X161268714Y-108441012D01*
X161267000Y-108441000D01*
X160253000Y-108441000D01*
X160229081Y-108443345D01*
X160205218Y-108445517D01*
X160204364Y-108445768D01*
X160203470Y-108445856D01*
X160180470Y-108452800D01*
X160157475Y-108459568D01*
X160156681Y-108459983D01*
X160155827Y-108460241D01*
X160134674Y-108471488D01*
X160124851Y-108476624D01*
X160118523Y-108473202D01*
X160097455Y-108461620D01*
X160096599Y-108461349D01*
X160095816Y-108460925D01*
X160072928Y-108453840D01*
X160050017Y-108446572D01*
X160049129Y-108446472D01*
X160048275Y-108446208D01*
X160024379Y-108443697D01*
X160000560Y-108441025D01*
X159998846Y-108441013D01*
X159998780Y-108441006D01*
X159998714Y-108441012D01*
X159997000Y-108441000D01*
X158983000Y-108441000D01*
X158959081Y-108443345D01*
X158935218Y-108445517D01*
X158934364Y-108445768D01*
X158933470Y-108445856D01*
X158910470Y-108452800D01*
X158887475Y-108459568D01*
X158886681Y-108459983D01*
X158885827Y-108460241D01*
X158864674Y-108471488D01*
X158854851Y-108476624D01*
X158848523Y-108473202D01*
X158827455Y-108461620D01*
X158826599Y-108461349D01*
X158825816Y-108460925D01*
X158802928Y-108453840D01*
X158780017Y-108446572D01*
X158779129Y-108446472D01*
X158778275Y-108446208D01*
X158754379Y-108443697D01*
X158730560Y-108441025D01*
X158728846Y-108441013D01*
X158728780Y-108441006D01*
X158728714Y-108441012D01*
X158727000Y-108441000D01*
X157713000Y-108441000D01*
X157689081Y-108443345D01*
X157665218Y-108445517D01*
X157664364Y-108445768D01*
X157663470Y-108445856D01*
X157640470Y-108452800D01*
X157617475Y-108459568D01*
X157616681Y-108459983D01*
X157615827Y-108460241D01*
X157594674Y-108471488D01*
X157584851Y-108476624D01*
X157578523Y-108473202D01*
X157557455Y-108461620D01*
X157556599Y-108461349D01*
X157555816Y-108460925D01*
X157532928Y-108453840D01*
X157510017Y-108446572D01*
X157509129Y-108446472D01*
X157508275Y-108446208D01*
X157484379Y-108443697D01*
X157460560Y-108441025D01*
X157458846Y-108441013D01*
X157458780Y-108441006D01*
X157458714Y-108441012D01*
X157457000Y-108441000D01*
X156443000Y-108441000D01*
X156419081Y-108443345D01*
X156395218Y-108445517D01*
X156394364Y-108445768D01*
X156393470Y-108445856D01*
X156370470Y-108452800D01*
X156347475Y-108459568D01*
X156346681Y-108459983D01*
X156345827Y-108460241D01*
X156324674Y-108471488D01*
X156314851Y-108476624D01*
X156308523Y-108473202D01*
X156287455Y-108461620D01*
X156286599Y-108461349D01*
X156285816Y-108460925D01*
X156262928Y-108453840D01*
X156240017Y-108446572D01*
X156239129Y-108446472D01*
X156238275Y-108446208D01*
X156214379Y-108443697D01*
X156190560Y-108441025D01*
X156188846Y-108441013D01*
X156188780Y-108441006D01*
X156188714Y-108441012D01*
X156187000Y-108441000D01*
X155173000Y-108441000D01*
X155149081Y-108443345D01*
X155125218Y-108445517D01*
X155124364Y-108445768D01*
X155123470Y-108445856D01*
X155100470Y-108452800D01*
X155077475Y-108459568D01*
X155076681Y-108459983D01*
X155075827Y-108460241D01*
X155054674Y-108471488D01*
X155044851Y-108476624D01*
X155038523Y-108473202D01*
X155017455Y-108461620D01*
X155016599Y-108461349D01*
X155015816Y-108460925D01*
X155006723Y-108458110D01*
X155025776Y-108439057D01*
X155078197Y-108360604D01*
X155114305Y-108273431D01*
X155132712Y-108180889D01*
X155132712Y-108086535D01*
X155114305Y-107993993D01*
X155078197Y-107906820D01*
X155025776Y-107828367D01*
X154959057Y-107761648D01*
X154880604Y-107709227D01*
X154834777Y-107690245D01*
X154844542Y-107678346D01*
X155410013Y-107112876D01*
X155487177Y-107112876D01*
X155579719Y-107094469D01*
X155666892Y-107058361D01*
X155745345Y-107005940D01*
X155812064Y-106939221D01*
X155864485Y-106860768D01*
X155900593Y-106773595D01*
X155919000Y-106681053D01*
X155919000Y-106586699D01*
X155900593Y-106494157D01*
X155864485Y-106406984D01*
X155812064Y-106328531D01*
X155745345Y-106261812D01*
X155666892Y-106209391D01*
X155579719Y-106173283D01*
X155487177Y-106154876D01*
X155392823Y-106154876D01*
X155315228Y-106170310D01*
X155315228Y-106063784D01*
X155713477Y-105665536D01*
X155725593Y-105655593D01*
X155765269Y-105607247D01*
X155794751Y-105552090D01*
X155812906Y-105492241D01*
X155817500Y-105445596D01*
X155817500Y-105445594D01*
X155819036Y-105430001D01*
X155817500Y-105414408D01*
X155817500Y-105191512D01*
X155871513Y-105137500D01*
X155913363Y-105137500D01*
X155944527Y-105175473D01*
X155983203Y-105207214D01*
X156027328Y-105230800D01*
X156075207Y-105245324D01*
X156125000Y-105250228D01*
X157119772Y-105250228D01*
X157119772Y-106245000D01*
X157124676Y-106294793D01*
X157139200Y-106342672D01*
X157162786Y-106386797D01*
X157194527Y-106425473D01*
X157233203Y-106457214D01*
X157277328Y-106480800D01*
X157325207Y-106495324D01*
X157375000Y-106500228D01*
X157725000Y-106500228D01*
X157774793Y-106495324D01*
X157822672Y-106480800D01*
X157866797Y-106457214D01*
X157875000Y-106450482D01*
X157883203Y-106457214D01*
X157927328Y-106480800D01*
X157975207Y-106495324D01*
X158025000Y-106500228D01*
X158375000Y-106500228D01*
X158404959Y-106497277D01*
X158387786Y-106518203D01*
X158364200Y-106562328D01*
X158349676Y-106610207D01*
X158344772Y-106660000D01*
X158344772Y-107100000D01*
X158349676Y-107149793D01*
X158364200Y-107197672D01*
X158387786Y-107241797D01*
X158419527Y-107280473D01*
X158458203Y-107312214D01*
X158502328Y-107335800D01*
X158550207Y-107350324D01*
X158600000Y-107355228D01*
X158768859Y-107355228D01*
X158787823Y-107359000D01*
X158882177Y-107359000D01*
X158901141Y-107355228D01*
X159070000Y-107355228D01*
X159119793Y-107350324D01*
X159167672Y-107335800D01*
X159211797Y-107312214D01*
X159250473Y-107280473D01*
X159282214Y-107241797D01*
X159305800Y-107197672D01*
X159320324Y-107149793D01*
X159325228Y-107100000D01*
X159325228Y-106660000D01*
X159320324Y-106610207D01*
X159305800Y-106562328D01*
X159282214Y-106518203D01*
X159259536Y-106490570D01*
X159275207Y-106495324D01*
X159325000Y-106500228D01*
X159675000Y-106500228D01*
X159724793Y-106495324D01*
X159772672Y-106480800D01*
X159816797Y-106457214D01*
X159825000Y-106450482D01*
X159832501Y-106456638D01*
X159832501Y-106814395D01*
X159830964Y-106830000D01*
X159837094Y-106892240D01*
X159855249Y-106952089D01*
X159863826Y-106968135D01*
X159884732Y-107007247D01*
X159924408Y-107055593D01*
X159936525Y-107065537D01*
X160034458Y-107163470D01*
X160044407Y-107175593D01*
X160092753Y-107215269D01*
X160147910Y-107244751D01*
X160183457Y-107255534D01*
X160207759Y-107262906D01*
X160270000Y-107269036D01*
X160285596Y-107267500D01*
X161604404Y-107267500D01*
X161620000Y-107269036D01*
X161635596Y-107267500D01*
X161682241Y-107262906D01*
X161742090Y-107244751D01*
X161797247Y-107215269D01*
X161845593Y-107175593D01*
X161855542Y-107163470D01*
X162453477Y-106565536D01*
X162465593Y-106555593D01*
X162505269Y-106507247D01*
X162534751Y-106452090D01*
X162552906Y-106392241D01*
X162557500Y-106345596D01*
X162557500Y-106345594D01*
X162559036Y-106330001D01*
X162557500Y-106314408D01*
X162557500Y-105801512D01*
X162691513Y-105667500D01*
X163624404Y-105667500D01*
X163640000Y-105669036D01*
X163655596Y-105667500D01*
X163702241Y-105662906D01*
X163762090Y-105644751D01*
X163817247Y-105615269D01*
X163865593Y-105575593D01*
X163875542Y-105563470D01*
X163994334Y-105444678D01*
X163985286Y-105455703D01*
X163961700Y-105499828D01*
X163947176Y-105547707D01*
X163942272Y-105597500D01*
X163942272Y-107322500D01*
X163947176Y-107372293D01*
X163961700Y-107420172D01*
X163985286Y-107464297D01*
X164017027Y-107502973D01*
X164055703Y-107534714D01*
X164099828Y-107558300D01*
X164147707Y-107572824D01*
X164197500Y-107577728D01*
X165922500Y-107577728D01*
X165972293Y-107572824D01*
X166020172Y-107558300D01*
X166064297Y-107534714D01*
X166102973Y-107502973D01*
X166134714Y-107464297D01*
X166158300Y-107420172D01*
X166172824Y-107372293D01*
X166177728Y-107322500D01*
X166177728Y-105597500D01*
X166172824Y-105547707D01*
X166158300Y-105499828D01*
X166134714Y-105455703D01*
X166102973Y-105417027D01*
X166064297Y-105385286D01*
X166020172Y-105361700D01*
X165972293Y-105347176D01*
X165922500Y-105342272D01*
X164197500Y-105342272D01*
X164147707Y-105347176D01*
X164099828Y-105361700D01*
X164055703Y-105385286D01*
X164044678Y-105394334D01*
X164853477Y-104585536D01*
X164865593Y-104575593D01*
X164905269Y-104527247D01*
X164934751Y-104472090D01*
X164952906Y-104412241D01*
X164957500Y-104365596D01*
X164957500Y-104365595D01*
X164959036Y-104350000D01*
X164957500Y-104334404D01*
X164957500Y-103853728D01*
X173431000Y-103853728D01*
X173431000Y-104066272D01*
X173472465Y-104274733D01*
X173553802Y-104471098D01*
X173671886Y-104647823D01*
X173822177Y-104798114D01*
X173998902Y-104916198D01*
X174195267Y-104997535D01*
X174403728Y-105039000D01*
X174616272Y-105039000D01*
X174824733Y-104997535D01*
X175021098Y-104916198D01*
X175197823Y-104798114D01*
X175348114Y-104647823D01*
X175466198Y-104471098D01*
X175547535Y-104274733D01*
X175589000Y-104066272D01*
X175589000Y-103853728D01*
X175547535Y-103645267D01*
X175466198Y-103448902D01*
X175348114Y-103272177D01*
X175197823Y-103121886D01*
X175021098Y-103003802D01*
X174824733Y-102922465D01*
X174616272Y-102881000D01*
X174403728Y-102881000D01*
X174195267Y-102922465D01*
X173998902Y-103003802D01*
X173822177Y-103121886D01*
X173671886Y-103272177D01*
X173553802Y-103448902D01*
X173472465Y-103645267D01*
X173431000Y-103853728D01*
X164957500Y-103853728D01*
X164957500Y-103631512D01*
X165110012Y-103479000D01*
X165187177Y-103479000D01*
X165279719Y-103460593D01*
X165366892Y-103424485D01*
X165445345Y-103372064D01*
X165512064Y-103305345D01*
X165564485Y-103226892D01*
X165600593Y-103139719D01*
X165619000Y-103047177D01*
X165619000Y-102952823D01*
X165602029Y-102867500D01*
X168124404Y-102867500D01*
X168140000Y-102869036D01*
X168155596Y-102867500D01*
X168202241Y-102862906D01*
X168262090Y-102844751D01*
X168317247Y-102815269D01*
X168365593Y-102775593D01*
X168375541Y-102763471D01*
X168597014Y-102541999D01*
X171149905Y-102541999D01*
X171165501Y-102543535D01*
X171181097Y-102541999D01*
X171227742Y-102537405D01*
X171287591Y-102519250D01*
X171342748Y-102489768D01*
X171391094Y-102450092D01*
X171401043Y-102437969D01*
X172525284Y-101313728D01*
X173431000Y-101313728D01*
X173431000Y-101526272D01*
X173472465Y-101734733D01*
X173553802Y-101931098D01*
X173671886Y-102107823D01*
X173822177Y-102258114D01*
X173998902Y-102376198D01*
X174195267Y-102457535D01*
X174403728Y-102499000D01*
X174616272Y-102499000D01*
X174824733Y-102457535D01*
X175021098Y-102376198D01*
X175197823Y-102258114D01*
X175348114Y-102107823D01*
X175466198Y-101931098D01*
X175547535Y-101734733D01*
X175589000Y-101526272D01*
X175589000Y-101313728D01*
X175547535Y-101105267D01*
X175466198Y-100908902D01*
X175348114Y-100732177D01*
X175197823Y-100581886D01*
X175021098Y-100463802D01*
X174824733Y-100382465D01*
X174616272Y-100341000D01*
X174403728Y-100341000D01*
X174195267Y-100382465D01*
X173998902Y-100463802D01*
X173822177Y-100581886D01*
X173671886Y-100732177D01*
X173553802Y-100908902D01*
X173472465Y-101105267D01*
X173431000Y-101313728D01*
X172525284Y-101313728D01*
X174001669Y-99837344D01*
X174195267Y-99917535D01*
X174403728Y-99959000D01*
X174616272Y-99959000D01*
X174824733Y-99917535D01*
X175021098Y-99836198D01*
X175197823Y-99718114D01*
X175348114Y-99567823D01*
X175466198Y-99391098D01*
X175547535Y-99194733D01*
X175589000Y-98986272D01*
X175589000Y-98773728D01*
X175547535Y-98565267D01*
X175466198Y-98368902D01*
X175348114Y-98192177D01*
X175197823Y-98041886D01*
X175021098Y-97923802D01*
X174824733Y-97842465D01*
X174616272Y-97801000D01*
X174403728Y-97801000D01*
X174195267Y-97842465D01*
X173998902Y-97923802D01*
X173822177Y-98041886D01*
X173671886Y-98192177D01*
X173553802Y-98368902D01*
X173472465Y-98565267D01*
X173431000Y-98773728D01*
X173431000Y-98986272D01*
X173472465Y-99194733D01*
X173552656Y-99388331D01*
X173313828Y-99627159D01*
X173272064Y-99564655D01*
X173205345Y-99497936D01*
X173126892Y-99445515D01*
X173039719Y-99409407D01*
X172947177Y-99391000D01*
X172852823Y-99391000D01*
X172760281Y-99409407D01*
X172673108Y-99445515D01*
X172594655Y-99497936D01*
X172527936Y-99564655D01*
X172475515Y-99643108D01*
X172439407Y-99730281D01*
X172421000Y-99822823D01*
X172421000Y-99899987D01*
X171068488Y-101252500D01*
X166615596Y-101252500D01*
X166600000Y-101250964D01*
X166584404Y-101252500D01*
X166537759Y-101257094D01*
X166477910Y-101275249D01*
X166422753Y-101304731D01*
X166374407Y-101344407D01*
X166364465Y-101356522D01*
X165818488Y-101902500D01*
X163933430Y-101902500D01*
X163942214Y-101891797D01*
X163965800Y-101847672D01*
X163980324Y-101799793D01*
X163985228Y-101750000D01*
X163985228Y-101636416D01*
X163999000Y-101567177D01*
X163999000Y-101472823D01*
X163985228Y-101403584D01*
X163985228Y-101280000D01*
X163980324Y-101230207D01*
X163965800Y-101182328D01*
X163942214Y-101138203D01*
X163910473Y-101099527D01*
X163871797Y-101067786D01*
X163827672Y-101044200D01*
X163779793Y-101029676D01*
X163730000Y-101024772D01*
X163290000Y-101024772D01*
X163240207Y-101029676D01*
X163192328Y-101044200D01*
X163148203Y-101067786D01*
X163130228Y-101082538D01*
X163130228Y-100745000D01*
X163125324Y-100695207D01*
X163110800Y-100647328D01*
X163087214Y-100603203D01*
X163055473Y-100564527D01*
X163016797Y-100532786D01*
X162972672Y-100509200D01*
X162924793Y-100494676D01*
X162875000Y-100489772D01*
X161880228Y-100489772D01*
X161880228Y-99495000D01*
X161875324Y-99445207D01*
X161860800Y-99397328D01*
X161837214Y-99353203D01*
X161805473Y-99314527D01*
X161766797Y-99282786D01*
X161722672Y-99259200D01*
X161674793Y-99244676D01*
X161625000Y-99239772D01*
X161275000Y-99239772D01*
X161225207Y-99244676D01*
X161177328Y-99259200D01*
X161133203Y-99282786D01*
X161125000Y-99289518D01*
X161116797Y-99282786D01*
X161072672Y-99259200D01*
X161024793Y-99244676D01*
X160975000Y-99239772D01*
X160625000Y-99239772D01*
X160575207Y-99244676D01*
X160527328Y-99259200D01*
X160483203Y-99282786D01*
X160444527Y-99314527D01*
X160412786Y-99353203D01*
X160389200Y-99397328D01*
X160374676Y-99445207D01*
X160369772Y-99495000D01*
X160369772Y-100514772D01*
X159930228Y-100514772D01*
X159930228Y-99495000D01*
X159925324Y-99445207D01*
X159912868Y-99404145D01*
X160262312Y-99054701D01*
X160333239Y-99040593D01*
X160420412Y-99004485D01*
X160498865Y-98952064D01*
X160565584Y-98885345D01*
X160618005Y-98806892D01*
X160654113Y-98719719D01*
X160672520Y-98627177D01*
X160672520Y-98536668D01*
X160730281Y-98560593D01*
X160822823Y-98579000D01*
X160917177Y-98579000D01*
X161009719Y-98560593D01*
X161096892Y-98524485D01*
X161175345Y-98472064D01*
X161242064Y-98405345D01*
X161294485Y-98326892D01*
X161330593Y-98239719D01*
X161349000Y-98147177D01*
X161349000Y-98052823D01*
X161330593Y-97960281D01*
X161294485Y-97873108D01*
X161242064Y-97794655D01*
X161175345Y-97727936D01*
X161096892Y-97675515D01*
X161009719Y-97639407D01*
X160917177Y-97621000D01*
X160825228Y-97621000D01*
X160825228Y-97110000D01*
X160820324Y-97060207D01*
X160805800Y-97012328D01*
X160782214Y-96968203D01*
X160750473Y-96929527D01*
X160711797Y-96897786D01*
X160667672Y-96874200D01*
X160619793Y-96859676D01*
X160570000Y-96854772D01*
X159950000Y-96854772D01*
X159900207Y-96859676D01*
X159852328Y-96874200D01*
X159808203Y-96897786D01*
X159769527Y-96929527D01*
X159737786Y-96968203D01*
X159714200Y-97012328D01*
X159699676Y-97060207D01*
X159694772Y-97110000D01*
X159694772Y-97152141D01*
X159671797Y-97133286D01*
X159627672Y-97109700D01*
X159579793Y-97095176D01*
X159530000Y-97090272D01*
X159130000Y-97090272D01*
X159080207Y-97095176D01*
X159032328Y-97109700D01*
X158988203Y-97133286D01*
X158949527Y-97165027D01*
X158917786Y-97203703D01*
X158915189Y-97208561D01*
X158877177Y-97201000D01*
X158782823Y-97201000D01*
X158693385Y-97218790D01*
X158657672Y-97199700D01*
X158609793Y-97185176D01*
X158560000Y-97180272D01*
X158286999Y-97180272D01*
X158286999Y-95962022D01*
X158326059Y-95954253D01*
X158413232Y-95918145D01*
X158491685Y-95865724D01*
X158558404Y-95799005D01*
X158610825Y-95720552D01*
X158646933Y-95633379D01*
X158665340Y-95540837D01*
X158665340Y-95446483D01*
X158646933Y-95353941D01*
X158623555Y-95297500D01*
X158680040Y-95297500D01*
X159332753Y-95950213D01*
X159335748Y-95960088D01*
X159365230Y-96015245D01*
X159404906Y-96063591D01*
X159453252Y-96103267D01*
X159508409Y-96132749D01*
X159568258Y-96150904D01*
X159614903Y-96155498D01*
X159653956Y-96155498D01*
X159669549Y-96157034D01*
X159685142Y-96155498D01*
X159833611Y-96155498D01*
X159888175Y-96210062D01*
X159966628Y-96262483D01*
X160053801Y-96298591D01*
X160146343Y-96316998D01*
X160240697Y-96316998D01*
X160333239Y-96298591D01*
X160420412Y-96262483D01*
X160498865Y-96210062D01*
X160565584Y-96143343D01*
X160618005Y-96064890D01*
X160654113Y-95977717D01*
X160672520Y-95885175D01*
X160672520Y-95790821D01*
X160654113Y-95698279D01*
X160618005Y-95611106D01*
X160565584Y-95532653D01*
X160498865Y-95465934D01*
X160420412Y-95413513D01*
X160333239Y-95377405D01*
X160240697Y-95358998D01*
X160146343Y-95358998D01*
X160053801Y-95377405D01*
X159966628Y-95413513D01*
X159888175Y-95465934D01*
X159833611Y-95520498D01*
X159801063Y-95520498D01*
X159412074Y-95131510D01*
X162822498Y-95131510D01*
X163435502Y-95744515D01*
X163435501Y-96717405D01*
X163433965Y-96733001D01*
X163435501Y-96748596D01*
X163440095Y-96795241D01*
X163458250Y-96855090D01*
X163487732Y-96910247D01*
X163527408Y-96958594D01*
X163539531Y-96968543D01*
X165001000Y-98430013D01*
X165001000Y-98507177D01*
X165019407Y-98599719D01*
X165055515Y-98686892D01*
X165107936Y-98765345D01*
X165174655Y-98832064D01*
X165253108Y-98884485D01*
X165340281Y-98920593D01*
X165432823Y-98939000D01*
X165527177Y-98939000D01*
X165619719Y-98920593D01*
X165706892Y-98884485D01*
X165785345Y-98832064D01*
X165852064Y-98765345D01*
X165904485Y-98686892D01*
X165940593Y-98599719D01*
X165959000Y-98507177D01*
X165959000Y-98412823D01*
X165940593Y-98320281D01*
X165904485Y-98233108D01*
X165852064Y-98154655D01*
X165785345Y-98087936D01*
X165706892Y-98035515D01*
X165619719Y-97999407D01*
X165527177Y-97981000D01*
X165450013Y-97981000D01*
X165431836Y-97962823D01*
X171311000Y-97962823D01*
X171311000Y-98057177D01*
X171329407Y-98149719D01*
X171365515Y-98236892D01*
X171417936Y-98315345D01*
X171484655Y-98382064D01*
X171563108Y-98434485D01*
X171650281Y-98470593D01*
X171742823Y-98489000D01*
X171837177Y-98489000D01*
X171929719Y-98470593D01*
X172016892Y-98434485D01*
X172095345Y-98382064D01*
X172162064Y-98315345D01*
X172214485Y-98236892D01*
X172250593Y-98149719D01*
X172269000Y-98057177D01*
X172269000Y-97962823D01*
X172250593Y-97870281D01*
X172214485Y-97783108D01*
X172192340Y-97749966D01*
X172234485Y-97686892D01*
X172270593Y-97599719D01*
X172289000Y-97507177D01*
X172289000Y-97412823D01*
X172270593Y-97320281D01*
X172234485Y-97233108D01*
X172182064Y-97154655D01*
X172115345Y-97087936D01*
X172036892Y-97035515D01*
X171949719Y-96999407D01*
X171857177Y-96981000D01*
X171762823Y-96981000D01*
X171670281Y-96999407D01*
X171583108Y-97035515D01*
X171504655Y-97087936D01*
X171437936Y-97154655D01*
X171385515Y-97233108D01*
X171349407Y-97320281D01*
X171331000Y-97412823D01*
X171331000Y-97507177D01*
X171349407Y-97599719D01*
X171385515Y-97686892D01*
X171407660Y-97720034D01*
X171365515Y-97783108D01*
X171329407Y-97870281D01*
X171311000Y-97962823D01*
X165431836Y-97962823D01*
X164070501Y-96601489D01*
X164070501Y-95667605D01*
X164087707Y-95672824D01*
X164137500Y-95677728D01*
X165862500Y-95677728D01*
X165912293Y-95672824D01*
X165960172Y-95658300D01*
X166004297Y-95634714D01*
X166042973Y-95602973D01*
X166074714Y-95564297D01*
X166098300Y-95520172D01*
X166112824Y-95472293D01*
X166117728Y-95422500D01*
X166117728Y-93697500D01*
X166112824Y-93647707D01*
X166098300Y-93599828D01*
X166074714Y-93555703D01*
X166042973Y-93517027D01*
X166004297Y-93485286D01*
X165960172Y-93461700D01*
X165912293Y-93447176D01*
X165862500Y-93442272D01*
X164137500Y-93442272D01*
X164087707Y-93447176D01*
X164039828Y-93461700D01*
X163995703Y-93485286D01*
X163957027Y-93517027D01*
X163925286Y-93555703D01*
X163901700Y-93599828D01*
X163887176Y-93647707D01*
X163882272Y-93697500D01*
X163882272Y-94242500D01*
X159241513Y-94242500D01*
X158625542Y-93626530D01*
X158615593Y-93614407D01*
X158584634Y-93589000D01*
X158649017Y-93589000D01*
X158741559Y-93570593D01*
X158828732Y-93534485D01*
X158907185Y-93482064D01*
X158973904Y-93415345D01*
X159026325Y-93336892D01*
X159062433Y-93249719D01*
X159080840Y-93157177D01*
X159080840Y-93062823D01*
X159062433Y-92970281D01*
X159026325Y-92883108D01*
X158973904Y-92804655D01*
X158907185Y-92737936D01*
X158828732Y-92685515D01*
X158741559Y-92649407D01*
X158649017Y-92631000D01*
X158554663Y-92631000D01*
X158462121Y-92649407D01*
X158374948Y-92685515D01*
X158296495Y-92737936D01*
X158241931Y-92792500D01*
X157735596Y-92792500D01*
X157720000Y-92790964D01*
X157704404Y-92792500D01*
X157657759Y-92797094D01*
X157597910Y-92815249D01*
X157542753Y-92844731D01*
X157509465Y-92872049D01*
X157431774Y-92872049D01*
X157339232Y-92890456D01*
X157252059Y-92926564D01*
X157173606Y-92978985D01*
X157106887Y-93045704D01*
X157054466Y-93124157D01*
X157018358Y-93211330D01*
X157010169Y-93252500D01*
X154355452Y-93252500D01*
X154322800Y-93242595D01*
X154276155Y-93238001D01*
X154260559Y-93236465D01*
X154244963Y-93238001D01*
X153170091Y-93238001D01*
X153154498Y-93236465D01*
X153138905Y-93238001D01*
X153138903Y-93238001D01*
X153092258Y-93242595D01*
X153032409Y-93260750D01*
X152977252Y-93290232D01*
X152928906Y-93329908D01*
X152918962Y-93342025D01*
X152576525Y-93684463D01*
X152564408Y-93694407D01*
X152524732Y-93742753D01*
X152522330Y-93747247D01*
X152495249Y-93797911D01*
X152477094Y-93857760D01*
X152470964Y-93920000D01*
X152472501Y-93935606D01*
X152472500Y-95788092D01*
X152467214Y-95778203D01*
X152435473Y-95739527D01*
X152396797Y-95707786D01*
X152352672Y-95684200D01*
X152304793Y-95669676D01*
X152255000Y-95664772D01*
X151305000Y-95664772D01*
X151255207Y-95669676D01*
X151207328Y-95684200D01*
X151163203Y-95707786D01*
X151124527Y-95739527D01*
X151092786Y-95778203D01*
X151069200Y-95822328D01*
X151054676Y-95870207D01*
X151049772Y-95920000D01*
X151049772Y-96220000D01*
X151054676Y-96269793D01*
X151069200Y-96317672D01*
X151070444Y-96320000D01*
X151069200Y-96322328D01*
X151054676Y-96370207D01*
X151049772Y-96420000D01*
X151049772Y-96720000D01*
X151054676Y-96769793D01*
X151069200Y-96817672D01*
X151070444Y-96820000D01*
X151069200Y-96822328D01*
X151054676Y-96870207D01*
X151049772Y-96920000D01*
X151049772Y-97220000D01*
X151054676Y-97269793D01*
X151069200Y-97317672D01*
X151070444Y-97320000D01*
X151069200Y-97322328D01*
X151054676Y-97370207D01*
X151049772Y-97420000D01*
X151049772Y-97720000D01*
X151054676Y-97769793D01*
X151069200Y-97817672D01*
X151070444Y-97820000D01*
X151069200Y-97822328D01*
X151054676Y-97870207D01*
X151049772Y-97920000D01*
X151049772Y-98220000D01*
X151054676Y-98269793D01*
X151069200Y-98317672D01*
X151070444Y-98320000D01*
X151069200Y-98322328D01*
X151054676Y-98370207D01*
X151049772Y-98420000D01*
X151049772Y-98720000D01*
X151054676Y-98769793D01*
X151069200Y-98817672D01*
X151070444Y-98820000D01*
X151069200Y-98822328D01*
X151054676Y-98870207D01*
X151049772Y-98920000D01*
X151049772Y-99220000D01*
X151054676Y-99269793D01*
X151069200Y-99317672D01*
X151092786Y-99361797D01*
X151124527Y-99400473D01*
X151163203Y-99432214D01*
X151207328Y-99455800D01*
X151255207Y-99470324D01*
X151305000Y-99475228D01*
X152242500Y-99475228D01*
X152242500Y-99564404D01*
X152240964Y-99580000D01*
X152242194Y-99592485D01*
X152164299Y-99607979D01*
X152077126Y-99644087D01*
X152046169Y-99664772D01*
X151305000Y-99664772D01*
X151255207Y-99669676D01*
X151207328Y-99684200D01*
X151163203Y-99707786D01*
X151124527Y-99739527D01*
X151092786Y-99778203D01*
X151069200Y-99822328D01*
X151054676Y-99870207D01*
X151049772Y-99920000D01*
X151049772Y-100220000D01*
X151054676Y-100269793D01*
X151069200Y-100317672D01*
X151070444Y-100320000D01*
X151069200Y-100322328D01*
X151054676Y-100370207D01*
X151049772Y-100420000D01*
X151049772Y-100720000D01*
X151054676Y-100769793D01*
X151069200Y-100817672D01*
X151070444Y-100820000D01*
X151069200Y-100822328D01*
X151054676Y-100870207D01*
X151049772Y-100920000D01*
X151049772Y-101220000D01*
X151051932Y-101241932D01*
X151030000Y-101239772D01*
X150730000Y-101239772D01*
X150680207Y-101244676D01*
X150632328Y-101259200D01*
X150630000Y-101260444D01*
X150627672Y-101259200D01*
X150579793Y-101244676D01*
X150530000Y-101239772D01*
X150230000Y-101239772D01*
X150180207Y-101244676D01*
X150132328Y-101259200D01*
X150130000Y-101260444D01*
X150127672Y-101259200D01*
X150079793Y-101244676D01*
X150030000Y-101239772D01*
X149730000Y-101239772D01*
X149680207Y-101244676D01*
X149632328Y-101259200D01*
X149630000Y-101260444D01*
X149627672Y-101259200D01*
X149579793Y-101244676D01*
X149530000Y-101239772D01*
X149230000Y-101239772D01*
X149180207Y-101244676D01*
X149132328Y-101259200D01*
X149130000Y-101260444D01*
X149127672Y-101259200D01*
X149079793Y-101244676D01*
X149030000Y-101239772D01*
X148730000Y-101239772D01*
X148680207Y-101244676D01*
X148632328Y-101259200D01*
X148630000Y-101260444D01*
X148627672Y-101259200D01*
X148579793Y-101244676D01*
X148530000Y-101239772D01*
X148230000Y-101239772D01*
X148180207Y-101244676D01*
X148132328Y-101259200D01*
X148088203Y-101282786D01*
X148049527Y-101314527D01*
X148017786Y-101353203D01*
X147994200Y-101397328D01*
X147979676Y-101445207D01*
X147974772Y-101495000D01*
X147974772Y-102445000D01*
X147979676Y-102494793D01*
X147994200Y-102542672D01*
X148009517Y-102571328D01*
X147999527Y-102579527D01*
X147967786Y-102618203D01*
X147944200Y-102662328D01*
X147929676Y-102710207D01*
X147924772Y-102760000D01*
X147924772Y-103200000D01*
X147928890Y-103241811D01*
X147896285Y-103241811D01*
X147880689Y-103240275D01*
X147865093Y-103241811D01*
X147818448Y-103246405D01*
X147758599Y-103264560D01*
X147703442Y-103294042D01*
X147655096Y-103333718D01*
X147645154Y-103345833D01*
X147079198Y-103911789D01*
X147055345Y-103887936D01*
X146976892Y-103835515D01*
X146889719Y-103799407D01*
X146797177Y-103781000D01*
X146702823Y-103781000D01*
X146610281Y-103799407D01*
X146523108Y-103835515D01*
X146444655Y-103887936D01*
X146377936Y-103954655D01*
X146325515Y-104033108D01*
X146289407Y-104120281D01*
X146271000Y-104212823D01*
X146271000Y-104307177D01*
X146289407Y-104399719D01*
X146325515Y-104486892D01*
X146377936Y-104565345D01*
X146444655Y-104632064D01*
X146523108Y-104684485D01*
X146610281Y-104720593D01*
X146702823Y-104739000D01*
X146797177Y-104739000D01*
X146858001Y-104726902D01*
X146858002Y-107217797D01*
X146856465Y-107233403D01*
X146862595Y-107295643D01*
X146880750Y-107355492D01*
X146884379Y-107362281D01*
X146910233Y-107410650D01*
X146949909Y-107458996D01*
X146962026Y-107468940D01*
X147161059Y-107667974D01*
X147171004Y-107680092D01*
X147195762Y-107700410D01*
X147219350Y-107719768D01*
X147274507Y-107749250D01*
X147334356Y-107767405D01*
X147351683Y-107769112D01*
X147341000Y-107822823D01*
X147341000Y-107917177D01*
X147359407Y-108009719D01*
X147395515Y-108096892D01*
X147447936Y-108175345D01*
X147502500Y-108229909D01*
X147502500Y-108446149D01*
X147480470Y-108452800D01*
X147457475Y-108459568D01*
X147456681Y-108459983D01*
X147455827Y-108460241D01*
X147434674Y-108471488D01*
X147424851Y-108476624D01*
X147418523Y-108473202D01*
X147397455Y-108461620D01*
X147396599Y-108461349D01*
X147395816Y-108460925D01*
X147372928Y-108453840D01*
X147350017Y-108446572D01*
X147349129Y-108446472D01*
X147348275Y-108446208D01*
X147324379Y-108443697D01*
X147300560Y-108441025D01*
X147298846Y-108441013D01*
X147298780Y-108441006D01*
X147298714Y-108441012D01*
X147297000Y-108441000D01*
X147280062Y-108441000D01*
X147280593Y-108439719D01*
X147299000Y-108347177D01*
X147299000Y-108252823D01*
X147280593Y-108160281D01*
X147244485Y-108073108D01*
X147192064Y-107994655D01*
X147125345Y-107927936D01*
X147046892Y-107875515D01*
X146959719Y-107839407D01*
X146867177Y-107821000D01*
X146772823Y-107821000D01*
X146680281Y-107839407D01*
X146593108Y-107875515D01*
X146514655Y-107927936D01*
X146447936Y-107994655D01*
X146395515Y-108073108D01*
X146359407Y-108160281D01*
X146341000Y-108252823D01*
X146341000Y-108347177D01*
X146359407Y-108439719D01*
X146359938Y-108441000D01*
X146283000Y-108441000D01*
X146259081Y-108443345D01*
X146235218Y-108445517D01*
X146234364Y-108445768D01*
X146233470Y-108445856D01*
X146210470Y-108452800D01*
X146187475Y-108459568D01*
X146186681Y-108459983D01*
X146185827Y-108460241D01*
X146164674Y-108471488D01*
X146154851Y-108476624D01*
X146148523Y-108473202D01*
X146127455Y-108461620D01*
X146126599Y-108461349D01*
X146125816Y-108460925D01*
X146102928Y-108453840D01*
X146080017Y-108446572D01*
X146079129Y-108446472D01*
X146078275Y-108446208D01*
X146054379Y-108443697D01*
X146030560Y-108441025D01*
X146028846Y-108441013D01*
X146028780Y-108441006D01*
X146028714Y-108441012D01*
X146027000Y-108441000D01*
X145032639Y-108441000D01*
X145037500Y-108416562D01*
X145037500Y-108261438D01*
X145007236Y-108109295D01*
X144947873Y-107965979D01*
X144861691Y-107836998D01*
X144752002Y-107727309D01*
X144623021Y-107641127D01*
X144479705Y-107581764D01*
X144327562Y-107551500D01*
X144172438Y-107551500D01*
X144020295Y-107581764D01*
X143876979Y-107641127D01*
X143747998Y-107727309D01*
X143638309Y-107836998D01*
X143552127Y-107965979D01*
X143492764Y-108109295D01*
X143462500Y-108261438D01*
X143462500Y-108416562D01*
X143492764Y-108568705D01*
X143534514Y-108669500D01*
X143422946Y-108669500D01*
X143295339Y-108694883D01*
X143175136Y-108744672D01*
X143066956Y-108816956D01*
X142974956Y-108908956D01*
X142902672Y-109017136D01*
X142897432Y-109029786D01*
X135304000Y-109026146D01*
X135304000Y-106497500D01*
X140912272Y-106497500D01*
X140912272Y-108222500D01*
X140917176Y-108272293D01*
X140931700Y-108320172D01*
X140955286Y-108364297D01*
X140987027Y-108402973D01*
X141025703Y-108434714D01*
X141069828Y-108458300D01*
X141117707Y-108472824D01*
X141167500Y-108477728D01*
X142892500Y-108477728D01*
X142942293Y-108472824D01*
X142990172Y-108458300D01*
X143034297Y-108434714D01*
X143072973Y-108402973D01*
X143104714Y-108364297D01*
X143128300Y-108320172D01*
X143142824Y-108272293D01*
X143147728Y-108222500D01*
X143147728Y-106497500D01*
X143142824Y-106447707D01*
X143128300Y-106399828D01*
X143104714Y-106355703D01*
X143072973Y-106317027D01*
X143034297Y-106285286D01*
X142990172Y-106261700D01*
X142942293Y-106247176D01*
X142892500Y-106242272D01*
X141167500Y-106242272D01*
X141117707Y-106247176D01*
X141069828Y-106261700D01*
X141025703Y-106285286D01*
X140987027Y-106317027D01*
X140955286Y-106355703D01*
X140931700Y-106399828D01*
X140917176Y-106447707D01*
X140912272Y-106497500D01*
X135304000Y-106497500D01*
X135304000Y-103903728D01*
X136191000Y-103903728D01*
X136191000Y-104116272D01*
X136232465Y-104324733D01*
X136313802Y-104521098D01*
X136431886Y-104697823D01*
X136582177Y-104848114D01*
X136758902Y-104966198D01*
X136955267Y-105047535D01*
X137163728Y-105089000D01*
X137376272Y-105089000D01*
X137584733Y-105047535D01*
X137781098Y-104966198D01*
X137957823Y-104848114D01*
X138108114Y-104697823D01*
X138226198Y-104521098D01*
X138307535Y-104324733D01*
X138349000Y-104116272D01*
X138349000Y-103903728D01*
X138324951Y-103782823D01*
X140071000Y-103782823D01*
X140071000Y-103877177D01*
X140089407Y-103969719D01*
X140125515Y-104056892D01*
X140177936Y-104135345D01*
X140244655Y-104202064D01*
X140323108Y-104254485D01*
X140410281Y-104290593D01*
X140502823Y-104309000D01*
X140579988Y-104309000D01*
X141144463Y-104873476D01*
X141154407Y-104885593D01*
X141202753Y-104925269D01*
X141257910Y-104954751D01*
X141317759Y-104972906D01*
X141364404Y-104977500D01*
X141373199Y-104978366D01*
X141379999Y-104979036D01*
X141380000Y-104979036D01*
X141395596Y-104977500D01*
X141712817Y-104977500D01*
X141717786Y-104986797D01*
X141749527Y-105025473D01*
X141788203Y-105057214D01*
X141832328Y-105080800D01*
X141859415Y-105089017D01*
X141842328Y-105094200D01*
X141798203Y-105117786D01*
X141759527Y-105149527D01*
X141727786Y-105188203D01*
X141704200Y-105232328D01*
X141689676Y-105280207D01*
X141684772Y-105330000D01*
X141684772Y-105770000D01*
X141689676Y-105819793D01*
X141704200Y-105867672D01*
X141727786Y-105911797D01*
X141759527Y-105950473D01*
X141798203Y-105982214D01*
X141842328Y-106005800D01*
X141890207Y-106020324D01*
X141940000Y-106025228D01*
X142410000Y-106025228D01*
X142459793Y-106020324D01*
X142507672Y-106005800D01*
X142551797Y-105982214D01*
X142590473Y-105950473D01*
X142622214Y-105911797D01*
X142645800Y-105867672D01*
X142660324Y-105819793D01*
X142665228Y-105770000D01*
X142665228Y-105330000D01*
X142660324Y-105280207D01*
X142645800Y-105232328D01*
X142622214Y-105188203D01*
X142590473Y-105149527D01*
X142551797Y-105117786D01*
X142547500Y-105115489D01*
X142547500Y-105098504D01*
X142579793Y-105095324D01*
X142627672Y-105080800D01*
X142671797Y-105057214D01*
X142710473Y-105025473D01*
X142742214Y-104986797D01*
X142765800Y-104942672D01*
X142780324Y-104894793D01*
X142785228Y-104845000D01*
X142785228Y-104495000D01*
X143774772Y-104495000D01*
X143774772Y-104845000D01*
X143779676Y-104894793D01*
X143794200Y-104942672D01*
X143817786Y-104986797D01*
X143849527Y-105025473D01*
X143888203Y-105057214D01*
X143932328Y-105080800D01*
X143980207Y-105095324D01*
X143988667Y-105096157D01*
X143948203Y-105117786D01*
X143909527Y-105149527D01*
X143877786Y-105188203D01*
X143854200Y-105232328D01*
X143839676Y-105280207D01*
X143834772Y-105330000D01*
X143834772Y-105770000D01*
X143839676Y-105819793D01*
X143854200Y-105867672D01*
X143877786Y-105911797D01*
X143909527Y-105950473D01*
X143948203Y-105982214D01*
X143992328Y-106005800D01*
X144040207Y-106020324D01*
X144090000Y-106025228D01*
X144554288Y-106025228D01*
X144583108Y-106044485D01*
X144670281Y-106080593D01*
X144762823Y-106099000D01*
X144857177Y-106099000D01*
X144949719Y-106080593D01*
X145036892Y-106044485D01*
X145115345Y-105992064D01*
X145182064Y-105925345D01*
X145234485Y-105846892D01*
X145270593Y-105759719D01*
X145289000Y-105667177D01*
X145289000Y-105572823D01*
X145270593Y-105480281D01*
X145234485Y-105393108D01*
X145224067Y-105377517D01*
X145224485Y-105376892D01*
X145260593Y-105289719D01*
X145279000Y-105197177D01*
X145279000Y-105102823D01*
X145260593Y-105010281D01*
X145224485Y-104923108D01*
X145222408Y-104920000D01*
X145224485Y-104916892D01*
X145260593Y-104829719D01*
X145279000Y-104737177D01*
X145279000Y-104642823D01*
X145260593Y-104550281D01*
X145224485Y-104463108D01*
X145172064Y-104384655D01*
X145105345Y-104317936D01*
X145026892Y-104265515D01*
X144939719Y-104229407D01*
X144847177Y-104211000D01*
X144752823Y-104211000D01*
X144660281Y-104229407D01*
X144634248Y-104240190D01*
X144630000Y-104239772D01*
X144030000Y-104239772D01*
X143980207Y-104244676D01*
X143932328Y-104259200D01*
X143888203Y-104282786D01*
X143849527Y-104314527D01*
X143817786Y-104353203D01*
X143794200Y-104397328D01*
X143779676Y-104445207D01*
X143774772Y-104495000D01*
X142785228Y-104495000D01*
X142780324Y-104445207D01*
X142765800Y-104397328D01*
X142742214Y-104353203D01*
X142710473Y-104314527D01*
X142671797Y-104282786D01*
X142627672Y-104259200D01*
X142579793Y-104244676D01*
X142530000Y-104239772D01*
X142323263Y-104239772D01*
X142316892Y-104235515D01*
X142229719Y-104199407D01*
X142137177Y-104181000D01*
X142042823Y-104181000D01*
X141950281Y-104199407D01*
X141863108Y-104235515D01*
X141808997Y-104271671D01*
X141788203Y-104282786D01*
X141749527Y-104314527D01*
X141726570Y-104342500D01*
X141686154Y-104342500D01*
X141674751Y-104304910D01*
X141645269Y-104249753D01*
X141605593Y-104201407D01*
X141557246Y-104161731D01*
X141502089Y-104132249D01*
X141442240Y-104114094D01*
X141380000Y-104107964D01*
X141317759Y-104114094D01*
X141291172Y-104122159D01*
X141029000Y-103859988D01*
X141029000Y-103800013D01*
X141141513Y-103687500D01*
X141718363Y-103687500D01*
X141749527Y-103725473D01*
X141788203Y-103757214D01*
X141832328Y-103780800D01*
X141880207Y-103795324D01*
X141930000Y-103800228D01*
X142016973Y-103800228D01*
X142090281Y-103830593D01*
X142182823Y-103849000D01*
X142277177Y-103849000D01*
X142369719Y-103830593D01*
X142443027Y-103800228D01*
X142530000Y-103800228D01*
X142579793Y-103795324D01*
X142627672Y-103780800D01*
X142671797Y-103757214D01*
X142710473Y-103725473D01*
X142742214Y-103686797D01*
X142765800Y-103642672D01*
X142780324Y-103594793D01*
X142785228Y-103545000D01*
X142785228Y-103195000D01*
X142780324Y-103145207D01*
X142765800Y-103097328D01*
X142742214Y-103053203D01*
X142710473Y-103014527D01*
X142671797Y-102982786D01*
X142627672Y-102959200D01*
X142579793Y-102944676D01*
X142530000Y-102939772D01*
X142443027Y-102939772D01*
X142369719Y-102909407D01*
X142277177Y-102891000D01*
X142182823Y-102891000D01*
X142090281Y-102909407D01*
X142016973Y-102939772D01*
X141930000Y-102939772D01*
X141880207Y-102944676D01*
X141832328Y-102959200D01*
X141788203Y-102982786D01*
X141749527Y-103014527D01*
X141718363Y-103052500D01*
X141025592Y-103052500D01*
X141009999Y-103050964D01*
X140994406Y-103052500D01*
X140994404Y-103052500D01*
X140947759Y-103057094D01*
X140887910Y-103075249D01*
X140832753Y-103104731D01*
X140784407Y-103144407D01*
X140774465Y-103156522D01*
X140579987Y-103351000D01*
X140502823Y-103351000D01*
X140410281Y-103369407D01*
X140323108Y-103405515D01*
X140244655Y-103457936D01*
X140177936Y-103524655D01*
X140125515Y-103603108D01*
X140089407Y-103690281D01*
X140071000Y-103782823D01*
X138324951Y-103782823D01*
X138307535Y-103695267D01*
X138226198Y-103498902D01*
X138108114Y-103322177D01*
X137957823Y-103171886D01*
X137781098Y-103053802D01*
X137584733Y-102972465D01*
X137376272Y-102931000D01*
X137163728Y-102931000D01*
X136955267Y-102972465D01*
X136758902Y-103053802D01*
X136582177Y-103171886D01*
X136431886Y-103322177D01*
X136313802Y-103498902D01*
X136232465Y-103695267D01*
X136191000Y-103903728D01*
X135304000Y-103903728D01*
X135304000Y-101363728D01*
X136191000Y-101363728D01*
X136191000Y-101576272D01*
X136232465Y-101784733D01*
X136313802Y-101981098D01*
X136431886Y-102157823D01*
X136582177Y-102308114D01*
X136758902Y-102426198D01*
X136955267Y-102507535D01*
X137163728Y-102549000D01*
X137376272Y-102549000D01*
X137584733Y-102507535D01*
X137781098Y-102426198D01*
X137957823Y-102308114D01*
X138108114Y-102157823D01*
X138226198Y-101981098D01*
X138306389Y-101787500D01*
X139944404Y-101787500D01*
X139960000Y-101789036D01*
X139975596Y-101787500D01*
X140022241Y-101782906D01*
X140082090Y-101764751D01*
X140137247Y-101735269D01*
X140185593Y-101695593D01*
X140195542Y-101683470D01*
X140243512Y-101635500D01*
X141635264Y-101635500D01*
X141639676Y-101680293D01*
X141654200Y-101728172D01*
X141655177Y-101730000D01*
X141654200Y-101731828D01*
X141639676Y-101779707D01*
X141634772Y-101829500D01*
X141634772Y-102454500D01*
X141639676Y-102504293D01*
X141654200Y-102552172D01*
X141677786Y-102596297D01*
X141709527Y-102634973D01*
X141748203Y-102666714D01*
X141792328Y-102690300D01*
X141840207Y-102704824D01*
X141890000Y-102709728D01*
X142290000Y-102709728D01*
X142339793Y-102704824D01*
X142387672Y-102690300D01*
X142431797Y-102666714D01*
X142470473Y-102634973D01*
X142502214Y-102596297D01*
X142525800Y-102552172D01*
X142540324Y-102504293D01*
X142544736Y-102459500D01*
X143919790Y-102459500D01*
X145043765Y-103583476D01*
X145053709Y-103595593D01*
X145102055Y-103635269D01*
X145157212Y-103664751D01*
X145217061Y-103682906D01*
X145263706Y-103687500D01*
X145263708Y-103687500D01*
X145279301Y-103689036D01*
X145294894Y-103687500D01*
X146066404Y-103687500D01*
X146082000Y-103689036D01*
X146097596Y-103687500D01*
X146144241Y-103682906D01*
X146204090Y-103664751D01*
X146259247Y-103635269D01*
X146307593Y-103595593D01*
X146317542Y-103583470D01*
X146593084Y-103307929D01*
X146599407Y-103339719D01*
X146635515Y-103426892D01*
X146687936Y-103505345D01*
X146754655Y-103572064D01*
X146833108Y-103624485D01*
X146920281Y-103660593D01*
X147012823Y-103679000D01*
X147107177Y-103679000D01*
X147199719Y-103660593D01*
X147286892Y-103624485D01*
X147365345Y-103572064D01*
X147432064Y-103505345D01*
X147484485Y-103426892D01*
X147520593Y-103339719D01*
X147539000Y-103247177D01*
X147539000Y-103152823D01*
X147520593Y-103060281D01*
X147484485Y-102973108D01*
X147457737Y-102933077D01*
X147593477Y-102797338D01*
X147605593Y-102787395D01*
X147645269Y-102739049D01*
X147674751Y-102683892D01*
X147686505Y-102645143D01*
X147710473Y-102625473D01*
X147742214Y-102586797D01*
X147765800Y-102542672D01*
X147780324Y-102494793D01*
X147785228Y-102445000D01*
X147785228Y-101495000D01*
X147780324Y-101445207D01*
X147765800Y-101397328D01*
X147742214Y-101353203D01*
X147710473Y-101314527D01*
X147671797Y-101282786D01*
X147627672Y-101259200D01*
X147579793Y-101244676D01*
X147530000Y-101239772D01*
X147230000Y-101239772D01*
X147180207Y-101244676D01*
X147132328Y-101259200D01*
X147130000Y-101260444D01*
X147127672Y-101259200D01*
X147079793Y-101244676D01*
X147030000Y-101239772D01*
X146730000Y-101239772D01*
X146680207Y-101244676D01*
X146632328Y-101259200D01*
X146630000Y-101260444D01*
X146627672Y-101259200D01*
X146579793Y-101244676D01*
X146530000Y-101239772D01*
X146230000Y-101239772D01*
X146180207Y-101244676D01*
X146132328Y-101259200D01*
X146130000Y-101260444D01*
X146127672Y-101259200D01*
X146079793Y-101244676D01*
X146030000Y-101239772D01*
X145730000Y-101239772D01*
X145708068Y-101241932D01*
X145710228Y-101220000D01*
X145710228Y-100920000D01*
X145705324Y-100870207D01*
X145690800Y-100822328D01*
X145667214Y-100778203D01*
X145635473Y-100739527D01*
X145596797Y-100707786D01*
X145552672Y-100684200D01*
X145504793Y-100669676D01*
X145455000Y-100664772D01*
X144568500Y-100664772D01*
X144570593Y-100659719D01*
X144589000Y-100567177D01*
X144589000Y-100475228D01*
X145455000Y-100475228D01*
X145504793Y-100470324D01*
X145552672Y-100455800D01*
X145596797Y-100432214D01*
X145635473Y-100400473D01*
X145667214Y-100361797D01*
X145690800Y-100317672D01*
X145705324Y-100269793D01*
X145710228Y-100220000D01*
X145710228Y-99920000D01*
X145705324Y-99870207D01*
X145690800Y-99822328D01*
X145689556Y-99820000D01*
X145690800Y-99817672D01*
X145705324Y-99769793D01*
X145710228Y-99720000D01*
X145710228Y-99420000D01*
X145705324Y-99370207D01*
X145690800Y-99322328D01*
X145689556Y-99320000D01*
X145690800Y-99317672D01*
X145705324Y-99269793D01*
X145710228Y-99220000D01*
X145710228Y-98920000D01*
X145705324Y-98870207D01*
X145690800Y-98822328D01*
X145689556Y-98820000D01*
X145690800Y-98817672D01*
X145705324Y-98769793D01*
X145710228Y-98720000D01*
X145710228Y-98420000D01*
X145705324Y-98370207D01*
X145690800Y-98322328D01*
X145689556Y-98320000D01*
X145690800Y-98317672D01*
X145705324Y-98269793D01*
X145710228Y-98220000D01*
X145710228Y-97920000D01*
X145705324Y-97870207D01*
X145690800Y-97822328D01*
X145689556Y-97820000D01*
X145690800Y-97817672D01*
X145705324Y-97769793D01*
X145710228Y-97720000D01*
X145710228Y-97420000D01*
X145705324Y-97370207D01*
X145690800Y-97322328D01*
X145689556Y-97320000D01*
X145690800Y-97317672D01*
X145705324Y-97269793D01*
X145710228Y-97220000D01*
X145710228Y-96920000D01*
X145705324Y-96870207D01*
X145690800Y-96822328D01*
X145667214Y-96778203D01*
X145635473Y-96739527D01*
X145596797Y-96707786D01*
X145552672Y-96684200D01*
X145504793Y-96669676D01*
X145455000Y-96664772D01*
X144505000Y-96664772D01*
X144455207Y-96669676D01*
X144407328Y-96684200D01*
X144363203Y-96707786D01*
X144324527Y-96739527D01*
X144292786Y-96778203D01*
X144269200Y-96822328D01*
X144254676Y-96870207D01*
X144249772Y-96920000D01*
X144249772Y-97220000D01*
X144254676Y-97269793D01*
X144269200Y-97317672D01*
X144270444Y-97320000D01*
X144269200Y-97322328D01*
X144254676Y-97370207D01*
X144249772Y-97420000D01*
X144249772Y-97720000D01*
X144254676Y-97769793D01*
X144269200Y-97817672D01*
X144270444Y-97820000D01*
X144269200Y-97822328D01*
X144254676Y-97870207D01*
X144249772Y-97920000D01*
X144249772Y-98220000D01*
X144254676Y-98269793D01*
X144269200Y-98317672D01*
X144270444Y-98320000D01*
X144269200Y-98322328D01*
X144254676Y-98370207D01*
X144249772Y-98420000D01*
X144249772Y-98720000D01*
X144254676Y-98769793D01*
X144269200Y-98817672D01*
X144270444Y-98820000D01*
X144269200Y-98822328D01*
X144254676Y-98870207D01*
X144249772Y-98920000D01*
X144249772Y-99220000D01*
X144254676Y-99269793D01*
X144269200Y-99317672D01*
X144270444Y-99320000D01*
X144269200Y-99322328D01*
X144254676Y-99370207D01*
X144249772Y-99420000D01*
X144249772Y-99720000D01*
X144254676Y-99769793D01*
X144269200Y-99817672D01*
X144270444Y-99820000D01*
X144269200Y-99822328D01*
X144254676Y-99870207D01*
X144249772Y-99920000D01*
X144249772Y-100059429D01*
X144249719Y-100059407D01*
X144157177Y-100041000D01*
X144062823Y-100041000D01*
X143970281Y-100059407D01*
X143883108Y-100095515D01*
X143804655Y-100147936D01*
X143737936Y-100214655D01*
X143685515Y-100293108D01*
X143649407Y-100380281D01*
X143631000Y-100472823D01*
X143631000Y-100567177D01*
X143649407Y-100659719D01*
X143685515Y-100746892D01*
X143737936Y-100825345D01*
X143804655Y-100892064D01*
X143805758Y-100892801D01*
X143815249Y-100924089D01*
X143844731Y-100979246D01*
X143884407Y-101027593D01*
X143896529Y-101037541D01*
X144060501Y-101201513D01*
X144060500Y-101732404D01*
X144058964Y-101748000D01*
X144060500Y-101763595D01*
X144065094Y-101810240D01*
X144069497Y-101824756D01*
X144066898Y-101824500D01*
X144051302Y-101822964D01*
X144035706Y-101824500D01*
X142544736Y-101824500D01*
X142540324Y-101779707D01*
X142525800Y-101731828D01*
X142524823Y-101730000D01*
X142525800Y-101728172D01*
X142540324Y-101680293D01*
X142545228Y-101630500D01*
X142545228Y-101005500D01*
X142540324Y-100955707D01*
X142525800Y-100907828D01*
X142502214Y-100863703D01*
X142470473Y-100825027D01*
X142431797Y-100793286D01*
X142387672Y-100769700D01*
X142339793Y-100755176D01*
X142290000Y-100750272D01*
X141890000Y-100750272D01*
X141840207Y-100755176D01*
X141792328Y-100769700D01*
X141748203Y-100793286D01*
X141709527Y-100825027D01*
X141677786Y-100863703D01*
X141654200Y-100907828D01*
X141639676Y-100955707D01*
X141635264Y-101000500D01*
X140127592Y-101000500D01*
X140111999Y-100998964D01*
X140096406Y-101000500D01*
X140096404Y-101000500D01*
X140049759Y-101005094D01*
X139989910Y-101023249D01*
X139934753Y-101052731D01*
X139886407Y-101092407D01*
X139876458Y-101104530D01*
X139828488Y-101152500D01*
X138306389Y-101152500D01*
X138226198Y-100958902D01*
X138108114Y-100782177D01*
X137957823Y-100631886D01*
X137781098Y-100513802D01*
X137584733Y-100432465D01*
X137376272Y-100391000D01*
X137163728Y-100391000D01*
X136955267Y-100432465D01*
X136758902Y-100513802D01*
X136582177Y-100631886D01*
X136431886Y-100782177D01*
X136313802Y-100958902D01*
X136232465Y-101155267D01*
X136191000Y-101363728D01*
X135304000Y-101363728D01*
X135304000Y-98823728D01*
X136191000Y-98823728D01*
X136191000Y-99036272D01*
X136232465Y-99244733D01*
X136313802Y-99441098D01*
X136431886Y-99617823D01*
X136582177Y-99768114D01*
X136758902Y-99886198D01*
X136955267Y-99967535D01*
X137163728Y-100009000D01*
X137376272Y-100009000D01*
X137584733Y-99967535D01*
X137781098Y-99886198D01*
X137957823Y-99768114D01*
X138108114Y-99617823D01*
X138129712Y-99585500D01*
X141635264Y-99585500D01*
X141639676Y-99630293D01*
X141654200Y-99678172D01*
X141655177Y-99680000D01*
X141654200Y-99681828D01*
X141639676Y-99729707D01*
X141634772Y-99779500D01*
X141634772Y-100404500D01*
X141639676Y-100454293D01*
X141654200Y-100502172D01*
X141677786Y-100546297D01*
X141709527Y-100584973D01*
X141748203Y-100616714D01*
X141792328Y-100640300D01*
X141840207Y-100654824D01*
X141890000Y-100659728D01*
X142290000Y-100659728D01*
X142339793Y-100654824D01*
X142387672Y-100640300D01*
X142431797Y-100616714D01*
X142470473Y-100584973D01*
X142502214Y-100546297D01*
X142525800Y-100502172D01*
X142540324Y-100454293D01*
X142540774Y-100449728D01*
X142577936Y-100505345D01*
X142644655Y-100572064D01*
X142723108Y-100624485D01*
X142810281Y-100660593D01*
X142902823Y-100679000D01*
X142997177Y-100679000D01*
X143089719Y-100660593D01*
X143176892Y-100624485D01*
X143255345Y-100572064D01*
X143322064Y-100505345D01*
X143374485Y-100426892D01*
X143410593Y-100339719D01*
X143429000Y-100247177D01*
X143429000Y-100152823D01*
X143410593Y-100060281D01*
X143374485Y-99973108D01*
X143322064Y-99894655D01*
X143255345Y-99827936D01*
X143176892Y-99775515D01*
X143089719Y-99739407D01*
X142997177Y-99721000D01*
X142902823Y-99721000D01*
X142810281Y-99739407D01*
X142725558Y-99774500D01*
X142544736Y-99774500D01*
X142540324Y-99729707D01*
X142525800Y-99681828D01*
X142524823Y-99680000D01*
X142525800Y-99678172D01*
X142540324Y-99630293D01*
X142545228Y-99580500D01*
X142545228Y-98955500D01*
X142540324Y-98905707D01*
X142525800Y-98857828D01*
X142502214Y-98813703D01*
X142470473Y-98775027D01*
X142431797Y-98743286D01*
X142387672Y-98719700D01*
X142339793Y-98705176D01*
X142290000Y-98700272D01*
X141890000Y-98700272D01*
X141840207Y-98705176D01*
X141792328Y-98719700D01*
X141748203Y-98743286D01*
X141709527Y-98775027D01*
X141677786Y-98813703D01*
X141654200Y-98857828D01*
X141639676Y-98905707D01*
X141635264Y-98950500D01*
X138349000Y-98950500D01*
X138349000Y-98823728D01*
X138307535Y-98615267D01*
X138226198Y-98418902D01*
X138108114Y-98242177D01*
X137957823Y-98091886D01*
X137781098Y-97973802D01*
X137584733Y-97892465D01*
X137376272Y-97851000D01*
X137163728Y-97851000D01*
X136955267Y-97892465D01*
X136758902Y-97973802D01*
X136582177Y-98091886D01*
X136431886Y-98242177D01*
X136313802Y-98418902D01*
X136232465Y-98615267D01*
X136191000Y-98823728D01*
X135304000Y-98823728D01*
X135304000Y-92054000D01*
X148130121Y-92054000D01*
X148114731Y-92072754D01*
G36*
X153018203Y-106452214D02*
G01*
X153062328Y-106475800D01*
X153110207Y-106490324D01*
X153160000Y-106495228D01*
X154979194Y-106495228D01*
X154961000Y-106586699D01*
X154961000Y-106663863D01*
X154478698Y-107146165D01*
X154425345Y-107092812D01*
X154346892Y-107040391D01*
X154259719Y-107004283D01*
X154167177Y-106985876D01*
X154072823Y-106985876D01*
X153980281Y-107004283D01*
X153893108Y-107040391D01*
X153814655Y-107092812D01*
X153747936Y-107159531D01*
X153695515Y-107237984D01*
X153659407Y-107325157D01*
X153641000Y-107417699D01*
X153641000Y-107512053D01*
X153659407Y-107604595D01*
X153695515Y-107691768D01*
X153747936Y-107770221D01*
X153814655Y-107836940D01*
X153893108Y-107889361D01*
X153980281Y-107925469D01*
X154072823Y-107943876D01*
X154167177Y-107943876D01*
X154218071Y-107933753D01*
X154193119Y-107993993D01*
X154174712Y-108086535D01*
X154174712Y-108163646D01*
X154144732Y-108200177D01*
X154132800Y-108222500D01*
X154115249Y-108255335D01*
X154097094Y-108315184D01*
X154090964Y-108377424D01*
X154092501Y-108393029D01*
X154092501Y-108441000D01*
X153903000Y-108441000D01*
X153879081Y-108443345D01*
X153855218Y-108445517D01*
X153854364Y-108445768D01*
X153853470Y-108445856D01*
X153830470Y-108452800D01*
X153807475Y-108459568D01*
X153806681Y-108459983D01*
X153805827Y-108460241D01*
X153784674Y-108471488D01*
X153774851Y-108476624D01*
X153768523Y-108473202D01*
X153747455Y-108461620D01*
X153746599Y-108461349D01*
X153745816Y-108460925D01*
X153722928Y-108453840D01*
X153700017Y-108446572D01*
X153699129Y-108446472D01*
X153698275Y-108446208D01*
X153674379Y-108443697D01*
X153650560Y-108441025D01*
X153648846Y-108441013D01*
X153648780Y-108441006D01*
X153648714Y-108441012D01*
X153647000Y-108441000D01*
X153598150Y-108441000D01*
X153597500Y-108434404D01*
X153597500Y-108389909D01*
X153652064Y-108335345D01*
X153704485Y-108256892D01*
X153740593Y-108169719D01*
X153759000Y-108077177D01*
X153759000Y-107982823D01*
X153740593Y-107890281D01*
X153704485Y-107803108D01*
X153652064Y-107724655D01*
X153585345Y-107657936D01*
X153506892Y-107605515D01*
X153419719Y-107569407D01*
X153327177Y-107551000D01*
X153232823Y-107551000D01*
X153140281Y-107569407D01*
X153053108Y-107605515D01*
X152974655Y-107657936D01*
X152907936Y-107724655D01*
X152855515Y-107803108D01*
X152819407Y-107890281D01*
X152801000Y-107982823D01*
X152801000Y-108077177D01*
X152819407Y-108169719D01*
X152855515Y-108256892D01*
X152907936Y-108335345D01*
X152926790Y-108354199D01*
X152926525Y-108354463D01*
X152914408Y-108364407D01*
X152874732Y-108412753D01*
X152862994Y-108434714D01*
X152859634Y-108441000D01*
X152633000Y-108441000D01*
X152609081Y-108443345D01*
X152585218Y-108445517D01*
X152584364Y-108445768D01*
X152583470Y-108445856D01*
X152560470Y-108452800D01*
X152537475Y-108459568D01*
X152536681Y-108459983D01*
X152535827Y-108460241D01*
X152514674Y-108471488D01*
X152504851Y-108476624D01*
X152498523Y-108473202D01*
X152477455Y-108461620D01*
X152476599Y-108461349D01*
X152475816Y-108460925D01*
X152452928Y-108453840D01*
X152430017Y-108446572D01*
X152429129Y-108446472D01*
X152428275Y-108446208D01*
X152404379Y-108443697D01*
X152380560Y-108441025D01*
X152378846Y-108441013D01*
X152378780Y-108441006D01*
X152378714Y-108441012D01*
X152377000Y-108441000D01*
X152187500Y-108441000D01*
X152187500Y-108349267D01*
X152238323Y-108359376D01*
X152332677Y-108359376D01*
X152425219Y-108340969D01*
X152512392Y-108304861D01*
X152590845Y-108252440D01*
X152657564Y-108185721D01*
X152709985Y-108107268D01*
X152746093Y-108020095D01*
X152764500Y-107927553D01*
X152764500Y-107833199D01*
X152746093Y-107740657D01*
X152709985Y-107653484D01*
X152657564Y-107575031D01*
X152603000Y-107520467D01*
X152603000Y-107046012D01*
X152912988Y-106736025D01*
X152925104Y-106726082D01*
X152964780Y-106677736D01*
X152994262Y-106622579D01*
X153012417Y-106562730D01*
X153017011Y-106516085D01*
X153017011Y-106516084D01*
X153018547Y-106500489D01*
X153017011Y-106484893D01*
X153017011Y-106451236D01*
X153018203Y-106452214D01*
G37*
X153018203Y-106452214D02*
X153062328Y-106475800D01*
X153110207Y-106490324D01*
X153160000Y-106495228D01*
X154979194Y-106495228D01*
X154961000Y-106586699D01*
X154961000Y-106663863D01*
X154478698Y-107146165D01*
X154425345Y-107092812D01*
X154346892Y-107040391D01*
X154259719Y-107004283D01*
X154167177Y-106985876D01*
X154072823Y-106985876D01*
X153980281Y-107004283D01*
X153893108Y-107040391D01*
X153814655Y-107092812D01*
X153747936Y-107159531D01*
X153695515Y-107237984D01*
X153659407Y-107325157D01*
X153641000Y-107417699D01*
X153641000Y-107512053D01*
X153659407Y-107604595D01*
X153695515Y-107691768D01*
X153747936Y-107770221D01*
X153814655Y-107836940D01*
X153893108Y-107889361D01*
X153980281Y-107925469D01*
X154072823Y-107943876D01*
X154167177Y-107943876D01*
X154218071Y-107933753D01*
X154193119Y-107993993D01*
X154174712Y-108086535D01*
X154174712Y-108163646D01*
X154144732Y-108200177D01*
X154132800Y-108222500D01*
X154115249Y-108255335D01*
X154097094Y-108315184D01*
X154090964Y-108377424D01*
X154092501Y-108393029D01*
X154092501Y-108441000D01*
X153903000Y-108441000D01*
X153879081Y-108443345D01*
X153855218Y-108445517D01*
X153854364Y-108445768D01*
X153853470Y-108445856D01*
X153830470Y-108452800D01*
X153807475Y-108459568D01*
X153806681Y-108459983D01*
X153805827Y-108460241D01*
X153784674Y-108471488D01*
X153774851Y-108476624D01*
X153768523Y-108473202D01*
X153747455Y-108461620D01*
X153746599Y-108461349D01*
X153745816Y-108460925D01*
X153722928Y-108453840D01*
X153700017Y-108446572D01*
X153699129Y-108446472D01*
X153698275Y-108446208D01*
X153674379Y-108443697D01*
X153650560Y-108441025D01*
X153648846Y-108441013D01*
X153648780Y-108441006D01*
X153648714Y-108441012D01*
X153647000Y-108441000D01*
X153598150Y-108441000D01*
X153597500Y-108434404D01*
X153597500Y-108389909D01*
X153652064Y-108335345D01*
X153704485Y-108256892D01*
X153740593Y-108169719D01*
X153759000Y-108077177D01*
X153759000Y-107982823D01*
X153740593Y-107890281D01*
X153704485Y-107803108D01*
X153652064Y-107724655D01*
X153585345Y-107657936D01*
X153506892Y-107605515D01*
X153419719Y-107569407D01*
X153327177Y-107551000D01*
X153232823Y-107551000D01*
X153140281Y-107569407D01*
X153053108Y-107605515D01*
X152974655Y-107657936D01*
X152907936Y-107724655D01*
X152855515Y-107803108D01*
X152819407Y-107890281D01*
X152801000Y-107982823D01*
X152801000Y-108077177D01*
X152819407Y-108169719D01*
X152855515Y-108256892D01*
X152907936Y-108335345D01*
X152926790Y-108354199D01*
X152926525Y-108354463D01*
X152914408Y-108364407D01*
X152874732Y-108412753D01*
X152862994Y-108434714D01*
X152859634Y-108441000D01*
X152633000Y-108441000D01*
X152609081Y-108443345D01*
X152585218Y-108445517D01*
X152584364Y-108445768D01*
X152583470Y-108445856D01*
X152560470Y-108452800D01*
X152537475Y-108459568D01*
X152536681Y-108459983D01*
X152535827Y-108460241D01*
X152514674Y-108471488D01*
X152504851Y-108476624D01*
X152498523Y-108473202D01*
X152477455Y-108461620D01*
X152476599Y-108461349D01*
X152475816Y-108460925D01*
X152452928Y-108453840D01*
X152430017Y-108446572D01*
X152429129Y-108446472D01*
X152428275Y-108446208D01*
X152404379Y-108443697D01*
X152380560Y-108441025D01*
X152378846Y-108441013D01*
X152378780Y-108441006D01*
X152378714Y-108441012D01*
X152377000Y-108441000D01*
X152187500Y-108441000D01*
X152187500Y-108349267D01*
X152238323Y-108359376D01*
X152332677Y-108359376D01*
X152425219Y-108340969D01*
X152512392Y-108304861D01*
X152590845Y-108252440D01*
X152657564Y-108185721D01*
X152709985Y-108107268D01*
X152746093Y-108020095D01*
X152764500Y-107927553D01*
X152764500Y-107833199D01*
X152746093Y-107740657D01*
X152709985Y-107653484D01*
X152657564Y-107575031D01*
X152603000Y-107520467D01*
X152603000Y-107046012D01*
X152912988Y-106736025D01*
X152925104Y-106726082D01*
X152964780Y-106677736D01*
X152994262Y-106622579D01*
X153012417Y-106562730D01*
X153017011Y-106516085D01*
X153017011Y-106516084D01*
X153018547Y-106500489D01*
X153017011Y-106484893D01*
X153017011Y-106451236D01*
X153018203Y-106452214D01*
G36*
X148644408Y-106832593D02*
G01*
X148656525Y-106842537D01*
X149831962Y-108017975D01*
X149841906Y-108030092D01*
X149890252Y-108069768D01*
X149945409Y-108099250D01*
X150005258Y-108117405D01*
X150051903Y-108121999D01*
X150051905Y-108121999D01*
X150067498Y-108123535D01*
X150070870Y-108123203D01*
X150061000Y-108172823D01*
X150061000Y-108267177D01*
X150079407Y-108359719D01*
X150113074Y-108441000D01*
X150093000Y-108441000D01*
X150069081Y-108443345D01*
X150045218Y-108445517D01*
X150044364Y-108445768D01*
X150043470Y-108445856D01*
X150020470Y-108452800D01*
X149997475Y-108459568D01*
X149996681Y-108459983D01*
X149995827Y-108460241D01*
X149974674Y-108471488D01*
X149964851Y-108476624D01*
X149958523Y-108473202D01*
X149937455Y-108461620D01*
X149936599Y-108461349D01*
X149935816Y-108460925D01*
X149912928Y-108453840D01*
X149890017Y-108446572D01*
X149889129Y-108446472D01*
X149888275Y-108446208D01*
X149864379Y-108443697D01*
X149840560Y-108441025D01*
X149838846Y-108441013D01*
X149838780Y-108441006D01*
X149838714Y-108441012D01*
X149837000Y-108441000D01*
X149597500Y-108441000D01*
X149597500Y-108195592D01*
X149599036Y-108179999D01*
X149597094Y-108160281D01*
X149592906Y-108117759D01*
X149574751Y-108057910D01*
X149545269Y-108002753D01*
X149505593Y-107954407D01*
X149493477Y-107944464D01*
X148790041Y-107241029D01*
X148780092Y-107228906D01*
X148731746Y-107189230D01*
X148676589Y-107159748D01*
X148616740Y-107141593D01*
X148570095Y-107136999D01*
X148554499Y-107135463D01*
X148538903Y-107136999D01*
X148375112Y-107136999D01*
X148385813Y-107083199D01*
X148640807Y-106828206D01*
X148644408Y-106832593D01*
G37*
X148644408Y-106832593D02*
X148656525Y-106842537D01*
X149831962Y-108017975D01*
X149841906Y-108030092D01*
X149890252Y-108069768D01*
X149945409Y-108099250D01*
X150005258Y-108117405D01*
X150051903Y-108121999D01*
X150051905Y-108121999D01*
X150067498Y-108123535D01*
X150070870Y-108123203D01*
X150061000Y-108172823D01*
X150061000Y-108267177D01*
X150079407Y-108359719D01*
X150113074Y-108441000D01*
X150093000Y-108441000D01*
X150069081Y-108443345D01*
X150045218Y-108445517D01*
X150044364Y-108445768D01*
X150043470Y-108445856D01*
X150020470Y-108452800D01*
X149997475Y-108459568D01*
X149996681Y-108459983D01*
X149995827Y-108460241D01*
X149974674Y-108471488D01*
X149964851Y-108476624D01*
X149958523Y-108473202D01*
X149937455Y-108461620D01*
X149936599Y-108461349D01*
X149935816Y-108460925D01*
X149912928Y-108453840D01*
X149890017Y-108446572D01*
X149889129Y-108446472D01*
X149888275Y-108446208D01*
X149864379Y-108443697D01*
X149840560Y-108441025D01*
X149838846Y-108441013D01*
X149838780Y-108441006D01*
X149838714Y-108441012D01*
X149837000Y-108441000D01*
X149597500Y-108441000D01*
X149597500Y-108195592D01*
X149599036Y-108179999D01*
X149597094Y-108160281D01*
X149592906Y-108117759D01*
X149574751Y-108057910D01*
X149545269Y-108002753D01*
X149505593Y-107954407D01*
X149493477Y-107944464D01*
X148790041Y-107241029D01*
X148780092Y-107228906D01*
X148731746Y-107189230D01*
X148676589Y-107159748D01*
X148616740Y-107141593D01*
X148570095Y-107136999D01*
X148554499Y-107135463D01*
X148538903Y-107136999D01*
X148375112Y-107136999D01*
X148385813Y-107083199D01*
X148640807Y-106828206D01*
X148644408Y-106832593D01*
G36*
X147530000Y-105385228D02*
G01*
X147919181Y-105385228D01*
X147914772Y-105430000D01*
X147914772Y-105630000D01*
X147919676Y-105679793D01*
X147934200Y-105727672D01*
X147948808Y-105755000D01*
X147934200Y-105782328D01*
X147919676Y-105830207D01*
X147914772Y-105880000D01*
X147914772Y-106030000D01*
X147919676Y-106079793D01*
X147934200Y-106127672D01*
X147957786Y-106171797D01*
X147989527Y-106210473D01*
X148028203Y-106242214D01*
X148072328Y-106265800D01*
X148114772Y-106278675D01*
X148114772Y-106456215D01*
X148034794Y-106536193D01*
X148029793Y-106534676D01*
X147980000Y-106529772D01*
X147540000Y-106529772D01*
X147493001Y-106534401D01*
X147493001Y-105381584D01*
X147530000Y-105385228D01*
G37*
X147530000Y-105385228D02*
X147919181Y-105385228D01*
X147914772Y-105430000D01*
X147914772Y-105630000D01*
X147919676Y-105679793D01*
X147934200Y-105727672D01*
X147948808Y-105755000D01*
X147934200Y-105782328D01*
X147919676Y-105830207D01*
X147914772Y-105880000D01*
X147914772Y-106030000D01*
X147919676Y-106079793D01*
X147934200Y-106127672D01*
X147957786Y-106171797D01*
X147989527Y-106210473D01*
X148028203Y-106242214D01*
X148072328Y-106265800D01*
X148114772Y-106278675D01*
X148114772Y-106456215D01*
X148034794Y-106536193D01*
X148029793Y-106534676D01*
X147980000Y-106529772D01*
X147540000Y-106529772D01*
X147493001Y-106534401D01*
X147493001Y-105381584D01*
X147530000Y-105385228D01*
G36*
X151305000Y-101475228D02*
G01*
X151497617Y-101475228D01*
X151514731Y-101507246D01*
X151551001Y-101551441D01*
X151551001Y-101627177D01*
X151569408Y-101719719D01*
X151605516Y-101806892D01*
X151657937Y-101885345D01*
X151724656Y-101952064D01*
X151803109Y-102004485D01*
X151890282Y-102040593D01*
X151982824Y-102059000D01*
X152077178Y-102059000D01*
X152128002Y-102048891D01*
X152128001Y-106140888D01*
X151839348Y-106429541D01*
X151821594Y-106340281D01*
X151785486Y-106253108D01*
X151733065Y-106174655D01*
X151666346Y-106107936D01*
X151587893Y-106055515D01*
X151500720Y-106019407D01*
X151408178Y-106001000D01*
X151313824Y-106001000D01*
X151221282Y-106019407D01*
X151134109Y-106055515D01*
X151055656Y-106107936D01*
X151001092Y-106162500D01*
X150621513Y-106162500D01*
X150425541Y-105966529D01*
X150425228Y-105966147D01*
X150425228Y-105880000D01*
X150420324Y-105830207D01*
X150405800Y-105782328D01*
X150382214Y-105738203D01*
X150350473Y-105699527D01*
X150311797Y-105667786D01*
X150267672Y-105644200D01*
X150219793Y-105629676D01*
X150170000Y-105624772D01*
X149970000Y-105624772D01*
X149920207Y-105629676D01*
X149872328Y-105644200D01*
X149870000Y-105645444D01*
X149867672Y-105644200D01*
X149819793Y-105629676D01*
X149770000Y-105624772D01*
X149570000Y-105624772D01*
X149520207Y-105629676D01*
X149472328Y-105644200D01*
X149470000Y-105645444D01*
X149467672Y-105644200D01*
X149419793Y-105629676D01*
X149370000Y-105624772D01*
X149170000Y-105624772D01*
X149120207Y-105629676D01*
X149072328Y-105644200D01*
X149070000Y-105645444D01*
X149067672Y-105644200D01*
X149025101Y-105631286D01*
X149025228Y-105630000D01*
X149025228Y-105430000D01*
X149025101Y-105428714D01*
X149067672Y-105415800D01*
X149070000Y-105414556D01*
X149072328Y-105415800D01*
X149120207Y-105430324D01*
X149170000Y-105435228D01*
X149370000Y-105435228D01*
X149419793Y-105430324D01*
X149467672Y-105415800D01*
X149470000Y-105414556D01*
X149472328Y-105415800D01*
X149520207Y-105430324D01*
X149570000Y-105435228D01*
X149770000Y-105435228D01*
X149819793Y-105430324D01*
X149867672Y-105415800D01*
X149870000Y-105414556D01*
X149872328Y-105415800D01*
X149920207Y-105430324D01*
X149970000Y-105435228D01*
X150170000Y-105435228D01*
X150219793Y-105430324D01*
X150267672Y-105415800D01*
X150311797Y-105392214D01*
X150350473Y-105360473D01*
X150382214Y-105321797D01*
X150405800Y-105277672D01*
X150420324Y-105229793D01*
X150425228Y-105180000D01*
X150425228Y-104580000D01*
X150420324Y-104530207D01*
X150405800Y-104482328D01*
X150382214Y-104438203D01*
X150367500Y-104420274D01*
X150367500Y-104357500D01*
X150402010Y-104357500D01*
X150417606Y-104359036D01*
X150433202Y-104357500D01*
X150479847Y-104352906D01*
X150539696Y-104334751D01*
X150594853Y-104305269D01*
X150643199Y-104265593D01*
X150653148Y-104253470D01*
X150927619Y-103979000D01*
X151004783Y-103979000D01*
X151097325Y-103960593D01*
X151184498Y-103924485D01*
X151262951Y-103872064D01*
X151329670Y-103805345D01*
X151382091Y-103726892D01*
X151418199Y-103639719D01*
X151436606Y-103547177D01*
X151436606Y-103452823D01*
X151418199Y-103360281D01*
X151382091Y-103273108D01*
X151338916Y-103208493D01*
X151382064Y-103165345D01*
X151434485Y-103086892D01*
X151470593Y-102999719D01*
X151489000Y-102907177D01*
X151489000Y-102812823D01*
X151470593Y-102720281D01*
X151434485Y-102633108D01*
X151382064Y-102554655D01*
X151315345Y-102487936D01*
X151283120Y-102466404D01*
X151285228Y-102445000D01*
X151285228Y-101495000D01*
X151283068Y-101473068D01*
X151305000Y-101475228D01*
G37*
X151305000Y-101475228D02*
X151497617Y-101475228D01*
X151514731Y-101507246D01*
X151551001Y-101551441D01*
X151551001Y-101627177D01*
X151569408Y-101719719D01*
X151605516Y-101806892D01*
X151657937Y-101885345D01*
X151724656Y-101952064D01*
X151803109Y-102004485D01*
X151890282Y-102040593D01*
X151982824Y-102059000D01*
X152077178Y-102059000D01*
X152128002Y-102048891D01*
X152128001Y-106140888D01*
X151839348Y-106429541D01*
X151821594Y-106340281D01*
X151785486Y-106253108D01*
X151733065Y-106174655D01*
X151666346Y-106107936D01*
X151587893Y-106055515D01*
X151500720Y-106019407D01*
X151408178Y-106001000D01*
X151313824Y-106001000D01*
X151221282Y-106019407D01*
X151134109Y-106055515D01*
X151055656Y-106107936D01*
X151001092Y-106162500D01*
X150621513Y-106162500D01*
X150425541Y-105966529D01*
X150425228Y-105966147D01*
X150425228Y-105880000D01*
X150420324Y-105830207D01*
X150405800Y-105782328D01*
X150382214Y-105738203D01*
X150350473Y-105699527D01*
X150311797Y-105667786D01*
X150267672Y-105644200D01*
X150219793Y-105629676D01*
X150170000Y-105624772D01*
X149970000Y-105624772D01*
X149920207Y-105629676D01*
X149872328Y-105644200D01*
X149870000Y-105645444D01*
X149867672Y-105644200D01*
X149819793Y-105629676D01*
X149770000Y-105624772D01*
X149570000Y-105624772D01*
X149520207Y-105629676D01*
X149472328Y-105644200D01*
X149470000Y-105645444D01*
X149467672Y-105644200D01*
X149419793Y-105629676D01*
X149370000Y-105624772D01*
X149170000Y-105624772D01*
X149120207Y-105629676D01*
X149072328Y-105644200D01*
X149070000Y-105645444D01*
X149067672Y-105644200D01*
X149025101Y-105631286D01*
X149025228Y-105630000D01*
X149025228Y-105430000D01*
X149025101Y-105428714D01*
X149067672Y-105415800D01*
X149070000Y-105414556D01*
X149072328Y-105415800D01*
X149120207Y-105430324D01*
X149170000Y-105435228D01*
X149370000Y-105435228D01*
X149419793Y-105430324D01*
X149467672Y-105415800D01*
X149470000Y-105414556D01*
X149472328Y-105415800D01*
X149520207Y-105430324D01*
X149570000Y-105435228D01*
X149770000Y-105435228D01*
X149819793Y-105430324D01*
X149867672Y-105415800D01*
X149870000Y-105414556D01*
X149872328Y-105415800D01*
X149920207Y-105430324D01*
X149970000Y-105435228D01*
X150170000Y-105435228D01*
X150219793Y-105430324D01*
X150267672Y-105415800D01*
X150311797Y-105392214D01*
X150350473Y-105360473D01*
X150382214Y-105321797D01*
X150405800Y-105277672D01*
X150420324Y-105229793D01*
X150425228Y-105180000D01*
X150425228Y-104580000D01*
X150420324Y-104530207D01*
X150405800Y-104482328D01*
X150382214Y-104438203D01*
X150367500Y-104420274D01*
X150367500Y-104357500D01*
X150402010Y-104357500D01*
X150417606Y-104359036D01*
X150433202Y-104357500D01*
X150479847Y-104352906D01*
X150539696Y-104334751D01*
X150594853Y-104305269D01*
X150643199Y-104265593D01*
X150653148Y-104253470D01*
X150927619Y-103979000D01*
X151004783Y-103979000D01*
X151097325Y-103960593D01*
X151184498Y-103924485D01*
X151262951Y-103872064D01*
X151329670Y-103805345D01*
X151382091Y-103726892D01*
X151418199Y-103639719D01*
X151436606Y-103547177D01*
X151436606Y-103452823D01*
X151418199Y-103360281D01*
X151382091Y-103273108D01*
X151338916Y-103208493D01*
X151382064Y-103165345D01*
X151434485Y-103086892D01*
X151470593Y-102999719D01*
X151489000Y-102907177D01*
X151489000Y-102812823D01*
X151470593Y-102720281D01*
X151434485Y-102633108D01*
X151382064Y-102554655D01*
X151315345Y-102487936D01*
X151283120Y-102466404D01*
X151285228Y-102445000D01*
X151285228Y-101495000D01*
X151283068Y-101473068D01*
X151305000Y-101475228D01*
G36*
X153018203Y-104052214D02*
G01*
X153062328Y-104075800D01*
X153110207Y-104090324D01*
X153160000Y-104095228D01*
X155060000Y-104095228D01*
X155109793Y-104090324D01*
X155156993Y-104076006D01*
X155394463Y-104313476D01*
X155404407Y-104325593D01*
X155452753Y-104365269D01*
X155507910Y-104394751D01*
X155567759Y-104412906D01*
X155614404Y-104417500D01*
X155614406Y-104417500D01*
X155629999Y-104419036D01*
X155645592Y-104417500D01*
X155881564Y-104417500D01*
X155889200Y-104442672D01*
X155912786Y-104486797D01*
X155919518Y-104495000D01*
X155913363Y-104502500D01*
X155755592Y-104502500D01*
X155739999Y-104500964D01*
X155724406Y-104502500D01*
X155724404Y-104502500D01*
X155677759Y-104507094D01*
X155617910Y-104525249D01*
X155562753Y-104554731D01*
X155514407Y-104594407D01*
X155504462Y-104606525D01*
X155286525Y-104824463D01*
X155274408Y-104834407D01*
X155234732Y-104882753D01*
X155221114Y-104908230D01*
X155205249Y-104937911D01*
X155194634Y-104972905D01*
X155187094Y-104997759D01*
X155183101Y-105038299D01*
X155180964Y-105060000D01*
X155182500Y-105075596D01*
X155182500Y-105298487D01*
X154896216Y-105584772D01*
X153160000Y-105584772D01*
X153110207Y-105589676D01*
X153062328Y-105604200D01*
X153018203Y-105627786D01*
X153017011Y-105628764D01*
X153017011Y-104051236D01*
X153018203Y-104052214D01*
G37*
X153018203Y-104052214D02*
X153062328Y-104075800D01*
X153110207Y-104090324D01*
X153160000Y-104095228D01*
X155060000Y-104095228D01*
X155109793Y-104090324D01*
X155156993Y-104076006D01*
X155394463Y-104313476D01*
X155404407Y-104325593D01*
X155452753Y-104365269D01*
X155507910Y-104394751D01*
X155567759Y-104412906D01*
X155614404Y-104417500D01*
X155614406Y-104417500D01*
X155629999Y-104419036D01*
X155645592Y-104417500D01*
X155881564Y-104417500D01*
X155889200Y-104442672D01*
X155912786Y-104486797D01*
X155919518Y-104495000D01*
X155913363Y-104502500D01*
X155755592Y-104502500D01*
X155739999Y-104500964D01*
X155724406Y-104502500D01*
X155724404Y-104502500D01*
X155677759Y-104507094D01*
X155617910Y-104525249D01*
X155562753Y-104554731D01*
X155514407Y-104594407D01*
X155504462Y-104606525D01*
X155286525Y-104824463D01*
X155274408Y-104834407D01*
X155234732Y-104882753D01*
X155221114Y-104908230D01*
X155205249Y-104937911D01*
X155194634Y-104972905D01*
X155187094Y-104997759D01*
X155183101Y-105038299D01*
X155180964Y-105060000D01*
X155182500Y-105075596D01*
X155182500Y-105298487D01*
X154896216Y-105584772D01*
X153160000Y-105584772D01*
X153110207Y-105589676D01*
X153062328Y-105604200D01*
X153018203Y-105627786D01*
X153017011Y-105628764D01*
X153017011Y-104051236D01*
X153018203Y-104052214D01*
G36*
X164661000Y-102952823D02*
G01*
X164661000Y-103029988D01*
X164426525Y-103264463D01*
X164414408Y-103274407D01*
X164374732Y-103322753D01*
X164360168Y-103350001D01*
X164345249Y-103377911D01*
X164327094Y-103437760D01*
X164320964Y-103500000D01*
X164322501Y-103515605D01*
X164322500Y-104218487D01*
X163508488Y-105032500D01*
X163126535Y-105032500D01*
X163130228Y-104995000D01*
X163130228Y-104645000D01*
X163125324Y-104595207D01*
X163110800Y-104547328D01*
X163087214Y-104503203D01*
X163055473Y-104464527D01*
X163016797Y-104432786D01*
X162972672Y-104409200D01*
X162924793Y-104394676D01*
X162875000Y-104389772D01*
X161855228Y-104389772D01*
X161855228Y-103950228D01*
X162875000Y-103950228D01*
X162924793Y-103945324D01*
X162972672Y-103930800D01*
X163016797Y-103907214D01*
X163055473Y-103875473D01*
X163086637Y-103837500D01*
X163158089Y-103837500D01*
X163188203Y-103862214D01*
X163232328Y-103885800D01*
X163280207Y-103900324D01*
X163330000Y-103905228D01*
X163950000Y-103905228D01*
X163999793Y-103900324D01*
X164047672Y-103885800D01*
X164091797Y-103862214D01*
X164130473Y-103830473D01*
X164162214Y-103791797D01*
X164185800Y-103747672D01*
X164200324Y-103699793D01*
X164205228Y-103650000D01*
X164205228Y-103050000D01*
X164200324Y-103000207D01*
X164185800Y-102952328D01*
X164162214Y-102908203D01*
X164130473Y-102869527D01*
X164128003Y-102867500D01*
X164677971Y-102867500D01*
X164661000Y-102952823D01*
G37*
X164661000Y-102952823D02*
X164661000Y-103029988D01*
X164426525Y-103264463D01*
X164414408Y-103274407D01*
X164374732Y-103322753D01*
X164360168Y-103350001D01*
X164345249Y-103377911D01*
X164327094Y-103437760D01*
X164320964Y-103500000D01*
X164322501Y-103515605D01*
X164322500Y-104218487D01*
X163508488Y-105032500D01*
X163126535Y-105032500D01*
X163130228Y-104995000D01*
X163130228Y-104645000D01*
X163125324Y-104595207D01*
X163110800Y-104547328D01*
X163087214Y-104503203D01*
X163055473Y-104464527D01*
X163016797Y-104432786D01*
X162972672Y-104409200D01*
X162924793Y-104394676D01*
X162875000Y-104389772D01*
X161855228Y-104389772D01*
X161855228Y-103950228D01*
X162875000Y-103950228D01*
X162924793Y-103945324D01*
X162972672Y-103930800D01*
X163016797Y-103907214D01*
X163055473Y-103875473D01*
X163086637Y-103837500D01*
X163158089Y-103837500D01*
X163188203Y-103862214D01*
X163232328Y-103885800D01*
X163280207Y-103900324D01*
X163330000Y-103905228D01*
X163950000Y-103905228D01*
X163999793Y-103900324D01*
X164047672Y-103885800D01*
X164091797Y-103862214D01*
X164130473Y-103830473D01*
X164162214Y-103791797D01*
X164185800Y-103747672D01*
X164200324Y-103699793D01*
X164205228Y-103650000D01*
X164205228Y-103050000D01*
X164200324Y-103000207D01*
X164185800Y-102952328D01*
X164162214Y-102908203D01*
X164130473Y-102869527D01*
X164128003Y-102867500D01*
X164677971Y-102867500D01*
X164661000Y-102952823D01*
G36*
X157185414Y-95695123D02*
G01*
X157237835Y-95773576D01*
X157292399Y-95828140D01*
X157292400Y-99254628D01*
X157277328Y-99259200D01*
X157233203Y-99282786D01*
X157194527Y-99314527D01*
X157162786Y-99353203D01*
X157139200Y-99397328D01*
X157124676Y-99445207D01*
X157119772Y-99495000D01*
X157119772Y-100489772D01*
X156125000Y-100489772D01*
X156075207Y-100494676D01*
X156027328Y-100509200D01*
X155983203Y-100532786D01*
X155944527Y-100564527D01*
X155912786Y-100603203D01*
X155889200Y-100647328D01*
X155874676Y-100695207D01*
X155869772Y-100745000D01*
X155869772Y-101095000D01*
X155874676Y-101144793D01*
X155889200Y-101192672D01*
X155912786Y-101236797D01*
X155919518Y-101245000D01*
X155912786Y-101253203D01*
X155889200Y-101297328D01*
X155874676Y-101345207D01*
X155869772Y-101395000D01*
X155869772Y-101745000D01*
X155874676Y-101794793D01*
X155889200Y-101842672D01*
X155912786Y-101886797D01*
X155919518Y-101895000D01*
X155912786Y-101903203D01*
X155889200Y-101947328D01*
X155874676Y-101995207D01*
X155869772Y-102045000D01*
X155869772Y-102395000D01*
X155874676Y-102444793D01*
X155889200Y-102492672D01*
X155912786Y-102536797D01*
X155919518Y-102545000D01*
X155912786Y-102553203D01*
X155889200Y-102597328D01*
X155874676Y-102645207D01*
X155869772Y-102695000D01*
X155869772Y-103045000D01*
X155874676Y-103094793D01*
X155889200Y-103142672D01*
X155912786Y-103186797D01*
X155944527Y-103225473D01*
X155983203Y-103257214D01*
X156027328Y-103280800D01*
X156075207Y-103295324D01*
X156125000Y-103300228D01*
X157144772Y-103300228D01*
X157144772Y-103739772D01*
X156125000Y-103739772D01*
X156075207Y-103744676D01*
X156027328Y-103759200D01*
X155983738Y-103782500D01*
X155761513Y-103782500D01*
X155405542Y-103426529D01*
X155395593Y-103414407D01*
X155347247Y-103374731D01*
X155297576Y-103348181D01*
X155295800Y-103342328D01*
X155272214Y-103298203D01*
X155240473Y-103259527D01*
X155201797Y-103227786D01*
X155157672Y-103204200D01*
X155109793Y-103189676D01*
X155060000Y-103184772D01*
X153160000Y-103184772D01*
X153110207Y-103189676D01*
X153062328Y-103204200D01*
X153018203Y-103227786D01*
X153017011Y-103228764D01*
X153017011Y-102592001D01*
X153150012Y-102459000D01*
X153227177Y-102459000D01*
X153319719Y-102440593D01*
X153406892Y-102404485D01*
X153485345Y-102352064D01*
X153552064Y-102285345D01*
X153604485Y-102206892D01*
X153640593Y-102119719D01*
X153659000Y-102027177D01*
X153659000Y-101932823D01*
X153640593Y-101840281D01*
X153604485Y-101753108D01*
X153552064Y-101674655D01*
X153485345Y-101607936D01*
X153406892Y-101555515D01*
X153319719Y-101519407D01*
X153227177Y-101501000D01*
X153132823Y-101501000D01*
X153040281Y-101519407D01*
X152953108Y-101555515D01*
X152874655Y-101607936D01*
X152807936Y-101674655D01*
X152763001Y-101741904D01*
X152763001Y-100649097D01*
X152764537Y-100633501D01*
X152758407Y-100571260D01*
X152751221Y-100547572D01*
X152740252Y-100511411D01*
X152710770Y-100456254D01*
X152671094Y-100407908D01*
X152658971Y-100397959D01*
X152655506Y-100394494D01*
X152676082Y-100373917D01*
X152682101Y-100364909D01*
X152704731Y-100407247D01*
X152744408Y-100455593D01*
X152756525Y-100465537D01*
X152834458Y-100543470D01*
X152844407Y-100555593D01*
X152892753Y-100595269D01*
X152930489Y-100615439D01*
X152934200Y-100627672D01*
X152957786Y-100671797D01*
X152989527Y-100710473D01*
X153028203Y-100742214D01*
X153072328Y-100765800D01*
X153120207Y-100780324D01*
X153170000Y-100785228D01*
X155070000Y-100785228D01*
X155119793Y-100780324D01*
X155167672Y-100765800D01*
X155211797Y-100742214D01*
X155250473Y-100710473D01*
X155282214Y-100671797D01*
X155305800Y-100627672D01*
X155320324Y-100579793D01*
X155325228Y-100530000D01*
X155325228Y-100130000D01*
X155320324Y-100080207D01*
X155305800Y-100032328D01*
X155282214Y-99988203D01*
X155250473Y-99949527D01*
X155211797Y-99917786D01*
X155167672Y-99894200D01*
X155119793Y-99879676D01*
X155070000Y-99874772D01*
X153266833Y-99874772D01*
X153264751Y-99867910D01*
X153235269Y-99812753D01*
X153229393Y-99805593D01*
X153195593Y-99764407D01*
X153183477Y-99754464D01*
X152877500Y-99448488D01*
X152877500Y-99262823D01*
X155991000Y-99262823D01*
X155991000Y-99357177D01*
X156009407Y-99449719D01*
X156045515Y-99536892D01*
X156097936Y-99615345D01*
X156164655Y-99682064D01*
X156243108Y-99734485D01*
X156330281Y-99770593D01*
X156422823Y-99789000D01*
X156517177Y-99789000D01*
X156609719Y-99770593D01*
X156696892Y-99734485D01*
X156775345Y-99682064D01*
X156842064Y-99615345D01*
X156894485Y-99536892D01*
X156930593Y-99449719D01*
X156949000Y-99357177D01*
X156949000Y-99262823D01*
X156930593Y-99170281D01*
X156894485Y-99083108D01*
X156842064Y-99004655D01*
X156775345Y-98937936D01*
X156696892Y-98885515D01*
X156609719Y-98849407D01*
X156517177Y-98831000D01*
X156422823Y-98831000D01*
X156330281Y-98849407D01*
X156243108Y-98885515D01*
X156164655Y-98937936D01*
X156097936Y-99004655D01*
X156045515Y-99083108D01*
X156009407Y-99170281D01*
X155991000Y-99262823D01*
X152877500Y-99262823D01*
X152877500Y-99255592D01*
X152879036Y-99239999D01*
X152875863Y-99207786D01*
X152872906Y-99177759D01*
X152854751Y-99117910D01*
X152825269Y-99062753D01*
X152785593Y-99014407D01*
X152773471Y-99004459D01*
X152629697Y-98860685D01*
X152677247Y-98835269D01*
X152725593Y-98795593D01*
X152735542Y-98783470D01*
X153137032Y-98381981D01*
X153170000Y-98385228D01*
X155070000Y-98385228D01*
X155119793Y-98380324D01*
X155167672Y-98365800D01*
X155211797Y-98342214D01*
X155250473Y-98310473D01*
X155282214Y-98271797D01*
X155301812Y-98235133D01*
X155363279Y-98260593D01*
X155455821Y-98279000D01*
X155550175Y-98279000D01*
X155642717Y-98260593D01*
X155729890Y-98224485D01*
X155808343Y-98172064D01*
X155875062Y-98105345D01*
X155927483Y-98026892D01*
X155963591Y-97939719D01*
X155981998Y-97847177D01*
X155981998Y-97770012D01*
X156403978Y-97348033D01*
X156416094Y-97338090D01*
X156455770Y-97289744D01*
X156485252Y-97234587D01*
X156496227Y-97198408D01*
X156503407Y-97174739D01*
X156509537Y-97112498D01*
X156508001Y-97096902D01*
X156508001Y-96271011D01*
X157155678Y-95623334D01*
X157185414Y-95695123D01*
G37*
X157185414Y-95695123D02*
X157237835Y-95773576D01*
X157292399Y-95828140D01*
X157292400Y-99254628D01*
X157277328Y-99259200D01*
X157233203Y-99282786D01*
X157194527Y-99314527D01*
X157162786Y-99353203D01*
X157139200Y-99397328D01*
X157124676Y-99445207D01*
X157119772Y-99495000D01*
X157119772Y-100489772D01*
X156125000Y-100489772D01*
X156075207Y-100494676D01*
X156027328Y-100509200D01*
X155983203Y-100532786D01*
X155944527Y-100564527D01*
X155912786Y-100603203D01*
X155889200Y-100647328D01*
X155874676Y-100695207D01*
X155869772Y-100745000D01*
X155869772Y-101095000D01*
X155874676Y-101144793D01*
X155889200Y-101192672D01*
X155912786Y-101236797D01*
X155919518Y-101245000D01*
X155912786Y-101253203D01*
X155889200Y-101297328D01*
X155874676Y-101345207D01*
X155869772Y-101395000D01*
X155869772Y-101745000D01*
X155874676Y-101794793D01*
X155889200Y-101842672D01*
X155912786Y-101886797D01*
X155919518Y-101895000D01*
X155912786Y-101903203D01*
X155889200Y-101947328D01*
X155874676Y-101995207D01*
X155869772Y-102045000D01*
X155869772Y-102395000D01*
X155874676Y-102444793D01*
X155889200Y-102492672D01*
X155912786Y-102536797D01*
X155919518Y-102545000D01*
X155912786Y-102553203D01*
X155889200Y-102597328D01*
X155874676Y-102645207D01*
X155869772Y-102695000D01*
X155869772Y-103045000D01*
X155874676Y-103094793D01*
X155889200Y-103142672D01*
X155912786Y-103186797D01*
X155944527Y-103225473D01*
X155983203Y-103257214D01*
X156027328Y-103280800D01*
X156075207Y-103295324D01*
X156125000Y-103300228D01*
X157144772Y-103300228D01*
X157144772Y-103739772D01*
X156125000Y-103739772D01*
X156075207Y-103744676D01*
X156027328Y-103759200D01*
X155983738Y-103782500D01*
X155761513Y-103782500D01*
X155405542Y-103426529D01*
X155395593Y-103414407D01*
X155347247Y-103374731D01*
X155297576Y-103348181D01*
X155295800Y-103342328D01*
X155272214Y-103298203D01*
X155240473Y-103259527D01*
X155201797Y-103227786D01*
X155157672Y-103204200D01*
X155109793Y-103189676D01*
X155060000Y-103184772D01*
X153160000Y-103184772D01*
X153110207Y-103189676D01*
X153062328Y-103204200D01*
X153018203Y-103227786D01*
X153017011Y-103228764D01*
X153017011Y-102592001D01*
X153150012Y-102459000D01*
X153227177Y-102459000D01*
X153319719Y-102440593D01*
X153406892Y-102404485D01*
X153485345Y-102352064D01*
X153552064Y-102285345D01*
X153604485Y-102206892D01*
X153640593Y-102119719D01*
X153659000Y-102027177D01*
X153659000Y-101932823D01*
X153640593Y-101840281D01*
X153604485Y-101753108D01*
X153552064Y-101674655D01*
X153485345Y-101607936D01*
X153406892Y-101555515D01*
X153319719Y-101519407D01*
X153227177Y-101501000D01*
X153132823Y-101501000D01*
X153040281Y-101519407D01*
X152953108Y-101555515D01*
X152874655Y-101607936D01*
X152807936Y-101674655D01*
X152763001Y-101741904D01*
X152763001Y-100649097D01*
X152764537Y-100633501D01*
X152758407Y-100571260D01*
X152751221Y-100547572D01*
X152740252Y-100511411D01*
X152710770Y-100456254D01*
X152671094Y-100407908D01*
X152658971Y-100397959D01*
X152655506Y-100394494D01*
X152676082Y-100373917D01*
X152682101Y-100364909D01*
X152704731Y-100407247D01*
X152744408Y-100455593D01*
X152756525Y-100465537D01*
X152834458Y-100543470D01*
X152844407Y-100555593D01*
X152892753Y-100595269D01*
X152930489Y-100615439D01*
X152934200Y-100627672D01*
X152957786Y-100671797D01*
X152989527Y-100710473D01*
X153028203Y-100742214D01*
X153072328Y-100765800D01*
X153120207Y-100780324D01*
X153170000Y-100785228D01*
X155070000Y-100785228D01*
X155119793Y-100780324D01*
X155167672Y-100765800D01*
X155211797Y-100742214D01*
X155250473Y-100710473D01*
X155282214Y-100671797D01*
X155305800Y-100627672D01*
X155320324Y-100579793D01*
X155325228Y-100530000D01*
X155325228Y-100130000D01*
X155320324Y-100080207D01*
X155305800Y-100032328D01*
X155282214Y-99988203D01*
X155250473Y-99949527D01*
X155211797Y-99917786D01*
X155167672Y-99894200D01*
X155119793Y-99879676D01*
X155070000Y-99874772D01*
X153266833Y-99874772D01*
X153264751Y-99867910D01*
X153235269Y-99812753D01*
X153229393Y-99805593D01*
X153195593Y-99764407D01*
X153183477Y-99754464D01*
X152877500Y-99448488D01*
X152877500Y-99262823D01*
X155991000Y-99262823D01*
X155991000Y-99357177D01*
X156009407Y-99449719D01*
X156045515Y-99536892D01*
X156097936Y-99615345D01*
X156164655Y-99682064D01*
X156243108Y-99734485D01*
X156330281Y-99770593D01*
X156422823Y-99789000D01*
X156517177Y-99789000D01*
X156609719Y-99770593D01*
X156696892Y-99734485D01*
X156775345Y-99682064D01*
X156842064Y-99615345D01*
X156894485Y-99536892D01*
X156930593Y-99449719D01*
X156949000Y-99357177D01*
X156949000Y-99262823D01*
X156930593Y-99170281D01*
X156894485Y-99083108D01*
X156842064Y-99004655D01*
X156775345Y-98937936D01*
X156696892Y-98885515D01*
X156609719Y-98849407D01*
X156517177Y-98831000D01*
X156422823Y-98831000D01*
X156330281Y-98849407D01*
X156243108Y-98885515D01*
X156164655Y-98937936D01*
X156097936Y-99004655D01*
X156045515Y-99083108D01*
X156009407Y-99170281D01*
X155991000Y-99262823D01*
X152877500Y-99262823D01*
X152877500Y-99255592D01*
X152879036Y-99239999D01*
X152875863Y-99207786D01*
X152872906Y-99177759D01*
X152854751Y-99117910D01*
X152825269Y-99062753D01*
X152785593Y-99014407D01*
X152773471Y-99004459D01*
X152629697Y-98860685D01*
X152677247Y-98835269D01*
X152725593Y-98795593D01*
X152735542Y-98783470D01*
X153137032Y-98381981D01*
X153170000Y-98385228D01*
X155070000Y-98385228D01*
X155119793Y-98380324D01*
X155167672Y-98365800D01*
X155211797Y-98342214D01*
X155250473Y-98310473D01*
X155282214Y-98271797D01*
X155301812Y-98235133D01*
X155363279Y-98260593D01*
X155455821Y-98279000D01*
X155550175Y-98279000D01*
X155642717Y-98260593D01*
X155729890Y-98224485D01*
X155808343Y-98172064D01*
X155875062Y-98105345D01*
X155927483Y-98026892D01*
X155963591Y-97939719D01*
X155981998Y-97847177D01*
X155981998Y-97770012D01*
X156403978Y-97348033D01*
X156416094Y-97338090D01*
X156455770Y-97289744D01*
X156485252Y-97234587D01*
X156496227Y-97198408D01*
X156503407Y-97174739D01*
X156509537Y-97112498D01*
X156508001Y-97096902D01*
X156508001Y-96271011D01*
X157155678Y-95623334D01*
X157185414Y-95695123D01*
G36*
X155382500Y-95611513D02*
G01*
X155382500Y-95734404D01*
X155380964Y-95750000D01*
X155382501Y-95765605D01*
X155382500Y-96088487D01*
X155166529Y-96304459D01*
X155154407Y-96314407D01*
X155137287Y-96335269D01*
X155114731Y-96362753D01*
X155093796Y-96401920D01*
X155084527Y-96409527D01*
X155052786Y-96448203D01*
X155029200Y-96492328D01*
X155014676Y-96540207D01*
X155009772Y-96590000D01*
X155009772Y-97030000D01*
X155014676Y-97079793D01*
X155029200Y-97127672D01*
X155052786Y-97171797D01*
X155084527Y-97210473D01*
X155123203Y-97242214D01*
X155167328Y-97265800D01*
X155215207Y-97280324D01*
X155265000Y-97285228D01*
X155337329Y-97285228D01*
X155350281Y-97290593D01*
X155442823Y-97309000D01*
X155537177Y-97309000D01*
X155546924Y-97307061D01*
X155532986Y-97321000D01*
X155455821Y-97321000D01*
X155363279Y-97339407D01*
X155276106Y-97375515D01*
X155197653Y-97427936D01*
X155139834Y-97485755D01*
X155119793Y-97479676D01*
X155070000Y-97474772D01*
X153170000Y-97474772D01*
X153120207Y-97479676D01*
X153072328Y-97494200D01*
X153028203Y-97517786D01*
X152989527Y-97549527D01*
X152957786Y-97588203D01*
X152934200Y-97632328D01*
X152919676Y-97680207D01*
X152917546Y-97701831D01*
X152914407Y-97704407D01*
X152904463Y-97716524D01*
X152510228Y-98110760D01*
X152510228Y-97920000D01*
X152505324Y-97870207D01*
X152490800Y-97822328D01*
X152489556Y-97820000D01*
X152490800Y-97817672D01*
X152505324Y-97769793D01*
X152510228Y-97720000D01*
X152510228Y-97420000D01*
X152505324Y-97370207D01*
X152496473Y-97341028D01*
X152507247Y-97335269D01*
X152555593Y-97295593D01*
X152565542Y-97283470D01*
X152640995Y-97208017D01*
X152664817Y-97188467D01*
X152674766Y-97176344D01*
X152899772Y-96951338D01*
X152899772Y-97030000D01*
X152904676Y-97079793D01*
X152919200Y-97127672D01*
X152942786Y-97171797D01*
X152974527Y-97210473D01*
X153013203Y-97242214D01*
X153057328Y-97265800D01*
X153105207Y-97280324D01*
X153155000Y-97285228D01*
X153343859Y-97285228D01*
X153362823Y-97289000D01*
X153457177Y-97289000D01*
X153476141Y-97285228D01*
X153625000Y-97285228D01*
X153674793Y-97280324D01*
X153722672Y-97265800D01*
X153766797Y-97242214D01*
X153805473Y-97210473D01*
X153837214Y-97171797D01*
X153860800Y-97127672D01*
X153875324Y-97079793D01*
X153880228Y-97030000D01*
X153880228Y-96901279D01*
X153889000Y-96857177D01*
X153889000Y-96762823D01*
X153884655Y-96740978D01*
X153894751Y-96722090D01*
X153912906Y-96662241D01*
X153917500Y-96615596D01*
X153919036Y-96600000D01*
X153917500Y-96584404D01*
X153917500Y-96089909D01*
X153972064Y-96035345D01*
X154024485Y-95956892D01*
X154060593Y-95869719D01*
X154079000Y-95777177D01*
X154079000Y-95700013D01*
X154226513Y-95552500D01*
X154359404Y-95552500D01*
X154375000Y-95554036D01*
X154377801Y-95553760D01*
X154413784Y-95568665D01*
X154480823Y-95582000D01*
X154549177Y-95582000D01*
X154616216Y-95568665D01*
X154679366Y-95542507D01*
X154736200Y-95504533D01*
X154784533Y-95456200D01*
X154822507Y-95399366D01*
X154848665Y-95336216D01*
X154862000Y-95269177D01*
X154862000Y-95232000D01*
X154899177Y-95232000D01*
X154966216Y-95218665D01*
X154982788Y-95211800D01*
X155382500Y-95611513D01*
G37*
X155382500Y-95611513D02*
X155382500Y-95734404D01*
X155380964Y-95750000D01*
X155382501Y-95765605D01*
X155382500Y-96088487D01*
X155166529Y-96304459D01*
X155154407Y-96314407D01*
X155137287Y-96335269D01*
X155114731Y-96362753D01*
X155093796Y-96401920D01*
X155084527Y-96409527D01*
X155052786Y-96448203D01*
X155029200Y-96492328D01*
X155014676Y-96540207D01*
X155009772Y-96590000D01*
X155009772Y-97030000D01*
X155014676Y-97079793D01*
X155029200Y-97127672D01*
X155052786Y-97171797D01*
X155084527Y-97210473D01*
X155123203Y-97242214D01*
X155167328Y-97265800D01*
X155215207Y-97280324D01*
X155265000Y-97285228D01*
X155337329Y-97285228D01*
X155350281Y-97290593D01*
X155442823Y-97309000D01*
X155537177Y-97309000D01*
X155546924Y-97307061D01*
X155532986Y-97321000D01*
X155455821Y-97321000D01*
X155363279Y-97339407D01*
X155276106Y-97375515D01*
X155197653Y-97427936D01*
X155139834Y-97485755D01*
X155119793Y-97479676D01*
X155070000Y-97474772D01*
X153170000Y-97474772D01*
X153120207Y-97479676D01*
X153072328Y-97494200D01*
X153028203Y-97517786D01*
X152989527Y-97549527D01*
X152957786Y-97588203D01*
X152934200Y-97632328D01*
X152919676Y-97680207D01*
X152917546Y-97701831D01*
X152914407Y-97704407D01*
X152904463Y-97716524D01*
X152510228Y-98110760D01*
X152510228Y-97920000D01*
X152505324Y-97870207D01*
X152490800Y-97822328D01*
X152489556Y-97820000D01*
X152490800Y-97817672D01*
X152505324Y-97769793D01*
X152510228Y-97720000D01*
X152510228Y-97420000D01*
X152505324Y-97370207D01*
X152496473Y-97341028D01*
X152507247Y-97335269D01*
X152555593Y-97295593D01*
X152565542Y-97283470D01*
X152640995Y-97208017D01*
X152664817Y-97188467D01*
X152674766Y-97176344D01*
X152899772Y-96951338D01*
X152899772Y-97030000D01*
X152904676Y-97079793D01*
X152919200Y-97127672D01*
X152942786Y-97171797D01*
X152974527Y-97210473D01*
X153013203Y-97242214D01*
X153057328Y-97265800D01*
X153105207Y-97280324D01*
X153155000Y-97285228D01*
X153343859Y-97285228D01*
X153362823Y-97289000D01*
X153457177Y-97289000D01*
X153476141Y-97285228D01*
X153625000Y-97285228D01*
X153674793Y-97280324D01*
X153722672Y-97265800D01*
X153766797Y-97242214D01*
X153805473Y-97210473D01*
X153837214Y-97171797D01*
X153860800Y-97127672D01*
X153875324Y-97079793D01*
X153880228Y-97030000D01*
X153880228Y-96901279D01*
X153889000Y-96857177D01*
X153889000Y-96762823D01*
X153884655Y-96740978D01*
X153894751Y-96722090D01*
X153912906Y-96662241D01*
X153917500Y-96615596D01*
X153919036Y-96600000D01*
X153917500Y-96584404D01*
X153917500Y-96089909D01*
X153972064Y-96035345D01*
X154024485Y-95956892D01*
X154060593Y-95869719D01*
X154079000Y-95777177D01*
X154079000Y-95700013D01*
X154226513Y-95552500D01*
X154359404Y-95552500D01*
X154375000Y-95554036D01*
X154377801Y-95553760D01*
X154413784Y-95568665D01*
X154480823Y-95582000D01*
X154549177Y-95582000D01*
X154616216Y-95568665D01*
X154679366Y-95542507D01*
X154736200Y-95504533D01*
X154784533Y-95456200D01*
X154822507Y-95399366D01*
X154848665Y-95336216D01*
X154862000Y-95269177D01*
X154862000Y-95232000D01*
X154899177Y-95232000D01*
X154966216Y-95218665D01*
X154982788Y-95211800D01*
X155382500Y-95611513D01*
G36*
X157012208Y-94307485D02*
G01*
X157022153Y-94319603D01*
X157061738Y-94352089D01*
X157070499Y-94359279D01*
X157125656Y-94388761D01*
X157185505Y-94406916D01*
X157247746Y-94413046D01*
X157263342Y-94411510D01*
X158153274Y-94411510D01*
X158404264Y-94662500D01*
X157365592Y-94662500D01*
X157349999Y-94660964D01*
X157334406Y-94662500D01*
X157334404Y-94662500D01*
X157287759Y-94667094D01*
X157227910Y-94685249D01*
X157172753Y-94714731D01*
X157124407Y-94754407D01*
X157114463Y-94766524D01*
X156107500Y-95773488D01*
X156107500Y-95445592D01*
X156109036Y-95429999D01*
X156107337Y-95412754D01*
X156102906Y-95367759D01*
X156084751Y-95307910D01*
X156055269Y-95252753D01*
X156015593Y-95204407D01*
X156003477Y-95194464D01*
X155405542Y-94596530D01*
X155395593Y-94584407D01*
X155347247Y-94544731D01*
X155292090Y-94515249D01*
X155232241Y-94497094D01*
X155185596Y-94492500D01*
X155170000Y-94490964D01*
X155154404Y-94492500D01*
X154935596Y-94492500D01*
X154920000Y-94490964D01*
X154904404Y-94492500D01*
X154857759Y-94497094D01*
X154797910Y-94515249D01*
X154742753Y-94544731D01*
X154705072Y-94575655D01*
X154700634Y-94577493D01*
X154690000Y-94584598D01*
X154679366Y-94577493D01*
X154616216Y-94551335D01*
X154549177Y-94538000D01*
X154480823Y-94538000D01*
X154413784Y-94551335D01*
X154350634Y-94577493D01*
X154293800Y-94615467D01*
X154245467Y-94663800D01*
X154207493Y-94720634D01*
X154191327Y-94759661D01*
X154176530Y-94774458D01*
X154164407Y-94784407D01*
X154149559Y-94802500D01*
X154055596Y-94802500D01*
X154040000Y-94800964D01*
X154024404Y-94802500D01*
X153977759Y-94807094D01*
X153917910Y-94825249D01*
X153862753Y-94854731D01*
X153814407Y-94894407D01*
X153804463Y-94906524D01*
X153428358Y-95282630D01*
X153373108Y-95305515D01*
X153361510Y-95313265D01*
X153361510Y-94156726D01*
X153376726Y-94141510D01*
X156846234Y-94141510D01*
X157012208Y-94307485D01*
G37*
X157012208Y-94307485D02*
X157022153Y-94319603D01*
X157061738Y-94352089D01*
X157070499Y-94359279D01*
X157125656Y-94388761D01*
X157185505Y-94406916D01*
X157247746Y-94413046D01*
X157263342Y-94411510D01*
X158153274Y-94411510D01*
X158404264Y-94662500D01*
X157365592Y-94662500D01*
X157349999Y-94660964D01*
X157334406Y-94662500D01*
X157334404Y-94662500D01*
X157287759Y-94667094D01*
X157227910Y-94685249D01*
X157172753Y-94714731D01*
X157124407Y-94754407D01*
X157114463Y-94766524D01*
X156107500Y-95773488D01*
X156107500Y-95445592D01*
X156109036Y-95429999D01*
X156107337Y-95412754D01*
X156102906Y-95367759D01*
X156084751Y-95307910D01*
X156055269Y-95252753D01*
X156015593Y-95204407D01*
X156003477Y-95194464D01*
X155405542Y-94596530D01*
X155395593Y-94584407D01*
X155347247Y-94544731D01*
X155292090Y-94515249D01*
X155232241Y-94497094D01*
X155185596Y-94492500D01*
X155170000Y-94490964D01*
X155154404Y-94492500D01*
X154935596Y-94492500D01*
X154920000Y-94490964D01*
X154904404Y-94492500D01*
X154857759Y-94497094D01*
X154797910Y-94515249D01*
X154742753Y-94544731D01*
X154705072Y-94575655D01*
X154700634Y-94577493D01*
X154690000Y-94584598D01*
X154679366Y-94577493D01*
X154616216Y-94551335D01*
X154549177Y-94538000D01*
X154480823Y-94538000D01*
X154413784Y-94551335D01*
X154350634Y-94577493D01*
X154293800Y-94615467D01*
X154245467Y-94663800D01*
X154207493Y-94720634D01*
X154191327Y-94759661D01*
X154176530Y-94774458D01*
X154164407Y-94784407D01*
X154149559Y-94802500D01*
X154055596Y-94802500D01*
X154040000Y-94800964D01*
X154024404Y-94802500D01*
X153977759Y-94807094D01*
X153917910Y-94825249D01*
X153862753Y-94854731D01*
X153814407Y-94894407D01*
X153804463Y-94906524D01*
X153428358Y-95282630D01*
X153373108Y-95305515D01*
X153361510Y-95313265D01*
X153361510Y-94156726D01*
X153376726Y-94141510D01*
X156846234Y-94141510D01*
X157012208Y-94307485D01*
G04 #@! TD*
M02*
