G04 #@! TF.GenerationSoftware,KiCad,Pcbnew,(5.1.6)-1*
G04 #@! TF.CreationDate,2021-02-20T14:32:47+01:00*
G04 #@! TF.ProjectId,IDCbreakout,49444362-7265-4616-9b6f-75742e6b6963,rev?*
G04 #@! TF.SameCoordinates,Original*
G04 #@! TF.FileFunction,Legend,Top*
G04 #@! TF.FilePolarity,Positive*
%FSLAX46Y46*%
G04 Gerber Fmt 4.6, Leading zero omitted, Abs format (unit mm)*
G04 Created by KiCad (PCBNEW (5.1.6)-1) date 2021-02-20 14:32:47*
%MOMM*%
%LPD*%
G01*
G04 APERTURE LIST*
%ADD10C,0.100000*%
%ADD11C,0.150000*%
%ADD12C,0.200000*%
%ADD13C,0.254000*%
G04 APERTURE END LIST*
D10*
G36*
X118450000Y-97120000D02*
G01*
X118450000Y-97230000D01*
X105050000Y-97230000D01*
X105060000Y-97110000D01*
X118450000Y-97120000D01*
G37*
X118450000Y-97120000D02*
X118450000Y-97230000D01*
X105050000Y-97230000D01*
X105060000Y-97110000D01*
X118450000Y-97120000D01*
G36*
X115180000Y-131560000D02*
G01*
X114650000Y-131560000D01*
X114650000Y-95720000D01*
X115280000Y-95720000D01*
X115180000Y-131560000D01*
G37*
X115180000Y-131560000D02*
X114650000Y-131560000D01*
X114650000Y-95720000D01*
X115280000Y-95720000D01*
X115180000Y-131560000D01*
D11*
X117078095Y-130160000D02*
X116982857Y-130112380D01*
X116840000Y-130112380D01*
X116697142Y-130160000D01*
X116601904Y-130255238D01*
X116554285Y-130350476D01*
X116506666Y-130540952D01*
X116506666Y-130683809D01*
X116554285Y-130874285D01*
X116601904Y-130969523D01*
X116697142Y-131064761D01*
X116840000Y-131112380D01*
X116935238Y-131112380D01*
X117078095Y-131064761D01*
X117125714Y-131017142D01*
X117125714Y-130683809D01*
X116935238Y-130683809D01*
X117554285Y-131112380D02*
X117554285Y-130112380D01*
X118125714Y-131112380D01*
X118125714Y-130112380D01*
X118601904Y-131112380D02*
X118601904Y-130112380D01*
X118840000Y-130112380D01*
X118982857Y-130160000D01*
X119078095Y-130255238D01*
X119125714Y-130350476D01*
X119173333Y-130540952D01*
X119173333Y-130683809D01*
X119125714Y-130874285D01*
X119078095Y-130969523D01*
X118982857Y-131064761D01*
X118840000Y-131112380D01*
X118601904Y-131112380D01*
X117028095Y-127600000D02*
X116932857Y-127552380D01*
X116790000Y-127552380D01*
X116647142Y-127600000D01*
X116551904Y-127695238D01*
X116504285Y-127790476D01*
X116456666Y-127980952D01*
X116456666Y-128123809D01*
X116504285Y-128314285D01*
X116551904Y-128409523D01*
X116647142Y-128504761D01*
X116790000Y-128552380D01*
X116885238Y-128552380D01*
X117028095Y-128504761D01*
X117075714Y-128457142D01*
X117075714Y-128123809D01*
X116885238Y-128123809D01*
X117504285Y-128552380D02*
X117504285Y-127552380D01*
X118075714Y-128552380D01*
X118075714Y-127552380D01*
X118551904Y-128552380D02*
X118551904Y-127552380D01*
X118790000Y-127552380D01*
X118932857Y-127600000D01*
X119028095Y-127695238D01*
X119075714Y-127790476D01*
X119123333Y-127980952D01*
X119123333Y-128123809D01*
X119075714Y-128314285D01*
X119028095Y-128409523D01*
X118932857Y-128504761D01*
X118790000Y-128552380D01*
X118551904Y-128552380D01*
X116958095Y-124980000D02*
X116862857Y-124932380D01*
X116720000Y-124932380D01*
X116577142Y-124980000D01*
X116481904Y-125075238D01*
X116434285Y-125170476D01*
X116386666Y-125360952D01*
X116386666Y-125503809D01*
X116434285Y-125694285D01*
X116481904Y-125789523D01*
X116577142Y-125884761D01*
X116720000Y-125932380D01*
X116815238Y-125932380D01*
X116958095Y-125884761D01*
X117005714Y-125837142D01*
X117005714Y-125503809D01*
X116815238Y-125503809D01*
X117434285Y-125932380D02*
X117434285Y-124932380D01*
X118005714Y-125932380D01*
X118005714Y-124932380D01*
X118481904Y-125932380D02*
X118481904Y-124932380D01*
X118720000Y-124932380D01*
X118862857Y-124980000D01*
X118958095Y-125075238D01*
X119005714Y-125170476D01*
X119053333Y-125360952D01*
X119053333Y-125503809D01*
X119005714Y-125694285D01*
X118958095Y-125789523D01*
X118862857Y-125884761D01*
X118720000Y-125932380D01*
X118481904Y-125932380D01*
X116461904Y-122422380D02*
X117033333Y-122422380D01*
X116747619Y-123422380D02*
X116747619Y-122422380D01*
X117271428Y-122422380D02*
X117938095Y-123422380D01*
X117938095Y-122422380D02*
X117271428Y-123422380D01*
X118271428Y-122517619D02*
X118319047Y-122470000D01*
X118414285Y-122422380D01*
X118652380Y-122422380D01*
X118747619Y-122470000D01*
X118795238Y-122517619D01*
X118842857Y-122612857D01*
X118842857Y-122708095D01*
X118795238Y-122850952D01*
X118223809Y-123422380D01*
X118842857Y-123422380D01*
X110151428Y-120762380D02*
X110151428Y-119762380D01*
X110484761Y-120476666D01*
X110818095Y-119762380D01*
X110818095Y-120762380D01*
X111865714Y-120667142D02*
X111818095Y-120714761D01*
X111675238Y-120762380D01*
X111580000Y-120762380D01*
X111437142Y-120714761D01*
X111341904Y-120619523D01*
X111294285Y-120524285D01*
X111246666Y-120333809D01*
X111246666Y-120190952D01*
X111294285Y-120000476D01*
X111341904Y-119905238D01*
X111437142Y-119810000D01*
X111580000Y-119762380D01*
X111675238Y-119762380D01*
X111818095Y-119810000D01*
X111865714Y-119857619D01*
X112770476Y-120762380D02*
X112294285Y-120762380D01*
X112294285Y-119762380D01*
X113675238Y-120762380D02*
X113341904Y-120286190D01*
X113103809Y-120762380D02*
X113103809Y-119762380D01*
X113484761Y-119762380D01*
X113580000Y-119810000D01*
X113627619Y-119857619D01*
X113675238Y-119952857D01*
X113675238Y-120095714D01*
X113627619Y-120190952D01*
X113580000Y-120238571D01*
X113484761Y-120286190D01*
X113103809Y-120286190D01*
X115103809Y-121095714D02*
X115103809Y-119667142D01*
X117151428Y-120762380D02*
X116818095Y-120286190D01*
X116580000Y-120762380D02*
X116580000Y-119762380D01*
X116960952Y-119762380D01*
X117056190Y-119810000D01*
X117103809Y-119857619D01*
X117151428Y-119952857D01*
X117151428Y-120095714D01*
X117103809Y-120190952D01*
X117056190Y-120238571D01*
X116960952Y-120286190D01*
X116580000Y-120286190D01*
X117484761Y-119762380D02*
X118151428Y-120762380D01*
X118151428Y-119762380D02*
X117484761Y-120762380D01*
X118484761Y-119857619D02*
X118532380Y-119810000D01*
X118627619Y-119762380D01*
X118865714Y-119762380D01*
X118960952Y-119810000D01*
X119008571Y-119857619D01*
X119056190Y-119952857D01*
X119056190Y-120048095D01*
X119008571Y-120190952D01*
X118437142Y-120762380D01*
X119056190Y-120762380D01*
X110176666Y-118312380D02*
X110176666Y-117312380D01*
X110557619Y-117312380D01*
X110652857Y-117360000D01*
X110700476Y-117407619D01*
X110748095Y-117502857D01*
X110748095Y-117645714D01*
X110700476Y-117740952D01*
X110652857Y-117788571D01*
X110557619Y-117836190D01*
X110176666Y-117836190D01*
X111700476Y-117360000D02*
X111605238Y-117312380D01*
X111462380Y-117312380D01*
X111319523Y-117360000D01*
X111224285Y-117455238D01*
X111176666Y-117550476D01*
X111129047Y-117740952D01*
X111129047Y-117883809D01*
X111176666Y-118074285D01*
X111224285Y-118169523D01*
X111319523Y-118264761D01*
X111462380Y-118312380D01*
X111557619Y-118312380D01*
X111700476Y-118264761D01*
X111748095Y-118217142D01*
X111748095Y-117883809D01*
X111557619Y-117883809D01*
X112748095Y-118312380D02*
X112414761Y-117836190D01*
X112176666Y-118312380D02*
X112176666Y-117312380D01*
X112557619Y-117312380D01*
X112652857Y-117360000D01*
X112700476Y-117407619D01*
X112748095Y-117502857D01*
X112748095Y-117645714D01*
X112700476Y-117740952D01*
X112652857Y-117788571D01*
X112557619Y-117836190D01*
X112176666Y-117836190D01*
X113748095Y-118217142D02*
X113700476Y-118264761D01*
X113557619Y-118312380D01*
X113462380Y-118312380D01*
X113319523Y-118264761D01*
X113224285Y-118169523D01*
X113176666Y-118074285D01*
X113129047Y-117883809D01*
X113129047Y-117740952D01*
X113176666Y-117550476D01*
X113224285Y-117455238D01*
X113319523Y-117360000D01*
X113462380Y-117312380D01*
X113557619Y-117312380D01*
X113700476Y-117360000D01*
X113748095Y-117407619D01*
X115176666Y-118645714D02*
X115176666Y-117217142D01*
X116510000Y-117312380D02*
X117081428Y-117312380D01*
X116795714Y-118312380D02*
X116795714Y-117312380D01*
X117319523Y-117312380D02*
X117986190Y-118312380D01*
X117986190Y-117312380D02*
X117319523Y-118312380D01*
X118890952Y-118312380D02*
X118319523Y-118312380D01*
X118605238Y-118312380D02*
X118605238Y-117312380D01*
X118510000Y-117455238D01*
X118414761Y-117550476D01*
X118319523Y-117598095D01*
X110007619Y-115762380D02*
X110007619Y-114762380D01*
X110388571Y-114762380D01*
X110483809Y-114810000D01*
X110531428Y-114857619D01*
X110579047Y-114952857D01*
X110579047Y-115095714D01*
X110531428Y-115190952D01*
X110483809Y-115238571D01*
X110388571Y-115286190D01*
X110007619Y-115286190D01*
X111531428Y-114810000D02*
X111436190Y-114762380D01*
X111293333Y-114762380D01*
X111150476Y-114810000D01*
X111055238Y-114905238D01*
X111007619Y-115000476D01*
X110960000Y-115190952D01*
X110960000Y-115333809D01*
X111007619Y-115524285D01*
X111055238Y-115619523D01*
X111150476Y-115714761D01*
X111293333Y-115762380D01*
X111388571Y-115762380D01*
X111531428Y-115714761D01*
X111579047Y-115667142D01*
X111579047Y-115333809D01*
X111388571Y-115333809D01*
X112579047Y-115762380D02*
X112245714Y-115286190D01*
X112007619Y-115762380D02*
X112007619Y-114762380D01*
X112388571Y-114762380D01*
X112483809Y-114810000D01*
X112531428Y-114857619D01*
X112579047Y-114952857D01*
X112579047Y-115095714D01*
X112531428Y-115190952D01*
X112483809Y-115238571D01*
X112388571Y-115286190D01*
X112007619Y-115286190D01*
X113007619Y-115762380D02*
X113007619Y-114762380D01*
X113245714Y-114762380D01*
X113388571Y-114810000D01*
X113483809Y-114905238D01*
X113531428Y-115000476D01*
X113579047Y-115190952D01*
X113579047Y-115333809D01*
X113531428Y-115524285D01*
X113483809Y-115619523D01*
X113388571Y-115714761D01*
X113245714Y-115762380D01*
X113007619Y-115762380D01*
X115007619Y-116095714D02*
X115007619Y-114667142D01*
X117055238Y-115762380D02*
X116721904Y-115286190D01*
X116483809Y-115762380D02*
X116483809Y-114762380D01*
X116864761Y-114762380D01*
X116960000Y-114810000D01*
X117007619Y-114857619D01*
X117055238Y-114952857D01*
X117055238Y-115095714D01*
X117007619Y-115190952D01*
X116960000Y-115238571D01*
X116864761Y-115286190D01*
X116483809Y-115286190D01*
X117388571Y-114762380D02*
X118055238Y-115762380D01*
X118055238Y-114762380D02*
X117388571Y-115762380D01*
X118960000Y-115762380D02*
X118388571Y-115762380D01*
X118674285Y-115762380D02*
X118674285Y-114762380D01*
X118579047Y-114905238D01*
X118483809Y-115000476D01*
X118388571Y-115048095D01*
X110366666Y-112162380D02*
X110985714Y-112162380D01*
X110652380Y-112543333D01*
X110795238Y-112543333D01*
X110890476Y-112590952D01*
X110938095Y-112638571D01*
X110985714Y-112733809D01*
X110985714Y-112971904D01*
X110938095Y-113067142D01*
X110890476Y-113114761D01*
X110795238Y-113162380D01*
X110509523Y-113162380D01*
X110414285Y-113114761D01*
X110366666Y-113067142D01*
X111414285Y-113067142D02*
X111461904Y-113114761D01*
X111414285Y-113162380D01*
X111366666Y-113114761D01*
X111414285Y-113067142D01*
X111414285Y-113162380D01*
X111795238Y-112162380D02*
X112414285Y-112162380D01*
X112080952Y-112543333D01*
X112223809Y-112543333D01*
X112319047Y-112590952D01*
X112366666Y-112638571D01*
X112414285Y-112733809D01*
X112414285Y-112971904D01*
X112366666Y-113067142D01*
X112319047Y-113114761D01*
X112223809Y-113162380D01*
X111938095Y-113162380D01*
X111842857Y-113114761D01*
X111795238Y-113067142D01*
X112700000Y-112162380D02*
X113033333Y-113162380D01*
X113366666Y-112162380D01*
X114700000Y-113495714D02*
X114700000Y-112067142D01*
X116700000Y-113162380D02*
X116128571Y-113162380D01*
X116414285Y-113162380D02*
X116414285Y-112162380D01*
X116319047Y-112305238D01*
X116223809Y-112400476D01*
X116128571Y-112448095D01*
X117128571Y-113067142D02*
X117176190Y-113114761D01*
X117128571Y-113162380D01*
X117080952Y-113114761D01*
X117128571Y-113067142D01*
X117128571Y-113162380D01*
X117747619Y-112590952D02*
X117652380Y-112543333D01*
X117604761Y-112495714D01*
X117557142Y-112400476D01*
X117557142Y-112352857D01*
X117604761Y-112257619D01*
X117652380Y-112210000D01*
X117747619Y-112162380D01*
X117938095Y-112162380D01*
X118033333Y-112210000D01*
X118080952Y-112257619D01*
X118128571Y-112352857D01*
X118128571Y-112400476D01*
X118080952Y-112495714D01*
X118033333Y-112543333D01*
X117938095Y-112590952D01*
X117747619Y-112590952D01*
X117652380Y-112638571D01*
X117604761Y-112686190D01*
X117557142Y-112781428D01*
X117557142Y-112971904D01*
X117604761Y-113067142D01*
X117652380Y-113114761D01*
X117747619Y-113162380D01*
X117938095Y-113162380D01*
X118033333Y-113114761D01*
X118080952Y-113067142D01*
X118128571Y-112971904D01*
X118128571Y-112781428D01*
X118080952Y-112686190D01*
X118033333Y-112638571D01*
X117938095Y-112590952D01*
X118414285Y-112162380D02*
X118747619Y-113162380D01*
X119080952Y-112162380D01*
X110070952Y-110712380D02*
X110070952Y-109712380D01*
X110404285Y-110426666D01*
X110737619Y-109712380D01*
X110737619Y-110712380D01*
X111213809Y-110712380D02*
X111213809Y-109712380D01*
X111642380Y-110664761D02*
X111785238Y-110712380D01*
X112023333Y-110712380D01*
X112118571Y-110664761D01*
X112166190Y-110617142D01*
X112213809Y-110521904D01*
X112213809Y-110426666D01*
X112166190Y-110331428D01*
X112118571Y-110283809D01*
X112023333Y-110236190D01*
X111832857Y-110188571D01*
X111737619Y-110140952D01*
X111690000Y-110093333D01*
X111642380Y-109998095D01*
X111642380Y-109902857D01*
X111690000Y-109807619D01*
X111737619Y-109760000D01*
X111832857Y-109712380D01*
X112070952Y-109712380D01*
X112213809Y-109760000D01*
X112832857Y-109712380D02*
X113023333Y-109712380D01*
X113118571Y-109760000D01*
X113213809Y-109855238D01*
X113261428Y-110045714D01*
X113261428Y-110379047D01*
X113213809Y-110569523D01*
X113118571Y-110664761D01*
X113023333Y-110712380D01*
X112832857Y-110712380D01*
X112737619Y-110664761D01*
X112642380Y-110569523D01*
X112594761Y-110379047D01*
X112594761Y-110045714D01*
X112642380Y-109855238D01*
X112737619Y-109760000D01*
X112832857Y-109712380D01*
X114690000Y-111045714D02*
X114690000Y-109617142D01*
X116118571Y-110664761D02*
X116261428Y-110712380D01*
X116499523Y-110712380D01*
X116594761Y-110664761D01*
X116642380Y-110617142D01*
X116690000Y-110521904D01*
X116690000Y-110426666D01*
X116642380Y-110331428D01*
X116594761Y-110283809D01*
X116499523Y-110236190D01*
X116309047Y-110188571D01*
X116213809Y-110140952D01*
X116166190Y-110093333D01*
X116118571Y-109998095D01*
X116118571Y-109902857D01*
X116166190Y-109807619D01*
X116213809Y-109760000D01*
X116309047Y-109712380D01*
X116547142Y-109712380D01*
X116690000Y-109760000D01*
X117023333Y-109712380D02*
X117261428Y-110712380D01*
X117451904Y-109998095D01*
X117642380Y-110712380D01*
X117880476Y-109712380D01*
X118261428Y-110712380D02*
X118261428Y-109712380D01*
X118499523Y-109712380D01*
X118642380Y-109760000D01*
X118737619Y-109855238D01*
X118785238Y-109950476D01*
X118832857Y-110140952D01*
X118832857Y-110283809D01*
X118785238Y-110474285D01*
X118737619Y-110569523D01*
X118642380Y-110664761D01*
X118499523Y-110712380D01*
X118261428Y-110712380D01*
X119261428Y-110712380D02*
X119261428Y-109712380D01*
X119928095Y-109712380D02*
X120118571Y-109712380D01*
X120213809Y-109760000D01*
X120309047Y-109855238D01*
X120356666Y-110045714D01*
X120356666Y-110379047D01*
X120309047Y-110569523D01*
X120213809Y-110664761D01*
X120118571Y-110712380D01*
X119928095Y-110712380D01*
X119832857Y-110664761D01*
X119737619Y-110569523D01*
X119690000Y-110379047D01*
X119690000Y-110045714D01*
X119737619Y-109855238D01*
X119832857Y-109760000D01*
X119928095Y-109712380D01*
X110088095Y-108162380D02*
X110088095Y-107162380D01*
X110421428Y-107876666D01*
X110754761Y-107162380D01*
X110754761Y-108162380D01*
X111421428Y-107162380D02*
X111611904Y-107162380D01*
X111707142Y-107210000D01*
X111802380Y-107305238D01*
X111850000Y-107495714D01*
X111850000Y-107829047D01*
X111802380Y-108019523D01*
X111707142Y-108114761D01*
X111611904Y-108162380D01*
X111421428Y-108162380D01*
X111326190Y-108114761D01*
X111230952Y-108019523D01*
X111183333Y-107829047D01*
X111183333Y-107495714D01*
X111230952Y-107305238D01*
X111326190Y-107210000D01*
X111421428Y-107162380D01*
X112230952Y-108114761D02*
X112373809Y-108162380D01*
X112611904Y-108162380D01*
X112707142Y-108114761D01*
X112754761Y-108067142D01*
X112802380Y-107971904D01*
X112802380Y-107876666D01*
X112754761Y-107781428D01*
X112707142Y-107733809D01*
X112611904Y-107686190D01*
X112421428Y-107638571D01*
X112326190Y-107590952D01*
X112278571Y-107543333D01*
X112230952Y-107448095D01*
X112230952Y-107352857D01*
X112278571Y-107257619D01*
X112326190Y-107210000D01*
X112421428Y-107162380D01*
X112659523Y-107162380D01*
X112802380Y-107210000D01*
X113230952Y-108162380D02*
X113230952Y-107162380D01*
X114707142Y-108495714D02*
X114707142Y-107067142D01*
X116135714Y-108114761D02*
X116278571Y-108162380D01*
X116516666Y-108162380D01*
X116611904Y-108114761D01*
X116659523Y-108067142D01*
X116707142Y-107971904D01*
X116707142Y-107876666D01*
X116659523Y-107781428D01*
X116611904Y-107733809D01*
X116516666Y-107686190D01*
X116326190Y-107638571D01*
X116230952Y-107590952D01*
X116183333Y-107543333D01*
X116135714Y-107448095D01*
X116135714Y-107352857D01*
X116183333Y-107257619D01*
X116230952Y-107210000D01*
X116326190Y-107162380D01*
X116564285Y-107162380D01*
X116707142Y-107210000D01*
X117040476Y-107162380D02*
X117278571Y-108162380D01*
X117469047Y-107448095D01*
X117659523Y-108162380D01*
X117897619Y-107162380D01*
X118278571Y-108162380D02*
X118278571Y-107162380D01*
X118516666Y-107162380D01*
X118659523Y-107210000D01*
X118754761Y-107305238D01*
X118802380Y-107400476D01*
X118850000Y-107590952D01*
X118850000Y-107733809D01*
X118802380Y-107924285D01*
X118754761Y-108019523D01*
X118659523Y-108114761D01*
X118516666Y-108162380D01*
X118278571Y-108162380D01*
X119850000Y-108067142D02*
X119802380Y-108114761D01*
X119659523Y-108162380D01*
X119564285Y-108162380D01*
X119421428Y-108114761D01*
X119326190Y-108019523D01*
X119278571Y-107924285D01*
X119230952Y-107733809D01*
X119230952Y-107590952D01*
X119278571Y-107400476D01*
X119326190Y-107305238D01*
X119421428Y-107210000D01*
X119564285Y-107162380D01*
X119659523Y-107162380D01*
X119802380Y-107210000D01*
X119850000Y-107257619D01*
X120754761Y-108162380D02*
X120278571Y-108162380D01*
X120278571Y-107162380D01*
X121088095Y-108162380D02*
X121088095Y-107162380D01*
X121659523Y-108162380D02*
X121230952Y-107590952D01*
X121659523Y-107162380D02*
X121088095Y-107733809D01*
X111562857Y-105652380D02*
X111229523Y-105176190D01*
X110991428Y-105652380D02*
X110991428Y-104652380D01*
X111372380Y-104652380D01*
X111467619Y-104700000D01*
X111515238Y-104747619D01*
X111562857Y-104842857D01*
X111562857Y-104985714D01*
X111515238Y-105080952D01*
X111467619Y-105128571D01*
X111372380Y-105176190D01*
X110991428Y-105176190D01*
X111943809Y-105604761D02*
X112086666Y-105652380D01*
X112324761Y-105652380D01*
X112420000Y-105604761D01*
X112467619Y-105557142D01*
X112515238Y-105461904D01*
X112515238Y-105366666D01*
X112467619Y-105271428D01*
X112420000Y-105223809D01*
X112324761Y-105176190D01*
X112134285Y-105128571D01*
X112039047Y-105080952D01*
X111991428Y-105033333D01*
X111943809Y-104938095D01*
X111943809Y-104842857D01*
X111991428Y-104747619D01*
X112039047Y-104700000D01*
X112134285Y-104652380D01*
X112372380Y-104652380D01*
X112515238Y-104700000D01*
X112800952Y-104652380D02*
X113372380Y-104652380D01*
X113086666Y-105652380D02*
X113086666Y-104652380D01*
X114705714Y-105985714D02*
X114705714Y-104557142D01*
X116134285Y-105604761D02*
X116277142Y-105652380D01*
X116515238Y-105652380D01*
X116610476Y-105604761D01*
X116658095Y-105557142D01*
X116705714Y-105461904D01*
X116705714Y-105366666D01*
X116658095Y-105271428D01*
X116610476Y-105223809D01*
X116515238Y-105176190D01*
X116324761Y-105128571D01*
X116229523Y-105080952D01*
X116181904Y-105033333D01*
X116134285Y-104938095D01*
X116134285Y-104842857D01*
X116181904Y-104747619D01*
X116229523Y-104700000D01*
X116324761Y-104652380D01*
X116562857Y-104652380D01*
X116705714Y-104700000D01*
X117039047Y-104652380D02*
X117277142Y-105652380D01*
X117467619Y-104938095D01*
X117658095Y-105652380D01*
X117896190Y-104652380D01*
X118467619Y-104652380D02*
X118658095Y-104652380D01*
X118753333Y-104700000D01*
X118848571Y-104795238D01*
X118896190Y-104985714D01*
X118896190Y-105319047D01*
X118848571Y-105509523D01*
X118753333Y-105604761D01*
X118658095Y-105652380D01*
X118467619Y-105652380D01*
X118372380Y-105604761D01*
X118277142Y-105509523D01*
X118229523Y-105319047D01*
X118229523Y-104985714D01*
X118277142Y-104795238D01*
X118372380Y-104700000D01*
X118467619Y-104652380D01*
X109919523Y-103324761D02*
X110062380Y-103372380D01*
X110300476Y-103372380D01*
X110395714Y-103324761D01*
X110443333Y-103277142D01*
X110490952Y-103181904D01*
X110490952Y-103086666D01*
X110443333Y-102991428D01*
X110395714Y-102943809D01*
X110300476Y-102896190D01*
X110110000Y-102848571D01*
X110014761Y-102800952D01*
X109967142Y-102753333D01*
X109919523Y-102658095D01*
X109919523Y-102562857D01*
X109967142Y-102467619D01*
X110014761Y-102420000D01*
X110110000Y-102372380D01*
X110348095Y-102372380D01*
X110490952Y-102420000D01*
X111490952Y-103277142D02*
X111443333Y-103324761D01*
X111300476Y-103372380D01*
X111205238Y-103372380D01*
X111062380Y-103324761D01*
X110967142Y-103229523D01*
X110919523Y-103134285D01*
X110871904Y-102943809D01*
X110871904Y-102800952D01*
X110919523Y-102610476D01*
X110967142Y-102515238D01*
X111062380Y-102420000D01*
X111205238Y-102372380D01*
X111300476Y-102372380D01*
X111443333Y-102420000D01*
X111490952Y-102467619D01*
X112395714Y-103372380D02*
X111919523Y-103372380D01*
X111919523Y-102372380D01*
X112729047Y-103372380D02*
X112729047Y-102372380D01*
X113300476Y-103372380D02*
X112871904Y-102800952D01*
X113300476Y-102372380D02*
X112729047Y-102943809D01*
X114729047Y-103705714D02*
X114729047Y-102277142D01*
X116776666Y-103372380D02*
X116443333Y-102896190D01*
X116205238Y-103372380D02*
X116205238Y-102372380D01*
X116586190Y-102372380D01*
X116681428Y-102420000D01*
X116729047Y-102467619D01*
X116776666Y-102562857D01*
X116776666Y-102705714D01*
X116729047Y-102800952D01*
X116681428Y-102848571D01*
X116586190Y-102896190D01*
X116205238Y-102896190D01*
X117205238Y-102848571D02*
X117538571Y-102848571D01*
X117681428Y-103372380D02*
X117205238Y-103372380D01*
X117205238Y-102372380D01*
X117681428Y-102372380D01*
X118062380Y-103324761D02*
X118205238Y-103372380D01*
X118443333Y-103372380D01*
X118538571Y-103324761D01*
X118586190Y-103277142D01*
X118633809Y-103181904D01*
X118633809Y-103086666D01*
X118586190Y-102991428D01*
X118538571Y-102943809D01*
X118443333Y-102896190D01*
X118252857Y-102848571D01*
X118157619Y-102800952D01*
X118110000Y-102753333D01*
X118062380Y-102658095D01*
X118062380Y-102562857D01*
X118110000Y-102467619D01*
X118157619Y-102420000D01*
X118252857Y-102372380D01*
X118490952Y-102372380D01*
X118633809Y-102420000D01*
X119062380Y-102848571D02*
X119395714Y-102848571D01*
X119538571Y-103372380D02*
X119062380Y-103372380D01*
X119062380Y-102372380D01*
X119538571Y-102372380D01*
X119824285Y-102372380D02*
X120395714Y-102372380D01*
X120110000Y-103372380D02*
X120110000Y-102372380D01*
X111196190Y-99820000D02*
X111100952Y-99772380D01*
X110958095Y-99772380D01*
X110815238Y-99820000D01*
X110720000Y-99915238D01*
X110672380Y-100010476D01*
X110624761Y-100200952D01*
X110624761Y-100343809D01*
X110672380Y-100534285D01*
X110720000Y-100629523D01*
X110815238Y-100724761D01*
X110958095Y-100772380D01*
X111053333Y-100772380D01*
X111196190Y-100724761D01*
X111243809Y-100677142D01*
X111243809Y-100343809D01*
X111053333Y-100343809D01*
X111672380Y-100772380D02*
X111672380Y-99772380D01*
X112243809Y-100772380D01*
X112243809Y-99772380D01*
X112720000Y-100772380D02*
X112720000Y-99772380D01*
X112958095Y-99772380D01*
X113100952Y-99820000D01*
X113196190Y-99915238D01*
X113243809Y-100010476D01*
X113291428Y-100200952D01*
X113291428Y-100343809D01*
X113243809Y-100534285D01*
X113196190Y-100629523D01*
X113100952Y-100724761D01*
X112958095Y-100772380D01*
X112720000Y-100772380D01*
X114720000Y-101105714D02*
X114720000Y-99677142D01*
X116720000Y-99820000D02*
X116624761Y-99772380D01*
X116481904Y-99772380D01*
X116339047Y-99820000D01*
X116243809Y-99915238D01*
X116196190Y-100010476D01*
X116148571Y-100200952D01*
X116148571Y-100343809D01*
X116196190Y-100534285D01*
X116243809Y-100629523D01*
X116339047Y-100724761D01*
X116481904Y-100772380D01*
X116577142Y-100772380D01*
X116720000Y-100724761D01*
X116767619Y-100677142D01*
X116767619Y-100343809D01*
X116577142Y-100343809D01*
X117196190Y-100772380D02*
X117196190Y-99772380D01*
X117767619Y-100772380D01*
X117767619Y-99772380D01*
X118243809Y-100772380D02*
X118243809Y-99772380D01*
X118481904Y-99772380D01*
X118624761Y-99820000D01*
X118720000Y-99915238D01*
X118767619Y-100010476D01*
X118815238Y-100200952D01*
X118815238Y-100343809D01*
X118767619Y-100534285D01*
X118720000Y-100629523D01*
X118624761Y-100724761D01*
X118481904Y-100772380D01*
X118243809Y-100772380D01*
X105435714Y-96388571D02*
X105578571Y-96436190D01*
X105626190Y-96483809D01*
X105673809Y-96579047D01*
X105673809Y-96721904D01*
X105626190Y-96817142D01*
X105578571Y-96864761D01*
X105483333Y-96912380D01*
X105102380Y-96912380D01*
X105102380Y-95912380D01*
X105435714Y-95912380D01*
X105530952Y-95960000D01*
X105578571Y-96007619D01*
X105626190Y-96102857D01*
X105626190Y-96198095D01*
X105578571Y-96293333D01*
X105530952Y-96340952D01*
X105435714Y-96388571D01*
X105102380Y-96388571D01*
X106054761Y-96626666D02*
X106530952Y-96626666D01*
X105959523Y-96912380D02*
X106292857Y-95912380D01*
X106626190Y-96912380D01*
X106911904Y-96864761D02*
X107054761Y-96912380D01*
X107292857Y-96912380D01*
X107388095Y-96864761D01*
X107435714Y-96817142D01*
X107483333Y-96721904D01*
X107483333Y-96626666D01*
X107435714Y-96531428D01*
X107388095Y-96483809D01*
X107292857Y-96436190D01*
X107102380Y-96388571D01*
X107007142Y-96340952D01*
X106959523Y-96293333D01*
X106911904Y-96198095D01*
X106911904Y-96102857D01*
X106959523Y-96007619D01*
X107007142Y-95960000D01*
X107102380Y-95912380D01*
X107340476Y-95912380D01*
X107483333Y-95960000D01*
X107911904Y-96388571D02*
X108245238Y-96388571D01*
X108388095Y-96912380D02*
X107911904Y-96912380D01*
X107911904Y-95912380D01*
X108388095Y-95912380D01*
X109150000Y-96388571D02*
X109292857Y-96436190D01*
X109340476Y-96483809D01*
X109388095Y-96579047D01*
X109388095Y-96721904D01*
X109340476Y-96817142D01*
X109292857Y-96864761D01*
X109197619Y-96912380D01*
X108816666Y-96912380D01*
X108816666Y-95912380D01*
X109150000Y-95912380D01*
X109245238Y-95960000D01*
X109292857Y-96007619D01*
X109340476Y-96102857D01*
X109340476Y-96198095D01*
X109292857Y-96293333D01*
X109245238Y-96340952D01*
X109150000Y-96388571D01*
X108816666Y-96388571D01*
X110007142Y-95912380D02*
X110197619Y-95912380D01*
X110292857Y-95960000D01*
X110388095Y-96055238D01*
X110435714Y-96245714D01*
X110435714Y-96579047D01*
X110388095Y-96769523D01*
X110292857Y-96864761D01*
X110197619Y-96912380D01*
X110007142Y-96912380D01*
X109911904Y-96864761D01*
X109816666Y-96769523D01*
X109769047Y-96579047D01*
X109769047Y-96245714D01*
X109816666Y-96055238D01*
X109911904Y-95960000D01*
X110007142Y-95912380D01*
X110816666Y-96626666D02*
X111292857Y-96626666D01*
X110721428Y-96912380D02*
X111054761Y-95912380D01*
X111388095Y-96912380D01*
X112292857Y-96912380D02*
X111959523Y-96436190D01*
X111721428Y-96912380D02*
X111721428Y-95912380D01*
X112102380Y-95912380D01*
X112197619Y-95960000D01*
X112245238Y-96007619D01*
X112292857Y-96102857D01*
X112292857Y-96245714D01*
X112245238Y-96340952D01*
X112197619Y-96388571D01*
X112102380Y-96436190D01*
X111721428Y-96436190D01*
X112721428Y-96912380D02*
X112721428Y-95912380D01*
X112959523Y-95912380D01*
X113102380Y-95960000D01*
X113197619Y-96055238D01*
X113245238Y-96150476D01*
X113292857Y-96340952D01*
X113292857Y-96483809D01*
X113245238Y-96674285D01*
X113197619Y-96769523D01*
X113102380Y-96864761D01*
X112959523Y-96912380D01*
X112721428Y-96912380D01*
X114721428Y-97245714D02*
X114721428Y-95817142D01*
X116673809Y-96912380D02*
X116197619Y-96912380D01*
X116197619Y-95912380D01*
X116864285Y-95912380D02*
X117435714Y-95912380D01*
X117150000Y-96912380D02*
X117150000Y-95912380D01*
X117769047Y-96388571D02*
X118102380Y-96388571D01*
X118245238Y-96912380D02*
X117769047Y-96912380D01*
X117769047Y-95912380D01*
X118245238Y-95912380D01*
X110730000Y-97432380D02*
X111063333Y-98432380D01*
X111396666Y-97432380D01*
X112301428Y-98337142D02*
X112253809Y-98384761D01*
X112110952Y-98432380D01*
X112015714Y-98432380D01*
X111872857Y-98384761D01*
X111777619Y-98289523D01*
X111730000Y-98194285D01*
X111682380Y-98003809D01*
X111682380Y-97860952D01*
X111730000Y-97670476D01*
X111777619Y-97575238D01*
X111872857Y-97480000D01*
X112015714Y-97432380D01*
X112110952Y-97432380D01*
X112253809Y-97480000D01*
X112301428Y-97527619D01*
X113301428Y-98337142D02*
X113253809Y-98384761D01*
X113110952Y-98432380D01*
X113015714Y-98432380D01*
X112872857Y-98384761D01*
X112777619Y-98289523D01*
X112730000Y-98194285D01*
X112682380Y-98003809D01*
X112682380Y-97860952D01*
X112730000Y-97670476D01*
X112777619Y-97575238D01*
X112872857Y-97480000D01*
X113015714Y-97432380D01*
X113110952Y-97432380D01*
X113253809Y-97480000D01*
X113301428Y-97527619D01*
X114730000Y-98765714D02*
X114730000Y-97337142D01*
X116063333Y-97432380D02*
X116396666Y-98432380D01*
X116730000Y-97432380D01*
X117634761Y-98337142D02*
X117587142Y-98384761D01*
X117444285Y-98432380D01*
X117349047Y-98432380D01*
X117206190Y-98384761D01*
X117110952Y-98289523D01*
X117063333Y-98194285D01*
X117015714Y-98003809D01*
X117015714Y-97860952D01*
X117063333Y-97670476D01*
X117110952Y-97575238D01*
X117206190Y-97480000D01*
X117349047Y-97432380D01*
X117444285Y-97432380D01*
X117587142Y-97480000D01*
X117634761Y-97527619D01*
X118634761Y-98337142D02*
X118587142Y-98384761D01*
X118444285Y-98432380D01*
X118349047Y-98432380D01*
X118206190Y-98384761D01*
X118110952Y-98289523D01*
X118063333Y-98194285D01*
X118015714Y-98003809D01*
X118015714Y-97860952D01*
X118063333Y-97670476D01*
X118110952Y-97575238D01*
X118206190Y-97480000D01*
X118349047Y-97432380D01*
X118444285Y-97432380D01*
X118587142Y-97480000D01*
X118634761Y-97527619D01*
D12*
G04 #@! TO.C,J2*
X124185000Y-131800000D02*
X124185000Y-97510000D01*
X121775000Y-131800000D02*
X124185000Y-131800000D01*
X121775000Y-96240000D02*
X121775000Y-131800000D01*
X122980000Y-96240000D02*
X121775000Y-96240000D01*
G04 #@! TO.C,J1*
X104710000Y-104610000D02*
X104710000Y-121120000D01*
X109730000Y-104610000D02*
X104710000Y-104610000D01*
X109730000Y-122390000D02*
X109730000Y-104610000D01*
X108490000Y-122390000D02*
X109730000Y-122390000D01*
G04 #@! TO.C,J2*
D13*
X122284523Y-97933333D02*
X123191666Y-97933333D01*
X123373095Y-97993809D01*
X123494047Y-98114761D01*
X123554523Y-98296190D01*
X123554523Y-98417142D01*
X122405476Y-97389047D02*
X122345000Y-97328571D01*
X122284523Y-97207619D01*
X122284523Y-96905238D01*
X122345000Y-96784285D01*
X122405476Y-96723809D01*
X122526428Y-96663333D01*
X122647380Y-96663333D01*
X122828809Y-96723809D01*
X123554523Y-97449523D01*
X123554523Y-96663333D01*
G04 #@! TO.C,J1*
X107794523Y-121543333D02*
X108701666Y-121543333D01*
X108883095Y-121603809D01*
X109004047Y-121724761D01*
X109064523Y-121906190D01*
X109064523Y-122027142D01*
X109064523Y-120273333D02*
X109064523Y-120999047D01*
X109064523Y-120636190D02*
X107794523Y-120636190D01*
X107975952Y-120757142D01*
X108096904Y-120878095D01*
X108157380Y-120999047D01*
G04 #@! TD*
M02*
