G04 #@! TF.GenerationSoftware,KiCad,Pcbnew,(5.1.6)-1*
G04 #@! TF.CreationDate,2021-09-25T22:06:40+02:00*
G04 #@! TF.ProjectId,nrfmodule,6e72666d-6f64-4756-9c65-2e6b69636164,rev?*
G04 #@! TF.SameCoordinates,Original*
G04 #@! TF.FileFunction,Copper,L3,Inr*
G04 #@! TF.FilePolarity,Positive*
%FSLAX46Y46*%
G04 Gerber Fmt 4.6, Leading zero omitted, Abs format (unit mm)*
G04 Created by KiCad (PCBNEW (5.1.6)-1) date 2021-09-25 22:06:40*
%MOMM*%
%LPD*%
G01*
G04 APERTURE LIST*
G04 #@! TA.AperFunction,ViaPad*
%ADD10R,1.725000X1.725000*%
G04 #@! TD*
G04 #@! TA.AperFunction,ViaPad*
%ADD11C,1.067000*%
G04 #@! TD*
G04 #@! TA.AperFunction,ViaPad*
%ADD12C,0.813000*%
G04 #@! TD*
G04 #@! TA.AperFunction,ViaPad*
%ADD13R,1.016000X1.016000*%
G04 #@! TD*
G04 #@! TA.AperFunction,ViaPad*
%ADD14C,0.450000*%
G04 #@! TD*
G04 #@! TA.AperFunction,ViaPad*
%ADD15C,0.800000*%
G04 #@! TD*
G04 #@! TA.AperFunction,Conductor*
%ADD16C,0.254000*%
G04 #@! TD*
G04 APERTURE END LIST*
D10*
G04 #@! TO.N,+5V*
G04 #@! TO.C,5V+1*
X142030000Y-107360000D03*
G04 #@! TD*
G04 #@! TO.N,GND*
G04 #@! TO.C,GND1*
X142180000Y-93700000D03*
G04 #@! TD*
G04 #@! TO.N,RXNRF*
G04 #@! TO.C,RX1*
X165060000Y-106460000D03*
G04 #@! TD*
G04 #@! TO.N,TXNRF*
G04 #@! TO.C,TX1*
X165000000Y-94560000D03*
G04 #@! TD*
D11*
G04 #@! TO.N,N/C*
G04 #@! TO.C,Edge_Connect1*
X144370000Y-108399000D03*
D12*
X142871000Y-109390000D03*
X164182000Y-109390000D03*
D11*
X163420000Y-108399000D03*
D13*
G04 #@! TO.N,GND*
X145640000Y-109390000D03*
G04 #@! TO.N,Net-(Edge_Connect1-Pad13)*
X146910000Y-109390000D03*
G04 #@! TO.N,Net-(Edge_Connect1-Pad12)*
X148180000Y-109390000D03*
G04 #@! TO.N,Net-(Edge_Connect1-Pad11)*
X149450000Y-109390000D03*
G04 #@! TO.N,TX2*
X150720000Y-109390000D03*
G04 #@! TO.N,RX2*
X151990000Y-109390000D03*
G04 #@! TO.N,TX1*
X153260000Y-109390000D03*
G04 #@! TO.N,RX1*
X154530000Y-109390000D03*
G04 #@! TO.N,SWO*
X155800000Y-109390000D03*
G04 #@! TO.N,SWDIO*
X157070000Y-109390000D03*
G04 #@! TO.N,SWDCLK*
X158340000Y-109390000D03*
G04 #@! TO.N,NRESET*
X159610000Y-109390000D03*
G04 #@! TO.N,+1V8*
X160880000Y-109390000D03*
G04 #@! TO.N,VCC*
X162150000Y-109390000D03*
G04 #@! TD*
D14*
G04 #@! TO.N,GND*
X159760000Y-107900000D03*
G04 #@! TO.N,VCC*
X156470000Y-93120000D03*
D15*
X140280000Y-102000000D03*
X140300000Y-101090000D03*
X140250000Y-99670000D03*
X140260000Y-98770000D03*
G04 #@! TO.N,GND*
X147790000Y-99350000D03*
X144720000Y-99400000D03*
X143050000Y-101920000D03*
X143100000Y-100980000D03*
X143030000Y-99640000D03*
X143030000Y-98710000D03*
D14*
X151100000Y-103650000D03*
D15*
X153390000Y-92760000D03*
X147290000Y-93630000D03*
X144320000Y-93580000D03*
X156700000Y-101720000D03*
X158750000Y-102150000D03*
D14*
X164340000Y-100970000D03*
D15*
X158770000Y-100400000D03*
X158730000Y-98850000D03*
X158740000Y-97370000D03*
X160770000Y-97320000D03*
X160770000Y-98900000D03*
X160750000Y-100470000D03*
X160760000Y-102100000D03*
X152750000Y-98880000D03*
X154780000Y-98890000D03*
X141930000Y-104100000D03*
X141920000Y-104960000D03*
D14*
X157180000Y-104730000D03*
X153000000Y-106410000D03*
D15*
X139890000Y-94600000D03*
X150580000Y-93860000D03*
X162850000Y-95100000D03*
X165410000Y-108730000D03*
X139890000Y-108710000D03*
X139960000Y-106290000D03*
X140430000Y-104900000D03*
X144570000Y-106910000D03*
X149630000Y-100300000D03*
D14*
X154970000Y-106330000D03*
D15*
X139980000Y-92700000D03*
X145740000Y-92810000D03*
X149090000Y-92740000D03*
X165330000Y-92740000D03*
D14*
X149060000Y-106620000D03*
X146880000Y-105620000D03*
X150800000Y-107240000D03*
X165260000Y-95870000D03*
X143050000Y-97620000D03*
X140020000Y-97290000D03*
X159340000Y-93700000D03*
G04 #@! TO.N,VCC*
X164290000Y-100190000D03*
X163642001Y-98030000D03*
X156690000Y-93580000D03*
X156940000Y-93990000D03*
X162150000Y-108150000D03*
G04 #@! TO.N,+1V8*
X140690000Y-95810000D03*
X140000000Y-95820000D03*
X163550000Y-96490000D03*
G04 #@! TO.N,SIM1.8v*
X147980000Y-106315002D03*
X147238989Y-107475769D03*
G04 #@! TO.N,TX2*
X145290000Y-102680000D03*
X159085002Y-94651186D03*
G04 #@! TO.N,RX2*
X146000000Y-101840000D03*
X158415496Y-95981870D03*
G04 #@! TO.N,TX1*
X155880000Y-98000000D03*
G04 #@! TO.N,RX1*
X153697910Y-98206828D03*
X153699675Y-100166134D03*
X153054302Y-104855002D03*
X152330244Y-107111059D03*
G04 #@! TO.N,Net-(NRF91-Pad61)*
X145800000Y-96570000D03*
G04 #@! TO.N,DATSIM*
X149447907Y-102881208D03*
G04 #@! TO.N,CLKSIM*
X149923707Y-103626168D03*
X149580000Y-101270000D03*
X149990000Y-107120814D03*
G04 #@! TO.N,RSTSIM*
X149962699Y-104275000D03*
X152104351Y-104729349D03*
X151643240Y-106971085D03*
G04 #@! TO.N,RXNRF*
X164160000Y-97075002D03*
G04 #@! TO.N,Net-(NRF91-Pad67)*
X146225000Y-97875000D03*
G04 #@! TO.N,+1V8*
X163650000Y-101760000D03*
G04 #@! TD*
D16*
G04 #@! TO.N,GND*
G36*
X165771001Y-93368918D02*
G01*
X164137500Y-93368918D01*
X164073397Y-93375232D01*
X164011757Y-93393930D01*
X163954950Y-93424294D01*
X163905157Y-93465157D01*
X163864294Y-93514950D01*
X163833930Y-93571757D01*
X163815232Y-93633397D01*
X163808918Y-93697500D01*
X163808918Y-95422500D01*
X163815232Y-95486603D01*
X163833930Y-95548243D01*
X163864294Y-95605050D01*
X163905157Y-95654843D01*
X163954950Y-95695706D01*
X164011757Y-95726070D01*
X164073397Y-95744768D01*
X164137500Y-95751082D01*
X165771001Y-95751082D01*
X165771000Y-105268918D01*
X164197500Y-105268918D01*
X164133397Y-105275232D01*
X164071757Y-105293930D01*
X164014950Y-105324294D01*
X163965157Y-105365157D01*
X163924294Y-105414950D01*
X163893930Y-105471757D01*
X163875232Y-105533397D01*
X163868918Y-105597500D01*
X163868918Y-107322500D01*
X163875232Y-107386603D01*
X163893930Y-107448243D01*
X163924294Y-107505050D01*
X163965157Y-107554843D01*
X164014950Y-107595706D01*
X164071757Y-107626070D01*
X164133397Y-107644768D01*
X164197500Y-107651082D01*
X165771000Y-107651082D01*
X165771000Y-109101000D01*
X164856227Y-109101000D01*
X164832019Y-109042558D01*
X164751747Y-108922421D01*
X164649579Y-108820253D01*
X164529442Y-108739981D01*
X164395954Y-108684688D01*
X164254243Y-108656500D01*
X164244739Y-108656500D01*
X164247432Y-108649999D01*
X164280500Y-108483752D01*
X164280500Y-108314248D01*
X164247432Y-108148001D01*
X164182566Y-107991400D01*
X164088394Y-107850463D01*
X163968537Y-107730606D01*
X163827600Y-107636434D01*
X163670999Y-107571568D01*
X163504752Y-107538500D01*
X163335248Y-107538500D01*
X163169001Y-107571568D01*
X163012400Y-107636434D01*
X162871463Y-107730606D01*
X162751606Y-107850463D01*
X162672467Y-107968902D01*
X162639176Y-107888530D01*
X162578766Y-107798120D01*
X162501880Y-107721234D01*
X162411470Y-107660824D01*
X162311012Y-107619213D01*
X162204367Y-107598000D01*
X162095633Y-107598000D01*
X161988988Y-107619213D01*
X161888530Y-107660824D01*
X161798120Y-107721234D01*
X161721234Y-107798120D01*
X161660824Y-107888530D01*
X161619213Y-107988988D01*
X161598000Y-108095633D01*
X161598000Y-108204367D01*
X161619213Y-108311012D01*
X161660824Y-108411470D01*
X161721234Y-108501880D01*
X161772772Y-108553418D01*
X161642000Y-108553418D01*
X161577897Y-108559732D01*
X161516257Y-108578430D01*
X161515000Y-108579102D01*
X161513743Y-108578430D01*
X161452103Y-108559732D01*
X161388000Y-108553418D01*
X160372000Y-108553418D01*
X160307897Y-108559732D01*
X160246257Y-108578430D01*
X160245000Y-108579102D01*
X160243743Y-108578430D01*
X160182103Y-108559732D01*
X160118000Y-108553418D01*
X159102000Y-108553418D01*
X159037897Y-108559732D01*
X158976257Y-108578430D01*
X158975000Y-108579102D01*
X158973743Y-108578430D01*
X158912103Y-108559732D01*
X158848000Y-108553418D01*
X157832000Y-108553418D01*
X157767897Y-108559732D01*
X157706257Y-108578430D01*
X157705000Y-108579102D01*
X157703743Y-108578430D01*
X157642103Y-108559732D01*
X157578000Y-108553418D01*
X156562000Y-108553418D01*
X156497897Y-108559732D01*
X156436257Y-108578430D01*
X156435000Y-108579102D01*
X156433743Y-108578430D01*
X156372103Y-108559732D01*
X156308000Y-108553418D01*
X155292000Y-108553418D01*
X155227897Y-108559732D01*
X155166257Y-108578430D01*
X155165000Y-108579102D01*
X155163743Y-108578430D01*
X155102103Y-108559732D01*
X155038000Y-108553418D01*
X154022000Y-108553418D01*
X153957897Y-108559732D01*
X153896257Y-108578430D01*
X153895000Y-108579102D01*
X153893743Y-108578430D01*
X153832103Y-108559732D01*
X153768000Y-108553418D01*
X152752000Y-108553418D01*
X152687897Y-108559732D01*
X152626257Y-108578430D01*
X152625000Y-108579102D01*
X152623743Y-108578430D01*
X152562103Y-108559732D01*
X152498000Y-108553418D01*
X151482000Y-108553418D01*
X151417897Y-108559732D01*
X151356257Y-108578430D01*
X151355000Y-108579102D01*
X151353743Y-108578430D01*
X151292103Y-108559732D01*
X151228000Y-108553418D01*
X150212000Y-108553418D01*
X150147897Y-108559732D01*
X150086257Y-108578430D01*
X150085000Y-108579102D01*
X150083743Y-108578430D01*
X150022103Y-108559732D01*
X149958000Y-108553418D01*
X148942000Y-108553418D01*
X148877897Y-108559732D01*
X148816257Y-108578430D01*
X148815000Y-108579102D01*
X148813743Y-108578430D01*
X148752103Y-108559732D01*
X148688000Y-108553418D01*
X147672000Y-108553418D01*
X147607897Y-108559732D01*
X147546257Y-108578430D01*
X147545000Y-108579102D01*
X147543743Y-108578430D01*
X147482103Y-108559732D01*
X147418000Y-108553418D01*
X146402000Y-108553418D01*
X146337897Y-108559732D01*
X146276257Y-108578430D01*
X146219450Y-108608794D01*
X146169657Y-108649657D01*
X146128794Y-108699450D01*
X146098430Y-108756257D01*
X146079732Y-108817897D01*
X146073418Y-108882000D01*
X146073418Y-109101000D01*
X144868243Y-109101000D01*
X144918537Y-109067394D01*
X145038394Y-108947537D01*
X145132566Y-108806600D01*
X145197432Y-108649999D01*
X145230500Y-108483752D01*
X145230500Y-108314248D01*
X145197432Y-108148001D01*
X145132566Y-107991400D01*
X145038394Y-107850463D01*
X144918537Y-107730606D01*
X144777600Y-107636434D01*
X144620999Y-107571568D01*
X144454752Y-107538500D01*
X144285248Y-107538500D01*
X144119001Y-107571568D01*
X143962400Y-107636434D01*
X143821463Y-107730606D01*
X143701606Y-107850463D01*
X143607434Y-107991400D01*
X143542568Y-108148001D01*
X143509500Y-108314248D01*
X143509500Y-108483752D01*
X143542568Y-108649999D01*
X143607434Y-108806600D01*
X143701606Y-108947537D01*
X143821463Y-109067394D01*
X143871757Y-109101000D01*
X143545227Y-109101000D01*
X143521019Y-109042558D01*
X143440747Y-108922421D01*
X143338579Y-108820253D01*
X143218442Y-108739981D01*
X143084954Y-108684688D01*
X142943243Y-108656500D01*
X142798757Y-108656500D01*
X142657046Y-108684688D01*
X142523558Y-108739981D01*
X142403421Y-108820253D01*
X142301253Y-108922421D01*
X142220981Y-109042558D01*
X142196773Y-109101000D01*
X139559161Y-109101000D01*
X139560666Y-106497500D01*
X140838918Y-106497500D01*
X140838918Y-108222500D01*
X140845232Y-108286603D01*
X140863930Y-108348243D01*
X140894294Y-108405050D01*
X140935157Y-108454843D01*
X140984950Y-108495706D01*
X141041757Y-108526070D01*
X141103397Y-108544768D01*
X141167500Y-108551082D01*
X142892500Y-108551082D01*
X142956603Y-108544768D01*
X143018243Y-108526070D01*
X143075050Y-108495706D01*
X143124843Y-108454843D01*
X143165706Y-108405050D01*
X143196070Y-108348243D01*
X143214768Y-108286603D01*
X143221082Y-108222500D01*
X143221082Y-107421402D01*
X146686989Y-107421402D01*
X146686989Y-107530136D01*
X146708202Y-107636781D01*
X146749813Y-107737239D01*
X146810223Y-107827649D01*
X146887109Y-107904535D01*
X146977519Y-107964945D01*
X147077977Y-108006556D01*
X147184622Y-108027769D01*
X147293356Y-108027769D01*
X147400001Y-108006556D01*
X147500459Y-107964945D01*
X147590869Y-107904535D01*
X147667755Y-107827649D01*
X147728165Y-107737239D01*
X147769776Y-107636781D01*
X147790989Y-107530136D01*
X147790989Y-107421402D01*
X147769776Y-107314757D01*
X147728165Y-107214299D01*
X147667755Y-107123889D01*
X147610313Y-107066447D01*
X149438000Y-107066447D01*
X149438000Y-107175181D01*
X149459213Y-107281826D01*
X149500824Y-107382284D01*
X149561234Y-107472694D01*
X149638120Y-107549580D01*
X149728530Y-107609990D01*
X149828988Y-107651601D01*
X149935633Y-107672814D01*
X150044367Y-107672814D01*
X150151012Y-107651601D01*
X150251470Y-107609990D01*
X150341880Y-107549580D01*
X150418766Y-107472694D01*
X150479176Y-107382284D01*
X150520787Y-107281826D01*
X150542000Y-107175181D01*
X150542000Y-107066447D01*
X150520787Y-106959802D01*
X150502942Y-106916718D01*
X151091240Y-106916718D01*
X151091240Y-107025452D01*
X151112453Y-107132097D01*
X151154064Y-107232555D01*
X151214474Y-107322965D01*
X151291360Y-107399851D01*
X151381770Y-107460261D01*
X151482228Y-107501872D01*
X151588873Y-107523085D01*
X151697607Y-107523085D01*
X151804252Y-107501872D01*
X151900777Y-107461890D01*
X151901478Y-107462939D01*
X151978364Y-107539825D01*
X152068774Y-107600235D01*
X152169232Y-107641846D01*
X152275877Y-107663059D01*
X152384611Y-107663059D01*
X152491256Y-107641846D01*
X152591714Y-107600235D01*
X152682124Y-107539825D01*
X152759010Y-107462939D01*
X152819420Y-107372529D01*
X152861031Y-107272071D01*
X152882244Y-107165426D01*
X152882244Y-107056692D01*
X152861031Y-106950047D01*
X152819420Y-106849589D01*
X152759010Y-106759179D01*
X152682124Y-106682293D01*
X152591714Y-106621883D01*
X152491256Y-106580272D01*
X152384611Y-106559059D01*
X152275877Y-106559059D01*
X152169232Y-106580272D01*
X152072707Y-106620254D01*
X152072006Y-106619205D01*
X151995120Y-106542319D01*
X151904710Y-106481909D01*
X151804252Y-106440298D01*
X151697607Y-106419085D01*
X151588873Y-106419085D01*
X151482228Y-106440298D01*
X151381770Y-106481909D01*
X151291360Y-106542319D01*
X151214474Y-106619205D01*
X151154064Y-106709615D01*
X151112453Y-106810073D01*
X151091240Y-106916718D01*
X150502942Y-106916718D01*
X150479176Y-106859344D01*
X150418766Y-106768934D01*
X150341880Y-106692048D01*
X150251470Y-106631638D01*
X150151012Y-106590027D01*
X150044367Y-106568814D01*
X149935633Y-106568814D01*
X149828988Y-106590027D01*
X149728530Y-106631638D01*
X149638120Y-106692048D01*
X149561234Y-106768934D01*
X149500824Y-106859344D01*
X149459213Y-106959802D01*
X149438000Y-107066447D01*
X147610313Y-107066447D01*
X147590869Y-107047003D01*
X147500459Y-106986593D01*
X147400001Y-106944982D01*
X147293356Y-106923769D01*
X147184622Y-106923769D01*
X147077977Y-106944982D01*
X146977519Y-106986593D01*
X146887109Y-107047003D01*
X146810223Y-107123889D01*
X146749813Y-107214299D01*
X146708202Y-107314757D01*
X146686989Y-107421402D01*
X143221082Y-107421402D01*
X143221082Y-106497500D01*
X143214768Y-106433397D01*
X143196070Y-106371757D01*
X143165706Y-106314950D01*
X143124843Y-106265157D01*
X143119333Y-106260635D01*
X147428000Y-106260635D01*
X147428000Y-106369369D01*
X147449213Y-106476014D01*
X147490824Y-106576472D01*
X147551234Y-106666882D01*
X147628120Y-106743768D01*
X147718530Y-106804178D01*
X147818988Y-106845789D01*
X147925633Y-106867002D01*
X148034367Y-106867002D01*
X148141012Y-106845789D01*
X148241470Y-106804178D01*
X148331880Y-106743768D01*
X148408766Y-106666882D01*
X148469176Y-106576472D01*
X148510787Y-106476014D01*
X148532000Y-106369369D01*
X148532000Y-106260635D01*
X148510787Y-106153990D01*
X148469176Y-106053532D01*
X148408766Y-105963122D01*
X148331880Y-105886236D01*
X148241470Y-105825826D01*
X148141012Y-105784215D01*
X148034367Y-105763002D01*
X147925633Y-105763002D01*
X147818988Y-105784215D01*
X147718530Y-105825826D01*
X147628120Y-105886236D01*
X147551234Y-105963122D01*
X147490824Y-106053532D01*
X147449213Y-106153990D01*
X147428000Y-106260635D01*
X143119333Y-106260635D01*
X143075050Y-106224294D01*
X143018243Y-106193930D01*
X142956603Y-106175232D01*
X142892500Y-106168918D01*
X141167500Y-106168918D01*
X141103397Y-106175232D01*
X141041757Y-106193930D01*
X140984950Y-106224294D01*
X140935157Y-106265157D01*
X140894294Y-106314950D01*
X140863930Y-106371757D01*
X140845232Y-106433397D01*
X140838918Y-106497500D01*
X139560666Y-106497500D01*
X139563197Y-102122867D01*
X139580938Y-102212058D01*
X139635741Y-102344364D01*
X139715302Y-102463436D01*
X139816564Y-102564698D01*
X139935636Y-102644259D01*
X140067942Y-102699062D01*
X140208397Y-102727000D01*
X140351603Y-102727000D01*
X140492058Y-102699062D01*
X140624364Y-102644259D01*
X140652239Y-102625633D01*
X144738000Y-102625633D01*
X144738000Y-102734367D01*
X144759213Y-102841012D01*
X144800824Y-102941470D01*
X144861234Y-103031880D01*
X144938120Y-103108766D01*
X145028530Y-103169176D01*
X145128988Y-103210787D01*
X145235633Y-103232000D01*
X145344367Y-103232000D01*
X145451012Y-103210787D01*
X145551470Y-103169176D01*
X145641880Y-103108766D01*
X145718766Y-103031880D01*
X145779176Y-102941470D01*
X145820787Y-102841012D01*
X145823605Y-102826841D01*
X148895907Y-102826841D01*
X148895907Y-102935575D01*
X148917120Y-103042220D01*
X148958731Y-103142678D01*
X149019141Y-103233088D01*
X149096027Y-103309974D01*
X149186437Y-103370384D01*
X149286895Y-103411995D01*
X149393540Y-103433208D01*
X149406153Y-103433208D01*
X149392920Y-103465156D01*
X149371707Y-103571801D01*
X149371707Y-103680535D01*
X149392920Y-103787180D01*
X149434531Y-103887638D01*
X149494941Y-103978048D01*
X149496314Y-103979421D01*
X149473523Y-104013530D01*
X149431912Y-104113988D01*
X149410699Y-104220633D01*
X149410699Y-104329367D01*
X149431912Y-104436012D01*
X149473523Y-104536470D01*
X149533933Y-104626880D01*
X149610819Y-104703766D01*
X149701229Y-104764176D01*
X149801687Y-104805787D01*
X149908332Y-104827000D01*
X150017066Y-104827000D01*
X150123711Y-104805787D01*
X150224169Y-104764176D01*
X150314579Y-104703766D01*
X150343363Y-104674982D01*
X151552351Y-104674982D01*
X151552351Y-104783716D01*
X151573564Y-104890361D01*
X151615175Y-104990819D01*
X151675585Y-105081229D01*
X151752471Y-105158115D01*
X151842881Y-105218525D01*
X151943339Y-105260136D01*
X152049984Y-105281349D01*
X152158718Y-105281349D01*
X152265363Y-105260136D01*
X152365821Y-105218525D01*
X152456231Y-105158115D01*
X152533117Y-105081229D01*
X152543865Y-105065143D01*
X152565126Y-105116472D01*
X152625536Y-105206882D01*
X152702422Y-105283768D01*
X152792832Y-105344178D01*
X152893290Y-105385789D01*
X152999935Y-105407002D01*
X153108669Y-105407002D01*
X153215314Y-105385789D01*
X153315772Y-105344178D01*
X153406182Y-105283768D01*
X153483068Y-105206882D01*
X153543478Y-105116472D01*
X153585089Y-105016014D01*
X153606302Y-104909369D01*
X153606302Y-104800635D01*
X153585089Y-104693990D01*
X153543478Y-104593532D01*
X153483068Y-104503122D01*
X153406182Y-104426236D01*
X153315772Y-104365826D01*
X153215314Y-104324215D01*
X153108669Y-104303002D01*
X152999935Y-104303002D01*
X152893290Y-104324215D01*
X152792832Y-104365826D01*
X152702422Y-104426236D01*
X152625536Y-104503122D01*
X152614788Y-104519208D01*
X152593527Y-104467879D01*
X152533117Y-104377469D01*
X152456231Y-104300583D01*
X152365821Y-104240173D01*
X152265363Y-104198562D01*
X152158718Y-104177349D01*
X152049984Y-104177349D01*
X151943339Y-104198562D01*
X151842881Y-104240173D01*
X151752471Y-104300583D01*
X151675585Y-104377469D01*
X151615175Y-104467879D01*
X151573564Y-104568337D01*
X151552351Y-104674982D01*
X150343363Y-104674982D01*
X150391465Y-104626880D01*
X150451875Y-104536470D01*
X150493486Y-104436012D01*
X150514699Y-104329367D01*
X150514699Y-104220633D01*
X150493486Y-104113988D01*
X150451875Y-104013530D01*
X150391465Y-103923120D01*
X150390092Y-103921747D01*
X150412883Y-103887638D01*
X150454494Y-103787180D01*
X150475707Y-103680535D01*
X150475707Y-103571801D01*
X150454494Y-103465156D01*
X150412883Y-103364698D01*
X150352473Y-103274288D01*
X150275587Y-103197402D01*
X150185177Y-103136992D01*
X150084719Y-103095381D01*
X149978074Y-103074168D01*
X149965461Y-103074168D01*
X149978694Y-103042220D01*
X149999907Y-102935575D01*
X149999907Y-102826841D01*
X149978694Y-102720196D01*
X149937083Y-102619738D01*
X149876673Y-102529328D01*
X149799787Y-102452442D01*
X149709377Y-102392032D01*
X149608919Y-102350421D01*
X149502274Y-102329208D01*
X149393540Y-102329208D01*
X149286895Y-102350421D01*
X149186437Y-102392032D01*
X149096027Y-102452442D01*
X149019141Y-102529328D01*
X148958731Y-102619738D01*
X148917120Y-102720196D01*
X148895907Y-102826841D01*
X145823605Y-102826841D01*
X145842000Y-102734367D01*
X145842000Y-102625633D01*
X145820787Y-102518988D01*
X145779176Y-102418530D01*
X145718766Y-102328120D01*
X145682150Y-102291504D01*
X145738530Y-102329176D01*
X145838988Y-102370787D01*
X145945633Y-102392000D01*
X146054367Y-102392000D01*
X146161012Y-102370787D01*
X146261470Y-102329176D01*
X146351880Y-102268766D01*
X146428766Y-102191880D01*
X146489176Y-102101470D01*
X146530787Y-102001012D01*
X146552000Y-101894367D01*
X146552000Y-101785633D01*
X146530787Y-101678988D01*
X146489176Y-101578530D01*
X146428766Y-101488120D01*
X146351880Y-101411234D01*
X146261470Y-101350824D01*
X146161012Y-101309213D01*
X146054367Y-101288000D01*
X145945633Y-101288000D01*
X145838988Y-101309213D01*
X145738530Y-101350824D01*
X145648120Y-101411234D01*
X145571234Y-101488120D01*
X145510824Y-101578530D01*
X145469213Y-101678988D01*
X145448000Y-101785633D01*
X145448000Y-101894367D01*
X145469213Y-102001012D01*
X145510824Y-102101470D01*
X145571234Y-102191880D01*
X145607850Y-102228496D01*
X145551470Y-102190824D01*
X145451012Y-102149213D01*
X145344367Y-102128000D01*
X145235633Y-102128000D01*
X145128988Y-102149213D01*
X145028530Y-102190824D01*
X144938120Y-102251234D01*
X144861234Y-102328120D01*
X144800824Y-102418530D01*
X144759213Y-102518988D01*
X144738000Y-102625633D01*
X140652239Y-102625633D01*
X140743436Y-102564698D01*
X140844698Y-102463436D01*
X140924259Y-102344364D01*
X140979062Y-102212058D01*
X141007000Y-102071603D01*
X141007000Y-101928397D01*
X140979062Y-101787942D01*
X140924259Y-101655636D01*
X140859467Y-101558667D01*
X140864698Y-101553436D01*
X140944259Y-101434364D01*
X140999062Y-101302058D01*
X141016252Y-101215633D01*
X149028000Y-101215633D01*
X149028000Y-101324367D01*
X149049213Y-101431012D01*
X149090824Y-101531470D01*
X149151234Y-101621880D01*
X149228120Y-101698766D01*
X149318530Y-101759176D01*
X149418988Y-101800787D01*
X149525633Y-101822000D01*
X149634367Y-101822000D01*
X149741012Y-101800787D01*
X149841470Y-101759176D01*
X149921602Y-101705633D01*
X163098000Y-101705633D01*
X163098000Y-101814367D01*
X163119213Y-101921012D01*
X163160824Y-102021470D01*
X163221234Y-102111880D01*
X163298120Y-102188766D01*
X163388530Y-102249176D01*
X163488988Y-102290787D01*
X163595633Y-102312000D01*
X163704367Y-102312000D01*
X163811012Y-102290787D01*
X163911470Y-102249176D01*
X164001880Y-102188766D01*
X164078766Y-102111880D01*
X164139176Y-102021470D01*
X164180787Y-101921012D01*
X164202000Y-101814367D01*
X164202000Y-101705633D01*
X164180787Y-101598988D01*
X164139176Y-101498530D01*
X164078766Y-101408120D01*
X164001880Y-101331234D01*
X163911470Y-101270824D01*
X163811012Y-101229213D01*
X163704367Y-101208000D01*
X163595633Y-101208000D01*
X163488988Y-101229213D01*
X163388530Y-101270824D01*
X163298120Y-101331234D01*
X163221234Y-101408120D01*
X163160824Y-101498530D01*
X163119213Y-101598988D01*
X163098000Y-101705633D01*
X149921602Y-101705633D01*
X149931880Y-101698766D01*
X150008766Y-101621880D01*
X150069176Y-101531470D01*
X150110787Y-101431012D01*
X150132000Y-101324367D01*
X150132000Y-101215633D01*
X150110787Y-101108988D01*
X150069176Y-101008530D01*
X150008766Y-100918120D01*
X149931880Y-100841234D01*
X149841470Y-100780824D01*
X149741012Y-100739213D01*
X149634367Y-100718000D01*
X149525633Y-100718000D01*
X149418988Y-100739213D01*
X149318530Y-100780824D01*
X149228120Y-100841234D01*
X149151234Y-100918120D01*
X149090824Y-101008530D01*
X149049213Y-101108988D01*
X149028000Y-101215633D01*
X141016252Y-101215633D01*
X141027000Y-101161603D01*
X141027000Y-101018397D01*
X140999062Y-100877942D01*
X140944259Y-100745636D01*
X140864698Y-100626564D01*
X140763436Y-100525302D01*
X140644364Y-100445741D01*
X140512058Y-100390938D01*
X140432068Y-100375027D01*
X140462058Y-100369062D01*
X140594364Y-100314259D01*
X140713436Y-100234698D01*
X140814698Y-100133436D01*
X140829176Y-100111767D01*
X153147675Y-100111767D01*
X153147675Y-100220501D01*
X153168888Y-100327146D01*
X153210499Y-100427604D01*
X153270909Y-100518014D01*
X153347795Y-100594900D01*
X153438205Y-100655310D01*
X153538663Y-100696921D01*
X153645308Y-100718134D01*
X153754042Y-100718134D01*
X153860687Y-100696921D01*
X153961145Y-100655310D01*
X154051555Y-100594900D01*
X154128441Y-100518014D01*
X154188851Y-100427604D01*
X154230462Y-100327146D01*
X154251675Y-100220501D01*
X154251675Y-100135633D01*
X163738000Y-100135633D01*
X163738000Y-100244367D01*
X163759213Y-100351012D01*
X163800824Y-100451470D01*
X163861234Y-100541880D01*
X163938120Y-100618766D01*
X164028530Y-100679176D01*
X164128988Y-100720787D01*
X164235633Y-100742000D01*
X164344367Y-100742000D01*
X164451012Y-100720787D01*
X164551470Y-100679176D01*
X164641880Y-100618766D01*
X164718766Y-100541880D01*
X164779176Y-100451470D01*
X164820787Y-100351012D01*
X164842000Y-100244367D01*
X164842000Y-100135633D01*
X164820787Y-100028988D01*
X164779176Y-99928530D01*
X164718766Y-99838120D01*
X164641880Y-99761234D01*
X164551470Y-99700824D01*
X164451012Y-99659213D01*
X164344367Y-99638000D01*
X164235633Y-99638000D01*
X164128988Y-99659213D01*
X164028530Y-99700824D01*
X163938120Y-99761234D01*
X163861234Y-99838120D01*
X163800824Y-99928530D01*
X163759213Y-100028988D01*
X163738000Y-100135633D01*
X154251675Y-100135633D01*
X154251675Y-100111767D01*
X154230462Y-100005122D01*
X154188851Y-99904664D01*
X154128441Y-99814254D01*
X154051555Y-99737368D01*
X153961145Y-99676958D01*
X153860687Y-99635347D01*
X153754042Y-99614134D01*
X153645308Y-99614134D01*
X153538663Y-99635347D01*
X153438205Y-99676958D01*
X153347795Y-99737368D01*
X153270909Y-99814254D01*
X153210499Y-99904664D01*
X153168888Y-100005122D01*
X153147675Y-100111767D01*
X140829176Y-100111767D01*
X140894259Y-100014364D01*
X140949062Y-99882058D01*
X140977000Y-99741603D01*
X140977000Y-99598397D01*
X140949062Y-99457942D01*
X140894259Y-99325636D01*
X140828676Y-99227483D01*
X140904259Y-99114364D01*
X140959062Y-98982058D01*
X140987000Y-98841603D01*
X140987000Y-98698397D01*
X140959062Y-98557942D01*
X140904259Y-98425636D01*
X140824698Y-98306564D01*
X140723436Y-98205302D01*
X140604364Y-98125741D01*
X140472058Y-98070938D01*
X140331603Y-98043000D01*
X140188397Y-98043000D01*
X140047942Y-98070938D01*
X139915636Y-98125741D01*
X139796564Y-98205302D01*
X139695302Y-98306564D01*
X139615741Y-98425636D01*
X139565265Y-98547497D01*
X139565685Y-97820633D01*
X145673000Y-97820633D01*
X145673000Y-97929367D01*
X145694213Y-98036012D01*
X145735824Y-98136470D01*
X145796234Y-98226880D01*
X145873120Y-98303766D01*
X145963530Y-98364176D01*
X146063988Y-98405787D01*
X146170633Y-98427000D01*
X146279367Y-98427000D01*
X146386012Y-98405787D01*
X146486470Y-98364176D01*
X146576880Y-98303766D01*
X146653766Y-98226880D01*
X146703491Y-98152461D01*
X153145910Y-98152461D01*
X153145910Y-98261195D01*
X153167123Y-98367840D01*
X153208734Y-98468298D01*
X153269144Y-98558708D01*
X153346030Y-98635594D01*
X153436440Y-98696004D01*
X153536898Y-98737615D01*
X153643543Y-98758828D01*
X153752277Y-98758828D01*
X153858922Y-98737615D01*
X153959380Y-98696004D01*
X154049790Y-98635594D01*
X154126676Y-98558708D01*
X154187086Y-98468298D01*
X154228697Y-98367840D01*
X154249910Y-98261195D01*
X154249910Y-98152461D01*
X154228697Y-98045816D01*
X154187200Y-97945633D01*
X155328000Y-97945633D01*
X155328000Y-98054367D01*
X155349213Y-98161012D01*
X155390824Y-98261470D01*
X155451234Y-98351880D01*
X155528120Y-98428766D01*
X155618530Y-98489176D01*
X155718988Y-98530787D01*
X155825633Y-98552000D01*
X155934367Y-98552000D01*
X156041012Y-98530787D01*
X156141470Y-98489176D01*
X156231880Y-98428766D01*
X156308766Y-98351880D01*
X156369176Y-98261470D01*
X156410787Y-98161012D01*
X156432000Y-98054367D01*
X156432000Y-97945633D01*
X156410787Y-97838988D01*
X156369176Y-97738530D01*
X156308766Y-97648120D01*
X156231880Y-97571234D01*
X156141470Y-97510824D01*
X156041012Y-97469213D01*
X155934367Y-97448000D01*
X155825633Y-97448000D01*
X155718988Y-97469213D01*
X155618530Y-97510824D01*
X155528120Y-97571234D01*
X155451234Y-97648120D01*
X155390824Y-97738530D01*
X155349213Y-97838988D01*
X155328000Y-97945633D01*
X154187200Y-97945633D01*
X154187086Y-97945358D01*
X154126676Y-97854948D01*
X154049790Y-97778062D01*
X153959380Y-97717652D01*
X153858922Y-97676041D01*
X153752277Y-97654828D01*
X153643543Y-97654828D01*
X153536898Y-97676041D01*
X153436440Y-97717652D01*
X153346030Y-97778062D01*
X153269144Y-97854948D01*
X153208734Y-97945358D01*
X153167123Y-98045816D01*
X153145910Y-98152461D01*
X146703491Y-98152461D01*
X146714176Y-98136470D01*
X146755787Y-98036012D01*
X146777000Y-97929367D01*
X146777000Y-97820633D01*
X146755787Y-97713988D01*
X146714176Y-97613530D01*
X146653766Y-97523120D01*
X146576880Y-97446234D01*
X146486470Y-97385824D01*
X146386012Y-97344213D01*
X146279367Y-97323000D01*
X146170633Y-97323000D01*
X146063988Y-97344213D01*
X145963530Y-97385824D01*
X145873120Y-97446234D01*
X145796234Y-97523120D01*
X145735824Y-97613530D01*
X145694213Y-97713988D01*
X145673000Y-97820633D01*
X139565685Y-97820633D01*
X139566440Y-96515633D01*
X145248000Y-96515633D01*
X145248000Y-96624367D01*
X145269213Y-96731012D01*
X145310824Y-96831470D01*
X145371234Y-96921880D01*
X145448120Y-96998766D01*
X145538530Y-97059176D01*
X145638988Y-97100787D01*
X145745633Y-97122000D01*
X145854367Y-97122000D01*
X145961012Y-97100787D01*
X146061470Y-97059176D01*
X146151880Y-96998766D01*
X146228766Y-96921880D01*
X146289176Y-96831470D01*
X146330787Y-96731012D01*
X146352000Y-96624367D01*
X146352000Y-96515633D01*
X146330787Y-96408988D01*
X146289176Y-96308530D01*
X146228766Y-96218120D01*
X146151880Y-96141234D01*
X146061470Y-96080824D01*
X145961012Y-96039213D01*
X145854367Y-96018000D01*
X145745633Y-96018000D01*
X145638988Y-96039213D01*
X145538530Y-96080824D01*
X145448120Y-96141234D01*
X145371234Y-96218120D01*
X145310824Y-96308530D01*
X145269213Y-96408988D01*
X145248000Y-96515633D01*
X139566440Y-96515633D01*
X139566643Y-96165008D01*
X139571234Y-96171880D01*
X139648120Y-96248766D01*
X139738530Y-96309176D01*
X139838988Y-96350787D01*
X139945633Y-96372000D01*
X140054367Y-96372000D01*
X140161012Y-96350787D01*
X140261470Y-96309176D01*
X140351880Y-96248766D01*
X140352363Y-96248283D01*
X140428530Y-96299176D01*
X140528988Y-96340787D01*
X140635633Y-96362000D01*
X140744367Y-96362000D01*
X140851012Y-96340787D01*
X140951470Y-96299176D01*
X141041880Y-96238766D01*
X141118766Y-96161880D01*
X141179176Y-96071470D01*
X141220787Y-95971012D01*
X141229441Y-95927503D01*
X157863496Y-95927503D01*
X157863496Y-96036237D01*
X157884709Y-96142882D01*
X157926320Y-96243340D01*
X157986730Y-96333750D01*
X158063616Y-96410636D01*
X158154026Y-96471046D01*
X158254484Y-96512657D01*
X158361129Y-96533870D01*
X158469863Y-96533870D01*
X158576508Y-96512657D01*
X158676966Y-96471046D01*
X158729965Y-96435633D01*
X162998000Y-96435633D01*
X162998000Y-96544367D01*
X163019213Y-96651012D01*
X163060824Y-96751470D01*
X163121234Y-96841880D01*
X163198120Y-96918766D01*
X163288530Y-96979176D01*
X163388988Y-97020787D01*
X163495633Y-97042000D01*
X163604367Y-97042000D01*
X163608000Y-97041277D01*
X163608000Y-97129369D01*
X163629213Y-97236014D01*
X163670824Y-97336472D01*
X163731234Y-97426882D01*
X163803955Y-97499603D01*
X163803013Y-97499213D01*
X163696368Y-97478000D01*
X163587634Y-97478000D01*
X163480989Y-97499213D01*
X163380531Y-97540824D01*
X163290121Y-97601234D01*
X163213235Y-97678120D01*
X163152825Y-97768530D01*
X163111214Y-97868988D01*
X163090001Y-97975633D01*
X163090001Y-98084367D01*
X163111214Y-98191012D01*
X163152825Y-98291470D01*
X163213235Y-98381880D01*
X163290121Y-98458766D01*
X163380531Y-98519176D01*
X163480989Y-98560787D01*
X163587634Y-98582000D01*
X163696368Y-98582000D01*
X163803013Y-98560787D01*
X163903471Y-98519176D01*
X163993881Y-98458766D01*
X164070767Y-98381880D01*
X164131177Y-98291470D01*
X164172788Y-98191012D01*
X164194001Y-98084367D01*
X164194001Y-97975633D01*
X164172788Y-97868988D01*
X164131177Y-97768530D01*
X164070767Y-97678120D01*
X163998046Y-97605399D01*
X163998988Y-97605789D01*
X164105633Y-97627002D01*
X164214367Y-97627002D01*
X164321012Y-97605789D01*
X164421470Y-97564178D01*
X164511880Y-97503768D01*
X164588766Y-97426882D01*
X164649176Y-97336472D01*
X164690787Y-97236014D01*
X164712000Y-97129369D01*
X164712000Y-97020635D01*
X164690787Y-96913990D01*
X164649176Y-96813532D01*
X164588766Y-96723122D01*
X164511880Y-96646236D01*
X164421470Y-96585826D01*
X164321012Y-96544215D01*
X164214367Y-96523002D01*
X164105633Y-96523002D01*
X164102000Y-96523725D01*
X164102000Y-96435633D01*
X164080787Y-96328988D01*
X164039176Y-96228530D01*
X163978766Y-96138120D01*
X163901880Y-96061234D01*
X163811470Y-96000824D01*
X163711012Y-95959213D01*
X163604367Y-95938000D01*
X163495633Y-95938000D01*
X163388988Y-95959213D01*
X163288530Y-96000824D01*
X163198120Y-96061234D01*
X163121234Y-96138120D01*
X163060824Y-96228530D01*
X163019213Y-96328988D01*
X162998000Y-96435633D01*
X158729965Y-96435633D01*
X158767376Y-96410636D01*
X158844262Y-96333750D01*
X158904672Y-96243340D01*
X158946283Y-96142882D01*
X158967496Y-96036237D01*
X158967496Y-95927503D01*
X158946283Y-95820858D01*
X158904672Y-95720400D01*
X158844262Y-95629990D01*
X158767376Y-95553104D01*
X158676966Y-95492694D01*
X158576508Y-95451083D01*
X158469863Y-95429870D01*
X158361129Y-95429870D01*
X158254484Y-95451083D01*
X158154026Y-95492694D01*
X158063616Y-95553104D01*
X157986730Y-95629990D01*
X157926320Y-95720400D01*
X157884709Y-95820858D01*
X157863496Y-95927503D01*
X141229441Y-95927503D01*
X141242000Y-95864367D01*
X141242000Y-95755633D01*
X141220787Y-95648988D01*
X141179176Y-95548530D01*
X141118766Y-95458120D01*
X141041880Y-95381234D01*
X140951470Y-95320824D01*
X140851012Y-95279213D01*
X140744367Y-95258000D01*
X140635633Y-95258000D01*
X140528988Y-95279213D01*
X140428530Y-95320824D01*
X140338120Y-95381234D01*
X140337637Y-95381717D01*
X140261470Y-95330824D01*
X140161012Y-95289213D01*
X140054367Y-95268000D01*
X139945633Y-95268000D01*
X139838988Y-95289213D01*
X139738530Y-95330824D01*
X139648120Y-95391234D01*
X139571234Y-95468120D01*
X139567042Y-95474394D01*
X139567549Y-94596819D01*
X158533002Y-94596819D01*
X158533002Y-94705553D01*
X158554215Y-94812198D01*
X158595826Y-94912656D01*
X158656236Y-95003066D01*
X158733122Y-95079952D01*
X158823532Y-95140362D01*
X158923990Y-95181973D01*
X159030635Y-95203186D01*
X159139369Y-95203186D01*
X159246014Y-95181973D01*
X159346472Y-95140362D01*
X159436882Y-95079952D01*
X159513768Y-95003066D01*
X159574178Y-94912656D01*
X159615789Y-94812198D01*
X159637002Y-94705553D01*
X159637002Y-94596819D01*
X159615789Y-94490174D01*
X159574178Y-94389716D01*
X159513768Y-94299306D01*
X159436882Y-94222420D01*
X159346472Y-94162010D01*
X159246014Y-94120399D01*
X159139369Y-94099186D01*
X159030635Y-94099186D01*
X158923990Y-94120399D01*
X158823532Y-94162010D01*
X158733122Y-94222420D01*
X158656236Y-94299306D01*
X158595826Y-94389716D01*
X158554215Y-94490174D01*
X158533002Y-94596819D01*
X139567549Y-94596819D01*
X139568435Y-93065633D01*
X155918000Y-93065633D01*
X155918000Y-93174367D01*
X155939213Y-93281012D01*
X155980824Y-93381470D01*
X156041234Y-93471880D01*
X156118120Y-93548766D01*
X156138000Y-93562049D01*
X156138000Y-93634367D01*
X156159213Y-93741012D01*
X156200824Y-93841470D01*
X156261234Y-93931880D01*
X156338120Y-94008766D01*
X156388000Y-94042095D01*
X156388000Y-94044367D01*
X156409213Y-94151012D01*
X156450824Y-94251470D01*
X156511234Y-94341880D01*
X156588120Y-94418766D01*
X156678530Y-94479176D01*
X156778988Y-94520787D01*
X156885633Y-94542000D01*
X156994367Y-94542000D01*
X157101012Y-94520787D01*
X157201470Y-94479176D01*
X157291880Y-94418766D01*
X157368766Y-94341880D01*
X157429176Y-94251470D01*
X157470787Y-94151012D01*
X157492000Y-94044367D01*
X157492000Y-93935633D01*
X157470787Y-93828988D01*
X157429176Y-93728530D01*
X157368766Y-93638120D01*
X157291880Y-93561234D01*
X157242000Y-93527905D01*
X157242000Y-93525633D01*
X157220787Y-93418988D01*
X157179176Y-93318530D01*
X157118766Y-93228120D01*
X157041880Y-93151234D01*
X157022000Y-93137951D01*
X157022000Y-93065633D01*
X157000787Y-92958988D01*
X156959176Y-92858530D01*
X156898766Y-92768120D01*
X156821880Y-92691234D01*
X156731470Y-92630824D01*
X156631012Y-92589213D01*
X156524367Y-92568000D01*
X156415633Y-92568000D01*
X156308988Y-92589213D01*
X156208530Y-92630824D01*
X156118120Y-92691234D01*
X156041234Y-92768120D01*
X155980824Y-92858530D01*
X155939213Y-92958988D01*
X155918000Y-93065633D01*
X139568435Y-93065633D01*
X139568838Y-92369000D01*
X165771001Y-92369000D01*
X165771001Y-93368918D01*
G37*
X165771001Y-93368918D02*
X164137500Y-93368918D01*
X164073397Y-93375232D01*
X164011757Y-93393930D01*
X163954950Y-93424294D01*
X163905157Y-93465157D01*
X163864294Y-93514950D01*
X163833930Y-93571757D01*
X163815232Y-93633397D01*
X163808918Y-93697500D01*
X163808918Y-95422500D01*
X163815232Y-95486603D01*
X163833930Y-95548243D01*
X163864294Y-95605050D01*
X163905157Y-95654843D01*
X163954950Y-95695706D01*
X164011757Y-95726070D01*
X164073397Y-95744768D01*
X164137500Y-95751082D01*
X165771001Y-95751082D01*
X165771000Y-105268918D01*
X164197500Y-105268918D01*
X164133397Y-105275232D01*
X164071757Y-105293930D01*
X164014950Y-105324294D01*
X163965157Y-105365157D01*
X163924294Y-105414950D01*
X163893930Y-105471757D01*
X163875232Y-105533397D01*
X163868918Y-105597500D01*
X163868918Y-107322500D01*
X163875232Y-107386603D01*
X163893930Y-107448243D01*
X163924294Y-107505050D01*
X163965157Y-107554843D01*
X164014950Y-107595706D01*
X164071757Y-107626070D01*
X164133397Y-107644768D01*
X164197500Y-107651082D01*
X165771000Y-107651082D01*
X165771000Y-109101000D01*
X164856227Y-109101000D01*
X164832019Y-109042558D01*
X164751747Y-108922421D01*
X164649579Y-108820253D01*
X164529442Y-108739981D01*
X164395954Y-108684688D01*
X164254243Y-108656500D01*
X164244739Y-108656500D01*
X164247432Y-108649999D01*
X164280500Y-108483752D01*
X164280500Y-108314248D01*
X164247432Y-108148001D01*
X164182566Y-107991400D01*
X164088394Y-107850463D01*
X163968537Y-107730606D01*
X163827600Y-107636434D01*
X163670999Y-107571568D01*
X163504752Y-107538500D01*
X163335248Y-107538500D01*
X163169001Y-107571568D01*
X163012400Y-107636434D01*
X162871463Y-107730606D01*
X162751606Y-107850463D01*
X162672467Y-107968902D01*
X162639176Y-107888530D01*
X162578766Y-107798120D01*
X162501880Y-107721234D01*
X162411470Y-107660824D01*
X162311012Y-107619213D01*
X162204367Y-107598000D01*
X162095633Y-107598000D01*
X161988988Y-107619213D01*
X161888530Y-107660824D01*
X161798120Y-107721234D01*
X161721234Y-107798120D01*
X161660824Y-107888530D01*
X161619213Y-107988988D01*
X161598000Y-108095633D01*
X161598000Y-108204367D01*
X161619213Y-108311012D01*
X161660824Y-108411470D01*
X161721234Y-108501880D01*
X161772772Y-108553418D01*
X161642000Y-108553418D01*
X161577897Y-108559732D01*
X161516257Y-108578430D01*
X161515000Y-108579102D01*
X161513743Y-108578430D01*
X161452103Y-108559732D01*
X161388000Y-108553418D01*
X160372000Y-108553418D01*
X160307897Y-108559732D01*
X160246257Y-108578430D01*
X160245000Y-108579102D01*
X160243743Y-108578430D01*
X160182103Y-108559732D01*
X160118000Y-108553418D01*
X159102000Y-108553418D01*
X159037897Y-108559732D01*
X158976257Y-108578430D01*
X158975000Y-108579102D01*
X158973743Y-108578430D01*
X158912103Y-108559732D01*
X158848000Y-108553418D01*
X157832000Y-108553418D01*
X157767897Y-108559732D01*
X157706257Y-108578430D01*
X157705000Y-108579102D01*
X157703743Y-108578430D01*
X157642103Y-108559732D01*
X157578000Y-108553418D01*
X156562000Y-108553418D01*
X156497897Y-108559732D01*
X156436257Y-108578430D01*
X156435000Y-108579102D01*
X156433743Y-108578430D01*
X156372103Y-108559732D01*
X156308000Y-108553418D01*
X155292000Y-108553418D01*
X155227897Y-108559732D01*
X155166257Y-108578430D01*
X155165000Y-108579102D01*
X155163743Y-108578430D01*
X155102103Y-108559732D01*
X155038000Y-108553418D01*
X154022000Y-108553418D01*
X153957897Y-108559732D01*
X153896257Y-108578430D01*
X153895000Y-108579102D01*
X153893743Y-108578430D01*
X153832103Y-108559732D01*
X153768000Y-108553418D01*
X152752000Y-108553418D01*
X152687897Y-108559732D01*
X152626257Y-108578430D01*
X152625000Y-108579102D01*
X152623743Y-108578430D01*
X152562103Y-108559732D01*
X152498000Y-108553418D01*
X151482000Y-108553418D01*
X151417897Y-108559732D01*
X151356257Y-108578430D01*
X151355000Y-108579102D01*
X151353743Y-108578430D01*
X151292103Y-108559732D01*
X151228000Y-108553418D01*
X150212000Y-108553418D01*
X150147897Y-108559732D01*
X150086257Y-108578430D01*
X150085000Y-108579102D01*
X150083743Y-108578430D01*
X150022103Y-108559732D01*
X149958000Y-108553418D01*
X148942000Y-108553418D01*
X148877897Y-108559732D01*
X148816257Y-108578430D01*
X148815000Y-108579102D01*
X148813743Y-108578430D01*
X148752103Y-108559732D01*
X148688000Y-108553418D01*
X147672000Y-108553418D01*
X147607897Y-108559732D01*
X147546257Y-108578430D01*
X147545000Y-108579102D01*
X147543743Y-108578430D01*
X147482103Y-108559732D01*
X147418000Y-108553418D01*
X146402000Y-108553418D01*
X146337897Y-108559732D01*
X146276257Y-108578430D01*
X146219450Y-108608794D01*
X146169657Y-108649657D01*
X146128794Y-108699450D01*
X146098430Y-108756257D01*
X146079732Y-108817897D01*
X146073418Y-108882000D01*
X146073418Y-109101000D01*
X144868243Y-109101000D01*
X144918537Y-109067394D01*
X145038394Y-108947537D01*
X145132566Y-108806600D01*
X145197432Y-108649999D01*
X145230500Y-108483752D01*
X145230500Y-108314248D01*
X145197432Y-108148001D01*
X145132566Y-107991400D01*
X145038394Y-107850463D01*
X144918537Y-107730606D01*
X144777600Y-107636434D01*
X144620999Y-107571568D01*
X144454752Y-107538500D01*
X144285248Y-107538500D01*
X144119001Y-107571568D01*
X143962400Y-107636434D01*
X143821463Y-107730606D01*
X143701606Y-107850463D01*
X143607434Y-107991400D01*
X143542568Y-108148001D01*
X143509500Y-108314248D01*
X143509500Y-108483752D01*
X143542568Y-108649999D01*
X143607434Y-108806600D01*
X143701606Y-108947537D01*
X143821463Y-109067394D01*
X143871757Y-109101000D01*
X143545227Y-109101000D01*
X143521019Y-109042558D01*
X143440747Y-108922421D01*
X143338579Y-108820253D01*
X143218442Y-108739981D01*
X143084954Y-108684688D01*
X142943243Y-108656500D01*
X142798757Y-108656500D01*
X142657046Y-108684688D01*
X142523558Y-108739981D01*
X142403421Y-108820253D01*
X142301253Y-108922421D01*
X142220981Y-109042558D01*
X142196773Y-109101000D01*
X139559161Y-109101000D01*
X139560666Y-106497500D01*
X140838918Y-106497500D01*
X140838918Y-108222500D01*
X140845232Y-108286603D01*
X140863930Y-108348243D01*
X140894294Y-108405050D01*
X140935157Y-108454843D01*
X140984950Y-108495706D01*
X141041757Y-108526070D01*
X141103397Y-108544768D01*
X141167500Y-108551082D01*
X142892500Y-108551082D01*
X142956603Y-108544768D01*
X143018243Y-108526070D01*
X143075050Y-108495706D01*
X143124843Y-108454843D01*
X143165706Y-108405050D01*
X143196070Y-108348243D01*
X143214768Y-108286603D01*
X143221082Y-108222500D01*
X143221082Y-107421402D01*
X146686989Y-107421402D01*
X146686989Y-107530136D01*
X146708202Y-107636781D01*
X146749813Y-107737239D01*
X146810223Y-107827649D01*
X146887109Y-107904535D01*
X146977519Y-107964945D01*
X147077977Y-108006556D01*
X147184622Y-108027769D01*
X147293356Y-108027769D01*
X147400001Y-108006556D01*
X147500459Y-107964945D01*
X147590869Y-107904535D01*
X147667755Y-107827649D01*
X147728165Y-107737239D01*
X147769776Y-107636781D01*
X147790989Y-107530136D01*
X147790989Y-107421402D01*
X147769776Y-107314757D01*
X147728165Y-107214299D01*
X147667755Y-107123889D01*
X147610313Y-107066447D01*
X149438000Y-107066447D01*
X149438000Y-107175181D01*
X149459213Y-107281826D01*
X149500824Y-107382284D01*
X149561234Y-107472694D01*
X149638120Y-107549580D01*
X149728530Y-107609990D01*
X149828988Y-107651601D01*
X149935633Y-107672814D01*
X150044367Y-107672814D01*
X150151012Y-107651601D01*
X150251470Y-107609990D01*
X150341880Y-107549580D01*
X150418766Y-107472694D01*
X150479176Y-107382284D01*
X150520787Y-107281826D01*
X150542000Y-107175181D01*
X150542000Y-107066447D01*
X150520787Y-106959802D01*
X150502942Y-106916718D01*
X151091240Y-106916718D01*
X151091240Y-107025452D01*
X151112453Y-107132097D01*
X151154064Y-107232555D01*
X151214474Y-107322965D01*
X151291360Y-107399851D01*
X151381770Y-107460261D01*
X151482228Y-107501872D01*
X151588873Y-107523085D01*
X151697607Y-107523085D01*
X151804252Y-107501872D01*
X151900777Y-107461890D01*
X151901478Y-107462939D01*
X151978364Y-107539825D01*
X152068774Y-107600235D01*
X152169232Y-107641846D01*
X152275877Y-107663059D01*
X152384611Y-107663059D01*
X152491256Y-107641846D01*
X152591714Y-107600235D01*
X152682124Y-107539825D01*
X152759010Y-107462939D01*
X152819420Y-107372529D01*
X152861031Y-107272071D01*
X152882244Y-107165426D01*
X152882244Y-107056692D01*
X152861031Y-106950047D01*
X152819420Y-106849589D01*
X152759010Y-106759179D01*
X152682124Y-106682293D01*
X152591714Y-106621883D01*
X152491256Y-106580272D01*
X152384611Y-106559059D01*
X152275877Y-106559059D01*
X152169232Y-106580272D01*
X152072707Y-106620254D01*
X152072006Y-106619205D01*
X151995120Y-106542319D01*
X151904710Y-106481909D01*
X151804252Y-106440298D01*
X151697607Y-106419085D01*
X151588873Y-106419085D01*
X151482228Y-106440298D01*
X151381770Y-106481909D01*
X151291360Y-106542319D01*
X151214474Y-106619205D01*
X151154064Y-106709615D01*
X151112453Y-106810073D01*
X151091240Y-106916718D01*
X150502942Y-106916718D01*
X150479176Y-106859344D01*
X150418766Y-106768934D01*
X150341880Y-106692048D01*
X150251470Y-106631638D01*
X150151012Y-106590027D01*
X150044367Y-106568814D01*
X149935633Y-106568814D01*
X149828988Y-106590027D01*
X149728530Y-106631638D01*
X149638120Y-106692048D01*
X149561234Y-106768934D01*
X149500824Y-106859344D01*
X149459213Y-106959802D01*
X149438000Y-107066447D01*
X147610313Y-107066447D01*
X147590869Y-107047003D01*
X147500459Y-106986593D01*
X147400001Y-106944982D01*
X147293356Y-106923769D01*
X147184622Y-106923769D01*
X147077977Y-106944982D01*
X146977519Y-106986593D01*
X146887109Y-107047003D01*
X146810223Y-107123889D01*
X146749813Y-107214299D01*
X146708202Y-107314757D01*
X146686989Y-107421402D01*
X143221082Y-107421402D01*
X143221082Y-106497500D01*
X143214768Y-106433397D01*
X143196070Y-106371757D01*
X143165706Y-106314950D01*
X143124843Y-106265157D01*
X143119333Y-106260635D01*
X147428000Y-106260635D01*
X147428000Y-106369369D01*
X147449213Y-106476014D01*
X147490824Y-106576472D01*
X147551234Y-106666882D01*
X147628120Y-106743768D01*
X147718530Y-106804178D01*
X147818988Y-106845789D01*
X147925633Y-106867002D01*
X148034367Y-106867002D01*
X148141012Y-106845789D01*
X148241470Y-106804178D01*
X148331880Y-106743768D01*
X148408766Y-106666882D01*
X148469176Y-106576472D01*
X148510787Y-106476014D01*
X148532000Y-106369369D01*
X148532000Y-106260635D01*
X148510787Y-106153990D01*
X148469176Y-106053532D01*
X148408766Y-105963122D01*
X148331880Y-105886236D01*
X148241470Y-105825826D01*
X148141012Y-105784215D01*
X148034367Y-105763002D01*
X147925633Y-105763002D01*
X147818988Y-105784215D01*
X147718530Y-105825826D01*
X147628120Y-105886236D01*
X147551234Y-105963122D01*
X147490824Y-106053532D01*
X147449213Y-106153990D01*
X147428000Y-106260635D01*
X143119333Y-106260635D01*
X143075050Y-106224294D01*
X143018243Y-106193930D01*
X142956603Y-106175232D01*
X142892500Y-106168918D01*
X141167500Y-106168918D01*
X141103397Y-106175232D01*
X141041757Y-106193930D01*
X140984950Y-106224294D01*
X140935157Y-106265157D01*
X140894294Y-106314950D01*
X140863930Y-106371757D01*
X140845232Y-106433397D01*
X140838918Y-106497500D01*
X139560666Y-106497500D01*
X139563197Y-102122867D01*
X139580938Y-102212058D01*
X139635741Y-102344364D01*
X139715302Y-102463436D01*
X139816564Y-102564698D01*
X139935636Y-102644259D01*
X140067942Y-102699062D01*
X140208397Y-102727000D01*
X140351603Y-102727000D01*
X140492058Y-102699062D01*
X140624364Y-102644259D01*
X140652239Y-102625633D01*
X144738000Y-102625633D01*
X144738000Y-102734367D01*
X144759213Y-102841012D01*
X144800824Y-102941470D01*
X144861234Y-103031880D01*
X144938120Y-103108766D01*
X145028530Y-103169176D01*
X145128988Y-103210787D01*
X145235633Y-103232000D01*
X145344367Y-103232000D01*
X145451012Y-103210787D01*
X145551470Y-103169176D01*
X145641880Y-103108766D01*
X145718766Y-103031880D01*
X145779176Y-102941470D01*
X145820787Y-102841012D01*
X145823605Y-102826841D01*
X148895907Y-102826841D01*
X148895907Y-102935575D01*
X148917120Y-103042220D01*
X148958731Y-103142678D01*
X149019141Y-103233088D01*
X149096027Y-103309974D01*
X149186437Y-103370384D01*
X149286895Y-103411995D01*
X149393540Y-103433208D01*
X149406153Y-103433208D01*
X149392920Y-103465156D01*
X149371707Y-103571801D01*
X149371707Y-103680535D01*
X149392920Y-103787180D01*
X149434531Y-103887638D01*
X149494941Y-103978048D01*
X149496314Y-103979421D01*
X149473523Y-104013530D01*
X149431912Y-104113988D01*
X149410699Y-104220633D01*
X149410699Y-104329367D01*
X149431912Y-104436012D01*
X149473523Y-104536470D01*
X149533933Y-104626880D01*
X149610819Y-104703766D01*
X149701229Y-104764176D01*
X149801687Y-104805787D01*
X149908332Y-104827000D01*
X150017066Y-104827000D01*
X150123711Y-104805787D01*
X150224169Y-104764176D01*
X150314579Y-104703766D01*
X150343363Y-104674982D01*
X151552351Y-104674982D01*
X151552351Y-104783716D01*
X151573564Y-104890361D01*
X151615175Y-104990819D01*
X151675585Y-105081229D01*
X151752471Y-105158115D01*
X151842881Y-105218525D01*
X151943339Y-105260136D01*
X152049984Y-105281349D01*
X152158718Y-105281349D01*
X152265363Y-105260136D01*
X152365821Y-105218525D01*
X152456231Y-105158115D01*
X152533117Y-105081229D01*
X152543865Y-105065143D01*
X152565126Y-105116472D01*
X152625536Y-105206882D01*
X152702422Y-105283768D01*
X152792832Y-105344178D01*
X152893290Y-105385789D01*
X152999935Y-105407002D01*
X153108669Y-105407002D01*
X153215314Y-105385789D01*
X153315772Y-105344178D01*
X153406182Y-105283768D01*
X153483068Y-105206882D01*
X153543478Y-105116472D01*
X153585089Y-105016014D01*
X153606302Y-104909369D01*
X153606302Y-104800635D01*
X153585089Y-104693990D01*
X153543478Y-104593532D01*
X153483068Y-104503122D01*
X153406182Y-104426236D01*
X153315772Y-104365826D01*
X153215314Y-104324215D01*
X153108669Y-104303002D01*
X152999935Y-104303002D01*
X152893290Y-104324215D01*
X152792832Y-104365826D01*
X152702422Y-104426236D01*
X152625536Y-104503122D01*
X152614788Y-104519208D01*
X152593527Y-104467879D01*
X152533117Y-104377469D01*
X152456231Y-104300583D01*
X152365821Y-104240173D01*
X152265363Y-104198562D01*
X152158718Y-104177349D01*
X152049984Y-104177349D01*
X151943339Y-104198562D01*
X151842881Y-104240173D01*
X151752471Y-104300583D01*
X151675585Y-104377469D01*
X151615175Y-104467879D01*
X151573564Y-104568337D01*
X151552351Y-104674982D01*
X150343363Y-104674982D01*
X150391465Y-104626880D01*
X150451875Y-104536470D01*
X150493486Y-104436012D01*
X150514699Y-104329367D01*
X150514699Y-104220633D01*
X150493486Y-104113988D01*
X150451875Y-104013530D01*
X150391465Y-103923120D01*
X150390092Y-103921747D01*
X150412883Y-103887638D01*
X150454494Y-103787180D01*
X150475707Y-103680535D01*
X150475707Y-103571801D01*
X150454494Y-103465156D01*
X150412883Y-103364698D01*
X150352473Y-103274288D01*
X150275587Y-103197402D01*
X150185177Y-103136992D01*
X150084719Y-103095381D01*
X149978074Y-103074168D01*
X149965461Y-103074168D01*
X149978694Y-103042220D01*
X149999907Y-102935575D01*
X149999907Y-102826841D01*
X149978694Y-102720196D01*
X149937083Y-102619738D01*
X149876673Y-102529328D01*
X149799787Y-102452442D01*
X149709377Y-102392032D01*
X149608919Y-102350421D01*
X149502274Y-102329208D01*
X149393540Y-102329208D01*
X149286895Y-102350421D01*
X149186437Y-102392032D01*
X149096027Y-102452442D01*
X149019141Y-102529328D01*
X148958731Y-102619738D01*
X148917120Y-102720196D01*
X148895907Y-102826841D01*
X145823605Y-102826841D01*
X145842000Y-102734367D01*
X145842000Y-102625633D01*
X145820787Y-102518988D01*
X145779176Y-102418530D01*
X145718766Y-102328120D01*
X145682150Y-102291504D01*
X145738530Y-102329176D01*
X145838988Y-102370787D01*
X145945633Y-102392000D01*
X146054367Y-102392000D01*
X146161012Y-102370787D01*
X146261470Y-102329176D01*
X146351880Y-102268766D01*
X146428766Y-102191880D01*
X146489176Y-102101470D01*
X146530787Y-102001012D01*
X146552000Y-101894367D01*
X146552000Y-101785633D01*
X146530787Y-101678988D01*
X146489176Y-101578530D01*
X146428766Y-101488120D01*
X146351880Y-101411234D01*
X146261470Y-101350824D01*
X146161012Y-101309213D01*
X146054367Y-101288000D01*
X145945633Y-101288000D01*
X145838988Y-101309213D01*
X145738530Y-101350824D01*
X145648120Y-101411234D01*
X145571234Y-101488120D01*
X145510824Y-101578530D01*
X145469213Y-101678988D01*
X145448000Y-101785633D01*
X145448000Y-101894367D01*
X145469213Y-102001012D01*
X145510824Y-102101470D01*
X145571234Y-102191880D01*
X145607850Y-102228496D01*
X145551470Y-102190824D01*
X145451012Y-102149213D01*
X145344367Y-102128000D01*
X145235633Y-102128000D01*
X145128988Y-102149213D01*
X145028530Y-102190824D01*
X144938120Y-102251234D01*
X144861234Y-102328120D01*
X144800824Y-102418530D01*
X144759213Y-102518988D01*
X144738000Y-102625633D01*
X140652239Y-102625633D01*
X140743436Y-102564698D01*
X140844698Y-102463436D01*
X140924259Y-102344364D01*
X140979062Y-102212058D01*
X141007000Y-102071603D01*
X141007000Y-101928397D01*
X140979062Y-101787942D01*
X140924259Y-101655636D01*
X140859467Y-101558667D01*
X140864698Y-101553436D01*
X140944259Y-101434364D01*
X140999062Y-101302058D01*
X141016252Y-101215633D01*
X149028000Y-101215633D01*
X149028000Y-101324367D01*
X149049213Y-101431012D01*
X149090824Y-101531470D01*
X149151234Y-101621880D01*
X149228120Y-101698766D01*
X149318530Y-101759176D01*
X149418988Y-101800787D01*
X149525633Y-101822000D01*
X149634367Y-101822000D01*
X149741012Y-101800787D01*
X149841470Y-101759176D01*
X149921602Y-101705633D01*
X163098000Y-101705633D01*
X163098000Y-101814367D01*
X163119213Y-101921012D01*
X163160824Y-102021470D01*
X163221234Y-102111880D01*
X163298120Y-102188766D01*
X163388530Y-102249176D01*
X163488988Y-102290787D01*
X163595633Y-102312000D01*
X163704367Y-102312000D01*
X163811012Y-102290787D01*
X163911470Y-102249176D01*
X164001880Y-102188766D01*
X164078766Y-102111880D01*
X164139176Y-102021470D01*
X164180787Y-101921012D01*
X164202000Y-101814367D01*
X164202000Y-101705633D01*
X164180787Y-101598988D01*
X164139176Y-101498530D01*
X164078766Y-101408120D01*
X164001880Y-101331234D01*
X163911470Y-101270824D01*
X163811012Y-101229213D01*
X163704367Y-101208000D01*
X163595633Y-101208000D01*
X163488988Y-101229213D01*
X163388530Y-101270824D01*
X163298120Y-101331234D01*
X163221234Y-101408120D01*
X163160824Y-101498530D01*
X163119213Y-101598988D01*
X163098000Y-101705633D01*
X149921602Y-101705633D01*
X149931880Y-101698766D01*
X150008766Y-101621880D01*
X150069176Y-101531470D01*
X150110787Y-101431012D01*
X150132000Y-101324367D01*
X150132000Y-101215633D01*
X150110787Y-101108988D01*
X150069176Y-101008530D01*
X150008766Y-100918120D01*
X149931880Y-100841234D01*
X149841470Y-100780824D01*
X149741012Y-100739213D01*
X149634367Y-100718000D01*
X149525633Y-100718000D01*
X149418988Y-100739213D01*
X149318530Y-100780824D01*
X149228120Y-100841234D01*
X149151234Y-100918120D01*
X149090824Y-101008530D01*
X149049213Y-101108988D01*
X149028000Y-101215633D01*
X141016252Y-101215633D01*
X141027000Y-101161603D01*
X141027000Y-101018397D01*
X140999062Y-100877942D01*
X140944259Y-100745636D01*
X140864698Y-100626564D01*
X140763436Y-100525302D01*
X140644364Y-100445741D01*
X140512058Y-100390938D01*
X140432068Y-100375027D01*
X140462058Y-100369062D01*
X140594364Y-100314259D01*
X140713436Y-100234698D01*
X140814698Y-100133436D01*
X140829176Y-100111767D01*
X153147675Y-100111767D01*
X153147675Y-100220501D01*
X153168888Y-100327146D01*
X153210499Y-100427604D01*
X153270909Y-100518014D01*
X153347795Y-100594900D01*
X153438205Y-100655310D01*
X153538663Y-100696921D01*
X153645308Y-100718134D01*
X153754042Y-100718134D01*
X153860687Y-100696921D01*
X153961145Y-100655310D01*
X154051555Y-100594900D01*
X154128441Y-100518014D01*
X154188851Y-100427604D01*
X154230462Y-100327146D01*
X154251675Y-100220501D01*
X154251675Y-100135633D01*
X163738000Y-100135633D01*
X163738000Y-100244367D01*
X163759213Y-100351012D01*
X163800824Y-100451470D01*
X163861234Y-100541880D01*
X163938120Y-100618766D01*
X164028530Y-100679176D01*
X164128988Y-100720787D01*
X164235633Y-100742000D01*
X164344367Y-100742000D01*
X164451012Y-100720787D01*
X164551470Y-100679176D01*
X164641880Y-100618766D01*
X164718766Y-100541880D01*
X164779176Y-100451470D01*
X164820787Y-100351012D01*
X164842000Y-100244367D01*
X164842000Y-100135633D01*
X164820787Y-100028988D01*
X164779176Y-99928530D01*
X164718766Y-99838120D01*
X164641880Y-99761234D01*
X164551470Y-99700824D01*
X164451012Y-99659213D01*
X164344367Y-99638000D01*
X164235633Y-99638000D01*
X164128988Y-99659213D01*
X164028530Y-99700824D01*
X163938120Y-99761234D01*
X163861234Y-99838120D01*
X163800824Y-99928530D01*
X163759213Y-100028988D01*
X163738000Y-100135633D01*
X154251675Y-100135633D01*
X154251675Y-100111767D01*
X154230462Y-100005122D01*
X154188851Y-99904664D01*
X154128441Y-99814254D01*
X154051555Y-99737368D01*
X153961145Y-99676958D01*
X153860687Y-99635347D01*
X153754042Y-99614134D01*
X153645308Y-99614134D01*
X153538663Y-99635347D01*
X153438205Y-99676958D01*
X153347795Y-99737368D01*
X153270909Y-99814254D01*
X153210499Y-99904664D01*
X153168888Y-100005122D01*
X153147675Y-100111767D01*
X140829176Y-100111767D01*
X140894259Y-100014364D01*
X140949062Y-99882058D01*
X140977000Y-99741603D01*
X140977000Y-99598397D01*
X140949062Y-99457942D01*
X140894259Y-99325636D01*
X140828676Y-99227483D01*
X140904259Y-99114364D01*
X140959062Y-98982058D01*
X140987000Y-98841603D01*
X140987000Y-98698397D01*
X140959062Y-98557942D01*
X140904259Y-98425636D01*
X140824698Y-98306564D01*
X140723436Y-98205302D01*
X140604364Y-98125741D01*
X140472058Y-98070938D01*
X140331603Y-98043000D01*
X140188397Y-98043000D01*
X140047942Y-98070938D01*
X139915636Y-98125741D01*
X139796564Y-98205302D01*
X139695302Y-98306564D01*
X139615741Y-98425636D01*
X139565265Y-98547497D01*
X139565685Y-97820633D01*
X145673000Y-97820633D01*
X145673000Y-97929367D01*
X145694213Y-98036012D01*
X145735824Y-98136470D01*
X145796234Y-98226880D01*
X145873120Y-98303766D01*
X145963530Y-98364176D01*
X146063988Y-98405787D01*
X146170633Y-98427000D01*
X146279367Y-98427000D01*
X146386012Y-98405787D01*
X146486470Y-98364176D01*
X146576880Y-98303766D01*
X146653766Y-98226880D01*
X146703491Y-98152461D01*
X153145910Y-98152461D01*
X153145910Y-98261195D01*
X153167123Y-98367840D01*
X153208734Y-98468298D01*
X153269144Y-98558708D01*
X153346030Y-98635594D01*
X153436440Y-98696004D01*
X153536898Y-98737615D01*
X153643543Y-98758828D01*
X153752277Y-98758828D01*
X153858922Y-98737615D01*
X153959380Y-98696004D01*
X154049790Y-98635594D01*
X154126676Y-98558708D01*
X154187086Y-98468298D01*
X154228697Y-98367840D01*
X154249910Y-98261195D01*
X154249910Y-98152461D01*
X154228697Y-98045816D01*
X154187200Y-97945633D01*
X155328000Y-97945633D01*
X155328000Y-98054367D01*
X155349213Y-98161012D01*
X155390824Y-98261470D01*
X155451234Y-98351880D01*
X155528120Y-98428766D01*
X155618530Y-98489176D01*
X155718988Y-98530787D01*
X155825633Y-98552000D01*
X155934367Y-98552000D01*
X156041012Y-98530787D01*
X156141470Y-98489176D01*
X156231880Y-98428766D01*
X156308766Y-98351880D01*
X156369176Y-98261470D01*
X156410787Y-98161012D01*
X156432000Y-98054367D01*
X156432000Y-97945633D01*
X156410787Y-97838988D01*
X156369176Y-97738530D01*
X156308766Y-97648120D01*
X156231880Y-97571234D01*
X156141470Y-97510824D01*
X156041012Y-97469213D01*
X155934367Y-97448000D01*
X155825633Y-97448000D01*
X155718988Y-97469213D01*
X155618530Y-97510824D01*
X155528120Y-97571234D01*
X155451234Y-97648120D01*
X155390824Y-97738530D01*
X155349213Y-97838988D01*
X155328000Y-97945633D01*
X154187200Y-97945633D01*
X154187086Y-97945358D01*
X154126676Y-97854948D01*
X154049790Y-97778062D01*
X153959380Y-97717652D01*
X153858922Y-97676041D01*
X153752277Y-97654828D01*
X153643543Y-97654828D01*
X153536898Y-97676041D01*
X153436440Y-97717652D01*
X153346030Y-97778062D01*
X153269144Y-97854948D01*
X153208734Y-97945358D01*
X153167123Y-98045816D01*
X153145910Y-98152461D01*
X146703491Y-98152461D01*
X146714176Y-98136470D01*
X146755787Y-98036012D01*
X146777000Y-97929367D01*
X146777000Y-97820633D01*
X146755787Y-97713988D01*
X146714176Y-97613530D01*
X146653766Y-97523120D01*
X146576880Y-97446234D01*
X146486470Y-97385824D01*
X146386012Y-97344213D01*
X146279367Y-97323000D01*
X146170633Y-97323000D01*
X146063988Y-97344213D01*
X145963530Y-97385824D01*
X145873120Y-97446234D01*
X145796234Y-97523120D01*
X145735824Y-97613530D01*
X145694213Y-97713988D01*
X145673000Y-97820633D01*
X139565685Y-97820633D01*
X139566440Y-96515633D01*
X145248000Y-96515633D01*
X145248000Y-96624367D01*
X145269213Y-96731012D01*
X145310824Y-96831470D01*
X145371234Y-96921880D01*
X145448120Y-96998766D01*
X145538530Y-97059176D01*
X145638988Y-97100787D01*
X145745633Y-97122000D01*
X145854367Y-97122000D01*
X145961012Y-97100787D01*
X146061470Y-97059176D01*
X146151880Y-96998766D01*
X146228766Y-96921880D01*
X146289176Y-96831470D01*
X146330787Y-96731012D01*
X146352000Y-96624367D01*
X146352000Y-96515633D01*
X146330787Y-96408988D01*
X146289176Y-96308530D01*
X146228766Y-96218120D01*
X146151880Y-96141234D01*
X146061470Y-96080824D01*
X145961012Y-96039213D01*
X145854367Y-96018000D01*
X145745633Y-96018000D01*
X145638988Y-96039213D01*
X145538530Y-96080824D01*
X145448120Y-96141234D01*
X145371234Y-96218120D01*
X145310824Y-96308530D01*
X145269213Y-96408988D01*
X145248000Y-96515633D01*
X139566440Y-96515633D01*
X139566643Y-96165008D01*
X139571234Y-96171880D01*
X139648120Y-96248766D01*
X139738530Y-96309176D01*
X139838988Y-96350787D01*
X139945633Y-96372000D01*
X140054367Y-96372000D01*
X140161012Y-96350787D01*
X140261470Y-96309176D01*
X140351880Y-96248766D01*
X140352363Y-96248283D01*
X140428530Y-96299176D01*
X140528988Y-96340787D01*
X140635633Y-96362000D01*
X140744367Y-96362000D01*
X140851012Y-96340787D01*
X140951470Y-96299176D01*
X141041880Y-96238766D01*
X141118766Y-96161880D01*
X141179176Y-96071470D01*
X141220787Y-95971012D01*
X141229441Y-95927503D01*
X157863496Y-95927503D01*
X157863496Y-96036237D01*
X157884709Y-96142882D01*
X157926320Y-96243340D01*
X157986730Y-96333750D01*
X158063616Y-96410636D01*
X158154026Y-96471046D01*
X158254484Y-96512657D01*
X158361129Y-96533870D01*
X158469863Y-96533870D01*
X158576508Y-96512657D01*
X158676966Y-96471046D01*
X158729965Y-96435633D01*
X162998000Y-96435633D01*
X162998000Y-96544367D01*
X163019213Y-96651012D01*
X163060824Y-96751470D01*
X163121234Y-96841880D01*
X163198120Y-96918766D01*
X163288530Y-96979176D01*
X163388988Y-97020787D01*
X163495633Y-97042000D01*
X163604367Y-97042000D01*
X163608000Y-97041277D01*
X163608000Y-97129369D01*
X163629213Y-97236014D01*
X163670824Y-97336472D01*
X163731234Y-97426882D01*
X163803955Y-97499603D01*
X163803013Y-97499213D01*
X163696368Y-97478000D01*
X163587634Y-97478000D01*
X163480989Y-97499213D01*
X163380531Y-97540824D01*
X163290121Y-97601234D01*
X163213235Y-97678120D01*
X163152825Y-97768530D01*
X163111214Y-97868988D01*
X163090001Y-97975633D01*
X163090001Y-98084367D01*
X163111214Y-98191012D01*
X163152825Y-98291470D01*
X163213235Y-98381880D01*
X163290121Y-98458766D01*
X163380531Y-98519176D01*
X163480989Y-98560787D01*
X163587634Y-98582000D01*
X163696368Y-98582000D01*
X163803013Y-98560787D01*
X163903471Y-98519176D01*
X163993881Y-98458766D01*
X164070767Y-98381880D01*
X164131177Y-98291470D01*
X164172788Y-98191012D01*
X164194001Y-98084367D01*
X164194001Y-97975633D01*
X164172788Y-97868988D01*
X164131177Y-97768530D01*
X164070767Y-97678120D01*
X163998046Y-97605399D01*
X163998988Y-97605789D01*
X164105633Y-97627002D01*
X164214367Y-97627002D01*
X164321012Y-97605789D01*
X164421470Y-97564178D01*
X164511880Y-97503768D01*
X164588766Y-97426882D01*
X164649176Y-97336472D01*
X164690787Y-97236014D01*
X164712000Y-97129369D01*
X164712000Y-97020635D01*
X164690787Y-96913990D01*
X164649176Y-96813532D01*
X164588766Y-96723122D01*
X164511880Y-96646236D01*
X164421470Y-96585826D01*
X164321012Y-96544215D01*
X164214367Y-96523002D01*
X164105633Y-96523002D01*
X164102000Y-96523725D01*
X164102000Y-96435633D01*
X164080787Y-96328988D01*
X164039176Y-96228530D01*
X163978766Y-96138120D01*
X163901880Y-96061234D01*
X163811470Y-96000824D01*
X163711012Y-95959213D01*
X163604367Y-95938000D01*
X163495633Y-95938000D01*
X163388988Y-95959213D01*
X163288530Y-96000824D01*
X163198120Y-96061234D01*
X163121234Y-96138120D01*
X163060824Y-96228530D01*
X163019213Y-96328988D01*
X162998000Y-96435633D01*
X158729965Y-96435633D01*
X158767376Y-96410636D01*
X158844262Y-96333750D01*
X158904672Y-96243340D01*
X158946283Y-96142882D01*
X158967496Y-96036237D01*
X158967496Y-95927503D01*
X158946283Y-95820858D01*
X158904672Y-95720400D01*
X158844262Y-95629990D01*
X158767376Y-95553104D01*
X158676966Y-95492694D01*
X158576508Y-95451083D01*
X158469863Y-95429870D01*
X158361129Y-95429870D01*
X158254484Y-95451083D01*
X158154026Y-95492694D01*
X158063616Y-95553104D01*
X157986730Y-95629990D01*
X157926320Y-95720400D01*
X157884709Y-95820858D01*
X157863496Y-95927503D01*
X141229441Y-95927503D01*
X141242000Y-95864367D01*
X141242000Y-95755633D01*
X141220787Y-95648988D01*
X141179176Y-95548530D01*
X141118766Y-95458120D01*
X141041880Y-95381234D01*
X140951470Y-95320824D01*
X140851012Y-95279213D01*
X140744367Y-95258000D01*
X140635633Y-95258000D01*
X140528988Y-95279213D01*
X140428530Y-95320824D01*
X140338120Y-95381234D01*
X140337637Y-95381717D01*
X140261470Y-95330824D01*
X140161012Y-95289213D01*
X140054367Y-95268000D01*
X139945633Y-95268000D01*
X139838988Y-95289213D01*
X139738530Y-95330824D01*
X139648120Y-95391234D01*
X139571234Y-95468120D01*
X139567042Y-95474394D01*
X139567549Y-94596819D01*
X158533002Y-94596819D01*
X158533002Y-94705553D01*
X158554215Y-94812198D01*
X158595826Y-94912656D01*
X158656236Y-95003066D01*
X158733122Y-95079952D01*
X158823532Y-95140362D01*
X158923990Y-95181973D01*
X159030635Y-95203186D01*
X159139369Y-95203186D01*
X159246014Y-95181973D01*
X159346472Y-95140362D01*
X159436882Y-95079952D01*
X159513768Y-95003066D01*
X159574178Y-94912656D01*
X159615789Y-94812198D01*
X159637002Y-94705553D01*
X159637002Y-94596819D01*
X159615789Y-94490174D01*
X159574178Y-94389716D01*
X159513768Y-94299306D01*
X159436882Y-94222420D01*
X159346472Y-94162010D01*
X159246014Y-94120399D01*
X159139369Y-94099186D01*
X159030635Y-94099186D01*
X158923990Y-94120399D01*
X158823532Y-94162010D01*
X158733122Y-94222420D01*
X158656236Y-94299306D01*
X158595826Y-94389716D01*
X158554215Y-94490174D01*
X158533002Y-94596819D01*
X139567549Y-94596819D01*
X139568435Y-93065633D01*
X155918000Y-93065633D01*
X155918000Y-93174367D01*
X155939213Y-93281012D01*
X155980824Y-93381470D01*
X156041234Y-93471880D01*
X156118120Y-93548766D01*
X156138000Y-93562049D01*
X156138000Y-93634367D01*
X156159213Y-93741012D01*
X156200824Y-93841470D01*
X156261234Y-93931880D01*
X156338120Y-94008766D01*
X156388000Y-94042095D01*
X156388000Y-94044367D01*
X156409213Y-94151012D01*
X156450824Y-94251470D01*
X156511234Y-94341880D01*
X156588120Y-94418766D01*
X156678530Y-94479176D01*
X156778988Y-94520787D01*
X156885633Y-94542000D01*
X156994367Y-94542000D01*
X157101012Y-94520787D01*
X157201470Y-94479176D01*
X157291880Y-94418766D01*
X157368766Y-94341880D01*
X157429176Y-94251470D01*
X157470787Y-94151012D01*
X157492000Y-94044367D01*
X157492000Y-93935633D01*
X157470787Y-93828988D01*
X157429176Y-93728530D01*
X157368766Y-93638120D01*
X157291880Y-93561234D01*
X157242000Y-93527905D01*
X157242000Y-93525633D01*
X157220787Y-93418988D01*
X157179176Y-93318530D01*
X157118766Y-93228120D01*
X157041880Y-93151234D01*
X157022000Y-93137951D01*
X157022000Y-93065633D01*
X157000787Y-92958988D01*
X156959176Y-92858530D01*
X156898766Y-92768120D01*
X156821880Y-92691234D01*
X156731470Y-92630824D01*
X156631012Y-92589213D01*
X156524367Y-92568000D01*
X156415633Y-92568000D01*
X156308988Y-92589213D01*
X156208530Y-92630824D01*
X156118120Y-92691234D01*
X156041234Y-92768120D01*
X155980824Y-92858530D01*
X155939213Y-92958988D01*
X155918000Y-93065633D01*
X139568435Y-93065633D01*
X139568838Y-92369000D01*
X165771001Y-92369000D01*
X165771001Y-93368918D01*
G04 #@! TD*
M02*
