G04 #@! TF.GenerationSoftware,KiCad,Pcbnew,(5.1.6)-1*
G04 #@! TF.CreationDate,2021-09-25T22:06:40+02:00*
G04 #@! TF.ProjectId,nrfmodule,6e72666d-6f64-4756-9c65-2e6b69636164,rev?*
G04 #@! TF.SameCoordinates,Original*
G04 #@! TF.FileFunction,Copper,L4,Bot*
G04 #@! TF.FilePolarity,Positive*
%FSLAX46Y46*%
G04 Gerber Fmt 4.6, Leading zero omitted, Abs format (unit mm)*
G04 Created by KiCad (PCBNEW (5.1.6)-1) date 2021-09-25 22:06:40*
%MOMM*%
%LPD*%
G01*
G04 APERTURE LIST*
G04 #@! TA.AperFunction,EtchedComponent*
%ADD10C,0.002000*%
G04 #@! TD*
G04 #@! TA.AperFunction,SMDPad,CuDef*
%ADD11R,0.625000X0.400000*%
G04 #@! TD*
G04 #@! TA.AperFunction,SMDPad,CuDef*
%ADD12R,0.550000X0.600000*%
G04 #@! TD*
G04 #@! TA.AperFunction,SMDPad,CuDef*
%ADD13R,1.020000X1.470000*%
G04 #@! TD*
G04 #@! TA.AperFunction,SMDPad,CuDef*
%ADD14R,0.465000X0.440000*%
G04 #@! TD*
G04 #@! TA.AperFunction,SMDPad,CuDef*
%ADD15R,0.460000X0.420000*%
G04 #@! TD*
G04 #@! TA.AperFunction,SMDPad,CuDef*
%ADD16R,0.470000X0.440000*%
G04 #@! TD*
G04 #@! TA.AperFunction,SMDPad,CuDef*
%ADD17R,0.440000X0.470000*%
G04 #@! TD*
G04 #@! TA.AperFunction,ComponentPad*
%ADD18R,1.725000X1.725000*%
G04 #@! TD*
G04 #@! TA.AperFunction,SMDPad,CuDef*
%ADD19R,0.800000X0.800000*%
G04 #@! TD*
G04 #@! TA.AperFunction,SMDPad,CuDef*
%ADD20R,0.300000X0.300000*%
G04 #@! TD*
G04 #@! TA.AperFunction,SMDPad,CuDef*
%ADD21R,0.300000X0.540000*%
G04 #@! TD*
G04 #@! TA.AperFunction,SMDPad,CuDef*
%ADD22R,0.540000X0.540000*%
G04 #@! TD*
G04 #@! TA.AperFunction,SMDPad,CuDef*
%ADD23R,0.540000X0.300000*%
G04 #@! TD*
G04 #@! TA.AperFunction,SMDPad,CuDef*
%ADD24C,0.226000*%
G04 #@! TD*
G04 #@! TA.AperFunction,ComponentPad*
%ADD25C,1.067000*%
G04 #@! TD*
G04 #@! TA.AperFunction,ComponentPad*
%ADD26C,0.813000*%
G04 #@! TD*
G04 #@! TA.AperFunction,ViaPad*
%ADD27R,1.016000X1.016000*%
G04 #@! TD*
G04 #@! TA.AperFunction,ViaPad*
%ADD28C,0.450000*%
G04 #@! TD*
G04 #@! TA.AperFunction,ViaPad*
%ADD29C,0.800000*%
G04 #@! TD*
G04 #@! TA.AperFunction,Conductor*
%ADD30C,0.254000*%
G04 #@! TD*
G04 #@! TA.AperFunction,Conductor*
%ADD31C,0.127000*%
G04 #@! TD*
G04 #@! TA.AperFunction,Conductor*
%ADD32C,0.101600*%
G04 #@! TD*
G04 #@! TA.AperFunction,Conductor*
%ADD33C,0.508000*%
G04 #@! TD*
G04 #@! TA.AperFunction,Conductor*
%ADD34C,0.200000*%
G04 #@! TD*
G04 APERTURE END LIST*
D10*
G04 #@! TO.C,Edge_Connect1*
G36*
X146147000Y-110024000D02*
G01*
X146147000Y-108756000D01*
X145133000Y-108756000D01*
X145133000Y-110024000D01*
X146147000Y-110024000D01*
G37*
X146147000Y-110024000D02*
X146147000Y-108756000D01*
X145133000Y-108756000D01*
X145133000Y-110024000D01*
X146147000Y-110024000D01*
G36*
X147417000Y-110024000D02*
G01*
X147417000Y-108756000D01*
X146403000Y-108756000D01*
X146403000Y-110024000D01*
X147417000Y-110024000D01*
G37*
X147417000Y-110024000D02*
X147417000Y-108756000D01*
X146403000Y-108756000D01*
X146403000Y-110024000D01*
X147417000Y-110024000D01*
G36*
X148687000Y-110024000D02*
G01*
X148687000Y-108756000D01*
X147673000Y-108756000D01*
X147673000Y-110024000D01*
X148687000Y-110024000D01*
G37*
X148687000Y-110024000D02*
X148687000Y-108756000D01*
X147673000Y-108756000D01*
X147673000Y-110024000D01*
X148687000Y-110024000D01*
G36*
X149957000Y-110024000D02*
G01*
X149957000Y-108756000D01*
X148943000Y-108756000D01*
X148943000Y-110024000D01*
X149957000Y-110024000D01*
G37*
X149957000Y-110024000D02*
X149957000Y-108756000D01*
X148943000Y-108756000D01*
X148943000Y-110024000D01*
X149957000Y-110024000D01*
G36*
X151227000Y-110024000D02*
G01*
X151227000Y-108756000D01*
X150213000Y-108756000D01*
X150213000Y-110024000D01*
X151227000Y-110024000D01*
G37*
X151227000Y-110024000D02*
X151227000Y-108756000D01*
X150213000Y-108756000D01*
X150213000Y-110024000D01*
X151227000Y-110024000D01*
G36*
X152497000Y-110024000D02*
G01*
X152497000Y-108756000D01*
X151483000Y-108756000D01*
X151483000Y-110024000D01*
X152497000Y-110024000D01*
G37*
X152497000Y-110024000D02*
X152497000Y-108756000D01*
X151483000Y-108756000D01*
X151483000Y-110024000D01*
X152497000Y-110024000D01*
G36*
X153767000Y-110024000D02*
G01*
X153767000Y-108756000D01*
X152753000Y-108756000D01*
X152753000Y-110024000D01*
X153767000Y-110024000D01*
G37*
X153767000Y-110024000D02*
X153767000Y-108756000D01*
X152753000Y-108756000D01*
X152753000Y-110024000D01*
X153767000Y-110024000D01*
G36*
X155037000Y-110024000D02*
G01*
X155037000Y-108756000D01*
X154023000Y-108756000D01*
X154023000Y-110024000D01*
X155037000Y-110024000D01*
G37*
X155037000Y-110024000D02*
X155037000Y-108756000D01*
X154023000Y-108756000D01*
X154023000Y-110024000D01*
X155037000Y-110024000D01*
G36*
X156307000Y-110024000D02*
G01*
X156307000Y-108756000D01*
X155293000Y-108756000D01*
X155293000Y-110024000D01*
X156307000Y-110024000D01*
G37*
X156307000Y-110024000D02*
X156307000Y-108756000D01*
X155293000Y-108756000D01*
X155293000Y-110024000D01*
X156307000Y-110024000D01*
G36*
X157577000Y-110024000D02*
G01*
X157577000Y-108756000D01*
X156563000Y-108756000D01*
X156563000Y-110024000D01*
X157577000Y-110024000D01*
G37*
X157577000Y-110024000D02*
X157577000Y-108756000D01*
X156563000Y-108756000D01*
X156563000Y-110024000D01*
X157577000Y-110024000D01*
G36*
X158847000Y-110024000D02*
G01*
X158847000Y-108756000D01*
X157833000Y-108756000D01*
X157833000Y-110024000D01*
X158847000Y-110024000D01*
G37*
X158847000Y-110024000D02*
X158847000Y-108756000D01*
X157833000Y-108756000D01*
X157833000Y-110024000D01*
X158847000Y-110024000D01*
G36*
X160117000Y-110024000D02*
G01*
X160117000Y-108756000D01*
X159103000Y-108756000D01*
X159103000Y-110024000D01*
X160117000Y-110024000D01*
G37*
X160117000Y-110024000D02*
X160117000Y-108756000D01*
X159103000Y-108756000D01*
X159103000Y-110024000D01*
X160117000Y-110024000D01*
G36*
X161387000Y-110024000D02*
G01*
X161387000Y-108756000D01*
X160373000Y-108756000D01*
X160373000Y-110024000D01*
X161387000Y-110024000D01*
G37*
X161387000Y-110024000D02*
X161387000Y-108756000D01*
X160373000Y-108756000D01*
X160373000Y-110024000D01*
X161387000Y-110024000D01*
G36*
X162657000Y-110024000D02*
G01*
X162657000Y-108756000D01*
X161643000Y-108756000D01*
X161643000Y-110024000D01*
X162657000Y-110024000D01*
G37*
X162657000Y-110024000D02*
X162657000Y-108756000D01*
X161643000Y-108756000D01*
X161643000Y-110024000D01*
X162657000Y-110024000D01*
G04 #@! TD*
D11*
G04 #@! TO.P,R5,2*
G04 #@! TO.N,Net-(100nF4-Pad1)*
X157470000Y-107430000D03*
G04 #@! TO.P,R5,1*
G04 #@! TO.N,NRESET*
X158294000Y-107430000D03*
G04 #@! TD*
D12*
G04 #@! TO.P,FL1,2*
G04 #@! TO.N,VCC*
X158920000Y-92780000D03*
G04 #@! TO.P,FL1,1*
X160220000Y-92780000D03*
G04 #@! TD*
D13*
G04 #@! TO.P,47uF2,2*
G04 #@! TO.N,GND*
X159740000Y-107150000D03*
G04 #@! TO.P,47uF2,1*
G04 #@! TO.N,VCC*
X161360000Y-107150000D03*
G04 #@! TD*
G04 #@! TO.P,47uF1,2*
G04 #@! TO.N,GND*
X155070000Y-93580000D03*
G04 #@! TO.P,47uF1,1*
G04 #@! TO.N,VCC*
X156690000Y-93580000D03*
G04 #@! TD*
D14*
G04 #@! TO.P,4.7uF4,2*
G04 #@! TO.N,GND*
X164190000Y-102900000D03*
G04 #@! TO.P,4.7uF4,1*
G04 #@! TO.N,Net-(4.7uF4-Pad1)*
X163526000Y-102900000D03*
G04 #@! TD*
D15*
G04 #@! TO.P,15pF2,2*
G04 #@! TO.N,GND*
X163260000Y-106520000D03*
G04 #@! TO.P,15pF2,1*
G04 #@! TO.N,VCC*
X162600000Y-106520000D03*
G04 #@! TD*
G04 #@! TO.P,15pF1,2*
G04 #@! TO.N,GND*
X159060000Y-93730000D03*
G04 #@! TO.P,15pF1,1*
G04 #@! TO.N,VCC*
X158400000Y-93730000D03*
G04 #@! TD*
G04 #@! TO.P,100nF4,2*
G04 #@! TO.N,GND*
X157750000Y-106590000D03*
G04 #@! TO.P,100nF4,1*
G04 #@! TO.N,Net-(100nF4-Pad1)*
X157090000Y-106590000D03*
G04 #@! TD*
G04 #@! TO.P,100nF3,2*
G04 #@! TO.N,GND*
X164310000Y-101760000D03*
G04 #@! TO.P,100nF3,1*
G04 #@! TO.N,+1V8*
X163650000Y-101760000D03*
G04 #@! TD*
G04 #@! TO.P,100nF2,2*
G04 #@! TO.N,GND*
X163270000Y-107250000D03*
G04 #@! TO.P,100nF2,1*
G04 #@! TO.N,VCC*
X162610000Y-107250000D03*
G04 #@! TD*
G04 #@! TO.P,100nF1,2*
G04 #@! TO.N,GND*
X158430000Y-94480000D03*
G04 #@! TO.P,100nF1,1*
G04 #@! TO.N,VCC*
X157770000Y-94480000D03*
G04 #@! TD*
D16*
G04 #@! TO.P,0\u002C1uF1,2*
G04 #@! TO.N,GND*
X163615000Y-100200000D03*
G04 #@! TO.P,0\u002C1uF1,1*
G04 #@! TO.N,VCC*
X164285000Y-100200000D03*
G04 #@! TD*
G04 #@! TO.P,0\u002C1uF2,2*
G04 #@! TO.N,GND*
X164280000Y-96430000D03*
G04 #@! TO.P,0\u002C1uF2,1*
G04 #@! TO.N,+1V8*
X163610000Y-96430000D03*
G04 #@! TD*
D11*
G04 #@! TO.P,10KOhm1,2*
G04 #@! TO.N,Net-(10KOhm1-Pad2)*
X161034000Y-94360000D03*
G04 #@! TO.P,10KOhm1,1*
G04 #@! TO.N,VCC*
X160210000Y-94360000D03*
G04 #@! TD*
D17*
G04 #@! TO.P,1uF5,2*
G04 #@! TO.N,SIM1.8v*
X147390000Y-107450000D03*
G04 #@! TO.P,1uF5,1*
G04 #@! TO.N,GND*
X147390000Y-106780000D03*
G04 #@! TD*
D14*
G04 #@! TO.P,4.7uF3,2*
G04 #@! TO.N,GND*
X164262000Y-100980000D03*
G04 #@! TO.P,4.7uF3,1*
G04 #@! TO.N,+1V8*
X163598000Y-100980000D03*
G04 #@! TD*
D18*
G04 #@! TO.P,5V+1,1*
G04 #@! TO.N,+5V*
X142030000Y-107360000D03*
G04 #@! TD*
G04 #@! TO.P,GND1,1*
G04 #@! TO.N,GND*
X142180000Y-93700000D03*
G04 #@! TD*
D19*
G04 #@! TO.P,NRF91,103_35*
G04 #@! TO.N,GND*
X148750000Y-103700000D03*
G04 #@! TO.P,NRF91,103_34*
X150750000Y-103700000D03*
G04 #@! TO.P,NRF91,103_33*
X152750000Y-103700000D03*
G04 #@! TO.P,NRF91,103_32*
X154750000Y-103700000D03*
G04 #@! TO.P,NRF91,103_31*
X156750000Y-103700000D03*
G04 #@! TO.P,NRF91,103_30*
X158750000Y-103700000D03*
G04 #@! TO.P,NRF91,103_28*
X148750000Y-102100000D03*
G04 #@! TO.P,NRF91,103_27*
X150750000Y-102100000D03*
G04 #@! TO.P,NRF91,103_26*
X152750000Y-102100000D03*
G04 #@! TO.P,NRF91,103_25*
X154750000Y-102100000D03*
G04 #@! TO.P,NRF91,103_24*
X156750000Y-102100000D03*
G04 #@! TO.P,NRF91,103_23*
X158750000Y-102100000D03*
G04 #@! TO.P,NRF91,103_21*
X148750000Y-100500000D03*
G04 #@! TO.P,NRF91,103_20*
X150750000Y-100500000D03*
G04 #@! TO.P,NRF91,103_19*
X152750000Y-100500000D03*
G04 #@! TO.P,NRF91,103_18*
X154750000Y-100500000D03*
G04 #@! TO.P,NRF91,103_17*
X156750000Y-100500000D03*
G04 #@! TO.P,NRF91,103_16*
X158750000Y-100500000D03*
G04 #@! TO.P,NRF91,103_14*
X148750000Y-98900000D03*
G04 #@! TO.P,NRF91,103_13*
X150750000Y-98900000D03*
G04 #@! TO.P,NRF91,103_12*
X152750000Y-98900000D03*
G04 #@! TO.P,NRF91,103_11*
X154750000Y-98900000D03*
G04 #@! TO.P,NRF91,103_10*
X156750000Y-98900000D03*
G04 #@! TO.P,NRF91,103_9*
X158750000Y-98900000D03*
D20*
G04 #@! TO.P,NRF91,115*
G04 #@! TO.N,Net-(NRF91-Pad10)*
X150000000Y-104850000D03*
G04 #@! TO.P,NRF91,114*
X150500000Y-104850000D03*
G04 #@! TO.P,NRF91,113*
X151000000Y-104850000D03*
G04 #@! TO.P,NRF91,112*
X151500000Y-104850000D03*
G04 #@! TO.P,NRF91,111*
X155000000Y-104850000D03*
G04 #@! TO.P,NRF91,110*
X155500000Y-104850000D03*
G04 #@! TO.P,NRF91,109*
X156000000Y-104850000D03*
G04 #@! TO.P,NRF91,108*
X156500000Y-104850000D03*
G04 #@! TO.P,NRF91,104*
X160500000Y-104850000D03*
G04 #@! TO.P,NRF91,105*
X160000000Y-104850000D03*
G04 #@! TO.P,NRF91,106*
X159500000Y-104850000D03*
G04 #@! TO.P,NRF91,107*
X159000000Y-104850000D03*
G04 #@! TO.P,NRF91,116*
X150000000Y-96150000D03*
G04 #@! TO.P,NRF91,117*
X150500000Y-96150000D03*
G04 #@! TO.P,NRF91,118*
X151000000Y-96150000D03*
G04 #@! TO.P,NRF91,119*
X151500000Y-96150000D03*
G04 #@! TO.P,NRF91,120*
X155000000Y-96150000D03*
G04 #@! TO.P,NRF91,121*
X155500000Y-96150000D03*
G04 #@! TO.P,NRF91,122*
X156000000Y-96150000D03*
G04 #@! TO.P,NRF91,123*
X156500000Y-96150000D03*
G04 #@! TO.P,NRF91,127*
X160500000Y-96150000D03*
G04 #@! TO.P,NRF91,126*
X160000000Y-96150000D03*
G04 #@! TO.P,NRF91,125*
X159500000Y-96150000D03*
G04 #@! TO.P,NRF91,124*
X159000000Y-96150000D03*
D19*
G04 #@! TO.P,NRF91,103_7*
G04 #@! TO.N,GND*
X148750000Y-97300000D03*
G04 #@! TO.P,NRF91,103_6*
X150750000Y-97300000D03*
G04 #@! TO.P,NRF91,103_5*
X152750000Y-97300000D03*
G04 #@! TO.P,NRF91,103_29*
X160750000Y-103700000D03*
G04 #@! TO.P,NRF91,103_22*
X160750000Y-102100000D03*
G04 #@! TO.P,NRF91,103_1*
X160750000Y-97300000D03*
G04 #@! TO.P,NRF91,103_8*
X160750000Y-98900000D03*
G04 #@! TO.P,NRF91,103_15*
X160750000Y-100500000D03*
G04 #@! TO.P,NRF91,103_2*
X158750000Y-97300000D03*
G04 #@! TO.P,NRF91,103_3*
X156750000Y-97300000D03*
G04 #@! TO.P,NRF91,103_4*
X154750000Y-97300000D03*
D21*
G04 #@! TO.P,NRF91,102*
G04 #@! TO.N,VCC*
X162000000Y-95380000D03*
G04 #@! TO.P,NRF91,101*
G04 #@! TO.N,Net-(10KOhm1-Pad2)*
X161500000Y-95380000D03*
G04 #@! TO.P,NRF91,100*
G04 #@! TO.N,Net-(NRF91-Pad100)*
X161000000Y-95380000D03*
G04 #@! TO.P,NRF91,99*
G04 #@! TO.N,Net-(NRF91-Pad99)*
X160500000Y-95380000D03*
G04 #@! TO.P,NRF91,98*
G04 #@! TO.N,GND*
X160000000Y-95380000D03*
G04 #@! TO.P,NRF91,97*
G04 #@! TO.N,Net-(NRF91-Pad97)*
X159500000Y-95380000D03*
G04 #@! TO.P,NRF91,96*
G04 #@! TO.N,TX2*
X159000000Y-95380000D03*
G04 #@! TO.P,NRF91,95*
G04 #@! TO.N,RX2*
X158500000Y-95380000D03*
G04 #@! TO.P,NRF91,94*
G04 #@! TO.N,GND*
X158000000Y-95380000D03*
G04 #@! TO.P,NRF91,93*
G04 #@! TO.N,Net-(NRF91-Pad93)*
X157500000Y-95380000D03*
G04 #@! TO.P,NRF91,92*
G04 #@! TO.N,Net-(NRF91-Pad92)*
X157000000Y-95380000D03*
G04 #@! TO.P,NRF91,91*
G04 #@! TO.N,Net-(NRF91-Pad91)*
X156500000Y-95380000D03*
G04 #@! TO.P,NRF91,90*
G04 #@! TO.N,GND*
X156000000Y-95380000D03*
G04 #@! TO.P,NRF91,89*
G04 #@! TO.N,Net-(NRF91-Pad89)*
X155500000Y-95380000D03*
G04 #@! TO.P,NRF91,88*
G04 #@! TO.N,Net-(NRF91-Pad88)*
X155000000Y-95380000D03*
G04 #@! TO.P,NRF91,87*
G04 #@! TO.N,TX1*
X154500000Y-95380000D03*
G04 #@! TO.P,NRF91,86*
G04 #@! TO.N,RX1*
X154000000Y-95380000D03*
G04 #@! TO.P,NRF91,85*
G04 #@! TO.N,GND*
X153500000Y-95380000D03*
G04 #@! TO.P,NRF91,84*
G04 #@! TO.N,Net-(NRF91-Pad84)*
X153000000Y-95380000D03*
G04 #@! TO.P,NRF91,83*
G04 #@! TO.N,Net-(NRF91-Pad83)*
X152500000Y-95380000D03*
G04 #@! TO.P,NRF91,82*
G04 #@! TO.N,GND*
X152000000Y-95380000D03*
G04 #@! TO.P,NRF91,81*
X151500000Y-95380000D03*
G04 #@! TO.P,NRF91,80*
X151000000Y-95380000D03*
G04 #@! TO.P,NRF91,79*
X150500000Y-95380000D03*
G04 #@! TO.P,NRF91,78*
X150000000Y-95380000D03*
G04 #@! TO.P,NRF91,77*
X149500000Y-95380000D03*
G04 #@! TO.P,NRF91,76*
X149000000Y-95380000D03*
G04 #@! TO.P,NRF91,75*
X148500000Y-95380000D03*
G04 #@! TO.P,NRF91,74*
X148000000Y-95380000D03*
G04 #@! TO.P,NRF91,73*
G04 #@! TO.N,Net-(NRF91-Pad10)*
X147500000Y-95380000D03*
D22*
G04 #@! TO.P,NRF91,72*
G04 #@! TO.N,GND*
X146880000Y-95380000D03*
D23*
G04 #@! TO.P,NRF91,71*
G04 #@! TO.N,Net-(NRF91-Pad10)*
X146880000Y-96000000D03*
G04 #@! TO.P,NRF91,70*
X146880000Y-96500000D03*
G04 #@! TO.P,NRF91,69*
X146880000Y-97000000D03*
G04 #@! TO.P,NRF91,68*
X146880000Y-97500000D03*
G04 #@! TO.P,NRF91,67*
G04 #@! TO.N,Net-(NRF91-Pad67)*
X146880000Y-98000000D03*
G04 #@! TO.P,NRF91,66*
G04 #@! TO.N,GND*
X146880000Y-98500000D03*
G04 #@! TO.P,NRF91,65*
X146880000Y-99000000D03*
G04 #@! TO.P,NRF91,64*
G04 #@! TO.N,Net-(NRF91-Pad64)*
X146880000Y-99500000D03*
G04 #@! TO.P,NRF91,63*
G04 #@! TO.N,GND*
X146880000Y-100000000D03*
G04 #@! TO.P,NRF91,62*
X146880000Y-100500000D03*
G04 #@! TO.P,NRF91,61*
G04 #@! TO.N,Net-(NRF91-Pad61)*
X146880000Y-101000000D03*
G04 #@! TO.P,NRF91,60*
G04 #@! TO.N,GND*
X146880000Y-101500000D03*
G04 #@! TO.P,NRF91,59*
G04 #@! TO.N,Net-(NRF91-Pad59)*
X146880000Y-102000000D03*
G04 #@! TO.P,NRF91,58*
G04 #@! TO.N,Net-(NRF91-Pad58)*
X146880000Y-102500000D03*
G04 #@! TO.P,NRF91,57*
G04 #@! TO.N,Net-(NRF91-Pad57)*
X146880000Y-103000000D03*
G04 #@! TO.P,NRF91,56*
G04 #@! TO.N,GND*
X146880000Y-103500000D03*
G04 #@! TO.P,NRF91,55*
G04 #@! TO.N,Net-(NRF91-Pad55)*
X146880000Y-104000000D03*
G04 #@! TO.P,NRF91,54*
G04 #@! TO.N,Net-(NRF91-Pad54)*
X146880000Y-104500000D03*
G04 #@! TO.P,NRF91,53*
G04 #@! TO.N,Net-(NRF91-Pad53)*
X146880000Y-105000000D03*
D22*
G04 #@! TO.P,NRF91,52*
G04 #@! TO.N,GND*
X146880000Y-105620000D03*
D21*
G04 #@! TO.P,NRF91,51*
G04 #@! TO.N,Net-(NRF91-Pad10)*
X147500000Y-105620000D03*
G04 #@! TO.P,NRF91,50*
G04 #@! TO.N,GND*
X148000000Y-105620000D03*
G04 #@! TO.P,NRF91,49*
G04 #@! TO.N,SIM1.8v*
X148500000Y-105620000D03*
G04 #@! TO.P,NRF91,48*
G04 #@! TO.N,DATSIM*
X149000000Y-105620000D03*
G04 #@! TO.P,NRF91,47*
G04 #@! TO.N,GND*
X149500000Y-105620000D03*
G04 #@! TO.P,NRF91,46*
G04 #@! TO.N,CLKSIM*
X150000000Y-105620000D03*
G04 #@! TO.P,NRF91,45*
G04 #@! TO.N,Net-(NRF91-Pad45)*
X150500000Y-105620000D03*
G04 #@! TO.P,NRF91,44*
G04 #@! TO.N,GND*
X151000000Y-105620000D03*
G04 #@! TO.P,NRF91,43*
G04 #@! TO.N,RSTSIM*
X151500000Y-105620000D03*
G04 #@! TO.P,NRF91,42*
G04 #@! TO.N,Net-(NRF91-Pad42)*
X152000000Y-105620000D03*
G04 #@! TO.P,NRF91,41*
G04 #@! TO.N,GND*
X152500000Y-105620000D03*
G04 #@! TO.P,NRF91,40*
G04 #@! TO.N,Net-(NRF91-Pad40)*
X153000000Y-105620000D03*
G04 #@! TO.P,NRF91,39*
G04 #@! TO.N,Net-(NRF91-Pad39)*
X153500000Y-105620000D03*
G04 #@! TO.P,NRF91,38*
G04 #@! TO.N,SWO*
X154000000Y-105620000D03*
G04 #@! TO.P,NRF91,37*
G04 #@! TO.N,Net-(NRF91-Pad37)*
X154500000Y-105620000D03*
G04 #@! TO.P,NRF91,36*
G04 #@! TO.N,GND*
X155000000Y-105620000D03*
G04 #@! TO.P,NRF91,35*
G04 #@! TO.N,Net-(NRF91-Pad35)*
X155500000Y-105620000D03*
G04 #@! TO.P,NRF91,34*
G04 #@! TO.N,SWDIO*
X156000000Y-105620000D03*
G04 #@! TO.P,NRF91,33*
G04 #@! TO.N,SWDCLK*
X156500000Y-105620000D03*
G04 #@! TO.P,NRF91,32*
G04 #@! TO.N,Net-(100nF4-Pad1)*
X157000000Y-105620000D03*
G04 #@! TO.P,NRF91,31*
G04 #@! TO.N,GND*
X157500000Y-105620000D03*
G04 #@! TO.P,NRF91,30*
G04 #@! TO.N,Net-(NRF91-Pad30)*
X158000000Y-105620000D03*
G04 #@! TO.P,NRF91,29*
G04 #@! TO.N,Net-(NRF91-Pad29)*
X158500000Y-105620000D03*
G04 #@! TO.P,NRF91,28*
G04 #@! TO.N,Net-(NRF91-Pad28)*
X159000000Y-105620000D03*
G04 #@! TO.P,NRF91,27*
G04 #@! TO.N,GND*
X159500000Y-105620000D03*
G04 #@! TO.P,NRF91,26*
G04 #@! TO.N,Net-(NRF91-Pad26)*
X160000000Y-105620000D03*
G04 #@! TO.P,NRF91,25*
G04 #@! TO.N,Net-(NRF91-Pad25)*
X160500000Y-105620000D03*
G04 #@! TO.P,NRF91,24*
G04 #@! TO.N,Net-(NRF91-Pad24)*
X161000000Y-105620000D03*
G04 #@! TO.P,NRF91,23*
G04 #@! TO.N,Net-(NRF91-Pad23)*
X161500000Y-105620000D03*
G04 #@! TO.P,NRF91,22*
G04 #@! TO.N,VCC*
X162000000Y-105620000D03*
D22*
G04 #@! TO.P,NRF91,21*
G04 #@! TO.N,GND*
X162620000Y-105620000D03*
D23*
G04 #@! TO.P,NRF91,20*
G04 #@! TO.N,TXNRF1.8v*
X162620000Y-105000000D03*
G04 #@! TO.P,NRF91,19*
G04 #@! TO.N,RXNRF1.8v*
X162620000Y-104500000D03*
G04 #@! TO.P,NRF91,18*
G04 #@! TO.N,Net-(NRF91-Pad18)*
X162620000Y-104000000D03*
G04 #@! TO.P,NRF91,17*
G04 #@! TO.N,GND*
X162620000Y-103500000D03*
G04 #@! TO.P,NRF91,16*
G04 #@! TO.N,Net-(NRF91-Pad16)*
X162620000Y-103000000D03*
G04 #@! TO.P,NRF91,15*
G04 #@! TO.N,Net-(NRF91-Pad15)*
X162620000Y-102500000D03*
G04 #@! TO.P,NRF91,14*
G04 #@! TO.N,GND*
X162620000Y-102000000D03*
G04 #@! TO.P,NRF91,13*
G04 #@! TO.N,Net-(4.7uF4-Pad1)*
X162620000Y-101500000D03*
G04 #@! TO.P,NRF91,12*
G04 #@! TO.N,+1V8*
X162620000Y-101000000D03*
G04 #@! TO.P,NRF91,11*
G04 #@! TO.N,Net-(NRF91-Pad10)*
X162620000Y-100500000D03*
G04 #@! TO.P,NRF91,10*
X162620000Y-100000000D03*
G04 #@! TO.P,NRF91,9*
G04 #@! TO.N,GND*
X162620000Y-99500000D03*
G04 #@! TO.P,NRF91,8*
G04 #@! TO.N,Net-(NRF91-Pad10)*
X162620000Y-99000000D03*
G04 #@! TO.P,NRF91,7*
X162620000Y-98500000D03*
G04 #@! TO.P,NRF91,6*
X162620000Y-98000000D03*
G04 #@! TO.P,NRF91,5*
G04 #@! TO.N,GND*
X162620000Y-97500000D03*
G04 #@! TO.P,NRF91,4*
G04 #@! TO.N,Net-(NRF91-Pad4)*
X162620000Y-97000000D03*
G04 #@! TO.P,NRF91,3*
G04 #@! TO.N,Net-(NRF91-Pad3)*
X162620000Y-96500000D03*
G04 #@! TO.P,NRF91,2*
G04 #@! TO.N,Net-(NRF91-Pad2)*
X162620000Y-96000000D03*
D22*
G04 #@! TO.P,NRF91,1*
G04 #@! TO.N,GND*
X162620000Y-95380000D03*
G04 #@! TD*
D18*
G04 #@! TO.P,RX1,1*
G04 #@! TO.N,RXNRF*
X165060000Y-106460000D03*
G04 #@! TD*
G04 #@! TO.P,TX1,1*
G04 #@! TO.N,TXNRF*
X165000000Y-94560000D03*
G04 #@! TD*
D24*
G04 #@! TO.P,TXB102,D2*
G04 #@! TO.N,RXNRF1.8v*
X163930000Y-99060000D03*
G04 #@! TO.P,TXB102,D1*
G04 #@! TO.N,TXNRF1.8v*
X164430000Y-99060000D03*
G04 #@! TO.P,TXB102,C2*
G04 #@! TO.N,+1V8*
X163930000Y-98560000D03*
G04 #@! TO.P,TXB102,C1*
X164430000Y-98560000D03*
G04 #@! TO.P,TXB102,B2*
G04 #@! TO.N,VCC*
X163930000Y-98060000D03*
G04 #@! TO.P,TXB102,B1*
G04 #@! TO.N,GND*
X164430000Y-98060000D03*
G04 #@! TO.P,TXB102,A2*
G04 #@! TO.N,RXNRF*
X163930000Y-97560000D03*
G04 #@! TO.P,TXB102,A1*
G04 #@! TO.N,TXNRF*
X164430000Y-97560000D03*
G04 #@! TD*
D25*
G04 #@! TO.P,Edge_Connect1,18*
G04 #@! TO.N,N/C*
X144370000Y-108399000D03*
D26*
G04 #@! TO.P,Edge_Connect1,17*
X142871000Y-109390000D03*
G04 #@! TO.P,Edge_Connect1,16*
X164182000Y-109390000D03*
D25*
G04 #@! TO.P,Edge_Connect1,15*
X163420000Y-108399000D03*
D27*
G04 #@! TD*
G04 #@! TO.N,GND*
G04 #@! TO.C,Edge_Connect1*
X145640000Y-109390000D03*
G04 #@! TO.N,Net-(Edge_Connect1-Pad13)*
G04 #@! TO.C,Edge_Connect1*
X146910000Y-109390000D03*
G04 #@! TO.N,Net-(Edge_Connect1-Pad12)*
X148180000Y-109390000D03*
G04 #@! TO.N,Net-(Edge_Connect1-Pad11)*
X149450000Y-109390000D03*
G04 #@! TO.N,TX2*
X150720000Y-109390000D03*
G04 #@! TO.N,RX2*
X151990000Y-109390000D03*
G04 #@! TO.N,TX1*
X153260000Y-109390000D03*
G04 #@! TO.N,RX1*
X154530000Y-109390000D03*
G04 #@! TO.N,SWO*
X155800000Y-109390000D03*
G04 #@! TO.N,SWDIO*
X157070000Y-109390000D03*
G04 #@! TO.N,SWDCLK*
X158340000Y-109390000D03*
G04 #@! TO.N,NRESET*
X159610000Y-109390000D03*
G04 #@! TO.N,+1V8*
X160880000Y-109390000D03*
G04 #@! TO.N,VCC*
X162150000Y-109390000D03*
G04 #@! TD*
D28*
G04 #@! TO.N,GND*
X159760000Y-107900000D03*
G04 #@! TO.N,VCC*
X156470000Y-93120000D03*
D29*
X140280000Y-102000000D03*
X140300000Y-101090000D03*
X140250000Y-99670000D03*
X140260000Y-98770000D03*
G04 #@! TO.N,GND*
X147790000Y-99350000D03*
X144720000Y-99400000D03*
X143050000Y-101920000D03*
X143100000Y-100980000D03*
X143030000Y-99640000D03*
X143030000Y-98710000D03*
D28*
X151100000Y-103650000D03*
D29*
X153390000Y-92760000D03*
X147290000Y-93630000D03*
X144320000Y-93580000D03*
X156700000Y-101720000D03*
X158750000Y-102150000D03*
D28*
X164340000Y-100970000D03*
D29*
X158770000Y-100400000D03*
X158730000Y-98850000D03*
X158740000Y-97370000D03*
X160770000Y-97320000D03*
X160770000Y-98900000D03*
X160750000Y-100470000D03*
X160760000Y-102100000D03*
X152750000Y-98880000D03*
X154780000Y-98890000D03*
X141930000Y-104100000D03*
X141920000Y-104960000D03*
D28*
X157180000Y-104730000D03*
X153000000Y-106410000D03*
D29*
X139890000Y-94600000D03*
X150580000Y-93860000D03*
X162850000Y-95100000D03*
X165410000Y-108730000D03*
X139890000Y-108710000D03*
X139960000Y-106290000D03*
X140430000Y-104900000D03*
X144570000Y-106910000D03*
X149630000Y-100300000D03*
D28*
X154970000Y-106330000D03*
D29*
X139980000Y-92700000D03*
X145740000Y-92810000D03*
X149090000Y-92740000D03*
X165330000Y-92740000D03*
D28*
X149060000Y-106620000D03*
X146880000Y-105620000D03*
X150800000Y-107240000D03*
X165260000Y-95870000D03*
X143050000Y-97620000D03*
X140020000Y-97290000D03*
X159340000Y-93700000D03*
G04 #@! TO.N,VCC*
X164290000Y-100190000D03*
X163642001Y-98030000D03*
X156690000Y-93580000D03*
X156940000Y-93990000D03*
X162150000Y-108150000D03*
G04 #@! TO.N,+1V8*
X140690000Y-95810000D03*
X140000000Y-95820000D03*
X163550000Y-96490000D03*
G04 #@! TO.N,SIM1.8v*
X147980000Y-106315002D03*
X147238989Y-107475769D03*
G04 #@! TO.N,TX2*
X145290000Y-102680000D03*
X159085002Y-94651186D03*
G04 #@! TO.N,RX2*
X146000000Y-101840000D03*
X158415496Y-95981870D03*
G04 #@! TO.N,TX1*
X155880000Y-98000000D03*
G04 #@! TO.N,RX1*
X153697910Y-98206828D03*
X153699675Y-100166134D03*
X153054302Y-104855002D03*
X152330244Y-107111059D03*
G04 #@! TO.N,Net-(NRF91-Pad61)*
X145800000Y-96570000D03*
G04 #@! TO.N,DATSIM*
X149447907Y-102881208D03*
G04 #@! TO.N,CLKSIM*
X149923707Y-103626168D03*
X149580000Y-101270000D03*
X149990000Y-107120814D03*
G04 #@! TO.N,RSTSIM*
X149962699Y-104275000D03*
X152104351Y-104729349D03*
X151643240Y-106971085D03*
G04 #@! TO.N,RXNRF*
X164160000Y-97075002D03*
G04 #@! TO.N,Net-(NRF91-Pad67)*
X146225000Y-97875000D03*
G04 #@! TO.N,+1V8*
X163650000Y-101760000D03*
G04 #@! TD*
D30*
G04 #@! TO.N,GND*
X151000000Y-105620000D02*
X151000000Y-106139627D01*
X151000000Y-106139627D02*
X150970414Y-106169213D01*
D31*
X160000000Y-95380000D02*
X160000000Y-94983000D01*
D32*
X159560803Y-94674745D02*
X159560803Y-94422801D01*
X159696859Y-94810801D02*
X159560803Y-94674745D01*
X159560803Y-94422801D02*
X159646699Y-94508697D01*
X159646699Y-94508697D02*
X159646699Y-94686699D01*
X159646699Y-94760641D02*
X159696859Y-94810801D01*
X159646699Y-94686699D02*
X159646699Y-94760641D01*
X160000000Y-95008558D02*
X160000000Y-95380000D01*
X159802243Y-94810801D02*
X160000000Y-95008558D01*
X159696859Y-94810801D02*
X159802243Y-94810801D01*
X159646699Y-94666699D02*
X159646699Y-94508697D01*
X159802243Y-94810801D02*
X159790801Y-94810801D01*
X159790801Y-94810801D02*
X159646699Y-94666699D01*
X158974615Y-94175385D02*
X158856617Y-94175385D01*
X159060000Y-93730000D02*
X159060000Y-94090000D01*
X159060000Y-94090000D02*
X158974615Y-94175385D01*
X158552002Y-94480000D02*
X158430000Y-94480000D01*
X158856617Y-94175385D02*
X158552002Y-94480000D01*
D30*
X158000000Y-95380000D02*
X158000000Y-95200000D01*
X158022999Y-95177001D02*
X158022999Y-95024672D01*
X158000000Y-95200000D02*
X158022999Y-95177001D01*
D32*
X158000000Y-95059199D02*
X158000000Y-95380000D01*
X158430000Y-94480000D02*
X158430000Y-94570000D01*
X158250801Y-94749199D02*
X158250801Y-94859199D01*
X158250801Y-94859199D02*
X158199999Y-94859199D01*
X158430000Y-94570000D02*
X158250801Y-94749199D01*
X158199999Y-94859199D02*
X158000000Y-95059199D01*
X158000000Y-95693180D02*
X157939695Y-95753485D01*
X158000000Y-95380000D02*
X158000000Y-95693180D01*
X157939695Y-95753485D02*
X157939695Y-95830305D01*
X157939695Y-95830305D02*
X157910000Y-95860000D01*
X157900801Y-95750801D02*
X157910000Y-95760000D01*
X157900801Y-95720801D02*
X157900801Y-95750801D01*
X157910000Y-95860000D02*
X157910000Y-95760000D01*
D30*
G04 #@! TO.N,VCC*
X164285000Y-100200000D02*
X164285000Y-100195000D01*
X164285000Y-100195000D02*
X164290000Y-100190000D01*
D32*
X163930000Y-98060000D02*
X163672001Y-98060000D01*
X163672001Y-98060000D02*
X163642001Y-98030000D01*
D33*
X156690000Y-93580000D02*
X156690000Y-93580000D01*
X157430000Y-94480000D02*
X157745999Y-94480000D01*
X156690000Y-93740000D02*
X156940000Y-93990000D01*
D30*
X157770000Y-94016000D02*
X158056000Y-93730000D01*
X158056000Y-93730000D02*
X158400000Y-93730000D01*
X157770000Y-94480000D02*
X157770000Y-94016000D01*
X158400000Y-93300000D02*
X158920000Y-92780000D01*
X158400000Y-93730000D02*
X158400000Y-93300000D01*
D33*
X156690000Y-93580000D02*
X156690000Y-93740000D01*
X156940000Y-93990000D02*
X157430000Y-94480000D01*
X162150000Y-108150000D02*
X162150000Y-107940000D01*
D30*
X162610000Y-107250000D02*
X162610000Y-106530000D01*
X162600000Y-106520000D02*
X162610000Y-106530000D01*
D33*
X162150000Y-107685999D02*
X162585999Y-107250000D01*
X162150000Y-108150000D02*
X162150000Y-107685999D01*
X161360000Y-107150000D02*
X162378000Y-107150000D01*
X162575999Y-106952001D02*
X162575999Y-106520000D01*
X162378000Y-107150000D02*
X162575999Y-106952001D01*
D32*
G04 #@! TO.N,+1V8*
X163780000Y-96400000D02*
X163566199Y-96613801D01*
D30*
X162640000Y-101020000D02*
X162620000Y-101000000D01*
X163578000Y-101000000D02*
X163598000Y-100980000D01*
X162620000Y-101000000D02*
X163578000Y-101000000D01*
X163489999Y-96550001D02*
X163550000Y-96490000D01*
X163598000Y-100980000D02*
X163598000Y-100980000D01*
X163550000Y-96490000D02*
X163610000Y-96430000D01*
D31*
X163153501Y-98463501D02*
X163250000Y-98560000D01*
X163153501Y-96568301D02*
X163153501Y-98463501D01*
X163550000Y-96490000D02*
X163231802Y-96490000D01*
X163250000Y-98560000D02*
X163930000Y-98560000D01*
X163231802Y-96490000D02*
X163153501Y-96568301D01*
X163930000Y-98560000D02*
X164430000Y-98560000D01*
D30*
G04 #@! TO.N,VCC*
X162010000Y-95370000D02*
X162000000Y-95380000D01*
G04 #@! TO.N,Net-(10KOhm1-Pad2)*
X161500000Y-94826000D02*
X161500000Y-95380000D01*
X161034000Y-94360000D02*
X161500000Y-94826000D01*
G04 #@! TO.N,SIM1.8v*
X147773602Y-107465000D02*
X147400000Y-107465000D01*
X148500000Y-105620000D02*
X148500000Y-106738602D01*
X148500000Y-106738602D02*
X147773602Y-107465000D01*
X148500000Y-106738602D02*
X148403600Y-106738602D01*
X148403600Y-106738602D02*
X147980000Y-106315002D01*
D32*
X147364231Y-107475769D02*
X147390000Y-107450000D01*
X147238989Y-107475769D02*
X147364231Y-107475769D01*
D31*
G04 #@! TO.N,TX2*
X146718818Y-108291279D02*
X146472992Y-108045452D01*
X150720000Y-109390000D02*
X150720000Y-108755000D01*
X150256279Y-108291279D02*
X146718818Y-108291279D01*
X150720000Y-108755000D02*
X150256279Y-108291279D01*
X145672990Y-103062990D02*
X145290000Y-102680000D01*
X146472992Y-108045452D02*
X145672990Y-107245451D01*
X145672990Y-107245451D02*
X145672990Y-103062990D01*
X158996914Y-95376914D02*
X159000000Y-95380000D01*
D32*
X159000000Y-95380000D02*
X159000000Y-94685690D01*
D31*
X159000000Y-94685690D02*
X159050498Y-94685690D01*
X159050498Y-94685690D02*
X159085002Y-94651186D01*
G04 #@! TO.N,RX2*
X151199269Y-107964269D02*
X146854269Y-107964269D01*
X151990000Y-109390000D02*
X151990000Y-108755000D01*
X151990000Y-108755000D02*
X151199269Y-107964269D01*
X146854269Y-107964269D02*
X146800000Y-107910000D01*
X146800000Y-107910000D02*
X146000000Y-107110000D01*
X146000000Y-107110000D02*
X146000000Y-101840000D01*
X158430000Y-95450000D02*
X158500000Y-95380000D01*
X158430000Y-95820000D02*
X158430000Y-95450000D01*
G04 #@! TO.N,TX1*
X154086499Y-96746483D02*
X154510000Y-96322982D01*
X154086499Y-97910801D02*
X154086499Y-96746483D01*
X155880000Y-98000000D02*
X154175698Y-98000000D01*
X154175698Y-98000000D02*
X154086499Y-97910801D01*
X154510000Y-95390000D02*
X154500000Y-95380000D01*
X154510000Y-96322982D02*
X154510000Y-95390000D01*
G04 #@! TO.N,RX1*
X153054302Y-104670000D02*
X153730000Y-103994302D01*
X153697910Y-96463948D02*
X153697910Y-98206828D01*
X154000000Y-95380000D02*
X154000000Y-96161858D01*
X154000000Y-96161858D02*
X153697910Y-96463948D01*
X153577460Y-107947460D02*
X154287460Y-107947460D01*
X154530000Y-108190000D02*
X154530000Y-109390000D01*
X154287460Y-107947460D02*
X154530000Y-108190000D01*
X153730000Y-103994302D02*
X153730000Y-100196459D01*
X153730000Y-100196459D02*
X153699675Y-100166134D01*
X153054302Y-104855002D02*
X153054302Y-104670000D01*
D32*
X153166645Y-107947460D02*
X153577460Y-107947460D01*
X152330244Y-107111059D02*
X153166645Y-107947460D01*
D34*
G04 #@! TO.N,Net-(NRF91-Pad61)*
X145575001Y-100155003D02*
X146419998Y-101000000D01*
X146419998Y-101000000D02*
X146880000Y-101000000D01*
X145800000Y-96570000D02*
X145575001Y-96794999D01*
X145575001Y-96794999D02*
X145575001Y-100155003D01*
D31*
G04 #@! TO.N,DATSIM*
X148999999Y-105619999D02*
X149000000Y-105620000D01*
D32*
X148099199Y-104300641D02*
X148902794Y-105104236D01*
X148099199Y-103099359D02*
X148099199Y-104300641D01*
X148149359Y-103049199D02*
X148099199Y-103099359D01*
X148902794Y-105104236D02*
X148902794Y-105142794D01*
X149000000Y-105240000D02*
X149000000Y-105620000D01*
X148902794Y-105142794D02*
X149000000Y-105240000D01*
X149350641Y-103049199D02*
X148149359Y-103049199D01*
X149447907Y-102951933D02*
X149350641Y-103049199D01*
X149447907Y-102881208D02*
X149447907Y-102951933D01*
G04 #@! TO.N,CLKSIM*
X149923707Y-103626168D02*
X149923707Y-101613707D01*
X149923707Y-101613707D02*
X149580000Y-101270000D01*
X149990000Y-105630000D02*
X150000000Y-105620000D01*
X149990000Y-107120814D02*
X149990000Y-105630000D01*
G04 #@! TO.N,RSTSIM*
X151752243Y-104350801D02*
X151960000Y-104558558D01*
X149962699Y-104275000D02*
X150038500Y-104350801D01*
X150038500Y-104350801D02*
X151752243Y-104350801D01*
X151960000Y-104558558D02*
X151960000Y-104584998D01*
X151960000Y-104584998D02*
X152104351Y-104729349D01*
X151500000Y-106827845D02*
X151500000Y-105620000D01*
X151643240Y-106971085D02*
X151500000Y-106827845D01*
D31*
G04 #@! TO.N,SWO*
X154000000Y-106955000D02*
X154000000Y-105620000D01*
X155800000Y-108755000D02*
X154000000Y-106955000D01*
X155800000Y-109390000D02*
X155800000Y-108755000D01*
D32*
G04 #@! TO.N,SWDIO*
X157070000Y-109192558D02*
X157070000Y-109390000D01*
X156000000Y-108122558D02*
X157070000Y-109192558D01*
X156000000Y-105620000D02*
X156000000Y-108122558D01*
G04 #@! TO.N,SWDCLK*
X158340000Y-109192558D02*
X158340000Y-109390000D01*
X156500000Y-107352558D02*
X158340000Y-109192558D01*
X156500000Y-105620000D02*
X156500000Y-107352558D01*
G04 #@! TO.N,NRESET*
X159610000Y-109192558D02*
X159610000Y-109390000D01*
D31*
X159311490Y-108447490D02*
X159311490Y-109091490D01*
X158294000Y-107430000D02*
X159311490Y-108447490D01*
D32*
G04 #@! TO.N,RXNRF*
X163930000Y-97305002D02*
X164160000Y-97075002D01*
X163930000Y-97560000D02*
X163930000Y-97305002D01*
G04 #@! TO.N,TXNRF*
X164765801Y-94794199D02*
X165000000Y-94560000D01*
X164765801Y-97224199D02*
X164765801Y-94794199D01*
X164430000Y-97560000D02*
X164765801Y-97224199D01*
D31*
G04 #@! TO.N,TXNRF1.8v*
X162640000Y-105020000D02*
X162620000Y-105000000D01*
D32*
X164430000Y-99060000D02*
X164475801Y-99105801D01*
D31*
X165222700Y-99692894D02*
X165222700Y-104630191D01*
X164852891Y-105000000D02*
X164610000Y-105000000D01*
X165222700Y-104630191D02*
X164852891Y-105000000D01*
X164610000Y-105000000D02*
X162620000Y-105000000D01*
X164589806Y-99060000D02*
X165222700Y-99692894D01*
X164430000Y-99060000D02*
X164589806Y-99060000D01*
D32*
G04 #@! TO.N,RXNRF1.8v*
X164590000Y-104500000D02*
X162620000Y-104500000D01*
X164908390Y-104181610D02*
X164590000Y-104500000D01*
X163930000Y-99060000D02*
X163930000Y-99098426D01*
D34*
G04 #@! TO.N,Net-(NRF91-Pad67)*
X146880000Y-98000000D02*
X146350000Y-98000000D01*
X146350000Y-98000000D02*
X146225000Y-97875000D01*
D31*
G04 #@! TO.N,Net-(100nF4-Pad1)*
X157000000Y-106500000D02*
X157090000Y-106590000D01*
X157000000Y-105620000D02*
X157000000Y-106500000D01*
X157090000Y-107050000D02*
X157470000Y-107430000D01*
X157090000Y-106590000D02*
X157090000Y-107050000D01*
D30*
G04 #@! TO.N,VCC*
X160220000Y-94350000D02*
X160210000Y-94360000D01*
X160220000Y-92780000D02*
X160220000Y-94350000D01*
D31*
X160220000Y-92780000D02*
X160622000Y-92780000D01*
D30*
X160749000Y-92780000D02*
X160220000Y-92780000D01*
X162000000Y-94031000D02*
X160749000Y-92780000D01*
X162000000Y-95380000D02*
X162000000Y-94031000D01*
X162000000Y-106510000D02*
X162000000Y-105620000D01*
X161360000Y-107150000D02*
X162000000Y-106510000D01*
G04 #@! TO.N,+1V8*
X163650000Y-101032000D02*
X163598000Y-100980000D01*
X163650000Y-101760000D02*
X163650000Y-101032000D01*
D32*
G04 #@! TO.N,RXNRF1.8v*
X164908390Y-99823084D02*
X164908390Y-104181610D01*
X164555306Y-99470000D02*
X164908390Y-99823084D01*
X164180194Y-99470000D02*
X164555306Y-99470000D01*
X163930000Y-99219806D02*
X164180194Y-99470000D01*
X163930000Y-99060000D02*
X163930000Y-99219806D01*
D31*
G04 #@! TO.N,Net-(4.7uF4-Pad1)*
X163153501Y-101639199D02*
X163153501Y-102527501D01*
X163014302Y-101500000D02*
X163153501Y-101639199D01*
X163153501Y-102527501D02*
X163526000Y-102900000D01*
X162620000Y-101500000D02*
X163014302Y-101500000D01*
G04 #@! TD*
D30*
G04 #@! TO.N,GND*
G36*
X163924294Y-105414950D02*
G01*
X163893930Y-105471757D01*
X163875232Y-105533397D01*
X163868918Y-105597500D01*
X163868918Y-107322500D01*
X163875232Y-107386603D01*
X163893930Y-107448243D01*
X163924294Y-107505050D01*
X163965157Y-107554843D01*
X164014950Y-107595706D01*
X164071757Y-107626070D01*
X164133397Y-107644768D01*
X164197500Y-107651082D01*
X165771000Y-107651082D01*
X165771000Y-109101000D01*
X164856227Y-109101000D01*
X164832019Y-109042558D01*
X164751747Y-108922421D01*
X164649579Y-108820253D01*
X164529442Y-108739981D01*
X164395954Y-108684688D01*
X164254243Y-108656500D01*
X164244739Y-108656500D01*
X164247432Y-108649999D01*
X164280500Y-108483752D01*
X164280500Y-108314248D01*
X164247432Y-108148001D01*
X164182566Y-107991400D01*
X164088394Y-107850463D01*
X163968537Y-107730606D01*
X163827600Y-107636434D01*
X163670999Y-107571568D01*
X163504752Y-107538500D01*
X163335248Y-107538500D01*
X163169001Y-107571568D01*
X163144833Y-107581579D01*
X163162268Y-107524103D01*
X163168582Y-107460000D01*
X163168582Y-107262468D01*
X163169810Y-107250000D01*
X163168582Y-107237532D01*
X163168582Y-107040000D01*
X163162268Y-106975897D01*
X163158636Y-106963923D01*
X163159810Y-106952001D01*
X163156999Y-106923461D01*
X163156999Y-106746071D01*
X163158582Y-106730000D01*
X163158582Y-106310000D01*
X163152268Y-106245897D01*
X163133570Y-106184257D01*
X163103206Y-106127450D01*
X163062343Y-106077657D01*
X163012550Y-106036794D01*
X162955743Y-106006430D01*
X162894103Y-105987732D01*
X162830000Y-105981418D01*
X162800890Y-105981418D01*
X162799414Y-105980629D01*
X162689895Y-105947407D01*
X162575999Y-105936189D01*
X162473034Y-105946331D01*
X162478582Y-105890000D01*
X162478582Y-105478582D01*
X162890000Y-105478582D01*
X162954103Y-105472268D01*
X163015743Y-105453570D01*
X163072550Y-105423206D01*
X163112403Y-105390500D01*
X163944359Y-105390500D01*
X163924294Y-105414950D01*
G37*
X163924294Y-105414950D02*
X163893930Y-105471757D01*
X163875232Y-105533397D01*
X163868918Y-105597500D01*
X163868918Y-107322500D01*
X163875232Y-107386603D01*
X163893930Y-107448243D01*
X163924294Y-107505050D01*
X163965157Y-107554843D01*
X164014950Y-107595706D01*
X164071757Y-107626070D01*
X164133397Y-107644768D01*
X164197500Y-107651082D01*
X165771000Y-107651082D01*
X165771000Y-109101000D01*
X164856227Y-109101000D01*
X164832019Y-109042558D01*
X164751747Y-108922421D01*
X164649579Y-108820253D01*
X164529442Y-108739981D01*
X164395954Y-108684688D01*
X164254243Y-108656500D01*
X164244739Y-108656500D01*
X164247432Y-108649999D01*
X164280500Y-108483752D01*
X164280500Y-108314248D01*
X164247432Y-108148001D01*
X164182566Y-107991400D01*
X164088394Y-107850463D01*
X163968537Y-107730606D01*
X163827600Y-107636434D01*
X163670999Y-107571568D01*
X163504752Y-107538500D01*
X163335248Y-107538500D01*
X163169001Y-107571568D01*
X163144833Y-107581579D01*
X163162268Y-107524103D01*
X163168582Y-107460000D01*
X163168582Y-107262468D01*
X163169810Y-107250000D01*
X163168582Y-107237532D01*
X163168582Y-107040000D01*
X163162268Y-106975897D01*
X163158636Y-106963923D01*
X163159810Y-106952001D01*
X163156999Y-106923461D01*
X163156999Y-106746071D01*
X163158582Y-106730000D01*
X163158582Y-106310000D01*
X163152268Y-106245897D01*
X163133570Y-106184257D01*
X163103206Y-106127450D01*
X163062343Y-106077657D01*
X163012550Y-106036794D01*
X162955743Y-106006430D01*
X162894103Y-105987732D01*
X162830000Y-105981418D01*
X162800890Y-105981418D01*
X162799414Y-105980629D01*
X162689895Y-105947407D01*
X162575999Y-105936189D01*
X162473034Y-105946331D01*
X162478582Y-105890000D01*
X162478582Y-105478582D01*
X162890000Y-105478582D01*
X162954103Y-105472268D01*
X163015743Y-105453570D01*
X163072550Y-105423206D01*
X163112403Y-105390500D01*
X163944359Y-105390500D01*
X163924294Y-105414950D01*
G36*
X158322732Y-92415897D02*
G01*
X158316418Y-92480000D01*
X158316418Y-92741530D01*
X158094738Y-92963210D01*
X158077422Y-92977421D01*
X158020688Y-93046551D01*
X157998154Y-93088709D01*
X157978530Y-93125422D01*
X157952570Y-93211001D01*
X157950305Y-93234000D01*
X157946000Y-93277705D01*
X157946000Y-93277712D01*
X157945668Y-93281083D01*
X157937657Y-93287657D01*
X157933489Y-93292735D01*
X157909541Y-93300000D01*
X157881421Y-93308530D01*
X157802551Y-93350687D01*
X157733421Y-93407421D01*
X157719205Y-93424743D01*
X157528582Y-93615366D01*
X157528582Y-92845000D01*
X157522268Y-92780897D01*
X157503570Y-92719257D01*
X157473206Y-92662450D01*
X157432343Y-92612657D01*
X157382550Y-92571794D01*
X157325743Y-92541430D01*
X157264103Y-92522732D01*
X157200000Y-92516418D01*
X156180000Y-92516418D01*
X156115897Y-92522732D01*
X156054257Y-92541430D01*
X155997450Y-92571794D01*
X155947657Y-92612657D01*
X155906794Y-92662450D01*
X155876430Y-92719257D01*
X155857732Y-92780897D01*
X155851418Y-92845000D01*
X155851418Y-94315000D01*
X155857732Y-94379103D01*
X155876430Y-94440743D01*
X155906794Y-94497550D01*
X155947657Y-94547343D01*
X155997450Y-94588206D01*
X156054257Y-94618570D01*
X156115897Y-94637268D01*
X156180000Y-94643582D01*
X156771925Y-94643582D01*
X156909760Y-94781418D01*
X156850000Y-94781418D01*
X156785897Y-94787732D01*
X156750000Y-94798621D01*
X156714103Y-94787732D01*
X156650000Y-94781418D01*
X156350000Y-94781418D01*
X156285897Y-94787732D01*
X156224257Y-94806430D01*
X156167450Y-94836794D01*
X156117657Y-94877657D01*
X156076794Y-94927450D01*
X156046430Y-94984257D01*
X156027732Y-95045897D01*
X156021418Y-95110000D01*
X156021418Y-95650000D01*
X156023528Y-95671418D01*
X155976472Y-95671418D01*
X155978582Y-95650000D01*
X155978582Y-95110000D01*
X155972268Y-95045897D01*
X155953570Y-94984257D01*
X155923206Y-94927450D01*
X155882343Y-94877657D01*
X155832550Y-94836794D01*
X155775743Y-94806430D01*
X155714103Y-94787732D01*
X155650000Y-94781418D01*
X155350000Y-94781418D01*
X155285897Y-94787732D01*
X155250000Y-94798621D01*
X155214103Y-94787732D01*
X155150000Y-94781418D01*
X154850000Y-94781418D01*
X154785897Y-94787732D01*
X154750000Y-94798621D01*
X154714103Y-94787732D01*
X154650000Y-94781418D01*
X154350000Y-94781418D01*
X154285897Y-94787732D01*
X154250000Y-94798621D01*
X154214103Y-94787732D01*
X154150000Y-94781418D01*
X153850000Y-94781418D01*
X153785897Y-94787732D01*
X153724257Y-94806430D01*
X153667450Y-94836794D01*
X153617657Y-94877657D01*
X153576794Y-94927450D01*
X153546430Y-94984257D01*
X153527732Y-95045897D01*
X153521418Y-95110000D01*
X153521418Y-95650000D01*
X153527732Y-95714103D01*
X153546430Y-95775743D01*
X153576794Y-95832550D01*
X153609501Y-95872404D01*
X153609501Y-96000107D01*
X153435350Y-96174258D01*
X153420449Y-96186487D01*
X153371650Y-96245949D01*
X153350298Y-96285897D01*
X153335390Y-96313788D01*
X153313061Y-96387397D01*
X153305521Y-96463948D01*
X153307410Y-96483127D01*
X153307411Y-97816681D01*
X153269144Y-97854948D01*
X153208734Y-97945358D01*
X153167123Y-98045816D01*
X153145910Y-98152461D01*
X153145910Y-98261195D01*
X153167123Y-98367840D01*
X153208734Y-98468298D01*
X153269144Y-98558708D01*
X153346030Y-98635594D01*
X153436440Y-98696004D01*
X153536898Y-98737615D01*
X153643543Y-98758828D01*
X153752277Y-98758828D01*
X153858922Y-98737615D01*
X153959380Y-98696004D01*
X154049790Y-98635594D01*
X154126676Y-98558708D01*
X154187086Y-98468298D01*
X154219311Y-98390500D01*
X155489854Y-98390500D01*
X155528120Y-98428766D01*
X155618530Y-98489176D01*
X155718988Y-98530787D01*
X155825633Y-98552000D01*
X155934367Y-98552000D01*
X156041012Y-98530787D01*
X156141470Y-98489176D01*
X156231880Y-98428766D01*
X156308766Y-98351880D01*
X156369176Y-98261470D01*
X156410787Y-98161012D01*
X156432000Y-98054367D01*
X156432000Y-97945633D01*
X156410787Y-97838988D01*
X156369176Y-97738530D01*
X156308766Y-97648120D01*
X156231880Y-97571234D01*
X156141470Y-97510824D01*
X156041012Y-97469213D01*
X155934367Y-97448000D01*
X155825633Y-97448000D01*
X155718988Y-97469213D01*
X155618530Y-97510824D01*
X155528120Y-97571234D01*
X155489854Y-97609500D01*
X154476999Y-97609500D01*
X154476999Y-96908233D01*
X154768302Y-96616931D01*
X154785897Y-96622268D01*
X154850000Y-96628582D01*
X155150000Y-96628582D01*
X155214103Y-96622268D01*
X155250000Y-96611379D01*
X155285897Y-96622268D01*
X155350000Y-96628582D01*
X155650000Y-96628582D01*
X155714103Y-96622268D01*
X155750000Y-96611379D01*
X155785897Y-96622268D01*
X155850000Y-96628582D01*
X156150000Y-96628582D01*
X156214103Y-96622268D01*
X156250000Y-96611379D01*
X156285897Y-96622268D01*
X156350000Y-96628582D01*
X156650000Y-96628582D01*
X156714103Y-96622268D01*
X156775743Y-96603570D01*
X156832550Y-96573206D01*
X156882343Y-96532343D01*
X156923206Y-96482550D01*
X156953570Y-96425743D01*
X156972268Y-96364103D01*
X156978582Y-96300000D01*
X156978582Y-96000000D01*
X156976472Y-95978582D01*
X157150000Y-95978582D01*
X157214103Y-95972268D01*
X157250000Y-95961379D01*
X157285897Y-95972268D01*
X157350000Y-95978582D01*
X157650000Y-95978582D01*
X157714103Y-95972268D01*
X157775743Y-95953570D01*
X157832550Y-95923206D01*
X157870555Y-95892017D01*
X157863496Y-95927503D01*
X157863496Y-96036237D01*
X157884709Y-96142882D01*
X157926320Y-96243340D01*
X157986730Y-96333750D01*
X158063616Y-96410636D01*
X158154026Y-96471046D01*
X158254484Y-96512657D01*
X158361129Y-96533870D01*
X158469863Y-96533870D01*
X158576508Y-96512657D01*
X158595161Y-96504931D01*
X158617657Y-96532343D01*
X158667450Y-96573206D01*
X158724257Y-96603570D01*
X158785897Y-96622268D01*
X158850000Y-96628582D01*
X159150000Y-96628582D01*
X159214103Y-96622268D01*
X159250000Y-96611379D01*
X159285897Y-96622268D01*
X159350000Y-96628582D01*
X159650000Y-96628582D01*
X159714103Y-96622268D01*
X159750000Y-96611379D01*
X159785897Y-96622268D01*
X159850000Y-96628582D01*
X160150000Y-96628582D01*
X160214103Y-96622268D01*
X160250000Y-96611379D01*
X160285897Y-96622268D01*
X160350000Y-96628582D01*
X160650000Y-96628582D01*
X160714103Y-96622268D01*
X160775743Y-96603570D01*
X160832550Y-96573206D01*
X160882343Y-96532343D01*
X160923206Y-96482550D01*
X160953570Y-96425743D01*
X160972268Y-96364103D01*
X160978582Y-96300000D01*
X160978582Y-96000000D01*
X160976472Y-95978582D01*
X161150000Y-95978582D01*
X161214103Y-95972268D01*
X161250000Y-95961379D01*
X161285897Y-95972268D01*
X161350000Y-95978582D01*
X161650000Y-95978582D01*
X161714103Y-95972268D01*
X161750000Y-95961379D01*
X161785897Y-95972268D01*
X161850000Y-95978582D01*
X162021418Y-95978582D01*
X162021418Y-96150000D01*
X162027732Y-96214103D01*
X162038621Y-96250000D01*
X162027732Y-96285897D01*
X162021418Y-96350000D01*
X162021418Y-96650000D01*
X162027732Y-96714103D01*
X162038621Y-96750000D01*
X162027732Y-96785897D01*
X162021418Y-96850000D01*
X162021418Y-97150000D01*
X162027732Y-97214103D01*
X162046430Y-97275743D01*
X162076794Y-97332550D01*
X162117657Y-97382343D01*
X162167450Y-97423206D01*
X162224257Y-97453570D01*
X162285897Y-97472268D01*
X162350000Y-97478582D01*
X162763001Y-97478582D01*
X162763002Y-97521418D01*
X162350000Y-97521418D01*
X162285897Y-97527732D01*
X162224257Y-97546430D01*
X162167450Y-97576794D01*
X162117657Y-97617657D01*
X162076794Y-97667450D01*
X162046430Y-97724257D01*
X162027732Y-97785897D01*
X162021418Y-97850000D01*
X162021418Y-98150000D01*
X162027732Y-98214103D01*
X162038621Y-98250000D01*
X162027732Y-98285897D01*
X162021418Y-98350000D01*
X162021418Y-98650000D01*
X162027732Y-98714103D01*
X162038621Y-98750000D01*
X162027732Y-98785897D01*
X162021418Y-98850000D01*
X162021418Y-99150000D01*
X162027732Y-99214103D01*
X162046430Y-99275743D01*
X162076794Y-99332550D01*
X162117657Y-99382343D01*
X162167450Y-99423206D01*
X162224257Y-99453570D01*
X162285897Y-99472268D01*
X162350000Y-99478582D01*
X162890000Y-99478582D01*
X162954103Y-99472268D01*
X163015743Y-99453570D01*
X163072550Y-99423206D01*
X163122343Y-99382343D01*
X163163206Y-99332550D01*
X163193570Y-99275743D01*
X163212268Y-99214103D01*
X163218582Y-99150000D01*
X163218582Y-98949294D01*
X163230822Y-98950500D01*
X163230828Y-98950500D01*
X163249999Y-98952388D01*
X163269170Y-98950500D01*
X163503161Y-98950500D01*
X163490000Y-99016664D01*
X163490000Y-99103336D01*
X163506909Y-99188343D01*
X163540077Y-99268418D01*
X163558151Y-99295468D01*
X163579269Y-99365083D01*
X163614351Y-99430716D01*
X163661562Y-99488244D01*
X163675986Y-99500081D01*
X163877387Y-99701482D01*
X163867450Y-99706794D01*
X163817657Y-99747657D01*
X163776794Y-99797450D01*
X163746430Y-99854257D01*
X163727732Y-99915897D01*
X163721418Y-99980000D01*
X163721418Y-100420000D01*
X163722543Y-100431418D01*
X163365500Y-100431418D01*
X163301397Y-100437732D01*
X163239757Y-100456430D01*
X163218582Y-100467748D01*
X163218582Y-100350000D01*
X163212268Y-100285897D01*
X163201379Y-100250000D01*
X163212268Y-100214103D01*
X163218582Y-100150000D01*
X163218582Y-99850000D01*
X163212268Y-99785897D01*
X163193570Y-99724257D01*
X163163206Y-99667450D01*
X163122343Y-99617657D01*
X163072550Y-99576794D01*
X163015743Y-99546430D01*
X162954103Y-99527732D01*
X162890000Y-99521418D01*
X162350000Y-99521418D01*
X162285897Y-99527732D01*
X162224257Y-99546430D01*
X162167450Y-99576794D01*
X162117657Y-99617657D01*
X162076794Y-99667450D01*
X162046430Y-99724257D01*
X162027732Y-99785897D01*
X162021418Y-99850000D01*
X162021418Y-100150000D01*
X162027732Y-100214103D01*
X162038621Y-100250000D01*
X162027732Y-100285897D01*
X162021418Y-100350000D01*
X162021418Y-100650000D01*
X162027732Y-100714103D01*
X162038621Y-100750000D01*
X162027732Y-100785897D01*
X162021418Y-100850000D01*
X162021418Y-101150000D01*
X162027732Y-101214103D01*
X162038621Y-101250000D01*
X162027732Y-101285897D01*
X162021418Y-101350000D01*
X162021418Y-101650000D01*
X162027732Y-101714103D01*
X162046430Y-101775743D01*
X162076794Y-101832550D01*
X162117657Y-101882343D01*
X162167450Y-101923206D01*
X162224257Y-101953570D01*
X162285897Y-101972268D01*
X162350000Y-101978582D01*
X162763001Y-101978582D01*
X162763001Y-102021418D01*
X162350000Y-102021418D01*
X162285897Y-102027732D01*
X162224257Y-102046430D01*
X162167450Y-102076794D01*
X162117657Y-102117657D01*
X162076794Y-102167450D01*
X162046430Y-102224257D01*
X162027732Y-102285897D01*
X162021418Y-102350000D01*
X162021418Y-102650000D01*
X162027732Y-102714103D01*
X162038621Y-102750000D01*
X162027732Y-102785897D01*
X162021418Y-102850000D01*
X162021418Y-103150000D01*
X162027732Y-103214103D01*
X162046430Y-103275743D01*
X162076794Y-103332550D01*
X162117657Y-103382343D01*
X162167450Y-103423206D01*
X162224257Y-103453570D01*
X162285897Y-103472268D01*
X162350000Y-103478582D01*
X162890000Y-103478582D01*
X162954103Y-103472268D01*
X163015743Y-103453570D01*
X163072550Y-103423206D01*
X163110028Y-103392449D01*
X163110950Y-103393206D01*
X163167757Y-103423570D01*
X163229397Y-103442268D01*
X163293500Y-103448582D01*
X163758500Y-103448582D01*
X163822603Y-103442268D01*
X163884243Y-103423570D01*
X163941050Y-103393206D01*
X163990843Y-103352343D01*
X164031706Y-103302550D01*
X164062070Y-103245743D01*
X164080768Y-103184103D01*
X164087082Y-103120000D01*
X164087082Y-102680000D01*
X164080768Y-102615897D01*
X164062070Y-102554257D01*
X164031706Y-102497450D01*
X163990843Y-102447657D01*
X163941050Y-102406794D01*
X163884243Y-102376430D01*
X163822603Y-102357732D01*
X163758500Y-102351418D01*
X163544001Y-102351418D01*
X163544001Y-102301730D01*
X163595633Y-102312000D01*
X163704367Y-102312000D01*
X163771824Y-102298582D01*
X163880000Y-102298582D01*
X163944103Y-102292268D01*
X164005743Y-102273570D01*
X164062550Y-102243206D01*
X164112343Y-102202343D01*
X164153206Y-102152550D01*
X164183570Y-102095743D01*
X164202268Y-102034103D01*
X164208582Y-101970000D01*
X164208582Y-101550000D01*
X164202268Y-101485897D01*
X164183570Y-101424257D01*
X164153206Y-101367450D01*
X164128118Y-101336879D01*
X164134070Y-101325743D01*
X164152768Y-101264103D01*
X164159082Y-101200000D01*
X164159082Y-100760000D01*
X164157957Y-100748582D01*
X164520000Y-100748582D01*
X164530590Y-100747539D01*
X164530591Y-104025119D01*
X164433511Y-104122200D01*
X163218582Y-104122200D01*
X163218582Y-103850000D01*
X163212268Y-103785897D01*
X163193570Y-103724257D01*
X163163206Y-103667450D01*
X163122343Y-103617657D01*
X163072550Y-103576794D01*
X163015743Y-103546430D01*
X162954103Y-103527732D01*
X162890000Y-103521418D01*
X162350000Y-103521418D01*
X162285897Y-103527732D01*
X162224257Y-103546430D01*
X162167450Y-103576794D01*
X162117657Y-103617657D01*
X162076794Y-103667450D01*
X162046430Y-103724257D01*
X162027732Y-103785897D01*
X162021418Y-103850000D01*
X162021418Y-104150000D01*
X162027732Y-104214103D01*
X162038621Y-104250000D01*
X162027732Y-104285897D01*
X162021418Y-104350000D01*
X162021418Y-104650000D01*
X162027732Y-104714103D01*
X162038621Y-104750000D01*
X162027732Y-104785897D01*
X162021418Y-104850000D01*
X162021418Y-105021418D01*
X161850000Y-105021418D01*
X161785897Y-105027732D01*
X161750000Y-105038621D01*
X161714103Y-105027732D01*
X161650000Y-105021418D01*
X161350000Y-105021418D01*
X161285897Y-105027732D01*
X161250000Y-105038621D01*
X161214103Y-105027732D01*
X161150000Y-105021418D01*
X160976472Y-105021418D01*
X160978582Y-105000000D01*
X160978582Y-104700000D01*
X160972268Y-104635897D01*
X160953570Y-104574257D01*
X160923206Y-104517450D01*
X160882343Y-104467657D01*
X160832550Y-104426794D01*
X160775743Y-104396430D01*
X160714103Y-104377732D01*
X160650000Y-104371418D01*
X160350000Y-104371418D01*
X160285897Y-104377732D01*
X160250000Y-104388621D01*
X160214103Y-104377732D01*
X160150000Y-104371418D01*
X159850000Y-104371418D01*
X159785897Y-104377732D01*
X159750000Y-104388621D01*
X159714103Y-104377732D01*
X159650000Y-104371418D01*
X159350000Y-104371418D01*
X159285897Y-104377732D01*
X159250000Y-104388621D01*
X159214103Y-104377732D01*
X159150000Y-104371418D01*
X158850000Y-104371418D01*
X158785897Y-104377732D01*
X158724257Y-104396430D01*
X158667450Y-104426794D01*
X158617657Y-104467657D01*
X158576794Y-104517450D01*
X158546430Y-104574257D01*
X158527732Y-104635897D01*
X158521418Y-104700000D01*
X158521418Y-105000000D01*
X158523528Y-105021418D01*
X158350000Y-105021418D01*
X158285897Y-105027732D01*
X158250000Y-105038621D01*
X158214103Y-105027732D01*
X158150000Y-105021418D01*
X157850000Y-105021418D01*
X157785897Y-105027732D01*
X157724257Y-105046430D01*
X157667450Y-105076794D01*
X157617657Y-105117657D01*
X157576794Y-105167450D01*
X157546430Y-105224257D01*
X157527732Y-105285897D01*
X157521418Y-105350000D01*
X157521418Y-105890000D01*
X157527732Y-105954103D01*
X157546430Y-106015743D01*
X157576794Y-106072550D01*
X157617657Y-106122343D01*
X157667450Y-106163206D01*
X157724257Y-106193570D01*
X157785897Y-106212268D01*
X157850000Y-106218582D01*
X158150000Y-106218582D01*
X158214103Y-106212268D01*
X158250000Y-106201379D01*
X158285897Y-106212268D01*
X158350000Y-106218582D01*
X158650000Y-106218582D01*
X158714103Y-106212268D01*
X158750000Y-106201379D01*
X158785897Y-106212268D01*
X158850000Y-106218582D01*
X159150000Y-106218582D01*
X159214103Y-106212268D01*
X159275743Y-106193570D01*
X159332550Y-106163206D01*
X159382343Y-106122343D01*
X159423206Y-106072550D01*
X159453570Y-106015743D01*
X159472268Y-105954103D01*
X159478582Y-105890000D01*
X159478582Y-105350000D01*
X159476472Y-105328582D01*
X159523528Y-105328582D01*
X159521418Y-105350000D01*
X159521418Y-105890000D01*
X159527732Y-105954103D01*
X159546430Y-106015743D01*
X159576794Y-106072550D01*
X159617657Y-106122343D01*
X159667450Y-106163206D01*
X159724257Y-106193570D01*
X159785897Y-106212268D01*
X159850000Y-106218582D01*
X160150000Y-106218582D01*
X160214103Y-106212268D01*
X160250000Y-106201379D01*
X160285897Y-106212268D01*
X160350000Y-106218582D01*
X160588175Y-106218582D01*
X160576794Y-106232450D01*
X160546430Y-106289257D01*
X160527732Y-106350897D01*
X160521418Y-106415000D01*
X160521418Y-107885000D01*
X160527732Y-107949103D01*
X160546430Y-108010743D01*
X160576794Y-108067550D01*
X160617657Y-108117343D01*
X160667450Y-108158206D01*
X160724257Y-108188570D01*
X160785897Y-108207268D01*
X160850000Y-108213582D01*
X161572452Y-108213582D01*
X161577407Y-108263895D01*
X161610629Y-108373414D01*
X161639965Y-108428298D01*
X161612281Y-108431012D01*
X161581539Y-108433810D01*
X161580436Y-108434135D01*
X161579291Y-108434247D01*
X161549731Y-108443172D01*
X161520129Y-108451884D01*
X161519111Y-108452416D01*
X161518009Y-108452749D01*
X161515247Y-108454218D01*
X161515118Y-108454177D01*
X161514105Y-108453629D01*
X161484547Y-108444479D01*
X161455195Y-108435168D01*
X161454056Y-108435040D01*
X161452954Y-108434699D01*
X161422201Y-108431467D01*
X161391580Y-108428032D01*
X161389372Y-108428017D01*
X161389290Y-108428008D01*
X161389208Y-108428015D01*
X161387000Y-108428000D01*
X160373000Y-108428000D01*
X160342281Y-108431012D01*
X160311539Y-108433810D01*
X160310436Y-108434135D01*
X160309291Y-108434247D01*
X160279731Y-108443172D01*
X160250129Y-108451884D01*
X160249111Y-108452416D01*
X160248009Y-108452749D01*
X160245247Y-108454218D01*
X160245118Y-108454177D01*
X160244105Y-108453629D01*
X160214547Y-108444479D01*
X160185195Y-108435168D01*
X160184056Y-108435040D01*
X160182954Y-108434699D01*
X160152201Y-108431467D01*
X160121580Y-108428032D01*
X160119372Y-108428017D01*
X160119290Y-108428008D01*
X160119208Y-108428015D01*
X160117000Y-108428000D01*
X159701959Y-108428000D01*
X159696339Y-108370939D01*
X159695397Y-108367831D01*
X159674010Y-108297329D01*
X159668277Y-108286603D01*
X159637750Y-108229490D01*
X159588951Y-108170029D01*
X159574051Y-108157801D01*
X158935082Y-107518832D01*
X158935082Y-107230000D01*
X158928768Y-107165897D01*
X158910070Y-107104257D01*
X158879706Y-107047450D01*
X158838843Y-106997657D01*
X158789050Y-106956794D01*
X158732243Y-106926430D01*
X158670603Y-106907732D01*
X158606500Y-106901418D01*
X157981500Y-106901418D01*
X157917397Y-106907732D01*
X157882000Y-106918469D01*
X157846603Y-106907732D01*
X157782500Y-106901418D01*
X157630949Y-106901418D01*
X157642268Y-106864103D01*
X157648582Y-106800000D01*
X157648582Y-106380000D01*
X157642268Y-106315897D01*
X157623570Y-106254257D01*
X157593206Y-106197450D01*
X157552343Y-106147657D01*
X157502550Y-106106794D01*
X157445743Y-106076430D01*
X157424566Y-106070006D01*
X157453570Y-106015743D01*
X157472268Y-105954103D01*
X157478582Y-105890000D01*
X157478582Y-105350000D01*
X157472268Y-105285897D01*
X157453570Y-105224257D01*
X157423206Y-105167450D01*
X157382343Y-105117657D01*
X157332550Y-105076794D01*
X157275743Y-105046430D01*
X157214103Y-105027732D01*
X157150000Y-105021418D01*
X156976472Y-105021418D01*
X156978582Y-105000000D01*
X156978582Y-104700000D01*
X156972268Y-104635897D01*
X156953570Y-104574257D01*
X156923206Y-104517450D01*
X156882343Y-104467657D01*
X156832550Y-104426794D01*
X156775743Y-104396430D01*
X156714103Y-104377732D01*
X156650000Y-104371418D01*
X156350000Y-104371418D01*
X156285897Y-104377732D01*
X156250000Y-104388621D01*
X156214103Y-104377732D01*
X156150000Y-104371418D01*
X155850000Y-104371418D01*
X155785897Y-104377732D01*
X155750000Y-104388621D01*
X155714103Y-104377732D01*
X155650000Y-104371418D01*
X155350000Y-104371418D01*
X155285897Y-104377732D01*
X155250000Y-104388621D01*
X155214103Y-104377732D01*
X155150000Y-104371418D01*
X154850000Y-104371418D01*
X154785897Y-104377732D01*
X154724257Y-104396430D01*
X154667450Y-104426794D01*
X154617657Y-104467657D01*
X154576794Y-104517450D01*
X154546430Y-104574257D01*
X154527732Y-104635897D01*
X154521418Y-104700000D01*
X154521418Y-105000000D01*
X154523528Y-105021418D01*
X154350000Y-105021418D01*
X154285897Y-105027732D01*
X154250000Y-105038621D01*
X154214103Y-105027732D01*
X154150000Y-105021418D01*
X153850000Y-105021418D01*
X153785897Y-105027732D01*
X153750000Y-105038621D01*
X153714103Y-105027732D01*
X153650000Y-105021418D01*
X153582851Y-105021418D01*
X153585089Y-105016014D01*
X153606302Y-104909369D01*
X153606302Y-104800635D01*
X153585089Y-104693990D01*
X153584349Y-104692203D01*
X153992561Y-104283991D01*
X154007461Y-104271763D01*
X154056260Y-104212302D01*
X154092520Y-104144463D01*
X154114849Y-104070853D01*
X154120500Y-104013480D01*
X154120500Y-104013474D01*
X154122388Y-103994303D01*
X154120500Y-103975132D01*
X154120500Y-100525955D01*
X154128441Y-100518014D01*
X154188851Y-100427604D01*
X154230462Y-100327146D01*
X154251675Y-100220501D01*
X154251675Y-100111767D01*
X154230462Y-100005122D01*
X154188851Y-99904664D01*
X154128441Y-99814254D01*
X154051555Y-99737368D01*
X153961145Y-99676958D01*
X153860687Y-99635347D01*
X153754042Y-99614134D01*
X153645308Y-99614134D01*
X153538663Y-99635347D01*
X153438205Y-99676958D01*
X153347795Y-99737368D01*
X153270909Y-99814254D01*
X153210499Y-99904664D01*
X153168888Y-100005122D01*
X153147675Y-100111767D01*
X153147675Y-100220501D01*
X153168888Y-100327146D01*
X153210499Y-100427604D01*
X153270909Y-100518014D01*
X153339501Y-100586606D01*
X153339500Y-103832552D01*
X152815697Y-104356355D01*
X152792832Y-104365826D01*
X152702422Y-104426236D01*
X152625536Y-104503122D01*
X152614788Y-104519208D01*
X152593527Y-104467879D01*
X152533117Y-104377469D01*
X152456231Y-104300583D01*
X152365821Y-104240173D01*
X152265363Y-104198562D01*
X152158718Y-104177349D01*
X152113080Y-104177349D01*
X152032519Y-104096788D01*
X152020681Y-104082363D01*
X151963153Y-104035152D01*
X151897520Y-104000070D01*
X151826305Y-103978467D01*
X151770804Y-103973001D01*
X151770801Y-103973001D01*
X151752243Y-103971173D01*
X151733685Y-103973001D01*
X150424794Y-103973001D01*
X150391465Y-103923120D01*
X150390092Y-103921747D01*
X150412883Y-103887638D01*
X150454494Y-103787180D01*
X150475707Y-103680535D01*
X150475707Y-103571801D01*
X150454494Y-103465156D01*
X150412883Y-103364698D01*
X150352473Y-103274288D01*
X150301507Y-103223322D01*
X150301507Y-101632265D01*
X150303335Y-101613706D01*
X150301507Y-101595146D01*
X150296041Y-101539645D01*
X150274438Y-101468430D01*
X150258107Y-101437878D01*
X150239356Y-101402796D01*
X150216914Y-101375451D01*
X150192145Y-101345269D01*
X150177725Y-101333435D01*
X150132000Y-101287710D01*
X150132000Y-101215633D01*
X150110787Y-101108988D01*
X150069176Y-101008530D01*
X150008766Y-100918120D01*
X149931880Y-100841234D01*
X149841470Y-100780824D01*
X149741012Y-100739213D01*
X149634367Y-100718000D01*
X149525633Y-100718000D01*
X149418988Y-100739213D01*
X149318530Y-100780824D01*
X149228120Y-100841234D01*
X149151234Y-100918120D01*
X149090824Y-101008530D01*
X149049213Y-101108988D01*
X149028000Y-101215633D01*
X149028000Y-101324367D01*
X149049213Y-101431012D01*
X149090824Y-101531470D01*
X149151234Y-101621880D01*
X149228120Y-101698766D01*
X149318530Y-101759176D01*
X149418988Y-101800787D01*
X149525633Y-101822000D01*
X149545908Y-101822000D01*
X149545908Y-102337887D01*
X149502274Y-102329208D01*
X149393540Y-102329208D01*
X149286895Y-102350421D01*
X149186437Y-102392032D01*
X149096027Y-102452442D01*
X149019141Y-102529328D01*
X148958731Y-102619738D01*
X148937332Y-102671399D01*
X148167917Y-102671399D01*
X148149359Y-102669571D01*
X148130801Y-102671399D01*
X148130798Y-102671399D01*
X148075297Y-102676865D01*
X148004082Y-102698468D01*
X147938449Y-102733550D01*
X147880921Y-102780761D01*
X147869083Y-102795186D01*
X147845186Y-102819083D01*
X147830761Y-102830921D01*
X147798761Y-102869915D01*
X147783550Y-102888449D01*
X147775280Y-102903922D01*
X147748468Y-102954083D01*
X147726865Y-103025298D01*
X147723153Y-103062990D01*
X147719571Y-103099359D01*
X147721399Y-103117918D01*
X147721400Y-104282073D01*
X147719571Y-104300641D01*
X147724433Y-104350000D01*
X147726866Y-104374703D01*
X147742668Y-104426794D01*
X147748469Y-104445918D01*
X147783550Y-104511551D01*
X147806896Y-104539998D01*
X147830762Y-104569079D01*
X147845181Y-104580912D01*
X148291453Y-105027185D01*
X148285897Y-105027732D01*
X148224257Y-105046430D01*
X148167450Y-105076794D01*
X148117657Y-105117657D01*
X148076794Y-105167450D01*
X148046430Y-105224257D01*
X148027732Y-105285897D01*
X148021418Y-105350000D01*
X148021418Y-105763002D01*
X147978582Y-105763002D01*
X147978582Y-105350000D01*
X147972268Y-105285897D01*
X147953570Y-105224257D01*
X147923206Y-105167450D01*
X147882343Y-105117657D01*
X147832550Y-105076794D01*
X147775743Y-105046430D01*
X147714103Y-105027732D01*
X147650000Y-105021418D01*
X147478582Y-105021418D01*
X147478582Y-104850000D01*
X147472268Y-104785897D01*
X147461379Y-104750000D01*
X147472268Y-104714103D01*
X147478582Y-104650000D01*
X147478582Y-104350000D01*
X147472268Y-104285897D01*
X147461379Y-104250000D01*
X147472268Y-104214103D01*
X147478582Y-104150000D01*
X147478582Y-103850000D01*
X147472268Y-103785897D01*
X147453570Y-103724257D01*
X147423206Y-103667450D01*
X147382343Y-103617657D01*
X147332550Y-103576794D01*
X147275743Y-103546430D01*
X147214103Y-103527732D01*
X147150000Y-103521418D01*
X146610000Y-103521418D01*
X146545897Y-103527732D01*
X146484257Y-103546430D01*
X146427450Y-103576794D01*
X146390500Y-103607117D01*
X146390500Y-103392883D01*
X146427450Y-103423206D01*
X146484257Y-103453570D01*
X146545897Y-103472268D01*
X146610000Y-103478582D01*
X147150000Y-103478582D01*
X147214103Y-103472268D01*
X147275743Y-103453570D01*
X147332550Y-103423206D01*
X147382343Y-103382343D01*
X147423206Y-103332550D01*
X147453570Y-103275743D01*
X147472268Y-103214103D01*
X147478582Y-103150000D01*
X147478582Y-102850000D01*
X147472268Y-102785897D01*
X147461379Y-102750000D01*
X147472268Y-102714103D01*
X147478582Y-102650000D01*
X147478582Y-102350000D01*
X147472268Y-102285897D01*
X147461379Y-102250000D01*
X147472268Y-102214103D01*
X147478582Y-102150000D01*
X147478582Y-101850000D01*
X147472268Y-101785897D01*
X147453570Y-101724257D01*
X147423206Y-101667450D01*
X147382343Y-101617657D01*
X147332550Y-101576794D01*
X147275743Y-101546430D01*
X147214103Y-101527732D01*
X147150000Y-101521418D01*
X146610000Y-101521418D01*
X146545897Y-101527732D01*
X146484257Y-101546430D01*
X146472077Y-101552940D01*
X146428766Y-101488120D01*
X146364218Y-101423572D01*
X146399020Y-101427000D01*
X146399030Y-101427000D01*
X146419997Y-101429065D01*
X146435546Y-101427534D01*
X146484257Y-101453570D01*
X146545897Y-101472268D01*
X146610000Y-101478582D01*
X147150000Y-101478582D01*
X147214103Y-101472268D01*
X147275743Y-101453570D01*
X147332550Y-101423206D01*
X147382343Y-101382343D01*
X147423206Y-101332550D01*
X147453570Y-101275743D01*
X147472268Y-101214103D01*
X147478582Y-101150000D01*
X147478582Y-100850000D01*
X147472268Y-100785897D01*
X147453570Y-100724257D01*
X147423206Y-100667450D01*
X147382343Y-100617657D01*
X147332550Y-100576794D01*
X147275743Y-100546430D01*
X147214103Y-100527732D01*
X147150000Y-100521418D01*
X146610000Y-100521418D01*
X146551088Y-100527221D01*
X146002001Y-99978135D01*
X146002001Y-99350000D01*
X146281418Y-99350000D01*
X146281418Y-99650000D01*
X146287732Y-99714103D01*
X146306430Y-99775743D01*
X146336794Y-99832550D01*
X146377657Y-99882343D01*
X146427450Y-99923206D01*
X146484257Y-99953570D01*
X146545897Y-99972268D01*
X146610000Y-99978582D01*
X147150000Y-99978582D01*
X147214103Y-99972268D01*
X147275743Y-99953570D01*
X147332550Y-99923206D01*
X147382343Y-99882343D01*
X147423206Y-99832550D01*
X147453570Y-99775743D01*
X147472268Y-99714103D01*
X147478582Y-99650000D01*
X147478582Y-99350000D01*
X147472268Y-99285897D01*
X147453570Y-99224257D01*
X147423206Y-99167450D01*
X147382343Y-99117657D01*
X147332550Y-99076794D01*
X147275743Y-99046430D01*
X147214103Y-99027732D01*
X147150000Y-99021418D01*
X146610000Y-99021418D01*
X146545897Y-99027732D01*
X146484257Y-99046430D01*
X146427450Y-99076794D01*
X146377657Y-99117657D01*
X146336794Y-99167450D01*
X146306430Y-99224257D01*
X146287732Y-99285897D01*
X146281418Y-99350000D01*
X146002001Y-99350000D01*
X146002001Y-98380111D01*
X146063988Y-98405787D01*
X146170633Y-98427000D01*
X146279367Y-98427000D01*
X146295811Y-98423729D01*
X146329022Y-98427000D01*
X146329033Y-98427000D01*
X146350000Y-98429065D01*
X146370967Y-98427000D01*
X146434548Y-98427000D01*
X146484257Y-98453570D01*
X146545897Y-98472268D01*
X146610000Y-98478582D01*
X147150000Y-98478582D01*
X147214103Y-98472268D01*
X147275743Y-98453570D01*
X147332550Y-98423206D01*
X147382343Y-98382343D01*
X147423206Y-98332550D01*
X147453570Y-98275743D01*
X147472268Y-98214103D01*
X147478582Y-98150000D01*
X147478582Y-97850000D01*
X147472268Y-97785897D01*
X147461379Y-97750000D01*
X147472268Y-97714103D01*
X147478582Y-97650000D01*
X147478582Y-97350000D01*
X147472268Y-97285897D01*
X147461379Y-97250000D01*
X147472268Y-97214103D01*
X147478582Y-97150000D01*
X147478582Y-96850000D01*
X147472268Y-96785897D01*
X147461379Y-96750000D01*
X147472268Y-96714103D01*
X147478582Y-96650000D01*
X147478582Y-96350000D01*
X147472268Y-96285897D01*
X147461379Y-96250000D01*
X147472268Y-96214103D01*
X147478582Y-96150000D01*
X147478582Y-96000000D01*
X149521418Y-96000000D01*
X149521418Y-96300000D01*
X149527732Y-96364103D01*
X149546430Y-96425743D01*
X149576794Y-96482550D01*
X149617657Y-96532343D01*
X149667450Y-96573206D01*
X149724257Y-96603570D01*
X149785897Y-96622268D01*
X149850000Y-96628582D01*
X150150000Y-96628582D01*
X150214103Y-96622268D01*
X150250000Y-96611379D01*
X150285897Y-96622268D01*
X150350000Y-96628582D01*
X150650000Y-96628582D01*
X150714103Y-96622268D01*
X150750000Y-96611379D01*
X150785897Y-96622268D01*
X150850000Y-96628582D01*
X151150000Y-96628582D01*
X151214103Y-96622268D01*
X151250000Y-96611379D01*
X151285897Y-96622268D01*
X151350000Y-96628582D01*
X151650000Y-96628582D01*
X151714103Y-96622268D01*
X151775743Y-96603570D01*
X151832550Y-96573206D01*
X151882343Y-96532343D01*
X151923206Y-96482550D01*
X151953570Y-96425743D01*
X151972268Y-96364103D01*
X151978582Y-96300000D01*
X151978582Y-96000000D01*
X151972268Y-95935897D01*
X151953570Y-95874257D01*
X151923206Y-95817450D01*
X151882343Y-95767657D01*
X151832550Y-95726794D01*
X151775743Y-95696430D01*
X151714103Y-95677732D01*
X151650000Y-95671418D01*
X151350000Y-95671418D01*
X151285897Y-95677732D01*
X151250000Y-95688621D01*
X151214103Y-95677732D01*
X151150000Y-95671418D01*
X150850000Y-95671418D01*
X150785897Y-95677732D01*
X150750000Y-95688621D01*
X150714103Y-95677732D01*
X150650000Y-95671418D01*
X150350000Y-95671418D01*
X150285897Y-95677732D01*
X150250000Y-95688621D01*
X150214103Y-95677732D01*
X150150000Y-95671418D01*
X149850000Y-95671418D01*
X149785897Y-95677732D01*
X149724257Y-95696430D01*
X149667450Y-95726794D01*
X149617657Y-95767657D01*
X149576794Y-95817450D01*
X149546430Y-95874257D01*
X149527732Y-95935897D01*
X149521418Y-96000000D01*
X147478582Y-96000000D01*
X147478582Y-95978582D01*
X147650000Y-95978582D01*
X147714103Y-95972268D01*
X147775743Y-95953570D01*
X147832550Y-95923206D01*
X147882343Y-95882343D01*
X147923206Y-95832550D01*
X147953570Y-95775743D01*
X147972268Y-95714103D01*
X147978582Y-95650000D01*
X147978582Y-95110000D01*
X152021418Y-95110000D01*
X152021418Y-95650000D01*
X152027732Y-95714103D01*
X152046430Y-95775743D01*
X152076794Y-95832550D01*
X152117657Y-95882343D01*
X152167450Y-95923206D01*
X152224257Y-95953570D01*
X152285897Y-95972268D01*
X152350000Y-95978582D01*
X152650000Y-95978582D01*
X152714103Y-95972268D01*
X152750000Y-95961379D01*
X152785897Y-95972268D01*
X152850000Y-95978582D01*
X153150000Y-95978582D01*
X153214103Y-95972268D01*
X153275743Y-95953570D01*
X153332550Y-95923206D01*
X153382343Y-95882343D01*
X153423206Y-95832550D01*
X153453570Y-95775743D01*
X153472268Y-95714103D01*
X153478582Y-95650000D01*
X153478582Y-95110000D01*
X153472268Y-95045897D01*
X153453570Y-94984257D01*
X153423206Y-94927450D01*
X153382343Y-94877657D01*
X153332550Y-94836794D01*
X153275743Y-94806430D01*
X153214103Y-94787732D01*
X153150000Y-94781418D01*
X152850000Y-94781418D01*
X152785897Y-94787732D01*
X152750000Y-94798621D01*
X152714103Y-94787732D01*
X152650000Y-94781418D01*
X152350000Y-94781418D01*
X152285897Y-94787732D01*
X152224257Y-94806430D01*
X152167450Y-94836794D01*
X152117657Y-94877657D01*
X152076794Y-94927450D01*
X152046430Y-94984257D01*
X152027732Y-95045897D01*
X152021418Y-95110000D01*
X147978582Y-95110000D01*
X147972268Y-95045897D01*
X147953570Y-94984257D01*
X147923206Y-94927450D01*
X147882343Y-94877657D01*
X147832550Y-94836794D01*
X147775743Y-94806430D01*
X147714103Y-94787732D01*
X147650000Y-94781418D01*
X147350000Y-94781418D01*
X147285897Y-94787732D01*
X147224257Y-94806430D01*
X147167450Y-94836794D01*
X147117657Y-94877657D01*
X147076794Y-94927450D01*
X147046430Y-94984257D01*
X147027732Y-95045897D01*
X147021418Y-95110000D01*
X147021418Y-95521418D01*
X146610000Y-95521418D01*
X146545897Y-95527732D01*
X146484257Y-95546430D01*
X146427450Y-95576794D01*
X146377657Y-95617657D01*
X146336794Y-95667450D01*
X146306430Y-95724257D01*
X146287732Y-95785897D01*
X146281418Y-95850000D01*
X146281418Y-96150000D01*
X146287732Y-96214103D01*
X146298621Y-96250000D01*
X146287732Y-96285897D01*
X146285975Y-96303739D01*
X146228766Y-96218120D01*
X146151880Y-96141234D01*
X146061470Y-96080824D01*
X145961012Y-96039213D01*
X145854367Y-96018000D01*
X145745633Y-96018000D01*
X145638988Y-96039213D01*
X145538530Y-96080824D01*
X145448120Y-96141234D01*
X145371234Y-96218120D01*
X145310824Y-96308530D01*
X145269213Y-96408988D01*
X145248000Y-96515633D01*
X145248000Y-96520368D01*
X145218246Y-96556623D01*
X145207465Y-96576794D01*
X145178596Y-96630804D01*
X145154179Y-96711293D01*
X145148001Y-96774022D01*
X145148001Y-96774032D01*
X145145936Y-96794999D01*
X145148001Y-96815966D01*
X145148002Y-100134026D01*
X145145936Y-100155003D01*
X145154180Y-100238709D01*
X145178597Y-100319199D01*
X145218246Y-100393379D01*
X145258233Y-100442103D01*
X145258238Y-100442108D01*
X145271607Y-100458398D01*
X145287896Y-100471766D01*
X146103239Y-101287111D01*
X146113645Y-101299791D01*
X146054367Y-101288000D01*
X145945633Y-101288000D01*
X145838988Y-101309213D01*
X145738530Y-101350824D01*
X145648120Y-101411234D01*
X145571234Y-101488120D01*
X145510824Y-101578530D01*
X145469213Y-101678988D01*
X145448000Y-101785633D01*
X145448000Y-101894367D01*
X145469213Y-102001012D01*
X145510824Y-102101470D01*
X145571234Y-102191880D01*
X145607850Y-102228496D01*
X145551470Y-102190824D01*
X145451012Y-102149213D01*
X145344367Y-102128000D01*
X145235633Y-102128000D01*
X145128988Y-102149213D01*
X145028530Y-102190824D01*
X144938120Y-102251234D01*
X144861234Y-102328120D01*
X144800824Y-102418530D01*
X144759213Y-102518988D01*
X144738000Y-102625633D01*
X144738000Y-102734367D01*
X144759213Y-102841012D01*
X144800824Y-102941470D01*
X144861234Y-103031880D01*
X144938120Y-103108766D01*
X145028530Y-103169176D01*
X145128988Y-103210787D01*
X145235633Y-103232000D01*
X145282491Y-103232000D01*
X145282490Y-107226273D01*
X145280601Y-107245451D01*
X145288141Y-107322002D01*
X145303468Y-107372529D01*
X145310470Y-107395611D01*
X145346730Y-107463450D01*
X145395529Y-107522912D01*
X145410436Y-107535146D01*
X146210427Y-108335138D01*
X146210437Y-108335146D01*
X146316437Y-108441147D01*
X146309731Y-108443172D01*
X146280129Y-108451884D01*
X146279111Y-108452416D01*
X146278009Y-108452749D01*
X146275247Y-108454218D01*
X146275118Y-108454177D01*
X146274105Y-108453629D01*
X146244547Y-108444479D01*
X146215195Y-108435168D01*
X146214056Y-108435040D01*
X146212954Y-108434699D01*
X146182201Y-108431467D01*
X146151580Y-108428032D01*
X146149372Y-108428017D01*
X146149290Y-108428008D01*
X146149208Y-108428015D01*
X146147000Y-108428000D01*
X145230500Y-108428000D01*
X145230500Y-108314248D01*
X145197432Y-108148001D01*
X145132566Y-107991400D01*
X145038394Y-107850463D01*
X144918537Y-107730606D01*
X144777600Y-107636434D01*
X144620999Y-107571568D01*
X144454752Y-107538500D01*
X144285248Y-107538500D01*
X144119001Y-107571568D01*
X143962400Y-107636434D01*
X143821463Y-107730606D01*
X143701606Y-107850463D01*
X143607434Y-107991400D01*
X143542568Y-108148001D01*
X143509500Y-108314248D01*
X143509500Y-108483752D01*
X143542568Y-108649999D01*
X143607434Y-108806600D01*
X143701606Y-108947537D01*
X143821463Y-109067394D01*
X143871757Y-109101000D01*
X143545227Y-109101000D01*
X143521019Y-109042558D01*
X143440747Y-108922421D01*
X143338579Y-108820253D01*
X143218442Y-108739981D01*
X143084954Y-108684688D01*
X142943243Y-108656500D01*
X142798757Y-108656500D01*
X142657046Y-108684688D01*
X142523558Y-108739981D01*
X142403421Y-108820253D01*
X142301253Y-108922421D01*
X142220981Y-109042558D01*
X142196773Y-109101000D01*
X139559161Y-109101000D01*
X139560666Y-106497500D01*
X140838918Y-106497500D01*
X140838918Y-108222500D01*
X140845232Y-108286603D01*
X140863930Y-108348243D01*
X140894294Y-108405050D01*
X140935157Y-108454843D01*
X140984950Y-108495706D01*
X141041757Y-108526070D01*
X141103397Y-108544768D01*
X141167500Y-108551082D01*
X142892500Y-108551082D01*
X142956603Y-108544768D01*
X143018243Y-108526070D01*
X143075050Y-108495706D01*
X143124843Y-108454843D01*
X143165706Y-108405050D01*
X143196070Y-108348243D01*
X143214768Y-108286603D01*
X143221082Y-108222500D01*
X143221082Y-106497500D01*
X143214768Y-106433397D01*
X143196070Y-106371757D01*
X143165706Y-106314950D01*
X143124843Y-106265157D01*
X143075050Y-106224294D01*
X143018243Y-106193930D01*
X142956603Y-106175232D01*
X142892500Y-106168918D01*
X141167500Y-106168918D01*
X141103397Y-106175232D01*
X141041757Y-106193930D01*
X140984950Y-106224294D01*
X140935157Y-106265157D01*
X140894294Y-106314950D01*
X140863930Y-106371757D01*
X140845232Y-106433397D01*
X140838918Y-106497500D01*
X139560666Y-106497500D01*
X139563197Y-102122867D01*
X139580938Y-102212058D01*
X139635741Y-102344364D01*
X139715302Y-102463436D01*
X139816564Y-102564698D01*
X139935636Y-102644259D01*
X140067942Y-102699062D01*
X140208397Y-102727000D01*
X140351603Y-102727000D01*
X140492058Y-102699062D01*
X140624364Y-102644259D01*
X140743436Y-102564698D01*
X140844698Y-102463436D01*
X140924259Y-102344364D01*
X140979062Y-102212058D01*
X141007000Y-102071603D01*
X141007000Y-101928397D01*
X140979062Y-101787942D01*
X140924259Y-101655636D01*
X140859467Y-101558667D01*
X140864698Y-101553436D01*
X140944259Y-101434364D01*
X140999062Y-101302058D01*
X141027000Y-101161603D01*
X141027000Y-101018397D01*
X140999062Y-100877942D01*
X140944259Y-100745636D01*
X140864698Y-100626564D01*
X140763436Y-100525302D01*
X140644364Y-100445741D01*
X140512058Y-100390938D01*
X140432068Y-100375027D01*
X140462058Y-100369062D01*
X140594364Y-100314259D01*
X140713436Y-100234698D01*
X140814698Y-100133436D01*
X140894259Y-100014364D01*
X140949062Y-99882058D01*
X140977000Y-99741603D01*
X140977000Y-99598397D01*
X140949062Y-99457942D01*
X140894259Y-99325636D01*
X140828676Y-99227483D01*
X140904259Y-99114364D01*
X140959062Y-98982058D01*
X140987000Y-98841603D01*
X140987000Y-98698397D01*
X140959062Y-98557942D01*
X140904259Y-98425636D01*
X140824698Y-98306564D01*
X140723436Y-98205302D01*
X140604364Y-98125741D01*
X140472058Y-98070938D01*
X140331603Y-98043000D01*
X140188397Y-98043000D01*
X140047942Y-98070938D01*
X139915636Y-98125741D01*
X139796564Y-98205302D01*
X139695302Y-98306564D01*
X139615741Y-98425636D01*
X139565265Y-98547497D01*
X139566643Y-96165008D01*
X139571234Y-96171880D01*
X139648120Y-96248766D01*
X139738530Y-96309176D01*
X139838988Y-96350787D01*
X139945633Y-96372000D01*
X140054367Y-96372000D01*
X140161012Y-96350787D01*
X140261470Y-96309176D01*
X140351880Y-96248766D01*
X140352363Y-96248283D01*
X140428530Y-96299176D01*
X140528988Y-96340787D01*
X140635633Y-96362000D01*
X140744367Y-96362000D01*
X140851012Y-96340787D01*
X140951470Y-96299176D01*
X141041880Y-96238766D01*
X141118766Y-96161880D01*
X141179176Y-96071470D01*
X141220787Y-95971012D01*
X141242000Y-95864367D01*
X141242000Y-95755633D01*
X141220787Y-95648988D01*
X141179176Y-95548530D01*
X141118766Y-95458120D01*
X141041880Y-95381234D01*
X140951470Y-95320824D01*
X140851012Y-95279213D01*
X140744367Y-95258000D01*
X140635633Y-95258000D01*
X140528988Y-95279213D01*
X140428530Y-95320824D01*
X140338120Y-95381234D01*
X140337637Y-95381717D01*
X140261470Y-95330824D01*
X140161012Y-95289213D01*
X140054367Y-95268000D01*
X139945633Y-95268000D01*
X139838988Y-95289213D01*
X139738530Y-95330824D01*
X139648120Y-95391234D01*
X139571234Y-95468120D01*
X139567042Y-95474394D01*
X139568838Y-92369000D01*
X158336958Y-92369000D01*
X158322732Y-92415897D01*
G37*
X158322732Y-92415897D02*
X158316418Y-92480000D01*
X158316418Y-92741530D01*
X158094738Y-92963210D01*
X158077422Y-92977421D01*
X158020688Y-93046551D01*
X157998154Y-93088709D01*
X157978530Y-93125422D01*
X157952570Y-93211001D01*
X157950305Y-93234000D01*
X157946000Y-93277705D01*
X157946000Y-93277712D01*
X157945668Y-93281083D01*
X157937657Y-93287657D01*
X157933489Y-93292735D01*
X157909541Y-93300000D01*
X157881421Y-93308530D01*
X157802551Y-93350687D01*
X157733421Y-93407421D01*
X157719205Y-93424743D01*
X157528582Y-93615366D01*
X157528582Y-92845000D01*
X157522268Y-92780897D01*
X157503570Y-92719257D01*
X157473206Y-92662450D01*
X157432343Y-92612657D01*
X157382550Y-92571794D01*
X157325743Y-92541430D01*
X157264103Y-92522732D01*
X157200000Y-92516418D01*
X156180000Y-92516418D01*
X156115897Y-92522732D01*
X156054257Y-92541430D01*
X155997450Y-92571794D01*
X155947657Y-92612657D01*
X155906794Y-92662450D01*
X155876430Y-92719257D01*
X155857732Y-92780897D01*
X155851418Y-92845000D01*
X155851418Y-94315000D01*
X155857732Y-94379103D01*
X155876430Y-94440743D01*
X155906794Y-94497550D01*
X155947657Y-94547343D01*
X155997450Y-94588206D01*
X156054257Y-94618570D01*
X156115897Y-94637268D01*
X156180000Y-94643582D01*
X156771925Y-94643582D01*
X156909760Y-94781418D01*
X156850000Y-94781418D01*
X156785897Y-94787732D01*
X156750000Y-94798621D01*
X156714103Y-94787732D01*
X156650000Y-94781418D01*
X156350000Y-94781418D01*
X156285897Y-94787732D01*
X156224257Y-94806430D01*
X156167450Y-94836794D01*
X156117657Y-94877657D01*
X156076794Y-94927450D01*
X156046430Y-94984257D01*
X156027732Y-95045897D01*
X156021418Y-95110000D01*
X156021418Y-95650000D01*
X156023528Y-95671418D01*
X155976472Y-95671418D01*
X155978582Y-95650000D01*
X155978582Y-95110000D01*
X155972268Y-95045897D01*
X155953570Y-94984257D01*
X155923206Y-94927450D01*
X155882343Y-94877657D01*
X155832550Y-94836794D01*
X155775743Y-94806430D01*
X155714103Y-94787732D01*
X155650000Y-94781418D01*
X155350000Y-94781418D01*
X155285897Y-94787732D01*
X155250000Y-94798621D01*
X155214103Y-94787732D01*
X155150000Y-94781418D01*
X154850000Y-94781418D01*
X154785897Y-94787732D01*
X154750000Y-94798621D01*
X154714103Y-94787732D01*
X154650000Y-94781418D01*
X154350000Y-94781418D01*
X154285897Y-94787732D01*
X154250000Y-94798621D01*
X154214103Y-94787732D01*
X154150000Y-94781418D01*
X153850000Y-94781418D01*
X153785897Y-94787732D01*
X153724257Y-94806430D01*
X153667450Y-94836794D01*
X153617657Y-94877657D01*
X153576794Y-94927450D01*
X153546430Y-94984257D01*
X153527732Y-95045897D01*
X153521418Y-95110000D01*
X153521418Y-95650000D01*
X153527732Y-95714103D01*
X153546430Y-95775743D01*
X153576794Y-95832550D01*
X153609501Y-95872404D01*
X153609501Y-96000107D01*
X153435350Y-96174258D01*
X153420449Y-96186487D01*
X153371650Y-96245949D01*
X153350298Y-96285897D01*
X153335390Y-96313788D01*
X153313061Y-96387397D01*
X153305521Y-96463948D01*
X153307410Y-96483127D01*
X153307411Y-97816681D01*
X153269144Y-97854948D01*
X153208734Y-97945358D01*
X153167123Y-98045816D01*
X153145910Y-98152461D01*
X153145910Y-98261195D01*
X153167123Y-98367840D01*
X153208734Y-98468298D01*
X153269144Y-98558708D01*
X153346030Y-98635594D01*
X153436440Y-98696004D01*
X153536898Y-98737615D01*
X153643543Y-98758828D01*
X153752277Y-98758828D01*
X153858922Y-98737615D01*
X153959380Y-98696004D01*
X154049790Y-98635594D01*
X154126676Y-98558708D01*
X154187086Y-98468298D01*
X154219311Y-98390500D01*
X155489854Y-98390500D01*
X155528120Y-98428766D01*
X155618530Y-98489176D01*
X155718988Y-98530787D01*
X155825633Y-98552000D01*
X155934367Y-98552000D01*
X156041012Y-98530787D01*
X156141470Y-98489176D01*
X156231880Y-98428766D01*
X156308766Y-98351880D01*
X156369176Y-98261470D01*
X156410787Y-98161012D01*
X156432000Y-98054367D01*
X156432000Y-97945633D01*
X156410787Y-97838988D01*
X156369176Y-97738530D01*
X156308766Y-97648120D01*
X156231880Y-97571234D01*
X156141470Y-97510824D01*
X156041012Y-97469213D01*
X155934367Y-97448000D01*
X155825633Y-97448000D01*
X155718988Y-97469213D01*
X155618530Y-97510824D01*
X155528120Y-97571234D01*
X155489854Y-97609500D01*
X154476999Y-97609500D01*
X154476999Y-96908233D01*
X154768302Y-96616931D01*
X154785897Y-96622268D01*
X154850000Y-96628582D01*
X155150000Y-96628582D01*
X155214103Y-96622268D01*
X155250000Y-96611379D01*
X155285897Y-96622268D01*
X155350000Y-96628582D01*
X155650000Y-96628582D01*
X155714103Y-96622268D01*
X155750000Y-96611379D01*
X155785897Y-96622268D01*
X155850000Y-96628582D01*
X156150000Y-96628582D01*
X156214103Y-96622268D01*
X156250000Y-96611379D01*
X156285897Y-96622268D01*
X156350000Y-96628582D01*
X156650000Y-96628582D01*
X156714103Y-96622268D01*
X156775743Y-96603570D01*
X156832550Y-96573206D01*
X156882343Y-96532343D01*
X156923206Y-96482550D01*
X156953570Y-96425743D01*
X156972268Y-96364103D01*
X156978582Y-96300000D01*
X156978582Y-96000000D01*
X156976472Y-95978582D01*
X157150000Y-95978582D01*
X157214103Y-95972268D01*
X157250000Y-95961379D01*
X157285897Y-95972268D01*
X157350000Y-95978582D01*
X157650000Y-95978582D01*
X157714103Y-95972268D01*
X157775743Y-95953570D01*
X157832550Y-95923206D01*
X157870555Y-95892017D01*
X157863496Y-95927503D01*
X157863496Y-96036237D01*
X157884709Y-96142882D01*
X157926320Y-96243340D01*
X157986730Y-96333750D01*
X158063616Y-96410636D01*
X158154026Y-96471046D01*
X158254484Y-96512657D01*
X158361129Y-96533870D01*
X158469863Y-96533870D01*
X158576508Y-96512657D01*
X158595161Y-96504931D01*
X158617657Y-96532343D01*
X158667450Y-96573206D01*
X158724257Y-96603570D01*
X158785897Y-96622268D01*
X158850000Y-96628582D01*
X159150000Y-96628582D01*
X159214103Y-96622268D01*
X159250000Y-96611379D01*
X159285897Y-96622268D01*
X159350000Y-96628582D01*
X159650000Y-96628582D01*
X159714103Y-96622268D01*
X159750000Y-96611379D01*
X159785897Y-96622268D01*
X159850000Y-96628582D01*
X160150000Y-96628582D01*
X160214103Y-96622268D01*
X160250000Y-96611379D01*
X160285897Y-96622268D01*
X160350000Y-96628582D01*
X160650000Y-96628582D01*
X160714103Y-96622268D01*
X160775743Y-96603570D01*
X160832550Y-96573206D01*
X160882343Y-96532343D01*
X160923206Y-96482550D01*
X160953570Y-96425743D01*
X160972268Y-96364103D01*
X160978582Y-96300000D01*
X160978582Y-96000000D01*
X160976472Y-95978582D01*
X161150000Y-95978582D01*
X161214103Y-95972268D01*
X161250000Y-95961379D01*
X161285897Y-95972268D01*
X161350000Y-95978582D01*
X161650000Y-95978582D01*
X161714103Y-95972268D01*
X161750000Y-95961379D01*
X161785897Y-95972268D01*
X161850000Y-95978582D01*
X162021418Y-95978582D01*
X162021418Y-96150000D01*
X162027732Y-96214103D01*
X162038621Y-96250000D01*
X162027732Y-96285897D01*
X162021418Y-96350000D01*
X162021418Y-96650000D01*
X162027732Y-96714103D01*
X162038621Y-96750000D01*
X162027732Y-96785897D01*
X162021418Y-96850000D01*
X162021418Y-97150000D01*
X162027732Y-97214103D01*
X162046430Y-97275743D01*
X162076794Y-97332550D01*
X162117657Y-97382343D01*
X162167450Y-97423206D01*
X162224257Y-97453570D01*
X162285897Y-97472268D01*
X162350000Y-97478582D01*
X162763001Y-97478582D01*
X162763002Y-97521418D01*
X162350000Y-97521418D01*
X162285897Y-97527732D01*
X162224257Y-97546430D01*
X162167450Y-97576794D01*
X162117657Y-97617657D01*
X162076794Y-97667450D01*
X162046430Y-97724257D01*
X162027732Y-97785897D01*
X162021418Y-97850000D01*
X162021418Y-98150000D01*
X162027732Y-98214103D01*
X162038621Y-98250000D01*
X162027732Y-98285897D01*
X162021418Y-98350000D01*
X162021418Y-98650000D01*
X162027732Y-98714103D01*
X162038621Y-98750000D01*
X162027732Y-98785897D01*
X162021418Y-98850000D01*
X162021418Y-99150000D01*
X162027732Y-99214103D01*
X162046430Y-99275743D01*
X162076794Y-99332550D01*
X162117657Y-99382343D01*
X162167450Y-99423206D01*
X162224257Y-99453570D01*
X162285897Y-99472268D01*
X162350000Y-99478582D01*
X162890000Y-99478582D01*
X162954103Y-99472268D01*
X163015743Y-99453570D01*
X163072550Y-99423206D01*
X163122343Y-99382343D01*
X163163206Y-99332550D01*
X163193570Y-99275743D01*
X163212268Y-99214103D01*
X163218582Y-99150000D01*
X163218582Y-98949294D01*
X163230822Y-98950500D01*
X163230828Y-98950500D01*
X163249999Y-98952388D01*
X163269170Y-98950500D01*
X163503161Y-98950500D01*
X163490000Y-99016664D01*
X163490000Y-99103336D01*
X163506909Y-99188343D01*
X163540077Y-99268418D01*
X163558151Y-99295468D01*
X163579269Y-99365083D01*
X163614351Y-99430716D01*
X163661562Y-99488244D01*
X163675986Y-99500081D01*
X163877387Y-99701482D01*
X163867450Y-99706794D01*
X163817657Y-99747657D01*
X163776794Y-99797450D01*
X163746430Y-99854257D01*
X163727732Y-99915897D01*
X163721418Y-99980000D01*
X163721418Y-100420000D01*
X163722543Y-100431418D01*
X163365500Y-100431418D01*
X163301397Y-100437732D01*
X163239757Y-100456430D01*
X163218582Y-100467748D01*
X163218582Y-100350000D01*
X163212268Y-100285897D01*
X163201379Y-100250000D01*
X163212268Y-100214103D01*
X163218582Y-100150000D01*
X163218582Y-99850000D01*
X163212268Y-99785897D01*
X163193570Y-99724257D01*
X163163206Y-99667450D01*
X163122343Y-99617657D01*
X163072550Y-99576794D01*
X163015743Y-99546430D01*
X162954103Y-99527732D01*
X162890000Y-99521418D01*
X162350000Y-99521418D01*
X162285897Y-99527732D01*
X162224257Y-99546430D01*
X162167450Y-99576794D01*
X162117657Y-99617657D01*
X162076794Y-99667450D01*
X162046430Y-99724257D01*
X162027732Y-99785897D01*
X162021418Y-99850000D01*
X162021418Y-100150000D01*
X162027732Y-100214103D01*
X162038621Y-100250000D01*
X162027732Y-100285897D01*
X162021418Y-100350000D01*
X162021418Y-100650000D01*
X162027732Y-100714103D01*
X162038621Y-100750000D01*
X162027732Y-100785897D01*
X162021418Y-100850000D01*
X162021418Y-101150000D01*
X162027732Y-101214103D01*
X162038621Y-101250000D01*
X162027732Y-101285897D01*
X162021418Y-101350000D01*
X162021418Y-101650000D01*
X162027732Y-101714103D01*
X162046430Y-101775743D01*
X162076794Y-101832550D01*
X162117657Y-101882343D01*
X162167450Y-101923206D01*
X162224257Y-101953570D01*
X162285897Y-101972268D01*
X162350000Y-101978582D01*
X162763001Y-101978582D01*
X162763001Y-102021418D01*
X162350000Y-102021418D01*
X162285897Y-102027732D01*
X162224257Y-102046430D01*
X162167450Y-102076794D01*
X162117657Y-102117657D01*
X162076794Y-102167450D01*
X162046430Y-102224257D01*
X162027732Y-102285897D01*
X162021418Y-102350000D01*
X162021418Y-102650000D01*
X162027732Y-102714103D01*
X162038621Y-102750000D01*
X162027732Y-102785897D01*
X162021418Y-102850000D01*
X162021418Y-103150000D01*
X162027732Y-103214103D01*
X162046430Y-103275743D01*
X162076794Y-103332550D01*
X162117657Y-103382343D01*
X162167450Y-103423206D01*
X162224257Y-103453570D01*
X162285897Y-103472268D01*
X162350000Y-103478582D01*
X162890000Y-103478582D01*
X162954103Y-103472268D01*
X163015743Y-103453570D01*
X163072550Y-103423206D01*
X163110028Y-103392449D01*
X163110950Y-103393206D01*
X163167757Y-103423570D01*
X163229397Y-103442268D01*
X163293500Y-103448582D01*
X163758500Y-103448582D01*
X163822603Y-103442268D01*
X163884243Y-103423570D01*
X163941050Y-103393206D01*
X163990843Y-103352343D01*
X164031706Y-103302550D01*
X164062070Y-103245743D01*
X164080768Y-103184103D01*
X164087082Y-103120000D01*
X164087082Y-102680000D01*
X164080768Y-102615897D01*
X164062070Y-102554257D01*
X164031706Y-102497450D01*
X163990843Y-102447657D01*
X163941050Y-102406794D01*
X163884243Y-102376430D01*
X163822603Y-102357732D01*
X163758500Y-102351418D01*
X163544001Y-102351418D01*
X163544001Y-102301730D01*
X163595633Y-102312000D01*
X163704367Y-102312000D01*
X163771824Y-102298582D01*
X163880000Y-102298582D01*
X163944103Y-102292268D01*
X164005743Y-102273570D01*
X164062550Y-102243206D01*
X164112343Y-102202343D01*
X164153206Y-102152550D01*
X164183570Y-102095743D01*
X164202268Y-102034103D01*
X164208582Y-101970000D01*
X164208582Y-101550000D01*
X164202268Y-101485897D01*
X164183570Y-101424257D01*
X164153206Y-101367450D01*
X164128118Y-101336879D01*
X164134070Y-101325743D01*
X164152768Y-101264103D01*
X164159082Y-101200000D01*
X164159082Y-100760000D01*
X164157957Y-100748582D01*
X164520000Y-100748582D01*
X164530590Y-100747539D01*
X164530591Y-104025119D01*
X164433511Y-104122200D01*
X163218582Y-104122200D01*
X163218582Y-103850000D01*
X163212268Y-103785897D01*
X163193570Y-103724257D01*
X163163206Y-103667450D01*
X163122343Y-103617657D01*
X163072550Y-103576794D01*
X163015743Y-103546430D01*
X162954103Y-103527732D01*
X162890000Y-103521418D01*
X162350000Y-103521418D01*
X162285897Y-103527732D01*
X162224257Y-103546430D01*
X162167450Y-103576794D01*
X162117657Y-103617657D01*
X162076794Y-103667450D01*
X162046430Y-103724257D01*
X162027732Y-103785897D01*
X162021418Y-103850000D01*
X162021418Y-104150000D01*
X162027732Y-104214103D01*
X162038621Y-104250000D01*
X162027732Y-104285897D01*
X162021418Y-104350000D01*
X162021418Y-104650000D01*
X162027732Y-104714103D01*
X162038621Y-104750000D01*
X162027732Y-104785897D01*
X162021418Y-104850000D01*
X162021418Y-105021418D01*
X161850000Y-105021418D01*
X161785897Y-105027732D01*
X161750000Y-105038621D01*
X161714103Y-105027732D01*
X161650000Y-105021418D01*
X161350000Y-105021418D01*
X161285897Y-105027732D01*
X161250000Y-105038621D01*
X161214103Y-105027732D01*
X161150000Y-105021418D01*
X160976472Y-105021418D01*
X160978582Y-105000000D01*
X160978582Y-104700000D01*
X160972268Y-104635897D01*
X160953570Y-104574257D01*
X160923206Y-104517450D01*
X160882343Y-104467657D01*
X160832550Y-104426794D01*
X160775743Y-104396430D01*
X160714103Y-104377732D01*
X160650000Y-104371418D01*
X160350000Y-104371418D01*
X160285897Y-104377732D01*
X160250000Y-104388621D01*
X160214103Y-104377732D01*
X160150000Y-104371418D01*
X159850000Y-104371418D01*
X159785897Y-104377732D01*
X159750000Y-104388621D01*
X159714103Y-104377732D01*
X159650000Y-104371418D01*
X159350000Y-104371418D01*
X159285897Y-104377732D01*
X159250000Y-104388621D01*
X159214103Y-104377732D01*
X159150000Y-104371418D01*
X158850000Y-104371418D01*
X158785897Y-104377732D01*
X158724257Y-104396430D01*
X158667450Y-104426794D01*
X158617657Y-104467657D01*
X158576794Y-104517450D01*
X158546430Y-104574257D01*
X158527732Y-104635897D01*
X158521418Y-104700000D01*
X158521418Y-105000000D01*
X158523528Y-105021418D01*
X158350000Y-105021418D01*
X158285897Y-105027732D01*
X158250000Y-105038621D01*
X158214103Y-105027732D01*
X158150000Y-105021418D01*
X157850000Y-105021418D01*
X157785897Y-105027732D01*
X157724257Y-105046430D01*
X157667450Y-105076794D01*
X157617657Y-105117657D01*
X157576794Y-105167450D01*
X157546430Y-105224257D01*
X157527732Y-105285897D01*
X157521418Y-105350000D01*
X157521418Y-105890000D01*
X157527732Y-105954103D01*
X157546430Y-106015743D01*
X157576794Y-106072550D01*
X157617657Y-106122343D01*
X157667450Y-106163206D01*
X157724257Y-106193570D01*
X157785897Y-106212268D01*
X157850000Y-106218582D01*
X158150000Y-106218582D01*
X158214103Y-106212268D01*
X158250000Y-106201379D01*
X158285897Y-106212268D01*
X158350000Y-106218582D01*
X158650000Y-106218582D01*
X158714103Y-106212268D01*
X158750000Y-106201379D01*
X158785897Y-106212268D01*
X158850000Y-106218582D01*
X159150000Y-106218582D01*
X159214103Y-106212268D01*
X159275743Y-106193570D01*
X159332550Y-106163206D01*
X159382343Y-106122343D01*
X159423206Y-106072550D01*
X159453570Y-106015743D01*
X159472268Y-105954103D01*
X159478582Y-105890000D01*
X159478582Y-105350000D01*
X159476472Y-105328582D01*
X159523528Y-105328582D01*
X159521418Y-105350000D01*
X159521418Y-105890000D01*
X159527732Y-105954103D01*
X159546430Y-106015743D01*
X159576794Y-106072550D01*
X159617657Y-106122343D01*
X159667450Y-106163206D01*
X159724257Y-106193570D01*
X159785897Y-106212268D01*
X159850000Y-106218582D01*
X160150000Y-106218582D01*
X160214103Y-106212268D01*
X160250000Y-106201379D01*
X160285897Y-106212268D01*
X160350000Y-106218582D01*
X160588175Y-106218582D01*
X160576794Y-106232450D01*
X160546430Y-106289257D01*
X160527732Y-106350897D01*
X160521418Y-106415000D01*
X160521418Y-107885000D01*
X160527732Y-107949103D01*
X160546430Y-108010743D01*
X160576794Y-108067550D01*
X160617657Y-108117343D01*
X160667450Y-108158206D01*
X160724257Y-108188570D01*
X160785897Y-108207268D01*
X160850000Y-108213582D01*
X161572452Y-108213582D01*
X161577407Y-108263895D01*
X161610629Y-108373414D01*
X161639965Y-108428298D01*
X161612281Y-108431012D01*
X161581539Y-108433810D01*
X161580436Y-108434135D01*
X161579291Y-108434247D01*
X161549731Y-108443172D01*
X161520129Y-108451884D01*
X161519111Y-108452416D01*
X161518009Y-108452749D01*
X161515247Y-108454218D01*
X161515118Y-108454177D01*
X161514105Y-108453629D01*
X161484547Y-108444479D01*
X161455195Y-108435168D01*
X161454056Y-108435040D01*
X161452954Y-108434699D01*
X161422201Y-108431467D01*
X161391580Y-108428032D01*
X161389372Y-108428017D01*
X161389290Y-108428008D01*
X161389208Y-108428015D01*
X161387000Y-108428000D01*
X160373000Y-108428000D01*
X160342281Y-108431012D01*
X160311539Y-108433810D01*
X160310436Y-108434135D01*
X160309291Y-108434247D01*
X160279731Y-108443172D01*
X160250129Y-108451884D01*
X160249111Y-108452416D01*
X160248009Y-108452749D01*
X160245247Y-108454218D01*
X160245118Y-108454177D01*
X160244105Y-108453629D01*
X160214547Y-108444479D01*
X160185195Y-108435168D01*
X160184056Y-108435040D01*
X160182954Y-108434699D01*
X160152201Y-108431467D01*
X160121580Y-108428032D01*
X160119372Y-108428017D01*
X160119290Y-108428008D01*
X160119208Y-108428015D01*
X160117000Y-108428000D01*
X159701959Y-108428000D01*
X159696339Y-108370939D01*
X159695397Y-108367831D01*
X159674010Y-108297329D01*
X159668277Y-108286603D01*
X159637750Y-108229490D01*
X159588951Y-108170029D01*
X159574051Y-108157801D01*
X158935082Y-107518832D01*
X158935082Y-107230000D01*
X158928768Y-107165897D01*
X158910070Y-107104257D01*
X158879706Y-107047450D01*
X158838843Y-106997657D01*
X158789050Y-106956794D01*
X158732243Y-106926430D01*
X158670603Y-106907732D01*
X158606500Y-106901418D01*
X157981500Y-106901418D01*
X157917397Y-106907732D01*
X157882000Y-106918469D01*
X157846603Y-106907732D01*
X157782500Y-106901418D01*
X157630949Y-106901418D01*
X157642268Y-106864103D01*
X157648582Y-106800000D01*
X157648582Y-106380000D01*
X157642268Y-106315897D01*
X157623570Y-106254257D01*
X157593206Y-106197450D01*
X157552343Y-106147657D01*
X157502550Y-106106794D01*
X157445743Y-106076430D01*
X157424566Y-106070006D01*
X157453570Y-106015743D01*
X157472268Y-105954103D01*
X157478582Y-105890000D01*
X157478582Y-105350000D01*
X157472268Y-105285897D01*
X157453570Y-105224257D01*
X157423206Y-105167450D01*
X157382343Y-105117657D01*
X157332550Y-105076794D01*
X157275743Y-105046430D01*
X157214103Y-105027732D01*
X157150000Y-105021418D01*
X156976472Y-105021418D01*
X156978582Y-105000000D01*
X156978582Y-104700000D01*
X156972268Y-104635897D01*
X156953570Y-104574257D01*
X156923206Y-104517450D01*
X156882343Y-104467657D01*
X156832550Y-104426794D01*
X156775743Y-104396430D01*
X156714103Y-104377732D01*
X156650000Y-104371418D01*
X156350000Y-104371418D01*
X156285897Y-104377732D01*
X156250000Y-104388621D01*
X156214103Y-104377732D01*
X156150000Y-104371418D01*
X155850000Y-104371418D01*
X155785897Y-104377732D01*
X155750000Y-104388621D01*
X155714103Y-104377732D01*
X155650000Y-104371418D01*
X155350000Y-104371418D01*
X155285897Y-104377732D01*
X155250000Y-104388621D01*
X155214103Y-104377732D01*
X155150000Y-104371418D01*
X154850000Y-104371418D01*
X154785897Y-104377732D01*
X154724257Y-104396430D01*
X154667450Y-104426794D01*
X154617657Y-104467657D01*
X154576794Y-104517450D01*
X154546430Y-104574257D01*
X154527732Y-104635897D01*
X154521418Y-104700000D01*
X154521418Y-105000000D01*
X154523528Y-105021418D01*
X154350000Y-105021418D01*
X154285897Y-105027732D01*
X154250000Y-105038621D01*
X154214103Y-105027732D01*
X154150000Y-105021418D01*
X153850000Y-105021418D01*
X153785897Y-105027732D01*
X153750000Y-105038621D01*
X153714103Y-105027732D01*
X153650000Y-105021418D01*
X153582851Y-105021418D01*
X153585089Y-105016014D01*
X153606302Y-104909369D01*
X153606302Y-104800635D01*
X153585089Y-104693990D01*
X153584349Y-104692203D01*
X153992561Y-104283991D01*
X154007461Y-104271763D01*
X154056260Y-104212302D01*
X154092520Y-104144463D01*
X154114849Y-104070853D01*
X154120500Y-104013480D01*
X154120500Y-104013474D01*
X154122388Y-103994303D01*
X154120500Y-103975132D01*
X154120500Y-100525955D01*
X154128441Y-100518014D01*
X154188851Y-100427604D01*
X154230462Y-100327146D01*
X154251675Y-100220501D01*
X154251675Y-100111767D01*
X154230462Y-100005122D01*
X154188851Y-99904664D01*
X154128441Y-99814254D01*
X154051555Y-99737368D01*
X153961145Y-99676958D01*
X153860687Y-99635347D01*
X153754042Y-99614134D01*
X153645308Y-99614134D01*
X153538663Y-99635347D01*
X153438205Y-99676958D01*
X153347795Y-99737368D01*
X153270909Y-99814254D01*
X153210499Y-99904664D01*
X153168888Y-100005122D01*
X153147675Y-100111767D01*
X153147675Y-100220501D01*
X153168888Y-100327146D01*
X153210499Y-100427604D01*
X153270909Y-100518014D01*
X153339501Y-100586606D01*
X153339500Y-103832552D01*
X152815697Y-104356355D01*
X152792832Y-104365826D01*
X152702422Y-104426236D01*
X152625536Y-104503122D01*
X152614788Y-104519208D01*
X152593527Y-104467879D01*
X152533117Y-104377469D01*
X152456231Y-104300583D01*
X152365821Y-104240173D01*
X152265363Y-104198562D01*
X152158718Y-104177349D01*
X152113080Y-104177349D01*
X152032519Y-104096788D01*
X152020681Y-104082363D01*
X151963153Y-104035152D01*
X151897520Y-104000070D01*
X151826305Y-103978467D01*
X151770804Y-103973001D01*
X151770801Y-103973001D01*
X151752243Y-103971173D01*
X151733685Y-103973001D01*
X150424794Y-103973001D01*
X150391465Y-103923120D01*
X150390092Y-103921747D01*
X150412883Y-103887638D01*
X150454494Y-103787180D01*
X150475707Y-103680535D01*
X150475707Y-103571801D01*
X150454494Y-103465156D01*
X150412883Y-103364698D01*
X150352473Y-103274288D01*
X150301507Y-103223322D01*
X150301507Y-101632265D01*
X150303335Y-101613706D01*
X150301507Y-101595146D01*
X150296041Y-101539645D01*
X150274438Y-101468430D01*
X150258107Y-101437878D01*
X150239356Y-101402796D01*
X150216914Y-101375451D01*
X150192145Y-101345269D01*
X150177725Y-101333435D01*
X150132000Y-101287710D01*
X150132000Y-101215633D01*
X150110787Y-101108988D01*
X150069176Y-101008530D01*
X150008766Y-100918120D01*
X149931880Y-100841234D01*
X149841470Y-100780824D01*
X149741012Y-100739213D01*
X149634367Y-100718000D01*
X149525633Y-100718000D01*
X149418988Y-100739213D01*
X149318530Y-100780824D01*
X149228120Y-100841234D01*
X149151234Y-100918120D01*
X149090824Y-101008530D01*
X149049213Y-101108988D01*
X149028000Y-101215633D01*
X149028000Y-101324367D01*
X149049213Y-101431012D01*
X149090824Y-101531470D01*
X149151234Y-101621880D01*
X149228120Y-101698766D01*
X149318530Y-101759176D01*
X149418988Y-101800787D01*
X149525633Y-101822000D01*
X149545908Y-101822000D01*
X149545908Y-102337887D01*
X149502274Y-102329208D01*
X149393540Y-102329208D01*
X149286895Y-102350421D01*
X149186437Y-102392032D01*
X149096027Y-102452442D01*
X149019141Y-102529328D01*
X148958731Y-102619738D01*
X148937332Y-102671399D01*
X148167917Y-102671399D01*
X148149359Y-102669571D01*
X148130801Y-102671399D01*
X148130798Y-102671399D01*
X148075297Y-102676865D01*
X148004082Y-102698468D01*
X147938449Y-102733550D01*
X147880921Y-102780761D01*
X147869083Y-102795186D01*
X147845186Y-102819083D01*
X147830761Y-102830921D01*
X147798761Y-102869915D01*
X147783550Y-102888449D01*
X147775280Y-102903922D01*
X147748468Y-102954083D01*
X147726865Y-103025298D01*
X147723153Y-103062990D01*
X147719571Y-103099359D01*
X147721399Y-103117918D01*
X147721400Y-104282073D01*
X147719571Y-104300641D01*
X147724433Y-104350000D01*
X147726866Y-104374703D01*
X147742668Y-104426794D01*
X147748469Y-104445918D01*
X147783550Y-104511551D01*
X147806896Y-104539998D01*
X147830762Y-104569079D01*
X147845181Y-104580912D01*
X148291453Y-105027185D01*
X148285897Y-105027732D01*
X148224257Y-105046430D01*
X148167450Y-105076794D01*
X148117657Y-105117657D01*
X148076794Y-105167450D01*
X148046430Y-105224257D01*
X148027732Y-105285897D01*
X148021418Y-105350000D01*
X148021418Y-105763002D01*
X147978582Y-105763002D01*
X147978582Y-105350000D01*
X147972268Y-105285897D01*
X147953570Y-105224257D01*
X147923206Y-105167450D01*
X147882343Y-105117657D01*
X147832550Y-105076794D01*
X147775743Y-105046430D01*
X147714103Y-105027732D01*
X147650000Y-105021418D01*
X147478582Y-105021418D01*
X147478582Y-104850000D01*
X147472268Y-104785897D01*
X147461379Y-104750000D01*
X147472268Y-104714103D01*
X147478582Y-104650000D01*
X147478582Y-104350000D01*
X147472268Y-104285897D01*
X147461379Y-104250000D01*
X147472268Y-104214103D01*
X147478582Y-104150000D01*
X147478582Y-103850000D01*
X147472268Y-103785897D01*
X147453570Y-103724257D01*
X147423206Y-103667450D01*
X147382343Y-103617657D01*
X147332550Y-103576794D01*
X147275743Y-103546430D01*
X147214103Y-103527732D01*
X147150000Y-103521418D01*
X146610000Y-103521418D01*
X146545897Y-103527732D01*
X146484257Y-103546430D01*
X146427450Y-103576794D01*
X146390500Y-103607117D01*
X146390500Y-103392883D01*
X146427450Y-103423206D01*
X146484257Y-103453570D01*
X146545897Y-103472268D01*
X146610000Y-103478582D01*
X147150000Y-103478582D01*
X147214103Y-103472268D01*
X147275743Y-103453570D01*
X147332550Y-103423206D01*
X147382343Y-103382343D01*
X147423206Y-103332550D01*
X147453570Y-103275743D01*
X147472268Y-103214103D01*
X147478582Y-103150000D01*
X147478582Y-102850000D01*
X147472268Y-102785897D01*
X147461379Y-102750000D01*
X147472268Y-102714103D01*
X147478582Y-102650000D01*
X147478582Y-102350000D01*
X147472268Y-102285897D01*
X147461379Y-102250000D01*
X147472268Y-102214103D01*
X147478582Y-102150000D01*
X147478582Y-101850000D01*
X147472268Y-101785897D01*
X147453570Y-101724257D01*
X147423206Y-101667450D01*
X147382343Y-101617657D01*
X147332550Y-101576794D01*
X147275743Y-101546430D01*
X147214103Y-101527732D01*
X147150000Y-101521418D01*
X146610000Y-101521418D01*
X146545897Y-101527732D01*
X146484257Y-101546430D01*
X146472077Y-101552940D01*
X146428766Y-101488120D01*
X146364218Y-101423572D01*
X146399020Y-101427000D01*
X146399030Y-101427000D01*
X146419997Y-101429065D01*
X146435546Y-101427534D01*
X146484257Y-101453570D01*
X146545897Y-101472268D01*
X146610000Y-101478582D01*
X147150000Y-101478582D01*
X147214103Y-101472268D01*
X147275743Y-101453570D01*
X147332550Y-101423206D01*
X147382343Y-101382343D01*
X147423206Y-101332550D01*
X147453570Y-101275743D01*
X147472268Y-101214103D01*
X147478582Y-101150000D01*
X147478582Y-100850000D01*
X147472268Y-100785897D01*
X147453570Y-100724257D01*
X147423206Y-100667450D01*
X147382343Y-100617657D01*
X147332550Y-100576794D01*
X147275743Y-100546430D01*
X147214103Y-100527732D01*
X147150000Y-100521418D01*
X146610000Y-100521418D01*
X146551088Y-100527221D01*
X146002001Y-99978135D01*
X146002001Y-99350000D01*
X146281418Y-99350000D01*
X146281418Y-99650000D01*
X146287732Y-99714103D01*
X146306430Y-99775743D01*
X146336794Y-99832550D01*
X146377657Y-99882343D01*
X146427450Y-99923206D01*
X146484257Y-99953570D01*
X146545897Y-99972268D01*
X146610000Y-99978582D01*
X147150000Y-99978582D01*
X147214103Y-99972268D01*
X147275743Y-99953570D01*
X147332550Y-99923206D01*
X147382343Y-99882343D01*
X147423206Y-99832550D01*
X147453570Y-99775743D01*
X147472268Y-99714103D01*
X147478582Y-99650000D01*
X147478582Y-99350000D01*
X147472268Y-99285897D01*
X147453570Y-99224257D01*
X147423206Y-99167450D01*
X147382343Y-99117657D01*
X147332550Y-99076794D01*
X147275743Y-99046430D01*
X147214103Y-99027732D01*
X147150000Y-99021418D01*
X146610000Y-99021418D01*
X146545897Y-99027732D01*
X146484257Y-99046430D01*
X146427450Y-99076794D01*
X146377657Y-99117657D01*
X146336794Y-99167450D01*
X146306430Y-99224257D01*
X146287732Y-99285897D01*
X146281418Y-99350000D01*
X146002001Y-99350000D01*
X146002001Y-98380111D01*
X146063988Y-98405787D01*
X146170633Y-98427000D01*
X146279367Y-98427000D01*
X146295811Y-98423729D01*
X146329022Y-98427000D01*
X146329033Y-98427000D01*
X146350000Y-98429065D01*
X146370967Y-98427000D01*
X146434548Y-98427000D01*
X146484257Y-98453570D01*
X146545897Y-98472268D01*
X146610000Y-98478582D01*
X147150000Y-98478582D01*
X147214103Y-98472268D01*
X147275743Y-98453570D01*
X147332550Y-98423206D01*
X147382343Y-98382343D01*
X147423206Y-98332550D01*
X147453570Y-98275743D01*
X147472268Y-98214103D01*
X147478582Y-98150000D01*
X147478582Y-97850000D01*
X147472268Y-97785897D01*
X147461379Y-97750000D01*
X147472268Y-97714103D01*
X147478582Y-97650000D01*
X147478582Y-97350000D01*
X147472268Y-97285897D01*
X147461379Y-97250000D01*
X147472268Y-97214103D01*
X147478582Y-97150000D01*
X147478582Y-96850000D01*
X147472268Y-96785897D01*
X147461379Y-96750000D01*
X147472268Y-96714103D01*
X147478582Y-96650000D01*
X147478582Y-96350000D01*
X147472268Y-96285897D01*
X147461379Y-96250000D01*
X147472268Y-96214103D01*
X147478582Y-96150000D01*
X147478582Y-96000000D01*
X149521418Y-96000000D01*
X149521418Y-96300000D01*
X149527732Y-96364103D01*
X149546430Y-96425743D01*
X149576794Y-96482550D01*
X149617657Y-96532343D01*
X149667450Y-96573206D01*
X149724257Y-96603570D01*
X149785897Y-96622268D01*
X149850000Y-96628582D01*
X150150000Y-96628582D01*
X150214103Y-96622268D01*
X150250000Y-96611379D01*
X150285897Y-96622268D01*
X150350000Y-96628582D01*
X150650000Y-96628582D01*
X150714103Y-96622268D01*
X150750000Y-96611379D01*
X150785897Y-96622268D01*
X150850000Y-96628582D01*
X151150000Y-96628582D01*
X151214103Y-96622268D01*
X151250000Y-96611379D01*
X151285897Y-96622268D01*
X151350000Y-96628582D01*
X151650000Y-96628582D01*
X151714103Y-96622268D01*
X151775743Y-96603570D01*
X151832550Y-96573206D01*
X151882343Y-96532343D01*
X151923206Y-96482550D01*
X151953570Y-96425743D01*
X151972268Y-96364103D01*
X151978582Y-96300000D01*
X151978582Y-96000000D01*
X151972268Y-95935897D01*
X151953570Y-95874257D01*
X151923206Y-95817450D01*
X151882343Y-95767657D01*
X151832550Y-95726794D01*
X151775743Y-95696430D01*
X151714103Y-95677732D01*
X151650000Y-95671418D01*
X151350000Y-95671418D01*
X151285897Y-95677732D01*
X151250000Y-95688621D01*
X151214103Y-95677732D01*
X151150000Y-95671418D01*
X150850000Y-95671418D01*
X150785897Y-95677732D01*
X150750000Y-95688621D01*
X150714103Y-95677732D01*
X150650000Y-95671418D01*
X150350000Y-95671418D01*
X150285897Y-95677732D01*
X150250000Y-95688621D01*
X150214103Y-95677732D01*
X150150000Y-95671418D01*
X149850000Y-95671418D01*
X149785897Y-95677732D01*
X149724257Y-95696430D01*
X149667450Y-95726794D01*
X149617657Y-95767657D01*
X149576794Y-95817450D01*
X149546430Y-95874257D01*
X149527732Y-95935897D01*
X149521418Y-96000000D01*
X147478582Y-96000000D01*
X147478582Y-95978582D01*
X147650000Y-95978582D01*
X147714103Y-95972268D01*
X147775743Y-95953570D01*
X147832550Y-95923206D01*
X147882343Y-95882343D01*
X147923206Y-95832550D01*
X147953570Y-95775743D01*
X147972268Y-95714103D01*
X147978582Y-95650000D01*
X147978582Y-95110000D01*
X152021418Y-95110000D01*
X152021418Y-95650000D01*
X152027732Y-95714103D01*
X152046430Y-95775743D01*
X152076794Y-95832550D01*
X152117657Y-95882343D01*
X152167450Y-95923206D01*
X152224257Y-95953570D01*
X152285897Y-95972268D01*
X152350000Y-95978582D01*
X152650000Y-95978582D01*
X152714103Y-95972268D01*
X152750000Y-95961379D01*
X152785897Y-95972268D01*
X152850000Y-95978582D01*
X153150000Y-95978582D01*
X153214103Y-95972268D01*
X153275743Y-95953570D01*
X153332550Y-95923206D01*
X153382343Y-95882343D01*
X153423206Y-95832550D01*
X153453570Y-95775743D01*
X153472268Y-95714103D01*
X153478582Y-95650000D01*
X153478582Y-95110000D01*
X153472268Y-95045897D01*
X153453570Y-94984257D01*
X153423206Y-94927450D01*
X153382343Y-94877657D01*
X153332550Y-94836794D01*
X153275743Y-94806430D01*
X153214103Y-94787732D01*
X153150000Y-94781418D01*
X152850000Y-94781418D01*
X152785897Y-94787732D01*
X152750000Y-94798621D01*
X152714103Y-94787732D01*
X152650000Y-94781418D01*
X152350000Y-94781418D01*
X152285897Y-94787732D01*
X152224257Y-94806430D01*
X152167450Y-94836794D01*
X152117657Y-94877657D01*
X152076794Y-94927450D01*
X152046430Y-94984257D01*
X152027732Y-95045897D01*
X152021418Y-95110000D01*
X147978582Y-95110000D01*
X147972268Y-95045897D01*
X147953570Y-94984257D01*
X147923206Y-94927450D01*
X147882343Y-94877657D01*
X147832550Y-94836794D01*
X147775743Y-94806430D01*
X147714103Y-94787732D01*
X147650000Y-94781418D01*
X147350000Y-94781418D01*
X147285897Y-94787732D01*
X147224257Y-94806430D01*
X147167450Y-94836794D01*
X147117657Y-94877657D01*
X147076794Y-94927450D01*
X147046430Y-94984257D01*
X147027732Y-95045897D01*
X147021418Y-95110000D01*
X147021418Y-95521418D01*
X146610000Y-95521418D01*
X146545897Y-95527732D01*
X146484257Y-95546430D01*
X146427450Y-95576794D01*
X146377657Y-95617657D01*
X146336794Y-95667450D01*
X146306430Y-95724257D01*
X146287732Y-95785897D01*
X146281418Y-95850000D01*
X146281418Y-96150000D01*
X146287732Y-96214103D01*
X146298621Y-96250000D01*
X146287732Y-96285897D01*
X146285975Y-96303739D01*
X146228766Y-96218120D01*
X146151880Y-96141234D01*
X146061470Y-96080824D01*
X145961012Y-96039213D01*
X145854367Y-96018000D01*
X145745633Y-96018000D01*
X145638988Y-96039213D01*
X145538530Y-96080824D01*
X145448120Y-96141234D01*
X145371234Y-96218120D01*
X145310824Y-96308530D01*
X145269213Y-96408988D01*
X145248000Y-96515633D01*
X145248000Y-96520368D01*
X145218246Y-96556623D01*
X145207465Y-96576794D01*
X145178596Y-96630804D01*
X145154179Y-96711293D01*
X145148001Y-96774022D01*
X145148001Y-96774032D01*
X145145936Y-96794999D01*
X145148001Y-96815966D01*
X145148002Y-100134026D01*
X145145936Y-100155003D01*
X145154180Y-100238709D01*
X145178597Y-100319199D01*
X145218246Y-100393379D01*
X145258233Y-100442103D01*
X145258238Y-100442108D01*
X145271607Y-100458398D01*
X145287896Y-100471766D01*
X146103239Y-101287111D01*
X146113645Y-101299791D01*
X146054367Y-101288000D01*
X145945633Y-101288000D01*
X145838988Y-101309213D01*
X145738530Y-101350824D01*
X145648120Y-101411234D01*
X145571234Y-101488120D01*
X145510824Y-101578530D01*
X145469213Y-101678988D01*
X145448000Y-101785633D01*
X145448000Y-101894367D01*
X145469213Y-102001012D01*
X145510824Y-102101470D01*
X145571234Y-102191880D01*
X145607850Y-102228496D01*
X145551470Y-102190824D01*
X145451012Y-102149213D01*
X145344367Y-102128000D01*
X145235633Y-102128000D01*
X145128988Y-102149213D01*
X145028530Y-102190824D01*
X144938120Y-102251234D01*
X144861234Y-102328120D01*
X144800824Y-102418530D01*
X144759213Y-102518988D01*
X144738000Y-102625633D01*
X144738000Y-102734367D01*
X144759213Y-102841012D01*
X144800824Y-102941470D01*
X144861234Y-103031880D01*
X144938120Y-103108766D01*
X145028530Y-103169176D01*
X145128988Y-103210787D01*
X145235633Y-103232000D01*
X145282491Y-103232000D01*
X145282490Y-107226273D01*
X145280601Y-107245451D01*
X145288141Y-107322002D01*
X145303468Y-107372529D01*
X145310470Y-107395611D01*
X145346730Y-107463450D01*
X145395529Y-107522912D01*
X145410436Y-107535146D01*
X146210427Y-108335138D01*
X146210437Y-108335146D01*
X146316437Y-108441147D01*
X146309731Y-108443172D01*
X146280129Y-108451884D01*
X146279111Y-108452416D01*
X146278009Y-108452749D01*
X146275247Y-108454218D01*
X146275118Y-108454177D01*
X146274105Y-108453629D01*
X146244547Y-108444479D01*
X146215195Y-108435168D01*
X146214056Y-108435040D01*
X146212954Y-108434699D01*
X146182201Y-108431467D01*
X146151580Y-108428032D01*
X146149372Y-108428017D01*
X146149290Y-108428008D01*
X146149208Y-108428015D01*
X146147000Y-108428000D01*
X145230500Y-108428000D01*
X145230500Y-108314248D01*
X145197432Y-108148001D01*
X145132566Y-107991400D01*
X145038394Y-107850463D01*
X144918537Y-107730606D01*
X144777600Y-107636434D01*
X144620999Y-107571568D01*
X144454752Y-107538500D01*
X144285248Y-107538500D01*
X144119001Y-107571568D01*
X143962400Y-107636434D01*
X143821463Y-107730606D01*
X143701606Y-107850463D01*
X143607434Y-107991400D01*
X143542568Y-108148001D01*
X143509500Y-108314248D01*
X143509500Y-108483752D01*
X143542568Y-108649999D01*
X143607434Y-108806600D01*
X143701606Y-108947537D01*
X143821463Y-109067394D01*
X143871757Y-109101000D01*
X143545227Y-109101000D01*
X143521019Y-109042558D01*
X143440747Y-108922421D01*
X143338579Y-108820253D01*
X143218442Y-108739981D01*
X143084954Y-108684688D01*
X142943243Y-108656500D01*
X142798757Y-108656500D01*
X142657046Y-108684688D01*
X142523558Y-108739981D01*
X142403421Y-108820253D01*
X142301253Y-108922421D01*
X142220981Y-109042558D01*
X142196773Y-109101000D01*
X139559161Y-109101000D01*
X139560666Y-106497500D01*
X140838918Y-106497500D01*
X140838918Y-108222500D01*
X140845232Y-108286603D01*
X140863930Y-108348243D01*
X140894294Y-108405050D01*
X140935157Y-108454843D01*
X140984950Y-108495706D01*
X141041757Y-108526070D01*
X141103397Y-108544768D01*
X141167500Y-108551082D01*
X142892500Y-108551082D01*
X142956603Y-108544768D01*
X143018243Y-108526070D01*
X143075050Y-108495706D01*
X143124843Y-108454843D01*
X143165706Y-108405050D01*
X143196070Y-108348243D01*
X143214768Y-108286603D01*
X143221082Y-108222500D01*
X143221082Y-106497500D01*
X143214768Y-106433397D01*
X143196070Y-106371757D01*
X143165706Y-106314950D01*
X143124843Y-106265157D01*
X143075050Y-106224294D01*
X143018243Y-106193930D01*
X142956603Y-106175232D01*
X142892500Y-106168918D01*
X141167500Y-106168918D01*
X141103397Y-106175232D01*
X141041757Y-106193930D01*
X140984950Y-106224294D01*
X140935157Y-106265157D01*
X140894294Y-106314950D01*
X140863930Y-106371757D01*
X140845232Y-106433397D01*
X140838918Y-106497500D01*
X139560666Y-106497500D01*
X139563197Y-102122867D01*
X139580938Y-102212058D01*
X139635741Y-102344364D01*
X139715302Y-102463436D01*
X139816564Y-102564698D01*
X139935636Y-102644259D01*
X140067942Y-102699062D01*
X140208397Y-102727000D01*
X140351603Y-102727000D01*
X140492058Y-102699062D01*
X140624364Y-102644259D01*
X140743436Y-102564698D01*
X140844698Y-102463436D01*
X140924259Y-102344364D01*
X140979062Y-102212058D01*
X141007000Y-102071603D01*
X141007000Y-101928397D01*
X140979062Y-101787942D01*
X140924259Y-101655636D01*
X140859467Y-101558667D01*
X140864698Y-101553436D01*
X140944259Y-101434364D01*
X140999062Y-101302058D01*
X141027000Y-101161603D01*
X141027000Y-101018397D01*
X140999062Y-100877942D01*
X140944259Y-100745636D01*
X140864698Y-100626564D01*
X140763436Y-100525302D01*
X140644364Y-100445741D01*
X140512058Y-100390938D01*
X140432068Y-100375027D01*
X140462058Y-100369062D01*
X140594364Y-100314259D01*
X140713436Y-100234698D01*
X140814698Y-100133436D01*
X140894259Y-100014364D01*
X140949062Y-99882058D01*
X140977000Y-99741603D01*
X140977000Y-99598397D01*
X140949062Y-99457942D01*
X140894259Y-99325636D01*
X140828676Y-99227483D01*
X140904259Y-99114364D01*
X140959062Y-98982058D01*
X140987000Y-98841603D01*
X140987000Y-98698397D01*
X140959062Y-98557942D01*
X140904259Y-98425636D01*
X140824698Y-98306564D01*
X140723436Y-98205302D01*
X140604364Y-98125741D01*
X140472058Y-98070938D01*
X140331603Y-98043000D01*
X140188397Y-98043000D01*
X140047942Y-98070938D01*
X139915636Y-98125741D01*
X139796564Y-98205302D01*
X139695302Y-98306564D01*
X139615741Y-98425636D01*
X139565265Y-98547497D01*
X139566643Y-96165008D01*
X139571234Y-96171880D01*
X139648120Y-96248766D01*
X139738530Y-96309176D01*
X139838988Y-96350787D01*
X139945633Y-96372000D01*
X140054367Y-96372000D01*
X140161012Y-96350787D01*
X140261470Y-96309176D01*
X140351880Y-96248766D01*
X140352363Y-96248283D01*
X140428530Y-96299176D01*
X140528988Y-96340787D01*
X140635633Y-96362000D01*
X140744367Y-96362000D01*
X140851012Y-96340787D01*
X140951470Y-96299176D01*
X141041880Y-96238766D01*
X141118766Y-96161880D01*
X141179176Y-96071470D01*
X141220787Y-95971012D01*
X141242000Y-95864367D01*
X141242000Y-95755633D01*
X141220787Y-95648988D01*
X141179176Y-95548530D01*
X141118766Y-95458120D01*
X141041880Y-95381234D01*
X140951470Y-95320824D01*
X140851012Y-95279213D01*
X140744367Y-95258000D01*
X140635633Y-95258000D01*
X140528988Y-95279213D01*
X140428530Y-95320824D01*
X140338120Y-95381234D01*
X140337637Y-95381717D01*
X140261470Y-95330824D01*
X140161012Y-95289213D01*
X140054367Y-95268000D01*
X139945633Y-95268000D01*
X139838988Y-95289213D01*
X139738530Y-95330824D01*
X139648120Y-95391234D01*
X139571234Y-95468120D01*
X139567042Y-95474394D01*
X139568838Y-92369000D01*
X158336958Y-92369000D01*
X158322732Y-92415897D01*
G36*
X151021418Y-105350000D02*
G01*
X151021418Y-105890000D01*
X151027732Y-105954103D01*
X151046430Y-106015743D01*
X151076794Y-106072550D01*
X151117657Y-106122343D01*
X151122201Y-106126072D01*
X151122200Y-106786542D01*
X151112453Y-106810073D01*
X151091240Y-106916718D01*
X151091240Y-107025452D01*
X151112453Y-107132097D01*
X151154064Y-107232555D01*
X151214474Y-107322965D01*
X151291360Y-107399851D01*
X151381770Y-107460261D01*
X151482228Y-107501872D01*
X151588873Y-107523085D01*
X151697607Y-107523085D01*
X151804252Y-107501872D01*
X151900777Y-107461890D01*
X151901478Y-107462939D01*
X151978364Y-107539825D01*
X152068774Y-107600235D01*
X152169232Y-107641846D01*
X152275877Y-107663059D01*
X152347955Y-107663059D01*
X152886373Y-108201478D01*
X152898207Y-108215898D01*
X152955735Y-108263109D01*
X153021368Y-108298191D01*
X153092583Y-108319794D01*
X153148084Y-108325260D01*
X153148086Y-108325260D01*
X153166645Y-108327088D01*
X153185203Y-108325260D01*
X153477671Y-108325260D01*
X153500909Y-108332309D01*
X153558282Y-108337960D01*
X154125710Y-108337960D01*
X154139500Y-108351750D01*
X154139500Y-108428000D01*
X154023000Y-108428000D01*
X153992281Y-108431012D01*
X153961539Y-108433810D01*
X153960436Y-108434135D01*
X153959291Y-108434247D01*
X153929731Y-108443172D01*
X153900129Y-108451884D01*
X153899111Y-108452416D01*
X153898009Y-108452749D01*
X153895247Y-108454218D01*
X153895118Y-108454177D01*
X153894105Y-108453629D01*
X153864547Y-108444479D01*
X153835195Y-108435168D01*
X153834056Y-108435040D01*
X153832954Y-108434699D01*
X153802201Y-108431467D01*
X153771580Y-108428032D01*
X153769372Y-108428017D01*
X153769290Y-108428008D01*
X153769208Y-108428015D01*
X153767000Y-108428000D01*
X152753000Y-108428000D01*
X152722281Y-108431012D01*
X152691539Y-108433810D01*
X152690436Y-108434135D01*
X152689291Y-108434247D01*
X152659731Y-108443172D01*
X152630129Y-108451884D01*
X152629111Y-108452416D01*
X152628009Y-108452749D01*
X152625247Y-108454218D01*
X152625118Y-108454177D01*
X152624105Y-108453629D01*
X152594547Y-108444479D01*
X152565195Y-108435168D01*
X152564056Y-108435040D01*
X152562954Y-108434699D01*
X152532201Y-108431467D01*
X152501580Y-108428032D01*
X152499372Y-108428017D01*
X152499290Y-108428008D01*
X152499208Y-108428015D01*
X152497000Y-108428000D01*
X152215250Y-108428000D01*
X151488959Y-107701709D01*
X151476730Y-107686808D01*
X151417269Y-107638009D01*
X151349430Y-107601749D01*
X151275820Y-107579420D01*
X151199269Y-107571880D01*
X151180091Y-107573769D01*
X150305679Y-107573769D01*
X150341880Y-107549580D01*
X150418766Y-107472694D01*
X150479176Y-107382284D01*
X150520787Y-107281826D01*
X150542000Y-107175181D01*
X150542000Y-107066447D01*
X150520787Y-106959802D01*
X150479176Y-106859344D01*
X150418766Y-106768934D01*
X150367800Y-106717968D01*
X150367800Y-106218582D01*
X150650000Y-106218582D01*
X150714103Y-106212268D01*
X150775743Y-106193570D01*
X150832550Y-106163206D01*
X150882343Y-106122343D01*
X150923206Y-106072550D01*
X150953570Y-106015743D01*
X150972268Y-105954103D01*
X150978582Y-105890000D01*
X150978582Y-105350000D01*
X150976472Y-105328582D01*
X151023528Y-105328582D01*
X151021418Y-105350000D01*
G37*
X151021418Y-105350000D02*
X151021418Y-105890000D01*
X151027732Y-105954103D01*
X151046430Y-106015743D01*
X151076794Y-106072550D01*
X151117657Y-106122343D01*
X151122201Y-106126072D01*
X151122200Y-106786542D01*
X151112453Y-106810073D01*
X151091240Y-106916718D01*
X151091240Y-107025452D01*
X151112453Y-107132097D01*
X151154064Y-107232555D01*
X151214474Y-107322965D01*
X151291360Y-107399851D01*
X151381770Y-107460261D01*
X151482228Y-107501872D01*
X151588873Y-107523085D01*
X151697607Y-107523085D01*
X151804252Y-107501872D01*
X151900777Y-107461890D01*
X151901478Y-107462939D01*
X151978364Y-107539825D01*
X152068774Y-107600235D01*
X152169232Y-107641846D01*
X152275877Y-107663059D01*
X152347955Y-107663059D01*
X152886373Y-108201478D01*
X152898207Y-108215898D01*
X152955735Y-108263109D01*
X153021368Y-108298191D01*
X153092583Y-108319794D01*
X153148084Y-108325260D01*
X153148086Y-108325260D01*
X153166645Y-108327088D01*
X153185203Y-108325260D01*
X153477671Y-108325260D01*
X153500909Y-108332309D01*
X153558282Y-108337960D01*
X154125710Y-108337960D01*
X154139500Y-108351750D01*
X154139500Y-108428000D01*
X154023000Y-108428000D01*
X153992281Y-108431012D01*
X153961539Y-108433810D01*
X153960436Y-108434135D01*
X153959291Y-108434247D01*
X153929731Y-108443172D01*
X153900129Y-108451884D01*
X153899111Y-108452416D01*
X153898009Y-108452749D01*
X153895247Y-108454218D01*
X153895118Y-108454177D01*
X153894105Y-108453629D01*
X153864547Y-108444479D01*
X153835195Y-108435168D01*
X153834056Y-108435040D01*
X153832954Y-108434699D01*
X153802201Y-108431467D01*
X153771580Y-108428032D01*
X153769372Y-108428017D01*
X153769290Y-108428008D01*
X153769208Y-108428015D01*
X153767000Y-108428000D01*
X152753000Y-108428000D01*
X152722281Y-108431012D01*
X152691539Y-108433810D01*
X152690436Y-108434135D01*
X152689291Y-108434247D01*
X152659731Y-108443172D01*
X152630129Y-108451884D01*
X152629111Y-108452416D01*
X152628009Y-108452749D01*
X152625247Y-108454218D01*
X152625118Y-108454177D01*
X152624105Y-108453629D01*
X152594547Y-108444479D01*
X152565195Y-108435168D01*
X152564056Y-108435040D01*
X152562954Y-108434699D01*
X152532201Y-108431467D01*
X152501580Y-108428032D01*
X152499372Y-108428017D01*
X152499290Y-108428008D01*
X152499208Y-108428015D01*
X152497000Y-108428000D01*
X152215250Y-108428000D01*
X151488959Y-107701709D01*
X151476730Y-107686808D01*
X151417269Y-107638009D01*
X151349430Y-107601749D01*
X151275820Y-107579420D01*
X151199269Y-107571880D01*
X151180091Y-107573769D01*
X150305679Y-107573769D01*
X150341880Y-107549580D01*
X150418766Y-107472694D01*
X150479176Y-107382284D01*
X150520787Y-107281826D01*
X150542000Y-107175181D01*
X150542000Y-107066447D01*
X150520787Y-106959802D01*
X150479176Y-106859344D01*
X150418766Y-106768934D01*
X150367800Y-106717968D01*
X150367800Y-106218582D01*
X150650000Y-106218582D01*
X150714103Y-106212268D01*
X150775743Y-106193570D01*
X150832550Y-106163206D01*
X150882343Y-106122343D01*
X150923206Y-106072550D01*
X150953570Y-106015743D01*
X150972268Y-105954103D01*
X150978582Y-105890000D01*
X150978582Y-105350000D01*
X150976472Y-105328582D01*
X151023528Y-105328582D01*
X151021418Y-105350000D01*
G36*
X155021418Y-105350000D02*
G01*
X155021418Y-105890000D01*
X155027732Y-105954103D01*
X155046430Y-106015743D01*
X155076794Y-106072550D01*
X155117657Y-106122343D01*
X155167450Y-106163206D01*
X155224257Y-106193570D01*
X155285897Y-106212268D01*
X155350000Y-106218582D01*
X155622200Y-106218582D01*
X155622201Y-108024951D01*
X154390500Y-106793250D01*
X154390500Y-106218582D01*
X154650000Y-106218582D01*
X154714103Y-106212268D01*
X154775743Y-106193570D01*
X154832550Y-106163206D01*
X154882343Y-106122343D01*
X154923206Y-106072550D01*
X154953570Y-106015743D01*
X154972268Y-105954103D01*
X154978582Y-105890000D01*
X154978582Y-105350000D01*
X154976472Y-105328582D01*
X155023528Y-105328582D01*
X155021418Y-105350000D01*
G37*
X155021418Y-105350000D02*
X155021418Y-105890000D01*
X155027732Y-105954103D01*
X155046430Y-106015743D01*
X155076794Y-106072550D01*
X155117657Y-106122343D01*
X155167450Y-106163206D01*
X155224257Y-106193570D01*
X155285897Y-106212268D01*
X155350000Y-106218582D01*
X155622200Y-106218582D01*
X155622201Y-108024951D01*
X154390500Y-106793250D01*
X154390500Y-106218582D01*
X154650000Y-106218582D01*
X154714103Y-106212268D01*
X154775743Y-106193570D01*
X154832550Y-106163206D01*
X154882343Y-106122343D01*
X154923206Y-106072550D01*
X154953570Y-106015743D01*
X154972268Y-105954103D01*
X154978582Y-105890000D01*
X154978582Y-105350000D01*
X154976472Y-105328582D01*
X155023528Y-105328582D01*
X155021418Y-105350000D01*
G36*
X149350641Y-103428827D02*
G01*
X149364602Y-103427452D01*
X149393540Y-103433208D01*
X149406153Y-103433208D01*
X149392920Y-103465156D01*
X149371707Y-103571801D01*
X149371707Y-103680535D01*
X149392920Y-103787180D01*
X149434531Y-103887638D01*
X149494941Y-103978048D01*
X149496314Y-103979421D01*
X149473523Y-104013530D01*
X149431912Y-104113988D01*
X149410699Y-104220633D01*
X149410699Y-104329367D01*
X149431912Y-104436012D01*
X149473523Y-104536470D01*
X149531549Y-104623313D01*
X149527732Y-104635897D01*
X149521418Y-104700000D01*
X149521418Y-105000000D01*
X149527732Y-105064103D01*
X149546430Y-105125743D01*
X149572758Y-105175000D01*
X149546430Y-105224257D01*
X149527732Y-105285897D01*
X149521418Y-105350000D01*
X149521418Y-105890000D01*
X149527732Y-105954103D01*
X149546430Y-106015743D01*
X149576794Y-106072550D01*
X149612201Y-106115694D01*
X149612200Y-106717968D01*
X149561234Y-106768934D01*
X149500824Y-106859344D01*
X149459213Y-106959802D01*
X149438000Y-107066447D01*
X149438000Y-107175181D01*
X149459213Y-107281826D01*
X149500824Y-107382284D01*
X149561234Y-107472694D01*
X149638120Y-107549580D01*
X149674321Y-107573769D01*
X148306885Y-107573769D01*
X148805263Y-107075392D01*
X148822579Y-107061181D01*
X148879313Y-106992051D01*
X148921470Y-106913181D01*
X148935542Y-106866791D01*
X148947430Y-106827602D01*
X148949737Y-106804178D01*
X148956196Y-106738602D01*
X148954000Y-106716307D01*
X148954000Y-106218582D01*
X149150000Y-106218582D01*
X149214103Y-106212268D01*
X149275743Y-106193570D01*
X149332550Y-106163206D01*
X149382343Y-106122343D01*
X149423206Y-106072550D01*
X149453570Y-106015743D01*
X149472268Y-105954103D01*
X149478582Y-105890000D01*
X149478582Y-105350000D01*
X149472268Y-105285897D01*
X149453570Y-105224257D01*
X149423206Y-105167450D01*
X149382343Y-105117657D01*
X149347866Y-105089363D01*
X149315649Y-105029090D01*
X149268438Y-104971562D01*
X149254014Y-104959725D01*
X149253646Y-104959357D01*
X149253525Y-104958959D01*
X149234414Y-104923206D01*
X149218443Y-104893325D01*
X149191399Y-104860372D01*
X149171232Y-104835798D01*
X149156813Y-104823965D01*
X148476999Y-104144152D01*
X148476999Y-103426999D01*
X149332083Y-103426999D01*
X149350641Y-103428827D01*
G37*
X149350641Y-103428827D02*
X149364602Y-103427452D01*
X149393540Y-103433208D01*
X149406153Y-103433208D01*
X149392920Y-103465156D01*
X149371707Y-103571801D01*
X149371707Y-103680535D01*
X149392920Y-103787180D01*
X149434531Y-103887638D01*
X149494941Y-103978048D01*
X149496314Y-103979421D01*
X149473523Y-104013530D01*
X149431912Y-104113988D01*
X149410699Y-104220633D01*
X149410699Y-104329367D01*
X149431912Y-104436012D01*
X149473523Y-104536470D01*
X149531549Y-104623313D01*
X149527732Y-104635897D01*
X149521418Y-104700000D01*
X149521418Y-105000000D01*
X149527732Y-105064103D01*
X149546430Y-105125743D01*
X149572758Y-105175000D01*
X149546430Y-105224257D01*
X149527732Y-105285897D01*
X149521418Y-105350000D01*
X149521418Y-105890000D01*
X149527732Y-105954103D01*
X149546430Y-106015743D01*
X149576794Y-106072550D01*
X149612201Y-106115694D01*
X149612200Y-106717968D01*
X149561234Y-106768934D01*
X149500824Y-106859344D01*
X149459213Y-106959802D01*
X149438000Y-107066447D01*
X149438000Y-107175181D01*
X149459213Y-107281826D01*
X149500824Y-107382284D01*
X149561234Y-107472694D01*
X149638120Y-107549580D01*
X149674321Y-107573769D01*
X148306885Y-107573769D01*
X148805263Y-107075392D01*
X148822579Y-107061181D01*
X148879313Y-106992051D01*
X148921470Y-106913181D01*
X148935542Y-106866791D01*
X148947430Y-106827602D01*
X148949737Y-106804178D01*
X148956196Y-106738602D01*
X148954000Y-106716307D01*
X148954000Y-106218582D01*
X149150000Y-106218582D01*
X149214103Y-106212268D01*
X149275743Y-106193570D01*
X149332550Y-106163206D01*
X149382343Y-106122343D01*
X149423206Y-106072550D01*
X149453570Y-106015743D01*
X149472268Y-105954103D01*
X149478582Y-105890000D01*
X149478582Y-105350000D01*
X149472268Y-105285897D01*
X149453570Y-105224257D01*
X149423206Y-105167450D01*
X149382343Y-105117657D01*
X149347866Y-105089363D01*
X149315649Y-105029090D01*
X149268438Y-104971562D01*
X149254014Y-104959725D01*
X149253646Y-104959357D01*
X149253525Y-104958959D01*
X149234414Y-104923206D01*
X149218443Y-104893325D01*
X149191399Y-104860372D01*
X149171232Y-104835798D01*
X149156813Y-104823965D01*
X148476999Y-104144152D01*
X148476999Y-103426999D01*
X149332083Y-103426999D01*
X149350641Y-103428827D01*
G36*
X152565126Y-105116472D02*
G01*
X152589138Y-105152408D01*
X152576794Y-105167450D01*
X152546430Y-105224257D01*
X152527732Y-105285897D01*
X152521418Y-105350000D01*
X152521418Y-105890000D01*
X152527732Y-105954103D01*
X152546430Y-106015743D01*
X152576794Y-106072550D01*
X152617657Y-106122343D01*
X152667450Y-106163206D01*
X152724257Y-106193570D01*
X152785897Y-106212268D01*
X152850000Y-106218582D01*
X153150000Y-106218582D01*
X153214103Y-106212268D01*
X153250000Y-106201379D01*
X153285897Y-106212268D01*
X153350000Y-106218582D01*
X153609501Y-106218582D01*
X153609500Y-106935821D01*
X153607611Y-106955000D01*
X153615151Y-107031551D01*
X153625570Y-107065897D01*
X153637480Y-107105160D01*
X153673740Y-107172999D01*
X153722539Y-107232461D01*
X153737440Y-107244690D01*
X154049710Y-107556960D01*
X153558282Y-107556960D01*
X153500909Y-107562611D01*
X153477671Y-107569660D01*
X153323135Y-107569660D01*
X152882244Y-107128770D01*
X152882244Y-107056692D01*
X152861031Y-106950047D01*
X152819420Y-106849589D01*
X152759010Y-106759179D01*
X152682124Y-106682293D01*
X152591714Y-106621883D01*
X152491256Y-106580272D01*
X152384611Y-106559059D01*
X152275877Y-106559059D01*
X152169232Y-106580272D01*
X152072707Y-106620254D01*
X152072006Y-106619205D01*
X151995120Y-106542319D01*
X151904710Y-106481909D01*
X151877800Y-106470763D01*
X151877800Y-106218582D01*
X152150000Y-106218582D01*
X152214103Y-106212268D01*
X152275743Y-106193570D01*
X152332550Y-106163206D01*
X152382343Y-106122343D01*
X152423206Y-106072550D01*
X152453570Y-106015743D01*
X152472268Y-105954103D01*
X152478582Y-105890000D01*
X152478582Y-105350000D01*
X152472268Y-105285897D01*
X152453570Y-105224257D01*
X152428220Y-105176831D01*
X152456231Y-105158115D01*
X152533117Y-105081229D01*
X152543865Y-105065143D01*
X152565126Y-105116472D01*
G37*
X152565126Y-105116472D02*
X152589138Y-105152408D01*
X152576794Y-105167450D01*
X152546430Y-105224257D01*
X152527732Y-105285897D01*
X152521418Y-105350000D01*
X152521418Y-105890000D01*
X152527732Y-105954103D01*
X152546430Y-106015743D01*
X152576794Y-106072550D01*
X152617657Y-106122343D01*
X152667450Y-106163206D01*
X152724257Y-106193570D01*
X152785897Y-106212268D01*
X152850000Y-106218582D01*
X153150000Y-106218582D01*
X153214103Y-106212268D01*
X153250000Y-106201379D01*
X153285897Y-106212268D01*
X153350000Y-106218582D01*
X153609501Y-106218582D01*
X153609500Y-106935821D01*
X153607611Y-106955000D01*
X153615151Y-107031551D01*
X153625570Y-107065897D01*
X153637480Y-107105160D01*
X153673740Y-107172999D01*
X153722539Y-107232461D01*
X153737440Y-107244690D01*
X154049710Y-107556960D01*
X153558282Y-107556960D01*
X153500909Y-107562611D01*
X153477671Y-107569660D01*
X153323135Y-107569660D01*
X152882244Y-107128770D01*
X152882244Y-107056692D01*
X152861031Y-106950047D01*
X152819420Y-106849589D01*
X152759010Y-106759179D01*
X152682124Y-106682293D01*
X152591714Y-106621883D01*
X152491256Y-106580272D01*
X152384611Y-106559059D01*
X152275877Y-106559059D01*
X152169232Y-106580272D01*
X152072707Y-106620254D01*
X152072006Y-106619205D01*
X151995120Y-106542319D01*
X151904710Y-106481909D01*
X151877800Y-106470763D01*
X151877800Y-106218582D01*
X152150000Y-106218582D01*
X152214103Y-106212268D01*
X152275743Y-106193570D01*
X152332550Y-106163206D01*
X152382343Y-106122343D01*
X152423206Y-106072550D01*
X152453570Y-106015743D01*
X152472268Y-105954103D01*
X152478582Y-105890000D01*
X152478582Y-105350000D01*
X152472268Y-105285897D01*
X152453570Y-105224257D01*
X152428220Y-105176831D01*
X152456231Y-105158115D01*
X152533117Y-105081229D01*
X152543865Y-105065143D01*
X152565126Y-105116472D01*
G36*
X146427450Y-105423206D02*
G01*
X146484257Y-105453570D01*
X146545897Y-105472268D01*
X146610000Y-105478582D01*
X147021418Y-105478582D01*
X147021418Y-105890000D01*
X147027732Y-105954103D01*
X147046430Y-106015743D01*
X147076794Y-106072550D01*
X147117657Y-106122343D01*
X147167450Y-106163206D01*
X147224257Y-106193570D01*
X147285897Y-106212268D01*
X147350000Y-106218582D01*
X147436365Y-106218582D01*
X147428000Y-106260635D01*
X147428000Y-106369369D01*
X147449213Y-106476014D01*
X147490824Y-106576472D01*
X147551234Y-106666882D01*
X147628120Y-106743768D01*
X147718530Y-106804178D01*
X147770744Y-106825806D01*
X147696902Y-106899648D01*
X147674103Y-106892732D01*
X147610000Y-106886418D01*
X147170000Y-106886418D01*
X147105897Y-106892732D01*
X147044257Y-106911430D01*
X146987450Y-106941794D01*
X146937657Y-106982657D01*
X146896794Y-107032450D01*
X146890074Y-107045022D01*
X146887109Y-107047003D01*
X146810223Y-107123889D01*
X146749813Y-107214299D01*
X146722497Y-107280246D01*
X146390500Y-106948250D01*
X146390500Y-105392883D01*
X146427450Y-105423206D01*
G37*
X146427450Y-105423206D02*
X146484257Y-105453570D01*
X146545897Y-105472268D01*
X146610000Y-105478582D01*
X147021418Y-105478582D01*
X147021418Y-105890000D01*
X147027732Y-105954103D01*
X147046430Y-106015743D01*
X147076794Y-106072550D01*
X147117657Y-106122343D01*
X147167450Y-106163206D01*
X147224257Y-106193570D01*
X147285897Y-106212268D01*
X147350000Y-106218582D01*
X147436365Y-106218582D01*
X147428000Y-106260635D01*
X147428000Y-106369369D01*
X147449213Y-106476014D01*
X147490824Y-106576472D01*
X147551234Y-106666882D01*
X147628120Y-106743768D01*
X147718530Y-106804178D01*
X147770744Y-106825806D01*
X147696902Y-106899648D01*
X147674103Y-106892732D01*
X147610000Y-106886418D01*
X147170000Y-106886418D01*
X147105897Y-106892732D01*
X147044257Y-106911430D01*
X146987450Y-106941794D01*
X146937657Y-106982657D01*
X146896794Y-107032450D01*
X146890074Y-107045022D01*
X146887109Y-107047003D01*
X146810223Y-107123889D01*
X146749813Y-107214299D01*
X146722497Y-107280246D01*
X146390500Y-106948250D01*
X146390500Y-105392883D01*
X146427450Y-105423206D01*
G36*
X165771000Y-105268918D02*
G01*
X165137363Y-105268918D01*
X165142581Y-105262560D01*
X165485265Y-104919877D01*
X165500161Y-104907652D01*
X165548960Y-104848191D01*
X165585220Y-104780352D01*
X165586618Y-104775743D01*
X165607550Y-104706743D01*
X165615089Y-104630191D01*
X165613200Y-104611010D01*
X165613200Y-99712064D01*
X165615088Y-99692893D01*
X165613200Y-99673722D01*
X165613200Y-99673716D01*
X165608329Y-99624257D01*
X165607549Y-99616342D01*
X165585220Y-99542733D01*
X165577202Y-99527732D01*
X165548960Y-99474894D01*
X165500161Y-99415433D01*
X165485261Y-99403205D01*
X164879496Y-98797440D01*
X164867267Y-98782539D01*
X164827569Y-98749959D01*
X164853091Y-98688343D01*
X164870000Y-98603336D01*
X164870000Y-98516664D01*
X164853091Y-98431657D01*
X164819923Y-98351582D01*
X164771770Y-98279516D01*
X164710484Y-98218230D01*
X164638418Y-98170077D01*
X164558343Y-98136909D01*
X164473336Y-98120000D01*
X164386664Y-98120000D01*
X164365862Y-98124138D01*
X164370000Y-98103336D01*
X164370000Y-98016664D01*
X164365862Y-97995862D01*
X164386664Y-98000000D01*
X164473336Y-98000000D01*
X164558343Y-97983091D01*
X164638418Y-97949923D01*
X164710484Y-97901770D01*
X164771770Y-97840484D01*
X164819923Y-97768418D01*
X164853091Y-97688343D01*
X164857348Y-97666941D01*
X165019820Y-97504470D01*
X165034239Y-97492637D01*
X165070871Y-97448000D01*
X165081450Y-97435110D01*
X165116531Y-97369478D01*
X165121960Y-97351582D01*
X165138135Y-97298261D01*
X165143601Y-97242760D01*
X165143601Y-97242758D01*
X165145429Y-97224200D01*
X165143601Y-97205641D01*
X165143601Y-95751082D01*
X165771001Y-95751082D01*
X165771000Y-105268918D01*
G37*
X165771000Y-105268918D02*
X165137363Y-105268918D01*
X165142581Y-105262560D01*
X165485265Y-104919877D01*
X165500161Y-104907652D01*
X165548960Y-104848191D01*
X165585220Y-104780352D01*
X165586618Y-104775743D01*
X165607550Y-104706743D01*
X165615089Y-104630191D01*
X165613200Y-104611010D01*
X165613200Y-99712064D01*
X165615088Y-99692893D01*
X165613200Y-99673722D01*
X165613200Y-99673716D01*
X165608329Y-99624257D01*
X165607549Y-99616342D01*
X165585220Y-99542733D01*
X165577202Y-99527732D01*
X165548960Y-99474894D01*
X165500161Y-99415433D01*
X165485261Y-99403205D01*
X164879496Y-98797440D01*
X164867267Y-98782539D01*
X164827569Y-98749959D01*
X164853091Y-98688343D01*
X164870000Y-98603336D01*
X164870000Y-98516664D01*
X164853091Y-98431657D01*
X164819923Y-98351582D01*
X164771770Y-98279516D01*
X164710484Y-98218230D01*
X164638418Y-98170077D01*
X164558343Y-98136909D01*
X164473336Y-98120000D01*
X164386664Y-98120000D01*
X164365862Y-98124138D01*
X164370000Y-98103336D01*
X164370000Y-98016664D01*
X164365862Y-97995862D01*
X164386664Y-98000000D01*
X164473336Y-98000000D01*
X164558343Y-97983091D01*
X164638418Y-97949923D01*
X164710484Y-97901770D01*
X164771770Y-97840484D01*
X164819923Y-97768418D01*
X164853091Y-97688343D01*
X164857348Y-97666941D01*
X165019820Y-97504470D01*
X165034239Y-97492637D01*
X165070871Y-97448000D01*
X165081450Y-97435110D01*
X165116531Y-97369478D01*
X165121960Y-97351582D01*
X165138135Y-97298261D01*
X165143601Y-97242760D01*
X165143601Y-97242758D01*
X165145429Y-97224200D01*
X165143601Y-97205641D01*
X165143601Y-95751082D01*
X165771001Y-95751082D01*
X165771000Y-105268918D01*
G36*
X165771001Y-93368918D02*
G01*
X164137500Y-93368918D01*
X164073397Y-93375232D01*
X164011757Y-93393930D01*
X163954950Y-93424294D01*
X163905157Y-93465157D01*
X163864294Y-93514950D01*
X163833930Y-93571757D01*
X163815232Y-93633397D01*
X163808918Y-93697500D01*
X163808918Y-95422500D01*
X163815232Y-95486603D01*
X163833930Y-95548243D01*
X163864294Y-95605050D01*
X163905157Y-95654843D01*
X163954950Y-95695706D01*
X164011757Y-95726070D01*
X164073397Y-95744768D01*
X164137500Y-95751082D01*
X164388002Y-95751082D01*
X164388001Y-96571963D01*
X164321012Y-96544215D01*
X164214367Y-96523002D01*
X164173582Y-96523002D01*
X164173582Y-96210000D01*
X164167268Y-96145897D01*
X164148570Y-96084257D01*
X164118206Y-96027450D01*
X164077343Y-95977657D01*
X164027550Y-95936794D01*
X163970743Y-95906430D01*
X163909103Y-95887732D01*
X163845000Y-95881418D01*
X163375000Y-95881418D01*
X163310897Y-95887732D01*
X163249257Y-95906430D01*
X163218582Y-95922826D01*
X163218582Y-95850000D01*
X163212268Y-95785897D01*
X163193570Y-95724257D01*
X163163206Y-95667450D01*
X163122343Y-95617657D01*
X163072550Y-95576794D01*
X163015743Y-95546430D01*
X162954103Y-95527732D01*
X162890000Y-95521418D01*
X162478582Y-95521418D01*
X162478582Y-95110000D01*
X162472268Y-95045897D01*
X162454000Y-94985675D01*
X162454000Y-94053287D01*
X162456195Y-94030999D01*
X162454000Y-94008711D01*
X162454000Y-94008705D01*
X162448346Y-93951301D01*
X162447430Y-93942000D01*
X162421470Y-93856421D01*
X162420120Y-93853895D01*
X162379313Y-93777551D01*
X162349326Y-93741012D01*
X162336791Y-93725738D01*
X162336790Y-93725737D01*
X162322579Y-93708421D01*
X162305263Y-93694210D01*
X161085794Y-92474742D01*
X161071579Y-92457421D01*
X161002449Y-92400687D01*
X160943167Y-92369000D01*
X165771001Y-92369000D01*
X165771001Y-93368918D01*
G37*
X165771001Y-93368918D02*
X164137500Y-93368918D01*
X164073397Y-93375232D01*
X164011757Y-93393930D01*
X163954950Y-93424294D01*
X163905157Y-93465157D01*
X163864294Y-93514950D01*
X163833930Y-93571757D01*
X163815232Y-93633397D01*
X163808918Y-93697500D01*
X163808918Y-95422500D01*
X163815232Y-95486603D01*
X163833930Y-95548243D01*
X163864294Y-95605050D01*
X163905157Y-95654843D01*
X163954950Y-95695706D01*
X164011757Y-95726070D01*
X164073397Y-95744768D01*
X164137500Y-95751082D01*
X164388002Y-95751082D01*
X164388001Y-96571963D01*
X164321012Y-96544215D01*
X164214367Y-96523002D01*
X164173582Y-96523002D01*
X164173582Y-96210000D01*
X164167268Y-96145897D01*
X164148570Y-96084257D01*
X164118206Y-96027450D01*
X164077343Y-95977657D01*
X164027550Y-95936794D01*
X163970743Y-95906430D01*
X163909103Y-95887732D01*
X163845000Y-95881418D01*
X163375000Y-95881418D01*
X163310897Y-95887732D01*
X163249257Y-95906430D01*
X163218582Y-95922826D01*
X163218582Y-95850000D01*
X163212268Y-95785897D01*
X163193570Y-95724257D01*
X163163206Y-95667450D01*
X163122343Y-95617657D01*
X163072550Y-95576794D01*
X163015743Y-95546430D01*
X162954103Y-95527732D01*
X162890000Y-95521418D01*
X162478582Y-95521418D01*
X162478582Y-95110000D01*
X162472268Y-95045897D01*
X162454000Y-94985675D01*
X162454000Y-94053287D01*
X162456195Y-94030999D01*
X162454000Y-94008711D01*
X162454000Y-94008705D01*
X162448346Y-93951301D01*
X162447430Y-93942000D01*
X162421470Y-93856421D01*
X162420120Y-93853895D01*
X162379313Y-93777551D01*
X162349326Y-93741012D01*
X162336791Y-93725738D01*
X162336790Y-93725737D01*
X162322579Y-93708421D01*
X162305263Y-93694210D01*
X161085794Y-92474742D01*
X161071579Y-92457421D01*
X161002449Y-92400687D01*
X160943167Y-92369000D01*
X165771001Y-92369000D01*
X165771001Y-93368918D01*
G36*
X159897500Y-94888582D02*
G01*
X160108691Y-94888582D01*
X160076794Y-94927450D01*
X160046430Y-94984257D01*
X160027732Y-95045897D01*
X160021418Y-95110000D01*
X160021418Y-95650000D01*
X160023528Y-95671418D01*
X159976472Y-95671418D01*
X159978582Y-95650000D01*
X159978582Y-95110000D01*
X159972268Y-95045897D01*
X159953570Y-94984257D01*
X159923206Y-94927450D01*
X159890764Y-94887919D01*
X159897500Y-94888582D01*
G37*
X159897500Y-94888582D02*
X160108691Y-94888582D01*
X160076794Y-94927450D01*
X160046430Y-94984257D01*
X160027732Y-95045897D01*
X160021418Y-95110000D01*
X160021418Y-95650000D01*
X160023528Y-95671418D01*
X159976472Y-95671418D01*
X159978582Y-95650000D01*
X159978582Y-95110000D01*
X159972268Y-95045897D01*
X159953570Y-94984257D01*
X159923206Y-94927450D01*
X159890764Y-94887919D01*
X159897500Y-94888582D01*
G36*
X158027732Y-95045897D02*
G01*
X158021418Y-95110000D01*
X158021418Y-95595302D01*
X157986730Y-95629990D01*
X157978582Y-95642184D01*
X157978582Y-95110000D01*
X157972268Y-95045897D01*
X157964659Y-95020813D01*
X157969414Y-95019371D01*
X157970890Y-95018582D01*
X158000000Y-95018582D01*
X158037127Y-95014925D01*
X158027732Y-95045897D01*
G37*
X158027732Y-95045897D02*
X158021418Y-95110000D01*
X158021418Y-95595302D01*
X157986730Y-95629990D01*
X157978582Y-95642184D01*
X157978582Y-95110000D01*
X157972268Y-95045897D01*
X157964659Y-95020813D01*
X157969414Y-95019371D01*
X157970890Y-95018582D01*
X158000000Y-95018582D01*
X158037127Y-95014925D01*
X158027732Y-95045897D01*
G36*
X158656236Y-94299306D02*
G01*
X158595826Y-94389716D01*
X158554215Y-94490174D01*
X158533002Y-94596819D01*
X158533002Y-94705553D01*
X158548092Y-94781418D01*
X158350000Y-94781418D01*
X158312873Y-94785075D01*
X158322268Y-94754103D01*
X158328582Y-94690000D01*
X158328582Y-94492468D01*
X158329810Y-94480000D01*
X158328582Y-94467532D01*
X158328582Y-94270000D01*
X158328442Y-94268582D01*
X158630000Y-94268582D01*
X158693183Y-94262359D01*
X158656236Y-94299306D01*
G37*
X158656236Y-94299306D02*
X158595826Y-94389716D01*
X158554215Y-94490174D01*
X158533002Y-94596819D01*
X158533002Y-94705553D01*
X158548092Y-94781418D01*
X158350000Y-94781418D01*
X158312873Y-94785075D01*
X158322268Y-94754103D01*
X158328582Y-94690000D01*
X158328582Y-94492468D01*
X158329810Y-94480000D01*
X158328582Y-94467532D01*
X158328582Y-94270000D01*
X158328442Y-94268582D01*
X158630000Y-94268582D01*
X158693183Y-94262359D01*
X158656236Y-94299306D01*
G36*
X159656736Y-94782081D02*
G01*
X159650000Y-94781418D01*
X159621912Y-94781418D01*
X159628599Y-94747796D01*
X159656736Y-94782081D01*
G37*
X159656736Y-94782081D02*
X159650000Y-94781418D01*
X159621912Y-94781418D01*
X159628599Y-94747796D01*
X159656736Y-94782081D01*
G36*
X159622732Y-92415897D02*
G01*
X159616418Y-92480000D01*
X159616418Y-93080000D01*
X159622732Y-93144103D01*
X159641430Y-93205743D01*
X159671794Y-93262550D01*
X159712657Y-93312343D01*
X159762450Y-93353206D01*
X159766000Y-93355104D01*
X159766001Y-93859507D01*
X159714950Y-93886794D01*
X159665157Y-93927657D01*
X159624294Y-93977450D01*
X159593930Y-94034257D01*
X159575232Y-94095897D01*
X159568918Y-94160000D01*
X159568918Y-94381844D01*
X159513768Y-94299306D01*
X159436882Y-94222420D01*
X159346472Y-94162010D01*
X159246014Y-94120399D01*
X159139369Y-94099186D01*
X159030635Y-94099186D01*
X158923990Y-94120399D01*
X158895177Y-94132334D01*
X158903206Y-94122550D01*
X158933570Y-94065743D01*
X158952268Y-94004103D01*
X158958582Y-93940000D01*
X158958582Y-93520000D01*
X158952268Y-93455897D01*
X158937915Y-93408582D01*
X159195000Y-93408582D01*
X159259103Y-93402268D01*
X159320743Y-93383570D01*
X159377550Y-93353206D01*
X159427343Y-93312343D01*
X159468206Y-93262550D01*
X159498570Y-93205743D01*
X159517268Y-93144103D01*
X159523582Y-93080000D01*
X159523582Y-92480000D01*
X159517268Y-92415897D01*
X159503042Y-92369000D01*
X159636958Y-92369000D01*
X159622732Y-92415897D01*
G37*
X159622732Y-92415897D02*
X159616418Y-92480000D01*
X159616418Y-93080000D01*
X159622732Y-93144103D01*
X159641430Y-93205743D01*
X159671794Y-93262550D01*
X159712657Y-93312343D01*
X159762450Y-93353206D01*
X159766000Y-93355104D01*
X159766001Y-93859507D01*
X159714950Y-93886794D01*
X159665157Y-93927657D01*
X159624294Y-93977450D01*
X159593930Y-94034257D01*
X159575232Y-94095897D01*
X159568918Y-94160000D01*
X159568918Y-94381844D01*
X159513768Y-94299306D01*
X159436882Y-94222420D01*
X159346472Y-94162010D01*
X159246014Y-94120399D01*
X159139369Y-94099186D01*
X159030635Y-94099186D01*
X158923990Y-94120399D01*
X158895177Y-94132334D01*
X158903206Y-94122550D01*
X158933570Y-94065743D01*
X158952268Y-94004103D01*
X158958582Y-93940000D01*
X158958582Y-93520000D01*
X158952268Y-93455897D01*
X158937915Y-93408582D01*
X159195000Y-93408582D01*
X159259103Y-93402268D01*
X159320743Y-93383570D01*
X159377550Y-93353206D01*
X159427343Y-93312343D01*
X159468206Y-93262550D01*
X159498570Y-93205743D01*
X159517268Y-93144103D01*
X159523582Y-93080000D01*
X159523582Y-92480000D01*
X159517268Y-92415897D01*
X159503042Y-92369000D01*
X159636958Y-92369000D01*
X159622732Y-92415897D01*
G04 #@! TD*
M02*
