G04 #@! TF.GenerationSoftware,KiCad,Pcbnew,(5.1.6)-1*
G04 #@! TF.CreationDate,2021-09-25T22:06:40+02:00*
G04 #@! TF.ProjectId,nrfmodule,6e72666d-6f64-4756-9c65-2e6b69636164,rev?*
G04 #@! TF.SameCoordinates,Original*
G04 #@! TF.FileFunction,Copper,L2,Inr*
G04 #@! TF.FilePolarity,Positive*
%FSLAX46Y46*%
G04 Gerber Fmt 4.6, Leading zero omitted, Abs format (unit mm)*
G04 Created by KiCad (PCBNEW (5.1.6)-1) date 2021-09-25 22:06:40*
%MOMM*%
%LPD*%
G01*
G04 APERTURE LIST*
G04 #@! TA.AperFunction,ViaPad*
%ADD10R,1.725000X1.725000*%
G04 #@! TD*
G04 #@! TA.AperFunction,ViaPad*
%ADD11C,1.067000*%
G04 #@! TD*
G04 #@! TA.AperFunction,ViaPad*
%ADD12C,0.813000*%
G04 #@! TD*
G04 #@! TA.AperFunction,ViaPad*
%ADD13R,1.016000X1.016000*%
G04 #@! TD*
G04 #@! TA.AperFunction,ViaPad*
%ADD14C,0.450000*%
G04 #@! TD*
G04 #@! TA.AperFunction,ViaPad*
%ADD15C,0.800000*%
G04 #@! TD*
G04 #@! TA.AperFunction,Conductor*
%ADD16C,0.508000*%
G04 #@! TD*
G04 #@! TA.AperFunction,Conductor*
%ADD17C,0.254000*%
G04 #@! TD*
G04 APERTURE END LIST*
D10*
G04 #@! TO.N,+5V*
G04 #@! TO.C,5V+1*
X142030000Y-107360000D03*
G04 #@! TD*
G04 #@! TO.N,GND*
G04 #@! TO.C,GND1*
X142180000Y-93700000D03*
G04 #@! TD*
G04 #@! TO.N,RXNRF*
G04 #@! TO.C,RX1*
X165060000Y-106460000D03*
G04 #@! TD*
G04 #@! TO.N,TXNRF*
G04 #@! TO.C,TX1*
X165000000Y-94560000D03*
G04 #@! TD*
D11*
G04 #@! TO.N,N/C*
G04 #@! TO.C,Edge_Connect1*
X144370000Y-108399000D03*
D12*
X142871000Y-109390000D03*
X164182000Y-109390000D03*
D11*
X163420000Y-108399000D03*
D13*
G04 #@! TO.N,GND*
X145640000Y-109390000D03*
G04 #@! TO.N,Net-(Edge_Connect1-Pad13)*
X146910000Y-109390000D03*
G04 #@! TO.N,Net-(Edge_Connect1-Pad12)*
X148180000Y-109390000D03*
G04 #@! TO.N,Net-(Edge_Connect1-Pad11)*
X149450000Y-109390000D03*
G04 #@! TO.N,TX2*
X150720000Y-109390000D03*
G04 #@! TO.N,RX2*
X151990000Y-109390000D03*
G04 #@! TO.N,TX1*
X153260000Y-109390000D03*
G04 #@! TO.N,RX1*
X154530000Y-109390000D03*
G04 #@! TO.N,SWO*
X155800000Y-109390000D03*
G04 #@! TO.N,SWDIO*
X157070000Y-109390000D03*
G04 #@! TO.N,SWDCLK*
X158340000Y-109390000D03*
G04 #@! TO.N,NRESET*
X159610000Y-109390000D03*
G04 #@! TO.N,+1V8*
X160880000Y-109390000D03*
G04 #@! TO.N,VCC*
X162150000Y-109390000D03*
G04 #@! TD*
D14*
G04 #@! TO.N,GND*
X159760000Y-107900000D03*
G04 #@! TO.N,VCC*
X156470000Y-93120000D03*
D15*
X140280000Y-102000000D03*
X140300000Y-101090000D03*
X140250000Y-99670000D03*
X140260000Y-98770000D03*
G04 #@! TO.N,GND*
X147790000Y-99350000D03*
X144720000Y-99400000D03*
X143050000Y-101920000D03*
X143100000Y-100980000D03*
X143030000Y-99640000D03*
X143030000Y-98710000D03*
D14*
X151100000Y-103650000D03*
D15*
X153390000Y-92760000D03*
X147290000Y-93630000D03*
X144320000Y-93580000D03*
X156700000Y-101720000D03*
X158750000Y-102150000D03*
D14*
X164340000Y-100970000D03*
D15*
X158770000Y-100400000D03*
X158730000Y-98850000D03*
X158740000Y-97370000D03*
X160770000Y-97320000D03*
X160770000Y-98900000D03*
X160750000Y-100470000D03*
X160760000Y-102100000D03*
X152750000Y-98880000D03*
X154780000Y-98890000D03*
X141930000Y-104100000D03*
X141920000Y-104960000D03*
D14*
X157180000Y-104730000D03*
X153000000Y-106410000D03*
D15*
X139890000Y-94600000D03*
X150580000Y-93860000D03*
X162850000Y-95100000D03*
X165410000Y-108730000D03*
X139890000Y-108710000D03*
X139960000Y-106290000D03*
X140430000Y-104900000D03*
X144570000Y-106910000D03*
X149630000Y-100300000D03*
D14*
X154970000Y-106330000D03*
D15*
X139980000Y-92700000D03*
X145740000Y-92810000D03*
X149090000Y-92740000D03*
X165330000Y-92740000D03*
D14*
X149060000Y-106620000D03*
X146880000Y-105620000D03*
X150800000Y-107240000D03*
X165260000Y-95870000D03*
X143050000Y-97620000D03*
X140020000Y-97290000D03*
X159340000Y-93700000D03*
G04 #@! TO.N,VCC*
X164290000Y-100190000D03*
X163642001Y-98030000D03*
X156690000Y-93580000D03*
X156940000Y-93990000D03*
X162150000Y-108150000D03*
G04 #@! TO.N,+1V8*
X140690000Y-95810000D03*
X140000000Y-95820000D03*
X163550000Y-96490000D03*
G04 #@! TO.N,SIM1.8v*
X147980000Y-106315002D03*
X147238989Y-107475769D03*
G04 #@! TO.N,TX2*
X145290000Y-102680000D03*
X159085002Y-94651186D03*
G04 #@! TO.N,RX2*
X146000000Y-101840000D03*
X158415496Y-95981870D03*
G04 #@! TO.N,TX1*
X155880000Y-98000000D03*
G04 #@! TO.N,RX1*
X153697910Y-98206828D03*
X153699675Y-100166134D03*
X153054302Y-104855002D03*
X152330244Y-107111059D03*
G04 #@! TO.N,Net-(NRF91-Pad61)*
X145800000Y-96570000D03*
G04 #@! TO.N,DATSIM*
X149447907Y-102881208D03*
G04 #@! TO.N,CLKSIM*
X149923707Y-103626168D03*
X149580000Y-101270000D03*
X149990000Y-107120814D03*
G04 #@! TO.N,RSTSIM*
X149962699Y-104275000D03*
X152104351Y-104729349D03*
X151643240Y-106971085D03*
G04 #@! TO.N,RXNRF*
X164160000Y-97075002D03*
G04 #@! TO.N,Net-(NRF91-Pad67)*
X146225000Y-97875000D03*
G04 #@! TO.N,+1V8*
X163650000Y-101760000D03*
G04 #@! TD*
D16*
G04 #@! TO.N,VCC*
X162150000Y-109390000D02*
X162150000Y-108150000D01*
D17*
X163642001Y-98030000D02*
X165130000Y-98030000D01*
X164290000Y-100190000D02*
X164980000Y-100190000D01*
D16*
X162150000Y-108150000D02*
X162150000Y-108150000D01*
D17*
G04 #@! TO.N,+1V8*
X163550000Y-96490000D02*
X162740000Y-96490000D01*
X162740000Y-96490000D02*
X162550000Y-96680000D01*
G04 #@! TD*
G04 #@! TO.N,VCC*
G36*
X142385741Y-98365636D02*
G01*
X142330938Y-98497942D01*
X142303000Y-98638397D01*
X142303000Y-98781603D01*
X142330938Y-98922058D01*
X142385741Y-99054364D01*
X142465302Y-99173436D01*
X142466866Y-99175000D01*
X142465302Y-99176564D01*
X142385741Y-99295636D01*
X142330938Y-99427942D01*
X142303000Y-99568397D01*
X142303000Y-99711603D01*
X142330938Y-99852058D01*
X142385741Y-99984364D01*
X142465302Y-100103436D01*
X142566564Y-100204698D01*
X142685636Y-100284259D01*
X142782780Y-100324497D01*
X142755636Y-100335741D01*
X142636564Y-100415302D01*
X142535302Y-100516564D01*
X142455741Y-100635636D01*
X142400938Y-100767942D01*
X142373000Y-100908397D01*
X142373000Y-101051603D01*
X142400938Y-101192058D01*
X142455741Y-101324364D01*
X142520533Y-101421333D01*
X142485302Y-101456564D01*
X142405741Y-101575636D01*
X142350938Y-101707942D01*
X142323000Y-101848397D01*
X142323000Y-101991603D01*
X142350938Y-102132058D01*
X142405741Y-102264364D01*
X142485302Y-102383436D01*
X142586564Y-102484698D01*
X142705636Y-102564259D01*
X142837942Y-102619062D01*
X142978397Y-102647000D01*
X143121603Y-102647000D01*
X143262058Y-102619062D01*
X143394364Y-102564259D01*
X143513436Y-102484698D01*
X143614698Y-102383436D01*
X143694259Y-102264364D01*
X143749062Y-102132058D01*
X143752478Y-102114883D01*
X143762055Y-103412525D01*
X142155669Y-103406576D01*
X142142058Y-103400938D01*
X142001603Y-103373000D01*
X141858397Y-103373000D01*
X141717942Y-103400938D01*
X141708331Y-103404919D01*
X141190470Y-103403001D01*
X141165685Y-103405349D01*
X141141834Y-103412488D01*
X141119834Y-103424143D01*
X141100531Y-103439865D01*
X141084665Y-103459052D01*
X141072848Y-103480965D01*
X141065533Y-103504762D01*
X141063022Y-103527649D01*
X141055301Y-103944599D01*
X139758203Y-103961336D01*
X139766995Y-103016181D01*
X139767000Y-103015000D01*
X139767000Y-102777890D01*
X139786997Y-99763342D01*
X139787000Y-99762500D01*
X139787000Y-98247000D01*
X142465011Y-98247000D01*
X142385741Y-98365636D01*
G37*
X142385741Y-98365636D02*
X142330938Y-98497942D01*
X142303000Y-98638397D01*
X142303000Y-98781603D01*
X142330938Y-98922058D01*
X142385741Y-99054364D01*
X142465302Y-99173436D01*
X142466866Y-99175000D01*
X142465302Y-99176564D01*
X142385741Y-99295636D01*
X142330938Y-99427942D01*
X142303000Y-99568397D01*
X142303000Y-99711603D01*
X142330938Y-99852058D01*
X142385741Y-99984364D01*
X142465302Y-100103436D01*
X142566564Y-100204698D01*
X142685636Y-100284259D01*
X142782780Y-100324497D01*
X142755636Y-100335741D01*
X142636564Y-100415302D01*
X142535302Y-100516564D01*
X142455741Y-100635636D01*
X142400938Y-100767942D01*
X142373000Y-100908397D01*
X142373000Y-101051603D01*
X142400938Y-101192058D01*
X142455741Y-101324364D01*
X142520533Y-101421333D01*
X142485302Y-101456564D01*
X142405741Y-101575636D01*
X142350938Y-101707942D01*
X142323000Y-101848397D01*
X142323000Y-101991603D01*
X142350938Y-102132058D01*
X142405741Y-102264364D01*
X142485302Y-102383436D01*
X142586564Y-102484698D01*
X142705636Y-102564259D01*
X142837942Y-102619062D01*
X142978397Y-102647000D01*
X143121603Y-102647000D01*
X143262058Y-102619062D01*
X143394364Y-102564259D01*
X143513436Y-102484698D01*
X143614698Y-102383436D01*
X143694259Y-102264364D01*
X143749062Y-102132058D01*
X143752478Y-102114883D01*
X143762055Y-103412525D01*
X142155669Y-103406576D01*
X142142058Y-103400938D01*
X142001603Y-103373000D01*
X141858397Y-103373000D01*
X141717942Y-103400938D01*
X141708331Y-103404919D01*
X141190470Y-103403001D01*
X141165685Y-103405349D01*
X141141834Y-103412488D01*
X141119834Y-103424143D01*
X141100531Y-103439865D01*
X141084665Y-103459052D01*
X141072848Y-103480965D01*
X141065533Y-103504762D01*
X141063022Y-103527649D01*
X141055301Y-103944599D01*
X139758203Y-103961336D01*
X139766995Y-103016181D01*
X139767000Y-103015000D01*
X139767000Y-102777890D01*
X139786997Y-99763342D01*
X139787000Y-99762500D01*
X139787000Y-98247000D01*
X142465011Y-98247000D01*
X142385741Y-98365636D01*
G36*
X163905868Y-93464573D02*
G01*
X163905157Y-93465157D01*
X163864294Y-93514950D01*
X163833930Y-93571757D01*
X163815232Y-93633397D01*
X163808918Y-93697500D01*
X163808918Y-95422500D01*
X163815232Y-95486603D01*
X163833930Y-95548243D01*
X163864294Y-95605050D01*
X163905157Y-95654843D01*
X163954950Y-95695706D01*
X164011757Y-95726070D01*
X164073397Y-95744768D01*
X164137500Y-95751082D01*
X164720840Y-95751082D01*
X164708000Y-95815633D01*
X164708000Y-95924367D01*
X164729213Y-96031012D01*
X164770824Y-96131470D01*
X164831234Y-96221880D01*
X164908120Y-96298766D01*
X164998530Y-96359176D01*
X165098988Y-96400787D01*
X165205633Y-96422000D01*
X165314367Y-96422000D01*
X165421012Y-96400787D01*
X165521470Y-96359176D01*
X165611880Y-96298766D01*
X165688766Y-96221880D01*
X165749176Y-96131470D01*
X165771001Y-96078780D01*
X165771000Y-105268918D01*
X164197500Y-105268918D01*
X164133397Y-105275232D01*
X164071757Y-105293930D01*
X164014950Y-105324294D01*
X163965157Y-105365157D01*
X163924294Y-105414950D01*
X163893930Y-105471757D01*
X163875232Y-105533397D01*
X163868918Y-105597500D01*
X163868918Y-107322500D01*
X163875232Y-107386603D01*
X163893930Y-107448243D01*
X163924294Y-107505050D01*
X163965157Y-107554843D01*
X164014950Y-107595706D01*
X164071757Y-107626070D01*
X164133397Y-107644768D01*
X164197500Y-107651082D01*
X165771000Y-107651082D01*
X165771000Y-107663000D01*
X163867358Y-107663000D01*
X163827600Y-107636434D01*
X163670999Y-107571568D01*
X163504752Y-107538500D01*
X163335248Y-107538500D01*
X163169001Y-107571568D01*
X163012400Y-107636434D01*
X162972022Y-107663414D01*
X162951447Y-107665440D01*
X162927622Y-107672667D01*
X162905666Y-107684403D01*
X162886420Y-107700197D01*
X162870626Y-107719443D01*
X162858890Y-107741399D01*
X162858115Y-107743954D01*
X162751606Y-107850463D01*
X162657434Y-107991400D01*
X162592568Y-108148001D01*
X162559500Y-108314248D01*
X162559500Y-108483752D01*
X162592568Y-108649999D01*
X162657434Y-108806600D01*
X162751606Y-108947537D01*
X162829493Y-109025424D01*
X162828287Y-109101000D01*
X161716582Y-109101000D01*
X161716582Y-108882000D01*
X161710268Y-108817897D01*
X161707000Y-108807124D01*
X161707000Y-107510000D01*
X161704560Y-107485224D01*
X161697333Y-107461399D01*
X161685597Y-107439443D01*
X161669803Y-107420197D01*
X161650557Y-107404403D01*
X161628601Y-107392667D01*
X161604776Y-107385440D01*
X161581708Y-107383011D01*
X159874947Y-107360050D01*
X159814367Y-107348000D01*
X159705633Y-107348000D01*
X159659616Y-107357153D01*
X159351708Y-107353011D01*
X159326901Y-107355118D01*
X159302982Y-107362024D01*
X159280869Y-107373464D01*
X159261414Y-107388998D01*
X159245362Y-107408029D01*
X159233332Y-107429825D01*
X159225785Y-107453550D01*
X159223021Y-107477697D01*
X159217185Y-107799455D01*
X159208000Y-107845633D01*
X159208000Y-107954367D01*
X159213843Y-107983742D01*
X159210249Y-108181909D01*
X145179340Y-108104324D01*
X145132566Y-107991400D01*
X145038394Y-107850463D01*
X144918537Y-107730606D01*
X144777600Y-107636434D01*
X144734403Y-107618541D01*
X144782058Y-107609062D01*
X144914364Y-107554259D01*
X145033436Y-107474698D01*
X145086732Y-107421402D01*
X146686989Y-107421402D01*
X146686989Y-107530136D01*
X146708202Y-107636781D01*
X146749813Y-107737239D01*
X146810223Y-107827649D01*
X146887109Y-107904535D01*
X146977519Y-107964945D01*
X147077977Y-108006556D01*
X147184622Y-108027769D01*
X147293356Y-108027769D01*
X147400001Y-108006556D01*
X147500459Y-107964945D01*
X147590869Y-107904535D01*
X147667755Y-107827649D01*
X147728165Y-107737239D01*
X147769776Y-107636781D01*
X147790989Y-107530136D01*
X147790989Y-107421402D01*
X147769776Y-107314757D01*
X147728165Y-107214299D01*
X147667755Y-107123889D01*
X147590869Y-107047003D01*
X147500459Y-106986593D01*
X147400001Y-106944982D01*
X147293356Y-106923769D01*
X147184622Y-106923769D01*
X147077977Y-106944982D01*
X146977519Y-106986593D01*
X146887109Y-107047003D01*
X146810223Y-107123889D01*
X146749813Y-107214299D01*
X146708202Y-107314757D01*
X146686989Y-107421402D01*
X145086732Y-107421402D01*
X145134698Y-107373436D01*
X145214259Y-107254364D01*
X145269062Y-107122058D01*
X145297000Y-106981603D01*
X145297000Y-106838397D01*
X145269062Y-106697942D01*
X145214259Y-106565636D01*
X145134698Y-106446564D01*
X145033436Y-106345302D01*
X144914364Y-106265741D01*
X144782058Y-106210938D01*
X144641603Y-106183000D01*
X144498397Y-106183000D01*
X144357942Y-106210938D01*
X144225636Y-106265741D01*
X144106564Y-106345302D01*
X144005302Y-106446564D01*
X143925741Y-106565636D01*
X143870938Y-106697942D01*
X143843000Y-106838397D01*
X143843000Y-106981603D01*
X143870938Y-107122058D01*
X143925741Y-107254364D01*
X144005302Y-107373436D01*
X144106564Y-107474698D01*
X144221136Y-107551252D01*
X144119001Y-107571568D01*
X143962400Y-107636434D01*
X143821463Y-107730606D01*
X143701606Y-107850463D01*
X143607434Y-107991400D01*
X143564359Y-108095393D01*
X143294656Y-108093902D01*
X143299477Y-103499933D01*
X143297063Y-103475154D01*
X143293780Y-103462190D01*
X143112779Y-102878415D01*
X144780344Y-102892028D01*
X144800824Y-102941470D01*
X144861234Y-103031880D01*
X144938120Y-103108766D01*
X145028530Y-103169176D01*
X145128988Y-103210787D01*
X145235633Y-103232000D01*
X145270790Y-103232000D01*
X145323018Y-106322146D01*
X145325877Y-106346878D01*
X145333505Y-106370577D01*
X145345611Y-106392332D01*
X145361728Y-106411307D01*
X145381237Y-106426774D01*
X145403389Y-106438137D01*
X145427332Y-106444961D01*
X145449455Y-106446999D01*
X147445144Y-106455558D01*
X147449213Y-106476014D01*
X147490824Y-106576472D01*
X147551234Y-106666882D01*
X147628120Y-106743768D01*
X147718530Y-106804178D01*
X147818988Y-106845789D01*
X147925633Y-106867002D01*
X148034367Y-106867002D01*
X148141012Y-106845789D01*
X148241470Y-106804178D01*
X148331880Y-106743768D01*
X148408766Y-106666882D01*
X148469176Y-106576472D01*
X148510787Y-106476014D01*
X148513944Y-106460142D01*
X148528971Y-106460206D01*
X148508000Y-106565633D01*
X148508000Y-106674367D01*
X148529213Y-106781012D01*
X148570824Y-106881470D01*
X148631234Y-106971880D01*
X148708120Y-107048766D01*
X148798530Y-107109176D01*
X148898988Y-107150787D01*
X149005633Y-107172000D01*
X149114367Y-107172000D01*
X149221012Y-107150787D01*
X149321470Y-107109176D01*
X149411880Y-107048766D01*
X149448876Y-107011770D01*
X149438000Y-107066447D01*
X149438000Y-107175181D01*
X149459213Y-107281826D01*
X149500824Y-107382284D01*
X149561234Y-107472694D01*
X149638120Y-107549580D01*
X149728530Y-107609990D01*
X149828988Y-107651601D01*
X149935633Y-107672814D01*
X150044367Y-107672814D01*
X150151012Y-107651601D01*
X150251470Y-107609990D01*
X150341880Y-107549580D01*
X150342533Y-107548927D01*
X150371234Y-107591880D01*
X150448120Y-107668766D01*
X150538530Y-107729176D01*
X150638988Y-107770787D01*
X150745633Y-107792000D01*
X150854367Y-107792000D01*
X150961012Y-107770787D01*
X151061470Y-107729176D01*
X151151880Y-107668766D01*
X151228766Y-107591880D01*
X151289176Y-107501470D01*
X151322617Y-107420736D01*
X151381770Y-107460261D01*
X151482228Y-107501872D01*
X151588873Y-107523085D01*
X151697607Y-107523085D01*
X151804252Y-107501872D01*
X151900777Y-107461890D01*
X151901478Y-107462939D01*
X151978364Y-107539825D01*
X152068774Y-107600235D01*
X152169232Y-107641846D01*
X152275877Y-107663059D01*
X152384611Y-107663059D01*
X152491256Y-107641846D01*
X152591714Y-107600235D01*
X152682124Y-107539825D01*
X152759010Y-107462939D01*
X152819420Y-107372529D01*
X152861031Y-107272071D01*
X152882244Y-107165426D01*
X152882244Y-107056692D01*
X152861031Y-106950047D01*
X152858830Y-106944734D01*
X152945633Y-106962000D01*
X153054367Y-106962000D01*
X153161012Y-106940787D01*
X153261470Y-106899176D01*
X153351880Y-106838766D01*
X153428766Y-106761880D01*
X153489176Y-106671470D01*
X153530787Y-106571012D01*
X153548545Y-106481734D01*
X154438126Y-106485550D01*
X154439213Y-106491012D01*
X154480824Y-106591470D01*
X154541234Y-106681880D01*
X154618120Y-106758766D01*
X154708530Y-106819176D01*
X154808988Y-106860787D01*
X154915633Y-106882000D01*
X155024367Y-106882000D01*
X155131012Y-106860787D01*
X155231470Y-106819176D01*
X155321880Y-106758766D01*
X155398766Y-106681880D01*
X155459176Y-106591470D01*
X155500787Y-106491012D01*
X155500967Y-106490108D01*
X159340050Y-106506573D01*
X159364837Y-106504239D01*
X159388692Y-106497114D01*
X159410699Y-106485472D01*
X159430012Y-106469761D01*
X159445888Y-106450584D01*
X159453391Y-106436691D01*
X162439732Y-106428532D01*
X162464502Y-106426024D01*
X162488306Y-106418731D01*
X162490543Y-106417528D01*
X162755013Y-106420254D01*
X162779813Y-106418070D01*
X162803711Y-106411088D01*
X162825787Y-106399579D01*
X162845194Y-106383985D01*
X162861186Y-106364903D01*
X162873147Y-106343069D01*
X162880620Y-106319320D01*
X162883189Y-106299065D01*
X162931381Y-105245716D01*
X164691351Y-105226993D01*
X164716100Y-105224289D01*
X164739846Y-105216809D01*
X164761677Y-105204840D01*
X164780753Y-105188842D01*
X164796341Y-105169430D01*
X164807843Y-105147350D01*
X164814816Y-105123450D01*
X164816958Y-105103260D01*
X164979599Y-98769839D01*
X164977796Y-98745008D01*
X164971183Y-98721006D01*
X164960014Y-98698756D01*
X164944719Y-98679111D01*
X164925886Y-98662828D01*
X164904238Y-98650533D01*
X164880607Y-98642696D01*
X164856449Y-98639636D01*
X164427000Y-98626753D01*
X164427000Y-98567000D01*
X164847636Y-98567000D01*
X164872412Y-98564560D01*
X164896237Y-98557333D01*
X164918193Y-98545597D01*
X164937439Y-98529803D01*
X164953233Y-98510557D01*
X164964969Y-98488601D01*
X164972196Y-98464776D01*
X164974631Y-98438846D01*
X164956995Y-96498846D01*
X164954329Y-96474092D01*
X164946886Y-96450335D01*
X164934951Y-96428486D01*
X164918983Y-96409385D01*
X164899595Y-96393766D01*
X164877532Y-96382230D01*
X164853643Y-96375220D01*
X164826637Y-96373045D01*
X164093414Y-96392468D01*
X164080787Y-96328988D01*
X164039176Y-96228530D01*
X163978766Y-96138120D01*
X163901880Y-96061234D01*
X163811470Y-96000824D01*
X163711012Y-95959213D01*
X163604367Y-95938000D01*
X163495633Y-95938000D01*
X163443621Y-95948346D01*
X163441195Y-95523780D01*
X163494259Y-95444364D01*
X163549062Y-95312058D01*
X163577000Y-95171603D01*
X163577000Y-95028397D01*
X163549062Y-94887942D01*
X163494259Y-94755636D01*
X163414698Y-94636564D01*
X163313436Y-94535302D01*
X163194364Y-94455741D01*
X163062058Y-94400938D01*
X162921603Y-94373000D01*
X162778397Y-94373000D01*
X162637942Y-94400938D01*
X162505636Y-94455741D01*
X162386564Y-94535302D01*
X162285302Y-94636564D01*
X162268867Y-94661160D01*
X159637002Y-94656510D01*
X159637002Y-94596819D01*
X159615789Y-94490174D01*
X159574178Y-94389716D01*
X159513768Y-94299306D01*
X159454501Y-94240039D01*
X159501012Y-94230787D01*
X159601470Y-94189176D01*
X159691880Y-94128766D01*
X159768766Y-94051880D01*
X159829176Y-93961470D01*
X159870787Y-93861012D01*
X159892000Y-93754367D01*
X159892000Y-93645633D01*
X159870787Y-93538988D01*
X159829176Y-93438530D01*
X159768766Y-93348120D01*
X159691880Y-93271234D01*
X159601470Y-93210824D01*
X159501012Y-93169213D01*
X159394367Y-93148000D01*
X159285633Y-93148000D01*
X159178988Y-93169213D01*
X159078530Y-93210824D01*
X158988120Y-93271234D01*
X158911234Y-93348120D01*
X158850824Y-93438530D01*
X158809213Y-93538988D01*
X158788000Y-93645633D01*
X158788000Y-93754367D01*
X158809213Y-93861012D01*
X158850824Y-93961470D01*
X158911234Y-94051880D01*
X158970501Y-94111147D01*
X158923990Y-94120399D01*
X158823532Y-94162010D01*
X158733122Y-94222420D01*
X158656236Y-94299306D01*
X158595826Y-94389716D01*
X158554215Y-94490174D01*
X158533002Y-94596819D01*
X158533002Y-94654560D01*
X156364674Y-94650729D01*
X156409398Y-92508422D01*
X163912203Y-92443117D01*
X163905868Y-93464573D01*
G37*
X163905868Y-93464573D02*
X163905157Y-93465157D01*
X163864294Y-93514950D01*
X163833930Y-93571757D01*
X163815232Y-93633397D01*
X163808918Y-93697500D01*
X163808918Y-95422500D01*
X163815232Y-95486603D01*
X163833930Y-95548243D01*
X163864294Y-95605050D01*
X163905157Y-95654843D01*
X163954950Y-95695706D01*
X164011757Y-95726070D01*
X164073397Y-95744768D01*
X164137500Y-95751082D01*
X164720840Y-95751082D01*
X164708000Y-95815633D01*
X164708000Y-95924367D01*
X164729213Y-96031012D01*
X164770824Y-96131470D01*
X164831234Y-96221880D01*
X164908120Y-96298766D01*
X164998530Y-96359176D01*
X165098988Y-96400787D01*
X165205633Y-96422000D01*
X165314367Y-96422000D01*
X165421012Y-96400787D01*
X165521470Y-96359176D01*
X165611880Y-96298766D01*
X165688766Y-96221880D01*
X165749176Y-96131470D01*
X165771001Y-96078780D01*
X165771000Y-105268918D01*
X164197500Y-105268918D01*
X164133397Y-105275232D01*
X164071757Y-105293930D01*
X164014950Y-105324294D01*
X163965157Y-105365157D01*
X163924294Y-105414950D01*
X163893930Y-105471757D01*
X163875232Y-105533397D01*
X163868918Y-105597500D01*
X163868918Y-107322500D01*
X163875232Y-107386603D01*
X163893930Y-107448243D01*
X163924294Y-107505050D01*
X163965157Y-107554843D01*
X164014950Y-107595706D01*
X164071757Y-107626070D01*
X164133397Y-107644768D01*
X164197500Y-107651082D01*
X165771000Y-107651082D01*
X165771000Y-107663000D01*
X163867358Y-107663000D01*
X163827600Y-107636434D01*
X163670999Y-107571568D01*
X163504752Y-107538500D01*
X163335248Y-107538500D01*
X163169001Y-107571568D01*
X163012400Y-107636434D01*
X162972022Y-107663414D01*
X162951447Y-107665440D01*
X162927622Y-107672667D01*
X162905666Y-107684403D01*
X162886420Y-107700197D01*
X162870626Y-107719443D01*
X162858890Y-107741399D01*
X162858115Y-107743954D01*
X162751606Y-107850463D01*
X162657434Y-107991400D01*
X162592568Y-108148001D01*
X162559500Y-108314248D01*
X162559500Y-108483752D01*
X162592568Y-108649999D01*
X162657434Y-108806600D01*
X162751606Y-108947537D01*
X162829493Y-109025424D01*
X162828287Y-109101000D01*
X161716582Y-109101000D01*
X161716582Y-108882000D01*
X161710268Y-108817897D01*
X161707000Y-108807124D01*
X161707000Y-107510000D01*
X161704560Y-107485224D01*
X161697333Y-107461399D01*
X161685597Y-107439443D01*
X161669803Y-107420197D01*
X161650557Y-107404403D01*
X161628601Y-107392667D01*
X161604776Y-107385440D01*
X161581708Y-107383011D01*
X159874947Y-107360050D01*
X159814367Y-107348000D01*
X159705633Y-107348000D01*
X159659616Y-107357153D01*
X159351708Y-107353011D01*
X159326901Y-107355118D01*
X159302982Y-107362024D01*
X159280869Y-107373464D01*
X159261414Y-107388998D01*
X159245362Y-107408029D01*
X159233332Y-107429825D01*
X159225785Y-107453550D01*
X159223021Y-107477697D01*
X159217185Y-107799455D01*
X159208000Y-107845633D01*
X159208000Y-107954367D01*
X159213843Y-107983742D01*
X159210249Y-108181909D01*
X145179340Y-108104324D01*
X145132566Y-107991400D01*
X145038394Y-107850463D01*
X144918537Y-107730606D01*
X144777600Y-107636434D01*
X144734403Y-107618541D01*
X144782058Y-107609062D01*
X144914364Y-107554259D01*
X145033436Y-107474698D01*
X145086732Y-107421402D01*
X146686989Y-107421402D01*
X146686989Y-107530136D01*
X146708202Y-107636781D01*
X146749813Y-107737239D01*
X146810223Y-107827649D01*
X146887109Y-107904535D01*
X146977519Y-107964945D01*
X147077977Y-108006556D01*
X147184622Y-108027769D01*
X147293356Y-108027769D01*
X147400001Y-108006556D01*
X147500459Y-107964945D01*
X147590869Y-107904535D01*
X147667755Y-107827649D01*
X147728165Y-107737239D01*
X147769776Y-107636781D01*
X147790989Y-107530136D01*
X147790989Y-107421402D01*
X147769776Y-107314757D01*
X147728165Y-107214299D01*
X147667755Y-107123889D01*
X147590869Y-107047003D01*
X147500459Y-106986593D01*
X147400001Y-106944982D01*
X147293356Y-106923769D01*
X147184622Y-106923769D01*
X147077977Y-106944982D01*
X146977519Y-106986593D01*
X146887109Y-107047003D01*
X146810223Y-107123889D01*
X146749813Y-107214299D01*
X146708202Y-107314757D01*
X146686989Y-107421402D01*
X145086732Y-107421402D01*
X145134698Y-107373436D01*
X145214259Y-107254364D01*
X145269062Y-107122058D01*
X145297000Y-106981603D01*
X145297000Y-106838397D01*
X145269062Y-106697942D01*
X145214259Y-106565636D01*
X145134698Y-106446564D01*
X145033436Y-106345302D01*
X144914364Y-106265741D01*
X144782058Y-106210938D01*
X144641603Y-106183000D01*
X144498397Y-106183000D01*
X144357942Y-106210938D01*
X144225636Y-106265741D01*
X144106564Y-106345302D01*
X144005302Y-106446564D01*
X143925741Y-106565636D01*
X143870938Y-106697942D01*
X143843000Y-106838397D01*
X143843000Y-106981603D01*
X143870938Y-107122058D01*
X143925741Y-107254364D01*
X144005302Y-107373436D01*
X144106564Y-107474698D01*
X144221136Y-107551252D01*
X144119001Y-107571568D01*
X143962400Y-107636434D01*
X143821463Y-107730606D01*
X143701606Y-107850463D01*
X143607434Y-107991400D01*
X143564359Y-108095393D01*
X143294656Y-108093902D01*
X143299477Y-103499933D01*
X143297063Y-103475154D01*
X143293780Y-103462190D01*
X143112779Y-102878415D01*
X144780344Y-102892028D01*
X144800824Y-102941470D01*
X144861234Y-103031880D01*
X144938120Y-103108766D01*
X145028530Y-103169176D01*
X145128988Y-103210787D01*
X145235633Y-103232000D01*
X145270790Y-103232000D01*
X145323018Y-106322146D01*
X145325877Y-106346878D01*
X145333505Y-106370577D01*
X145345611Y-106392332D01*
X145361728Y-106411307D01*
X145381237Y-106426774D01*
X145403389Y-106438137D01*
X145427332Y-106444961D01*
X145449455Y-106446999D01*
X147445144Y-106455558D01*
X147449213Y-106476014D01*
X147490824Y-106576472D01*
X147551234Y-106666882D01*
X147628120Y-106743768D01*
X147718530Y-106804178D01*
X147818988Y-106845789D01*
X147925633Y-106867002D01*
X148034367Y-106867002D01*
X148141012Y-106845789D01*
X148241470Y-106804178D01*
X148331880Y-106743768D01*
X148408766Y-106666882D01*
X148469176Y-106576472D01*
X148510787Y-106476014D01*
X148513944Y-106460142D01*
X148528971Y-106460206D01*
X148508000Y-106565633D01*
X148508000Y-106674367D01*
X148529213Y-106781012D01*
X148570824Y-106881470D01*
X148631234Y-106971880D01*
X148708120Y-107048766D01*
X148798530Y-107109176D01*
X148898988Y-107150787D01*
X149005633Y-107172000D01*
X149114367Y-107172000D01*
X149221012Y-107150787D01*
X149321470Y-107109176D01*
X149411880Y-107048766D01*
X149448876Y-107011770D01*
X149438000Y-107066447D01*
X149438000Y-107175181D01*
X149459213Y-107281826D01*
X149500824Y-107382284D01*
X149561234Y-107472694D01*
X149638120Y-107549580D01*
X149728530Y-107609990D01*
X149828988Y-107651601D01*
X149935633Y-107672814D01*
X150044367Y-107672814D01*
X150151012Y-107651601D01*
X150251470Y-107609990D01*
X150341880Y-107549580D01*
X150342533Y-107548927D01*
X150371234Y-107591880D01*
X150448120Y-107668766D01*
X150538530Y-107729176D01*
X150638988Y-107770787D01*
X150745633Y-107792000D01*
X150854367Y-107792000D01*
X150961012Y-107770787D01*
X151061470Y-107729176D01*
X151151880Y-107668766D01*
X151228766Y-107591880D01*
X151289176Y-107501470D01*
X151322617Y-107420736D01*
X151381770Y-107460261D01*
X151482228Y-107501872D01*
X151588873Y-107523085D01*
X151697607Y-107523085D01*
X151804252Y-107501872D01*
X151900777Y-107461890D01*
X151901478Y-107462939D01*
X151978364Y-107539825D01*
X152068774Y-107600235D01*
X152169232Y-107641846D01*
X152275877Y-107663059D01*
X152384611Y-107663059D01*
X152491256Y-107641846D01*
X152591714Y-107600235D01*
X152682124Y-107539825D01*
X152759010Y-107462939D01*
X152819420Y-107372529D01*
X152861031Y-107272071D01*
X152882244Y-107165426D01*
X152882244Y-107056692D01*
X152861031Y-106950047D01*
X152858830Y-106944734D01*
X152945633Y-106962000D01*
X153054367Y-106962000D01*
X153161012Y-106940787D01*
X153261470Y-106899176D01*
X153351880Y-106838766D01*
X153428766Y-106761880D01*
X153489176Y-106671470D01*
X153530787Y-106571012D01*
X153548545Y-106481734D01*
X154438126Y-106485550D01*
X154439213Y-106491012D01*
X154480824Y-106591470D01*
X154541234Y-106681880D01*
X154618120Y-106758766D01*
X154708530Y-106819176D01*
X154808988Y-106860787D01*
X154915633Y-106882000D01*
X155024367Y-106882000D01*
X155131012Y-106860787D01*
X155231470Y-106819176D01*
X155321880Y-106758766D01*
X155398766Y-106681880D01*
X155459176Y-106591470D01*
X155500787Y-106491012D01*
X155500967Y-106490108D01*
X159340050Y-106506573D01*
X159364837Y-106504239D01*
X159388692Y-106497114D01*
X159410699Y-106485472D01*
X159430012Y-106469761D01*
X159445888Y-106450584D01*
X159453391Y-106436691D01*
X162439732Y-106428532D01*
X162464502Y-106426024D01*
X162488306Y-106418731D01*
X162490543Y-106417528D01*
X162755013Y-106420254D01*
X162779813Y-106418070D01*
X162803711Y-106411088D01*
X162825787Y-106399579D01*
X162845194Y-106383985D01*
X162861186Y-106364903D01*
X162873147Y-106343069D01*
X162880620Y-106319320D01*
X162883189Y-106299065D01*
X162931381Y-105245716D01*
X164691351Y-105226993D01*
X164716100Y-105224289D01*
X164739846Y-105216809D01*
X164761677Y-105204840D01*
X164780753Y-105188842D01*
X164796341Y-105169430D01*
X164807843Y-105147350D01*
X164814816Y-105123450D01*
X164816958Y-105103260D01*
X164979599Y-98769839D01*
X164977796Y-98745008D01*
X164971183Y-98721006D01*
X164960014Y-98698756D01*
X164944719Y-98679111D01*
X164925886Y-98662828D01*
X164904238Y-98650533D01*
X164880607Y-98642696D01*
X164856449Y-98639636D01*
X164427000Y-98626753D01*
X164427000Y-98567000D01*
X164847636Y-98567000D01*
X164872412Y-98564560D01*
X164896237Y-98557333D01*
X164918193Y-98545597D01*
X164937439Y-98529803D01*
X164953233Y-98510557D01*
X164964969Y-98488601D01*
X164972196Y-98464776D01*
X164974631Y-98438846D01*
X164956995Y-96498846D01*
X164954329Y-96474092D01*
X164946886Y-96450335D01*
X164934951Y-96428486D01*
X164918983Y-96409385D01*
X164899595Y-96393766D01*
X164877532Y-96382230D01*
X164853643Y-96375220D01*
X164826637Y-96373045D01*
X164093414Y-96392468D01*
X164080787Y-96328988D01*
X164039176Y-96228530D01*
X163978766Y-96138120D01*
X163901880Y-96061234D01*
X163811470Y-96000824D01*
X163711012Y-95959213D01*
X163604367Y-95938000D01*
X163495633Y-95938000D01*
X163443621Y-95948346D01*
X163441195Y-95523780D01*
X163494259Y-95444364D01*
X163549062Y-95312058D01*
X163577000Y-95171603D01*
X163577000Y-95028397D01*
X163549062Y-94887942D01*
X163494259Y-94755636D01*
X163414698Y-94636564D01*
X163313436Y-94535302D01*
X163194364Y-94455741D01*
X163062058Y-94400938D01*
X162921603Y-94373000D01*
X162778397Y-94373000D01*
X162637942Y-94400938D01*
X162505636Y-94455741D01*
X162386564Y-94535302D01*
X162285302Y-94636564D01*
X162268867Y-94661160D01*
X159637002Y-94656510D01*
X159637002Y-94596819D01*
X159615789Y-94490174D01*
X159574178Y-94389716D01*
X159513768Y-94299306D01*
X159454501Y-94240039D01*
X159501012Y-94230787D01*
X159601470Y-94189176D01*
X159691880Y-94128766D01*
X159768766Y-94051880D01*
X159829176Y-93961470D01*
X159870787Y-93861012D01*
X159892000Y-93754367D01*
X159892000Y-93645633D01*
X159870787Y-93538988D01*
X159829176Y-93438530D01*
X159768766Y-93348120D01*
X159691880Y-93271234D01*
X159601470Y-93210824D01*
X159501012Y-93169213D01*
X159394367Y-93148000D01*
X159285633Y-93148000D01*
X159178988Y-93169213D01*
X159078530Y-93210824D01*
X158988120Y-93271234D01*
X158911234Y-93348120D01*
X158850824Y-93438530D01*
X158809213Y-93538988D01*
X158788000Y-93645633D01*
X158788000Y-93754367D01*
X158809213Y-93861012D01*
X158850824Y-93961470D01*
X158911234Y-94051880D01*
X158970501Y-94111147D01*
X158923990Y-94120399D01*
X158823532Y-94162010D01*
X158733122Y-94222420D01*
X158656236Y-94299306D01*
X158595826Y-94389716D01*
X158554215Y-94490174D01*
X158533002Y-94596819D01*
X158533002Y-94654560D01*
X156364674Y-94650729D01*
X156409398Y-92508422D01*
X163912203Y-92443117D01*
X163905868Y-93464573D01*
G04 #@! TO.N,+1V8*
G36*
X162165165Y-95346404D02*
G01*
X162205741Y-95444364D01*
X162285302Y-95563436D01*
X162386564Y-95664698D01*
X162505636Y-95744259D01*
X162637942Y-95799062D01*
X162733000Y-95817970D01*
X162733000Y-96990000D01*
X162735440Y-97014776D01*
X162742667Y-97038601D01*
X162754403Y-97060557D01*
X162770197Y-97079803D01*
X162789443Y-97095597D01*
X162811399Y-97107333D01*
X162835224Y-97114560D01*
X162864185Y-97116931D01*
X163608000Y-97092410D01*
X163608000Y-97129369D01*
X163629213Y-97236014D01*
X163643808Y-97271250D01*
X163644346Y-97478000D01*
X163587634Y-97478000D01*
X163480989Y-97499213D01*
X163380531Y-97540824D01*
X163290121Y-97601234D01*
X163213235Y-97678120D01*
X163152825Y-97768530D01*
X163111214Y-97868988D01*
X163090001Y-97975633D01*
X163090001Y-98084367D01*
X163111214Y-98191012D01*
X163152825Y-98291470D01*
X163213235Y-98381880D01*
X163290121Y-98458766D01*
X163380531Y-98519176D01*
X163480989Y-98560787D01*
X163587634Y-98582000D01*
X163647217Y-98582000D01*
X163662678Y-104526394D01*
X162306569Y-104563046D01*
X162281867Y-104566155D01*
X162258247Y-104574023D01*
X162236615Y-104586348D01*
X162217804Y-104602656D01*
X162202536Y-104622321D01*
X162191397Y-104644587D01*
X162184816Y-104668598D01*
X162183067Y-104685872D01*
X162147091Y-105792137D01*
X159539974Y-105773906D01*
X159579073Y-104097000D01*
X161825000Y-104097000D01*
X161849776Y-104094560D01*
X161873601Y-104087333D01*
X161895557Y-104075597D01*
X161914803Y-104059803D01*
X161930597Y-104040557D01*
X161942333Y-104018601D01*
X161949560Y-103994776D01*
X161952000Y-103970083D01*
X161957000Y-96290083D01*
X161954576Y-96265305D01*
X161947364Y-96241476D01*
X161935643Y-96219511D01*
X161919861Y-96200256D01*
X161900626Y-96184449D01*
X161878677Y-96172699D01*
X161854858Y-96165456D01*
X161830399Y-96163001D01*
X158941709Y-96153925D01*
X158946283Y-96142882D01*
X158967496Y-96036237D01*
X158967496Y-95927503D01*
X158946283Y-95820858D01*
X158904672Y-95720400D01*
X158844262Y-95629990D01*
X158767376Y-95553104D01*
X158676966Y-95492694D01*
X158576508Y-95451083D01*
X158469863Y-95429870D01*
X158361129Y-95429870D01*
X158254484Y-95451083D01*
X158154026Y-95492694D01*
X158063616Y-95553104D01*
X157986730Y-95629990D01*
X157926320Y-95720400D01*
X157884709Y-95820858D01*
X157863496Y-95927503D01*
X157863496Y-96036237D01*
X157884709Y-96142882D01*
X157887912Y-96150614D01*
X146110541Y-96113612D01*
X146061470Y-96080824D01*
X145961012Y-96039213D01*
X145854367Y-96018000D01*
X145745633Y-96018000D01*
X145638988Y-96039213D01*
X145538530Y-96080824D01*
X145492366Y-96111670D01*
X139677000Y-96093399D01*
X139677000Y-95327109D01*
X162165165Y-95346404D01*
G37*
X162165165Y-95346404D02*
X162205741Y-95444364D01*
X162285302Y-95563436D01*
X162386564Y-95664698D01*
X162505636Y-95744259D01*
X162637942Y-95799062D01*
X162733000Y-95817970D01*
X162733000Y-96990000D01*
X162735440Y-97014776D01*
X162742667Y-97038601D01*
X162754403Y-97060557D01*
X162770197Y-97079803D01*
X162789443Y-97095597D01*
X162811399Y-97107333D01*
X162835224Y-97114560D01*
X162864185Y-97116931D01*
X163608000Y-97092410D01*
X163608000Y-97129369D01*
X163629213Y-97236014D01*
X163643808Y-97271250D01*
X163644346Y-97478000D01*
X163587634Y-97478000D01*
X163480989Y-97499213D01*
X163380531Y-97540824D01*
X163290121Y-97601234D01*
X163213235Y-97678120D01*
X163152825Y-97768530D01*
X163111214Y-97868988D01*
X163090001Y-97975633D01*
X163090001Y-98084367D01*
X163111214Y-98191012D01*
X163152825Y-98291470D01*
X163213235Y-98381880D01*
X163290121Y-98458766D01*
X163380531Y-98519176D01*
X163480989Y-98560787D01*
X163587634Y-98582000D01*
X163647217Y-98582000D01*
X163662678Y-104526394D01*
X162306569Y-104563046D01*
X162281867Y-104566155D01*
X162258247Y-104574023D01*
X162236615Y-104586348D01*
X162217804Y-104602656D01*
X162202536Y-104622321D01*
X162191397Y-104644587D01*
X162184816Y-104668598D01*
X162183067Y-104685872D01*
X162147091Y-105792137D01*
X159539974Y-105773906D01*
X159579073Y-104097000D01*
X161825000Y-104097000D01*
X161849776Y-104094560D01*
X161873601Y-104087333D01*
X161895557Y-104075597D01*
X161914803Y-104059803D01*
X161930597Y-104040557D01*
X161942333Y-104018601D01*
X161949560Y-103994776D01*
X161952000Y-103970083D01*
X161957000Y-96290083D01*
X161954576Y-96265305D01*
X161947364Y-96241476D01*
X161935643Y-96219511D01*
X161919861Y-96200256D01*
X161900626Y-96184449D01*
X161878677Y-96172699D01*
X161854858Y-96165456D01*
X161830399Y-96163001D01*
X158941709Y-96153925D01*
X158946283Y-96142882D01*
X158967496Y-96036237D01*
X158967496Y-95927503D01*
X158946283Y-95820858D01*
X158904672Y-95720400D01*
X158844262Y-95629990D01*
X158767376Y-95553104D01*
X158676966Y-95492694D01*
X158576508Y-95451083D01*
X158469863Y-95429870D01*
X158361129Y-95429870D01*
X158254484Y-95451083D01*
X158154026Y-95492694D01*
X158063616Y-95553104D01*
X157986730Y-95629990D01*
X157926320Y-95720400D01*
X157884709Y-95820858D01*
X157863496Y-95927503D01*
X157863496Y-96036237D01*
X157884709Y-96142882D01*
X157887912Y-96150614D01*
X146110541Y-96113612D01*
X146061470Y-96080824D01*
X145961012Y-96039213D01*
X145854367Y-96018000D01*
X145745633Y-96018000D01*
X145638988Y-96039213D01*
X145538530Y-96080824D01*
X145492366Y-96111670D01*
X139677000Y-96093399D01*
X139677000Y-95327109D01*
X162165165Y-95346404D01*
G04 #@! TD*
M02*
