M48
; DRILL file {KiCad (5.1.6)-1} date 09/28/21 13:19:30
; FORMAT={-:-/ absolute / inch / decimal}
; #@! TF.CreationDate,2021-09-28T13:19:30+02:00
; #@! TF.GenerationSoftware,Kicad,Pcbnew,(5.1.6)-1
FMAT,2
INCH
T1C0.0079
T2C0.0157
T3C0.0320
T4C0.0420
T5C0.0453
%
G90
G05
T1
X5.5118Y-3.7724
X5.5126Y-3.8303
X5.539Y-3.772
X5.6319Y-3.8433
X5.7201Y-4.0425
X5.7402Y-3.802
X5.748Y-4.0094
X5.7569Y-3.8533
X5.7827Y-4.1583
X5.7968Y-4.2313
X5.826Y-4.1856
X5.8685Y-4.1976
X5.8838Y-4.0504
X5.889Y-3.987
X5.9025Y-4.0798
X5.904Y-4.1053
X5.9051Y-4.2174
X5.937Y-4.222
X5.9488Y-4.0807
X5.9702Y-4.2115
X5.9884Y-4.1232
X5.9973Y-4.217
X6.0236Y-4.1894
X6.0258Y-4.1281
X6.0511Y-3.8664
X6.0512Y-3.9435
X6.1012Y-4.1862
X6.137Y-3.8583
X6.1602Y-3.6661
X6.1689Y-3.6843
X6.1787Y-3.7004
X6.1882Y-4.1232
X6.2368Y-3.7788
X6.2632Y-3.7264
X6.2732Y-3.689
X6.2898Y-4.248
X6.3839Y-4.2579
X6.439Y-3.7988
X6.4426Y-3.8594
X6.4429Y-4.0063
X6.463Y-3.8219
X6.4681Y-3.9445
X6.4701Y-3.9752
X6.5063Y-3.7744
T2
X5.5075Y-3.7244
X5.5075Y-4.2799
X5.5102Y-4.1846
X5.511Y-3.6496
X5.5217Y-3.924
X5.522Y-3.8886
X5.5228Y-4.0157
X5.5236Y-3.9799
X5.5287Y-4.1299
X5.5874Y-4.1323
X5.5878Y-4.0984
X5.6311Y-3.8862
X5.6311Y-3.9228
X5.6319Y-4.0126
X5.6339Y-3.9756
X5.6819Y-3.6843
X5.6917Y-4.2091
X5.6976Y-3.9134
X5.7378Y-3.6539
X5.7988Y-3.6862
X5.8185Y-3.9114
X5.8697Y-3.6512
X5.8909Y-3.9488
X5.9283Y-3.6953
X6.0138Y-3.8929
X6.039Y-3.652
X6.0937Y-3.8933
X6.1693Y-4.0047
X6.2492Y-3.8917
X6.2496Y-3.8335
X6.25Y-4.0217
X6.2508Y-3.9528
X6.3287Y-3.9555
X6.3291Y-4.0197
X6.3295Y-3.8315
X6.3295Y-3.8937
X6.4114Y-3.7441
X6.5091Y-3.6512
X6.5122Y-4.2807
T3
X5.6248Y-4.3067
X5.7339Y-4.3067
X5.7839Y-4.3067
X5.8339Y-4.3067
X5.8839Y-4.3067
X5.9339Y-4.3067
X5.9839Y-4.3067
X6.0339Y-4.3067
X6.0839Y-4.3067
X6.1339Y-4.3067
X6.1839Y-4.3067
X6.2339Y-4.3067
X6.2839Y-4.3067
X6.3339Y-4.3067
X6.3839Y-4.3067
X6.4639Y-4.3067
T4
X5.6839Y-4.2677
X6.4339Y-4.2677
T5
X6.4961Y-3.7228
X5.5976Y-3.689
X5.5917Y-4.2268
X6.4984Y-4.1913
T0
M30
