G04 #@! TF.GenerationSoftware,KiCad,Pcbnew,(5.1.6)-1*
G04 #@! TF.CreationDate,2021-09-25T22:06:40+02:00*
G04 #@! TF.ProjectId,nrfmodule,6e72666d-6f64-4756-9c65-2e6b69636164,rev?*
G04 #@! TF.SameCoordinates,Original*
G04 #@! TF.FileFunction,Paste,Top*
G04 #@! TF.FilePolarity,Positive*
%FSLAX46Y46*%
G04 Gerber Fmt 4.6, Leading zero omitted, Abs format (unit mm)*
G04 Created by KiCad (PCBNEW (5.1.6)-1) date 2021-09-25 22:06:40*
%MOMM*%
%LPD*%
G01*
G04 APERTURE LIST*
%ADD10R,1.000000X1.050000*%
%ADD11R,1.050000X2.200000*%
%ADD12R,0.440000X0.470000*%
%ADD13R,1.220000X1.920000*%
%ADD14R,1.100000X1.700000*%
%ADD15R,0.600000X0.350000*%
%ADD16C,0.180000*%
%ADD17R,0.600000X0.600000*%
%ADD18R,0.450000X2.900000*%
%ADD19R,0.450000X1.900000*%
%ADD20R,0.450000X2.400000*%
%ADD21R,1.400000X0.500000*%
%ADD22R,0.750000X0.700000*%
%ADD23R,1.200000X0.650000*%
%ADD24R,0.700000X0.700000*%
%ADD25R,0.900000X0.700000*%
%ADD26C,0.250000*%
G04 APERTURE END LIST*
D10*
G04 #@! TO.C,U.FL2*
X146225000Y-97875000D03*
D11*
X144750000Y-99400000D03*
X147700000Y-99400000D03*
G04 #@! TD*
D12*
G04 #@! TO.C,1uF1*
X140030000Y-95825000D03*
X140030000Y-96495000D03*
G04 #@! TD*
G04 #@! TO.C,1uF2*
X143740000Y-95855000D03*
X143740000Y-96525000D03*
G04 #@! TD*
G04 #@! TO.C,1uF3*
X139920000Y-104495000D03*
X139920000Y-103825000D03*
G04 #@! TD*
G04 #@! TO.C,1uF4*
X143920000Y-104520000D03*
X143920000Y-103850000D03*
G04 #@! TD*
D13*
G04 #@! TO.C,220uF1*
X140340000Y-101550000D03*
X143040000Y-101550000D03*
G04 #@! TD*
G04 #@! TO.C,220uF2*
X140320000Y-99240000D03*
X143020000Y-99240000D03*
G04 #@! TD*
D14*
G04 #@! TO.C,5.0V1*
X141920000Y-104500000D03*
D15*
X142970000Y-103850000D03*
X142970000Y-104500000D03*
X142970000Y-105150000D03*
X140870000Y-105150000D03*
X140870000Y-104500000D03*
X140870000Y-103850000D03*
G04 #@! TD*
D16*
G04 #@! TO.C,IC1*
X141545000Y-95465000D03*
X141895000Y-95465000D03*
X141545000Y-95815000D03*
X141895000Y-95815000D03*
G04 #@! TD*
D17*
G04 #@! TO.C,NANOSIM1*
X154410000Y-105930000D03*
X156850000Y-105930000D03*
D18*
X162185000Y-104780000D03*
D19*
X162185000Y-99930000D03*
D20*
X162185000Y-94780000D03*
D21*
X157830000Y-92830000D03*
X153430000Y-92830000D03*
D22*
X151535000Y-95780000D03*
D19*
X151035000Y-99930000D03*
D18*
X151035000Y-104780000D03*
D23*
X155080000Y-93905000D03*
D24*
X151360000Y-97580000D03*
D25*
X153090000Y-100910000D03*
X155630000Y-100910000D03*
X158170000Y-100910000D03*
X153190000Y-104080000D03*
X155630000Y-104080000D03*
X158070000Y-104080000D03*
G04 #@! TD*
D26*
G04 #@! TO.C,SIMESDPROTECT1*
X147790000Y-104525000D03*
X148290000Y-104525000D03*
X148790000Y-104525000D03*
X149290000Y-104525000D03*
X148040000Y-104960000D03*
X149040000Y-104960000D03*
X147790000Y-105395000D03*
X148290000Y-105395000D03*
X148790000Y-105395000D03*
X149290000Y-105395000D03*
G04 #@! TD*
D10*
G04 #@! TO.C,U.FL1*
X145815000Y-95125000D03*
D11*
X147290000Y-93600000D03*
X144340000Y-93600000D03*
G04 #@! TD*
M02*
