G04 #@! TF.GenerationSoftware,KiCad,Pcbnew,(5.1.6)-1*
G04 #@! TF.CreationDate,2021-09-25T22:06:40+02:00*
G04 #@! TF.ProjectId,nrfmodule,6e72666d-6f64-4756-9c65-2e6b69636164,rev?*
G04 #@! TF.SameCoordinates,Original*
G04 #@! TF.FileFunction,Soldermask,Bot*
G04 #@! TF.FilePolarity,Negative*
%FSLAX46Y46*%
G04 Gerber Fmt 4.6, Leading zero omitted, Abs format (unit mm)*
G04 Created by KiCad (PCBNEW (5.1.6)-1) date 2021-09-25 22:06:40*
%MOMM*%
%LPD*%
G01*
G04 APERTURE LIST*
%ADD10C,0.010000*%
%ADD11R,0.725000X0.500000*%
%ADD12R,0.650000X0.700000*%
%ADD13R,1.120000X1.570000*%
%ADD14R,0.565000X0.540000*%
%ADD15R,0.560000X0.520000*%
%ADD16R,0.570000X0.540000*%
%ADD17R,0.540000X0.570000*%
%ADD18R,1.825000X1.825000*%
%ADD19R,0.900000X0.900000*%
%ADD20R,0.400000X0.400000*%
%ADD21R,0.400000X0.640000*%
%ADD22R,0.640000X0.640000*%
%ADD23R,0.640000X0.400000*%
%ADD24C,0.326000*%
%ADD25C,1.167000*%
%ADD26C,0.913000*%
G04 APERTURE END LIST*
D10*
G04 #@! TO.C,Edge_Connect1*
G36*
X146377000Y-110000000D02*
G01*
X144903000Y-110000000D01*
X144903000Y-108780000D01*
X146377000Y-108780000D01*
X146377000Y-110000000D01*
G37*
X146377000Y-110000000D02*
X144903000Y-110000000D01*
X144903000Y-108780000D01*
X146377000Y-108780000D01*
X146377000Y-110000000D01*
G36*
X147647000Y-110000000D02*
G01*
X146173000Y-110000000D01*
X146173000Y-108780000D01*
X147647000Y-108780000D01*
X147647000Y-110000000D01*
G37*
X147647000Y-110000000D02*
X146173000Y-110000000D01*
X146173000Y-108780000D01*
X147647000Y-108780000D01*
X147647000Y-110000000D01*
G36*
X148917000Y-110000000D02*
G01*
X147443000Y-110000000D01*
X147443000Y-108780000D01*
X148917000Y-108780000D01*
X148917000Y-110000000D01*
G37*
X148917000Y-110000000D02*
X147443000Y-110000000D01*
X147443000Y-108780000D01*
X148917000Y-108780000D01*
X148917000Y-110000000D01*
G36*
X150187000Y-110000000D02*
G01*
X148713000Y-110000000D01*
X148713000Y-108780000D01*
X150187000Y-108780000D01*
X150187000Y-110000000D01*
G37*
X150187000Y-110000000D02*
X148713000Y-110000000D01*
X148713000Y-108780000D01*
X150187000Y-108780000D01*
X150187000Y-110000000D01*
G36*
X151457000Y-110000000D02*
G01*
X149983000Y-110000000D01*
X149983000Y-108780000D01*
X151457000Y-108780000D01*
X151457000Y-110000000D01*
G37*
X151457000Y-110000000D02*
X149983000Y-110000000D01*
X149983000Y-108780000D01*
X151457000Y-108780000D01*
X151457000Y-110000000D01*
G36*
X152727000Y-110000000D02*
G01*
X151253000Y-110000000D01*
X151253000Y-108780000D01*
X152727000Y-108780000D01*
X152727000Y-110000000D01*
G37*
X152727000Y-110000000D02*
X151253000Y-110000000D01*
X151253000Y-108780000D01*
X152727000Y-108780000D01*
X152727000Y-110000000D01*
G36*
X153997000Y-110000000D02*
G01*
X152523000Y-110000000D01*
X152523000Y-108780000D01*
X153997000Y-108780000D01*
X153997000Y-110000000D01*
G37*
X153997000Y-110000000D02*
X152523000Y-110000000D01*
X152523000Y-108780000D01*
X153997000Y-108780000D01*
X153997000Y-110000000D01*
G36*
X155267000Y-110000000D02*
G01*
X153793000Y-110000000D01*
X153793000Y-108780000D01*
X155267000Y-108780000D01*
X155267000Y-110000000D01*
G37*
X155267000Y-110000000D02*
X153793000Y-110000000D01*
X153793000Y-108780000D01*
X155267000Y-108780000D01*
X155267000Y-110000000D01*
G36*
X156537000Y-110000000D02*
G01*
X155063000Y-110000000D01*
X155063000Y-108780000D01*
X156537000Y-108780000D01*
X156537000Y-110000000D01*
G37*
X156537000Y-110000000D02*
X155063000Y-110000000D01*
X155063000Y-108780000D01*
X156537000Y-108780000D01*
X156537000Y-110000000D01*
G36*
X157807000Y-110000000D02*
G01*
X156333000Y-110000000D01*
X156333000Y-108780000D01*
X157807000Y-108780000D01*
X157807000Y-110000000D01*
G37*
X157807000Y-110000000D02*
X156333000Y-110000000D01*
X156333000Y-108780000D01*
X157807000Y-108780000D01*
X157807000Y-110000000D01*
G36*
X159077000Y-110000000D02*
G01*
X157603000Y-110000000D01*
X157603000Y-108780000D01*
X159077000Y-108780000D01*
X159077000Y-110000000D01*
G37*
X159077000Y-110000000D02*
X157603000Y-110000000D01*
X157603000Y-108780000D01*
X159077000Y-108780000D01*
X159077000Y-110000000D01*
G36*
X160347000Y-110000000D02*
G01*
X158873000Y-110000000D01*
X158873000Y-108780000D01*
X160347000Y-108780000D01*
X160347000Y-110000000D01*
G37*
X160347000Y-110000000D02*
X158873000Y-110000000D01*
X158873000Y-108780000D01*
X160347000Y-108780000D01*
X160347000Y-110000000D01*
G36*
X161617000Y-110000000D02*
G01*
X160143000Y-110000000D01*
X160143000Y-108780000D01*
X161617000Y-108780000D01*
X161617000Y-110000000D01*
G37*
X161617000Y-110000000D02*
X160143000Y-110000000D01*
X160143000Y-108780000D01*
X161617000Y-108780000D01*
X161617000Y-110000000D01*
G36*
X162887000Y-110000000D02*
G01*
X161413000Y-110000000D01*
X161413000Y-108780000D01*
X162887000Y-108780000D01*
X162887000Y-110000000D01*
G37*
X162887000Y-110000000D02*
X161413000Y-110000000D01*
X161413000Y-108780000D01*
X162887000Y-108780000D01*
X162887000Y-110000000D01*
G04 #@! TD*
D11*
G04 #@! TO.C,R5*
X157470000Y-107430000D03*
X158294000Y-107430000D03*
G04 #@! TD*
D12*
G04 #@! TO.C,FL1*
X158920000Y-92780000D03*
X160220000Y-92780000D03*
G04 #@! TD*
D13*
G04 #@! TO.C,47uF2*
X159740000Y-107150000D03*
X161360000Y-107150000D03*
G04 #@! TD*
G04 #@! TO.C,47uF1*
X155070000Y-93580000D03*
X156690000Y-93580000D03*
G04 #@! TD*
D14*
G04 #@! TO.C,4.7uF4*
X164190000Y-102900000D03*
X163526000Y-102900000D03*
G04 #@! TD*
D15*
G04 #@! TO.C,15pF2*
X163260000Y-106520000D03*
X162600000Y-106520000D03*
G04 #@! TD*
G04 #@! TO.C,15pF1*
X159060000Y-93730000D03*
X158400000Y-93730000D03*
G04 #@! TD*
G04 #@! TO.C,100nF4*
X157750000Y-106590000D03*
X157090000Y-106590000D03*
G04 #@! TD*
G04 #@! TO.C,100nF3*
X164310000Y-101760000D03*
X163650000Y-101760000D03*
G04 #@! TD*
G04 #@! TO.C,100nF2*
X163270000Y-107250000D03*
X162610000Y-107250000D03*
G04 #@! TD*
G04 #@! TO.C,100nF1*
X158430000Y-94480000D03*
X157770000Y-94480000D03*
G04 #@! TD*
D16*
G04 #@! TO.C,0\u002C1uF1*
X163615000Y-100200000D03*
X164285000Y-100200000D03*
G04 #@! TD*
G04 #@! TO.C,0\u002C1uF2*
X164280000Y-96430000D03*
X163610000Y-96430000D03*
G04 #@! TD*
D11*
G04 #@! TO.C,10KOhm1*
X161034000Y-94360000D03*
X160210000Y-94360000D03*
G04 #@! TD*
D17*
G04 #@! TO.C,1uF5*
X147390000Y-107450000D03*
X147390000Y-106780000D03*
G04 #@! TD*
D14*
G04 #@! TO.C,4.7uF3*
X164262000Y-100980000D03*
X163598000Y-100980000D03*
G04 #@! TD*
D18*
G04 #@! TO.C,5V+1*
X142030000Y-107360000D03*
G04 #@! TD*
G04 #@! TO.C,GND1*
X142180000Y-93700000D03*
G04 #@! TD*
D19*
G04 #@! TO.C,NRF91*
X148750000Y-103700000D03*
X150750000Y-103700000D03*
X152750000Y-103700000D03*
X154750000Y-103700000D03*
X156750000Y-103700000D03*
X158750000Y-103700000D03*
X148750000Y-102100000D03*
X150750000Y-102100000D03*
X152750000Y-102100000D03*
X154750000Y-102100000D03*
X156750000Y-102100000D03*
X158750000Y-102100000D03*
X148750000Y-100500000D03*
X150750000Y-100500000D03*
X152750000Y-100500000D03*
X154750000Y-100500000D03*
X156750000Y-100500000D03*
X158750000Y-100500000D03*
X148750000Y-98900000D03*
X150750000Y-98900000D03*
X152750000Y-98900000D03*
X154750000Y-98900000D03*
X156750000Y-98900000D03*
X158750000Y-98900000D03*
D20*
X150000000Y-104850000D03*
X150500000Y-104850000D03*
X151000000Y-104850000D03*
X151500000Y-104850000D03*
X155000000Y-104850000D03*
X155500000Y-104850000D03*
X156000000Y-104850000D03*
X156500000Y-104850000D03*
X160500000Y-104850000D03*
X160000000Y-104850000D03*
X159500000Y-104850000D03*
X159000000Y-104850000D03*
X150000000Y-96150000D03*
X150500000Y-96150000D03*
X151000000Y-96150000D03*
X151500000Y-96150000D03*
X155000000Y-96150000D03*
X155500000Y-96150000D03*
X156000000Y-96150000D03*
X156500000Y-96150000D03*
X160500000Y-96150000D03*
X160000000Y-96150000D03*
X159500000Y-96150000D03*
X159000000Y-96150000D03*
D19*
X148750000Y-97300000D03*
X150750000Y-97300000D03*
X152750000Y-97300000D03*
X160750000Y-103700000D03*
X160750000Y-102100000D03*
X160750000Y-97300000D03*
X160750000Y-98900000D03*
X160750000Y-100500000D03*
X158750000Y-97300000D03*
X156750000Y-97300000D03*
X154750000Y-97300000D03*
D21*
X162000000Y-95380000D03*
X161500000Y-95380000D03*
X161000000Y-95380000D03*
X160500000Y-95380000D03*
X160000000Y-95380000D03*
X159500000Y-95380000D03*
X159000000Y-95380000D03*
X158500000Y-95380000D03*
X158000000Y-95380000D03*
X157500000Y-95380000D03*
X157000000Y-95380000D03*
X156500000Y-95380000D03*
X156000000Y-95380000D03*
X155500000Y-95380000D03*
X155000000Y-95380000D03*
X154500000Y-95380000D03*
X154000000Y-95380000D03*
X153500000Y-95380000D03*
X153000000Y-95380000D03*
X152500000Y-95380000D03*
X152000000Y-95380000D03*
X151500000Y-95380000D03*
X151000000Y-95380000D03*
X150500000Y-95380000D03*
X150000000Y-95380000D03*
X149500000Y-95380000D03*
X149000000Y-95380000D03*
X148500000Y-95380000D03*
X148000000Y-95380000D03*
X147500000Y-95380000D03*
D22*
X146880000Y-95380000D03*
D23*
X146880000Y-96000000D03*
X146880000Y-96500000D03*
X146880000Y-97000000D03*
X146880000Y-97500000D03*
X146880000Y-98000000D03*
X146880000Y-98500000D03*
X146880000Y-99000000D03*
X146880000Y-99500000D03*
X146880000Y-100000000D03*
X146880000Y-100500000D03*
X146880000Y-101000000D03*
X146880000Y-101500000D03*
X146880000Y-102000000D03*
X146880000Y-102500000D03*
X146880000Y-103000000D03*
X146880000Y-103500000D03*
X146880000Y-104000000D03*
X146880000Y-104500000D03*
X146880000Y-105000000D03*
D22*
X146880000Y-105620000D03*
D21*
X147500000Y-105620000D03*
X148000000Y-105620000D03*
X148500000Y-105620000D03*
X149000000Y-105620000D03*
X149500000Y-105620000D03*
X150000000Y-105620000D03*
X150500000Y-105620000D03*
X151000000Y-105620000D03*
X151500000Y-105620000D03*
X152000000Y-105620000D03*
X152500000Y-105620000D03*
X153000000Y-105620000D03*
X153500000Y-105620000D03*
X154000000Y-105620000D03*
X154500000Y-105620000D03*
X155000000Y-105620000D03*
X155500000Y-105620000D03*
X156000000Y-105620000D03*
X156500000Y-105620000D03*
X157000000Y-105620000D03*
X157500000Y-105620000D03*
X158000000Y-105620000D03*
X158500000Y-105620000D03*
X159000000Y-105620000D03*
X159500000Y-105620000D03*
X160000000Y-105620000D03*
X160500000Y-105620000D03*
X161000000Y-105620000D03*
X161500000Y-105620000D03*
X162000000Y-105620000D03*
D22*
X162620000Y-105620000D03*
D23*
X162620000Y-105000000D03*
X162620000Y-104500000D03*
X162620000Y-104000000D03*
X162620000Y-103500000D03*
X162620000Y-103000000D03*
X162620000Y-102500000D03*
X162620000Y-102000000D03*
X162620000Y-101500000D03*
X162620000Y-101000000D03*
X162620000Y-100500000D03*
X162620000Y-100000000D03*
X162620000Y-99500000D03*
X162620000Y-99000000D03*
X162620000Y-98500000D03*
X162620000Y-98000000D03*
X162620000Y-97500000D03*
X162620000Y-97000000D03*
X162620000Y-96500000D03*
X162620000Y-96000000D03*
D22*
X162620000Y-95380000D03*
G04 #@! TD*
D18*
G04 #@! TO.C,RX1*
X165060000Y-106460000D03*
G04 #@! TD*
G04 #@! TO.C,TX1*
X165000000Y-94560000D03*
G04 #@! TD*
D24*
G04 #@! TO.C,TXB102*
X163930000Y-99060000D03*
X164430000Y-99060000D03*
X163930000Y-98560000D03*
X164430000Y-98560000D03*
X163930000Y-98060000D03*
X164430000Y-98060000D03*
X163930000Y-97560000D03*
X164430000Y-97560000D03*
G04 #@! TD*
D25*
G04 #@! TO.C,Edge_Connect1*
X144370000Y-108399000D03*
D26*
X142871000Y-109390000D03*
X164182000Y-109390000D03*
D25*
X163420000Y-108399000D03*
G04 #@! TD*
M02*
