G04 #@! TF.GenerationSoftware,KiCad,Pcbnew,(5.1.6)-1*
G04 #@! TF.CreationDate,2021-12-03T12:33:41+01:00*
G04 #@! TF.ProjectId,USBEMBEDED,55534245-4d42-4454-9445-442e6b696361,rev?*
G04 #@! TF.SameCoordinates,Original*
G04 #@! TF.FileFunction,Soldermask,Top*
G04 #@! TF.FilePolarity,Negative*
%FSLAX46Y46*%
G04 Gerber Fmt 4.6, Leading zero omitted, Abs format (unit mm)*
G04 Created by KiCad (PCBNEW (5.1.6)-1) date 2021-12-03 12:33:41*
%MOMM*%
%LPD*%
G01*
G04 APERTURE LIST*
%ADD10C,0.010000*%
%ADD11C,0.186000*%
%ADD12C,1.650000*%
%ADD13R,1.725000X1.725000*%
%ADD14R,0.200000X0.150000*%
%ADD15R,0.600000X0.200000*%
%ADD16R,0.200000X0.600000*%
%ADD17R,0.470000X0.440000*%
%ADD18C,1.067000*%
%ADD19C,0.813000*%
%ADD20R,1.100000X1.700000*%
%ADD21R,0.600000X0.350000*%
%ADD22R,4.200000X4.200000*%
%ADD23R,0.350000X1.050000*%
%ADD24R,1.050000X0.350000*%
%ADD25R,5.400000X5.400000*%
%ADD26R,0.950000X0.300000*%
%ADD27R,0.300000X0.950000*%
%ADD28R,0.400000X0.625000*%
%ADD29R,1.900000X0.400000*%
%ADD30R,0.620000X0.600000*%
%ADD31R,0.440000X0.470000*%
%ADD32C,0.450000*%
G04 APERTURE END LIST*
D10*
G04 #@! TO.C,U1*
G36*
X144783000Y-109940000D02*
G01*
X146257000Y-109940000D01*
X146257000Y-108720000D01*
X144783000Y-108720000D01*
X144783000Y-109940000D01*
G37*
X144783000Y-109940000D02*
X146257000Y-109940000D01*
X146257000Y-108720000D01*
X144783000Y-108720000D01*
X144783000Y-109940000D01*
G36*
X146053000Y-109940000D02*
G01*
X147527000Y-109940000D01*
X147527000Y-108720000D01*
X146053000Y-108720000D01*
X146053000Y-109940000D01*
G37*
X146053000Y-109940000D02*
X147527000Y-109940000D01*
X147527000Y-108720000D01*
X146053000Y-108720000D01*
X146053000Y-109940000D01*
G36*
X147323000Y-109940000D02*
G01*
X148797000Y-109940000D01*
X148797000Y-108720000D01*
X147323000Y-108720000D01*
X147323000Y-109940000D01*
G37*
X147323000Y-109940000D02*
X148797000Y-109940000D01*
X148797000Y-108720000D01*
X147323000Y-108720000D01*
X147323000Y-109940000D01*
G36*
X148593000Y-109940000D02*
G01*
X150067000Y-109940000D01*
X150067000Y-108720000D01*
X148593000Y-108720000D01*
X148593000Y-109940000D01*
G37*
X148593000Y-109940000D02*
X150067000Y-109940000D01*
X150067000Y-108720000D01*
X148593000Y-108720000D01*
X148593000Y-109940000D01*
G36*
X149863000Y-109940000D02*
G01*
X151337000Y-109940000D01*
X151337000Y-108720000D01*
X149863000Y-108720000D01*
X149863000Y-109940000D01*
G37*
X149863000Y-109940000D02*
X151337000Y-109940000D01*
X151337000Y-108720000D01*
X149863000Y-108720000D01*
X149863000Y-109940000D01*
G36*
X151133000Y-109940000D02*
G01*
X152607000Y-109940000D01*
X152607000Y-108720000D01*
X151133000Y-108720000D01*
X151133000Y-109940000D01*
G37*
X151133000Y-109940000D02*
X152607000Y-109940000D01*
X152607000Y-108720000D01*
X151133000Y-108720000D01*
X151133000Y-109940000D01*
G36*
X152403000Y-109940000D02*
G01*
X153877000Y-109940000D01*
X153877000Y-108720000D01*
X152403000Y-108720000D01*
X152403000Y-109940000D01*
G37*
X152403000Y-109940000D02*
X153877000Y-109940000D01*
X153877000Y-108720000D01*
X152403000Y-108720000D01*
X152403000Y-109940000D01*
G36*
X153673000Y-109940000D02*
G01*
X155147000Y-109940000D01*
X155147000Y-108720000D01*
X153673000Y-108720000D01*
X153673000Y-109940000D01*
G37*
X153673000Y-109940000D02*
X155147000Y-109940000D01*
X155147000Y-108720000D01*
X153673000Y-108720000D01*
X153673000Y-109940000D01*
G36*
X154943000Y-109940000D02*
G01*
X156417000Y-109940000D01*
X156417000Y-108720000D01*
X154943000Y-108720000D01*
X154943000Y-109940000D01*
G37*
X154943000Y-109940000D02*
X156417000Y-109940000D01*
X156417000Y-108720000D01*
X154943000Y-108720000D01*
X154943000Y-109940000D01*
G36*
X156213000Y-109940000D02*
G01*
X157687000Y-109940000D01*
X157687000Y-108720000D01*
X156213000Y-108720000D01*
X156213000Y-109940000D01*
G37*
X156213000Y-109940000D02*
X157687000Y-109940000D01*
X157687000Y-108720000D01*
X156213000Y-108720000D01*
X156213000Y-109940000D01*
G36*
X157483000Y-109940000D02*
G01*
X158957000Y-109940000D01*
X158957000Y-108720000D01*
X157483000Y-108720000D01*
X157483000Y-109940000D01*
G37*
X157483000Y-109940000D02*
X158957000Y-109940000D01*
X158957000Y-108720000D01*
X157483000Y-108720000D01*
X157483000Y-109940000D01*
G36*
X158753000Y-109940000D02*
G01*
X160227000Y-109940000D01*
X160227000Y-108720000D01*
X158753000Y-108720000D01*
X158753000Y-109940000D01*
G37*
X158753000Y-109940000D02*
X160227000Y-109940000D01*
X160227000Y-108720000D01*
X158753000Y-108720000D01*
X158753000Y-109940000D01*
G36*
X160023000Y-109940000D02*
G01*
X161497000Y-109940000D01*
X161497000Y-108720000D01*
X160023000Y-108720000D01*
X160023000Y-109940000D01*
G37*
X160023000Y-109940000D02*
X161497000Y-109940000D01*
X161497000Y-108720000D01*
X160023000Y-108720000D01*
X160023000Y-109940000D01*
G36*
X161293000Y-109940000D02*
G01*
X162767000Y-109940000D01*
X162767000Y-108720000D01*
X161293000Y-108720000D01*
X161293000Y-109940000D01*
G37*
X161293000Y-109940000D02*
X162767000Y-109940000D01*
X162767000Y-108720000D01*
X161293000Y-108720000D01*
X161293000Y-109940000D01*
G04 #@! TD*
D11*
G04 #@! TO.C,IC4*
X154865000Y-95235000D03*
X154515000Y-95235000D03*
X154865000Y-94885000D03*
X154515000Y-94885000D03*
G04 #@! TD*
D12*
G04 #@! TO.C,PCSIDE1*
X137270000Y-96390000D03*
X137270000Y-98930000D03*
X137270000Y-101470000D03*
X137270000Y-104010000D03*
G04 #@! TD*
G04 #@! TO.C,KEYBOARDSIDE1*
X174510000Y-103960000D03*
X174510000Y-101420000D03*
X174510000Y-98880000D03*
X174510000Y-96340000D03*
G04 #@! TD*
D13*
G04 #@! TO.C,TX1*
X165000000Y-94560000D03*
G04 #@! TD*
G04 #@! TO.C,RX1*
X165060000Y-106460000D03*
G04 #@! TD*
D14*
G04 #@! TO.C,IC5*
X148270000Y-105955000D03*
D15*
X148470000Y-105530000D03*
D16*
X148470000Y-104880000D03*
X148870000Y-104880000D03*
X149270000Y-104880000D03*
X149670000Y-104880000D03*
X150070000Y-104880000D03*
D15*
X150070000Y-105530000D03*
D16*
X150070000Y-106180000D03*
X149670000Y-106180000D03*
X149270000Y-106180000D03*
X148870000Y-106180000D03*
X148470000Y-106180000D03*
G04 #@! TD*
D13*
G04 #@! TO.C,GND1*
X142180000Y-93700000D03*
G04 #@! TD*
G04 #@! TO.C,5V+1*
X142030000Y-107360000D03*
G04 #@! TD*
D17*
G04 #@! TO.C,1uF4*
X155500000Y-96810000D03*
X154830000Y-96810000D03*
G04 #@! TD*
G04 #@! TO.C,1uF1*
X148415000Y-102980000D03*
X147745000Y-102980000D03*
G04 #@! TD*
G04 #@! TO.C,0.1uF3*
X158835000Y-106880000D03*
X158165000Y-106880000D03*
G04 #@! TD*
D18*
G04 #@! TO.C,U1*
X163300000Y-108339000D03*
D19*
X164799000Y-109330000D03*
X143488000Y-109330000D03*
D18*
X144250000Y-108339000D03*
G04 #@! TD*
D20*
G04 #@! TO.C,PS1*
X143280000Y-104020000D03*
D21*
X142230000Y-104670000D03*
X142230000Y-104020000D03*
X142230000Y-103370000D03*
X144330000Y-103370000D03*
X144330000Y-104020000D03*
X144330000Y-104670000D03*
G04 #@! TD*
D22*
G04 #@! TO.C,IC3*
X159500000Y-102870000D03*
D23*
X157550000Y-100020000D03*
X158200000Y-100020000D03*
X158850000Y-100020000D03*
X159500000Y-100020000D03*
X160150000Y-100020000D03*
X160800000Y-100020000D03*
X161450000Y-100020000D03*
D24*
X162350000Y-100920000D03*
X162350000Y-101570000D03*
X162350000Y-102220000D03*
X162350000Y-102870000D03*
X162350000Y-103520000D03*
X162350000Y-104170000D03*
X162350000Y-104820000D03*
D23*
X161450000Y-105720000D03*
X160800000Y-105720000D03*
X160150000Y-105720000D03*
X159500000Y-105720000D03*
X158850000Y-105720000D03*
X158200000Y-105720000D03*
X157550000Y-105720000D03*
D24*
X156650000Y-104820000D03*
X156650000Y-104170000D03*
X156650000Y-103520000D03*
X156650000Y-102870000D03*
X156650000Y-102220000D03*
X156650000Y-101570000D03*
X156650000Y-100920000D03*
G04 #@! TD*
D25*
G04 #@! TO.C,IC2*
X148380000Y-98570000D03*
D26*
X144980000Y-101070000D03*
X144980000Y-100570000D03*
X144980000Y-100070000D03*
X144980000Y-99570000D03*
X144980000Y-99070000D03*
X144980000Y-98570000D03*
X144980000Y-98070000D03*
X144980000Y-97570000D03*
X144980000Y-97070000D03*
X144980000Y-96570000D03*
X144980000Y-96070000D03*
D27*
X145880000Y-95170000D03*
X146380000Y-95170000D03*
X146880000Y-95170000D03*
X147380000Y-95170000D03*
X147880000Y-95170000D03*
X148380000Y-95170000D03*
X148880000Y-95170000D03*
X149380000Y-95170000D03*
X149880000Y-95170000D03*
X150380000Y-95170000D03*
X150880000Y-95170000D03*
D26*
X151780000Y-96070000D03*
X151780000Y-96570000D03*
X151780000Y-97070000D03*
X151780000Y-97570000D03*
X151780000Y-98070000D03*
X151780000Y-98570000D03*
X151780000Y-99070000D03*
X151780000Y-99570000D03*
X151780000Y-100070000D03*
X151780000Y-100570000D03*
X151780000Y-101070000D03*
D27*
X150880000Y-101970000D03*
X150380000Y-101970000D03*
X149880000Y-101970000D03*
X149380000Y-101970000D03*
X148880000Y-101970000D03*
X148380000Y-101970000D03*
X147880000Y-101970000D03*
X147380000Y-101970000D03*
X146880000Y-101970000D03*
X146380000Y-101970000D03*
X145880000Y-101970000D03*
G04 #@! TD*
D28*
G04 #@! TO.C,22Ohm2*
X142090000Y-100092000D03*
X142090000Y-99268000D03*
G04 #@! TD*
G04 #@! TO.C,22Ohm1*
X142090000Y-102142000D03*
X142090000Y-101318000D03*
G04 #@! TD*
D17*
G04 #@! TO.C,1uF5*
X153390000Y-96810000D03*
X154060000Y-96810000D03*
G04 #@! TD*
G04 #@! TO.C,1uF3*
X142175000Y-105550000D03*
X142845000Y-105550000D03*
G04 #@! TD*
G04 #@! TO.C,1uF2*
X144325000Y-105550000D03*
X143655000Y-105550000D03*
G04 #@! TD*
D29*
G04 #@! TO.C,16Mhz2*
X154110000Y-106040000D03*
X154110000Y-104840000D03*
X154110000Y-103640000D03*
G04 #@! TD*
G04 #@! TO.C,16Mhz1*
X154120000Y-100330000D03*
X154120000Y-99130000D03*
X154120000Y-97930000D03*
G04 #@! TD*
D30*
G04 #@! TO.C,10uF2*
X160260000Y-96490000D03*
X160260000Y-97410000D03*
G04 #@! TD*
G04 #@! TO.C,10uF1*
X163640000Y-104270000D03*
X163640000Y-103350000D03*
G04 #@! TD*
D28*
G04 #@! TO.C,10KOhm1*
X158360000Y-98572000D03*
X158360000Y-97748000D03*
G04 #@! TD*
G04 #@! TO.C,10KOhm2*
X159330000Y-97658000D03*
X159330000Y-98482000D03*
G04 #@! TD*
D31*
G04 #@! TO.C,0.1uF4*
X163510000Y-100845000D03*
X163510000Y-101515000D03*
G04 #@! TD*
G04 #@! TO.C,0.1uF2*
X147750000Y-105565000D03*
X147750000Y-104895000D03*
G04 #@! TD*
G04 #@! TO.C,0.1uF1*
X147760000Y-106350000D03*
X147760000Y-107020000D03*
G04 #@! TD*
D32*
X154760000Y-96770000D03*
X154080000Y-96770000D03*
X171130000Y-96420000D03*
X170910000Y-100320000D03*
X169090000Y-102640000D03*
X156650000Y-103520000D03*
X156620000Y-97370000D03*
X150450000Y-97040000D03*
X146730000Y-96890000D03*
X148530000Y-96890000D03*
X150430000Y-98650000D03*
X146520000Y-98410000D03*
X148570000Y-98610000D03*
X148570000Y-100400000D03*
X150420000Y-100390000D03*
X146530000Y-100390000D03*
X158210000Y-106890000D03*
X154080000Y-104840000D03*
X154110000Y-99130000D03*
X143540000Y-103410000D03*
X142980000Y-103420000D03*
X142970000Y-104050000D03*
X143560000Y-104070000D03*
X143520000Y-104630000D03*
X142960000Y-104630000D03*
X143270000Y-105570000D03*
X136620000Y-92350000D03*
X140080000Y-92330000D03*
X143610000Y-92280000D03*
X145740000Y-92240000D03*
X141910000Y-92280000D03*
X136730000Y-108820000D03*
X139650000Y-108960000D03*
X142790000Y-108910000D03*
X141090000Y-95250000D03*
X141500000Y-97920000D03*
X142950000Y-98770000D03*
X143860000Y-99580000D03*
X143830000Y-98160000D03*
X142580000Y-97060000D03*
X143050000Y-95690000D03*
X144000000Y-94220000D03*
X144240000Y-93140000D03*
X143840000Y-107060000D03*
X146760000Y-106660000D03*
X145310000Y-106470000D03*
X143610000Y-106250000D03*
X158730000Y-108200000D03*
X159550000Y-107240000D03*
X159540000Y-108220000D03*
X161350000Y-108200000D03*
X161320000Y-107470000D03*
X146880000Y-93840000D03*
X145560000Y-93750000D03*
X146630000Y-92930000D03*
X147090000Y-92120000D03*
X148870000Y-94240000D03*
X148840000Y-93370000D03*
X149850000Y-93380000D03*
X150620000Y-93740000D03*
X151390000Y-94020000D03*
X151400000Y-95400000D03*
X152250000Y-95400000D03*
X152280000Y-94020000D03*
X151580000Y-93180000D03*
X154470000Y-93150000D03*
X153220000Y-93140000D03*
X154960000Y-97290000D03*
X153230000Y-101120000D03*
X155020000Y-101110000D03*
X153310000Y-102860000D03*
X155410000Y-102970000D03*
X163130000Y-106820000D03*
X164570000Y-108110000D03*
X165950000Y-108780000D03*
X172350000Y-95110000D03*
X167110000Y-107580000D03*
X167980000Y-108850000D03*
X168760000Y-96570000D03*
X166880000Y-96400000D03*
X164620000Y-96480000D03*
X164430000Y-98690000D03*
X164460000Y-101260000D03*
X163580000Y-99980000D03*
X161730000Y-98720000D03*
X162870000Y-97350000D03*
X162070000Y-95680000D03*
X160800000Y-95230000D03*
X167440000Y-94950000D03*
X167580000Y-92280000D03*
X166280000Y-95030000D03*
X166320000Y-92120000D03*
X166290000Y-93300000D03*
X163450000Y-94010000D03*
X163530000Y-92160000D03*
X161940000Y-94130000D03*
X161900000Y-92140000D03*
X160520000Y-94090000D03*
X160540000Y-92270000D03*
X160040000Y-93290000D03*
X158540000Y-92190000D03*
X166800000Y-105450000D03*
X157480000Y-92580000D03*
X152770000Y-97490000D03*
X149730000Y-108080000D03*
X147760000Y-105950000D03*
X153230000Y-106600000D03*
X163640000Y-104270000D03*
X151640000Y-102070000D03*
X151440000Y-105110000D03*
X151640000Y-103810000D03*
X170010000Y-98910000D03*
X170960000Y-98910000D03*
X171900000Y-98920000D03*
X137660000Y-93870000D03*
X139310000Y-93550000D03*
X139150000Y-95020000D03*
X139950000Y-96800000D03*
X136560000Y-102750000D03*
X136840000Y-105660000D03*
X139600000Y-106670000D03*
X138180000Y-107580000D03*
X136740000Y-107120000D03*
X139080000Y-97840000D03*
X136780000Y-94860000D03*
X138160000Y-92530000D03*
X154680000Y-96100000D03*
X154180000Y-96220000D03*
X155090000Y-95730000D03*
X154010000Y-94430000D03*
X156470000Y-99310000D03*
X160250000Y-97410000D03*
X163520000Y-101520000D03*
X158835000Y-106880000D03*
X160193520Y-98580000D03*
X158830000Y-97680000D03*
X146820000Y-108300000D03*
X155490000Y-96830000D03*
X147910000Y-107020000D03*
X171810000Y-97460000D03*
X171790000Y-98010000D03*
X153600000Y-95730000D03*
X153410000Y-96810000D03*
X144800000Y-104690000D03*
X144800000Y-105150000D03*
X144810000Y-105620000D03*
X144552998Y-95590000D03*
X144110000Y-100520000D03*
X150590000Y-94340000D03*
X152304018Y-100068572D03*
X146750000Y-104260000D03*
X148276553Y-104861053D03*
X165140000Y-103000000D03*
X160870000Y-98100000D03*
X148660000Y-92160000D03*
X153280000Y-108030000D03*
X158186340Y-95493660D03*
X142090000Y-104660000D03*
X142230000Y-103370000D03*
X140550000Y-103830000D03*
X142950000Y-100200000D03*
X147060000Y-103200000D03*
X147960000Y-92590000D03*
X154653712Y-108133712D03*
X158601840Y-93110000D03*
X157478951Y-93351049D03*
X157609899Y-95468231D03*
X165480000Y-98460000D03*
X151010000Y-102860000D03*
X149740000Y-103830000D03*
X150540000Y-108220000D03*
X150447168Y-102732909D03*
X149278398Y-103483799D03*
X149885230Y-102515989D03*
X147820000Y-107870000D03*
X148819513Y-104228822D03*
X149760000Y-94230000D03*
X150957606Y-103500000D03*
X172900000Y-99870000D03*
X151454500Y-107049376D03*
X153180000Y-101980000D03*
X151454500Y-107880376D03*
X152285500Y-107880376D03*
X151033575Y-107444032D03*
X154120000Y-107464876D03*
X155440000Y-106633876D03*
X151361001Y-106480000D03*
X160193520Y-95837998D03*
X152030001Y-101580000D03*
X155502998Y-97800000D03*
M02*
