G04 #@! TF.GenerationSoftware,KiCad,Pcbnew,(5.1.6)-1*
G04 #@! TF.CreationDate,2021-12-03T12:33:41+01:00*
G04 #@! TF.ProjectId,USBEMBEDED,55534245-4d42-4454-9445-442e6b696361,rev?*
G04 #@! TF.SameCoordinates,Original*
G04 #@! TF.FileFunction,Other,Fab,Top*
%FSLAX46Y46*%
G04 Gerber Fmt 4.6, Leading zero omitted, Abs format (unit mm)*
G04 Created by KiCad (PCBNEW (5.1.6)-1) date 2021-12-03 12:33:41*
%MOMM*%
%LPD*%
G01*
G04 APERTURE LIST*
%ADD10C,0.100000*%
%ADD11C,0.200000*%
%ADD12C,0.062500*%
%ADD13C,0.254000*%
%ADD14C,0.015000*%
G04 APERTURE END LIST*
D10*
G04 #@! TO.C,IC4*
X154368000Y-94738000D02*
X155013000Y-94738000D01*
X155013000Y-94738000D02*
X155013000Y-95383000D01*
X155013000Y-95383000D02*
X154368000Y-95383000D01*
X154368000Y-95383000D02*
X154368000Y-94738000D01*
X154368000Y-94906000D02*
X154537000Y-94737000D01*
D11*
G04 #@! TO.C,PCSIDE1*
X134170000Y-105510000D02*
X134170000Y-94890000D01*
X134170000Y-94890000D02*
X140370000Y-94890000D01*
X140370000Y-94890000D02*
X140370000Y-105510000D01*
X140370000Y-105510000D02*
X134170000Y-105510000D01*
G04 #@! TO.C,KEYBOARDSIDE1*
X177610000Y-94840000D02*
X177610000Y-105460000D01*
X177610000Y-105460000D02*
X171410000Y-105460000D01*
X171410000Y-105460000D02*
X171410000Y-94840000D01*
X171410000Y-94840000D02*
X177610000Y-94840000D01*
D10*
G04 #@! TO.C,TX1*
X163933000Y-95728000D02*
X163933000Y-93392000D01*
X163933000Y-93392000D02*
X166067000Y-93392000D01*
X166067000Y-93392000D02*
X166067000Y-95728000D01*
X166067000Y-95728000D02*
X163933000Y-95728000D01*
G04 #@! TO.C,RX1*
X163993000Y-107628000D02*
X163993000Y-105292000D01*
X163993000Y-105292000D02*
X166127000Y-105292000D01*
X166127000Y-105292000D02*
X166127000Y-107628000D01*
X166127000Y-107628000D02*
X163993000Y-107628000D01*
D11*
G04 #@! TO.C,IC5*
X148270000Y-104680000D02*
X150270000Y-104680000D01*
X150270000Y-104680000D02*
X150270000Y-106380000D01*
X150270000Y-106380000D02*
X148270000Y-106380000D01*
X148270000Y-106380000D02*
X148270000Y-104680000D01*
D10*
G04 #@! TO.C,GND1*
X141113000Y-94868000D02*
X141113000Y-92532000D01*
X141113000Y-92532000D02*
X143247000Y-92532000D01*
X143247000Y-92532000D02*
X143247000Y-94868000D01*
X143247000Y-94868000D02*
X141113000Y-94868000D01*
G04 #@! TO.C,5V+1*
X140963000Y-108528000D02*
X140963000Y-106192000D01*
X140963000Y-106192000D02*
X143097000Y-106192000D01*
X143097000Y-106192000D02*
X143097000Y-108528000D01*
X143097000Y-108528000D02*
X140963000Y-108528000D01*
G04 #@! TO.C,1uF4*
X154865000Y-96960000D02*
X154865000Y-96660000D01*
X155465000Y-96960000D02*
X154865000Y-96960000D01*
X155465000Y-96660000D02*
X155465000Y-96960000D01*
X154865000Y-96660000D02*
X155465000Y-96660000D01*
G04 #@! TO.C,1uF1*
X147780000Y-102830000D02*
X148380000Y-102830000D01*
X148380000Y-102830000D02*
X148380000Y-103130000D01*
X148380000Y-103130000D02*
X147780000Y-103130000D01*
X147780000Y-103130000D02*
X147780000Y-102830000D01*
G04 #@! TO.C,0.1uF3*
X158200000Y-106730000D02*
X158800000Y-106730000D01*
X158800000Y-106730000D02*
X158800000Y-107030000D01*
X158800000Y-107030000D02*
X158200000Y-107030000D01*
X158200000Y-107030000D02*
X158200000Y-106730000D01*
G04 #@! TO.C,PS1*
X144280000Y-105020000D02*
X142280000Y-105020000D01*
X142280000Y-105020000D02*
X142280000Y-103020000D01*
X142280000Y-103020000D02*
X144280000Y-103020000D01*
X144280000Y-103020000D02*
X144280000Y-105020000D01*
X144280000Y-104520000D02*
X143780000Y-105020000D01*
G04 #@! TO.C,IC3*
X156500000Y-99870000D02*
X162500000Y-99870000D01*
X162500000Y-99870000D02*
X162500000Y-105870000D01*
X162500000Y-105870000D02*
X156500000Y-105870000D01*
X156500000Y-105870000D02*
X156500000Y-99870000D01*
X156500000Y-100520000D02*
X157150000Y-99870000D01*
G04 #@! TO.C,IC2*
X144880000Y-102070000D02*
X144880000Y-95070000D01*
X144880000Y-95070000D02*
X151880000Y-95070000D01*
X151880000Y-95070000D02*
X151880000Y-102070000D01*
X151880000Y-102070000D02*
X144880000Y-102070000D01*
X145380000Y-102070000D02*
X144880000Y-101570000D01*
G04 #@! TO.C,22Ohm2*
X142240000Y-99380000D02*
X142240000Y-99980000D01*
X142240000Y-99980000D02*
X141940000Y-99980000D01*
X141940000Y-99980000D02*
X141940000Y-99380000D01*
X141940000Y-99380000D02*
X142240000Y-99380000D01*
G04 #@! TO.C,22Ohm1*
X142240000Y-101430000D02*
X142240000Y-102030000D01*
X142240000Y-102030000D02*
X141940000Y-102030000D01*
X141940000Y-102030000D02*
X141940000Y-101430000D01*
X141940000Y-101430000D02*
X142240000Y-101430000D01*
G04 #@! TO.C,1uF5*
X154025000Y-96960000D02*
X153425000Y-96960000D01*
X153425000Y-96960000D02*
X153425000Y-96660000D01*
X153425000Y-96660000D02*
X154025000Y-96660000D01*
X154025000Y-96660000D02*
X154025000Y-96960000D01*
G04 #@! TO.C,1uF3*
X142810000Y-105700000D02*
X142210000Y-105700000D01*
X142210000Y-105700000D02*
X142210000Y-105400000D01*
X142210000Y-105400000D02*
X142810000Y-105400000D01*
X142810000Y-105400000D02*
X142810000Y-105700000D01*
G04 #@! TO.C,1uF2*
X143690000Y-105400000D02*
X144290000Y-105400000D01*
X144290000Y-105400000D02*
X144290000Y-105700000D01*
X144290000Y-105700000D02*
X143690000Y-105700000D01*
X143690000Y-105700000D02*
X143690000Y-105400000D01*
D11*
G04 #@! TO.C,16Mhz2*
X154760000Y-103240000D02*
X154760000Y-106440000D01*
X154760000Y-106440000D02*
X153460000Y-106440000D01*
X153460000Y-106440000D02*
X153460000Y-103240000D01*
X153460000Y-103240000D02*
X154760000Y-103240000D01*
G04 #@! TO.C,16Mhz1*
X154770000Y-97530000D02*
X154770000Y-100730000D01*
X154770000Y-100730000D02*
X153470000Y-100730000D01*
X153470000Y-100730000D02*
X153470000Y-97530000D01*
X153470000Y-97530000D02*
X154770000Y-97530000D01*
D10*
G04 #@! TO.C,10uF2*
X160010000Y-97450000D02*
X160010000Y-96450000D01*
X160010000Y-96450000D02*
X160510000Y-96450000D01*
X160510000Y-96450000D02*
X160510000Y-97450000D01*
X160510000Y-97450000D02*
X160010000Y-97450000D01*
G04 #@! TO.C,10uF1*
X163890000Y-103310000D02*
X163890000Y-104310000D01*
X163890000Y-104310000D02*
X163390000Y-104310000D01*
X163390000Y-104310000D02*
X163390000Y-103310000D01*
X163390000Y-103310000D02*
X163890000Y-103310000D01*
G04 #@! TO.C,10KOhm1*
X158510000Y-97860000D02*
X158510000Y-98460000D01*
X158510000Y-98460000D02*
X158210000Y-98460000D01*
X158210000Y-98460000D02*
X158210000Y-97860000D01*
X158210000Y-97860000D02*
X158510000Y-97860000D01*
G04 #@! TO.C,10KOhm2*
X159180000Y-98370000D02*
X159180000Y-97770000D01*
X159180000Y-97770000D02*
X159480000Y-97770000D01*
X159480000Y-97770000D02*
X159480000Y-98370000D01*
X159480000Y-98370000D02*
X159180000Y-98370000D01*
G04 #@! TO.C,0.1uF4*
X163360000Y-101480000D02*
X163360000Y-100880000D01*
X163360000Y-100880000D02*
X163660000Y-100880000D01*
X163660000Y-100880000D02*
X163660000Y-101480000D01*
X163660000Y-101480000D02*
X163360000Y-101480000D01*
G04 #@! TO.C,0.1uF2*
X147900000Y-104930000D02*
X147900000Y-105530000D01*
X147900000Y-105530000D02*
X147600000Y-105530000D01*
X147600000Y-105530000D02*
X147600000Y-104930000D01*
X147600000Y-104930000D02*
X147900000Y-104930000D01*
G04 #@! TO.C,0.1uF1*
X147610000Y-106985000D02*
X147610000Y-106385000D01*
X147610000Y-106385000D02*
X147910000Y-106385000D01*
X147910000Y-106385000D02*
X147910000Y-106985000D01*
X147910000Y-106985000D02*
X147610000Y-106985000D01*
G04 #@! TD*
G04 #@! TO.C,IC4*
D12*
X154445952Y-94113095D02*
X154445952Y-93863095D01*
X154707857Y-94089285D02*
X154695952Y-94101190D01*
X154660238Y-94113095D01*
X154636428Y-94113095D01*
X154600714Y-94101190D01*
X154576904Y-94077380D01*
X154565000Y-94053571D01*
X154553095Y-94005952D01*
X154553095Y-93970238D01*
X154565000Y-93922619D01*
X154576904Y-93898809D01*
X154600714Y-93875000D01*
X154636428Y-93863095D01*
X154660238Y-93863095D01*
X154695952Y-93875000D01*
X154707857Y-93886904D01*
X154922142Y-93946428D02*
X154922142Y-94113095D01*
X154862619Y-93851190D02*
X154803095Y-94029761D01*
X154957857Y-94029761D01*
G04 #@! TO.C,PCSIDE1*
D13*
X139423953Y-104290887D02*
X138153953Y-104290887D01*
X138153953Y-103807078D01*
X138214430Y-103686125D01*
X138274906Y-103625649D01*
X138395858Y-103565173D01*
X138577287Y-103565173D01*
X138698239Y-103625649D01*
X138758715Y-103686125D01*
X138819191Y-103807078D01*
X138819191Y-104290887D01*
X139303001Y-102295173D02*
X139363477Y-102355649D01*
X139423953Y-102537078D01*
X139423953Y-102658030D01*
X139363477Y-102839459D01*
X139242525Y-102960411D01*
X139121572Y-103020887D01*
X138879668Y-103081363D01*
X138698239Y-103081363D01*
X138456334Y-103020887D01*
X138335382Y-102960411D01*
X138214430Y-102839459D01*
X138153953Y-102658030D01*
X138153953Y-102537078D01*
X138214430Y-102355649D01*
X138274906Y-102295173D01*
X139363477Y-101811363D02*
X139423953Y-101629935D01*
X139423953Y-101327554D01*
X139363477Y-101206601D01*
X139303001Y-101146125D01*
X139182049Y-101085649D01*
X139061096Y-101085649D01*
X138940144Y-101146125D01*
X138879668Y-101206601D01*
X138819191Y-101327554D01*
X138758715Y-101569459D01*
X138698239Y-101690411D01*
X138637763Y-101750887D01*
X138516810Y-101811363D01*
X138395858Y-101811363D01*
X138274906Y-101750887D01*
X138214430Y-101690411D01*
X138153953Y-101569459D01*
X138153953Y-101267078D01*
X138214430Y-101085649D01*
X139423953Y-100541363D02*
X138153953Y-100541363D01*
X139423953Y-99936601D02*
X138153953Y-99936601D01*
X138153953Y-99634220D01*
X138214430Y-99452792D01*
X138335382Y-99331840D01*
X138456334Y-99271363D01*
X138698239Y-99210887D01*
X138879668Y-99210887D01*
X139121572Y-99271363D01*
X139242525Y-99331840D01*
X139363477Y-99452792D01*
X139423953Y-99634220D01*
X139423953Y-99936601D01*
X138758715Y-98666601D02*
X138758715Y-98243268D01*
X139423953Y-98061840D02*
X139423953Y-98666601D01*
X138153953Y-98666601D01*
X138153953Y-98061840D01*
X139423953Y-96852316D02*
X139423953Y-97578030D01*
X139423953Y-97215173D02*
X138153953Y-97215173D01*
X138335382Y-97336125D01*
X138456334Y-97457078D01*
X138516810Y-97578030D01*
G04 #@! TO.C,KEYBOARDSIDE1*
X173505093Y-107035540D02*
X172235093Y-107035540D01*
X173505093Y-106309826D02*
X172779379Y-106854112D01*
X172235093Y-106309826D02*
X172960808Y-107035540D01*
X172839855Y-105765540D02*
X172839855Y-105342207D01*
X173505093Y-105160779D02*
X173505093Y-105765540D01*
X172235093Y-105765540D01*
X172235093Y-105160779D01*
X172900331Y-104374588D02*
X173505093Y-104374588D01*
X172235093Y-104797921D02*
X172900331Y-104374588D01*
X172235093Y-103951255D01*
X172839855Y-103104588D02*
X172900331Y-102923160D01*
X172960808Y-102862683D01*
X173081760Y-102802207D01*
X173263189Y-102802207D01*
X173384141Y-102862683D01*
X173444617Y-102923160D01*
X173505093Y-103044112D01*
X173505093Y-103527921D01*
X172235093Y-103527921D01*
X172235093Y-103104588D01*
X172295570Y-102983636D01*
X172356046Y-102923160D01*
X172476998Y-102862683D01*
X172597950Y-102862683D01*
X172718903Y-102923160D01*
X172779379Y-102983636D01*
X172839855Y-103104588D01*
X172839855Y-103527921D01*
X172235093Y-102016017D02*
X172235093Y-101774112D01*
X172295570Y-101653160D01*
X172416522Y-101532207D01*
X172658427Y-101471731D01*
X173081760Y-101471731D01*
X173323665Y-101532207D01*
X173444617Y-101653160D01*
X173505093Y-101774112D01*
X173505093Y-102016017D01*
X173444617Y-102136969D01*
X173323665Y-102257921D01*
X173081760Y-102318398D01*
X172658427Y-102318398D01*
X172416522Y-102257921D01*
X172295570Y-102136969D01*
X172235093Y-102016017D01*
X173142236Y-100987921D02*
X173142236Y-100383160D01*
X173505093Y-101108874D02*
X172235093Y-100685540D01*
X173505093Y-100262207D01*
X173505093Y-99113160D02*
X172900331Y-99536493D01*
X173505093Y-99838874D02*
X172235093Y-99838874D01*
X172235093Y-99355064D01*
X172295570Y-99234112D01*
X172356046Y-99173636D01*
X172476998Y-99113160D01*
X172658427Y-99113160D01*
X172779379Y-99173636D01*
X172839855Y-99234112D01*
X172900331Y-99355064D01*
X172900331Y-99838874D01*
X173505093Y-98568874D02*
X172235093Y-98568874D01*
X172235093Y-98266493D01*
X172295570Y-98085064D01*
X172416522Y-97964112D01*
X172537474Y-97903636D01*
X172779379Y-97843160D01*
X172960808Y-97843160D01*
X173202712Y-97903636D01*
X173323665Y-97964112D01*
X173444617Y-98085064D01*
X173505093Y-98266493D01*
X173505093Y-98568874D01*
X173444617Y-97359350D02*
X173505093Y-97177921D01*
X173505093Y-96875540D01*
X173444617Y-96754588D01*
X173384141Y-96694112D01*
X173263189Y-96633636D01*
X173142236Y-96633636D01*
X173021284Y-96694112D01*
X172960808Y-96754588D01*
X172900331Y-96875540D01*
X172839855Y-97117445D01*
X172779379Y-97238398D01*
X172718903Y-97298874D01*
X172597950Y-97359350D01*
X172476998Y-97359350D01*
X172356046Y-97298874D01*
X172295570Y-97238398D01*
X172235093Y-97117445D01*
X172235093Y-96815064D01*
X172295570Y-96633636D01*
X173505093Y-96089350D02*
X172235093Y-96089350D01*
X173505093Y-95484588D02*
X172235093Y-95484588D01*
X172235093Y-95182207D01*
X172295570Y-95000779D01*
X172416522Y-94879826D01*
X172537474Y-94819350D01*
X172779379Y-94758874D01*
X172960808Y-94758874D01*
X173202712Y-94819350D01*
X173323665Y-94879826D01*
X173444617Y-95000779D01*
X173505093Y-95182207D01*
X173505093Y-95484588D01*
X172839855Y-94214588D02*
X172839855Y-93791255D01*
X173505093Y-93609826D02*
X173505093Y-94214588D01*
X172235093Y-94214588D01*
X172235093Y-93609826D01*
X173505093Y-92400302D02*
X173505093Y-93126017D01*
X173505093Y-92763160D02*
X172235093Y-92763160D01*
X172416522Y-92884112D01*
X172537474Y-93005064D01*
X172597950Y-93126017D01*
G04 #@! TO.C,IC5*
D12*
X149025952Y-105743095D02*
X149025952Y-105493095D01*
X149287857Y-105719285D02*
X149275952Y-105731190D01*
X149240238Y-105743095D01*
X149216428Y-105743095D01*
X149180714Y-105731190D01*
X149156904Y-105707380D01*
X149145000Y-105683571D01*
X149133095Y-105635952D01*
X149133095Y-105600238D01*
X149145000Y-105552619D01*
X149156904Y-105528809D01*
X149180714Y-105505000D01*
X149216428Y-105493095D01*
X149240238Y-105493095D01*
X149275952Y-105505000D01*
X149287857Y-105516904D01*
X149514047Y-105493095D02*
X149395000Y-105493095D01*
X149383095Y-105612142D01*
X149395000Y-105600238D01*
X149418809Y-105588333D01*
X149478333Y-105588333D01*
X149502142Y-105600238D01*
X149514047Y-105612142D01*
X149525952Y-105635952D01*
X149525952Y-105695476D01*
X149514047Y-105719285D01*
X149502142Y-105731190D01*
X149478333Y-105743095D01*
X149418809Y-105743095D01*
X149395000Y-105731190D01*
X149383095Y-105719285D01*
G04 #@! TO.C,1uF4*
X154932142Y-96363095D02*
X154789285Y-96363095D01*
X154860714Y-96363095D02*
X154860714Y-96113095D01*
X154836904Y-96148809D01*
X154813095Y-96172619D01*
X154789285Y-96184523D01*
X155146428Y-96196428D02*
X155146428Y-96363095D01*
X155039285Y-96196428D02*
X155039285Y-96327380D01*
X155051190Y-96351190D01*
X155075000Y-96363095D01*
X155110714Y-96363095D01*
X155134523Y-96351190D01*
X155146428Y-96339285D01*
X155348809Y-96232142D02*
X155265476Y-96232142D01*
X155265476Y-96363095D02*
X155265476Y-96113095D01*
X155384523Y-96113095D01*
X155586904Y-96196428D02*
X155586904Y-96363095D01*
X155527380Y-96101190D02*
X155467857Y-96279761D01*
X155622619Y-96279761D01*
G04 #@! TO.C,1uF1*
X147807142Y-103688095D02*
X147664285Y-103688095D01*
X147735714Y-103688095D02*
X147735714Y-103438095D01*
X147711904Y-103473809D01*
X147688095Y-103497619D01*
X147664285Y-103509523D01*
X148021428Y-103521428D02*
X148021428Y-103688095D01*
X147914285Y-103521428D02*
X147914285Y-103652380D01*
X147926190Y-103676190D01*
X147950000Y-103688095D01*
X147985714Y-103688095D01*
X148009523Y-103676190D01*
X148021428Y-103664285D01*
X148223809Y-103557142D02*
X148140476Y-103557142D01*
X148140476Y-103688095D02*
X148140476Y-103438095D01*
X148259523Y-103438095D01*
X148485714Y-103688095D02*
X148342857Y-103688095D01*
X148414285Y-103688095D02*
X148414285Y-103438095D01*
X148390476Y-103473809D01*
X148366666Y-103497619D01*
X148342857Y-103509523D01*
G04 #@! TO.C,0.1uF3*
X158045238Y-107288095D02*
X158069047Y-107288095D01*
X158092857Y-107300000D01*
X158104761Y-107311904D01*
X158116666Y-107335714D01*
X158128571Y-107383333D01*
X158128571Y-107442857D01*
X158116666Y-107490476D01*
X158104761Y-107514285D01*
X158092857Y-107526190D01*
X158069047Y-107538095D01*
X158045238Y-107538095D01*
X158021428Y-107526190D01*
X158009523Y-107514285D01*
X157997619Y-107490476D01*
X157985714Y-107442857D01*
X157985714Y-107383333D01*
X157997619Y-107335714D01*
X158009523Y-107311904D01*
X158021428Y-107300000D01*
X158045238Y-107288095D01*
X158235714Y-107514285D02*
X158247619Y-107526190D01*
X158235714Y-107538095D01*
X158223809Y-107526190D01*
X158235714Y-107514285D01*
X158235714Y-107538095D01*
X158485714Y-107538095D02*
X158342857Y-107538095D01*
X158414285Y-107538095D02*
X158414285Y-107288095D01*
X158390476Y-107323809D01*
X158366666Y-107347619D01*
X158342857Y-107359523D01*
X158700000Y-107371428D02*
X158700000Y-107538095D01*
X158592857Y-107371428D02*
X158592857Y-107502380D01*
X158604761Y-107526190D01*
X158628571Y-107538095D01*
X158664285Y-107538095D01*
X158688095Y-107526190D01*
X158700000Y-107514285D01*
X158902380Y-107407142D02*
X158819047Y-107407142D01*
X158819047Y-107538095D02*
X158819047Y-107288095D01*
X158938095Y-107288095D01*
X159009523Y-107288095D02*
X159164285Y-107288095D01*
X159080952Y-107383333D01*
X159116666Y-107383333D01*
X159140476Y-107395238D01*
X159152380Y-107407142D01*
X159164285Y-107430952D01*
X159164285Y-107490476D01*
X159152380Y-107514285D01*
X159140476Y-107526190D01*
X159116666Y-107538095D01*
X159045238Y-107538095D01*
X159021428Y-107526190D01*
X159009523Y-107514285D01*
G04 #@! TO.C,U1*
D14*
X142614111Y-109273757D02*
X142876579Y-109273757D01*
X142989065Y-109686205D02*
X142614111Y-109686205D01*
X142614111Y-108898803D01*
X142989065Y-108898803D01*
X143776467Y-109611215D02*
X143738971Y-109648710D01*
X143626485Y-109686205D01*
X143551495Y-109686205D01*
X143439009Y-109648710D01*
X143364018Y-109573719D01*
X143326523Y-109498729D01*
X143289027Y-109348747D01*
X143289027Y-109236261D01*
X143326523Y-109086280D01*
X143364018Y-109011289D01*
X143439009Y-108936299D01*
X143551495Y-108898803D01*
X143626485Y-108898803D01*
X143738971Y-108936299D01*
X143776467Y-108973794D01*
X144526373Y-109686205D02*
X144076429Y-109686205D01*
X144301401Y-109686205D02*
X144301401Y-108898803D01*
X144226411Y-109011289D01*
X144151420Y-109086280D01*
X144076429Y-109123775D01*
X145201289Y-109161271D02*
X145201289Y-109686205D01*
X145013813Y-108861308D02*
X144826336Y-109423738D01*
X145313775Y-109423738D01*
X145613738Y-109386243D02*
X146213663Y-109386243D01*
X146551121Y-108973794D02*
X146588617Y-108936299D01*
X146663607Y-108898803D01*
X146851084Y-108898803D01*
X146926075Y-108936299D01*
X146963570Y-108973794D01*
X147001065Y-109048785D01*
X147001065Y-109123775D01*
X146963570Y-109236261D01*
X146513626Y-109686205D01*
X147001065Y-109686205D01*
X147301028Y-109461233D02*
X147675981Y-109461233D01*
X147226037Y-109686205D02*
X147488505Y-108898803D01*
X147750972Y-109686205D01*
X148013439Y-109686205D02*
X148013439Y-108898803D01*
X148313402Y-108898803D01*
X148388393Y-108936299D01*
X148425888Y-108973794D01*
X148463383Y-109048785D01*
X148463383Y-109161271D01*
X148425888Y-109236261D01*
X148388393Y-109273757D01*
X148313402Y-109311252D01*
X148013439Y-109311252D01*
G04 #@! TO.C,PS1*
D12*
X142976428Y-104133095D02*
X142976428Y-103883095D01*
X143071666Y-103883095D01*
X143095476Y-103895000D01*
X143107380Y-103906904D01*
X143119285Y-103930714D01*
X143119285Y-103966428D01*
X143107380Y-103990238D01*
X143095476Y-104002142D01*
X143071666Y-104014047D01*
X142976428Y-104014047D01*
X143214523Y-104121190D02*
X143250238Y-104133095D01*
X143309761Y-104133095D01*
X143333571Y-104121190D01*
X143345476Y-104109285D01*
X143357380Y-104085476D01*
X143357380Y-104061666D01*
X143345476Y-104037857D01*
X143333571Y-104025952D01*
X143309761Y-104014047D01*
X143262142Y-104002142D01*
X143238333Y-103990238D01*
X143226428Y-103978333D01*
X143214523Y-103954523D01*
X143214523Y-103930714D01*
X143226428Y-103906904D01*
X143238333Y-103895000D01*
X143262142Y-103883095D01*
X143321666Y-103883095D01*
X143357380Y-103895000D01*
X143595476Y-104133095D02*
X143452619Y-104133095D01*
X143524047Y-104133095D02*
X143524047Y-103883095D01*
X143500238Y-103918809D01*
X143476428Y-103942619D01*
X143452619Y-103954523D01*
G04 #@! TO.C,IC3*
D13*
X158260238Y-103444523D02*
X158260238Y-102174523D01*
X159590714Y-103323571D02*
X159530238Y-103384047D01*
X159348809Y-103444523D01*
X159227857Y-103444523D01*
X159046428Y-103384047D01*
X158925476Y-103263095D01*
X158865000Y-103142142D01*
X158804523Y-102900238D01*
X158804523Y-102718809D01*
X158865000Y-102476904D01*
X158925476Y-102355952D01*
X159046428Y-102235000D01*
X159227857Y-102174523D01*
X159348809Y-102174523D01*
X159530238Y-102235000D01*
X159590714Y-102295476D01*
X160014047Y-102174523D02*
X160800238Y-102174523D01*
X160376904Y-102658333D01*
X160558333Y-102658333D01*
X160679285Y-102718809D01*
X160739761Y-102779285D01*
X160800238Y-102900238D01*
X160800238Y-103202619D01*
X160739761Y-103323571D01*
X160679285Y-103384047D01*
X160558333Y-103444523D01*
X160195476Y-103444523D01*
X160074523Y-103384047D01*
X160014047Y-103323571D01*
G04 #@! TO.C,IC2*
X148954523Y-99809761D02*
X147684523Y-99809761D01*
X148833571Y-98479285D02*
X148894047Y-98539761D01*
X148954523Y-98721190D01*
X148954523Y-98842142D01*
X148894047Y-99023571D01*
X148773095Y-99144523D01*
X148652142Y-99205000D01*
X148410238Y-99265476D01*
X148228809Y-99265476D01*
X147986904Y-99205000D01*
X147865952Y-99144523D01*
X147745000Y-99023571D01*
X147684523Y-98842142D01*
X147684523Y-98721190D01*
X147745000Y-98539761D01*
X147805476Y-98479285D01*
X147805476Y-97995476D02*
X147745000Y-97935000D01*
X147684523Y-97814047D01*
X147684523Y-97511666D01*
X147745000Y-97390714D01*
X147805476Y-97330238D01*
X147926428Y-97269761D01*
X148047380Y-97269761D01*
X148228809Y-97330238D01*
X148954523Y-98055952D01*
X148954523Y-97269761D01*
G04 #@! TO.C,22Ohm2*
D12*
X142686904Y-100400238D02*
X142675000Y-100388333D01*
X142663095Y-100364523D01*
X142663095Y-100305000D01*
X142675000Y-100281190D01*
X142686904Y-100269285D01*
X142710714Y-100257380D01*
X142734523Y-100257380D01*
X142770238Y-100269285D01*
X142913095Y-100412142D01*
X142913095Y-100257380D01*
X142686904Y-100162142D02*
X142675000Y-100150238D01*
X142663095Y-100126428D01*
X142663095Y-100066904D01*
X142675000Y-100043095D01*
X142686904Y-100031190D01*
X142710714Y-100019285D01*
X142734523Y-100019285D01*
X142770238Y-100031190D01*
X142913095Y-100174047D01*
X142913095Y-100019285D01*
X142663095Y-99864523D02*
X142663095Y-99816904D01*
X142675000Y-99793095D01*
X142698809Y-99769285D01*
X142746428Y-99757380D01*
X142829761Y-99757380D01*
X142877380Y-99769285D01*
X142901190Y-99793095D01*
X142913095Y-99816904D01*
X142913095Y-99864523D01*
X142901190Y-99888333D01*
X142877380Y-99912142D01*
X142829761Y-99924047D01*
X142746428Y-99924047D01*
X142698809Y-99912142D01*
X142675000Y-99888333D01*
X142663095Y-99864523D01*
X142913095Y-99650238D02*
X142663095Y-99650238D01*
X142913095Y-99543095D02*
X142782142Y-99543095D01*
X142758333Y-99555000D01*
X142746428Y-99578809D01*
X142746428Y-99614523D01*
X142758333Y-99638333D01*
X142770238Y-99650238D01*
X142913095Y-99424047D02*
X142746428Y-99424047D01*
X142770238Y-99424047D02*
X142758333Y-99412142D01*
X142746428Y-99388333D01*
X142746428Y-99352619D01*
X142758333Y-99328809D01*
X142782142Y-99316904D01*
X142913095Y-99316904D01*
X142782142Y-99316904D02*
X142758333Y-99305000D01*
X142746428Y-99281190D01*
X142746428Y-99245476D01*
X142758333Y-99221666D01*
X142782142Y-99209761D01*
X142913095Y-99209761D01*
X142686904Y-99102619D02*
X142675000Y-99090714D01*
X142663095Y-99066904D01*
X142663095Y-99007380D01*
X142675000Y-98983571D01*
X142686904Y-98971666D01*
X142710714Y-98959761D01*
X142734523Y-98959761D01*
X142770238Y-98971666D01*
X142913095Y-99114523D01*
X142913095Y-98959761D01*
G04 #@! TO.C,22Ohm1*
X142636904Y-102420238D02*
X142625000Y-102408333D01*
X142613095Y-102384523D01*
X142613095Y-102325000D01*
X142625000Y-102301190D01*
X142636904Y-102289285D01*
X142660714Y-102277380D01*
X142684523Y-102277380D01*
X142720238Y-102289285D01*
X142863095Y-102432142D01*
X142863095Y-102277380D01*
X142636904Y-102182142D02*
X142625000Y-102170238D01*
X142613095Y-102146428D01*
X142613095Y-102086904D01*
X142625000Y-102063095D01*
X142636904Y-102051190D01*
X142660714Y-102039285D01*
X142684523Y-102039285D01*
X142720238Y-102051190D01*
X142863095Y-102194047D01*
X142863095Y-102039285D01*
X142613095Y-101884523D02*
X142613095Y-101836904D01*
X142625000Y-101813095D01*
X142648809Y-101789285D01*
X142696428Y-101777380D01*
X142779761Y-101777380D01*
X142827380Y-101789285D01*
X142851190Y-101813095D01*
X142863095Y-101836904D01*
X142863095Y-101884523D01*
X142851190Y-101908333D01*
X142827380Y-101932142D01*
X142779761Y-101944047D01*
X142696428Y-101944047D01*
X142648809Y-101932142D01*
X142625000Y-101908333D01*
X142613095Y-101884523D01*
X142863095Y-101670238D02*
X142613095Y-101670238D01*
X142863095Y-101563095D02*
X142732142Y-101563095D01*
X142708333Y-101575000D01*
X142696428Y-101598809D01*
X142696428Y-101634523D01*
X142708333Y-101658333D01*
X142720238Y-101670238D01*
X142863095Y-101444047D02*
X142696428Y-101444047D01*
X142720238Y-101444047D02*
X142708333Y-101432142D01*
X142696428Y-101408333D01*
X142696428Y-101372619D01*
X142708333Y-101348809D01*
X142732142Y-101336904D01*
X142863095Y-101336904D01*
X142732142Y-101336904D02*
X142708333Y-101325000D01*
X142696428Y-101301190D01*
X142696428Y-101265476D01*
X142708333Y-101241666D01*
X142732142Y-101229761D01*
X142863095Y-101229761D01*
X142863095Y-100979761D02*
X142863095Y-101122619D01*
X142863095Y-101051190D02*
X142613095Y-101051190D01*
X142648809Y-101075000D01*
X142672619Y-101098809D01*
X142684523Y-101122619D01*
G04 #@! TO.C,1uF5*
X153482142Y-96313095D02*
X153339285Y-96313095D01*
X153410714Y-96313095D02*
X153410714Y-96063095D01*
X153386904Y-96098809D01*
X153363095Y-96122619D01*
X153339285Y-96134523D01*
X153696428Y-96146428D02*
X153696428Y-96313095D01*
X153589285Y-96146428D02*
X153589285Y-96277380D01*
X153601190Y-96301190D01*
X153625000Y-96313095D01*
X153660714Y-96313095D01*
X153684523Y-96301190D01*
X153696428Y-96289285D01*
X153898809Y-96182142D02*
X153815476Y-96182142D01*
X153815476Y-96313095D02*
X153815476Y-96063095D01*
X153934523Y-96063095D01*
X154148809Y-96063095D02*
X154029761Y-96063095D01*
X154017857Y-96182142D01*
X154029761Y-96170238D01*
X154053571Y-96158333D01*
X154113095Y-96158333D01*
X154136904Y-96170238D01*
X154148809Y-96182142D01*
X154160714Y-96205952D01*
X154160714Y-96265476D01*
X154148809Y-96289285D01*
X154136904Y-96301190D01*
X154113095Y-96313095D01*
X154053571Y-96313095D01*
X154029761Y-96301190D01*
X154017857Y-96289285D01*
G04 #@! TO.C,1uF3*
X141007142Y-105713095D02*
X140864285Y-105713095D01*
X140935714Y-105713095D02*
X140935714Y-105463095D01*
X140911904Y-105498809D01*
X140888095Y-105522619D01*
X140864285Y-105534523D01*
X141221428Y-105546428D02*
X141221428Y-105713095D01*
X141114285Y-105546428D02*
X141114285Y-105677380D01*
X141126190Y-105701190D01*
X141150000Y-105713095D01*
X141185714Y-105713095D01*
X141209523Y-105701190D01*
X141221428Y-105689285D01*
X141423809Y-105582142D02*
X141340476Y-105582142D01*
X141340476Y-105713095D02*
X141340476Y-105463095D01*
X141459523Y-105463095D01*
X141530952Y-105463095D02*
X141685714Y-105463095D01*
X141602380Y-105558333D01*
X141638095Y-105558333D01*
X141661904Y-105570238D01*
X141673809Y-105582142D01*
X141685714Y-105605952D01*
X141685714Y-105665476D01*
X141673809Y-105689285D01*
X141661904Y-105701190D01*
X141638095Y-105713095D01*
X141566666Y-105713095D01*
X141542857Y-105701190D01*
X141530952Y-105689285D01*
G04 #@! TO.C,1uF2*
X143757142Y-106263095D02*
X143614285Y-106263095D01*
X143685714Y-106263095D02*
X143685714Y-106013095D01*
X143661904Y-106048809D01*
X143638095Y-106072619D01*
X143614285Y-106084523D01*
X143971428Y-106096428D02*
X143971428Y-106263095D01*
X143864285Y-106096428D02*
X143864285Y-106227380D01*
X143876190Y-106251190D01*
X143900000Y-106263095D01*
X143935714Y-106263095D01*
X143959523Y-106251190D01*
X143971428Y-106239285D01*
X144173809Y-106132142D02*
X144090476Y-106132142D01*
X144090476Y-106263095D02*
X144090476Y-106013095D01*
X144209523Y-106013095D01*
X144292857Y-106036904D02*
X144304761Y-106025000D01*
X144328571Y-106013095D01*
X144388095Y-106013095D01*
X144411904Y-106025000D01*
X144423809Y-106036904D01*
X144435714Y-106060714D01*
X144435714Y-106084523D01*
X144423809Y-106120238D01*
X144280952Y-106263095D01*
X144435714Y-106263095D01*
G04 #@! TO.C,16Mhz2*
X154188095Y-105398809D02*
X154188095Y-105541666D01*
X154188095Y-105470238D02*
X153938095Y-105470238D01*
X153973809Y-105494047D01*
X153997619Y-105517857D01*
X154009523Y-105541666D01*
X153938095Y-105184523D02*
X153938095Y-105232142D01*
X153950000Y-105255952D01*
X153961904Y-105267857D01*
X153997619Y-105291666D01*
X154045238Y-105303571D01*
X154140476Y-105303571D01*
X154164285Y-105291666D01*
X154176190Y-105279761D01*
X154188095Y-105255952D01*
X154188095Y-105208333D01*
X154176190Y-105184523D01*
X154164285Y-105172619D01*
X154140476Y-105160714D01*
X154080952Y-105160714D01*
X154057142Y-105172619D01*
X154045238Y-105184523D01*
X154033333Y-105208333D01*
X154033333Y-105255952D01*
X154045238Y-105279761D01*
X154057142Y-105291666D01*
X154080952Y-105303571D01*
X154188095Y-105053571D02*
X153938095Y-105053571D01*
X154116666Y-104970238D01*
X153938095Y-104886904D01*
X154188095Y-104886904D01*
X154188095Y-104767857D02*
X153938095Y-104767857D01*
X154188095Y-104660714D02*
X154057142Y-104660714D01*
X154033333Y-104672619D01*
X154021428Y-104696428D01*
X154021428Y-104732142D01*
X154033333Y-104755952D01*
X154045238Y-104767857D01*
X154021428Y-104565476D02*
X154021428Y-104434523D01*
X154188095Y-104565476D01*
X154188095Y-104434523D01*
X153961904Y-104351190D02*
X153950000Y-104339285D01*
X153938095Y-104315476D01*
X153938095Y-104255952D01*
X153950000Y-104232142D01*
X153961904Y-104220238D01*
X153985714Y-104208333D01*
X154009523Y-104208333D01*
X154045238Y-104220238D01*
X154188095Y-104363095D01*
X154188095Y-104208333D01*
G04 #@! TO.C,16Mhz1*
X154263095Y-99748809D02*
X154263095Y-99891666D01*
X154263095Y-99820238D02*
X154013095Y-99820238D01*
X154048809Y-99844047D01*
X154072619Y-99867857D01*
X154084523Y-99891666D01*
X154013095Y-99534523D02*
X154013095Y-99582142D01*
X154025000Y-99605952D01*
X154036904Y-99617857D01*
X154072619Y-99641666D01*
X154120238Y-99653571D01*
X154215476Y-99653571D01*
X154239285Y-99641666D01*
X154251190Y-99629761D01*
X154263095Y-99605952D01*
X154263095Y-99558333D01*
X154251190Y-99534523D01*
X154239285Y-99522619D01*
X154215476Y-99510714D01*
X154155952Y-99510714D01*
X154132142Y-99522619D01*
X154120238Y-99534523D01*
X154108333Y-99558333D01*
X154108333Y-99605952D01*
X154120238Y-99629761D01*
X154132142Y-99641666D01*
X154155952Y-99653571D01*
X154263095Y-99403571D02*
X154013095Y-99403571D01*
X154191666Y-99320238D01*
X154013095Y-99236904D01*
X154263095Y-99236904D01*
X154263095Y-99117857D02*
X154013095Y-99117857D01*
X154263095Y-99010714D02*
X154132142Y-99010714D01*
X154108333Y-99022619D01*
X154096428Y-99046428D01*
X154096428Y-99082142D01*
X154108333Y-99105952D01*
X154120238Y-99117857D01*
X154096428Y-98915476D02*
X154096428Y-98784523D01*
X154263095Y-98915476D01*
X154263095Y-98784523D01*
X154263095Y-98558333D02*
X154263095Y-98701190D01*
X154263095Y-98629761D02*
X154013095Y-98629761D01*
X154048809Y-98653571D01*
X154072619Y-98677380D01*
X154084523Y-98701190D01*
G04 #@! TO.C,10uF2*
X161038095Y-97361904D02*
X161038095Y-97504761D01*
X161038095Y-97433333D02*
X160788095Y-97433333D01*
X160823809Y-97457142D01*
X160847619Y-97480952D01*
X160859523Y-97504761D01*
X160788095Y-97207142D02*
X160788095Y-97183333D01*
X160800000Y-97159523D01*
X160811904Y-97147619D01*
X160835714Y-97135714D01*
X160883333Y-97123809D01*
X160942857Y-97123809D01*
X160990476Y-97135714D01*
X161014285Y-97147619D01*
X161026190Y-97159523D01*
X161038095Y-97183333D01*
X161038095Y-97207142D01*
X161026190Y-97230952D01*
X161014285Y-97242857D01*
X160990476Y-97254761D01*
X160942857Y-97266666D01*
X160883333Y-97266666D01*
X160835714Y-97254761D01*
X160811904Y-97242857D01*
X160800000Y-97230952D01*
X160788095Y-97207142D01*
X160871428Y-96909523D02*
X161038095Y-96909523D01*
X160871428Y-97016666D02*
X161002380Y-97016666D01*
X161026190Y-97004761D01*
X161038095Y-96980952D01*
X161038095Y-96945238D01*
X161026190Y-96921428D01*
X161014285Y-96909523D01*
X160907142Y-96707142D02*
X160907142Y-96790476D01*
X161038095Y-96790476D02*
X160788095Y-96790476D01*
X160788095Y-96671428D01*
X160811904Y-96588095D02*
X160800000Y-96576190D01*
X160788095Y-96552380D01*
X160788095Y-96492857D01*
X160800000Y-96469047D01*
X160811904Y-96457142D01*
X160835714Y-96445238D01*
X160859523Y-96445238D01*
X160895238Y-96457142D01*
X161038095Y-96600000D01*
X161038095Y-96445238D01*
G04 #@! TO.C,10uF1*
X164463095Y-104186904D02*
X164463095Y-104329761D01*
X164463095Y-104258333D02*
X164213095Y-104258333D01*
X164248809Y-104282142D01*
X164272619Y-104305952D01*
X164284523Y-104329761D01*
X164213095Y-104032142D02*
X164213095Y-104008333D01*
X164225000Y-103984523D01*
X164236904Y-103972619D01*
X164260714Y-103960714D01*
X164308333Y-103948809D01*
X164367857Y-103948809D01*
X164415476Y-103960714D01*
X164439285Y-103972619D01*
X164451190Y-103984523D01*
X164463095Y-104008333D01*
X164463095Y-104032142D01*
X164451190Y-104055952D01*
X164439285Y-104067857D01*
X164415476Y-104079761D01*
X164367857Y-104091666D01*
X164308333Y-104091666D01*
X164260714Y-104079761D01*
X164236904Y-104067857D01*
X164225000Y-104055952D01*
X164213095Y-104032142D01*
X164296428Y-103734523D02*
X164463095Y-103734523D01*
X164296428Y-103841666D02*
X164427380Y-103841666D01*
X164451190Y-103829761D01*
X164463095Y-103805952D01*
X164463095Y-103770238D01*
X164451190Y-103746428D01*
X164439285Y-103734523D01*
X164332142Y-103532142D02*
X164332142Y-103615476D01*
X164463095Y-103615476D02*
X164213095Y-103615476D01*
X164213095Y-103496428D01*
X164463095Y-103270238D02*
X164463095Y-103413095D01*
X164463095Y-103341666D02*
X164213095Y-103341666D01*
X164248809Y-103365476D01*
X164272619Y-103389285D01*
X164284523Y-103413095D01*
G04 #@! TO.C,10KOhm1*
X157838095Y-98752380D02*
X157838095Y-98895238D01*
X157838095Y-98823809D02*
X157588095Y-98823809D01*
X157623809Y-98847619D01*
X157647619Y-98871428D01*
X157659523Y-98895238D01*
X157588095Y-98597619D02*
X157588095Y-98573809D01*
X157600000Y-98550000D01*
X157611904Y-98538095D01*
X157635714Y-98526190D01*
X157683333Y-98514285D01*
X157742857Y-98514285D01*
X157790476Y-98526190D01*
X157814285Y-98538095D01*
X157826190Y-98550000D01*
X157838095Y-98573809D01*
X157838095Y-98597619D01*
X157826190Y-98621428D01*
X157814285Y-98633333D01*
X157790476Y-98645238D01*
X157742857Y-98657142D01*
X157683333Y-98657142D01*
X157635714Y-98645238D01*
X157611904Y-98633333D01*
X157600000Y-98621428D01*
X157588095Y-98597619D01*
X157838095Y-98407142D02*
X157588095Y-98407142D01*
X157838095Y-98264285D02*
X157695238Y-98371428D01*
X157588095Y-98264285D02*
X157730952Y-98407142D01*
X157588095Y-98109523D02*
X157588095Y-98061904D01*
X157600000Y-98038095D01*
X157623809Y-98014285D01*
X157671428Y-98002380D01*
X157754761Y-98002380D01*
X157802380Y-98014285D01*
X157826190Y-98038095D01*
X157838095Y-98061904D01*
X157838095Y-98109523D01*
X157826190Y-98133333D01*
X157802380Y-98157142D01*
X157754761Y-98169047D01*
X157671428Y-98169047D01*
X157623809Y-98157142D01*
X157600000Y-98133333D01*
X157588095Y-98109523D01*
X157838095Y-97895238D02*
X157588095Y-97895238D01*
X157838095Y-97788095D02*
X157707142Y-97788095D01*
X157683333Y-97800000D01*
X157671428Y-97823809D01*
X157671428Y-97859523D01*
X157683333Y-97883333D01*
X157695238Y-97895238D01*
X157838095Y-97669047D02*
X157671428Y-97669047D01*
X157695238Y-97669047D02*
X157683333Y-97657142D01*
X157671428Y-97633333D01*
X157671428Y-97597619D01*
X157683333Y-97573809D01*
X157707142Y-97561904D01*
X157838095Y-97561904D01*
X157707142Y-97561904D02*
X157683333Y-97550000D01*
X157671428Y-97526190D01*
X157671428Y-97490476D01*
X157683333Y-97466666D01*
X157707142Y-97454761D01*
X157838095Y-97454761D01*
X157838095Y-97204761D02*
X157838095Y-97347619D01*
X157838095Y-97276190D02*
X157588095Y-97276190D01*
X157623809Y-97300000D01*
X157647619Y-97323809D01*
X157659523Y-97347619D01*
G04 #@! TO.C,10KOhm2*
X159413095Y-96902380D02*
X159413095Y-97045238D01*
X159413095Y-96973809D02*
X159163095Y-96973809D01*
X159198809Y-96997619D01*
X159222619Y-97021428D01*
X159234523Y-97045238D01*
X159163095Y-96747619D02*
X159163095Y-96723809D01*
X159175000Y-96700000D01*
X159186904Y-96688095D01*
X159210714Y-96676190D01*
X159258333Y-96664285D01*
X159317857Y-96664285D01*
X159365476Y-96676190D01*
X159389285Y-96688095D01*
X159401190Y-96700000D01*
X159413095Y-96723809D01*
X159413095Y-96747619D01*
X159401190Y-96771428D01*
X159389285Y-96783333D01*
X159365476Y-96795238D01*
X159317857Y-96807142D01*
X159258333Y-96807142D01*
X159210714Y-96795238D01*
X159186904Y-96783333D01*
X159175000Y-96771428D01*
X159163095Y-96747619D01*
X159413095Y-96557142D02*
X159163095Y-96557142D01*
X159413095Y-96414285D02*
X159270238Y-96521428D01*
X159163095Y-96414285D02*
X159305952Y-96557142D01*
X159163095Y-96259523D02*
X159163095Y-96211904D01*
X159175000Y-96188095D01*
X159198809Y-96164285D01*
X159246428Y-96152380D01*
X159329761Y-96152380D01*
X159377380Y-96164285D01*
X159401190Y-96188095D01*
X159413095Y-96211904D01*
X159413095Y-96259523D01*
X159401190Y-96283333D01*
X159377380Y-96307142D01*
X159329761Y-96319047D01*
X159246428Y-96319047D01*
X159198809Y-96307142D01*
X159175000Y-96283333D01*
X159163095Y-96259523D01*
X159413095Y-96045238D02*
X159163095Y-96045238D01*
X159413095Y-95938095D02*
X159282142Y-95938095D01*
X159258333Y-95950000D01*
X159246428Y-95973809D01*
X159246428Y-96009523D01*
X159258333Y-96033333D01*
X159270238Y-96045238D01*
X159413095Y-95819047D02*
X159246428Y-95819047D01*
X159270238Y-95819047D02*
X159258333Y-95807142D01*
X159246428Y-95783333D01*
X159246428Y-95747619D01*
X159258333Y-95723809D01*
X159282142Y-95711904D01*
X159413095Y-95711904D01*
X159282142Y-95711904D02*
X159258333Y-95700000D01*
X159246428Y-95676190D01*
X159246428Y-95640476D01*
X159258333Y-95616666D01*
X159282142Y-95604761D01*
X159413095Y-95604761D01*
X159186904Y-95497619D02*
X159175000Y-95485714D01*
X159163095Y-95461904D01*
X159163095Y-95402380D01*
X159175000Y-95378571D01*
X159186904Y-95366666D01*
X159210714Y-95354761D01*
X159234523Y-95354761D01*
X159270238Y-95366666D01*
X159413095Y-95509523D01*
X159413095Y-95354761D01*
G04 #@! TO.C,0.1uF4*
X163963095Y-101709761D02*
X163963095Y-101685952D01*
X163975000Y-101662142D01*
X163986904Y-101650238D01*
X164010714Y-101638333D01*
X164058333Y-101626428D01*
X164117857Y-101626428D01*
X164165476Y-101638333D01*
X164189285Y-101650238D01*
X164201190Y-101662142D01*
X164213095Y-101685952D01*
X164213095Y-101709761D01*
X164201190Y-101733571D01*
X164189285Y-101745476D01*
X164165476Y-101757380D01*
X164117857Y-101769285D01*
X164058333Y-101769285D01*
X164010714Y-101757380D01*
X163986904Y-101745476D01*
X163975000Y-101733571D01*
X163963095Y-101709761D01*
X164189285Y-101519285D02*
X164201190Y-101507380D01*
X164213095Y-101519285D01*
X164201190Y-101531190D01*
X164189285Y-101519285D01*
X164213095Y-101519285D01*
X164213095Y-101269285D02*
X164213095Y-101412142D01*
X164213095Y-101340714D02*
X163963095Y-101340714D01*
X163998809Y-101364523D01*
X164022619Y-101388333D01*
X164034523Y-101412142D01*
X164046428Y-101055000D02*
X164213095Y-101055000D01*
X164046428Y-101162142D02*
X164177380Y-101162142D01*
X164201190Y-101150238D01*
X164213095Y-101126428D01*
X164213095Y-101090714D01*
X164201190Y-101066904D01*
X164189285Y-101055000D01*
X164082142Y-100852619D02*
X164082142Y-100935952D01*
X164213095Y-100935952D02*
X163963095Y-100935952D01*
X163963095Y-100816904D01*
X164046428Y-100614523D02*
X164213095Y-100614523D01*
X163951190Y-100674047D02*
X164129761Y-100733571D01*
X164129761Y-100578809D01*
G04 #@! TO.C,0.1uF2*
X146938095Y-105729761D02*
X146938095Y-105705952D01*
X146950000Y-105682142D01*
X146961904Y-105670238D01*
X146985714Y-105658333D01*
X147033333Y-105646428D01*
X147092857Y-105646428D01*
X147140476Y-105658333D01*
X147164285Y-105670238D01*
X147176190Y-105682142D01*
X147188095Y-105705952D01*
X147188095Y-105729761D01*
X147176190Y-105753571D01*
X147164285Y-105765476D01*
X147140476Y-105777380D01*
X147092857Y-105789285D01*
X147033333Y-105789285D01*
X146985714Y-105777380D01*
X146961904Y-105765476D01*
X146950000Y-105753571D01*
X146938095Y-105729761D01*
X147164285Y-105539285D02*
X147176190Y-105527380D01*
X147188095Y-105539285D01*
X147176190Y-105551190D01*
X147164285Y-105539285D01*
X147188095Y-105539285D01*
X147188095Y-105289285D02*
X147188095Y-105432142D01*
X147188095Y-105360714D02*
X146938095Y-105360714D01*
X146973809Y-105384523D01*
X146997619Y-105408333D01*
X147009523Y-105432142D01*
X147021428Y-105075000D02*
X147188095Y-105075000D01*
X147021428Y-105182142D02*
X147152380Y-105182142D01*
X147176190Y-105170238D01*
X147188095Y-105146428D01*
X147188095Y-105110714D01*
X147176190Y-105086904D01*
X147164285Y-105075000D01*
X147057142Y-104872619D02*
X147057142Y-104955952D01*
X147188095Y-104955952D02*
X146938095Y-104955952D01*
X146938095Y-104836904D01*
X146961904Y-104753571D02*
X146950000Y-104741666D01*
X146938095Y-104717857D01*
X146938095Y-104658333D01*
X146950000Y-104634523D01*
X146961904Y-104622619D01*
X146985714Y-104610714D01*
X147009523Y-104610714D01*
X147045238Y-104622619D01*
X147188095Y-104765476D01*
X147188095Y-104610714D01*
G04 #@! TO.C,0.1uF1*
X146938095Y-107179761D02*
X146938095Y-107155952D01*
X146950000Y-107132142D01*
X146961904Y-107120238D01*
X146985714Y-107108333D01*
X147033333Y-107096428D01*
X147092857Y-107096428D01*
X147140476Y-107108333D01*
X147164285Y-107120238D01*
X147176190Y-107132142D01*
X147188095Y-107155952D01*
X147188095Y-107179761D01*
X147176190Y-107203571D01*
X147164285Y-107215476D01*
X147140476Y-107227380D01*
X147092857Y-107239285D01*
X147033333Y-107239285D01*
X146985714Y-107227380D01*
X146961904Y-107215476D01*
X146950000Y-107203571D01*
X146938095Y-107179761D01*
X147164285Y-106989285D02*
X147176190Y-106977380D01*
X147188095Y-106989285D01*
X147176190Y-107001190D01*
X147164285Y-106989285D01*
X147188095Y-106989285D01*
X147188095Y-106739285D02*
X147188095Y-106882142D01*
X147188095Y-106810714D02*
X146938095Y-106810714D01*
X146973809Y-106834523D01*
X146997619Y-106858333D01*
X147009523Y-106882142D01*
X147021428Y-106525000D02*
X147188095Y-106525000D01*
X147021428Y-106632142D02*
X147152380Y-106632142D01*
X147176190Y-106620238D01*
X147188095Y-106596428D01*
X147188095Y-106560714D01*
X147176190Y-106536904D01*
X147164285Y-106525000D01*
X147057142Y-106322619D02*
X147057142Y-106405952D01*
X147188095Y-106405952D02*
X146938095Y-106405952D01*
X146938095Y-106286904D01*
X147188095Y-106060714D02*
X147188095Y-106203571D01*
X147188095Y-106132142D02*
X146938095Y-106132142D01*
X146973809Y-106155952D01*
X146997619Y-106179761D01*
X147009523Y-106203571D01*
G04 #@! TD*
M02*
