G04 #@! TF.GenerationSoftware,KiCad,Pcbnew,(5.1.6)-1*
G04 #@! TF.CreationDate,2021-12-03T12:33:41+01:00*
G04 #@! TF.ProjectId,USBEMBEDED,55534245-4d42-4454-9445-442e6b696361,rev?*
G04 #@! TF.SameCoordinates,Original*
G04 #@! TF.FileFunction,Soldermask,Bot*
G04 #@! TF.FilePolarity,Negative*
%FSLAX46Y46*%
G04 Gerber Fmt 4.6, Leading zero omitted, Abs format (unit mm)*
G04 Created by KiCad (PCBNEW (5.1.6)-1) date 2021-12-03 12:33:41*
%MOMM*%
%LPD*%
G01*
G04 APERTURE LIST*
%ADD10C,0.010000*%
%ADD11R,1.350000X1.550000*%
%ADD12R,1.000000X1.200000*%
%ADD13R,1.350000X1.900000*%
%ADD14R,1.800000X1.170000*%
%ADD15R,1.100000X0.750000*%
%ADD16R,1.100000X0.850000*%
%ADD17C,1.650000*%
%ADD18R,1.070000X1.820000*%
%ADD19R,0.600000X1.200000*%
%ADD20R,0.470000X0.440000*%
%ADD21R,1.725000X1.725000*%
%ADD22C,1.067000*%
%ADD23C,0.813000*%
%ADD24C,0.450000*%
G04 APERTURE END LIST*
D10*
G04 #@! TO.C,U1*
G36*
X144783000Y-109940000D02*
G01*
X146257000Y-109940000D01*
X146257000Y-108720000D01*
X144783000Y-108720000D01*
X144783000Y-109940000D01*
G37*
X144783000Y-109940000D02*
X146257000Y-109940000D01*
X146257000Y-108720000D01*
X144783000Y-108720000D01*
X144783000Y-109940000D01*
G36*
X146053000Y-109940000D02*
G01*
X147527000Y-109940000D01*
X147527000Y-108720000D01*
X146053000Y-108720000D01*
X146053000Y-109940000D01*
G37*
X146053000Y-109940000D02*
X147527000Y-109940000D01*
X147527000Y-108720000D01*
X146053000Y-108720000D01*
X146053000Y-109940000D01*
G36*
X147323000Y-109940000D02*
G01*
X148797000Y-109940000D01*
X148797000Y-108720000D01*
X147323000Y-108720000D01*
X147323000Y-109940000D01*
G37*
X147323000Y-109940000D02*
X148797000Y-109940000D01*
X148797000Y-108720000D01*
X147323000Y-108720000D01*
X147323000Y-109940000D01*
G36*
X148593000Y-109940000D02*
G01*
X150067000Y-109940000D01*
X150067000Y-108720000D01*
X148593000Y-108720000D01*
X148593000Y-109940000D01*
G37*
X148593000Y-109940000D02*
X150067000Y-109940000D01*
X150067000Y-108720000D01*
X148593000Y-108720000D01*
X148593000Y-109940000D01*
G36*
X149863000Y-109940000D02*
G01*
X151337000Y-109940000D01*
X151337000Y-108720000D01*
X149863000Y-108720000D01*
X149863000Y-109940000D01*
G37*
X149863000Y-109940000D02*
X151337000Y-109940000D01*
X151337000Y-108720000D01*
X149863000Y-108720000D01*
X149863000Y-109940000D01*
G36*
X151133000Y-109940000D02*
G01*
X152607000Y-109940000D01*
X152607000Y-108720000D01*
X151133000Y-108720000D01*
X151133000Y-109940000D01*
G37*
X151133000Y-109940000D02*
X152607000Y-109940000D01*
X152607000Y-108720000D01*
X151133000Y-108720000D01*
X151133000Y-109940000D01*
G36*
X152403000Y-109940000D02*
G01*
X153877000Y-109940000D01*
X153877000Y-108720000D01*
X152403000Y-108720000D01*
X152403000Y-109940000D01*
G37*
X152403000Y-109940000D02*
X153877000Y-109940000D01*
X153877000Y-108720000D01*
X152403000Y-108720000D01*
X152403000Y-109940000D01*
G36*
X153673000Y-109940000D02*
G01*
X155147000Y-109940000D01*
X155147000Y-108720000D01*
X153673000Y-108720000D01*
X153673000Y-109940000D01*
G37*
X153673000Y-109940000D02*
X155147000Y-109940000D01*
X155147000Y-108720000D01*
X153673000Y-108720000D01*
X153673000Y-109940000D01*
G36*
X154943000Y-109940000D02*
G01*
X156417000Y-109940000D01*
X156417000Y-108720000D01*
X154943000Y-108720000D01*
X154943000Y-109940000D01*
G37*
X154943000Y-109940000D02*
X156417000Y-109940000D01*
X156417000Y-108720000D01*
X154943000Y-108720000D01*
X154943000Y-109940000D01*
G36*
X156213000Y-109940000D02*
G01*
X157687000Y-109940000D01*
X157687000Y-108720000D01*
X156213000Y-108720000D01*
X156213000Y-109940000D01*
G37*
X156213000Y-109940000D02*
X157687000Y-109940000D01*
X157687000Y-108720000D01*
X156213000Y-108720000D01*
X156213000Y-109940000D01*
G36*
X157483000Y-109940000D02*
G01*
X158957000Y-109940000D01*
X158957000Y-108720000D01*
X157483000Y-108720000D01*
X157483000Y-109940000D01*
G37*
X157483000Y-109940000D02*
X158957000Y-109940000D01*
X158957000Y-108720000D01*
X157483000Y-108720000D01*
X157483000Y-109940000D01*
G36*
X158753000Y-109940000D02*
G01*
X160227000Y-109940000D01*
X160227000Y-108720000D01*
X158753000Y-108720000D01*
X158753000Y-109940000D01*
G37*
X158753000Y-109940000D02*
X160227000Y-109940000D01*
X160227000Y-108720000D01*
X158753000Y-108720000D01*
X158753000Y-109940000D01*
G36*
X160023000Y-109940000D02*
G01*
X161497000Y-109940000D01*
X161497000Y-108720000D01*
X160023000Y-108720000D01*
X160023000Y-109940000D01*
G37*
X160023000Y-109940000D02*
X161497000Y-109940000D01*
X161497000Y-108720000D01*
X160023000Y-108720000D01*
X160023000Y-109940000D01*
G36*
X161293000Y-109940000D02*
G01*
X162767000Y-109940000D01*
X162767000Y-108720000D01*
X161293000Y-108720000D01*
X161293000Y-109940000D01*
G37*
X161293000Y-109940000D02*
X162767000Y-109940000D01*
X162767000Y-108720000D01*
X161293000Y-108720000D01*
X161293000Y-109940000D01*
G04 #@! TD*
D11*
G04 #@! TO.C,SD1*
X156280000Y-105075000D03*
D12*
X150255000Y-105250000D03*
X146555000Y-105250000D03*
D13*
X145580000Y-101750000D03*
X145580000Y-95780000D03*
D14*
X156055000Y-93755000D03*
D15*
X156405000Y-94965000D03*
D16*
X156405000Y-96015000D03*
X156405000Y-97115000D03*
X156405000Y-98215000D03*
X156405000Y-99315000D03*
X156405000Y-100415000D03*
X156405000Y-101515000D03*
X156405000Y-102615000D03*
G04 #@! TD*
D17*
G04 #@! TO.C,PCSIDE1*
X137270000Y-96390000D03*
X137270000Y-98930000D03*
X137270000Y-101470000D03*
X137270000Y-104010000D03*
G04 #@! TD*
G04 #@! TO.C,KEYBOARDSIDE1*
X174510000Y-103960000D03*
X174510000Y-101420000D03*
X174510000Y-98880000D03*
X174510000Y-96340000D03*
G04 #@! TD*
D18*
G04 #@! TO.C,C1*
X169130000Y-102130000D03*
X171890000Y-102130000D03*
G04 #@! TD*
D19*
G04 #@! TO.C,KEYPWR1*
X171820000Y-97670000D03*
X169920000Y-97670000D03*
X169920000Y-100170000D03*
X170870000Y-100170000D03*
X171820000Y-100170000D03*
G04 #@! TD*
D20*
G04 #@! TO.C,0.1uF5*
X171510000Y-96470000D03*
X172180000Y-96470000D03*
G04 #@! TD*
D21*
G04 #@! TO.C,TX1*
X165000000Y-94560000D03*
G04 #@! TD*
G04 #@! TO.C,RX1*
X165060000Y-106460000D03*
G04 #@! TD*
G04 #@! TO.C,GND1*
X142180000Y-93700000D03*
G04 #@! TD*
G04 #@! TO.C,5V+1*
X142030000Y-107360000D03*
G04 #@! TD*
D22*
G04 #@! TO.C,U1*
X163300000Y-108339000D03*
D23*
X164799000Y-109330000D03*
X143488000Y-109330000D03*
D22*
X144250000Y-108339000D03*
G04 #@! TD*
D24*
X154760000Y-96770000D03*
X154080000Y-96770000D03*
X171130000Y-96420000D03*
X170910000Y-100320000D03*
X169090000Y-102640000D03*
X156650000Y-103520000D03*
X156620000Y-97370000D03*
X150450000Y-97040000D03*
X146730000Y-96890000D03*
X148530000Y-96890000D03*
X150430000Y-98650000D03*
X146520000Y-98410000D03*
X148570000Y-98610000D03*
X148570000Y-100400000D03*
X150420000Y-100390000D03*
X146530000Y-100390000D03*
X158210000Y-106890000D03*
X154080000Y-104840000D03*
X154110000Y-99130000D03*
X143540000Y-103410000D03*
X142980000Y-103420000D03*
X142970000Y-104050000D03*
X143560000Y-104070000D03*
X143520000Y-104630000D03*
X142960000Y-104630000D03*
X143270000Y-105570000D03*
X136620000Y-92350000D03*
X140080000Y-92330000D03*
X143610000Y-92280000D03*
X145740000Y-92240000D03*
X141910000Y-92280000D03*
X136730000Y-108820000D03*
X139650000Y-108960000D03*
X142790000Y-108910000D03*
X141090000Y-95250000D03*
X141500000Y-97920000D03*
X142950000Y-98770000D03*
X143860000Y-99580000D03*
X143830000Y-98160000D03*
X142580000Y-97060000D03*
X143050000Y-95690000D03*
X144000000Y-94220000D03*
X144240000Y-93140000D03*
X143840000Y-107060000D03*
X146760000Y-106660000D03*
X145310000Y-106470000D03*
X143610000Y-106250000D03*
X158730000Y-108200000D03*
X159550000Y-107240000D03*
X159540000Y-108220000D03*
X161350000Y-108200000D03*
X161320000Y-107470000D03*
X146880000Y-93840000D03*
X145560000Y-93750000D03*
X146630000Y-92930000D03*
X147090000Y-92120000D03*
X148870000Y-94240000D03*
X148840000Y-93370000D03*
X149850000Y-93380000D03*
X150620000Y-93740000D03*
X151390000Y-94020000D03*
X151400000Y-95400000D03*
X152250000Y-95400000D03*
X152280000Y-94020000D03*
X151580000Y-93180000D03*
X154470000Y-93150000D03*
X153220000Y-93140000D03*
X154960000Y-97290000D03*
X153230000Y-101120000D03*
X155020000Y-101110000D03*
X153310000Y-102860000D03*
X155410000Y-102970000D03*
X163130000Y-106820000D03*
X164570000Y-108110000D03*
X165950000Y-108780000D03*
X172350000Y-95110000D03*
X167110000Y-107580000D03*
X167980000Y-108850000D03*
X168760000Y-96570000D03*
X166880000Y-96400000D03*
X164620000Y-96480000D03*
X164430000Y-98690000D03*
X164460000Y-101260000D03*
X163580000Y-99980000D03*
X161730000Y-98720000D03*
X162870000Y-97350000D03*
X162070000Y-95680000D03*
X160800000Y-95230000D03*
X167440000Y-94950000D03*
X167580000Y-92280000D03*
X166280000Y-95030000D03*
X166320000Y-92120000D03*
X166290000Y-93300000D03*
X163450000Y-94010000D03*
X163530000Y-92160000D03*
X161940000Y-94130000D03*
X161900000Y-92140000D03*
X160520000Y-94090000D03*
X160540000Y-92270000D03*
X160040000Y-93290000D03*
X158540000Y-92190000D03*
X166800000Y-105450000D03*
X157480000Y-92580000D03*
X152770000Y-97490000D03*
X149730000Y-108080000D03*
X147760000Y-105950000D03*
X153230000Y-106600000D03*
X163640000Y-104270000D03*
X151640000Y-102070000D03*
X151440000Y-105110000D03*
X151640000Y-103810000D03*
X170010000Y-98910000D03*
X170960000Y-98910000D03*
X171900000Y-98920000D03*
X137660000Y-93870000D03*
X139310000Y-93550000D03*
X139150000Y-95020000D03*
X139950000Y-96800000D03*
X136560000Y-102750000D03*
X136840000Y-105660000D03*
X139600000Y-106670000D03*
X138180000Y-107580000D03*
X136740000Y-107120000D03*
X139080000Y-97840000D03*
X136780000Y-94860000D03*
X138160000Y-92530000D03*
X154680000Y-96100000D03*
X154180000Y-96220000D03*
X155090000Y-95730000D03*
X154010000Y-94430000D03*
X156470000Y-99310000D03*
X160250000Y-97410000D03*
X163520000Y-101520000D03*
X158835000Y-106880000D03*
X160193520Y-98580000D03*
X158830000Y-97680000D03*
X146820000Y-108300000D03*
X155490000Y-96830000D03*
X147910000Y-107020000D03*
X171810000Y-97460000D03*
X171790000Y-98010000D03*
X153600000Y-95730000D03*
X153410000Y-96810000D03*
X144800000Y-104690000D03*
X144800000Y-105150000D03*
X144810000Y-105620000D03*
X144552998Y-95590000D03*
X144110000Y-100520000D03*
X150590000Y-94340000D03*
X152304018Y-100068572D03*
X146750000Y-104260000D03*
X148276553Y-104861053D03*
X165140000Y-103000000D03*
X160870000Y-98100000D03*
X148660000Y-92160000D03*
X153280000Y-108030000D03*
X158186340Y-95493660D03*
X142090000Y-104660000D03*
X142230000Y-103370000D03*
X140550000Y-103830000D03*
X142950000Y-100200000D03*
X147060000Y-103200000D03*
X147960000Y-92590000D03*
X154653712Y-108133712D03*
X158601840Y-93110000D03*
X157478951Y-93351049D03*
X157609899Y-95468231D03*
X165480000Y-98460000D03*
X151010000Y-102860000D03*
X149740000Y-103830000D03*
X150540000Y-108220000D03*
X150447168Y-102732909D03*
X149278398Y-103483799D03*
X149885230Y-102515989D03*
X147820000Y-107870000D03*
X148819513Y-104228822D03*
X149760000Y-94230000D03*
X150957606Y-103500000D03*
X172900000Y-99870000D03*
X151454500Y-107049376D03*
X153180000Y-101980000D03*
X151454500Y-107880376D03*
X152285500Y-107880376D03*
X151033575Y-107444032D03*
X154120000Y-107464876D03*
X155440000Y-106633876D03*
X151361001Y-106480000D03*
X160193520Y-95837998D03*
X152030001Y-101580000D03*
X155502998Y-97800000D03*
M02*
