M48
; DRILL file {KiCad (5.1.6)-1} date 02/20/21 14:32:50
; FORMAT={-:-/ absolute / inch / decimal}
; #@! TF.CreationDate,2021-02-20T14:32:50+01:00
; #@! TF.GenerationSoftware,Kicad,Pcbnew,(5.1.6)-1
FMAT,2
INCH
T1C0.0157
T2C0.0433
T3C0.0453
%
G90
G05
T1
X4.4118Y-4.5756
X4.4791Y-4.5066
X4.5457Y-4.587
X4.6075Y-4.4138
X4.6287Y-4.9437
X4.6358Y-4.5921
X4.6799Y-4.5021
T2
X4.1713Y-4.1685
X4.1713Y-4.2685
X4.1713Y-4.3685
X4.1713Y-4.4685
X4.1713Y-4.5685
X4.1713Y-4.6685
X4.1713Y-4.7685
X4.2713Y-4.1685
X4.2713Y-4.2685
X4.2713Y-4.3685
X4.2713Y-4.4685
X4.2713Y-4.5685
X4.2713Y-4.6685
X4.2713Y-4.7685
T3
X4.8417Y-3.839
X4.8417Y-3.939
X4.8417Y-4.039
X4.8417Y-4.139
X4.8417Y-4.239
X4.8417Y-4.339
X4.8417Y-4.439
X4.8417Y-4.539
X4.8417Y-4.639
X4.8417Y-4.739
X4.8417Y-4.839
X4.8417Y-4.939
X4.8417Y-5.039
X4.8417Y-5.139
T0
M30
