G04 #@! TF.GenerationSoftware,KiCad,Pcbnew,(5.1.6)-1*
G04 #@! TF.CreationDate,2021-02-20T14:32:47+01:00*
G04 #@! TF.ProjectId,IDCbreakout,49444362-7265-4616-9b6f-75742e6b6963,rev?*
G04 #@! TF.SameCoordinates,Original*
G04 #@! TF.FileFunction,Copper,L1,Top*
G04 #@! TF.FilePolarity,Positive*
%FSLAX46Y46*%
G04 Gerber Fmt 4.6, Leading zero omitted, Abs format (unit mm)*
G04 Created by KiCad (PCBNEW (5.1.6)-1) date 2021-02-20 14:32:47*
%MOMM*%
%LPD*%
G01*
G04 APERTURE LIST*
G04 #@! TA.AperFunction,ComponentPad*
%ADD10C,1.725000*%
G04 #@! TD*
G04 #@! TA.AperFunction,ComponentPad*
%ADD11R,1.725000X1.725000*%
G04 #@! TD*
G04 #@! TA.AperFunction,ComponentPad*
%ADD12C,1.650000*%
G04 #@! TD*
G04 #@! TA.AperFunction,ComponentPad*
%ADD13R,1.650000X1.650000*%
G04 #@! TD*
G04 #@! TA.AperFunction,ViaPad*
%ADD14C,0.800000*%
G04 #@! TD*
G04 #@! TA.AperFunction,Conductor*
%ADD15C,0.450000*%
G04 #@! TD*
G04 #@! TA.AperFunction,Conductor*
%ADD16C,0.254000*%
G04 #@! TD*
G04 APERTURE END LIST*
D10*
G04 #@! TO.P,J2,14*
G04 #@! TO.N,GND*
X122980000Y-130530000D03*
G04 #@! TO.P,J2,13*
X122980000Y-127990000D03*
G04 #@! TO.P,J2,12*
X122980000Y-125450000D03*
G04 #@! TO.P,J2,11*
G04 #@! TO.N,TX2*
X122980000Y-122910000D03*
G04 #@! TO.P,J2,10*
G04 #@! TO.N,RX2*
X122980000Y-120370000D03*
G04 #@! TO.P,J2,9*
G04 #@! TO.N,TX1*
X122980000Y-117830000D03*
G04 #@! TO.P,J2,8*
G04 #@! TO.N,RX1*
X122980000Y-115290000D03*
G04 #@! TO.P,J2,7*
G04 #@! TO.N,1.8v*
X122980000Y-112750000D03*
G04 #@! TO.P,J2,6*
G04 #@! TO.N,SWDIO*
X122980000Y-110210000D03*
G04 #@! TO.P,J2,5*
G04 #@! TO.N,SWDCLK*
X122980000Y-107670000D03*
G04 #@! TO.P,J2,4*
G04 #@! TO.N,SWO*
X122980000Y-105130000D03*
G04 #@! TO.P,J2,3*
G04 #@! TO.N,RESET*
X122980000Y-102590000D03*
G04 #@! TO.P,J2,2*
G04 #@! TO.N,GND*
X122980000Y-100050000D03*
D11*
G04 #@! TO.P,J2,1*
G04 #@! TO.N,VCC*
X122980000Y-97510000D03*
G04 #@! TD*
D12*
G04 #@! TO.P,J1,14*
G04 #@! TO.N,GND*
X105950000Y-105880000D03*
G04 #@! TO.P,J1,13*
X108490000Y-105880000D03*
G04 #@! TO.P,J1,12*
X105950000Y-108420000D03*
G04 #@! TO.P,J1,11*
X108490000Y-108420000D03*
G04 #@! TO.P,J1,10*
G04 #@! TO.N,TX2*
X105950000Y-110960000D03*
G04 #@! TO.P,J1,9*
G04 #@! TO.N,RX2*
X108490000Y-110960000D03*
G04 #@! TO.P,J1,8*
G04 #@! TO.N,TX1*
X105950000Y-113500000D03*
G04 #@! TO.P,J1,7*
G04 #@! TO.N,RX1*
X108490000Y-113500000D03*
G04 #@! TO.P,J1,6*
G04 #@! TO.N,SWO*
X105950000Y-116040000D03*
G04 #@! TO.P,J1,5*
G04 #@! TO.N,SWDIO*
X108490000Y-116040000D03*
G04 #@! TO.P,J1,4*
G04 #@! TO.N,SWDCLK*
X105950000Y-118580000D03*
G04 #@! TO.P,J1,3*
G04 #@! TO.N,RESET*
X108490000Y-118580000D03*
G04 #@! TO.P,J1,2*
G04 #@! TO.N,1.8v*
X105950000Y-121120000D03*
D13*
G04 #@! TO.P,J1,1*
G04 #@! TO.N,VCC*
X108490000Y-121120000D03*
G04 #@! TD*
D14*
G04 #@! TO.N,RX2*
X117570000Y-125570000D03*
G04 #@! TO.N,RX1*
X113768364Y-114468364D03*
G04 #@! TO.N,SWO*
X117030000Y-112110000D03*
X118869163Y-114354109D03*
G04 #@! TO.N,SWDIO*
X112060000Y-116220000D03*
X115460000Y-116510000D03*
G04 #@! TO.N,1.8v*
X117750000Y-116640000D03*
G04 #@! TD*
D15*
G04 #@! TO.N,RX2*
X122770000Y-120370000D02*
X122980000Y-120370000D01*
X117570000Y-125570000D02*
X122770000Y-120370000D01*
G04 #@! TO.N,RX1*
X114590000Y-115290000D02*
X122980000Y-115290000D01*
X113768364Y-114468364D02*
X114590000Y-115290000D01*
G04 #@! TO.N,SWO*
X117030000Y-112110000D02*
X117030000Y-112514946D01*
X117030000Y-112514946D02*
X118869163Y-114354109D01*
G04 #@! TO.N,SWDIO*
X112060000Y-116220000D02*
X112700000Y-116860000D01*
X112700000Y-116860000D02*
X115110000Y-116860000D01*
X115110000Y-116860000D02*
X115460000Y-116510000D01*
G04 #@! TO.N,RESET*
X121692499Y-105377501D02*
X108490000Y-118580000D01*
X121692499Y-103877501D02*
X121692499Y-105377501D01*
X122980000Y-102590000D02*
X121692499Y-103877501D01*
G04 #@! TO.N,1.8v*
X112019999Y-122370001D02*
X117750000Y-116640000D01*
X105950000Y-121120000D02*
X107200001Y-122370001D01*
X107200001Y-122370001D02*
X112019999Y-122370001D01*
G04 #@! TD*
D16*
G04 #@! TO.N,GND*
G36*
X124315000Y-96222288D02*
G01*
X124293685Y-96196315D01*
X124196994Y-96116963D01*
X124086680Y-96057998D01*
X123966982Y-96021688D01*
X123842500Y-96009428D01*
X122117500Y-96009428D01*
X121993018Y-96021688D01*
X121873320Y-96057998D01*
X121763006Y-96116963D01*
X121666315Y-96196315D01*
X121586963Y-96293006D01*
X121527998Y-96403320D01*
X121491688Y-96523018D01*
X121479428Y-96647500D01*
X121479428Y-98372500D01*
X121491688Y-98496982D01*
X121527998Y-98616680D01*
X121586963Y-98726994D01*
X121666315Y-98823685D01*
X121763006Y-98903037D01*
X121873320Y-98962002D01*
X121993018Y-98998312D01*
X122117500Y-99010572D01*
X123842500Y-99010572D01*
X123966982Y-98998312D01*
X124086680Y-98962002D01*
X124196994Y-98903037D01*
X124293685Y-98823685D01*
X124315000Y-98797712D01*
X124315000Y-101899820D01*
X124307067Y-101880668D01*
X124143184Y-101635399D01*
X123934601Y-101426816D01*
X123689332Y-101262933D01*
X123416805Y-101150048D01*
X123127491Y-101092500D01*
X122832509Y-101092500D01*
X122543195Y-101150048D01*
X122270668Y-101262933D01*
X122025399Y-101426816D01*
X121816816Y-101635399D01*
X121652933Y-101880668D01*
X121540048Y-102153195D01*
X121482500Y-102442509D01*
X121482500Y-102737491D01*
X121504696Y-102849081D01*
X121114264Y-103239513D01*
X121081445Y-103266447D01*
X120973975Y-103397400D01*
X120894118Y-103546802D01*
X120868122Y-103632500D01*
X120850666Y-103690048D01*
X120844943Y-103708913D01*
X120832499Y-103835256D01*
X120832499Y-103835262D01*
X120828339Y-103877501D01*
X120832499Y-103919740D01*
X120832500Y-105021276D01*
X109950000Y-115903777D01*
X109950000Y-115896203D01*
X109893893Y-115614134D01*
X109783835Y-115348431D01*
X109624056Y-115109304D01*
X109420696Y-114905944D01*
X109217241Y-114770000D01*
X109420696Y-114634056D01*
X109624056Y-114430696D01*
X109783835Y-114191569D01*
X109893893Y-113925866D01*
X109950000Y-113643797D01*
X109950000Y-113356203D01*
X109893893Y-113074134D01*
X109783835Y-112808431D01*
X109624056Y-112569304D01*
X109420696Y-112365944D01*
X109217241Y-112230000D01*
X109420696Y-112094056D01*
X109624056Y-111890696D01*
X109783835Y-111651569D01*
X109893893Y-111385866D01*
X109950000Y-111103797D01*
X109950000Y-110816203D01*
X109893893Y-110534134D01*
X109783835Y-110268431D01*
X109624056Y-110029304D01*
X109420696Y-109825944D01*
X109181569Y-109666165D01*
X108915866Y-109556107D01*
X108633797Y-109500000D01*
X108346203Y-109500000D01*
X108064134Y-109556107D01*
X107798431Y-109666165D01*
X107559304Y-109825944D01*
X107355944Y-110029304D01*
X107220000Y-110232759D01*
X107084056Y-110029304D01*
X106880696Y-109825944D01*
X106641569Y-109666165D01*
X106375866Y-109556107D01*
X106093797Y-109500000D01*
X105806203Y-109500000D01*
X105524134Y-109556107D01*
X105258431Y-109666165D01*
X105019304Y-109825944D01*
X104815944Y-110029304D01*
X104656165Y-110268431D01*
X104546107Y-110534134D01*
X104490000Y-110816203D01*
X104490000Y-111103797D01*
X104546107Y-111385866D01*
X104656165Y-111651569D01*
X104815944Y-111890696D01*
X105019304Y-112094056D01*
X105222759Y-112230000D01*
X105019304Y-112365944D01*
X104815944Y-112569304D01*
X104656165Y-112808431D01*
X104546107Y-113074134D01*
X104490000Y-113356203D01*
X104490000Y-113643797D01*
X104546107Y-113925866D01*
X104656165Y-114191569D01*
X104815944Y-114430696D01*
X105019304Y-114634056D01*
X105222759Y-114770000D01*
X105019304Y-114905944D01*
X104815944Y-115109304D01*
X104656165Y-115348431D01*
X104546107Y-115614134D01*
X104490000Y-115896203D01*
X104490000Y-116183797D01*
X104546107Y-116465866D01*
X104656165Y-116731569D01*
X104815944Y-116970696D01*
X105019304Y-117174056D01*
X105222759Y-117310000D01*
X105019304Y-117445944D01*
X104815944Y-117649304D01*
X104656165Y-117888431D01*
X104546107Y-118154134D01*
X104490000Y-118436203D01*
X104490000Y-118723797D01*
X104546107Y-119005866D01*
X104656165Y-119271569D01*
X104815944Y-119510696D01*
X105019304Y-119714056D01*
X105222759Y-119850000D01*
X105019304Y-119985944D01*
X104815944Y-120189304D01*
X104656165Y-120428431D01*
X104546107Y-120694134D01*
X104490000Y-120976203D01*
X104490000Y-121263797D01*
X104546107Y-121545866D01*
X104656165Y-121811569D01*
X104815944Y-122050696D01*
X105019304Y-122254056D01*
X105258431Y-122413835D01*
X105524134Y-122523893D01*
X105806203Y-122580000D01*
X106093797Y-122580000D01*
X106177189Y-122563412D01*
X106562018Y-122948241D01*
X106588947Y-122981055D01*
X106719899Y-123088525D01*
X106869301Y-123168382D01*
X106955951Y-123194666D01*
X107031410Y-123217557D01*
X107062539Y-123220623D01*
X107157755Y-123230001D01*
X107157761Y-123230001D01*
X107200000Y-123234161D01*
X107242239Y-123230001D01*
X111977760Y-123230001D01*
X112019999Y-123234161D01*
X112062238Y-123230001D01*
X112062245Y-123230001D01*
X112188588Y-123217557D01*
X112350699Y-123168382D01*
X112500101Y-123088525D01*
X112631053Y-122981055D01*
X112657987Y-122948236D01*
X117950910Y-117655314D01*
X118051898Y-117635226D01*
X118240256Y-117557205D01*
X118409774Y-117443937D01*
X118553937Y-117299774D01*
X118667205Y-117130256D01*
X118745226Y-116941898D01*
X118785000Y-116741939D01*
X118785000Y-116538061D01*
X118745226Y-116338102D01*
X118667311Y-116150000D01*
X121753606Y-116150000D01*
X121816816Y-116244601D01*
X122025399Y-116453184D01*
X122185261Y-116560000D01*
X122025399Y-116666816D01*
X121816816Y-116875399D01*
X121652933Y-117120668D01*
X121540048Y-117393195D01*
X121482500Y-117682509D01*
X121482500Y-117977491D01*
X121540048Y-118266805D01*
X121652933Y-118539332D01*
X121816816Y-118784601D01*
X122025399Y-118993184D01*
X122185261Y-119100000D01*
X122025399Y-119206816D01*
X121816816Y-119415399D01*
X121652933Y-119660668D01*
X121540048Y-119933195D01*
X121482500Y-120222509D01*
X121482500Y-120441276D01*
X117369091Y-124554686D01*
X117268102Y-124574774D01*
X117079744Y-124652795D01*
X116910226Y-124766063D01*
X116766063Y-124910226D01*
X116652795Y-125079744D01*
X116574774Y-125268102D01*
X116535000Y-125468061D01*
X116535000Y-125671939D01*
X116574774Y-125871898D01*
X116652795Y-126060256D01*
X116766063Y-126229774D01*
X116910226Y-126373937D01*
X117079744Y-126487205D01*
X117268102Y-126565226D01*
X117468061Y-126605000D01*
X117671939Y-126605000D01*
X117871898Y-126565226D01*
X118060256Y-126487205D01*
X118229774Y-126373937D01*
X118373937Y-126229774D01*
X118487205Y-126060256D01*
X118565226Y-125871898D01*
X118585314Y-125770909D01*
X121482500Y-122873724D01*
X121482500Y-123057491D01*
X121540048Y-123346805D01*
X121652933Y-123619332D01*
X121816816Y-123864601D01*
X122025399Y-124073184D01*
X122270668Y-124237067D01*
X122543195Y-124349952D01*
X122832509Y-124407500D01*
X123127491Y-124407500D01*
X123416805Y-124349952D01*
X123689332Y-124237067D01*
X123934601Y-124073184D01*
X124143184Y-123864601D01*
X124307067Y-123619332D01*
X124315001Y-123600178D01*
X124315001Y-132405000D01*
X100685000Y-132405000D01*
X100685000Y-95685000D01*
X124315000Y-95685000D01*
X124315000Y-96222288D01*
G37*
X124315000Y-96222288D02*
X124293685Y-96196315D01*
X124196994Y-96116963D01*
X124086680Y-96057998D01*
X123966982Y-96021688D01*
X123842500Y-96009428D01*
X122117500Y-96009428D01*
X121993018Y-96021688D01*
X121873320Y-96057998D01*
X121763006Y-96116963D01*
X121666315Y-96196315D01*
X121586963Y-96293006D01*
X121527998Y-96403320D01*
X121491688Y-96523018D01*
X121479428Y-96647500D01*
X121479428Y-98372500D01*
X121491688Y-98496982D01*
X121527998Y-98616680D01*
X121586963Y-98726994D01*
X121666315Y-98823685D01*
X121763006Y-98903037D01*
X121873320Y-98962002D01*
X121993018Y-98998312D01*
X122117500Y-99010572D01*
X123842500Y-99010572D01*
X123966982Y-98998312D01*
X124086680Y-98962002D01*
X124196994Y-98903037D01*
X124293685Y-98823685D01*
X124315000Y-98797712D01*
X124315000Y-101899820D01*
X124307067Y-101880668D01*
X124143184Y-101635399D01*
X123934601Y-101426816D01*
X123689332Y-101262933D01*
X123416805Y-101150048D01*
X123127491Y-101092500D01*
X122832509Y-101092500D01*
X122543195Y-101150048D01*
X122270668Y-101262933D01*
X122025399Y-101426816D01*
X121816816Y-101635399D01*
X121652933Y-101880668D01*
X121540048Y-102153195D01*
X121482500Y-102442509D01*
X121482500Y-102737491D01*
X121504696Y-102849081D01*
X121114264Y-103239513D01*
X121081445Y-103266447D01*
X120973975Y-103397400D01*
X120894118Y-103546802D01*
X120868122Y-103632500D01*
X120850666Y-103690048D01*
X120844943Y-103708913D01*
X120832499Y-103835256D01*
X120832499Y-103835262D01*
X120828339Y-103877501D01*
X120832499Y-103919740D01*
X120832500Y-105021276D01*
X109950000Y-115903777D01*
X109950000Y-115896203D01*
X109893893Y-115614134D01*
X109783835Y-115348431D01*
X109624056Y-115109304D01*
X109420696Y-114905944D01*
X109217241Y-114770000D01*
X109420696Y-114634056D01*
X109624056Y-114430696D01*
X109783835Y-114191569D01*
X109893893Y-113925866D01*
X109950000Y-113643797D01*
X109950000Y-113356203D01*
X109893893Y-113074134D01*
X109783835Y-112808431D01*
X109624056Y-112569304D01*
X109420696Y-112365944D01*
X109217241Y-112230000D01*
X109420696Y-112094056D01*
X109624056Y-111890696D01*
X109783835Y-111651569D01*
X109893893Y-111385866D01*
X109950000Y-111103797D01*
X109950000Y-110816203D01*
X109893893Y-110534134D01*
X109783835Y-110268431D01*
X109624056Y-110029304D01*
X109420696Y-109825944D01*
X109181569Y-109666165D01*
X108915866Y-109556107D01*
X108633797Y-109500000D01*
X108346203Y-109500000D01*
X108064134Y-109556107D01*
X107798431Y-109666165D01*
X107559304Y-109825944D01*
X107355944Y-110029304D01*
X107220000Y-110232759D01*
X107084056Y-110029304D01*
X106880696Y-109825944D01*
X106641569Y-109666165D01*
X106375866Y-109556107D01*
X106093797Y-109500000D01*
X105806203Y-109500000D01*
X105524134Y-109556107D01*
X105258431Y-109666165D01*
X105019304Y-109825944D01*
X104815944Y-110029304D01*
X104656165Y-110268431D01*
X104546107Y-110534134D01*
X104490000Y-110816203D01*
X104490000Y-111103797D01*
X104546107Y-111385866D01*
X104656165Y-111651569D01*
X104815944Y-111890696D01*
X105019304Y-112094056D01*
X105222759Y-112230000D01*
X105019304Y-112365944D01*
X104815944Y-112569304D01*
X104656165Y-112808431D01*
X104546107Y-113074134D01*
X104490000Y-113356203D01*
X104490000Y-113643797D01*
X104546107Y-113925866D01*
X104656165Y-114191569D01*
X104815944Y-114430696D01*
X105019304Y-114634056D01*
X105222759Y-114770000D01*
X105019304Y-114905944D01*
X104815944Y-115109304D01*
X104656165Y-115348431D01*
X104546107Y-115614134D01*
X104490000Y-115896203D01*
X104490000Y-116183797D01*
X104546107Y-116465866D01*
X104656165Y-116731569D01*
X104815944Y-116970696D01*
X105019304Y-117174056D01*
X105222759Y-117310000D01*
X105019304Y-117445944D01*
X104815944Y-117649304D01*
X104656165Y-117888431D01*
X104546107Y-118154134D01*
X104490000Y-118436203D01*
X104490000Y-118723797D01*
X104546107Y-119005866D01*
X104656165Y-119271569D01*
X104815944Y-119510696D01*
X105019304Y-119714056D01*
X105222759Y-119850000D01*
X105019304Y-119985944D01*
X104815944Y-120189304D01*
X104656165Y-120428431D01*
X104546107Y-120694134D01*
X104490000Y-120976203D01*
X104490000Y-121263797D01*
X104546107Y-121545866D01*
X104656165Y-121811569D01*
X104815944Y-122050696D01*
X105019304Y-122254056D01*
X105258431Y-122413835D01*
X105524134Y-122523893D01*
X105806203Y-122580000D01*
X106093797Y-122580000D01*
X106177189Y-122563412D01*
X106562018Y-122948241D01*
X106588947Y-122981055D01*
X106719899Y-123088525D01*
X106869301Y-123168382D01*
X106955951Y-123194666D01*
X107031410Y-123217557D01*
X107062539Y-123220623D01*
X107157755Y-123230001D01*
X107157761Y-123230001D01*
X107200000Y-123234161D01*
X107242239Y-123230001D01*
X111977760Y-123230001D01*
X112019999Y-123234161D01*
X112062238Y-123230001D01*
X112062245Y-123230001D01*
X112188588Y-123217557D01*
X112350699Y-123168382D01*
X112500101Y-123088525D01*
X112631053Y-122981055D01*
X112657987Y-122948236D01*
X117950910Y-117655314D01*
X118051898Y-117635226D01*
X118240256Y-117557205D01*
X118409774Y-117443937D01*
X118553937Y-117299774D01*
X118667205Y-117130256D01*
X118745226Y-116941898D01*
X118785000Y-116741939D01*
X118785000Y-116538061D01*
X118745226Y-116338102D01*
X118667311Y-116150000D01*
X121753606Y-116150000D01*
X121816816Y-116244601D01*
X122025399Y-116453184D01*
X122185261Y-116560000D01*
X122025399Y-116666816D01*
X121816816Y-116875399D01*
X121652933Y-117120668D01*
X121540048Y-117393195D01*
X121482500Y-117682509D01*
X121482500Y-117977491D01*
X121540048Y-118266805D01*
X121652933Y-118539332D01*
X121816816Y-118784601D01*
X122025399Y-118993184D01*
X122185261Y-119100000D01*
X122025399Y-119206816D01*
X121816816Y-119415399D01*
X121652933Y-119660668D01*
X121540048Y-119933195D01*
X121482500Y-120222509D01*
X121482500Y-120441276D01*
X117369091Y-124554686D01*
X117268102Y-124574774D01*
X117079744Y-124652795D01*
X116910226Y-124766063D01*
X116766063Y-124910226D01*
X116652795Y-125079744D01*
X116574774Y-125268102D01*
X116535000Y-125468061D01*
X116535000Y-125671939D01*
X116574774Y-125871898D01*
X116652795Y-126060256D01*
X116766063Y-126229774D01*
X116910226Y-126373937D01*
X117079744Y-126487205D01*
X117268102Y-126565226D01*
X117468061Y-126605000D01*
X117671939Y-126605000D01*
X117871898Y-126565226D01*
X118060256Y-126487205D01*
X118229774Y-126373937D01*
X118373937Y-126229774D01*
X118487205Y-126060256D01*
X118565226Y-125871898D01*
X118585314Y-125770909D01*
X121482500Y-122873724D01*
X121482500Y-123057491D01*
X121540048Y-123346805D01*
X121652933Y-123619332D01*
X121816816Y-123864601D01*
X122025399Y-124073184D01*
X122270668Y-124237067D01*
X122543195Y-124349952D01*
X122832509Y-124407500D01*
X123127491Y-124407500D01*
X123416805Y-124349952D01*
X123689332Y-124237067D01*
X123934601Y-124073184D01*
X124143184Y-123864601D01*
X124307067Y-123619332D01*
X124315001Y-123600178D01*
X124315001Y-132405000D01*
X100685000Y-132405000D01*
X100685000Y-95685000D01*
X124315000Y-95685000D01*
X124315000Y-96222288D01*
G04 #@! TD*
M02*
