G04 #@! TF.GenerationSoftware,KiCad,Pcbnew,(5.1.6)-1*
G04 #@! TF.CreationDate,2021-02-20T14:32:47+01:00*
G04 #@! TF.ProjectId,IDCbreakout,49444362-7265-4616-9b6f-75742e6b6963,rev?*
G04 #@! TF.SameCoordinates,Original*
G04 #@! TF.FileFunction,Copper,L2,Bot*
G04 #@! TF.FilePolarity,Positive*
%FSLAX46Y46*%
G04 Gerber Fmt 4.6, Leading zero omitted, Abs format (unit mm)*
G04 Created by KiCad (PCBNEW (5.1.6)-1) date 2021-02-20 14:32:47*
%MOMM*%
%LPD*%
G01*
G04 APERTURE LIST*
G04 #@! TA.AperFunction,ComponentPad*
%ADD10C,1.725000*%
G04 #@! TD*
G04 #@! TA.AperFunction,ComponentPad*
%ADD11R,1.725000X1.725000*%
G04 #@! TD*
G04 #@! TA.AperFunction,ComponentPad*
%ADD12C,1.650000*%
G04 #@! TD*
G04 #@! TA.AperFunction,ComponentPad*
%ADD13R,1.650000X1.650000*%
G04 #@! TD*
G04 #@! TA.AperFunction,ViaPad*
%ADD14C,0.800000*%
G04 #@! TD*
G04 #@! TA.AperFunction,Conductor*
%ADD15C,0.450000*%
G04 #@! TD*
G04 #@! TA.AperFunction,Conductor*
%ADD16C,0.254000*%
G04 #@! TD*
G04 APERTURE END LIST*
D10*
G04 #@! TO.P,J2,14*
G04 #@! TO.N,GND*
X122980000Y-130530000D03*
G04 #@! TO.P,J2,13*
X122980000Y-127990000D03*
G04 #@! TO.P,J2,12*
X122980000Y-125450000D03*
G04 #@! TO.P,J2,11*
G04 #@! TO.N,TX2*
X122980000Y-122910000D03*
G04 #@! TO.P,J2,10*
G04 #@! TO.N,RX2*
X122980000Y-120370000D03*
G04 #@! TO.P,J2,9*
G04 #@! TO.N,TX1*
X122980000Y-117830000D03*
G04 #@! TO.P,J2,8*
G04 #@! TO.N,RX1*
X122980000Y-115290000D03*
G04 #@! TO.P,J2,7*
G04 #@! TO.N,1.8v*
X122980000Y-112750000D03*
G04 #@! TO.P,J2,6*
G04 #@! TO.N,SWDIO*
X122980000Y-110210000D03*
G04 #@! TO.P,J2,5*
G04 #@! TO.N,SWDCLK*
X122980000Y-107670000D03*
G04 #@! TO.P,J2,4*
G04 #@! TO.N,SWO*
X122980000Y-105130000D03*
G04 #@! TO.P,J2,3*
G04 #@! TO.N,RESET*
X122980000Y-102590000D03*
G04 #@! TO.P,J2,2*
G04 #@! TO.N,GND*
X122980000Y-100050000D03*
D11*
G04 #@! TO.P,J2,1*
G04 #@! TO.N,VCC*
X122980000Y-97510000D03*
G04 #@! TD*
D12*
G04 #@! TO.P,J1,14*
G04 #@! TO.N,GND*
X105950000Y-105880000D03*
G04 #@! TO.P,J1,13*
X108490000Y-105880000D03*
G04 #@! TO.P,J1,12*
X105950000Y-108420000D03*
G04 #@! TO.P,J1,11*
X108490000Y-108420000D03*
G04 #@! TO.P,J1,10*
G04 #@! TO.N,TX2*
X105950000Y-110960000D03*
G04 #@! TO.P,J1,9*
G04 #@! TO.N,RX2*
X108490000Y-110960000D03*
G04 #@! TO.P,J1,8*
G04 #@! TO.N,TX1*
X105950000Y-113500000D03*
G04 #@! TO.P,J1,7*
G04 #@! TO.N,RX1*
X108490000Y-113500000D03*
G04 #@! TO.P,J1,6*
G04 #@! TO.N,SWO*
X105950000Y-116040000D03*
G04 #@! TO.P,J1,5*
G04 #@! TO.N,SWDIO*
X108490000Y-116040000D03*
G04 #@! TO.P,J1,4*
G04 #@! TO.N,SWDCLK*
X105950000Y-118580000D03*
G04 #@! TO.P,J1,3*
G04 #@! TO.N,RESET*
X108490000Y-118580000D03*
G04 #@! TO.P,J1,2*
G04 #@! TO.N,1.8v*
X105950000Y-121120000D03*
D13*
G04 #@! TO.P,J1,1*
G04 #@! TO.N,VCC*
X108490000Y-121120000D03*
G04 #@! TD*
D14*
G04 #@! TO.N,RX2*
X117570000Y-125570000D03*
G04 #@! TO.N,RX1*
X113768364Y-114468364D03*
G04 #@! TO.N,SWO*
X117030000Y-112110000D03*
X118869163Y-114354109D03*
G04 #@! TO.N,SWDIO*
X112060000Y-116220000D03*
X115460000Y-116510000D03*
G04 #@! TO.N,1.8v*
X117750000Y-116640000D03*
G04 #@! TD*
D15*
G04 #@! TO.N,TX2*
X121239970Y-124650030D02*
X122980000Y-122910000D01*
X102749969Y-122527727D02*
X104872272Y-124650030D01*
X102749969Y-114160031D02*
X102749969Y-122527727D01*
X104872272Y-124650030D02*
X121239970Y-124650030D01*
X105950000Y-110960000D02*
X102749969Y-114160031D01*
G04 #@! TO.N,RX2*
X102099959Y-122796969D02*
X104872990Y-125570000D01*
X108490000Y-110960000D02*
X107239999Y-109709999D01*
X107239999Y-109709999D02*
X105349999Y-109709999D01*
X105349999Y-109709999D02*
X102099959Y-112960039D01*
X104872990Y-125570000D02*
X117570000Y-125570000D01*
X102099959Y-112960039D02*
X102099959Y-122796969D01*
G04 #@! TO.N,TX1*
X122980000Y-117830000D02*
X116809980Y-124000020D01*
X103399979Y-116050021D02*
X105950000Y-113500000D01*
X105141514Y-124000020D02*
X103399979Y-122258485D01*
X103399979Y-122258485D02*
X103399979Y-116050021D01*
X116809980Y-124000020D02*
X105141514Y-124000020D01*
G04 #@! TO.N,RX1*
X108490000Y-113500000D02*
X112800000Y-113500000D01*
X112800000Y-113500000D02*
X113768364Y-114468364D01*
G04 #@! TO.N,SWO*
X104049989Y-121989243D02*
X105410756Y-123350010D01*
X105950000Y-116040000D02*
X104049989Y-117940011D01*
X105410756Y-123350010D02*
X112719990Y-123350010D01*
X104049989Y-117940011D02*
X104049989Y-121989243D01*
X122980000Y-105130000D02*
X117030000Y-111080000D01*
X117030000Y-111080000D02*
X117030000Y-112110000D01*
X118869163Y-114354109D02*
X113530000Y-119693272D01*
X113530000Y-122540000D02*
X112719990Y-123350010D01*
X113530000Y-119693272D02*
X113530000Y-122540000D01*
G04 #@! TO.N,SWDIO*
X108490000Y-116040000D02*
X111880000Y-116040000D01*
X111880000Y-116040000D02*
X112060000Y-116220000D01*
X121760000Y-110210000D02*
X122980000Y-110210000D01*
X115460000Y-116510000D02*
X121760000Y-110210000D01*
G04 #@! TO.N,SWDCLK*
X122980000Y-107670000D02*
X110135000Y-120515000D01*
X104699999Y-119830001D02*
X105950000Y-118580000D01*
X110135000Y-121890002D02*
X109325002Y-122700000D01*
X110135000Y-120515000D02*
X110135000Y-121890002D01*
X109325002Y-122700000D02*
X105679998Y-122700000D01*
X105679998Y-122700000D02*
X104699999Y-121720001D01*
X104699999Y-121720001D02*
X104699999Y-119830001D01*
G04 #@! TO.N,RESET*
X108490000Y-118580000D02*
X108400000Y-118580000D01*
G04 #@! TO.N,1.8v*
X121640000Y-112750000D02*
X122980000Y-112750000D01*
X117750000Y-116640000D02*
X121640000Y-112750000D01*
G04 #@! TO.N,VCC*
X109740001Y-119869999D02*
X109770001Y-119869999D01*
X108490000Y-121120000D02*
X109740001Y-119869999D01*
X109770001Y-119869999D02*
X115190000Y-114450000D01*
X115190000Y-105300000D02*
X122980000Y-97510000D01*
X115190000Y-114450000D02*
X115190000Y-105300000D01*
G04 #@! TD*
D16*
G04 #@! TO.N,GND*
G36*
X124315000Y-96222288D02*
G01*
X124293685Y-96196315D01*
X124196994Y-96116963D01*
X124086680Y-96057998D01*
X123966982Y-96021688D01*
X123842500Y-96009428D01*
X122117500Y-96009428D01*
X121993018Y-96021688D01*
X121873320Y-96057998D01*
X121763006Y-96116963D01*
X121666315Y-96196315D01*
X121586963Y-96293006D01*
X121527998Y-96403320D01*
X121491688Y-96523018D01*
X121479428Y-96647500D01*
X121479428Y-97794348D01*
X114611760Y-104662017D01*
X114578947Y-104688946D01*
X114552018Y-104721759D01*
X114552016Y-104721761D01*
X114471477Y-104819898D01*
X114391620Y-104969300D01*
X114342444Y-105131411D01*
X114325840Y-105300000D01*
X114330001Y-105342249D01*
X114330000Y-113598854D01*
X114258620Y-113551159D01*
X114070262Y-113473138D01*
X113969274Y-113453050D01*
X113437988Y-112921765D01*
X113411054Y-112888946D01*
X113280102Y-112781476D01*
X113130700Y-112701619D01*
X112968589Y-112652444D01*
X112842246Y-112640000D01*
X112842239Y-112640000D01*
X112800000Y-112635840D01*
X112757761Y-112640000D01*
X109671293Y-112640000D01*
X109624056Y-112569304D01*
X109420696Y-112365944D01*
X109217241Y-112230000D01*
X109420696Y-112094056D01*
X109624056Y-111890696D01*
X109783835Y-111651569D01*
X109893893Y-111385866D01*
X109950000Y-111103797D01*
X109950000Y-110816203D01*
X109893893Y-110534134D01*
X109783835Y-110268431D01*
X109624056Y-110029304D01*
X109420696Y-109825944D01*
X109181569Y-109666165D01*
X108915866Y-109556107D01*
X108633797Y-109500000D01*
X108346203Y-109500000D01*
X108262811Y-109516588D01*
X107877987Y-109131764D01*
X107851053Y-109098945D01*
X107720101Y-108991475D01*
X107570699Y-108911618D01*
X107408588Y-108862443D01*
X107282245Y-108849999D01*
X107282238Y-108849999D01*
X107239999Y-108845839D01*
X107197760Y-108849999D01*
X105392245Y-108849999D01*
X105349999Y-108845838D01*
X105181409Y-108862443D01*
X105019298Y-108911618D01*
X104967258Y-108939435D01*
X104869897Y-108991475D01*
X104738945Y-109098945D01*
X104712016Y-109131758D01*
X101521724Y-112322051D01*
X101488905Y-112348985D01*
X101381435Y-112479938D01*
X101301578Y-112629340D01*
X101273757Y-112721054D01*
X101255429Y-112781477D01*
X101252403Y-112791451D01*
X101239959Y-112917794D01*
X101239959Y-112917800D01*
X101235799Y-112960039D01*
X101239959Y-113002278D01*
X101239960Y-122754720D01*
X101235799Y-122796969D01*
X101252403Y-122965558D01*
X101295018Y-123106041D01*
X101301579Y-123127669D01*
X101381436Y-123277071D01*
X101488906Y-123408023D01*
X101521719Y-123434952D01*
X104235007Y-126148241D01*
X104261936Y-126181054D01*
X104392888Y-126288524D01*
X104542290Y-126368381D01*
X104655225Y-126402639D01*
X104704400Y-126417556D01*
X104721548Y-126419245D01*
X104830744Y-126430000D01*
X104830750Y-126430000D01*
X104872989Y-126434160D01*
X104915228Y-126430000D01*
X116994130Y-126430000D01*
X117079744Y-126487205D01*
X117268102Y-126565226D01*
X117468061Y-126605000D01*
X117671939Y-126605000D01*
X117871898Y-126565226D01*
X118060256Y-126487205D01*
X118229774Y-126373937D01*
X118373937Y-126229774D01*
X118487205Y-126060256D01*
X118565226Y-125871898D01*
X118605000Y-125671939D01*
X118605000Y-125510030D01*
X121197731Y-125510030D01*
X121239970Y-125514190D01*
X121282209Y-125510030D01*
X121282216Y-125510030D01*
X121408559Y-125497586D01*
X121570670Y-125448411D01*
X121720072Y-125368554D01*
X121851024Y-125261084D01*
X121877958Y-125228265D01*
X122720920Y-124385304D01*
X122832509Y-124407500D01*
X123127491Y-124407500D01*
X123416805Y-124349952D01*
X123689332Y-124237067D01*
X123934601Y-124073184D01*
X124143184Y-123864601D01*
X124307067Y-123619332D01*
X124315001Y-123600178D01*
X124315001Y-132405000D01*
X100685000Y-132405000D01*
X100685000Y-95685000D01*
X124315000Y-95685000D01*
X124315000Y-96222288D01*
G37*
X124315000Y-96222288D02*
X124293685Y-96196315D01*
X124196994Y-96116963D01*
X124086680Y-96057998D01*
X123966982Y-96021688D01*
X123842500Y-96009428D01*
X122117500Y-96009428D01*
X121993018Y-96021688D01*
X121873320Y-96057998D01*
X121763006Y-96116963D01*
X121666315Y-96196315D01*
X121586963Y-96293006D01*
X121527998Y-96403320D01*
X121491688Y-96523018D01*
X121479428Y-96647500D01*
X121479428Y-97794348D01*
X114611760Y-104662017D01*
X114578947Y-104688946D01*
X114552018Y-104721759D01*
X114552016Y-104721761D01*
X114471477Y-104819898D01*
X114391620Y-104969300D01*
X114342444Y-105131411D01*
X114325840Y-105300000D01*
X114330001Y-105342249D01*
X114330000Y-113598854D01*
X114258620Y-113551159D01*
X114070262Y-113473138D01*
X113969274Y-113453050D01*
X113437988Y-112921765D01*
X113411054Y-112888946D01*
X113280102Y-112781476D01*
X113130700Y-112701619D01*
X112968589Y-112652444D01*
X112842246Y-112640000D01*
X112842239Y-112640000D01*
X112800000Y-112635840D01*
X112757761Y-112640000D01*
X109671293Y-112640000D01*
X109624056Y-112569304D01*
X109420696Y-112365944D01*
X109217241Y-112230000D01*
X109420696Y-112094056D01*
X109624056Y-111890696D01*
X109783835Y-111651569D01*
X109893893Y-111385866D01*
X109950000Y-111103797D01*
X109950000Y-110816203D01*
X109893893Y-110534134D01*
X109783835Y-110268431D01*
X109624056Y-110029304D01*
X109420696Y-109825944D01*
X109181569Y-109666165D01*
X108915866Y-109556107D01*
X108633797Y-109500000D01*
X108346203Y-109500000D01*
X108262811Y-109516588D01*
X107877987Y-109131764D01*
X107851053Y-109098945D01*
X107720101Y-108991475D01*
X107570699Y-108911618D01*
X107408588Y-108862443D01*
X107282245Y-108849999D01*
X107282238Y-108849999D01*
X107239999Y-108845839D01*
X107197760Y-108849999D01*
X105392245Y-108849999D01*
X105349999Y-108845838D01*
X105181409Y-108862443D01*
X105019298Y-108911618D01*
X104967258Y-108939435D01*
X104869897Y-108991475D01*
X104738945Y-109098945D01*
X104712016Y-109131758D01*
X101521724Y-112322051D01*
X101488905Y-112348985D01*
X101381435Y-112479938D01*
X101301578Y-112629340D01*
X101273757Y-112721054D01*
X101255429Y-112781477D01*
X101252403Y-112791451D01*
X101239959Y-112917794D01*
X101239959Y-112917800D01*
X101235799Y-112960039D01*
X101239959Y-113002278D01*
X101239960Y-122754720D01*
X101235799Y-122796969D01*
X101252403Y-122965558D01*
X101295018Y-123106041D01*
X101301579Y-123127669D01*
X101381436Y-123277071D01*
X101488906Y-123408023D01*
X101521719Y-123434952D01*
X104235007Y-126148241D01*
X104261936Y-126181054D01*
X104392888Y-126288524D01*
X104542290Y-126368381D01*
X104655225Y-126402639D01*
X104704400Y-126417556D01*
X104721548Y-126419245D01*
X104830744Y-126430000D01*
X104830750Y-126430000D01*
X104872989Y-126434160D01*
X104915228Y-126430000D01*
X116994130Y-126430000D01*
X117079744Y-126487205D01*
X117268102Y-126565226D01*
X117468061Y-126605000D01*
X117671939Y-126605000D01*
X117871898Y-126565226D01*
X118060256Y-126487205D01*
X118229774Y-126373937D01*
X118373937Y-126229774D01*
X118487205Y-126060256D01*
X118565226Y-125871898D01*
X118605000Y-125671939D01*
X118605000Y-125510030D01*
X121197731Y-125510030D01*
X121239970Y-125514190D01*
X121282209Y-125510030D01*
X121282216Y-125510030D01*
X121408559Y-125497586D01*
X121570670Y-125448411D01*
X121720072Y-125368554D01*
X121851024Y-125261084D01*
X121877958Y-125228265D01*
X122720920Y-124385304D01*
X122832509Y-124407500D01*
X123127491Y-124407500D01*
X123416805Y-124349952D01*
X123689332Y-124237067D01*
X123934601Y-124073184D01*
X124143184Y-123864601D01*
X124307067Y-123619332D01*
X124315001Y-123600178D01*
X124315001Y-132405000D01*
X100685000Y-132405000D01*
X100685000Y-95685000D01*
X124315000Y-95685000D01*
X124315000Y-96222288D01*
G36*
X124315000Y-101899820D02*
G01*
X124307067Y-101880668D01*
X124143184Y-101635399D01*
X123934601Y-101426816D01*
X123689332Y-101262933D01*
X123416805Y-101150048D01*
X123127491Y-101092500D01*
X122832509Y-101092500D01*
X122543195Y-101150048D01*
X122270668Y-101262933D01*
X122025399Y-101426816D01*
X121816816Y-101635399D01*
X121652933Y-101880668D01*
X121540048Y-102153195D01*
X121482500Y-102442509D01*
X121482500Y-102737491D01*
X121540048Y-103026805D01*
X121652933Y-103299332D01*
X121816816Y-103544601D01*
X122025399Y-103753184D01*
X122185261Y-103860000D01*
X122025399Y-103966816D01*
X121816816Y-104175399D01*
X121652933Y-104420668D01*
X121540048Y-104693195D01*
X121482500Y-104982509D01*
X121482500Y-105277491D01*
X121504696Y-105389080D01*
X116451765Y-110442012D01*
X116418946Y-110468946D01*
X116311476Y-110599899D01*
X116231619Y-110749301D01*
X116182444Y-110911412D01*
X116170000Y-111037755D01*
X116170000Y-111037761D01*
X116165840Y-111080000D01*
X116170000Y-111122239D01*
X116170000Y-111534130D01*
X116112795Y-111619744D01*
X116050000Y-111771343D01*
X116050000Y-105656223D01*
X122695652Y-99010572D01*
X123842500Y-99010572D01*
X123966982Y-98998312D01*
X124086680Y-98962002D01*
X124196994Y-98903037D01*
X124293685Y-98823685D01*
X124315000Y-98797712D01*
X124315000Y-101899820D01*
G37*
X124315000Y-101899820D02*
X124307067Y-101880668D01*
X124143184Y-101635399D01*
X123934601Y-101426816D01*
X123689332Y-101262933D01*
X123416805Y-101150048D01*
X123127491Y-101092500D01*
X122832509Y-101092500D01*
X122543195Y-101150048D01*
X122270668Y-101262933D01*
X122025399Y-101426816D01*
X121816816Y-101635399D01*
X121652933Y-101880668D01*
X121540048Y-102153195D01*
X121482500Y-102442509D01*
X121482500Y-102737491D01*
X121540048Y-103026805D01*
X121652933Y-103299332D01*
X121816816Y-103544601D01*
X122025399Y-103753184D01*
X122185261Y-103860000D01*
X122025399Y-103966816D01*
X121816816Y-104175399D01*
X121652933Y-104420668D01*
X121540048Y-104693195D01*
X121482500Y-104982509D01*
X121482500Y-105277491D01*
X121504696Y-105389080D01*
X116451765Y-110442012D01*
X116418946Y-110468946D01*
X116311476Y-110599899D01*
X116231619Y-110749301D01*
X116182444Y-110911412D01*
X116170000Y-111037755D01*
X116170000Y-111037761D01*
X116165840Y-111080000D01*
X116170000Y-111122239D01*
X116170000Y-111534130D01*
X116112795Y-111619744D01*
X116050000Y-111771343D01*
X116050000Y-105656223D01*
X122695652Y-99010572D01*
X123842500Y-99010572D01*
X123966982Y-98998312D01*
X124086680Y-98962002D01*
X124196994Y-98903037D01*
X124293685Y-98823685D01*
X124315000Y-98797712D01*
X124315000Y-101899820D01*
G04 #@! TD*
M02*
